<svg preserveAspectRatio="none" width="100%" height="100%" overflow="visible" style="display: block;" viewBox="0 0 22 22" fill="none" xmlns="http://www.w3.org/2000/svg">
<path id="Vector" d="M8.08984 8.00008C8.32495 7.33175 8.789 6.76819 9.3998 6.40921C10.0106 6.05024 10.7287 5.91902 11.427 6.03879C12.1253 6.15857 12.7587 6.52161 13.2149 7.06361C13.6712 7.60561 13.9209 8.2916 13.9198 9.00008C13.9198 11.0001 10.9198 12.0001 10.9198 12.0001M11 16H11.01M21 11C21 16.5228 16.5228 21 11 21C5.47715 21 1 16.5228 1 11C1 5.47715 5.47715 1 11 1C16.5228 1 21 5.47715 21 11Z" stroke="var(--stroke-0, #0A0A0A)" stroke-width="2" stroke-linecap="round" stroke-linejoin="round"/>
</svg>
