<svg preserveAspectRatio="none" width="100%" height="100%" overflow="visible" style="display: block;" viewBox="0 0 14 15" fill="none" xmlns="http://www.w3.org/2000/svg">
<path id="Vector" d="M13 4.33333H11C10.6464 4.33333 10.3072 4.19286 10.0572 3.94281C9.80714 3.69276 9.66667 3.35362 9.66667 3V1M3.66667 5V10.8667C3.66667 11.0667 3.8 11.2667 3.93333 11.4C4.06667 11.5333 4.26667 11.6667 4.46667 11.6667H9M1 7.66667V13.5333C1 13.7333 1.13333 13.9333 1.26667 14.0667C1.4 14.2 1.6 14.3333 1.8 14.3333H6.33333M13 3.66667V8C13 8.53333 12.5333 9 12 9H7.33333C6.8 9 6.33333 8.53333 6.33333 8V2C6.33333 1.46667 6.8 1 7.33333 1H10.3333L13 3.66667Z" stroke="var(--stroke-0, #0A0A0A)" stroke-width="1.33" stroke-linecap="round" stroke-linejoin="round"/>
</svg>
