<svg width="37" height="37" viewBox="0 0 37 37" fill="none" xmlns="http://www.w3.org/2000/svg">
<path d="M33.333 6.64575C33.333 5.81733 32.6615 5.14575 31.833 5.14575H4.83301C4.00459 5.14575 3.33301 5.81733 3.33301 6.64575V30.6458C3.33301 31.4742 4.00459 32.1458 4.83301 32.1458H31.833C32.6615 32.1458 33.333 31.4742 33.333 30.6458V6.64575ZM6.33301 23.1458H11.4571C12.6144 25.7946 15.2575 27.6458 18.333 27.6458C21.4085 27.6458 24.0516 25.7946 25.209 23.1458H30.333V29.1458H6.33301V23.1458ZM6.33301 8.14575H30.333V20.1458H22.833C22.833 22.6311 20.8184 24.6458 18.333 24.6458C15.8477 24.6458 13.833 22.6311 13.833 20.1458H6.33301V8.14575ZM24.333 14.1458H19.833V9.64575H16.833V14.1458H12.333L18.333 20.8958L24.333 14.1458Z" fill="url(#paint0_linear_62_6938)"/>
<defs>
<linearGradient id="paint0_linear_62_6938" x1="2.99951" y1="3.64575" x2="39.9995" y2="40.6458" gradientUnits="userSpaceOnUse">
<stop stop-color="#5E19CF"/>
<stop offset="1" stop-color="#D0B3FF"/>
</linearGradient>
</defs>
</svg>
