<svg preserveAspectRatio="none" width="100%" height="100%" overflow="visible" style="display: block;" viewBox="0 0 29 32" fill="none" xmlns="http://www.w3.org/2000/svg">
<path id="Subtract" d="M13.1099 0.273233C13.7409 -0.0910777 14.5184 -0.0910776 15.1494 0.273233L27.2396 7.25351C27.8706 7.61782 28.2593 8.2911 28.2593 9.01972V16.8118L15.4543 9.43278C14.8444 9.08129 14.065 9.29081 13.7135 9.90075C13.362 10.5107 13.5715 11.2901 14.1815 11.6416L28.2593 19.7541V22.9803C28.2593 23.7089 27.8706 24.3822 27.2396 24.7465L15.1494 31.7268C14.5184 32.0911 13.7409 32.0911 13.1099 31.7268L1.01972 24.7465C0.388714 24.3822 0 23.7089 0 22.9803V15.2119L12.7203 22.5663C13.3297 22.9187 14.1094 22.7103 14.4618 22.1008C14.8141 21.4914 14.6057 20.7117 13.9963 20.3593L0 12.2672V9.01972C0 8.2911 0.388715 7.61782 1.01972 7.25351L13.1099 0.273233Z" fill="var(--fill-0, #94A3B8)"/>
</svg>
