<svg width="20" height="21" viewBox="0 0 20 21" fill="none" xmlns="http://www.w3.org/2000/svg">
<path d="M14.1925 11.1523L7.94254 17.4023C7.88447 17.4603 7.81553 17.5064 7.73966 17.5378C7.66379 17.5692 7.58247 17.5854 7.50035 17.5854C7.41823 17.5854 7.33691 17.5692 7.26104 17.5378C7.18517 17.5064 7.11623 17.4603 7.05816 17.4023C7.00009 17.3442 6.95403 17.2752 6.9226 17.1994C6.89117 17.1235 6.875 17.0422 6.875 16.9601C6.875 16.8779 6.89117 16.7966 6.9226 16.7208C6.95403 16.6449 7.00009 16.5759 7.05816 16.5179L12.8668 10.7101L7.05816 4.90225C6.94088 4.78498 6.875 4.62592 6.875 4.46006C6.875 4.29421 6.94088 4.13515 7.05816 4.01788C7.17544 3.9006 7.3345 3.83472 7.50035 3.83472C7.6662 3.83472 7.82526 3.9006 7.94254 4.01788L14.1925 10.2679C14.2506 10.3259 14.2967 10.3949 14.3282 10.4707C14.3597 10.5466 14.3758 10.6279 14.3758 10.7101C14.3758 10.7922 14.3597 10.8735 14.3282 10.9494C14.2967 11.0253 14.2506 11.0942 14.1925 11.1523Z" fill="#171717"/>
</svg>
