<svg width="24" height="25" viewBox="0 0 24 25" fill="none" xmlns="http://www.w3.org/2000/svg">
<path d="M9.97308 18.7101H14.0269C14.1589 17.5085 14.7721 16.5166 15.7676 15.4327C15.8797 15.3107 16.5988 14.5665 16.6841 14.4602C17.5318 13.4032 18 12.0951 18 10.7101C18 7.39637 15.3137 4.71008 12 4.71008C8.68629 4.71008 6 7.39637 6 10.7101C6 12.0944 6.46774 13.4018 7.31462 14.4585C7.40004 14.5651 8.12081 15.3113 8.23154 15.4319C9.22766 16.5165 9.84103 17.5085 9.97308 18.7101ZM14 20.7101H10V21.7101H14V20.7101ZM5.75395 15.7093C4.65645 14.3398 4 12.6016 4 10.7101C4 6.2918 7.58172 2.71008 12 2.71008C16.4183 2.71008 20 6.2918 20 10.7101C20 12.6026 19.3428 14.3416 18.2443 15.7115C17.624 16.4849 16 17.7101 16 19.2101V21.7101C16 22.8147 15.1046 23.7101 14 23.7101H10C8.89543 23.7101 8 22.8147 8 21.7101V19.2101C8 17.7101 6.37458 16.4837 5.75395 15.7093ZM13 10.7149H15.5L11 16.7149V12.7149H8.5L13 6.71008V10.7149Z" fill="#737373"/>
</svg>
