<svg xmlns="http://www.w3.org/2000/svg" viewBox="0 0 14 17" fill="none">
    <path
        fill-rule="evenodd"
        clip-rule="evenodd"
        d="M4.97866 0.936064L4.65065 0.912109L4.4965 1.20263L4.49648 1.20267L4.47523 1.24276C4.46062 1.27035 4.43798 1.31311 4.40584 1.37387C4.34156 1.4954 4.23926 1.68898 4.08703 1.9774L3.80708 2.51155C4.19018 2.62737 4.39605 2.706 4.74817 2.8816L4.97893 2.44812C5.08034 2.25597 5.15955 2.106 5.22009 1.99145C6.31561 2.2461 8.00719 3.41484 8.45571 5.6598L8.45678 5.66515L8.45796 5.67047C8.48707 5.80138 8.52415 6.04599 8.54271 6.35634C7.38449 4.91022 6.13149 3.96175 5.00587 3.36548C4.3027 2.993 3.64827 2.75744 3.09659 2.62403C2.55579 2.49325 2.08183 2.45298 1.74822 2.50038L1.49651 2.53615L1.3756 2.7598C0.657448 4.08814 0.489595 5.77408 0.806449 7.25719C1.12195 8.73394 1.94601 10.1178 3.32756 10.7018C3.35849 10.7141 3.37824 10.7231 3.39936 10.7327C3.45529 10.7581 3.52081 10.7878 3.82872 10.8962C3.85946 10.8049 3.88532 10.725 3.90887 10.6523L3.90892 10.6521L3.90894 10.6521C3.98959 10.403 4.04309 10.2379 4.17224 9.98212L3.72023 9.7729C2.7497 9.36263 2.06815 8.33589 1.79268 7.04649C1.53927 5.86036 1.6533 4.5437 2.13681 3.49177C2.31533 3.49981 2.55899 3.53158 2.85955 3.60427C3.327 3.71731 3.90266 3.92233 4.53379 4.25666C5.79359 4.924 7.27076 6.10454 8.547 8.08993L8.55138 8.09673L8.55597 8.10339C9.17499 9.00166 9.61011 9.99339 9.75993 11.0496C9.78928 11.2565 9.80711 11.454 9.81461 11.6425C7.63764 11.4272 6.05468 10.2303 5.53437 9.65133L5.07812 9.14363L4.72694 9.72894C4.59418 9.9502 4.32846 10.5494 4.17213 11.0785C4.13515 11.2037 4.1028 11.3232 4.07445 11.439C4.06751 11.4673 4.06081 11.4954 4.05434 11.5234C4.04518 11.5629 4.0365 11.6021 4.02825 11.6409C3.956 11.9809 3.91925 12.2886 3.89585 12.6178C3.87502 12.9109 3.86847 13.2252 3.88371 13.5493C3.88748 13.6294 3.89259 13.7103 3.89916 13.7916C3.90397 13.8511 3.90955 13.9108 3.91597 13.9708C3.93408 14.14 3.95882 14.311 3.99132 14.4822C4.14301 15.2811 4.46841 16.1051 5.09923 16.7494L5.25857 16.9121L5.48602 16.9001C6.19155 16.863 7.11473 16.6767 7.99559 16.257C8.15225 16.1824 8.30806 16.1002 8.46144 16.0097C8.52906 15.9699 8.59623 15.9284 8.6628 15.8853C8.79681 15.7985 8.92847 15.705 9.0566 15.6043C9.30352 15.4104 9.53751 15.1898 9.74981 14.94C9.91367 14.7471 10.0643 14.5371 10.1978 14.309C10.273 14.1805 10.3427 14.0464 10.4061 13.9066C10.4945 13.7117 10.5707 13.506 10.633 13.2894C10.7293 12.9545 10.792 12.5948 10.8161 12.2096C10.8415 11.8034 10.824 11.37 10.7584 10.908C10.5923 9.73703 10.131 8.65815 9.49963 7.69923C9.58894 7.05109 9.57073 6.43533 9.52416 5.98613C9.83362 5.9578 10.2464 5.95513 10.6606 6.01873L10.6607 6.01875C10.7724 6.0359 10.8842 6.05787 10.994 6.08545C11.5943 6.23617 12.0302 6.52245 12.2015 6.98823C12.3599 7.41878 12.3627 7.74966 12.3006 8.00461C12.2379 8.26266 12.0992 8.48133 11.9161 8.66867C11.5375 9.05588 10.9726 9.26293 10.7593 9.33676C10.9247 9.71742 10.9841 9.92574 11.0604 10.2881C11.3105 10.2016 12.0891 9.93422 12.6372 9.3737C12.9173 9.08718 13.166 8.71406 13.2806 8.24294C13.3959 7.76871 13.3661 7.23301 13.148 6.64009C12.9547 6.1145 12.6018 5.74959 12.195 5.49845C12.2579 5.48983 12.32 5.49154 12.3707 5.49702C12.3983 5.5 12.4197 5.5038 12.4323 5.50634C12.4359 5.50709 12.4388 5.5077 12.4407 5.50814L12.4419 5.50841L12.4429 5.50864C12.7096 5.57941 12.9842 5.4224 13.058 5.1558C13.1324 4.88742 12.975 4.6096 12.7066 4.53528L12.7062 4.53514L12.7057 4.535L12.7046 4.53471L12.7022 4.53405C12.7004 4.53359 12.6984 4.53307 12.6962 4.53249C12.6918 4.53134 12.6865 4.52999 12.6802 4.52848C12.6678 4.52547 12.6516 4.52181 12.6323 4.51789C12.5938 4.5101 12.5416 4.50113 12.4791 4.49437C12.3562 4.48109 12.1819 4.47507 11.9884 4.51043C11.8299 4.53939 11.6628 4.59629 11.5049 4.69192C11.5588 4.49531 11.6854 4.27543 11.9971 4.05375C12.2241 3.89236 12.2772 3.57755 12.1158 3.35059C11.9544 3.12364 11.6396 3.07049 11.4127 3.23188C10.8962 3.59913 10.6231 4.0356 10.5147 4.49444C10.4754 4.66108 10.4594 4.82442 10.4578 4.97968C10.0322 4.94328 9.63487 4.95815 9.33221 4.99202L9.32936 4.98197C8.59538 2.37629 6.39503 1.0395 4.97866 0.936064ZM5.32468 10.8342C6.20763 11.5618 7.76441 12.4619 9.74852 12.6494C9.72542 12.7749 9.69699 12.8953 9.6638 13.0107C9.64283 13.0836 9.61994 13.1546 9.59522 13.2239C9.28551 13.2311 8.91592 13.1816 8.50684 13.0807C7.9772 12.9501 7.41682 12.7424 6.89481 12.5043C6.37288 12.2663 5.90149 12.0035 5.5497 11.769C5.37328 11.6514 5.23449 11.546 5.13677 11.4592C5.12979 11.453 5.12319 11.447 5.11696 11.4413C5.12415 11.416 5.13159 11.3903 5.13929 11.3643C5.19178 11.1866 5.25817 11.0021 5.32468 10.8342ZM8.26536 14.0599C8.52531 14.124 8.78931 14.1746 9.04951 14.2041C9.02714 14.2322 9.00439 14.2598 8.98128 14.287C8.85265 14.4384 8.71236 14.5776 8.56287 14.7054C7.95974 14.6904 7.1973 14.4592 6.4631 14.1372C5.80277 13.8476 5.22553 13.5116 4.88431 13.2699C4.88198 13.0703 4.88857 12.8754 4.9018 12.6893C4.90503 12.6439 4.90851 12.5993 4.9123 12.5554C4.93794 12.573 4.96398 12.5906 4.99039 12.6082C5.3929 12.8765 5.9124 13.1647 6.47635 13.4219C7.04021 13.679 7.66071 13.9107 8.26536 14.0599ZM6.05806 15.0608C6.42525 15.2218 6.82507 15.3739 7.23091 15.4908C6.6829 15.7084 6.1308 15.8276 5.6684 15.8747C5.38254 15.5122 5.16142 15.0472 5.03863 14.5528C5.34745 14.7262 5.69503 14.9016 6.05806 15.0608ZM11.3968 7.31558C11.3968 7.52066 11.2106 7.4727 10.9949 7.41717C10.8855 7.389 10.7685 7.35887 10.6644 7.35887C10.5618 7.35887 10.4639 7.38306 10.3789 7.40406C10.2078 7.44631 10.089 7.47566 10.089 7.26915C10.089 6.96 10.4674 6.77584 10.7765 6.77584C11.0857 6.77584 11.3968 7.00643 11.3968 7.31558Z"
        fill="white"
    />
</svg>
