<svg preserveAspectRatio="none" width="100%" height="100%" overflow="visible" style="display: block;" viewBox="0 0 44 49" fill="none" xmlns="http://www.w3.org/2000/svg">
<g id="Group">
<path id="Vector" d="M21.8215 49C28.251 49 33.4632 48.5018 33.4632 47.8873C33.4632 47.2728 28.251 46.7746 21.8215 46.7746C15.392 46.7746 10.1799 47.2728 10.1799 47.8873C10.1799 48.5018 15.392 49 21.8215 49Z" fill="var(--fill-0, #D6E1E5)"/>
<g id="Group_2">
<path id="Vector_2" d="M43.6404 17.8724C43.6404 19.1788 43.0445 20.4137 42.0219 21.2266L21.8202 37.2883L1.61846 21.2266C1.1072 20.82 0.702738 20.3081 0.425707 19.7347C0.148974 19.1609 0 18.5256 0 17.8724C0 17.2079 0.286581 16.5433 0.860007 16.0859L20.3947 0.498873C21.2286 -0.166291 22.4118 -0.166291 23.2456 0.498873L42.7803 16.0859C43.3538 16.5433 43.6404 17.2079 43.6404 17.8724Z" fill="url(#paint0_linear_1732_50807)"/>
<path id="Vector_3" d="M38.1022 37.0207H5.53556V5.56557C5.53556 4.81046 6.14772 4.1983 6.90284 4.1983H36.7349C37.4901 4.1983 38.1022 4.81046 38.1022 5.56557V37.0207H38.1022Z" fill="var(--fill-0, white)"/>
<path id="Vector_4" d="M43.6404 17.8711V37.4687C43.6404 39.7939 41.7554 41.6789 39.4302 41.6789H4.21021C1.88505 41.6789 2.79486e-05 39.7939 2.79486e-05 37.4687V17.8711C2.79486e-05 18.5357 0.286609 19.2002 0.860035 19.6576L18.9493 34.091L20.3947 35.2444C21.2286 35.9096 22.4118 35.9096 23.2457 35.2444L24.6911 34.091L42.7804 19.6576C43.3538 19.2003 43.6404 18.5357 43.6404 17.8711Z" fill="url(#paint1_linear_1732_50807)"/>
<path id="Vector_5" d="M29.623 13.6187C28.872 12.3707 27.838 11.4075 26.5211 10.7289C25.2041 10.0505 23.6929 9.71125 21.9878 9.71125C20.6527 9.71125 19.4301 9.93081 18.3199 10.3697C17.2097 10.8089 16.2482 11.4328 15.4356 12.2418C14.6229 13.0509 13.997 14.0123 13.5581 15.1261C13.119 16.24 12.8996 17.4716 12.8996 18.8212V18.8321C12.8996 20.2906 13.1282 21.5858 13.5853 22.7178C14.0424 23.8497 14.6901 24.8058 15.5281 25.5857C16.3662 26.3657 17.3512 26.9571 18.4832 27.3598C19.6151 27.7625 20.8595 27.9639 22.2164 27.9639C23.6603 27.9639 24.9048 27.7788 25.9497 27.4088V25.8197C25.5506 25.9866 25.0191 26.1172 24.3552 26.2116C23.6912 26.3058 23.0037 26.3531 22.2926 26.3531C20.8269 26.3531 19.5226 26.0646 18.3798 25.4878C17.237 24.9109 16.3371 24.0619 15.6805 22.9409C15.0237 21.8198 14.6955 20.4576 14.6955 18.8539V18.843C14.6955 17.7328 14.8714 16.7152 15.2234 15.79C15.5752 14.8649 16.0723 14.0668 16.7145 13.3955C17.3567 12.7244 18.1148 12.2075 18.9893 11.8445C19.8636 11.4818 20.8233 11.3003 21.8681 11.3003C23.2902 11.3003 24.5329 11.5762 25.596 12.1275C26.6589 12.679 27.4844 13.4608 28.0721 14.473C28.6598 15.4853 28.9537 16.688 28.9537 18.0812V18.092C28.9537 19.3474 28.7886 20.296 28.4585 20.9382C28.1282 21.5804 27.6948 21.9014 27.1579 21.9014C26.7514 21.9014 26.4232 21.7238 26.1728 21.3681C25.9225 21.0127 25.7974 20.4756 25.7974 19.7573V14.5329H23.9471V15.8825H23.86C23.6568 15.4036 23.312 15.0227 22.826 14.7397C22.3398 14.4567 21.8029 14.3152 21.2151 14.3152C20.4822 14.3152 19.8329 14.5075 19.2669 14.892C18.7009 15.2767 18.2564 15.8082 17.9336 16.4866C17.6106 17.1651 17.4493 17.9505 17.4493 18.843V18.8539C17.4493 19.7828 17.6071 20.5953 17.9227 21.2919C18.2383 21.9885 18.6792 22.5291 19.2451 22.9136C19.8111 23.2983 20.4713 23.4905 21.226 23.4905C21.9153 23.4905 22.5248 23.3291 23.0545 23.0062C23.5841 22.6834 23.9797 22.1917 24.2409 21.5314H24.3389L24.3933 21.662C24.5963 22.199 24.9266 22.6489 25.3837 23.0116C25.8409 23.3745 26.4104 23.5558 27.0926 23.5558C27.7891 23.5558 28.4131 23.3455 28.9646 22.9245C29.516 22.5038 29.9513 21.8834 30.2707 21.0634C30.5899 20.2435 30.7496 19.2421 30.7496 18.0593V18.0484C30.7495 16.3434 30.3741 14.8667 29.623 13.6187ZM23.8599 18.8865C23.8599 19.7719 23.6548 20.4775 23.245 21.0035C22.8349 21.5297 22.2853 21.7926 21.5961 21.7926C21.1607 21.7926 20.7815 21.6747 20.4587 21.4389C20.1357 21.2032 19.8872 20.8693 19.7131 20.4375C19.5389 20.0059 19.4519 19.4852 19.4519 18.8757V18.8648C19.4519 18.2625 19.5389 17.7474 19.7131 17.3192C19.8872 16.8911 20.1357 16.5628 20.4587 16.3342C20.7815 16.1056 21.1678 15.9913 21.6178 15.9913C22.2926 15.9913 22.8349 16.2508 23.245 16.7695C23.6548 17.2884 23.8599 17.9868 23.8599 18.8647V18.8865Z" fill="url(#paint2_linear_1732_50807)"/>
</g>
</g>
<defs>
<linearGradient id="paint0_linear_1732_50807" x1="0" y1="18.6442" x2="43.6404" y2="18.6442" gradientUnits="userSpaceOnUse">
<stop stop-color="#CDB8F0"/>
<stop offset="0.5" stop-color="#7E47D9"/>
<stop offset="1" stop-color="#5617BC"/>
</linearGradient>
<linearGradient id="paint1_linear_1732_50807" x1="2.79486e-05" y1="29.775" x2="43.6404" y2="29.775" gradientUnits="userSpaceOnUse">
<stop stop-color="#CDB8F0"/>
<stop offset="0.5" stop-color="#7E47D9"/>
<stop offset="1" stop-color="#5617BC"/>
</linearGradient>
<linearGradient id="paint2_linear_1732_50807" x1="12.8996" y1="18.8376" x2="30.7496" y2="18.8376" gradientUnits="userSpaceOnUse">
<stop stop-color="#E06052"/>
<stop offset="1" stop-color="#A32E43"/>
</linearGradient>
</defs>
</svg>
