<svg preserveAspectRatio="none" width="100%" height="100%" overflow="visible" style="display: block;" viewBox="0 0 400 2" fill="none" xmlns="http://www.w3.org/2000/svg">
<path id="Vector 1" d="M399 1.5C399.276 1.5 399.5 1.27614 399.5 1C399.5 0.723858 399.276 0.5 399 0.5V1.5ZM1 0.5C0.723858 0.5 0.5 0.723858 0.5 1C0.5 1.27614 0.723858 1.5 1 1.5V0.5ZM1 1V1.5H2.99V1V0.5H1V1ZM6.97 1V1.5H10.95V1V0.5H6.97V1ZM14.93 1V1.5H18.91V1V0.5H14.93V1ZM22.89 1V1.5H26.87V1V0.5H22.89V1ZM30.85 1V1.5H34.83V1V0.5H30.85V1ZM38.81 1V1.5H42.79V1V0.5H38.81V1ZM46.77 1V1.5H50.75V1V0.5H46.77V1ZM54.73 1V1.5H58.71V1V0.5H54.73V1ZM62.69 1V1.5H66.67V1V0.5H62.69V1ZM70.65 1V1.5H74.63V1V0.5H70.65V1ZM78.61 1V1.5H82.59V1V0.5H78.61V1ZM86.57 1V1.5H90.55V1V0.5H86.57V1ZM94.53 1V1.5H98.51V1V0.5H94.53V1ZM102.49 1V1.5H106.47V1V0.5H102.49V1ZM110.45 1V1.5H114.43V1V0.5H110.45V1ZM118.41 1V1.5H122.39V1V0.5H118.41V1ZM126.37 1V1.5H130.35V1V0.5H126.37V1ZM134.33 1V1.5H138.31V1V0.5H134.33V1ZM142.29 1V1.5H146.27V1V0.5H142.29V1ZM150.25 1V1.5H154.23V1V0.5H150.25V1ZM158.21 1V1.5H162.19V1V0.5H158.21V1ZM166.17 1V1.5H170.15V1V0.5H166.17V1ZM174.13 1V1.5H178.11V1V0.5H174.13V1ZM182.09 1V1.5H186.07V1V0.5H182.09V1ZM190.05 1V1.5H194.03V1V0.5H190.05V1ZM198.01 1V1.5H201.99V1V0.5H198.01V1ZM205.97 1V1.5H209.95V1V0.5H205.97V1ZM213.93 1V1.5H217.91V1V0.5H213.93V1ZM221.89 1V1.5H225.87V1V0.5H221.89V1ZM229.85 1V1.5H233.83V1V0.5H229.85V1ZM237.81 1V1.5H241.79V1V0.5H237.81V1ZM245.77 1V1.5H249.75V1V0.5H245.77V1ZM253.73 1V1.5H257.71V1V0.5H253.73V1ZM261.69 1V1.5H265.67V1V0.5H261.69V1ZM269.65 1V1.5H273.63V1V0.5H269.65V1ZM277.61 1V1.5H281.59V1V0.5H277.61V1ZM285.57 1V1.5H289.55V1V0.5H285.57V1ZM293.53 1V1.5H297.51V1V0.5H293.53V1ZM301.49 1V1.5H305.47V1V0.5H301.49V1ZM309.45 1V1.5H313.43V1V0.5H309.45V1ZM317.41 1V1.5H321.39V1V0.5H317.41V1ZM325.37 1V1.5H329.35V1V0.5H325.37V1ZM333.33 1V1.5H337.31V1V0.5H333.33V1ZM341.29 1V1.5H345.27V1V0.5H341.29V1ZM349.25 1V1.5H353.23V1V0.5H349.25V1ZM357.21 1V1.5H361.19V1V0.5H357.21V1ZM365.17 1V1.5H369.15V1V0.5H365.17V1ZM373.13 1V1.5H377.11V1V0.5H373.13V1ZM381.09 1V1.5H385.07V1V0.5H381.09V1ZM389.05 1V1.5H393.03V1V0.5H389.05V1ZM397.01 1V1.5H399V1V0.5H397.01V1Z" fill="var(--stroke-0, #64748B)"/>
</svg>
