<svg preserveAspectRatio="none" width="100%" height="100%" overflow="visible" style="display: block;" viewBox="0 0 20 22" fill="none" xmlns="http://www.w3.org/2000/svg">
<path id="Vector" d="M15 4L12.586 1.586C12.211 1.2109 11.7024 1.00011 11.172 1H3C2.46957 1 1.96086 1.21071 1.58579 1.58579C1.21071 1.96086 1 2.46957 1 3V19C1 19.5304 1.21071 20.0391 1.58579 20.4142C1.96086 20.7893 2.46957 21 3 21H15C15.5304 21 16.0391 20.7893 16.4142 20.4142C16.7893 20.0391 17 19.5304 17 19M5 17H6M18.378 11.6259C18.7763 11.2275 19.0001 10.6873 19.0001 10.1239C19.0001 9.56054 18.7763 9.02026 18.378 8.6219C17.9796 8.22355 17.4393 7.99976 16.876 7.99976C16.3126 7.99976 15.7723 8.22355 15.374 8.6219L11.364 12.6339C11.1262 12.8715 10.9522 13.1652 10.858 13.4879L10.021 16.3579C9.99588 16.444 9.99437 16.5352 10.0166 16.622C10.0389 16.7088 10.084 16.7881 10.1474 16.8515C10.2108 16.9148 10.2901 16.96 10.3769 16.9823C10.4637 17.0045 10.5549 17.003 10.641 16.9779L13.511 16.1409C13.8336 16.0467 14.1274 15.8727 14.365 15.6349L18.378 11.6259Z" stroke="var(--stroke-0, #0A0A0A)" stroke-width="2" stroke-linecap="round" stroke-linejoin="round"/>
</svg>
