<svg preserveAspectRatio="none" width="100%" height="100%" overflow="visible" style="display: block;" viewBox="0 0 20 20" fill="none" xmlns="http://www.w3.org/2000/svg">
<g id="Frame">
<path id="Vector" d="M12.5036 1.66907C14.3445 1.66907 15.8369 3.16145 15.8369 5.0024C15.8369 5.60993 15.6743 6.17949 15.3904 6.66999L19.1703 6.66907V8.33573H17.5036V16.6691C17.5036 17.1293 17.1305 17.5024 16.6703 17.5024H3.33691C2.87668 17.5024 2.50358 17.1293 2.50358 16.6691V8.33573H0.836914V6.66907L4.61672 6.66999C4.33278 6.17949 4.17025 5.60993 4.17025 5.0024C4.17025 3.16145 5.66263 1.66907 7.50358 1.66907C8.4996 1.66907 9.3936 2.10591 10.0043 2.79845C10.6136 2.10591 11.5076 1.66907 12.5036 1.66907ZM10.8369 8.33573H9.17026V16.6691H10.8369V8.33573ZM7.50358 3.33573C6.58311 3.33573 5.83691 4.08193 5.83691 5.0024C5.83691 5.88103 6.51681 6.60087 7.3792 6.66449L7.50358 6.66907H9.17026V5.0024C9.17026 4.16769 8.55668 3.47631 7.7559 3.35471L7.62797 3.3403L7.50358 3.33573ZM12.5036 3.33573C11.6249 3.33573 10.9051 4.01563 10.8415 4.87802L10.8369 5.0024V6.66907H12.5036C13.3822 6.66907 14.102 5.98917 14.1657 5.12678L14.1703 5.0024C14.1703 4.08193 13.4241 3.33573 12.5036 3.33573Z" fill="var(--fill-0, #5E19CF)"/>
</g>
</svg>
