<svg width="24" height="25" viewBox="0 0 24 25" fill="none" xmlns="http://www.w3.org/2000/svg">
<path d="M9.08984 9.71004C9.32495 9.04171 9.789 8.47815 10.3998 8.11917C11.0106 7.7602 11.7287 7.62898 12.427 7.74875C13.1253 7.86853 13.7587 8.23157 14.2149 8.77357C14.6712 9.31557 14.9209 10.0016 14.9198 10.71C14.9198 12.71 11.9198 13.71 11.9198 13.71M12 17.71H12.01M22 12.71C22 18.2328 17.5228 22.71 12 22.71C6.47715 22.71 2 18.2328 2 12.71C2 7.18711 6.47715 2.70996 12 2.70996C17.5228 2.70996 22 7.18711 22 12.71Z" stroke="#0A0A0A" stroke-width="2" stroke-linecap="round" stroke-linejoin="round"/>
</svg>
