<svg width="24" height="25" viewBox="0 0 24 25" fill="none" xmlns="http://www.w3.org/2000/svg">
<path d="M3 2.71008H19.0049C20.1068 2.71008 21 3.60829 21 4.70088V20.7193C21 21.8188 20.1074 22.7101 19.0049 22.7101H3V2.71008ZM7 4.71008H5V20.7101H7V4.71008ZM9 20.7101H19V4.71008H9V20.7101ZM11 16.7101C11 15.0532 12.3431 13.7101 14 13.7101C15.6569 13.7101 17 15.0532 17 16.7101H11ZM14 12.7101C12.8954 12.7101 12 11.8147 12 10.7101C12 9.60551 12.8954 8.71008 14 8.71008C15.1046 8.71008 16 9.60551 16 10.7101C16 11.8147 15.1046 12.7101 14 12.7101ZM22 6.71008H24V10.7101H22V6.71008ZM22 12.7101H24V16.7101H22V12.7101Z" fill="#171717"/>
</svg>
