<?xml version="1.0" standalone="no"?>
<!DOCTYPE svg PUBLIC "-//W3C//DTD SVG 1.1//EN" "http://www.w3.org/Graphics/SVG/1.1/DTD/svg11.dtd">
<svg xmlns="http://www.w3.org/2000/svg">
<metadata>weplugins</metadata>
<defs>
<font id="weplugin" horiz-adv-x="1000" >
<font-face font-family="weplugin" font-weight="400" font-stretch="normal" units-per-em="1000" ascent="850" descent="-150" />
<missing-glyph horiz-adv-x="1000" />
<glyph glyph-name="setting" unicode="&#xe800;" d="M500 444c-52 0-94-42-94-94 0-52 42-94 94-94 52 0 94 42 94 94 0 52-42 94-94 94z m-156-94c0 86 70 156 156 156 86 0 156-70 156-156 0-86-70-156-156-156-86 0-156 70-156 156z m56 343c-11 19-34 24-52 14l0 0-72-42c-23-13-31-42-18-65l-27-15 27 15c22-38 28-80 8-115-20-34-59-50-103-50-27 0-48-22-48-48v-74c0-26 21-48 48-48 44 0 83-15 103-50 20-35 14-77-8-115-13-23-5-52 18-65l72-42c18-10 41-5 52 14l5 8c22 38 56 65 95 65 40 0 74-27 96-65 0 0 0 0 0 0l4-8c11-19 35-24 52-14l1 0 72 42c23 13 31 42 18 65-23 38-29 80-9 115 20 35 60 50 104 50 26 0 48 22 48 48v74c0 26-22 48-48 48-44 0-84 16-104 50-20 35-14 77 9 115 13 23 5 52-18 65l-73 42c-17 10-41 5-52-14l-4-8c-22-38-56-64-96-64-40 0-73 26-95 64 0 0 0 0 0 0l-5 8z m-84 68c49 28 110 11 138-36l0-1 5-7 0-1c15-26 31-33 41-33 10 0 26 7 42 34 0 0 0 0 0 0l5 8c28 47 89 64 137 36l72-41c53-31 71-99 41-151l0 0c-16-27-13-44-9-53 5-8 19-19 50-19 60 0 110-49 110-110v-74c0-60-49-110-110-110-31 0-45-11-50-19-4-9-7-26 9-53l0 0c30-53 12-120-41-151 0 0 0 0 0 0l-72-41c-48-28-109-11-137 36l-1 1-4 7 0 1c-16 27-32 33-42 33-9 0-26-6-41-34 0 0 0 0 0 0l-5-8c-28-47-89-64-138-36l-71 41c0 0 0 0 0 0-53 31-71 99-41 151l0 0c15 27 13 44 8 53-5 8-18 19-49 19-62 0-111 50-111 110v74c0 60 49 110 111 110 31 0 44 11 49 19 5 9 7 26-8 53l0 0c-30 52-12 120 41 151l71 41z" horiz-adv-x="1000" />

<glyph glyph-name="setting-1" unicode="&#xe801;" d="M129 721c56 56 139 77 246 77h250c107 0 191-21 246-77 56-55 77-139 77-246v-250c0-107-21-190-77-246-55-56-139-77-246-77h-250c-107 0-190 21-246 77-56 56-77 139-77 246v250c0 107 21 191 77 246z m44-44c-38-38-58-101-58-202v-250c0-101 20-164 58-202 38-38 101-58 202-58h250c101 0 164 20 202 58 38 38 58 101 58 202v250c0 101-20 164-58 202-38 38-101 58-202 58h-250c-101 0-164-20-202-58z m476-404c17 0 31-14 31-31v-163c0-17-14-31-31-31-17 0-31 14-31 31v163c0 17 14 31 31 31z m0 379c17 0 31-14 31-31v-81c0-18-14-32-31-32-17 0-31 14-31 32v81c0 17 14 31 31 31z m0-144c-43 0-77-34-77-77 0-42 34-77 77-77 42 0 77 35 77 77 0 43-35 77-77 77z m-140-77c0 77 63 140 140 140 77 0 139-63 139-140 0-77-62-139-139-139-77 0-140 62-140 139z m-158-239c18 0 32-14 32-32v-81c0-17-14-31-32-31-17 0-31 14-31 31v81c0 18 14 32 31 32z m0 460c18 0 32-14 32-31v-163c0-17-14-31-32-31-17 0-31 14-31 31v163c0 17 14 31 31 31z m0-306c-42 0-77-35-77-77 0-43 35-77 77-77 43 0 77 34 77 77 0 42-34 77-77 77z m-139-77c0 77 62 139 139 139 77 0 140-62 140-139 0-77-63-140-140-140-77 0-139 63-139 140z" horiz-adv-x="1000" />

<glyph glyph-name="setting-2" unicode="&#xe802;" d="M917 610c17 0 31-14 31-31 0-17-14-31-31-31h-250c-18 0-32 14-32 31 0 17 14 31 32 31h250z m-667 0c17 0 31-14 31-31 0-17-14-31-31-31h-167c-17 0-31 14-31 31 0 17 14 31 31 31h167z m281-31c0 63-51 115-114 115-64 0-115-52-115-115 0-63 51-114 115-114 63 0 114 51 114 114z m63 0c0-98-79-177-177-177-98 0-177 79-177 177 0 98 79 177 177 177 98 0 177-79 177-177z m323-427c17 0 31-14 31-31 0-17-14-31-31-31h-167c-17 0-31 14-31 31 0 17 14 31 31 31h167z m-584 0c18 0 32-14 32-31 0-17-14-31-32-31h-250c-17 0-31 14-31 31 0 17 14 31 31 31h250z m365-31c0 63-51 114-115 114-63 0-114-51-114-114 0-63 51-115 114-115 64 0 115 52 115 115z m62 0c0-98-79-177-177-177-97 0-177 79-177 177 0 98 80 177 177 177 98 0 177-79 177-177z" horiz-adv-x="1000" />

<glyph glyph-name="setting-3" unicode="&#xe803;" d="M760-67v459c0 17 14 31 32 31 17 0 31-14 31-31v-459c0-17-14-31-31-31-18 0-32 14-32 31z m0 625v209c0 17 14 31 32 31 17 0 31-14 31-31v-209c0-17-14-31-31-31-18 0-32 14-32 31z m-291-625v209c0 17 14 31 31 31 17 0 31-14 31-31v-209c0-17-14-31-31-31-17 0-31 14-31 31z m0 375v459c0 17 14 31 31 31 17 0 31-14 31-31v-459c0-17-14-31-31-31-17 0-31 14-31 31z m-292-375v459c0 17 14 31 31 31 18 0 32-14 32-31v-459c0-17-14-31-32-31-17 0-31 14-31 31z m0 625v209c0 17 14 31 31 31 18 0 32-14 32-31v-209c0-17-14-31-32-31-17 0-31 14-31 31z m115-135c17 0 31-14 31-31 0-18-14-32-31-32h-167c-17 0-31 14-31 32 0 17 14 31 31 31h167z m583 0c17 0 31-14 31-31 0-18-14-32-31-32h-167c-17 0-31 14-31 32 0 17 14 31 31 31h167z m-292-83c18 0 32-14 32-32 0-17-14-31-32-31h-166c-18 0-32 14-32 31 0 18 14 32 32 32h166z" horiz-adv-x="1000" />

<glyph glyph-name="share" unicode="&#xe804;" d="M681 611c9 13 27 17 41 9l3-1 16-13c76-59 130-145 146-244l3-22 0-3c1-16-11-30-27-31-16-2-31 9-34 24l-1 3-2 18c-14 84-59 156-123 206l-14 10-3 2c-12 11-14 29-5 42z m-404 5c15 10 34 7 44-7 10-14 7-34-7-44-76-53-128-137-137-234l-1-3c-3-15-18-26-34-24-17 1-29 17-28 34l3 21c17 106 76 198 160 257z m36-624c8 14 25 20 40 15l2-2 17-8c40-17 84-27 131-27 51 0 98 12 141 33l14-28 14-29c-52-25-109-38-169-38-59 0-116 13-166 37l-10 5-3 1c-13 9-18 26-11 41z m331 11c16 7 35 1 42-15 8-15 1-34-14-42l-28 57z m-57 642c0 47-38 85-84 85-47 0-85-38-85-85 0-47 38-85 85-85 46 0 84 38 84 85z m63 0c0-81-66-147-147-147-82 0-148 66-148 147 0 81 66 147 148 147 81 0 147-66 147-147z m-364-509c0 47-38 84-85 84-46 0-84-37-84-84 0-47 38-85 84-85 47 0 85 38 85 85z m62 0c0-81-65-147-147-147-81 0-147 66-147 147 0 81 66 147 147 147 82 0 147-66 147-147z m535 0c0 47-37 84-84 84-47 0-85-37-85-84 0-47 38-85 85-85 47 0 84 38 84 85z m63 0c0-81-66-147-147-147-81 0-147 66-147 147 0 81 66 147 147 147 81 0 147-66 147-147z" horiz-adv-x="1000" />

<glyph glyph-name="shop" unicode="&#xe805;" d="M94 195v188c0 17 14 31 31 31 18 0 32-14 32-31v-188c0-90 18-145 51-179 34-33 89-51 180-51h224c91 0 146 18 179 51 34 34 52 89 52 179v188c0 17 14 31 31 31 17 0 31-14 31-31v-188c0-96-19-172-70-223-50-51-126-70-223-70h-224c-97 0-173 19-224 70-51 51-70 127-70 223z m504 603l5-1c14-2 24-13 26-27l27-279 1-8c4-91-65-164-157-164-95 0-165 78-156 172v0l28 279 1 6c4 13 16 22 30 22h195z m-192-313c-6-58 36-104 94-104 58 0 100 46 94 104l-25 250h-138l-25-250z m317 313c58 0 105-11 139-43 30-27 46-66 54-113l4-21 0-1 12-115 0 0 0-9c5-98-70-177-169-177-85 0-160 68-169 152v1l-29 292c-1 8 2 17 8 24 6 6 14 10 23 10h127z m-67-320l2-10c10-48 56-87 105-87 66 0 113 53 106 118l-11 113-3 19c-8 40-19 64-35 78-17 17-46 26-97 26h-93l26-257z m-254 320c9 0 17-4 23-10 6-7 9-16 8-24l-29-292c-9-85-84-153-169-153-103 0-179 84-169 186l12 115 0 1c8 56 23 103 57 134 35 32 82 43 140 43h127z m-127-63c-52 0-80-9-97-26-18-16-31-45-38-97l-11-113c-7-65 40-118 106-118 53 0 101 44 106 97v0l26 257h-92z m298-697c0 30-7 46-17 56-9 9-26 16-56 16-30 0-47-7-56-16-9-10-17-26-17-56v-73h146v73z m62-105c0-17-14-31-31-31h-208c-17 0-31 14-31 31v105c0 39 9 75 35 100 25 25 60 35 100 35 40 0 75-10 100-35 26-25 35-61 35-100v-105z" horiz-adv-x="1000" />

<glyph glyph-name="shopping-bag" unicode="&#xe806;" d="M650 610c75 0 125-17 156-54 30-35 36-81 40-120l38-313v0l2-20c3-48-4-96-31-133-33-45-89-68-167-68h-375c-79 0-135 23-168 68-31 43-35 99-28 153h0l37 313c4 39 11 85 40 120 31 37 81 54 156 54h300z m-300-62c-67 0-94-16-108-32-16-19-21-46-26-87l0-1-37-312 0 0c-6-48-1-85 17-109 17-23 49-42 117-42h375c67 0 100 19 116 42 18 24 24 61 18 109l-38 312v0c-5 42-10 69-26 88-13 16-41 32-108 32h-300z m285-31v146c0 24-7 41-19 53-12 12-29 19-53 19h-125c-25 0-42-7-54-19-11-12-19-29-19-53v-146c0-18-14-32-32-32-17 0-31 14-31 32v146c0 38 13 72 38 97 25 25 59 38 98 38h125c38 0 72-13 97-38 25-25 38-59 38-97v-146c0-18-14-32-31-32-18 0-32 14-32 32z m215-345l4 0c15-2 28-15 28-32 0-16-13-29-28-31l-4 0h-517c-17 0-31 14-31 31 0 18 14 32 31 32h517z" horiz-adv-x="1000" />

<glyph glyph-name="shopping-cart" unicode="&#xe807;" d="M52 767c0 17 14 31 31 31h73c49 0 91-33 104-78h520c88 0 155-72 149-159l-23-312 0-1c-6-75-72-137-148-137h-444c-86 0-155 74-147 160 0 0 0 0 0 0l34 415c3 26-18 49-45 49h-73c-17 0-31 14-31 32z m210-109l-33-392 0 0c-4-50 35-93 85-93h444c43 0 83 37 86 80 0 0 0 0 0 0l22 313c4 51-34 92-86 92h-518z m415-652c-11 0-21-9-21-21 0-11 10-20 21-20 12 0 21 9 21 20 0 12-9 21-21 21z m-83-21c0 46 37 84 83 84 46 0 83-38 83-84 0-46-37-83-83-83-46 0-83 37-83 83z m-250 21c-12 0-21-9-21-21 0-11 9-20 21-20 11 0 21 9 21 20 0 12-10 21-21 21z m-84-21c0 46 38 84 84 84 46 0 83-38 83-84 0-46-37-83-83-83-46 0-84 37-84 83z m84 532c0 17 14 31 31 31h500c17 0 31-14 31-31 0-18-14-32-31-32h-500c-17 0-31 14-31 32z" horiz-adv-x="1000" />

<glyph glyph-name="sidebar-left" unicode="&#xe808;" d="M884 475c0 101-20 164-58 202-38 38-101 58-202 58h-250c-101 0-164-20-202-58-38-38-59-101-59-202v-250c0-101 21-164 59-202 38-38 101-58 202-58h250c101 0 164 20 202 58 38 38 58 101 58 202v250z m63-250c0-107-22-190-77-246-56-56-139-77-246-77h-250c-107 0-191 21-246 77-56 56-77 139-77 246v250c0 107 21 191 77 246 55 56 139 77 246 77h250c107 0 190-21 246-77 55-55 77-139 77-246v-250z m-646-292v834c0 17 14 31 31 31 17 0 31-14 31-31v-834c0-17-14-31-31-31-17 0-31 14-31 31z m303 548c12 10 30 9 42-2 11-12 12-30 2-42l-2-2-85-85 85-85 2-2c10-12 9-30-2-42-12-11-30-12-42-2l-2 2-107 107c-12 12-12 32 0 44l107 107 2 2z" horiz-adv-x="1000" />

<glyph glyph-name="sidebar-right" unicode="&#xe809;" d="M884 475c0 101-20 164-58 202-38 38-101 58-202 58h-250c-101 0-164-20-202-58-38-38-59-101-59-202v-250c0-101 21-164 59-202 38-38 101-58 202-58h250c101 0 164 20 202 58 38 38 58 101 58 202v250z m63-250c0-107-22-190-77-246-56-56-139-77-246-77h-250c-107 0-191 21-246 77-56 56-77 139-77 246v250c0 107 21 191 77 246 55 56 139 77 246 77h250c107 0 190-21 246-77 55-55 77-139 77-246v-250z m-354-292v834c0 17 14 31 31 31 17 0 31-14 31-31v-834c0-17-14-31-31-31-17 0-31 14-31 31z m-283 546c11 11 30 12 42 2l2-2 107-107 2-2c9-12 9-28 0-40l-2-2-107-107c-12-12-32-12-44 0-12 12-12 32 0 44l85 85-85 85-2 2c-10 12-9 30 2 42z" horiz-adv-x="1000" />

<glyph glyph-name="slider-horizontal" unicode="&#xe80a;" d="M719 558c0 19-1 36-2 51l-2 14 0 1c-5 51-19 74-40 88-24 16-63 23-133 23h-84c-70 0-109-7-133-23-18-12-31-31-38-70l-2-18 0-1c-3-18-4-39-4-65v-416c0-19 1-36 2-51l2-14 0-1c5-51 19-74 40-88 24-16 63-23 133-23h84c70 0 109 7 133 23 21 14 35 37 40 88l0 1c3 18 4 39 4 65v416z m62-416c0-26-1-50-4-73l0 0c-6-59-24-105-68-133-40-27-97-34-167-34h-84c-70 0-127 7-167 34-44 28-62 74-68 133l0 0c-3 23-4 47-4 73v416c0 27 1 51 4 74 6 58 25 104 68 132 40 27 97 34 167 34h84c70 0 127-7 167-34 43-28 62-74 68-132l2-17c2-18 2-37 2-57v-416z m-562 416c0 14 0 26 1 39-54-1-76-8-87-19-11-11-18-33-18-89v-278c0-56 7-78 18-89 11-11 33-18 87-19-1 13-1 26-1 39v416z m62-416c0-26 1-47 4-65 1-9-1-17-7-24-5-7-13-11-22-12-7 0-14 0-20 0h-14c-55 0-102 6-133 37-31 31-37 78-37 133v278c0 55 6 102 37 133 31 31 78 37 133 37h14c6 0 13 0 20 0l3-1c8-1 14-5 19-11 6-7 8-15 7-24-3-18-4-39-4-65v-416z m438 416c0 26-1 47-4 65-1 9 2 17 7 24 5 7 13 11 22 12 7 0 14 0 20 0h14c55 0 102-6 133-37 31-31 37-78 37-133v-278c0-55-6-102-37-133-31-31-78-37-133-37h-14c-3 0-6 0-10 0l-10 0c-9 1-17 5-22 12-5 7-8 15-7 24 3 18 4 39 4 65v416z m62-416c0-13 0-26-1-39 54 1 76 8 87 19 11 11 18 33 18 89v278c0 56-7 78-18 89-11 11-33 18-87 19 1-13 1-25 1-39v-416z" horiz-adv-x="1000" />

<glyph glyph-name="speaker" unicode="&#xe80b;" d="M760 600c0 61-10 91-27 108-17 17-47 27-108 27h-250c-61 0-91-10-108-27-17-17-27-47-27-108v-500c0-61 10-91 27-108 17-17 47-27 108-27h250c61 0 91 10 108 27 17 17 27 47 27 108v500z m63-500c0-64-10-117-46-152-35-36-88-46-152-46h-250c-64 0-117 10-152 46-36 35-46 88-46 152v500c0 64 10 117 46 152 35 36 88 46 152 46h250c64 0 117-10 152-46 36-35 46-88 46-152v-500z m-229 125c0 52-42 94-94 94-52 0-94-42-94-94 0-52 42-94 94-94 52 0 94 42 94 94z m62 0c0-86-70-156-156-156-86 0-156 70-156 156 0 86 70 156 156 156 86 0 156-70 156-156z m-125 313c0 17-14 31-31 31-17 0-31-14-31-31 0-18 14-32 31-32 17 0 31 14 31 32z m63 0c0-52-42-94-94-94-52 0-94 42-94 94 0 51 42 93 94 93 52 0 94-42 94-93z" horiz-adv-x="1000" />

<glyph glyph-name="star" unicode="&#xe80c;" d="M516 676c-6 13-12 20-16 23-4-3-10-10-17-23 0 0 0 0 0 0l-73-147c-10-21-27-38-43-50-17-12-38-23-61-27l0 0-133-22c-14-3-23-7-26-9 1-4 6-12 16-22l103-104c18-18 30-41 36-62 6-21 8-46 3-71l0 0-30-128c-3-16-4-27-4-33 7 1 17 5 31 13l0 0 125 74c24 14 50 19 73 19 23 0 50-5 73-19l125-74c14-8 24-12 31-13 0 6 0 17-4 33 0 0 0 0 0 0l-30 128c-5 25-3 50 3 71 6 21 18 44 36 62l103 104c11 10 15 18 17 22-4 2-12 6-27 9l-133 22c-23 4-44 15-61 27-16 12-33 29-44 50l-73 147z m129-119c10-20 37-40 60-44l133-22c85-14 105-76 43-136l-103-104c-18-17-27-51-22-75l30-128c23-101-31-141-120-88l-125 74c-22 14-59 14-82 0l-125-74c-89-53-143-13-120 88l30 128c5 24-4 58-22 75l-103 104c-61 60-41 122 44 136l132 22c23 4 49 24 59 44l74 147c40 79 105 79 144 0l73-147z m211-138c0 0 0 0 0 0l0 0z m-2 5c0 0 0 0 0 0l0 0z m-708 0c0 0 0 0 0 0l0 0z m-2-5c0 0 0 0 0 0l0 0z m359 282c0 0 0 0 0 0l0 0z m-6 0c0 0 0 0 0 0l0 0z" horiz-adv-x="1000" />

<glyph glyph-name="status-up" unicode="&#xe80d;" d="M287 211c17 0 31-14 31-31v-86c0-17-14-31-31-31-18 0-32 14-32 31v86c0 17 14 31 32 31z m213 87c17 0 31-14 31-32v-172c0-17-14-31-31-31-17 0-31 14-31 31v172c0 18 14 32 31 32z m213 86c18 0 32-14 32-31v-259c0-17-14-31-32-31-17 0-31 14-31 31v259c0 17 14 31 31 31z m21 246c13-11 14-31 3-44l-19-23c-111-129-259-220-424-261-16-4-33 6-38 23-4 16 6 33 23 37 153 38 289 123 391 242 0 0 0 0 0 0l20 23c11 13 31 14 44 3z m-174-24c0 18 14 32 31 32h122c18 0 32-14 32-32v-121c0-18-14-32-32-32-17 0-31 14-31 32v90h-91c-17 0-31 14-31 31z m-431 115c56 56 139 77 246 77h250c107 0 191-21 246-77 56-55 77-139 77-246v-250c0-107-21-190-77-246-55-56-139-77-246-77h-250c-107 0-190 21-246 77-56 56-77 139-77 246v250c0 107 21 191 77 246z m44-44c-38-38-58-101-58-202v-250c0-101 20-164 58-202 38-38 101-58 202-58h250c101 0 164 20 202 58 38 38 58 101 58 202v250c0 101-20 164-58 202-38 38-101 58-202 58h-250c-101 0-164-20-202-58z" horiz-adv-x="1000" />

<glyph glyph-name="sun" unicode="&#xe80e;" d="M740 350c0 132-108 240-240 240-132 0-240-108-240-240 0-132 108-240 240-240 132 0 240 108 240 240z m62 0c0-167-135-302-302-302-167 0-302 135-302 302 0 167 135 302 302 302 167 0 302-135 302-302z m-344-417v4c0 23 19 41 42 41 22 0 39-16 42-37l0-4v-4c0-23-19-41-42-41-23 0-42 18-42 41z m-279 154c16 17 42 17 58 0 17-16 17-42 0-58l-5-6c-16-16-43-16-59 0-16 16-16 43 0 59l6 5z m584 0c15 16 39 17 55 3l4-3 5-5 3-3c13-17 12-41-3-56-15-15-39-16-56-3l-3 3-5 6-3 3c-14 16-13 40 3 55z m-676 305l4 0c21-3 37-20 37-42 0-22-16-39-37-41l-4-1h-4c-23 0-41 19-41 42 0 23 18 42 41 42h4z m830 0c23 0 41-19 41-42 0-23-18-42-41-42h-4c-23 0-41 19-41 42 0 23 18 42 41 42h4z m-744 285c15 15 39 16 56 3l3-3 5-5 3-4c14-16 13-40-3-55-15-16-39-17-55-3l-3 3-6 5-3 3c-13 17-12 41 3 56z m595 0c16 16 43 16 59 0 16-16 16-43 0-59l-5-5c-17-17-43-17-59 0-17 16-17 42 0 59l5 5z m-310 86v4c0 23 19 41 42 41 23 0 42-18 42-41v-4l0-4c-3-21-20-37-42-37-23 0-42 18-42 41z" horiz-adv-x="1000" />

<glyph glyph-name="tag" unicode="&#xe80f;" d="M660 698c0 0 0 0 0 0l189-188c89-90 90-236 0-325l-183-183 0 0c-90-90-236-90-326 0l-188 188c-46 46-71 109-68 174l0 0 10 209c5 99 84 178 184 182 0 0 0 0 0 0l208 10c0 0 0 0 0 0 65 4 128-21 174-67z m-45-44c-33 34-79 51-126 49l0 0-208-10 0 0c-68-3-121-56-124-123 0 0 0 0 0 0l-10-208c0 0 0 0 0 0-2-48 16-94 49-127l189-189c65-65 171-66 237 0 0 0 0 0 0 0l183 183c65 65 65 171 0 237 0 0 0 0 0 0l-190 188 0 0z m-219-127c-40 0-73-33-73-73 0-40 33-73 73-73 40 0 73 33 73 73 0 40-33 73-73 73z m-136-73c0 75 61 136 136 136 75 0 135-61 135-136 0-75-60-135-135-135-75 0-136 60-136 135z" horiz-adv-x="1000" />

<glyph glyph-name="ticket" unicode="&#xe810;" d="M103 664c41 41 106 51 189 51h416c83 0 148-10 189-51 41-41 51-106 51-189v-42c0-17-14-31-31-31-41 0-73-33-73-73 0-40 32-73 73-73 17 0 31-14 31-31 0-83-10-148-51-189-41-41-106-51-189-51h-416c-83 0-148 10-189 51-41 41-51 106-51 189v21c0 17 14 31 31 31 41 0 73 33 73 73 0 40-32 73-73 73-17 0-31 14-31 31v21c0 83 10 148 51 189z m12-182c59-14 104-68 104-132 0-64-45-118-104-132 0-79 11-117 32-138 21-21 61-32 145-32h416c84 0 124 11 145 32 19 19 30 52 32 118-59 14-104 67-104 131 0 64 45 118 104 132v14c0 84-11 123-32 145-21 21-61 32-145 32h-416c-84 0-124-11-145-32-21-21-32-59-32-138z m302 233c17 0 31-14 31-32l0-83c0-17-14-31-31-31-18 0-32 14-32 31l0 83c0 18 14 32 32 32z m0-250c17 0 31-14 31-32l0-166c0-18-14-32-31-32-18 0-32 14-32 32l0 166c0 18 14 32 32 32z m0-334c17 0 31-14 31-31l0-83c0-18-14-32-31-32-18 0-32 14-32 32l0 83c0 17 14 31 32 31z" horiz-adv-x="1000" />

<glyph glyph-name="timer" unicode="&#xe811;" d="M500 631c-184 0-333-149-333-333 0-184 149-333 333-333 184 0 333 149 333 333 0 184-149 333-333 333z m-396-333c0 218 178 396 396 396 219 0 396-178 396-396 0-219-177-396-396-396-218 0-396 177-396 396z m396 250c17 0 31-14 31-31v-209c0-17-14-31-31-31-17 0-31 14-31 31v209c0 17 14 31 31 31z m-156 219c0 17 14 31 31 31h250c17 0 31-14 31-31 0-18-14-32-31-32h-250c-17 0-31 14-31 32z" horiz-adv-x="1000" />

<glyph glyph-name="translate" unicode="&#xe812;" d="M705 281c12 0 23-6 28-17l89-178c8-15 2-34-14-42-15-8-34-1-42 14l-61 122-61-122c-8-15-27-22-42-14-16 8-22 27-14 42l89 178c5 11 16 17 28 17z m-104-177c0 17 14 31 31 31h147c17 0 31-14 31-31 0-17-14-31-31-31h-147c-17 0-31 14-31 31z m104 221c-100 0-180-80-180-180 0-100 81-180 180-180 100 0 180 80 180 180 0 100-81 180-180 180z m-243-180c0 134 109 243 243 243 134 0 243-109 243-243 0-134-109-243-243-243-134 0-243 109-243 243z m-325 568c-13-13-22-35-22-72v-163c0-39 9-61 22-74 13-13 34-22 72-21l0 0h164l0 0c39-1 61 8 73 21 13 12 22 34 21 73l0 1v163l0 1c1 37-8 59-21 71-12 13-35 22-73 22h-164c-37 0-59-9-72-22z m-44 45c29 28 69 40 116 40h164c47 0 89-12 118-41 29-29 40-70 39-116v-163c1-48-10-89-39-119-30-29-71-40-119-39h-162c-47 0-88 11-117 40-29 29-41 70-41 118v163c0 47 12 88 41 117z m82-152c0 18 14 32 31 32h169c18 0 32-14 32-32 0-17-14-31-32-31h-169c-17 0-31 14-31 31z m115 60c18 0 32-14 32-31v-29c0-17-14-31-32-31-17 0-31 14-31 31v29c0 17 14 31 31 31z m43-28c17 0 31-14 31-31 0-89-70-164-158-164-17 0-31 14-31 32 0 17 14 31 31 31 52 0 96 44 96 101 0 17 14 31 31 31z m-53-96c14 10 33 7 43-7 15-19 34-29 52-29 18 0 32-14 32-31 0-18-14-32-32-32-42 0-78 23-102 55-10 14-7 34 7 44z m-197-286c18 0 32-14 32-31 0-124 85-227 201-254l-11 19c-9 15-5 34 10 43 15 9 34 4 43-11l44-73c6-9 6-21 0-31-5-10-16-16-27-16-178 0-323 145-323 323 0 17 14 31 31 31z m515 526c5 10 16 16 27 16 179 0 323-144 323-323 0-17-14-31-31-31-18 0-32 14-32 31 0 124-85 227-201 254l12-19c8-15 4-34-11-43-15-9-34-4-43 11l-44 73c-6 9-6 21 0 31z" horiz-adv-x="1000" />

<glyph glyph-name="trash" unicode="&#xe813;" d="M207 640c83 9 167 13 251 13 140 0 280-7 420-21 17-2 30-17 28-34-2-17-17-30-34-28-138 13-276 20-414 20-82 0-163-4-245-12l0 0-85-8c-17-2-32 11-34 28-2 17 11 32 28 34l85 8z m187 52l-9-54c-3-17-19-29-36-26-17 3-28 19-26 36l10 55c0 1 0 2 0 3 3 17 7 42 24 62 20 22 50 30 88 30h110c39 0 69-9 88-31 17-20 21-45 24-62 0-1 0-2 1-3l9-54c3-17-9-33-26-36-17-3-33 9-36 26l-9 54c-4 21-6 29-10 34-2 2-10 9-41 9h-110c-31 0-39-6-41-9-4-4-6-11-10-34z m393-192c18-1 31-16 30-33l-27-420 0 0c-2-16-3-33-6-49-3-17-9-35-21-50-25-33-68-46-129-46h-268c-61 0-104 13-129 46-12 15-18 33-21 50-3 16-4 33-5 49l0 1-28 419c-1 17 12 32 30 33 17 2 32-12 33-29l27-419c0 0 0 0 0 0 1-17 2-30 4-42 3-11 6-19 10-24 7-9 24-21 79-21h268c55 0 72 12 79 21 4 5 7 13 10 24 2 12 3 25 4 42 0 0 0 0 0 0l27 419c1 17 16 31 33 29z m-388-337c0 17 14 31 31 31h139c17 0 31-14 31-31 0-18-14-32-31-32h-139c-17 0-31 14-31 32z m-34 166c0 17 14 31 31 31h208c17 0 31-14 31-31 0-17-14-31-31-31h-208c-17 0-31 14-31 31z" horiz-adv-x="1000" />

<glyph glyph-name="tree" unicode="&#xe814;" d="M500 800c25 0 48-13 63-35h0l173-243h0c18-24 28-56 14-84-15-28-46-38-76-38h-348c-30 0-61 10-75 38-15 28-5 60 12 84l174 243c15 22 38 35 63 35z m0-62c-2 0-6-1-12-9l0 0-174-243 0 0c-8-12-8-18-8-19 1-1 6-5 20-5h348c14 0 19 4 20 5 0 1 0 5-5 13l-4 6-173 243-1 0c-5 8-9 9-11 9z m116-276l4 0c9-1 17-6 22-13l166-233 4-6c20-30 28-65 13-96-17-32-54-45-92-45h-465c-39 0-76 13-92 45-17 33-6 70 17 102l166 233 2 3c6 6 14 10 23 10h232z m-373-283l0 0c-16-23-13-34-12-36 2-3 9-12 37-12h465c27 0 35 9 36 12 1 2 4 13-12 36l0 0-157 221h-200l-157-221z m226-246v167c0 17 14 31 31 31 17 0 31-14 31-31v-167c0-17-14-31-31-31-17 0-31 14-31 31z" horiz-adv-x="1000" />

<glyph glyph-name="unhappy" unicode="&#xe815;" d="M884 350c0 213-172 385-385 385-213 0-386-172-386-385 0-213 173-385 386-385 213 0 385 172 385 385z m63 0c0-247-201-448-448-448-248 0-448 201-448 448 0 247 200 448 448 448 247 0 448-201 448-448z m-621-226c-10-14-29-18-43-8-15 10-18 30-8 44 50 70 132 117 225 117 87 0 166-41 216-104l9-13 2-3c8-14 4-32-10-41-13-9-31-7-41 5l-2 3-7 10c-39 49-100 81-167 81-72 0-135-36-174-91z m351 351c0 6-5 10-10 10-6 0-11-4-11-10 0-6 5-10 11-10 5 0 10 4 10 10z m63 0c0-40-33-73-73-73-41 0-73 33-73 73 0 40 32 73 73 73 40 0 73-33 73-73z m-396 0c0 6-5 10-11 10-5 0-10-4-10-10 0-6 5-10 10-10 6 0 11 4 11 10z m62 0c0-40-32-73-73-73-40 0-73 33-73 73 0 40 33 73 73 73 41 0 73-33 73-73z" horiz-adv-x="1000" />

<glyph glyph-name="upload" unicode="&#xe816;" d="M654 482c1 17 17 30 34 28 79-7 142-31 183-82 41-50 57-120 57-208v-5c0-96-20-172-70-222-51-51-126-70-223-70h-271c-96 0-171 19-222 70-51 50-70 126-70 222v5c0 87 16 157 56 207 40 51 102 76 180 83 18 2 33-11 34-28 2-17-11-33-28-34-69-7-111-27-138-60-27-34-41-87-41-168v-5c0-90 18-145 51-178 33-33 88-52 178-52h271c90 0 145 19 179 52 33 33 51 88 51 178v5c0 82-15 135-42 169-27 33-70 53-141 59-17 2-30 17-28 34z m-154 248c17 0 31-14 31-31v-474c0-17-14-31-31-31-17 0-31 14-31 31v474c0 17 14 31 31 31z m-22 38c12 12 32 12 44 0l140-140c12-12 12-32 0-44-12-12-32-12-44 0l-118 118-117-118c-13-12-32-12-45 0-12 12-12 32 0 44l140 140z" horiz-adv-x="1000" />

<glyph glyph-name="user" unicode="&#xe817;" d="M500 709c-94 0-171-74-171-165 0-91 77-165 171-165 94 0 171 74 171 165 0 91-77 165-171 165z m-231-165c0 123 104 223 231 223 128 0 231-100 231-223 0-123-103-223-231-223-127 0-231 100-231 223z m-144-582c0 172 174 301 375 301 201 0 375-129 375-301 0-16-13-29-30-29-17 0-30 13-30 29 0 129-135 243-315 243-180 0-315-114-315-243 0-16-13-29-30-29-16 0-30 13-30 29z" horiz-adv-x="1000" />

<glyph glyph-name="users" unicode="&#xe818;" d="M375 735c-85 0-154-68-154-153 0-83 65-150 146-154 5 1 10 1 15 0 82 4 146 71 147 154 0 85-69 153-154 153z m-216-153c0 119 96 216 216 216 119 0 216-97 216-216l0 0c0-117-92-212-208-216-2 0-3 0-4 0-2 0-5 0-8 0-1 0-3 0-4 0-116 4-208 99-208 216z m494 101c0 18 14 32 31 32 98 0 177-80 177-177 0-96-76-174-171-178-1 0-3 1-5 1 0 0-2 0-3 0-17-2-33 10-35 27-2 17 11 33 28 35 5 0 10 0 15 0 60 3 108 53 108 115 0 63-51 114-114 114-17 0-31 14-31 31z m-271-351c81 0 163-20 226-63 57-38 89-91 89-148 0-57-32-110-89-148l0 0c-64-43-146-63-226-63-80 0-162 20-226 63-57 38-89 91-89 148 0 57 32 110 89 148l0 0 0 0c64 43 146 63 226 63z m-191-115c-44-29-62-65-62-96 0-32 18-67 62-96l0 0c51-34 120-53 191-53 71 0 140 18 191 53 44 29 62 65 62 96 0 32-18 67-62 96l0 0c-51 34-120 52-191 52-71 0-140-18-191-52z m544 57c4 16 20 27 37 23 33-7 66-20 93-41 39-30 61-71 61-114 0-43-22-84-61-114-28-21-61-35-94-42-17-3-34 7-37 24-4 17 7 34 24 37 26 6 50 16 69 31l0 0 0 0c26 19 36 43 36 64 0 21-10 45-36 64l0 0 0 0c-19 14-42 24-68 30-17 4-28 21-24 38z" horiz-adv-x="1000" />

<glyph glyph-name="user-tag" unicode="&#xe819;" d="M250 735c-52 0-94-42-94-92v-455c0-51 42-93 94-93h31c41 0 81-16 111-45 0 0 0 0 0 0l71-70c20-20 54-20 74 0l71 70c0 0 0 0 0 0 29 29 69 45 110 45h32c52 0 94 43 94 93v455c0 50-42 92-94 92h-500z m-156-92c0 85 70 155 156 155h500c86 0 156-70 156-155v-455c0-85-70-155-156-155h-32c-25 0-49-10-66-27l0 0-71-71c-45-44-117-44-162 0l-71 71 0 0c-18 17-42 27-67 27h-31c-86 0-156 69-156 155v455z m406-47c-36 0-66-29-66-66 0-36 30-65 66-65 36 0 66 29 66 65 0 37-30 66-66 66z m-128-66c0 71 57 129 128 129 71 0 128-58 128-129 0-70-57-128-128-128-71 0-128 58-128 128z m-70-332c0 97 95 167 198 167 103 0 198-70 198-167 0-18-14-32-31-32-18 0-32 14-32 32 0 52-54 104-135 104-81 0-135-52-135-104 0-18-14-32-32-32-17 0-31 14-31 32z" horiz-adv-x="1000" />

<glyph glyph-name="verify" unicode="&#xe81a;" d="M631 475c12 10 30 9 42-2 12-12 12-32 0-44l-201-202c-6-6-14-9-22-9-9 0-17 3-22 9l-101 101-2 2c-10 13-9 31 2 42 12 12 30 12 42 2l2-2 79-79 179 180 2 2z m-485-367v71c0 3-1 10-4 17-2 7-6 12-8 15l-56 66 0 0c-34 41-34 104 0 145l0 0 56 66c2 3 6 8 8 15 3 8 4 14 4 17v72c0 61 50 111 112 111h72c3 0 9 1 16 4 6 2 10 5 13 7l3 1 66 57 8 6c37 26 91 26 129 0l8-6 0 0 66-57 0 0 3-2c3-2 7-4 12-6 8-3 14-4 17-4h71c62 0 112-50 112-112v-71c0-3 1-9 4-16 2-6 4-10 6-13l2-3 0 0 56-65 1-1 6-7c28-41 26-100-6-138l-1 0-56-66 0 0c-3-3-6-8-8-15-3-7-4-14-4-17v-71c0-61-50-112-112-112h-71c-3 0-9-1-16-4-8-2-13-6-16-8l0 0-66-56 0-1c-40-34-104-34-145 0l0 1-66 56 0 0c-3 3-8 6-16 8-7 3-13 4-16 4h-72c-62 0-112 51-112 112z m62 412c0-13-3-27-7-38-5-12-11-24-19-34l0 0-56-67c-15-17-15-46 0-63l56-66 0-1 6-7c5-9 10-18 13-27 4-11 7-25 7-38v-71c0-27 23-49 50-49h72c13 0 27-3 38-8 12-4 25-11 34-19h1l65-57 4-3c17-12 45-11 61 3l65 57c10 8 23 15 35 19 12 4 25 8 38 8h71c27 0 49 22 49 49v71c0 13 4 27 8 39 4 11 11 24 20 34l56 66c15 17 15 47 0 64v0l-57 66v0c-8 10-15 22-19 34-4 12-8 25-8 38v71c0 27-22 49-49 49h-71c-13 0-27 4-38 8-12 5-25 11-35 20v0l-65 56-4 3c-16 11-41 11-57 0l-4-3-65-56 0 0c-10-9-23-15-35-19-12-5-25-8-38-8h-72c-27 0-50-22-50-49v-72z" horiz-adv-x="1000" />

<glyph glyph-name="video" unicode="&#xe81b;" d="M129 721c56 56 139 77 246 77h250c107 0 191-21 246-77 56-55 77-139 77-246v-250c0-107-21-190-77-246-55-56-139-77-246-77h-250c-107 0-190 21-246 77-56 56-77 139-77 246v250c0 107 21 191 77 246z m44-44c-38-38-58-101-58-202v-250c0-101 20-164 58-202 38-38 101-58 202-58h250c101 0 164 20 202 58 38 38 58 101 58 202v250c0 101-20 164-58 202-38 38-101 58-202 58h-250c-101 0-164-20-202-58z m259-212c-10-5-22-20-22-53v-124c0-32 12-48 22-53 9-6 28-8 57 8 0 0 0 0 0 0l106 62 0 0c29 16 36 34 36 45 0 11-7 29-36 45l-53 31-53 31c0 0 0 0 0 0-29 16-48 14-57 8z m-32 55c36 20 80 14 120-9l0 0 53-31 53-31c0 0 0 0 0 0 41-23 68-58 68-99 0-41-27-76-67-99-1 0 0 0 0 0l-107-62c-40-23-84-29-120-8-35 20-52 61-52 107v124c0 46 17 87 52 108z" horiz-adv-x="1000" />

<glyph glyph-name="wallet" unicode="&#xe81c;" d="M261 496c-69 0-126-57-126-126v-280c0-69 57-125 126-125h478c69 0 126 56 126 125v18h-48c-59 0-116 43-121 107-4 36 10 69 34 93 21 21 50 34 82 34h53v28c0 69-57 126-126 126h-478z m-188-126c0 104 84 188 188 188h478c104 0 188-84 188-188v-60c0-17-14-31-31-31h-84c-15 0-28-6-38-15l0-1c-12-11-18-26-16-42l0-1 0 0c2-26 28-49 59-49h79c17 0 31-14 31-31v-50c0-104-84-188-188-188h-478c-104 0-188 84-188 188v280z m515 315c0 34-34 57-65 45l-331-125c-34-12-57-45-57-82v-190c0-17-14-31-31-31-17 0-31 14-31 31v190c0 63 38 119 97 141l331 125c0 0 0 0 0 0 72 27 149-26 149-104v-158c0-17-14-31-31-31-17 0-31 14-31 31v158z m224-406c-15 0-28-6-38-15l-1-1c-11-11-17-26-15-42l0-1 0 0c2-26 27-49 59-49h81c6 0 11 6 11 11v86c0 6-5 11-11 11h-86z m-82 29c21 21 50 34 82 34h86c1 0 1 0 1 0 40-2 72-34 72-74v-86c0-40-32-72-72-74 0 0 0 0-1 0h-81c-59 0-116 43-121 107-4 36 10 69 34 93z m-470 42c0 17 14 31 32 31h291c18 0 32-14 32-31 0-17-14-31-32-31h-291c-18 0-32 14-32 31z" horiz-adv-x="1000" />

<glyph glyph-name="wallet-1" unicode="&#xe81d;" d="M368 785c50 22 106 14 171-11l3-1c6-3 11-9 14-16 4-8 4-16 0-24l-1-3 0 0-121-281c-5-11-16-18-29-18h-118c-21 0-42-4-60-11l-8-3c-12-5-25-3-34 6-9 9-12 23-7 35l73 174 1 3 1 1 2 6c1 2 2 5 4 9 28 64 61 112 109 134z m117-59c-41 13-70 12-91 2-23-10-45-34-68-81l-10-22c-1-1-1-2-2-3 0 0 0 0 1 1l-1-1 0-1-1-3-3-7-1-3-1 0-28 12 28-12-48-117c9 2 18 2 27 2h98l100 233z m17 37c7 11 22 16 35 12 4-1 8-3 12-5l8-3 1-1 92-38h0c52-22 94-46 121-79h0c4-6 9-11 12-18l4-6c3-6 6-12 8-18 2-4 3-8 4-12h0c15-46 5-97-18-153-6-15-23-23-38-18-15 4-32 7-50 7h-288c-10 0-20 5-26 14-5 8-6 20-2 29l121 281 1 2 3 6z m-49-270h240c13 0 26-1 39-3 12 35 14 61 9 81l-2 5 0 2-2 5-2 5c0 1 0 2-1 4l-3 5-1 2c-2 3-4 6-7 10l-1 0v0c-16 21-46 40-96 61l0 0-82 35-91-212z m413-235c0 78-52 144-123 166-11 3-23 5-36 6l-13 1h-407c-24 0-46-5-67-14l0 0c-62-27-105-88-105-159v-81c0-4 0-8 1-12l1-15 1-12c5-55 23-94 50-121 26-26 66-44 121-49l11-1 2-1c9-1 17-1 26-1h325c72 0 122 17 155 47 33 29 53 75 57 142 0 8 1 16 1 23v81z m62-81c0-9 0-18-1-26v0c-4-79-28-142-77-186-48-43-116-63-197-63h-325c-12 0-23 1-34 2-70 5-129 27-170 69-40 40-62 94-68 159l-1 14c-1 10-2 20-2 31v81c0 97 58 180 142 216l0 0 11 5c25 9 53 14 81 14h407l17-1c12 0 23-2 34-4l16-5 1 0c95-29 166-118 166-225v-81z m-876 81v123c0 133 95 244 222 269l4 1c10 0 19-4 26-12 6-7 8-18 6-27l-2-4-72-175c-3-5-7-10-12-13l-5-3c-58-25-99-80-104-145l0-14-1-3c-1-15-14-28-31-28-17 0-31 14-31 31z m171 308c-53-30-92-82-104-144 18 19 40 35 64 47l40 97z m642-308c0 73-45 136-109 161l-13 4c-8 3-15 9-19 16-3 8-4 18-1 26 19 45 23 77 19 101l-2 10c0 1 0 2-1 2l-1 4c-6 12-3 27 6 36 10 10 25 12 37 6 87-46 147-138 147-243v-123l0-3c-2-15-15-28-31-28-18 0-32 14-32 31z m-60 271c-2-19-6-38-13-58 26-12 49-28 69-49-8 41-28 78-56 107z" horiz-adv-x="1000" />

<glyph glyph-name="whatsapp" unicode="&#xe81e;" d="M885 350c0 212-173 385-385 385-212 0-385-173-385-385 0-69 19-135 50-194 4-7 5-15 3-22l-36-138c-2-8 5-15 13-13l134 39 3 0c7 2 15 0 22-3 57-35 127-54 196-54 212 0 385 173 385 385z m63 0c0-246-202-448-448-448-76 0-152 20-217 56l-121-35c-54-15-105 34-90 89l32 126c-32 64-52 136-52 212 0 246 202 448 448 448 246 0 448-202 448-448z m-489 99l-25-10 0 0 25 10z m-25-10l0 0 25 10-25-10z m59-1c0-11-3-20-8-29l0 0c-4-7-10-14-16-19l0-1-3-3c2-3 4-6 7-9l12-14c5-5 9-9 14-14h0c9-9 18-18 27-26l9-7 4 4c6 6 13 11 21 16v0c8 4 17 7 27 7l7 0c5-1 11-2 17-5 3-1 6-3 9-4l10-6 0 0 0 0 62-45h0c8-5 15-12 19-21l2-3 1-1c3-8 5-17 5-27 0-11-3-23-8-33-4-10-10-19-18-27l0 0c-12-13-26-24-42-30l0 0c-15-6-31-10-48-10-24 0-49 6-74 16-18 8-36 18-53 29l-18 12c-22 17-44 35-65 56l0 0c-20 20-39 42-55 65l0 0c-17 23-31 46-41 70l0 0c-10 24-16 49-16 73 0 17 3 33 9 48h0c7 16 16 30 29 42v0c17 17 37 27 61 27 9 0 19-2 28-6l0 0c0 0 0-1 0-1 1 0 1 0 1 0l0 0c9-4 17-11 24-20l0 0 44-61 6-10c2-3 3-6 5-9l2-6c1-5 3-12 3-18z m-149 14c0-14 3-30 11-49l6-14c8-14 17-29 27-44h0c15-20 31-39 49-57h0c19-18 38-35 58-49l15-11c15-9 29-17 44-23 18-8 34-11 49-11 9 0 17 1 24 5l0 0 5 2c5 3 10 6 15 12l4 5c2 2 3 4 4 6 1 3 1 5 1 7 0 1 0 1 0 1 0 0 0 0 0 0l-62 44v0c-2 2-4 3-6 4-1-1-3-2-5-5l0 0-15-14c-7-7-18-12-29-12-4 0-10 0-16 3l-1 0 0 0c-1 1-2 1-3 1 0 0 0 0 0 0l0 0-2 1-1 1c-9 5-19 12-30 21l0 0c-11 9-21 19-31 29l-1 0 0 0c-10 11-20 21-28 31l-1 1c-8 10-16 20-21 29l-1 2-1 2c0 0 0 0 0 0 0 1 0 2-1 4l-1 1 0 2c0 2-1 4-1 6l-1 6 1 4c0 9 4 18 11 25l14 15 1 0c2 2 3 4 4 6 0 1-1 3-3 5l0 0-44 62 0 0 0 0c-1 0-1 0-2 0-4 0-10-1-17-8l0-1-1 0c-6-6-11-13-14-20l0 0c-3-7-4-16-4-25z" horiz-adv-x="1000" />

<glyph glyph-name="wifi" unicode="&#xe81f;" d="M186 381c184 143 423 147 611 14l18-14 2-2c12-11 13-29 4-41-10-13-28-16-42-8l-2 2-16 12c-166 118-375 114-537-12-14-11-34-8-44 6-11 13-8 33 6 43z m-122 145c256 198 587 204 847 19l25-19 2-2c12-11 13-29 3-41-9-13-27-16-41-8l-2 2-23 17c-238 169-539 163-773-17-13-11-33-8-43 6-11 13-8 33 5 43z m200-297c138 107 318 111 458 10l14-10 2-2c12-11 13-29 3-41-9-13-27-16-41-8l-2 2-12 8c-118 85-268 82-384-8-14-11-33-8-44 6-10 13-8 33 6 43z m109-152c74 58 172 59 248 5l7-5 2-2c12-11 13-29 4-42-10-13-28-16-42-7l-2 1-11 8c-53 34-117 32-168-8-14-10-33-8-44 6-11 14-8 33 6 44z" horiz-adv-x="1000" />

<glyph glyph-name="woman" unicode="&#xe820;" d="M760 475c0 144-116 260-260 260-144 0-260-116-260-260 0-144 116-260 260-260 144 0 260 116 260 260z m63 0c0-178-145-323-323-323-178 0-323 145-323 323 0 178 145 323 323 323 178 0 323-145 323-323z m-354-542v250c0 18 14 32 31 32 17 0 31-14 31-32v-250c0-17-14-31-31-31-17 0-31 14-31 31z m156 157c17 0 31-14 31-32 0-17-14-31-31-31h-250c-17 0-31 14-31 31 0 18 14 32 31 32h250z" horiz-adv-x="1000" />

<glyph glyph-name="youtube" unicode="&#xe821;" d="M885 475c0 55-18 99-48 129-29 30-73 48-129 48h-416c-56 0-99-18-129-48-30-30-48-74-48-129v-250c0-55 18-99 48-129 30-30 73-48 129-48h416c56 0 100 18 129 48 30 30 48 74 48 129v250z m63-250c0-70-23-130-66-173-44-43-104-67-174-67h-416c-70 0-130 24-173 67-44 43-67 103-67 173v250c0 70 23 130 67 173 43 43 103 67 173 67h416c70 0 130-24 174-67 43-43 66-103 66-173v-250z m-542 263c28 16 60 8 85-7l104-62 2-1c24-17 42-41 42-70 0-29-18-54-42-70-1 0-1 0-2-1l-104-62c-27-16-58-21-85-6-26 15-37 45-37 74v125c0 32 10 64 37 80z m25-205c0-16 6-19 7-20 0 0 6-3 21 6l103 62c13 8 14 15 14 17 0 2-1 9-14 17l-103 62c-8 5-13 7-17 7-2 0-3 0-4 0 0 0 0 0 0 0-1 0-1 0-1-1-1 0-2-2-2-3-2-4-4-11-4-22v-125z" horiz-adv-x="1000" />

<glyph glyph-name="achivement" unicode="&#xe822;" d="M506 194c18 0 32-14 32-31v-88c0-17-14-31-32-31-17 0-31 14-31 31v88c0 17 14 31 31 31z m-239-219c0 63 51 115 114 115h250c63 0 115-52 115-115v-73h-448v31h-31v42z m62-10h354v10c0 29-23 52-52 52h-250c-28 0-52-23-52-52v-10z m-104-32c0 18 14 32 31 32h500c18 0 32-14 32-32 0-17-14-31-32-31h-500c-17 0-31 14-31 31z m150 802c-75 0-135-60-135-135v-125c0-144 116-260 260-260 144 0 260 116 260 260v125c0 75-60 135-135 135h-250z m-198-135c0 109 89 198 198 198h250c109 0 198-89 198-198v-125c0-178-144-323-323-323-178 0-323 145-323 323v125z m-2 36c-34-6-59-35-59-71 0-49 21-91 54-129 2-2 4-4 7-6-3 17-4 34-4 51v125c0 10 0 20 2 30z m-121-71c0 75 60 135 135 135h27c11 0 21-5 26-14 6-9 7-20 3-30-7-15-10-32-10-50v-125c0-37 8-72 22-104 5-11 2-24-6-33-8-9-21-13-33-9-36 12-68 33-93 58 0 0 0 0-1 1-41 46-70 103-70 171z m704 121c5 9 15 14 26 14h27c75 0 135-60 135-135 0-68-29-125-70-171-1-1-1-1-1-1-25-25-57-46-93-58-12-4-25 0-33 9-8 9-10 22-6 33 14 32 22 67 22 104v125c0 18-3 35-10 50-4 10-3 21 3 30z m67-50c2-10 3-20 3-30v-125c0-17-2-34-4-51 2 2 4 4 6 6 33 38 54 80 54 129 0 36-25 65-59 71z" horiz-adv-x="1000" />

<glyph glyph-name="add" unicode="&#xe823;" d="M219 350c0 17 14 31 31 31h500c17 0 31-14 31-31 0-17-14-31-31-31h-500c-17 0-31 14-31 31z m281 281c17 0 31-14 31-31v-500c0-17-14-31-31-31-17 0-31 14-31 31v500c0 17 14 31 31 31z" horiz-adv-x="1000" />

<glyph glyph-name="airplane" unicode="&#xe824;" d="M552 650c0 13-5 29-14 44-9 15-21 26-32 32-4 2-8 2-12 0-11-6-23-17-32-32-10-16-14-32-14-44v-125c0-11-5-21-9-28-5-8-12-15-23-20l0 0-232-100-1-1c-6-2-13-8-19-16-5-9-8-18-8-25v-54c0-5 1-8 2-9 0-2 1-2 1-2 0 0 1 0 2-1 2 0 5 1 10 3l204 88v0c15 7 34 8 50-3 16-11 23-28 23-45v-119c0-10-3-19-6-27-3-8-8-17-15-24l0 0-95-95 0 0c0 0 0-1-1-2 0-1-1-2-1-3 0-2-1-3 0-5l0-1v0l18-56 0 0 1-2c2-4 7-6 11-5l93 79c26 22 68 22 94 0l93-79c5-1 11 2 13 8l18 55 0 0 0 1c0 1 0 3-1 4 0 2 0 3-1 5 0 1-1 1-1 1l0 0-94 95 0 0c-8 7-13 16-16 23-3 9-6 18-6 28v119c0 16 6 34 23 45 14 9 30 9 44 5l5-2 1 0h0l205-88h-1c5-2 8-3 10-3 1 1 2 1 2 1 0 0 1 0 2 2 0 1 1 4 1 9v54c0 7-2 16-8 25-6 9-13 15-19 17l-1 0-233 101 0 0c-10 4-17 12-22 19-5 7-9 17-9 28v125z m63-118l226-97h0c20-9 36-24 47-41 11-17 19-38 19-59v-54c0-25-10-49-32-63-21-14-47-14-70-4h0l-190 82v-103c0 1 0 1 0 0 0-1 0-2 1-3 0-2 1-3 1-3 1-1 1-1 1-1l0 0 95-95 3-4c8-9 13-21 15-31 3-12 4-26-1-40l0 0-18-55 0-1c-14-39-57-59-95-45l-7 3c-2 1-4 3-6 4l-97 82-1 0c-2 3-9 3-12 0l-1 0-97-82c-1 0-1-1-2-2l-4-2c-39-20-88 0-101 43l0 0-19 55-1 5c-3 12-2 24 0 35 3 12 9 25 19 35l94 95 1 0 0 0c0 1 1 2 1 3 1 2 1 3 1 4 1 1 0 1 0 0v103l-190-82h0c-23-10-49-10-70 4-22 14-32 38-32 63v54c0 21 8 42 19 59 11 17 27 32 47 40v0l226 98v118c0 27 10 54 23 76 14 23 34 43 58 56l0 0 8 3c17 6 35 6 51 0l9-3 0 0 9-5c19-13 36-31 48-50 14-23 24-50 24-77v-118z" horiz-adv-x="1000" />

<glyph glyph-name="align-center" unicode="&#xe825;" d="M875 694c17 0 31-14 31-31 0-18-14-32-31-32h-750c-17 0-31 14-31 32 0 17 14 31 31 31h750z m-177-209l3 0c16-1 28-15 28-31 0-16-12-29-28-31l-3 0h-395c-18 0-32 14-32 31 0 17 14 31 32 31h395z m177-208c17 0 31-14 31-31 0-17-14-31-31-31h-750c-17 0-31 14-31 31 0 17 14 31 31 31h750z m-177-208l3 0c16-2 28-15 28-31 0-17-12-30-28-32l-3 0h-395c-18 0-32 14-32 32 0 17 14 31 32 31h395z" horiz-adv-x="1000" />

<glyph glyph-name="align-left" unicode="&#xe826;" d="M875 694c17 0 31-14 31-31 0-18-14-32-31-32h-750c-17 0-31 14-31 32 0 17 14 31 31 31h750z m-355-209l3 0c16-1 28-15 28-31 0-16-12-29-28-31l-3 0h-395c-17 0-31 14-31 31 0 17 14 31 31 31h395z m355-208c17 0 31-14 31-31 0-17-14-31-31-31h-750c-17 0-31 14-31 31 0 17 14 31 31 31h750z m-355-208l3 0c16-2 28-15 28-31 0-17-12-30-28-32l-3 0h-395c-17 0-31 14-31 32 0 17 14 31 31 31h395z" horiz-adv-x="1000" />

<glyph glyph-name="align-right" unicode="&#xe827;" d="M875 694c17 0 31-14 31-31 0-18-14-32-31-32h-750c-17 0-31 14-31 32 0 17 14 31 31 31h750z m0-209l3 0c16-1 28-15 28-31 0-16-12-29-28-31l-3 0h-395c-17 0-31 14-31 31 0 17 14 31 31 31h395z m0-208c17 0 31-14 31-31 0-17-14-31-31-31h-750c-17 0-31 14-31 31 0 17 14 31 31 31h750z m0-208l3 0c16-2 28-15 28-31 0-17-12-30-28-32l-3 0h-395c-17 0-31 14-31 32 0 17 14 31 31 31h395z" horiz-adv-x="1000" />

<glyph glyph-name="apple" unicode="&#xe828;" d="M367 544c35 0 64-10 89-18 29-10 38-16 57-16 15 0 28 3 46 11l2 0c25 9 55 19 97 19 64 0 128-30 171-88l2-3c4-7 5-15 4-23-2-9-8-16-16-20-103-53-90-202 17-243 8-4 15-10 18-18 3-8 3-17 0-24-14-30-24-50-38-72l-14-24c-1 0-1-1-2-2-16-22-36-51-60-75-25-24-57-46-98-46-30 0-47 5-67 15-20 8-32 14-62 14-21 0-35-3-49-9l-15-5c-1-1-2-1-4-2-3 0-5-1-9-2-3-2-8-3-13-5-11-3-23-6-40-6-38 0-69 19-94 41-24 23-46 51-64 76 0 0-1 1-1 1-47 71-72 150-79 223-7 72 5 140 37 190l8 13c43 63 111 98 177 98z m0-63c-44 0-93-23-126-71l-6-9 0-1c-22-34-34-88-28-151 6-63 28-131 69-194 19-25 36-48 55-65 20-18 36-25 52-25 9 0 15 1 21 3 4 1 7 2 11 4 4 1 8 2 12 3 22 9 47 19 86 19 33 0 53-6 70-13l16-6 3-1c12-7 20-9 40-9 17 0 35 9 54 28 19 19 36 43 53 66 15 23 24 40 35 60-114 68-136 235-28 320-28 26-63 38-98 38-32 0-53-7-77-15l0 0c-23-9-43-14-68-14-32 0-56 11-77 18-25 9-46 15-69 15z m278 317c13-1 25-12 27-26l2-11c6-54-19-104-45-138-29-39-84-76-144-71-14 2-26 12-28 26-11 59 16 109 43 145l2 2c33 38 86 68 137 73l6 0z m-35-71c-22-9-45-24-61-43-16-21-28-44-31-66 23 6 46 23 61 42 15 21 27 44 31 67z" horiz-adv-x="1000" />

<glyph glyph-name="archive" unicode="&#xe829;" d="M156 58v366c0 17 14 31 32 31 17 0 31-14 31-31v-366c0-41 5-61 16-73 9-10 28-20 78-20h375c49 0 68 10 78 20 10 12 15 32 15 73v366c0 17 14 31 32 31 17 0 31-14 31-31v-366c0-42-5-84-31-114-28-31-71-42-125-42h-375c-55 0-98 11-126 42-26 30-31 72-31 114z m729 584c0 37-9 58-22 71-13 13-34 22-71 22h-584c-36 0-58-9-71-22-13-13-22-34-22-71v-84c0-36 9-58 22-71 13-13 35-22 71-22h584c37 0 58 9 71 22 13 13 22 35 22 71v84z m63-84c0-46-12-87-40-115-29-29-70-41-116-41h-584c-46 0-87 12-115 41-29 28-41 69-41 115v84c0 46 12 87 41 116 28 28 69 40 115 40h584c46 0 87-12 116-40 28-29 40-70 40-116v-84z m-372-260l3 0c16-2 28-15 28-31 0-16-12-30-28-31l-3-1h-152c-17 0-31 14-31 32 0 17 14 31 31 31h152z" horiz-adv-x="1000" />

<glyph glyph-name="arrow-down" unicode="&#xe82a;" d="M148 499c12 12 32 12 44 0l272-271c20-20 52-20 72 0l272 271c12 12 32 12 44 0 12-12 12-32 0-44l-272-272c-44-44-116-44-160 0l-272 272c-12 12-12 32 0 44z" horiz-adv-x="1000" />

<glyph glyph-name="arrow-left" unicode="&#xe82b;" d="M647 702c12-12 12-32 0-44l-272-272c-19-20-19-52 0-72l272-272c12-12 12-32 0-44-12-12-32-12-44 0l-272 272c-44 44-44 116 0 160l272 272c12 12 32 12 44 0z" horiz-adv-x="1000" />

<glyph glyph-name="arrow-right" unicode="&#xe82c;" d="M349 702c12 12 32 12 44 0l272-272c44-44 44-116 0-160l-272-272c-12-12-32-12-44 0-12 12-12 32 0 44l272 272c20 20 20 52 0 72l-272 272c-12 12-12 32 0 44z" horiz-adv-x="1000" />

<glyph glyph-name="arrow-up" unicode="&#xe82d;" d="M420 517c44 44 116 44 160 0l272-272c12-12 12-32 0-44-12-12-32-12-44 0l-272 272c-20 19-52 19-72 0l-272-272c-12-12-32-12-44 0-12 12-12 32 0 44l272 272z" horiz-adv-x="1000" />

<glyph glyph-name="bathtub" unicode="&#xe82e;" d="M462 699c-42 0-77-36-77-80v-197h-305v-40-40c25 0 45-18 48-43l12-100c7-58 38-107 82-138l-28-115h79l20 83c12-2 24-3 36-3h342c12 0 24 1 36 3l20-83h79l-28 115c44 31 75 80 82 138l12 100c3 25 23 43 48 43v40 40h-458v197h114v-39h-38v-79h153v79h-38v39c0 44-35 80-77 80h-114z" horiz-adv-x="1000" />

<glyph glyph-name="bed" unicode="&#xe82f;" d="M199 767c-47 0-86-40-86-90v-223h86v90c0 24 20 44 43 44h172c24 0 43-20 43-44v-90h86v90c0 24 19 44 43 44h172c24 0 43-20 43-44v-90h86v223c0 50-39 90-86 90h-602z m-43-402c-47 0-86-40-86-89v-313h86v89h688v-89h86v313c0 49-39 89-86 89h-688z" horiz-adv-x="1000" />

<glyph glyph-name="blueprint" unicode="&#xe830;" d="M109 741v-782h332l-78 79h-175v625h625v-171l78-78v327h-782z m137-118c-11 0-19-8-19-19 0-11 8-20 19-20 11 0 20 9 20 20 0 11-9 19-20 19z m78 0c-11 0-19-8-19-19 0-11 8-20 19-20 11 0 20 9 20 20 0 11-9 19-20 19z m78 0c-10 0-19-8-19-19 0-11 9-20 19-20 11 0 20 9 20 20 0 11-9 19-20 19z m79 0c-11 0-20-8-20-19 0-11 9-20 20-20 10 0 19 9 19 20 0 11-9 19-19 19z m78 0c-11 0-20-8-20-19 0-11 9-20 20-20 10 0 19 9 19 20 0 11-9 19-19 19z m78 0c-11 0-20-8-20-19 0-11 9-20 20-20 11 0 19 9 19 20 0 11-8 19-19 19z m78 0c-11 0-20-8-20-19 0-11 9-20 20-20 11 0 19 9 19 20 0 11-8 19-19 19z m-469-78c-11 0-19-8-19-19 0-11 8-20 19-20 11 0 20 9 20 20 0 11-9 19-20 19z m156 0c-10 0-19-8-19-19 0-11 9-20 19-20 11 0 20 9 20 20 0 11-9 19-20 19z m157 0c-11 0-20-8-20-19 0-11 9-20 20-20 10 0 19 9 19 20 0 11-9 19-19 19z m156 0c-11 0-20-8-20-19 0-11 9-20 20-20 11 0 19 9 19 20 0 11-8 19-19 19z m35-70c-10 0-19-5-27-13l-36-36 86-87-28-28-86 87-50-50 47-48-28-28-47 48-50-51 86-86-28-28-87 86-50-50 48-47-28-28-48 47-36-36c-16-16-16-40 0-55l101-102c15-15 40-15 55 0l336 336c15 15 15 40 0 55l-102 101c-7 8-18 13-28 13z m-504-8c-11 0-19-8-19-19 0-11 8-20 19-20 11 0 20 9 20 20 0 11-9 19-20 19z m78 0c-11 0-19-8-19-19 0-11 8-20 19-20 11 0 20 9 20 20 0 11-9 19-20 19z m78 0c-10 0-19-8-19-19 0-11 9-20 19-20 11 0 20 9 20 20 0 11-9 19-20 19z m79 0c-11 0-20-8-20-19 0-11 9-20 20-20 10 0 19 9 19 20 0 11-9 19-19 19z m78 0c-11 0-20-8-20-19 0-11 9-20 20-20 10 0 19 9 19 20 0 11-9 19-19 19z m78 0c-11 0-20-8-20-19 0-11 9-20 20-20 11 0 19 9 19 20 0 11-8 19-19 19z m-391-78c-11 0-19-9-19-19 0-11 8-20 19-20 11 0 20 9 20 20 0 10-9 19-20 19z m156 0c-10 0-19-9-19-19 0-11 9-20 19-20 11 0 20 9 20 20 0 10-9 19-20 19z m157 0c-11 0-20-9-20-19 0-11 9-20 20-20 10 0 19 9 19 20 0 10-9 19-19 19z m-313-78c-11 0-19-9-19-20 0-10 8-19 19-19 11 0 20 9 20 19 0 11-9 20-20 20z m78 0c-11 0-19-9-19-20 0-10 8-19 19-19 11 0 20 9 20 19 0 11-9 20-20 20z m78 0c-10 0-19-9-19-20 0-10 9-19 19-19 11 0 20 9 20 19 0 11-9 20-20 20z m79 0c-11 0-20-9-20-20 0-10 9-19 20-19 10 0 19 9 19 19 0 11-9 20-19 20z m410-48l-78-78v-147h-148l-78-79h304v304z m-645-30c-11 0-19-9-19-20 0-11 8-19 19-19 11 0 20 8 20 19 0 11-9 20-20 20z m156 0c-10 0-19-9-19-20 0-11 9-19 19-19 11 0 20 8 20 19 0 11-9 20-20 20z m-156-78c-11 0-19-9-19-20 0-11 8-19 19-19 11 0 20 8 20 19 0 11-9 20-20 20z m78 0c-11 0-19-9-19-20 0-11 8-19 19-19 11 0 20 8 20 19 0 11-9 20-20 20z" horiz-adv-x="1000" />

<glyph glyph-name="book" unicode="&#xe831;" d="M52 656c0 68 56 120 124 114 92-8 229-53 308-102l10-6c1 0 1-1 2-1 1 0 2 0 4 0 2 0 3 0 4 0 1 0 2 1 2 1l7 4c78 49 216 96 308 104 1 0 2 0 3 0h1c67 4 123-47 123-115v-502c0-56-44-107-100-114l0 0-14-2c-86-11-222-56-299-98-11-7-24-9-35-9-11 0-24 2-35 8l-1 1c0 0-1 0-1 0-77 42-213 87-299 98l0 0-12 2c-56 7-100 58-100 114v503z m119 52c-31 2-56-21-56-52v-503c0-25 21-49 45-52l0 0 12-2c0 0 0 0 0 0 94-12 237-59 320-105l2 0c0 0 0-1 1-1 0 0 0 0 1 0 1 0 2-1 4-1 1 0 2 1 3 1 1 0 1 0 1 0l1 0c83 46 227 94 321 106l1 0 13 2c0 0 0 0 0 0 24 3 45 27 45 52v502c0 32-25 55-56 52-1 0-2 0-3 0h-1c-82-7-209-50-279-94l-7-5c-13-7-27-10-39-10-12 0-26 3-38 10l-11 7c-70 43-198 86-280 93l0 0z m329-55c17 0 31-14 31-32v-625c0-17-14-31-31-31-17 0-31 14-31 31v625c0 18 14 32 31 32z m-302-157c0 18 14 32 31 32h94c17 0 31-14 31-32 0-17-14-31-31-31h-94c-17 0-31 14-31 31z m0-125c0 18 14 32 31 32h125c17 0 31-14 31-32 0-17-14-31-31-31h-125c-17 0-31 14-31 31z" horiz-adv-x="1000" />

<glyph glyph-name="book-1" unicode="&#xe832;" d="M823 142v416c0 84-11 124-33 145-21 21-61 32-144 32h-292c-83 0-123-11-144-32-22-21-33-61-33-145v-458c0-17-14-31-31-31-17 0-31 14-31 31v458c0 83 9 148 50 189 42 41 106 51 189 51h292c83 0 147-10 189-51 41-41 50-106 50-189v-416c0-6 0-13 0-20-1-17-16-30-33-29-18 1-31 16-29 33 0 5 0 10 0 16z m-708-63v27c0 83 67 150 150 150h589c17 0 31-14 31-31v-146c0-98-79-177-177-177h-416c-98 0-177 79-177 177z m62 0c0-63 52-114 115-114h416c64 0 115 51 115 114v115h-558c-49 0-88-40-88-88v-27z m490 511c17 0 31-14 31-32 0-17-14-31-31-31h-334c-17 0-31 14-31 31 0 18 14 32 31 32h334z m-125-146c17 0 31-14 31-31 0-18-14-32-31-32h-209c-17 0-31 14-31 32 0 17 14 31 31 31h209z" horiz-adv-x="1000" />

<glyph glyph-name="box" unicode="&#xe833;" d="M105 556c8 14 26 19 40 13l3-2 352-204 350 203c15 8 34 3 43-12 8-14 3-34-12-42l-365-212c-10-6-22-6-32 0l-368 213-2 2c-13 9-17 27-9 41z m364-606v378c0 17 14 31 31 31 17 0 31-14 31-31v-378c0-18-14-32-31-32-17 0-31 14-31 32z m401 518c0 22-8 48-23 73-15 25-34 44-53 55l0 0-222 124v0c-19 10-44 16-72 16-27-1-53-6-71-17l0 0-223-123c-19-11-38-30-53-55-14-25-22-51-22-73v-235c0-22 8-49 22-73 15-25 34-45 53-56h0l223-123 7-4c17-8 40-12 64-12 28 0 54 6 72 16l222 123h0l7 5c17 11 33 29 46 51 15 24 23 51 23 73v235z m62-235c0-36-12-73-31-105-19-32-45-61-77-78l0 0-222-124-12-6c-27-12-59-18-90-18-35 0-72 8-101 24l0 0-223 124v0c-31 17-58 46-76 78-19 32-32 69-32 105v235c0 36 13 73 32 105 18 31 45 60 76 78l223 123c29 17 66 24 101 24 31 0 63-5 90-18l12-5 0-1 222-123h0c32-18 58-47 77-78 19-32 31-69 31-105v-235z" horiz-adv-x="1000" />

<glyph glyph-name="briefcase" unicode="&#xe834;" d="M708 631c93 0 156-21 193-65 37-44 40-101 34-154l-31-333 0 0c-5-43-15-90-54-125-38-35-96-52-183-52h-334c-87 0-145 17-183 52-39 35-49 82-54 125l0 0-31 334 0 0c-6 53-3 110 34 153 37 44 100 65 193 65h416z m-416-62c-86 0-126-20-145-43-17-21-24-50-22-90l2-17 0-1 31-333 2-14c5-31 14-54 32-71 21-19 61-35 141-35h334c80 0 120 16 141 35 21 19 30 47 34 85l31 333 0 1 2 17c2 40-4 69-22 90-19 23-59 43-145 43h-416z m343 31v33c0 19 0 35-1 48-2 14-5 23-10 29-7 11-27 25-91 25h-66c-64 0-84-14-91-25-5-6-8-15-10-29-1-13-1-29-1-48v-33c0-17-14-31-32-31-17 0-31 14-31 31v33c0 18 0 38 2 56 3 19 8 39 20 56 26 38 73 53 143 53h66c70 0 117-15 143-53 12-17 17-37 20-56 2-18 2-38 2-56v-33c0-17-14-31-31-31-18 0-32 14-32 31z m-83-334v42c0 4 0 8 0 11-3 0-6 0-10 0h-84c-4 0-7 0-10 0 0-3 0-7 0-11v-43c0-11 0-20 1-27 1-7 3-11 4-13 1-2 9-10 47-10 39 0 46 8 47 11 2 1 3 5 4 12 1 4 1 8 1 12l0 16z m63 0c0-11 0-24-2-36-2-13-5-27-15-40-19-28-54-38-98-38-44 0-78 10-98 37-9 13-13 28-15 40-2 12-2 25-2 36v43c0 10 0 20 1 28 1 8 3 21 14 31 10 10 23 13 31 13 8 1 18 1 27 1h84c9 0 19 0 27-1 8 0 21-3 31-13 11-10 13-23 14-31 1-8 1-18 1-28v-42z m271 153c14 8 32 4 41-9 11-14 7-33-6-44l-20-13c-96-65-204-104-314-118-17-2-32 10-35 27-2 17 10 33 27 35 108 13 213 53 305 120l2 2z m-803-21c10 13 27 18 41 10l3-2 17-11c85-55 180-88 276-98 17-2 30-18 28-35-2-17-18-29-35-28-106 12-210 49-303 108l-18 13-3 2c-12 10-15 28-6 41z" horiz-adv-x="1000" />

<glyph glyph-name="broom" unicode="&#xe835;" d="M216 775c53 33 124 16 157-38h0l65-107c4-7 6-16 4-24-2-8-7-15-14-19l-143-87c-15-9-34-4-43 11l-65 107 0 0c-33 53-15 124 39 157z m104-71c-15 25-48 33-72 18-24-15-32-47-18-72h1l48-80 89 54-48 80 0 0z m156-209c91 56 203 29 262-51l115-156 1 0 4-6c42-65 24-150-43-190l0 0-268-163 0 0c-69-43-156-17-192 56v0l-85 174 0 0c-44 89-16 201 75 256v0l131 80v0z m212-89c-41 56-117 74-179 36v0l-132-80c-58-36-79-105-56-164l5-12 0 0 85-174 0 0 4-7c22-34 64-45 99-23l1 0 268 163 0 0 6 5c32 24 39 67 14 101l-115 155z m-256 258l3 2c14 7 32 2 40-12l87-142c9-15 4-34-11-43l-213-130c-15-9-34-5-43 10l-87 142-2 3c-6 14-1 32 12 40l214 130z m-100-256l160 98-54 89-160-98 54-89z m248-232c14 9 32 5 41-7l2-3 69-113 1-3c7-14 2-32-12-40-14-8-31-5-41 8l-2 2-68 113-2 3c-7 14-2 32 12 40z m-107-65c14 9 32 5 42-7l1-3 69-113 2-3c6-14 1-32-12-40-14-8-32-5-42 8l-1 2-69 113-2 3c-6 14-1 32 12 40z m214 130c14 9 31 5 41-7l2-3 68-113 2-3c7-14 2-32-12-40-14-8-32-5-41 8l-2 2-69 113-1 3c-7 14-2 32 12 40z" horiz-adv-x="1000" />

<glyph glyph-name="cake" unicode="&#xe836;" d="M52-67c0 18 14 32 31 32h834c17 0 31-14 31-32 0-17-14-31-31-31h-834c-17 0-31 14-31 31z m216 469c-62 0-107-45-107-94v-375c0-17-14-31-31-31-18 0-32 14-32 31v375c0 90 80 157 170 157h463c91 0 170-67 170-157v-375c0-17-14-31-31-31-17 0-31 14-31 31v375c0 49-45 94-108 94h-463z m65 208c-42 0-70-29-70-59v-118c0-17-14-31-31-31-18 0-32 14-32 31v118c0 71 63 122 133 122h335c69 0 132-51 132-122v-118c0-17-14-31-32-31-17 0-31 14-31 31v118c0 30-28 59-69 59h-335z m-217-342c0 18 15 31 32 31l15-1c48 0 86-39 86-87v-14c0-14 11-25 25-25 14 0 25 11 25 25v13c0 48 39 88 88 88 48 0 87-39 87-88v-13c0-14 11-25 25-25 14 0 25 11 25 25v13c0 48 39 88 88 88 48 0 87-39 87-88v-13c0-14 11-25 25-25 14 0 25 11 25 25v13c0 48 39 88 88 88h18c18 0 32-14 32-32 0-17-14-31-32-31h-18c-14 0-25-11-25-25v-13c0-49-40-87-88-87-48 0-87 39-87 87v13c0 14-12 25-25 25-14 0-25-11-25-25v-13c0-49-40-87-88-87-48 0-87 39-87 87v13c0 14-12 25-25 25-14 0-25-11-25-25v-13c0-49-40-87-88-87-48 0-87 39-87 87v14c0 14-11 25-25 25l0 0 0 0-16 0c-17 1-31 15-30 32z m217 488c18 0 32-14 32-31v-83c0-18-14-32-32-32-17 0-31 14-31 32v83c0 17 14 31 31 31z m334 0c17 0 31-14 31-31v-83c0-18-14-32-31-32-18 0-32 14-32 32v83c0 17 14 31 32 31z m-167 42c17 0 31-14 31-31v-125c0-18-14-32-31-32-17 0-31 14-31 32v125c0 17 14 31 31 31z" horiz-adv-x="1000" />

<glyph glyph-name="calculator" unicode="&#xe837;" d="M844 475c0 101-21 164-59 202-38 38-101 58-202 58h-166c-101 0-164-20-202-58-38-38-59-101-59-202v-250c0-101 21-164 59-202 38-38 101-58 202-58h166c101 0 164 20 202 58 38 38 59 101 59 202v250z m62-250c0-107-21-190-77-246-55-56-138-77-246-77h-166c-108 0-191 21-246 77-56 56-77 139-77 246v250c0 107 21 191 77 246 55 56 138 77 246 77h166c108 0 191-21 246-77 56-55 77-139 77-246v-250z m-250 309c0 18-14 31-31 31h-250c-17 0-31-14-31-31v-41c0-18 14-32 31-32h250c17 0 31 15 31 32v41z m63-41c0-52-42-94-94-94h-250c-51 0-94 42-94 94v41c0 52 42 94 94 94h250c52 0 94-42 94-94v-41z m-379-185l4 0c21-2 37-20 37-41 0-22-16-40-37-42l-4 0h-1c-23 0-42 19-42 42 0 23 19 41 42 41h1z m160 0l5 0c21-2 37-20 37-41 0-22-16-40-37-42l-5 0h0c-23 0-42 19-42 42 0 23 19 41 42 41h0z m161 0l4 0c21-2 38-20 38-41 0-22-17-40-38-42l-4 0h0c-23 0-42 19-42 42 0 23 19 41 42 41h0z m-321-145l4-1c21-2 37-20 37-41 0-22-16-39-37-42l-4 0h-1c-23 0-42 19-42 42 0 23 19 42 42 42h1z m160 0l5-1c21-2 37-20 37-41 0-22-16-39-37-42l-5 0h0c-23 0-42 19-42 42 0 23 19 42 42 42h0z m161 0l4-1c21-2 38-20 38-41 0-22-17-39-38-42l-4 0h0c-23 0-42 19-42 42 0 23 19 42 42 42h0z" horiz-adv-x="1000" />

<glyph glyph-name="calendar" unicode="&#xe838;" d="M333 798c18 0 32-14 32-31v-125c0-18-14-32-32-32-17 0-31 14-31 32v125c0 17 14 31 31 31z m334 0c17 0 31-14 31-31v-125c0-18-14-32-31-32-18 0-32 14-32 32v125c0 17 14 31 32 31z m-552-327c0 18 14 32 31 32h708c17 0 31-14 31-32 0-17-14-31-31-31h-708c-17 0-31 14-31 31z m82 155c-26-29-41-72-41-130v-354c0-58 15-101 41-130 27-28 69-47 136-47h334c67 0 109 19 136 47 26 29 41 72 41 130v354c0 58-15 101-41 130-27 28-69 47-136 47h-334c-67 0-109-19-136-47z m-45 42c41 45 103 67 181 67h334c79 0 140-22 181-67 41-44 58-105 58-172v-354c0-68-17-128-58-173-41-44-102-67-181-67h-334c-78 0-140 23-181 67-41 45-58 105-58 173v354c0 67 17 128 58 172z m460-389c0 23 19 42 42 42h0c23 0 42-19 42-42 0-23-19-41-42-41h0c-23 0-42 18-42 41z m0-125c0 23 19 42 42 42h0c23 0 42-19 42-42 0-23-19-41-42-41h0c-23 0-42 18-42 41z m-154 125c0 23 19 42 42 42h0c23 0 42-19 42-42 0-23-19-41-42-41h0c-23 0-42 18-42 41z m0-125c0 23 19 42 42 42h0c23 0 42-19 42-42 0-23-19-41-42-41h0c-23 0-42 18-42 41z m-154 125c0 23 19 42 42 42h0c23 0 42-19 42-42 0-23-19-41-42-41h0c-23 0-42 18-42 41z m0-125c0 23 19 42 42 42h0c23 0 42-19 42-42 0-23-19-41-42-41h0c-23 0-42 18-42 41z" horiz-adv-x="1000" />

<glyph glyph-name="camera" unicode="&#xe839;" d="M371 773c24 15 53 25 82 25h95c28 0 57-10 81-25 24-15 46-36 59-61l0-1 29-60c7-12 20-20 33-20 108 0 194-91 187-199l-21-344c-3-48-18-95-51-130-33-36-82-56-147-56h-436c-64 0-114 20-147 56-34 35-48 82-51 130 0 0 0 0 0 0l-21 344c0 0 0 0 0 0-7 108 79 199 187 199 13 0 26 8 33 20l30 61c12 25 34 46 58 61z m-3-89l-30-61c-17-33-51-54-88-54-72 0-130-61-125-133l0 0 22-345c2-38 13-69 33-90 20-21 51-36 102-36h436c51 0 82 15 102 36 20 21 31 52 33 91 0 0 0 0 0 0l22 344c5 72-53 133-125 133-37 0-71 21-88 54l0 0-30 61c-7 12-19 26-36 36-16 10-34 15-48 15h-95c-15 0-32-5-49-15-16-10-29-24-36-36z m38-167c0 17 14 31 32 31h125c17 0 31-14 31-31 0-18-14-32-31-32h-125c-18 0-32 14-32 32z m-73-282c0 92 75 167 167 167 92 0 167-75 167-167 0-91-75-166-167-166-92 0-167 75-167 166z m167 105c-57 0-104-47-104-105 0-57 47-104 104-104 57 0 104 47 104 104 0 58-47 105-104 105z" horiz-adv-x="1000" />

<glyph glyph-name="car" unicode="&#xe83a;" d="M646 763c57 0 98-14 127-43 23-24 34-55 41-84l3-12 0 0 47-226c2-9 0-19-6-26-6-7-15-12-25-12h-666c-10 0-19 5-25 12-5 7-8 17-6 26l47 226 0 0 3 12c7 29 18 60 42 84 28 29 69 43 126 43h292z m-292-62c-47 0-69-12-82-24-13-14-21-35-28-66l-39-188h590l-39 188-3 11c-6 25-13 42-25 55-13 12-35 24-82 24h-292z m412-278c59 0 100-14 126-45 21-25 28-57 31-85l1-12v0l23-254 1-6c2-65-51-119-116-119h-79c-26 0-48 6-65 21-11 11-17 24-20 34l-3 9-9 25v0c-6 19-9 25-13 29-2 2-10 7-36 7h-214c-26 0-33-5-36-8-4-3-6-7-9-17l-4-11-8-25c-4-10-9-29-24-43-17-15-39-21-65-21h-79c-67 0-122 57-115 125l23 254v0l1 12c3 28 10 60 31 85 26 31 67 45 126 45h532z m-532-63c-50 0-69-11-78-22-11-12-15-31-18-63l-23-254v0c-3-30 21-56 53-56h79c18 0 22 4 22 4 1 1 3 4 7 17l9 25 4 12c4 13 12 29 25 41 19 18 45 26 79 26h214c33 0 59-7 79-24 13-13 20-29 25-42l4-13 1 0 8-25 5-13c1-3 2-4 2-4 0 0 4-4 22-4h79c32 0 56 26 53 56v0l-23 254-3 22c-3 19-7 32-15 41-9 11-28 22-78 22h-532z m-67 188c17 0 31-14 31-31 0-18-14-32-31-32h-42c-17 0-31 14-31 32 0 17 14 31 31 31h42z m708 0c17 0 31-14 31-31 0-18-14-32-31-32h-42c-17 0-31 14-31 32 0 17 14 31 31 31h42z m-406 94v83c0 17 14 31 31 31 17 0 31-14 31-31v-83c0-18-14-32-31-32-17 0-31 14-31 32z m94 31c17 0 31-14 31-31 0-18-14-32-31-32h-125c-18 0-32 14-32 32 0 17 14 31 32 31h125z m-188-417c17 0 31-14 31-31 0-17-14-31-31-31h-125c-17 0-31 14-31 31 0 17 14 31 31 31h125z m375 0c17 0 31-14 31-31 0-17-14-31-31-31h-125c-17 0-31 14-31 31 0 17 14 31 31 31h125z" horiz-adv-x="1000" />

<glyph glyph-name="card" unicode="&#xe83b;" d="M52 496c0 17 14 31 31 31h834c17 0 31-14 31-31 0-18-14-32-31-32h-834c-17 0-31 14-31 32z m167-334c0 18 14 32 31 32h83c18 0 32-14 32-32 0-17-14-31-32-31h-83c-17 0-31 14-31 31z m187 0c0 18 14 32 32 32h166c17 0 31-14 31-32 0-17-14-31-31-31h-166c-18 0-32 14-32 31z m-264 483c-17-17-27-51-27-124v-342c0-74 10-107 27-124 18-18 52-28 126-28l0 0 464 0c74 0 108 10 126 28 17 17 27 51 27 124v342c0 73-10 107-27 124-18 18-52 28-127 28h-463c-74 0-108-10-126-28z m-44 45c38 37 97 45 170 45h463c74 0 133-8 171-45 37-38 46-96 46-169v-342c0-73-9-131-46-169-38-37-97-45-170-45h-464c-73 0-132 8-170 45-37 37-46 96-46 169v342c0 73 9 131 46 169z" horiz-adv-x="1000" />

<glyph glyph-name="chart" unicode="&#xe83c;" d="M875-35c17 0 31-14 31-32 0-17-14-31-31-31h-750c-17 0-31 14-31 31 0 18 14 32 31 32h750z m-631 494c0 6-5 11-11 11h-66c-6 0-11-5-11-11v-359c0-6 5-10 11-10h66c6 0 11 4 11 10v359z m62-359c0-40-32-73-73-73h-66c-40 0-73 33-73 73v359c0 40 33 73 73 73h66c41 0 73-33 73-73v-359z m238 492c0 6-5 11-11 11h-66c-6 0-11-5-11-11v-492c0-6 5-10 11-10h66c6 0 11 4 11 10v492z m62-492c0-40-32-73-73-73h-66c-40 0-73 33-73 73v492c0 40 33 73 73 73h66c41 0 73-33 73-73v-492z m238 625c0 6-5 10-11 10h-66c-6 0-11-4-11-10v-625c0-6 5-10 11-10h66c6 0 11 4 11 10v625z m62-625c0-40-32-73-73-73h-66c-40 0-73 33-73 73v625c0 40 33 73 73 73h66c41 0 73-33 73-73v-625z" horiz-adv-x="1000" />

<glyph glyph-name="chat" unicode="&#xe83d;" d="M283 569c-10 0-19-1-27-2-1 0-1 0-2 0-50-4-83-21-105-46-21-25-34-64-34-121v-166c0-81 16-119 39-139 24-21 63-30 129-30h17c11 0 21-3 28-7 8-4 17-10 23-18l0 0 50-67c6-8 12-10 15-10 3 0 9 2 15 10l0 0 50 67c12 16 32 25 52 25h17c56 0 95 13 121 35 25 21 41 55 45 105 0 1 0 1 1 1 1 9 1 18 1 28v166c0 62-15 103-41 128-25 25-66 41-127 41h-267z m-35 60c12 2 24 2 35 2h267c71 0 130-18 171-59 42-41 59-100 59-172v-166c0-12 0-23-1-35-6-61-27-112-68-147-41-34-96-49-161-49h-17c0 0-1 0-1 0 0 0-1-1-1-1l-50-67c0 0 0 0 0 0-16-21-39-34-65-34-26 0-49 13-65 34 0 0 0 0 0 0l-49 66c0 1-1 1-2 1 0 1-1 1-1 1h-16c-67 0-128 8-170 45-44 38-61 100-61 186v166c0 66 15 121 50 162 34 41 85 62 146 67z m41 2h261c71 0 130-18 171-59 42-41 59-100 59-172v-161c32 8 54 22 70 40 22 26 35 65 35 121v167c0 62-16 102-41 128-26 25-66 40-128 40h-266c-57 0-96-13-121-34-19-16-33-39-40-70z m-1 117c41 35 96 50 162 50h266c72 0 131-18 172-59 41-41 59-101 59-172v-167c0-65-15-121-49-161-35-41-86-62-148-68-9 0-18 3-25 10-7 7-10 16-8 25 1 9 1 18 1 28v166c0 62-15 103-41 128-25 25-66 41-127 41h-267c-10 0-19-1-27-2-10-1-19 2-26 9-7 6-10 16-9 25 5 62 26 113 67 147z m233-450c0 23 18 42 41 42h1c23 0 41-19 41-42 0-23-18-42-41-42h-1c-23 0-41 19-41 42z m-146 0c0 23 19 42 42 42h0c23 0 42-19 42-42 0-23-19-42-42-42h0c-23 0-42 19-42 42z m-146 0c0 23 19 42 42 42h0c23 0 42-19 42-42 0-23-19-42-42-42h0c-23 0-42 19-42 42z" horiz-adv-x="1000" />

<glyph glyph-name="check" unicode="&#xe83e;" d="M803 550c12-12 13-32 1-45l-362-375c-5-6-14-9-22-9-9 0-17 3-23 9l-180 188c-12 12-11 32 1 44 12 12 32 12 44-1l158-164 339 352c12 12 32 13 44 1z" horiz-adv-x="1000" />

<glyph glyph-name="circle-check" unicode="&#xe83f;" d="M52 350c0 246 202 448 448 448 246 0 448-202 448-448 0-246-202-448-448-448-246 0-448 202-448 448z m448 385c-212 0-385-173-385-385 0-212 173-385 385-385 212 0 385 173 385 385 0 212-173 385-385 385z m199-245c12-12 12-32 0-44l-236-236c-12-12-32-12-44 0l-118 118c-12 12-12 32 0 44 12 12 32 12 44 0l96-96 214 214c12 12 32 12 44 0z" horiz-adv-x="1000" />

<glyph glyph-name="circle-close" unicode="&#xe840;" d="M52 350c0 246 202 448 448 448 246 0 448-202 448-448 0-246-202-448-448-448-246 0-448 202-448 448z m448 385c-212 0-385-173-385-385 0-212 173-385 385-385 212 0 385 173 385 385 0 212-173 385-385 385z m140-245c12-12 12-32 0-44l-236-236c-12-12-32-12-44 0-12 12-12 32 0 44l236 236c12 12 32 12 44 0z m-280 0c12 12 32 12 44 0l236-236c12-12 12-32 0-44-12-12-32-12-44 0l-236 236c-12 12-12 32 0 44z" horiz-adv-x="1000" />

<glyph glyph-name="circle-code" unicode="&#xe841;" d="M355 455c13-12 13-32 0-44l-61-61 61-61c13-12 13-32 0-44-12-13-32-13-44 0l-83 83c-12 12-12 32 0 44l83 83c12 13 32 13 44 0z m290 0c12 13 32 13 44 0l83-83c12-12 12-32 0-44l-83-83c-12-13-32-13-44 0-13 12-13 32 0 44l61 61-61 61c-13 12-13 32 0 44z m-145 280c-213 0-385-172-385-385 0-213 172-385 385-385 213 0 385 172 385 385 0 213-172 385-385 385z m-448-385c0 247 201 448 448 448 247 0 448-201 448-448 0-247-201-448-448-448-247 0-448 201-448 448z m502 126c16-7 23-25 16-41l-83-194c-7-16-25-24-41-17-16 7-23 25-16 41l83 194c7 16 25 24 41 17z" horiz-adv-x="1000" />

<glyph glyph-name="circle-info" unicode="&#xe842;" d="M52 340c0 252 206 458 458 458 253 0 459-206 459-458 0-253-206-459-459-459-252 0-458 206-458 459z m458 394c-216 0-394-178-394-394 0-217 178-395 394-395 217 0 395 178 395 395 0 216-178 394-395 394z m0-192c18 0 32-14 32-32v-213c0-18-14-32-32-32-17 0-32 14-32 32v213c0 18 15 32 32 32z m-42-373c0 24 19 43 42 43h1c23 0 42-19 42-43 0-23-19-43-42-43h-1c-23 0-42 20-42 43z" horiz-adv-x="1000" />

<glyph glyph-name="clock" unicode="&#xe843;" d="M885 350c0 213-172 385-385 385-213 0-385-172-385-385 0-213 172-385 385-385 213 0 385 172 385 385z m63 0c0-247-201-448-448-448-247 0-448 201-448 448 0 247 201 448 448 448 247 0 448-201 448-448z m-495 16v171c0 17 14 31 32 31 17 0 31-14 31-31v-171c0-6 2-15 8-25 4-7 9-13 13-16l4-3 0-1 130-77 2-1c13-10 17-28 8-41-8-14-25-19-40-13l-2 2-130 77v0c-17 10-30 26-40 42-9 17-16 36-16 56z" horiz-adv-x="1000" />

<glyph glyph-name="close" unicode="&#xe844;" d="M783 633c11-11 11-28 0-39l-526-527c-11-11-29-11-40 0-11 11-11 29 0 40l527 526c11 11 28 11 39 0z m-566 0c11 11 29 11 40 0l526-526c11-11 11-29 0-40-11-11-28-11-39 0l-527 527c-11 11-11 28 0 39z" horiz-adv-x="1000" />

<glyph glyph-name="cloud" unicode="&#xe845;" d="M621 679c64-38 113-103 134-197 92-21 156-92 181-173 26-88 9-191-70-260-47-43-109-67-173-67h-462c0 0-1 0-2 1-221 15-233 320-36 368-22 86-10 161 25 222 40 68 107 114 180 133 74 19 155 13 223-27z m-349-138c-28-47-38-110-15-186 21-3 41-9 60-19 16-8 22-27 14-42-8-16-27-22-42-14-18 9-37 14-57 14-154-12-154-237 0-249l462 0c48 0 95 18 130 50l1 1c57 50 72 127 51 195-20 65-71 119-143 132-1 0-2 0-2 0-20-1-39-5-57-14-15-8-34-2-41 14-8 15-2 34 13 42 15 7 30 12 45 15-19 72-57 118-102 145-52 30-115 36-175 21-59-16-111-52-142-105z" horiz-adv-x="1000" />

<glyph glyph-name="cloud-check" unicode="&#xe846;" d="M262 389c1-17-12-32-29-33-156-11-156-237-1-249h79c17 0 31-14 31-32 0-17-14-31-31-31h-80c-1 0-2 0-2 0-234 17-234 357 0 374 17 1 32-12 33-29z m10 214c-30-51-40-120-10-206 6-16-2-34-18-40-17-6-35 3-40 19-37 101-26 190 14 259 40 68 107 114 180 133 73 19 154 13 222-27 64-38 114-103 135-197 92-21 155-92 180-173 27-88 9-191-70-261-47-42-108-66-172-66h-4c-17 0-31 14-31 31 0 18 14 32 31 32h4c48-1 95 17 131 50l0 0c58 51 72 127 51 195-20 69-75 124-151 134-14 1-25 12-27 26-15 89-57 145-108 175-52 30-116 36-175 21-59-16-112-53-142-105z m228-265c-98 0-177-79-177-177 0-26 6-50 16-72 0 0 0-1 0-1 3-6 6-12 10-17l0-1c30-51 87-86 151-86 64 0 121 35 151 86l0 1c4 5 7 11 10 17 0 0 0 1 0 1 10 22 16 46 16 72 0 98-79 177-177 177z m-240-177c0 133 108 240 240 240 132 0 240-107 240-240 0-35-8-69-22-99-4-8-9-16-13-24-42-69-118-116-205-116-87 0-163 47-205 116-4 8-9 16-12 24-15 30-23 64-23 99z m328 62c12-12 11-32-2-44l-88-82c-13-11-32-11-44 1l-41 41c-12 12-12 32 0 44 12 13 32 13 44 0l20-20 67 62c12 12 32 11 44-2z" horiz-adv-x="1000" />

<glyph glyph-name="cloud-remove" unicode="&#xe847;" d="M430 226c13 13 32 13 45 0l88-88c12-12 12-32 0-44-13-12-32-12-45 0l-88 88c-12 12-12 32 0 44z m132-1c12-12 12-32 0-44l-89-88c-12-12-32-12-44 0-12 12-12 32 0 44l89 88c12 13 32 13 44 0z m-300 164c1-17-12-32-29-33-156-11-156-237-1-249h79c17 0 31-14 31-32 0-17-14-31-31-31h-80c-1 0-2 0-2 0-234 17-234 357 0 374 17 1 32-12 33-29z m10 214c-30-51-40-120-10-206 6-16-2-34-18-40-17-6-35 3-40 19-37 101-26 190 14 259 40 68 107 114 180 133 73 19 154 13 222-27 64-38 114-103 135-197 92-21 155-92 180-173 27-88 9-191-70-261-47-42-108-66-172-66h-4c-17 0-31 14-31 31 0 18 14 32 31 32h4c48-1 95 17 131 50l0 0c58 51 72 127 51 195-20 69-75 124-151 134-14 1-25 12-27 26-15 89-57 145-108 175-52 30-116 36-175 21-59-16-112-53-142-105z m228-265c-98 0-177-79-177-177 0-26 6-50 16-72 0 0 0-1 0-1 3-6 6-12 10-17l0-1c30-51 87-86 151-86 64 0 121 35 151 86l0 1c4 5 7 11 10 17 0 0 0 1 0 1 10 22 16 46 16 72 0 98-79 177-177 177z m-240-177c0 133 108 240 240 240 132 0 240-107 240-240 0-35-8-69-22-99-4-8-9-16-13-24-42-69-118-116-205-116-87 0-163 47-205 116-4 8-9 16-12 24-15 30-23 64-23 99z" horiz-adv-x="1000" />

<glyph glyph-name="coffee" unicode="&#xe848;" d="M710 414c0 79-65 144-144 144h-307c-80 0-144-64-144-144v-305c0-80 64-144 144-144h307c79 0 144 64 144 144v305z m63-305c0-115-93-207-207-207h-307c-114 0-207 93-207 207v305c0 114 93 206 207 206h307c114 0 207-92 207-206v-305z m-575 574v73c0 18 14 32 31 32 17 0 31-14 31-32v-73c0-17-14-31-31-31-17 0-31 14-31 31z m167 0v73c0 18 14 32 31 32 17 0 31-14 31-32v-73c0-17-14-31-31-31-17 0-31 14-31 31z m166 0v73c0 18 14 32 32 32 17 0 31-14 31-32v-73c0-17-14-31-31-31-18 0-32 14-32 31z m354-381c0 69-48 126-112 140v-281c64 14 112 72 112 141z m63 0c0-111-87-201-196-207l-11 0c-17 0-31 14-31 31v351l0 3c2 16 15 28 31 28 114 0 207-92 207-206z m-218 79l3 0c16-1 28-15 28-31 0-16-12-29-28-31l-3 0h-647c-17 0-31 14-31 31 0 17 14 31 31 31h647z" horiz-adv-x="1000" />

<glyph glyph-name="color" unicode="&#xe849;" d="M403 744c9 0 17-3 22-9l307-307 5-5c21-26 21-63 0-89l-5-6-251-250c-31-31-66-51-105-51-39 0-75 20-106 51l-167 167c-31 31-51 67-51 106 0 39 20 74 51 105l278 279 5 4c5 3 11 5 17 5z m-256-332c-24-24-33-45-33-61 0-17 9-37 33-62l167-167 9-8c21-18 38-24 53-24 16 0 37 8 61 32l251 251 1 1c1 3 1 6 0 9l-1 1-285 284-256-256z m179 379c11 11 29 12 42 2l2-2 56-56 2-2c10-13 9-31-2-42-12-12-30-12-42-2l-2 2-56 56-2 2c-10 12-10 30 2 42z m392-379c16-1 29-14 30-30 0-17-13-32-30-32l-630-28c-18-1-32 13-33 30-1 17 13 32 30 33l630 27h3z m-51-447c17 0 31-14 31-32 0-17-14-31-31-31h-542c-17 0-31 14-31 31 0 18 14 32 31 32h542z m164 125c0 6-2 16-9 29-6 13-14 27-24 40-4 6-8 12-13 17-4-5-8-11-13-17-9-13-17-27-23-40-7-13-9-23-9-29 0-25 20-46 45-46 26 0 46 21 46 46z m63 0c0-60-49-108-109-108-59 0-108 48-108 108 0 20 7 40 15 56 9 17 19 34 29 49 11 14 21 27 28 36 4 5 7 8 10 11 1 1 2 2 2 3 1 0 1 1 1 1 0 0 0 0 0 0l0 0 0 0 3 2c5 5 13 8 20 8 9 0 18-3 23-10l-23-21 23 21v0l1 0c0 0 0 0 0 0 0 0 0-1 1-1 0-1 1-2 2-3 2-3 6-6 9-11 8-9 18-22 29-36 10-15 20-32 29-49 8-16 15-36 15-56z" horiz-adv-x="1000" />

<glyph glyph-name="contact" unicode="&#xe84a;" d="M147 661c-21-21-32-61-32-144v-334c0-83 11-123 32-144 21-21 61-33 145-33h416c84 0 124 12 145 33 21 21 32 61 32 144v334c0 83-11 123-32 144-21 22-61 33-145 33h-416c-84 0-124-11-145-33z m-44 44c41 42 106 51 189 51h416c83 0 148-9 189-51 41-41 51-105 51-188v-334c0-83-10-147-51-188-41-42-106-51-189-51h-416c-83 0-148 9-189 51-41 41-51 105-51 188v334c0 83 10 147 51 188z m449-188c0 17 14 31 31 31h209c17 0 31-14 31-31 0-18-14-32-31-32h-209c-17 0-31 14-31 32z m42-167c0 17 14 31 31 31h167c17 0 31-14 31-31 0-17-14-31-31-31h-167c-17 0-31 14-31 31z m83-167c0 18 14 32 31 32h84c17 0 31-14 31-32 0-17-14-31-31-31h-84c-17 0-31 14-31 31z m-323 316c-24 0-44-20-44-44 0-24 20-44 44-44 25 0 44 20 44 44 0 24-19 44-44 44z m-106-44c0 59 47 107 106 107 59 0 107-48 107-107 0-59-48-107-107-107-59 0-106 48-106 107z m141-141c75-7 135-66 142-141 2-18-11-33-28-34-17-2-32 10-34 28-4 45-40 81-86 85l0 0 0 0c-19 2-38 2-57 0l0 0c-46-5-82-40-87-85-1-18-16-30-34-28-17 1-29 16-28 34 8 75 68 134 143 141 23 2 46 2 69 0z" horiz-adv-x="1000" />

<glyph glyph-name="copy" unicode="&#xe84b;" d="M153 447c-24-24-38-65-38-134v-175c0-70 14-111 38-135 24-24 65-38 135-38h175c69 0 110 14 134 38 24 24 38 65 38 135v175c0 69-14 110-38 134-24 24-65 38-134 38h-175c-70 0-111-14-135-38z m-44 44c41 42 103 57 179 57h175c76 0 137-15 178-57 42-41 57-102 57-178v-175c0-76-15-138-57-179-41-42-102-57-178-57h-175c-76 0-138 15-179 57-42 41-57 103-57 179v175c0 76 15 137 57 178z m294 206c-24-24-38-65-38-134v-15h98c76 0 137-15 178-57 42-41 57-102 57-178v-98h15c69 0 110 14 134 38 24 24 38 65 38 135v175c0 69-14 110-38 134-24 24-65 38-134 38h-175c-70 0-111-14-135-38z m-44 44c41 42 103 57 179 57h175c76 0 137-15 178-57 42-41 57-102 57-178v-175c0-76-15-138-57-179-41-42-102-57-178-57h-46c-18 0-32 14-32 31v130c0 69-14 110-38 134-24 24-65 38-134 38h-130c-17 0-31 14-31 32v46c0 76 15 137 57 178z" horiz-adv-x="1000" />

<glyph glyph-name="copyright" unicode="&#xe84c;" d="M500 735c-213 0-385-172-385-385 0-213 172-385 385-385 213 0 385 172 385 385 0 213-172 385-385 385z m-448-385c0 247 201 448 448 448 247 0 448-201 448-448 0-247-201-448-448-448-247 0-448 201-448 448z m458 135c-75 0-135-60-135-135 0-75 60-135 135-135 34 0 65 12 89 34 13 11 33 10 45-3 11-13 10-33-3-44-35-31-81-50-131-50-109 0-198 89-198 198 0 109 89 198 198 198 50 0 96-19 131-49 13-12 14-32 3-45-12-13-32-14-45-2-24 21-55 33-89 33z" horiz-adv-x="1000" />

<glyph glyph-name="cpu" unicode="&#xe84d;" d="M802 450c0 80-16 128-45 157-27 27-71 43-142 45l-15 0h-200c-80 0-128-16-157-45-29-29-45-77-45-157v-200l0-15c2-71 18-115 45-142 29-29 77-45 157-45h200c80 0 128 16 157 45 29 29 45 77 45 157v200z m63-200c0-86-17-155-64-201-46-46-115-64-201-64h-200c-86 0-155 18-201 64-44 43-61 106-63 185l-1 16v200c0 86 18 155 64 201 46 47 115 64 201 64h200l16-1c79-2 142-19 185-63 47-46 64-115 64-201v-200z m-188 163c0 49-10 75-25 89-14 15-40 25-89 25h-125c-49 0-76-10-90-25-15-14-25-40-25-89v-125c0-49 10-76 25-90 14-15 41-25 90-25h125c49 0 75 10 89 25 15 14 25 41 25 90v125z m63-125c0-56-11-102-43-135-33-32-79-43-134-43h-125c-56 0-102 11-135 43-32 33-43 79-43 135v125c0 55 11 101 43 134 33 32 79 43 135 43h125c55 0 101-11 134-43 32-33 43-79 43-134v-125z m-437 395v84c0 17 14 31 31 31 17 0 31-14 31-31v-84c0-17-14-31-31-31-17 0-31 14-31 31z m166 0v84c0 17 14 31 31 31 17 0 31-14 31-31v-84c0-17-14-31-31-31-17 0-31 14-31 31z m166 0v84c0 17 14 31 32 31 17 0 31-14 31-31v-84c0-17-14-31-31-31-18 0-32 14-32 31z m282-135c17 0 31-14 31-31 0-18-14-32-31-32h-84c-17 0-31 14-31 32 0 17 14 31 31 31h84z m0-167c17 0 31-14 31-31 0-17-14-31-31-31h-84c-17 0-31 14-31 31 0 17 14 31 31 31h84z m0-166c17 0 31-14 31-32 0-17-14-31-31-31h-84c-17 0-31 14-31 31 0 18 14 32 31 32h84z m-282-282v84c0 17 14 31 32 31 17 0 31-14 31-31v-84c0-17-14-31-31-31-18 0-32 14-32 31z m-166 0v84c0 17 14 31 31 31 18 0 32-14 32-31v-84c0-17-14-31-32-31-17 0-31 14-31 31z m-166 0v84c0 17 14 31 31 31 17 0 31-14 31-31v-84c0-17-14-31-31-31-17 0-31 14-31 31z m-136 615c17 0 31-14 31-31 0-18-14-32-31-32h-84c-17 0-31 14-31 32 0 17 14 31 31 31h84z m0-167c17 0 31-14 31-31 0-17-14-31-31-31h-84c-17 0-31 14-31 31 0 17 14 31 31 31h84z m0-166c17 0 31-14 31-32 0-17-14-31-31-31h-84c-17 0-31 14-31 31 0 18 14 32 31 32h84z" horiz-adv-x="1000" />

<glyph glyph-name="crown" unicode="&#xe84e;" d="M500 624l-134-134c-41-42-107-41-148 0l-72 72v-349c0-80 65-146 146-146h416c49 0 84 16 107 39 23 23 39 58 39 107v349l-72-72c-41-42-107-41-147 0l-135 134z m238-90l107 108c40 39 72 26 72-30v-399c0-125-84-209-209-209h-416c-115 1-209 94-209 209v399c0 56 32 69 72 30l108-108c16-16 42-16 58 0l149 149c17 17 43 17 59 0l150-149c16-16 43-16 59 0z" horiz-adv-x="1000" />

<glyph glyph-name="danger" unicode="&#xe84f;" d="M885 471c0 9-2 22-8 35-4 10-9 19-14 26l-5 5-171 171c-6 6-17 13-31 19-10 4-20 7-28 8l-7 0h-242c-9 0-21-2-35-8-10-4-19-9-25-14l-6-5-171-171c-6-6-13-17-19-31-6-13-8-26-8-35v-242l0-7c1-8 4-18 8-28 6-14 13-25 19-31l171-171 6-5c6-5 15-10 25-14 14-6 26-8 35-8h242c9 0 22 2 35 8 14 6 25 13 31 19l171 171 5 6c5 6 10 15 14 25 6 14 8 26 8 35v242z m63-242c0-19-6-41-13-59-7-16-16-33-28-46l-5-5-171-171c-13-14-32-25-51-33-18-7-40-13-59-13h-242c-19 0-41 6-59 13-16 7-33 16-46 28l-5 5-171 171c-14 14-25 32-33 51-6 16-11 34-13 52l0 7v242c0 19 6 41 13 59 8 19 19 38 33 51l171 171 5 5c13 12 30 21 46 28 18 7 40 13 59 13h242l7 0c18-1 36-7 52-13 19-8 38-19 51-33l171-171 5-5c12-13 21-30 28-46 7-18 13-40 13-59v-242z m-324 289c12 12 32 12 44 0 12-12 12-32 0-44l-292-292c-12-12-32-12-44 0-12 12-12 32 0 44l292 292z m-292 0c12 11 30 12 42 2l2-2 292-292 2-2c10-12 9-30-2-42-11-11-30-12-42-2l-2 2-292 292-2 2c-10 12-9 31 2 42z" horiz-adv-x="1000" />

<glyph glyph-name="danger-1" unicode="&#xe850;" d="M885 471c0 9-2 22-8 35-4 10-9 19-14 26l-5 5-171 171c-6 6-17 13-31 19-13 6-26 8-35 8h-242c-9 0-21-2-35-8-10-4-19-9-25-14l-6-5-171-171c-6-6-13-17-19-31-6-13-8-26-8-35v-242c0-9 2-21 8-35 6-14 13-25 19-31l171-171 6-5c6-5 15-10 25-14 14-6 26-8 35-8h242c9 0 22 2 35 8 14 6 25 13 31 19l171 171 5 6c5 6 10 15 14 25 6 14 8 26 8 35v242z m63-242c0-19-6-41-13-59-7-16-16-33-28-46l-5-5-171-171c-13-14-32-25-51-33-18-7-40-13-59-13h-242c-19 0-41 6-59 13-16 7-33 16-46 28l-5 5-171 171c-14 14-25 32-33 51-7 18-13 40-13 59v242c0 19 6 41 13 59 8 19 19 38 33 51l171 171 5 5c13 12 30 21 46 28 18 7 40 13 59 13h242c19 0 41-6 59-13 19-8 38-19 51-33l171-171 5-5c12-13 21-30 28-46 7-18 13-40 13-59v-242z m-175 437c12 13 32 13 44 0 12-12 12-32 0-44l-589-589c-12-12-32-12-44 0-12 12-12 32 0 44l589 589z" horiz-adv-x="1000" />

<glyph glyph-name="data" unicode="&#xe851;" d="M885 350c0 29-23 52-52 52-28 0-52-23-52-52 0-29 24-52 52-52 29 0 52 23 52 52z m63 0c0-63-51-115-115-115-63 0-114 52-114 115 0 63 51 115 114 115 64 0 115-52 115-115z m-63 333c0 29-23 52-52 52-28 0-52-23-52-52 0-28 24-52 52-52 29 0 52 24 52 52z m63 0c0-63-51-114-115-114-63 0-114 51-114 114 0 64 51 115 114 115 64 0 115-51 115-115z m-63-666c0 28-23 52-52 52-28 0-52-24-52-52 0-29 24-52 52-52 29 0 52 23 52 52z m63 0c0-64-51-115-115-115-63 0-114 51-114 115 0 63 51 114 114 114 64 0 115-51 115-114z m-729 333c0 29-24 52-52 52-29 0-52-23-52-52 0-29 23-52 52-52 28 0 52 23 52 52z m62 0c0-63-51-115-114-115-64 0-115 52-115 115 0 63 51 115 115 115 63 0 114-52 114-115z m469 31c17 0 31-14 31-31 0-17-14-31-31-31h-500c-17 0-31 14-31 31 0 17 14 31 31 31h500z m-323-239v416c0 47 12 87 41 116 28 29 69 41 115 41h167c17 0 31-14 31-32 0-17-14-31-31-31h-167c-36 0-58-9-71-22-13-13-22-35-22-72v-416c0-37 9-59 22-72 13-13 35-22 71-22h167c17 0 31-14 31-31 0-18-14-32-31-32h-167c-46 0-87 12-115 41-29 29-41 69-41 116z" horiz-adv-x="1000" />

<glyph glyph-name="database" unicode="&#xe852;" d="M229 354c17 0 31-14 31-31 0-107 101-192 240-192 139 0 240 85 240 192 0 17 14 31 31 31 17 0 31-14 31-31v-154c0-151-139-267-302-267-163 0-302 116-302 267v154c0 17 14 31 31 31z m32-189c2-107 104-200 239-200 135 0 237 93 240 200-57-61-145-96-240-96-95 0-183 35-239 96z m239 570c-68 0-128-23-171-61l0 0c-43-37-69-88-69-143 0-32 9-61 25-86l0 0c37-62 118-105 215-105 97 0 178 43 215 105l0 0c16 25 25 54 25 86 0 55-26 106-69 143-43 38-103 61-171 61z m-212-14c55 48 130 77 212 77 82 0 157-29 212-76l0-1 0 0c55-48 90-114 90-190 0-43-12-84-33-119-52-84-155-135-269-135-114 0-217 51-269 135-21 35-33 76-33 119 0 75 35 142 90 190m212 14c-137 0-240-95-240-204v-208c0-107 101-192 240-192 139 0 240 85 240 192v208c0 55-26 106-69 143-43 38-103 61-171 61z m-302-204c0 152 139 267 302 267 82 0 157-29 212-76l0-1 0 0c55-48 90-114 90-190v-208c0-153-142-254-302-254-160 0-302 101-302 254v208z" horiz-adv-x="1000" />

<glyph glyph-name="delivery" unicode="&#xe853;" d="M77 697c34 60 99 101 173 101h375c17 0 31-14 31-31v-417c0-63-51-115-114-115h-42c-17 0-31 14-31 32 0 17 14 31 31 31h42c28 0 52 23 52 52v385h-344c-51 0-95-28-118-69-8-15-28-20-43-12-15 8-20 27-12 43z m517-55c0 17 14 31 31 31h77c41 0 79-22 99-58l0 0 0 0 72-124c5-10 5-22-1-32-5-9-15-15-27-15h-53c-6 0-11-5-11-11v-125c0-5 5-10 11-10h125c17 0 31-14 31-31v-125c0-87-70-157-156-157h-42c-17 0-31 14-31 32 0 28-24 52-52 52-29 0-52-24-52-52 0-18-14-32-32-32h-166c-18 0-32 14-32 32 0 28-23 52-52 52-28 0-52-24-52-52 0-18-14-32-31-32h-42c-86 0-156 70-156 157 0 17 14 31 31 31 18 0 32-14 32-31 0-52 41-94 93-94h15c14 48 58 83 110 83 53 0 97-35 111-83h112c14 48 58 83 111 83 52 0 96-35 110-83h15c52 0 93 42 93 94v93h-93c-40 0-73 33-73 73v125c0 41 32 73 73 73l-45 78c0 0 0 0 0 0-9 16-27 26-45 26h-46v-260c0-63-51-115-114-115h-42c-17 0-31 14-31 32 0 17 14 31 31 31h42c28 0 52 23 52 52v292z m-261-573c-28 0-52-24-52-52 0-29 24-52 52-52 29 0 52 23 52 52 0 28-23 52-52 52z m-114-52c0 63 51 114 114 114 64 0 115-51 115-114 0-64-51-115-115-115-63 0-114 51-114 115z m448 52c-29 0-52-24-52-52 0-29 23-52 52-52 28 0 52 23 52 52 0 28-24 52-52 52z m-115-52c0 63 51 114 115 114 63 0 114-51 114-114 0-64-51-115-114-115-64 0-115 51-115 115z m240 427c-6 0-11-5-11-11v-125c0-5 5-10 11-10h93v44l-58 102h-35z m-73-11c0 41 33 73 73 73h53c12 0 22-6 28-15l71-125c3-5 4-11 4-16v-83c0-18-14-32-31-32h-125c-40 0-73 33-73 73v125z m-667 84c0 17 14 31 31 31h250c18 0 32-14 32-31 0-18-14-32-32-32h-250c-17 0-31 14-31 32z m0-125c0 17 14 31 31 31h167c17 0 31-14 31-31 0-18-14-32-31-32h-167c-17 0-31 14-31 32z m0-125c0 17 14 31 31 31h84c17 0 31-14 31-31 0-18-14-32-31-32h-84c-17 0-31 14-31 32z" horiz-adv-x="1000" />

<glyph glyph-name="direction" unicode="&#xe854;" d="M375 184v75c0 113 91 205 205 205h75l3 0c15-2 26-14 26-29 0-15-11-27-26-29l-3 0h-75c-82 0-147-66-147-147v-75c0-16-13-29-29-29-16 0-29 13-29 29z m190 340c11 11 27 12 39 2l2-2 69-69c11-11 11-29 0-41l-69-69c-11-11-30-11-41 0-11 11-11 30 0 41l49 49-49 49-2 2c-9 11-9 28 2 38z m268-344c66 66 94 120 94 170 0 50-28 104-94 170l-163 163c-66 66-120 94-170 94-50 0-104-28-170-94l-163-163c-66-66-94-120-94-170 0-50 28-104 94-170l163-163c66-66 120-94 170-94 50 0 104 28 170 94l163 163z m-122-204c-70-70-138-110-211-110-73 0-141 40-211 110l-163 163c-70 70-110 138-110 211 0 73 40 141 110 211l163 163c70 70 138 110 211 110 73 0 141-40 211-110l163-163c70-70 110-138 110-211 0-73-40-141-110-211l-163-163z" horiz-adv-x="1000" />

<glyph glyph-name="direction-1" unicode="&#xe855;" d="M475 222v82c0 122 99 221 221 221h82l3 0c16-1 28-15 28-31 0-16-12-29-28-31l-3 0h-82c-88 0-159-71-159-159v-82c0-17-14-31-31-31-17 0-31 14-31 31z m0-91v172c0 88-71 160-159 160h-82c-17 0-31 14-31 31 0 17 14 31 31 31h82c122 0 222-99 222-222v-172c0-17-14-31-32-31-17 0-31 14-31 31z m-200 460c13 12 32 12 45 0 12-12 12-32 0-44l-53-53 53-53 2-2c10-13 9-31-2-42-12-12-30-12-42-2l-3 2-75 75c-12 12-12 32 0 44l75 75z m405 0c12 11 30 12 42 2l3-2 75-75c12-12 12-32 0-44l-75-75c-13-12-32-12-45 0-12 12-12 32 0 44l53 53-53 53-2 2c-10 12-9 30 2 42z m205-116c0 101-20 164-58 202-38 38-101 58-202 58h-250c-101 0-164-20-202-58-38-38-58-101-58-202v-250c0-101 20-164 58-202 38-38 101-58 202-58h250c101 0 164 20 202 58 38 38 58 101 58 202v250z m63-250c0-107-21-190-77-246-56-56-139-77-246-77h-250c-107 0-190 21-246 77-56 56-77 139-77 246v250c0 107 21 191 77 246 56 56 139 77 246 77h250c107 0 190-21 246-77 56-55 77-139 77-246v-250z" horiz-adv-x="1000" />

<glyph glyph-name="discover" unicode="&#xe856;" d="M747 796c64 13 122 0 161-38 38-39 51-97 38-161l-3-13-104-414c-9-37-32-72-60-100-24-24-54-44-86-55l-13-4-414-104c-70-17-133-6-174 35-41 41-52 105-35 174h0l104 414c9 37 32 72 60 100 24 24 54 44 86 55l13 4 414 104h0l13 3z m-74-722c21 7 43 21 62 40 22 22 38 48 43 71v0l104 414 3 11c10 50-2 84-21 104-20 19-54 31-104 21l-11-3-413-104h-1c-23-5-49-21-70-43-22-21-38-47-43-70l0 0-104-414 0 0c-14-56-2-94 18-115 21-20 59-32 115-18l414 103 8 3z m-58 276c0 63-52 115-115 115-63 0-115-52-115-115 0-63 52-115 115-115 63 0 115 52 115 115z m62 0c0-98-79-177-177-177-98 0-177 79-177 177 0 98 79 177 177 177 98 0 177-79 177-177z" horiz-adv-x="1000" />

<glyph glyph-name="dislike" unicode="&#xe857;" d="M231 740c26 19 58 31 91 31h158c16 0 34-3 51-8 16-4 35-12 49-25l128-99-39-49-130 101-2 2c-3 2-10 7-23 10-12 4-24 5-34 5h-158c-18 0-37-6-54-19-17-12-28-28-33-44l0-2-100-305-1-1c-7-20-3-36 5-47 7-10 22-19 45-19h167c43 0 79-37 72-86l0 0-21-135 0 0c-4-21 10-48 34-56l0 0 1 0c8-3 19-3 31 1 11 4 20 10 24 16l0 0 170 254 52-34-170-255c0 0 0 0 0 0-13-19-34-33-56-40-22-8-48-10-73-1-50 17-85 73-74 127l21 132c0 6-1 9-3 11-2 2-4 3-8 3h-167c-39 0-74 16-96 45-21 29-26 67-13 105l100 303c9 33 30 60 56 79z m503-87c-5-4-10-13-10-38v-409c0-25 5-34 10-38 4-5 15-10 42-10h42c26 0 37 5 42 10 4 4 10 13 10 38v409c0 25-6 34-10 38-5 4-16 10-42 10h-42c-27 0-38-6-42-10z m-43 46c23 21 53 26 85 26h42c31 0 62-5 84-26 23-21 30-52 30-84v-409c0-32-7-63-30-84-22-21-53-26-84-26h-42c-32 0-62 5-85 26-23 21-30 52-30 84v409c0 32 7 63 30 84z" horiz-adv-x="1000" />

<glyph glyph-name="docs" unicode="&#xe858;" d="M272-79l-50 0 0 221 50 0 0-221z m-26 220c15 3 45-1 60-4 15-4 29-11 41-21 12-11 22-23 29-38 6-14 10-30 10-46 0-16-3-32-9-47-6-14-16-27-28-38-11-10-25-18-40-22-15-4-39-5-54-2l15 38c10-2 20-2 29 1 10 3 19 8 26 15 8 6 14 15 18 24 4 10 6 20 6 30 0 11-2 21-7 30-4 10-10 18-18 24-8 7-17 12-27 14-9 3-19 3-29 1l-22 41z m315-110c0 42-27 60-42 60-15 0-43-18-43-60 0-43 28-61 43-61v-51l-10 1c-43 5-78 47-83 99l0 12c0 61 41 111 93 111l9-1c47-6 83-53 83-110l0-12c-5-56-44-100-92-100v51c15 0 42 18 42 61z m87 0c0 22 6 43 16 61 9 16 21 29 35 38l6 3c17 9 36 11 54 7 18-5 34-15 47-31l-32-39c-7 8-15 14-24 16-9 2-19 1-27-3-9-5-16-12-21-21-5-9-8-20-8-31l0-9c1-8 4-16 8-23 5-9 12-16 21-20 6-4 13-5 20-5l7 1c9 2 17 8 24 16l32-39c-13-16-29-26-47-30l-7-2c-13-2-27 0-40 5l-7 3c-17 8-31 22-41 41-9 16-14 34-16 53l0 9z m18 678l8-8 177-181 8-7v-288h-51v267l-163 166h-411v-433h-51v484h483z m-25-171v145h51v-145c0-10 7-17 16-17h105v-50h-105c-37 0-67 30-67 67z" horiz-adv-x="1000" />

<glyph glyph-name="dollar" unicode="&#xe859;" d="M302 225c0 17 14 31 31 31 18 0 32-14 32-31 0-56 39-94 79-94h126c33 0 65 32 65 78 0 29-5 44-12 52-6 9-16 16-33 22v0l-202 75 0 0c-22 9-45 21-62 44-16 23-24 52-24 89 0 74 54 140 128 140h126c82 0 142-73 142-156 0-17-14-31-31-31-18 0-32 14-32 31 0 56-38 94-79 94h-126c-33 0-65-32-65-78 0-29 5-43 12-52 6-9 16-16 33-22h0l202-75 0 0 8-4c20-8 39-20 54-40 17-23 24-52 24-89 0-74-54-140-128-140h-126c-82 0-142 73-142 156z m167-208v666c0 18 14 32 31 32 18 0 32-14 32-32v-666c0-18-14-32-32-32-17 0-31 14-31 32z" horiz-adv-x="1000" />

<glyph glyph-name="dollar-circle" unicode="&#xe85a;" d="M442 513c-26 0-49-23-49-53 0-21 4-31 8-36 4-5 12-10 26-15l168-59c18-6 39-16 54-35 15-20 22-45 22-75 0-62-49-115-113-115h-104c-70 0-124 58-124 128 0 17 14 31 31 31 18 0 32-14 32-31 0-38 28-66 61-66h104c26 0 50 23 50 53 0 21-4 31-8 36-5 6-12 10-26 15l-168 59c-19 6-39 16-54 35-15 20-22 45-22 75 0 62 49 115 112 115h105c70 0 124-58 124-128 0-17-14-31-32-31-17 0-31 14-31 31 0 38-29 66-61 66h-105z m58 118c17 0 31-14 31-31v-500c0-17-14-31-31-31-17 0-31 14-31 31v500c0 17 14 31 31 31z m0 104c-213 0-385-172-385-385 0-213 172-385 385-385 213 0 385 172 385 385 0 213-172 385-385 385z m-448-385c0 247 201 448 448 448 247 0 448-201 448-448 0-247-201-448-448-448-247 0-448 201-448 448z" horiz-adv-x="1000" />

<glyph glyph-name="dollar-square" unicode="&#xe85b;" d="M442 513c-26 0-49-23-49-53 0-21 4-31 8-36 4-5 12-10 26-15l168-59c18-6 39-16 54-35 15-20 22-45 22-75 0-62-49-115-113-115h-104c-70 0-124 58-124 128 0 17 14 31 31 31 18 0 32-14 32-31 0-38 28-66 61-66h104c26 0 50 23 50 53 0 21-4 31-8 36-5 6-12 10-26 15l-168 59c-19 6-39 16-54 35-15 20-22 45-22 75 0 62 49 115 112 115h105c70 0 124-58 124-128 0-17-14-31-32-31-17 0-31 14-31 31 0 38-29 66-61 66h-105z m58 118c17 0 31-14 31-31v-500c0-17-14-31-31-31-17 0-31 14-31 31v500c0 17 14 31 31 31z m-327 46c-38-38-58-101-58-202v-250c0-101 20-164 58-202 38-38 101-58 202-58h250c101 0 164 20 202 58 38 38 58 101 58 202v250c0 101-20 164-58 202-38 38-101 58-202 58h-250c-101 0-164-20-202-58z m-44 44c56 56 139 77 246 77h250c107 0 191-21 246-77 56-55 77-139 77-246v-250c0-107-21-190-77-246-55-56-139-77-246-77h-250c-107 0-190 21-246 77-56 56-77 139-77 246v250c0 107 21 191 77 246z" horiz-adv-x="1000" />

<glyph glyph-name="download" unicode="&#xe85c;" d="M654 482c1 17 17 30 34 28 79-7 142-31 183-82 41-50 57-120 57-208v-5c0-96-20-172-70-222-51-51-126-70-223-70h-271c-96 0-171 19-222 70-51 50-70 126-70 222v5c0 87 16 157 56 207 40 51 102 76 180 83 18 2 33-11 34-28 2-17-11-33-28-34-69-7-111-27-138-60-27-34-41-87-41-168v-5c0-90 18-145 51-178 33-33 88-52 178-52h271c90 0 145 19 179 52 33 33 51 88 51 178v5c0 82-15 135-42 169-27 33-70 53-141 59-17 2-30 17-28 34z m-154 316c17 0 31-14 31-31v-537c0-17-14-31-31-31-17 0-31 14-31 31v537c0 17 14 31 31 31z m-162-453c13 12 32 12 45 0l117-117 118 117c12 12 32 12 44 0 12-12 12-32 0-44l-140-140c-12-12-32-12-44 0l-140 140c-12 12-12 32 0 44z" horiz-adv-x="1000" />

<glyph glyph-name="edit" unicode="&#xe85d;" d="M647 790c48 6 97-14 147-61l0 0c51-47 73-95 70-144-3-47-31-88-62-121m0 0l-342-361c-10-11-23-20-35-26-12-7-27-13-40-15l-1 0-134-23c-32-6-63 2-86 23-22 21-32 52-28 85l0 0 16 136c1 13 6 28 12 40 6 13 14 26 24 36l0 0 342 363c31 33 70 62 117 68m-72-111c0 0 0 0 0 0l-342-362c0 0 0 0 0 0-3-4-8-11-12-20-4-9-7-17-7-23l-16-134c0 0 0 0 0 0-2-16 3-26 9-32 6-6 17-10 33-8l0 0 134 23c5 1 13 4 22 9 8 4 15 9 18 13l0 0 343 362c27 30 43 57 45 82 1 24-9 55-50 95-42 39-74 47-97 44-26-3-52-20-80-49z m-84-8c17 2 33-10 35-27 16-100 98-178 200-188 17-2 29-17 28-34-2-17-17-30-35-28-129 13-234 112-254 241-3 17 9 33 26 36z m-397-738c0 18 14 32 31 32h750c17 0 31-14 31-32 0-17-14-31-31-31h-750c-17 0-31 14-31 31z" horiz-adv-x="1000" />

<glyph glyph-name="export" unicode="&#xe85e;" d="M905 755c13-12 13-32 0-44l-341-341c-12-13-32-13-44 0-13 12-13 32 0 44l341 341c12 13 32 13 44 0z m-220 12c0 17 14 31 32 31h200c17 0 31-14 31-31v-200c0-18-14-32-31-32-18 0-32 14-32 32v168h-168c-18 0-32 14-32 32z m-556-46c56 56 139 77 246 77h83c18 0 32-14 32-31 0-18-14-32-32-32h-83c-101 0-164-20-202-58-38-38-58-101-58-202v-250c0-101 20-164 58-202 38-38 101-58 202-58h250c101 0 164 20 202 58 38 38 58 101 58 202v83c0 18 14 32 32 32 17 0 31-14 31-32v-83c0-107-21-190-77-246-55-56-139-77-246-77h-250c-107 0-190 21-246 77-56 56-77 139-77 246v250c0 107 21 191 77 246z" horiz-adv-x="1000" />

<glyph glyph-name="eye" unicode="&#xe85f;" d="M500 454c-62 0-112-46-112-104 0-58 50-105 112-105 62 0 112 47 112 105 0 58-50 104-112 104z m-171-104c0 88 76 160 171 160 95 0 171-72 171-160 0-89-76-160-171-160-95 0-171 71-171 160z m-214 111c94 139 233 222 385 222 152 0 291-83 385-222 22-32 32-72 32-111 0-39-10-79-32-111-94-138-233-222-385-222-152 0-291 84-385 222-22 32-32 72-32 111 0 39 10 79 32 111z m385 167c-127 0-249-70-335-197l0 0c-14-21-22-50-22-81 0-31 8-60 22-81l0 0c86-127 208-197 335-197 127 0 249 70 335 197l0 0c14 21 22 50 22 81 0 31-8 60-22 81l0 0c-86 127-208 197-335 197z" horiz-adv-x="1000" />

<glyph glyph-name="eye-slash" unicode="&#xe860;" d="M500 449c-55 0-99-44-99-99 0-18 5-34 13-49l135 135c-15 8-31 13-49 13z m-151-99c0 84 68 151 151 151 42 0 79-17 107-44 10-10 10-27 0-37l-177-177c-10-10-26-10-37 0-27 28-44 65-44 107z m-189 104c84 132 206 211 340 211 79 0 154-28 219-77 11-8 14-25 5-36-9-12-25-14-37-6-57 43-121 66-187 66-112 0-219-66-296-186l0 0c-12-19-19-47-19-76 0-29 7-57 19-77l0 0c27-41 57-76 90-104 11-10 12-26 3-37-10-11-26-12-37-3-37 32-71 71-100 116-19 30-27 68-27 105 0 36 8 75 27 104z m604 58c12 9 28 8 37-4 14-16 27-34 39-53 19-30 28-68 28-105 0-36-9-75-28-104-83-131-206-211-340-211-47 0-92 10-135 28-13 6-20 21-14 35 6 13 21 19 34 13 37-15 76-23 115-23 112 0 219 66 296 186l0 0c12 19 19 47 19 76 0 30-7 57-19 77l0 0c-11 17-23 33-36 49-9 11-7 27 4 36z m-137-161c14-2 24-16 21-30-11-60-59-108-119-119-14-3-28 6-31 21-2 14 7 27 21 30 39 7 71 39 78 77 2 15 16 24 30 21z m-197-71c11-10 11-26 0-37l-260-260c-11-11-27-11-37 0-11 10-11 26 0 37l260 260c11 11 27 11 37 0z m437 437c11-10 11-26 0-37l-260-260c-10-10-27-10-37 0-10 10-10 27 0 37l260 260c11 11 27 11 37 0z" horiz-adv-x="1000" />

<glyph glyph-name="facebook" unicode="&#xe861;" d="M490 306h-84v-41h84v-300h62v304h108l9 41h-117v153c0 9 2 21 12 31 10 10 23 12 32 12h81v63h-94c-53 0-93-40-93-94v-169z m250 182c0-9-3-22-13-32-10-10-22-12-31-12h-81v-71h77c16 0 28-9 35-19 6-10 8-20 8-29v-3l0-3-17-80c-1-8-5-13-8-17-4-4-8-7-11-9-5-3-14-7-24-7h-60v-304h-188v300h-39c-9 0-22 2-32 12-10 10-12 23-12 32v79c0 9 2 22 12 32 10 10 23 12 32 12h39v106c0 88 68 156 156 156h113c9 0 21-2 31-12 10-10 13-22 13-31v-100z m145-13c0 101-20 164-58 202-38 38-101 58-202 58h-250c-101 0-164-20-202-58-38-38-58-101-58-202v-250c0-101 20-164 58-202 38-38 101-58 202-58h250c101 0 164 20 202 58 38 38 58 101 58 202v250z m63-250c0-107-21-190-77-246-56-56-139-77-246-77h-250c-107 0-190 21-246 77-56 56-77 139-77 246v250c0 107 21 191 77 246 56 56 139 77 246 77h250c107 0 190-21 246-77 56-55 77-139 77-246v-250z" horiz-adv-x="1000" />

<glyph glyph-name="filter" unicode="&#xe862;" d="M225 731c-28 0-52-22-52-56v-96c0-6 2-17 8-30 6-13 13-24 20-31l1-1 158-166c1-1 1-2 2-2 11-13 20-31 27-49 8-18 13-38 13-58v-221c0-41 47-66 81-45l58 38c1 0 1 0 1 0 4 3 10 9 15 19 5 9 8 19 8 25v180c0 21 5 44 14 64 8 21 21 41 38 55l178 157c7 8 15 20 22 34 7 15 10 29 10 40v91c0 29-23 52-52 52h-550z m-115-56c0 66 51 119 115 119h550c63 0 115-52 115-115v-91c0-23-7-46-16-66-9-20-22-39-35-52-1-1-1-1-2-2l-179-158c0 0 0 0 0-1-8-6-16-17-22-31-6-14-9-29-9-40v-180c0-18-6-38-14-54-9-16-21-33-38-43l-58-37-1-1c-73-45-176 5-176 98v221c0 9-3 22-9 35-5 13-11 24-17 32l-157 165c-14 14-25 32-33 49-8 18-14 38-14 56v96z m362 114c15-9 19-28 10-43l-205-329c-10-15-29-19-43-10-15 9-20 28-10 43l205 329c9 15 28 19 43 10z" horiz-adv-x="1000" />

<glyph glyph-name="fire" unicode="&#xe863;" d="M666 463c11 4 23 1 31-7 75-73 113-144 125-210 12-67-4-126-29-174-45-84-123-142-146-158-3-2-5-4-6-5-6-4-13-7-20-7h-4c-7 0-14 2-20 7-1 1-2 2-4 3-15 12-62 47-94 98-17 29-31 64-31 105 1 41 15 85 49 129 62 83 94 133 111 163 8 15 13 24 15 29 1 3 2 4 2 5 0 0 0 0 0 0 2 10 10 19 21 22z m18-84c-1-1-1-2-2-3-18-32-52-86-115-170l0 0 0 0c-27-35-36-65-36-91 0-26 8-51 22-73 19-32 47-56 66-71 30 23 85 67 119 130 20 39 31 84 23 134-8 42-30 90-77 144z m-212 417c17 3 36-2 50-16 1-1 2-2 3-3 41-55 81-149 81-252 0-42-16-80-37-115-18-29-41-59-63-87-4-5-7-10-11-14-52-69-94-130-89-198 6-56 30-98 46-128l1-1c4-7 8-14 11-21 2-3 4-7 5-12 1-5 2-12-1-21-3-11-11-18-19-22-7-3-15-4-19-4-9 0-19 3-30 5l0 0c-83 24-162 96-200 189-38 94-34 210 50 319 118 155 167 284 182 343 6 21 22 34 40 38z m15-74c-22-71-75-198-187-345l0 0 0 0c-70-91-72-183-42-258 26-62 73-112 124-138-15 31-33 73-38 124l0 1c-7 95 51 175 102 241 3 5 7 10 11 15 22 28 42 55 58 81 19 30 29 57 29 82 0 78-27 150-57 197z" horiz-adv-x="1000" />

<glyph glyph-name="flag" unicode="&#xe864;" d="M183-67v834c0 17 14 31 32 31 17 0 31-14 31-31v-834c0-17-14-31-31-31-18 0-32 14-32 31z m498 782c31 0 58-5 80-14 22-9 41-24 50-47 9-22 7-46-2-69-8-19-22-38-39-57l-8-8-50-50c-21-21-20-51-5-68l3-3 2-2 50-50c41-41 67-90 48-135-19-44-72-60-129-60h-466c-18 0-32 14-32 31 0 18 14 32 32 32h466c52 0 68 15 71 22 3 6 4 28-34 66l-50 50c-47 42-45 117 0 161l50 50 6 6c14 16 23 29 27 39 5 12 4 18 2 21-1 3-4 9-16 14-12 5-30 8-56 8h-466c-18 0-32 14-32 31 0 18 14 32 32 32h466z" horiz-adv-x="1000" />

<glyph glyph-name="flash" unicode="&#xe865;" d="M383 359c34 0 62-28 62-62v-262l269 306h-97c-34 0-62 28-62 62v262l-270-306h98z m-165 18l315 358c46 53 84 38 84-32v-300h129c59 0 75-36 36-80l-315-358c-47-53-84-38-84 32v300h-129c-59 0-75 36-36 80z" horiz-adv-x="1000" />

<glyph glyph-name="folder" unicode="&#xe866;" d="M172 678c-20-19-30-56-30-134v-388c0-77 10-114 30-134 20-20 57-31 134-31h388c78 0 115 11 134 31 20 20 31 57 31 134v233c0 78-11 114-31 134-19 20-56 31-134 31h-116c-22 0-40 3-55 12-14 8-23 20-29 28-1 1-1 2-2 2l0 0 0 0-58 78c-12 15-17 22-25 27-6 4-18 8-45 8h-58c-77 0-114-11-134-31z m-41 41c38 39 98 48 175 48h58c32 0 56-5 75-17 19-11 30-26 40-40 1 0 1-1 2-1l58-78c8-11 10-13 14-15 2-2 8-4 25-4h116c77 0 137-9 175-48 39-38 48-98 48-175v-233c0-77-9-137-48-175-38-39-98-48-175-48h-388c-77 0-137 9-175 48-39 38-48 98-48 175v388c0 77 9 137 48 175z" horiz-adv-x="1000" />

<glyph glyph-name="gallery" unicode="&#xe867;" d="M129 721c56 56 139 77 246 77h250c107 0 191-21 246-77 56-55 77-139 77-246v-250c0-107-21-190-77-246-55-56-139-77-246-77h-250c-107 0-190 21-246 77-56 56-77 139-77 246v250c0 107 21 191 77 246z m44-44c-38-38-58-101-58-202v-250c0-101 20-164 58-202 38-38 101-58 202-58h250c101 0 164 20 202 58 38 38 58 101 58 202v250c0 101-20 164-58 202-38 38-101 58-202 58h-250c-101 0-164-20-202-58z m202-108c-29 0-52-24-52-52 0-29 23-52 52-52 29 0 52 23 52 52 0 28-23 52-52 52z m-115-52c0 63 52 114 115 114 63 0 115-51 115-114 0-64-52-115-115-115-63 0-115 51-115 115z m568-211c-20 17-56 17-76 0l-174-149c0 0 0 0 0 0-44-38-114-38-158 0l0 0-14 12c-18 16-50 18-72 3l-205-137c-15-10-34-6-44 8-9 14-5 34 9 43l205 138c45 30 108 27 148-8l0 0 14-12c21-18 56-18 77 0l173 149c0 0 0 0 0 0 44 38 114 38 158 0 0 0 0 0 0 0l68-58c13-12 15-31 3-44-11-14-31-15-44-4l-68 59z" horiz-adv-x="1000" />

<glyph glyph-name="gas-station" unicode="&#xe868;" d="M698 642c0 34-11 56-27 70-15 15-38 23-67 23h-333c-29 0-52-8-67-23-16-14-27-36-27-70v-677h521v677z m62-709c0-17-14-31-31-31h-583c-17 0-31 14-31 31v709c0 49 16 89 46 116 30 28 69 40 110 40h333c41 0 80-12 110-40 30-27 46-67 46-116v-709z m32 32c17 0 31-14 31-32 0-17-14-31-31-31h-709c-17 0-31 14-31 31 0 18 14 32 31 32h709z m-219 598c0 23-6 33-12 38-7 6-18 10-35 10h-176c-18 0-29-4-35-10-6-5-13-15-13-38v-51c0-22 7-32 13-37 6-6 17-10 35-10h176c17 0 28 4 35 10 6 5 12 15 12 37v51z m63-51c0-35-11-65-34-85-22-19-50-25-76-25h-176c-27 0-55 6-77 25-22 20-33 50-33 85v51c0 36 11 65 33 85 22 19 50 25 77 25h176c26 0 54-6 76-25 23-20 34-49 34-85v-51z m-240-172c17 0 31-14 31-32 0-17-14-31-31-31h-125c-17 0-31 14-31 31 0 18 14 32 31 32h125z m409 149c8 14 25 21 39 15l3-1 84-42 3-2c9-6 14-15 14-26v-250c0-17-14-31-31-31l-188 0c-17 0-31 14-31 31 0 17 14 31 31 31l156 1v199l-66 33-2 2c-14 8-19 26-12 40z" horiz-adv-x="1000" />

<glyph glyph-name="gift" unicode="&#xe869;" d="M801 402h-604v-302c0-61 10-91 27-108 17-17 47-27 108-27h333c61 0 92 10 109 27 16 17 27 47 27 108v302z m62-302c0-64-10-117-45-152-36-36-88-46-153-46h-333c-64 0-117 10-152 46-35 35-46 88-46 152v333l0 4c2 15 15 28 31 28h667l3-1c16-1 28-14 28-31v-333z m2 458c0 19-5 31-11 39-6 6-17 13-41 13h-625c-26 0-37-7-42-13-6-7-11-19-11-39v-41c0-19 5-32 11-39 5-6 16-13 42-13h625c24 0 35 7 41 13 6 8 11 20 11 39v41z m62-41c0-28-6-57-26-80-21-23-51-35-88-35h-625c-39 0-69 12-90 36-19 23-25 52-25 79v41c0 27 6 56 25 79 21 24 51 36 90 36h625c37 0 67-12 88-35 20-23 26-52 26-80v-41z m-628 265c28 23 69 21 95-5l113-113 3-4c7-8 8-20 4-30-5-12-16-20-29-20h-230c-9 0-17 4-23 11-25 27-25 70 2 97l59 59 6 5z m51-49c-3 3-8 3-11 1l-1-1-60-59c0 0 0-1 0-1h132l-60 60z m261 49c28 23 69 21 95-5l59-59 5-5c22-27 22-66-2-92-6-7-15-11-23-11h-230c-13 0-24 8-29 20-5 11-2 25 7 34l113 113 5 5z m51-49c-3 3-7 3-11 1l-1-1-60-60h132l-1 1-59 59z m-198-494c22 12 49 12 71 0l4-3 1 0 37-25 2-1c7-2 14 2 14 10v182h-189v-183c0-8 9-13 16-8l39 25 0 0 5 3z m191-19c0-59-65-93-113-61l0 0-37 25v0c-3 2-8 2-12 0l-39-26 0 0c-48-31-113 3-113 61v214l0 4c2 15 15 28 32 28h251l3-1c16-1 28-14 28-31v-213z" horiz-adv-x="1000" />

<glyph glyph-name="global" unicode="&#xe86a;" d="M885 350c0 213-172 385-385 385-213 0-385-172-385-385 0-213 172-385 385-385 213 0 385 172 385 385z m63 0c0-247-201-448-448-448-247 0-448 201-448 448 0 247 201 448 448 448 247 0 448-201 448-448z m-573 406c10 0 20-5 25-13 6-8 8-18 5-28-79-237-79-493 0-730 3-10 1-20-5-28-5-8-15-13-25-13h-42c-17 0-31 14-31 31 0 17 14 31 31 31-67 225-67 464 0 688-17 0-31 14-31 31 0 17 14 31 31 31h42z m240-1c16 5 32-3 39-17l1-3 7-24c76-243 73-504-7-746-6-16-23-25-40-20-16 6-25 23-20 40 77 229 79 477 8 708l-8 22 0 3c-4 16 5 32 20 37z m250-500c10 3 20 1 28-5 8-5 13-15 13-25v-42c0-17-14-31-31-31-17 0-31 14-31 31-225-67-463-67-688 0 0-17-14-31-31-31-17 0-31 14-31 31v42l0 4c1 8 6 16 13 21 8 6 18 8 28 5 237-79 493-79 730 0z m-726 257c235 74 487 74 722 0l24-7 3-1c14-7 22-24 17-39-5-15-21-24-37-20l-3 0-22 8c-231 71-479 69-708-8l-3 0c-16-4-31 5-37 20-5 17 4 34 20 40l24 7z" horiz-adv-x="1000" />

<glyph glyph-name="google" unicode="&#xe86b;" d="M227 354c0 32 5 65 14 93l2 5 2 6c1 2 2 5 3 9 1 2 2 5 4 7 43 97 141 166 256 166 73 0 124-26 161-52l72 72c-62 46-141 75-233 75-150 0-281-84-342-211l-1 0c-27-55-42-113-42-174 0-54 12-104 33-153l9-20 1-1h0c61-127 192-211 342-211 106 0 194 35 254 91l1 1 13 12c63 64 101 159 101 273 0 19-2 36-4 52h-333v-92h198c8 0 17-4 23-10 6-7 9-16 8-25-5-45-34-111-96-154l0 0c-40-30-97-48-165-48-122 0-229 79-267 196v0c-9 29-14 61-14 93z m63 0c0-23 3-46 8-65l3-8 0-1 3-8c31-87 113-145 204-145 58 0 101 15 127 36l1 0 9 6c26 21 43 47 52 71h-189c-17 0-31 14-31 31v154c0 17 14 31 31 31h392l6 0c12-3 23-13 25-26 4-25 9-52 9-88 0-137-49-254-135-331l0 0c-73-69-177-109-297-109-174 0-327 99-399 247v0c-31 62-49 129-49 201 0 72 19 139 50 202 72 148 224 246 398 246 121 0 224-45 300-112 7-6 10-14 11-22 0-9-3-17-9-24l-117-116c-10-10-26-12-38-5l-5 3c-30 27-73 55-142 55-91 0-167-55-200-131-1-2-2-4-3-5 0-1-1-4-2-7-1-2-2-4-3-7-7-21-10-47-10-73z" horiz-adv-x="1000" />

<glyph glyph-name="google-play" unicode="&#xe86c;" d="M686 509c9 6 21 8 32 2l187-91 1 0 5-3c25-15 37-42 37-66 0-26-13-55-43-67l-187-95c-10-5-23-4-32 2l-4 4-133 133c-12 12-12 32 0 44l133 133 4 4z m-71-159l95-95 167 85 4 2c2 1 4 3 4 9 0 5-3 10-7 13h0l-168 82-95-96z m-563 371c0 54 53 89 102 72l4-2 2 0 558-280c9-4 15-13 17-23 2-10-2-20-9-27l-533-533c-2-3-5-4-8-6l-25-12c-26-14-54-10-74 4-20 14-34 38-34 65v742z m63-742c0-6 3-11 7-14 1-1 3-1 4-2 1 0 2 0 4 2l2 0 20 11 499 499-518 259c-8 4-18-3-18-13v-742z m456 402c8 0 16-3 22-9l133-133c7-7 11-17 9-27-2-10-8-19-17-23l-533-267c-14-7-31-3-39 10-9 12-8 29 3 40l400 400 5 4c5 3 11 5 17 5z m-242-317l322 161-80 81-242-242z m-180 708c11 12 29 12 42 2l2-2 400-400 2-2c10-13 9-31-2-42-11-11-30-12-42-2l-2 2-400 400-2 2c-10 13-10 31 2 42z" horiz-adv-x="1000" />

<glyph glyph-name="gps" unicode="&#xe86d;" d="M500 631c-155 0-281-126-281-281 0-155 126-281 281-281 155 0 281 126 281 281 0 155-126 281-281 281z m-344-281c0 190 154 344 344 344 190 0 344-154 344-344 0-190-154-344-344-344-190 0-344 154-344 344z m344 94c-52 0-94-42-94-94 0-52 42-94 94-94 52 0 94 42 94 94 0 52-42 94-94 94z m-156-94c0 86 70 156 156 156 86 0 156-70 156-156 0-86-70-156-156-156-86 0-156 70-156 156z m156 448c17 0 31-14 31-31v-84c0-17-14-31-31-31-17 0-31 14-31 31v84c0 17 14 31 31 31z m-448-448c0 17 14 31 31 31h84c17 0 31-14 31-31 0-17-14-31-31-31h-84c-17 0-31 14-31 31z m448-302c17 0 31-14 31-31v-84c0-17-14-31-31-31-17 0-31 14-31 31v84c0 17 14 31 31 31z m302 302c0 17 14 31 31 31h84c17 0 31-14 31-31 0-17-14-31-31-31h-84c-17 0-31 14-31 31z" horiz-adv-x="1000" />

<glyph glyph-name="gps-slash" unicode="&#xe86e;" d="M781 350c0 35-6 69-18 99l-5 14-1 3c-5 15 2 31 17 38 15 6 32 0 40-14l1-2 7-16c14-38 22-79 22-122 0-190-154-344-344-344-43 0-84 8-121 22l-16 7-3 1c-14 8-20 25-14 40 7 15 23 22 39 17l3-1 13-5c30-12 64-18 99-18 155 0 281 126 281 281z m-625 0c0 190 154 344 344 344 93 0 177-37 239-96 12-12 13-32 1-45-12-12-32-12-45 0-50 48-119 78-195 78-155 0-281-126-281-281 0-71 26-135 69-185l9-10 2-2c10-13 8-31-3-42-12-11-30-11-42-1l-2 2-11 12c-53 61-85 140-85 226z m313 333v84c0 17 14 31 31 31 17 0 31-14 31-31v-84c0-17-14-31-31-31-17 0-31 14-31 31z m-302-302c17 0 31-14 31-31 0-17-14-31-31-31h-84c-17 0-31 14-31 31 0 17 14 31 31 31h84z m302-448v84c0 17 14 31 31 31 17 0 31-14 31-31v-84c0-17-14-31-31-31-17 0-31 14-31 31z m448 448c17 0 31-14 31-31 0-17-14-31-31-31h-84c-17 0-31 14-31 31 0 17 14 31 31 31h84z m-417 125c43 0 82-17 110-46 13-12 13-32 0-44l-176-176c-12-13-32-13-44 0-28 28-46 67-46 110 0 86 70 156 156 156z m-94-156c0-14 4-28 10-40l124 125c-12 5-26 9-40 9-52 0-94-42-94-94z m489 439c12 12 32 12 44 0 12-12 12-32 0-44l-834-834c-12-12-32-12-44 0-12 12-12 32 0 44l834 834z" horiz-adv-x="1000" />

<glyph glyph-name="grid" unicode="&#xe86f;" d="M125 683c0 23 19 42 42 42h83c23 0 42-19 42-42v-83c0-23-19-42-42-42h-83c-23 0-42 19-42 42v83z m0-291c0 23 19 41 42 41h83c23 0 42-18 42-41v-84c0-23-19-41-42-41h-83c-23 0-42 18-42 41v84z m0-292c0 23 19 42 42 42h83c23 0 42-19 42-42v-83c0-23-19-42-42-42h-83c-23 0-42 19-42 42v83z m292 583c0 23 18 42 41 42h84c23 0 41-19 41-42v-83c0-23-18-42-41-42h-84c-23 0-41 19-41 42v83z m0-291c0 23 18 41 41 41h84c23 0 41-18 41-41v-84c0-23-18-41-41-41h-84c-23 0-41 18-41 41v84z m0-292c0 23 18 42 41 42h84c23 0 41-19 41-42v-83c0-23-18-42-41-42h-84c-23 0-41 19-41 42v83z m291 590c0 19 16 35 35 35h97c19 0 35-16 35-35v-97c0-19-16-35-35-35h-97c-19 0-35 16-35 35v97z m0-298c0 23 19 41 42 41h83c23 0 42-18 42-41v-84c0-23-19-41-42-41h-83c-23 0-42 18-42 41v84z m0-292c0 23 19 42 42 42h83c23 0 42-19 42-42v-83c0-23-19-42-42-42h-83c-23 0-42 19-42 42v83z" horiz-adv-x="1000" />

<glyph glyph-name="grid-1" unicode="&#xe870;" d="M562 767c24 24 57 31 93 31h169c36 0 70-7 93-31 24-23 31-57 31-93v-169c0-36-7-69-31-93-23-24-57-31-93-31h-169c-36 0-69 7-93 31-24 24-31 57-31 93v169c0 36 7 70 31 93z m44-44c-6-6-12-19-12-49v-169c0-30 6-42 12-49 6-6 19-12 49-12h169c30 0 43 6 49 12 6 7 12 19 12 49v169c0 30-6 43-12 49-6 6-19 12-49 12h-169c-30 0-43-6-49-12z m-522 48c24 21 57 27 92 27h169c35 0 68-6 92-27 24-22 32-53 32-87v-189c0-33-8-65-32-87-24-21-57-26-92-26h-169c-35 0-68 6-92 27-24 21-32 53-32 86v189c0 34 8 65 32 87z m42-47c-6-5-11-14-11-40v-189c0-25 5-35 11-40 6-5 20-11 50-11h169c30 0 44 6 50 11 5 5 11 15 11 40v189c0 26-5 35-11 40-6 6-20 11-50 11h-169c-30 0-44-5-50-11z m-43-436c24 24 57 31 93 31h169c36 0 69-7 93-31 24-24 31-57 31-93v-169c0-36-7-70-31-93-24-24-57-31-93-31h-169c-36 0-69 7-93 31-24 23-31 57-31 93v169c0 36 7 69 31 93z m44-44c-6-6-12-19-12-49v-169c0-30 6-43 12-49 6-6 19-12 49-12h169c30 0 43 6 49 12 6 6 12 19 12 49v169c0 30-6 43-12 49-6 6-19 12-49 12h-169c-30 0-43-6-49-12z m467-40c0 17 14 31 31 31h250c17 0 31-14 31-31 0-17-14-31-31-31h-250c-17 0-31 14-31 31z m0-166c0 17 14 31 31 31h250c17 0 31-14 31-31 0-18-14-32-31-32h-250c-17 0-31 14-31 32z" horiz-adv-x="1000" />

<glyph glyph-name="grid-2" unicode="&#xe871;" d="M885 475c0 101-20 164-58 202-38 38-101 58-202 58h-250c-101 0-164-20-202-58-38-38-58-101-58-202v-250c0-101 20-164 58-202 38-38 101-58 202-58h250c101 0 164 20 202 58 38 38 58 101 58 202v250z m63-250c0-107-21-190-77-246-56-56-139-77-246-77h-250c-107 0-190 21-246 77-56 56-77 139-77 246v250c0 107 21 191 77 246 56 56 139 77 246 77h250c107 0 190-21 246-77 56-55 77-139 77-246v-250z m-31 302l3 0c16-2 28-15 28-31 0-16-12-30-28-31l-3 0h-832c-18 0-32 14-32 31 0 17 14 31 32 31h832z m0-292l3 0c16-1 28-15 28-31 0-16-12-29-28-31l-3 0h-832c-18 0-32 14-32 31 0 17 14 31 32 31h832z m-594-301v832c0 18 14 32 32 32 17 0 31-14 31-32v-832c0-18-14-32-31-32-18 0-32 14-32 32z m292 0v832c0 18 14 32 31 32 18 0 32-14 32-32v-832c0-18-14-32-32-32-17 0-31 14-31 32z" horiz-adv-x="1000" />

<glyph glyph-name="happy" unicode="&#xe872;" d="M884 350c0 213-172 385-385 385-213 0-386-172-386-385 0-213 173-385 386-385 213 0 385 172 385 385z m63 0c0-247-201-448-448-448-248 0-448 201-448 448 0 247 200 448 448 448 247 0 448-201 448-448z m-273-149c10 14 29 18 44 8 14-10 17-29 7-44-49-70-132-117-225-117-87 0-165 41-216 105l-9 13-2 2c-8 14-4 32 10 41 13 9 31 7 41-5l2-3 8-10c38-49 99-81 166-81 72 0 135 36 174 91z m3 232c0 6-5 11-10 11-6 0-11-5-11-11 0-5 5-10 11-10 5 0 10 5 10 10z m63 0c0-40-33-73-73-73-41 0-73 33-73 73 0 41 32 73 73 73 40 0 73-32 73-73z m-396 0c0 6-5 11-11 11-5 0-10-5-10-11 0-5 5-10 10-10 6 0 11 5 11 10z m62 0c0-40-32-73-73-73-40 0-73 33-73 73 0 41 33 73 73 73 41 0 73-32 73-73z" horiz-adv-x="1000" />

</font>
</defs>
</svg>
