<svg xmlns="http://www.w3.org/2000/svg" width="250" height="207" viewBox="0 0 250 207"><rect width="100%" height="100%" fill="#DDDDDD"/><path fill="#999999" d="M58.11 95.98h2.01v12.29h-1.17q-.27 0-.46-.09-.18-.09-.35-.3l-6.42-8.2q.05.57.05 1.04v7.55h-2.01V95.98h1.2q.14 0 .25.01.11.01.19.05t.15.11q.08.08.17.19l6.45 8.23q-.03-.3-.05-.58-.01-.29-.01-.54v-7.47Zm6.07 6.93h3.97q0-.41-.12-.77-.11-.36-.34-.64-.23-.27-.59-.43-.35-.15-.82-.15-.91 0-1.43.52-.52.51-.67 1.47Zm5.36 1.26h-5.4q.05.67.24 1.16.19.49.49.81.31.32.73.48.42.15.93.15t.88-.12q.37-.11.65-.26.27-.14.48-.26.21-.12.4-.12.27 0 .4.19l.6.77q-.35.41-.78.68-.44.28-.91.45-.47.16-.96.23t-.95.07q-.91 0-1.69-.3-.78-.31-1.36-.9-.58-.59-.91-1.46-.33-.87-.33-2.02 0-.89.29-1.68.29-.78.83-1.36.54-.59 1.32-.93.77-.34 1.75-.34.83 0 1.52.27.7.26 1.2.77.5.5.79 1.24.28.73.28 1.68 0 .47-.1.64-.1.16-.39.16Zm12.92-4.62h1.6l-2.77 8.72H79.6q-.29 0-.4-.37l-1.56-5.04q-.08-.26-.14-.51-.06-.25-.11-.51-.05.26-.11.52-.07.26-.14.51l-1.59 5.03q-.1.37-.45.37h-1.62l-2.76-8.72h1.68q.22 0 .39.11.16.11.21.28l1.25 4.66q.09.38.16.75.08.36.13.73.09-.37.2-.73.1-.37.22-.75l1.45-4.68q.05-.17.2-.28.15-.11.36-.11h.92q.23 0 .38.11.16.11.21.28l1.4 4.68q.11.38.21.75.1.37.19.74.11-.73.32-1.49l1.28-4.66q.06-.17.21-.28.16-.11.37-.11ZM92 95.98v12.29h-2.29V95.98H92Zm4.52 12.29h-2.1v-8.72h1.28q.41 0 .54.38l.13.65q.23-.26.48-.47.25-.21.54-.37.28-.15.61-.24.33-.09.72-.09.82 0 1.36.45.53.45.79 1.18.2-.43.51-.74t.67-.5q.37-.2.78-.29.41-.1.83-.1.72 0 1.28.22t.95.65q.38.42.58 1.04.2.61.2 1.4v5.55h-2.1v-5.55q0-.83-.37-1.25-.36-.43-1.07-.43-.32 0-.6.12-.27.11-.48.31-.21.21-.33.53-.12.31-.12.72v5.55h-2.11v-5.55q0-.88-.35-1.28t-1.03-.4q-.46 0-.86.23-.39.23-.73.62v6.38Zm16.74-2.25v-1.47q-.91.04-1.53.15-.62.12-.99.3-.38.18-.54.41-.16.24-.16.52 0 .55.33.79t.85.24q.65 0 1.12-.23.47-.24.92-.71Zm-4.43-4.58-.38-.68q1.51-1.37 3.62-1.37.77 0 1.37.25.61.25 1.02.7.42.44.64 1.06.21.62.21 1.36v5.51h-.95q-.3 0-.46-.09-.16-.09-.25-.36l-.19-.63q-.33.3-.65.52-.31.23-.65.38t-.73.24q-.39.08-.85.08-.56 0-1.02-.15-.47-.15-.81-.45-.34-.3-.53-.74-.18-.44-.18-1.03 0-.33.11-.66.11-.32.36-.62t.65-.56q.4-.26.98-.46t1.36-.32q.77-.12 1.76-.15v-.51q0-.87-.37-1.29-.37-.43-1.08-.43-.51 0-.85.12-.33.12-.59.27-.25.15-.46.27-.21.12-.46.12-.22 0-.38-.12-.15-.11-.24-.26Zm11.64 2.26q.39 0 .68-.11.29-.11.48-.29.19-.19.29-.45.1-.27.1-.58 0-.65-.39-1.03-.39-.37-1.16-.37-.77 0-1.16.37-.39.38-.39 1.03 0 .3.1.57.1.26.29.45.19.19.49.3.29.11.67.11Zm2.37 4.96q0-.25-.15-.42-.15-.16-.42-.25-.26-.09-.61-.13-.36-.04-.75-.06l-.82-.04q-.42-.02-.82-.07-.35.2-.56.46-.22.26-.22.61 0 .23.12.43.11.2.36.35.25.14.65.22.4.08.98.08.59 0 1.01-.09.43-.09.7-.24.28-.16.41-.38.12-.21.12-.47Zm-.41-8.81h2.5v.78q0 .37-.45.46l-.78.14q.18.45.18.99 0 .64-.26 1.17-.26.52-.72.88-.46.37-1.08.57-.63.2-1.35.2-.25 0-.49-.03-.24-.02-.47-.06-.41.24-.41.55 0 .26.25.39.24.12.64.17.4.05.91.06.51.02 1.04.06.54.04 1.05.15.51.1.91.33t.64.63q.24.39.24 1.01 0 .58-.28 1.13-.29.54-.83.97-.54.42-1.32.68-.79.26-1.79.26-.99 0-1.72-.19t-1.22-.51q-.48-.32-.72-.74-.24-.41-.24-.86 0-.62.37-1.03.37-.41 1.02-.66-.35-.18-.55-.47-.21-.3-.21-.79 0-.19.07-.4.08-.21.22-.41.14-.21.35-.39.21-.18.5-.33-.66-.35-1.04-.95-.38-.59-.38-1.39 0-.65.26-1.17.26-.52.72-.89.47-.37 1.1-.57.63-.19 1.38-.19.56 0 1.06.11.49.12.9.34Zm5.49 3.06h3.96q0-.41-.12-.77-.11-.36-.34-.64-.23-.27-.58-.43-.36-.15-.82-.15-.91 0-1.44.52-.52.51-.66 1.47Zm5.35 1.26h-5.39q.05.67.23 1.16.19.49.5.81.3.32.72.48.42.15.93.15t.88-.12q.37-.11.65-.26.28-.14.48-.26.21-.12.41-.12.26 0 .39.19l.6.77q-.35.41-.78.68-.43.28-.91.45-.47.16-.96.23-.48.07-.94.07-.91 0-1.69-.3-.79-.31-1.36-.9-.58-.59-.91-1.46-.34-.87-.34-2.02 0-.89.29-1.68.29-.78.83-1.36.54-.59 1.32-.93.78-.34 1.75-.34.83 0 1.53.27.69.26 1.19.77.51.5.79 1.24.29.73.29 1.68 0 .47-.11.64-.1.16-.39.16Zm8.82-2.01h1.71q.62 0 1.09-.16.47-.16.78-.45.31-.29.46-.71.16-.42.16-.94 0-.5-.16-.9-.15-.39-.46-.68-.3-.28-.77-.42-.47-.15-1.1-.15h-1.71v4.41Zm-2.29-6.18h4q1.23 0 2.13.29.9.29 1.49.81.58.51.87 1.24.28.72.28 1.58 0 .89-.29 1.63-.3.75-.9 1.28-.59.54-1.49.84-.9.29-2.09.29h-1.71v4.33h-2.29V95.98Zm12.05 4.1.12.98q.41-.78.97-1.23.56-.44 1.33-.44.6 0 .97.26l-.14 1.57q-.04.16-.12.22-.08.06-.22.06-.13 0-.38-.04t-.49-.04q-.34 0-.62.1-.27.1-.49.29-.21.2-.38.47-.16.27-.31.62v5.37h-2.1v-8.72h1.23q.33 0 .46.11.12.12.17.42Zm6.14 2.83h3.96q0-.41-.11-.77-.12-.36-.35-.64-.23-.27-.58-.43-.35-.15-.82-.15-.91 0-1.43.52-.52.51-.67 1.47Zm5.36 1.26h-5.4q.05.67.24 1.16.18.49.49.81.31.32.73.48.42.15.93.15t.88-.12q.37-.11.64-.26.28-.14.49-.26.21-.12.4-.12.26 0 .39.19l.61.77q-.35.41-.79.68-.43.28-.9.45-.47.16-.96.23t-.95.07q-.91 0-1.69-.3-.78-.31-1.36-.9-.58-.59-.91-1.46-.33-.87-.33-2.02 0-.89.29-1.68.29-.78.82-1.36.54-.59 1.32-.93.78-.34 1.76-.34.82 0 1.52.27.7.26 1.2.77.5.5.78 1.24.29.73.29 1.68 0 .47-.1.64-.11.16-.39.16Zm8.27-4.62h1.65l-3.46 8.72h-1.9l-3.46-8.72h1.73q.24 0 .4.11.16.11.21.28l1.68 4.66q.14.41.24.8.1.39.18.78.08-.39.18-.78.11-.39.25-.8l1.72-4.66q.06-.17.21-.28.15-.11.37-.11Zm2.84 0h2.1v8.72h-2.1v-8.72Zm2.39-2.54q0 .27-.11.51t-.29.41q-.18.18-.43.29-.25.1-.53.1-.27 0-.51-.1-.24-.11-.42-.29-.18-.17-.29-.41-.1-.24-.1-.51 0-.28.1-.53.11-.25.29-.42.18-.18.42-.29.24-.11.51-.11.28 0 .53.11t.43.29q.18.17.29.42.11.25.11.53Zm3.51 5.9h3.96q0-.41-.11-.77-.12-.36-.35-.64-.22-.27-.58-.43-.35-.15-.82-.15-.91 0-1.43.52-.52.51-.67 1.47Zm5.36 1.26h-5.4q.05.67.24 1.16.19.49.49.81.31.32.73.48.42.15.93.15t.88-.12q.37-.11.64-.26.28-.14.49-.26.21-.12.4-.12.27 0 .39.19l.61.77q-.35.41-.78.68-.44.28-.91.45-.47.16-.96.23t-.95.07q-.91 0-1.69-.3-.78-.31-1.36-.9-.58-.59-.91-1.46-.33-.87-.33-2.02 0-.89.29-1.68.29-.78.83-1.36.54-.59 1.31-.93.78-.34 1.76-.34.82 0 1.52.27.7.26 1.2.77.5.5.79 1.24.28.73.28 1.68 0 .47-.1.64-.1.16-.39.16Zm12.92-4.62h1.6l-2.78 8.72h-1.68q-.29 0-.4-.37l-1.56-5.04q-.08-.26-.14-.51-.07-.25-.11-.51-.05.26-.11.52-.07.26-.14.51l-1.59 5.03q-.1.37-.45.37h-1.62l-2.76-8.72h1.67q.23 0 .39.11.17.11.22.28l1.25 4.66q.09.38.16.75.07.36.13.73.09-.37.2-.73.1-.37.22-.75l1.45-4.68q.05-.17.2-.28.14-.11.36-.11h.92q.22 0 .38.11t.21.28l1.4 4.68q.11.38.21.75.1.37.19.74.11-.73.32-1.49l1.28-4.66q.06-.17.21-.28.16-.11.37-.11Z"/></svg>