<svg xmlns="http://www.w3.org/2000/svg" width="250" height="207" viewBox="0 0 250 207"><rect width="100%" height="100%" fill="#DDDDDD"/><path fill="#999999" d="M62.485 102.05q0 1.43-.47 2.65-.48 1.22-1.34 2.11-.87.89-2.08 1.39-1.21.5-2.7.5-1.48 0-2.69-.5-1.22-.5-2.08-1.39-.87-.89-1.35-2.11-.48-1.22-.48-2.65t.48-2.65q.48-1.22 1.35-2.11.86-.89 2.08-1.39 1.21-.5 2.69-.5.99 0 1.86.23.88.23 1.61.65.72.42 1.3 1.02.59.59.99 1.33.4.74.62 1.6.21.87.21 1.82Zm-2.48 0q0-1.07-.29-1.92-.28-.85-.81-1.44-.54-.6-1.3-.91-.76-.32-1.71-.32t-1.71.32q-.77.31-1.3.91-.54.59-.82 1.44-.29.85-.29 1.92 0 1.07.29 1.92.28.85.82 1.44.53.59 1.3.91.76.31 1.71.31t1.71-.31q.76-.32 1.3-.91.53-.59.81-1.44.29-.85.29-1.92Zm4.29-6.86h2.22v13.37h-2.22V95.19Zm10.24 10.63v-4.14q-.38-.46-.82-.64-.45-.19-.96-.19t-.91.19q-.41.18-.69.57-.29.38-.45.97-.15.59-.15 1.39 0 .81.13 1.37t.38.92q.24.36.59.51.35.16.78.16.7 0 1.18-.29.49-.29.92-.82Zm0-10.63h2.22v13.37h-1.36q-.44 0-.55-.41l-.19-.89q-.56.64-1.29 1.04-.72.4-1.68.4-.76 0-1.39-.32-.63-.32-1.08-.91-.46-.6-.71-1.48-.24-.89-.24-2.02 0-1.03.28-1.91.27-.88.8-1.53.52-.65 1.25-1.01.73-.37 1.64-.37.77 0 1.32.25.55.24.98.65v-4.86Zm11.57.36v13.01h-2.43V95.55h2.43Zm4.78 13.01h-2.22v-9.23h1.36q.43 0 .57.4l.14.68q.24-.27.51-.49.26-.23.56-.39.31-.16.65-.25.35-.1.76-.1.88 0 1.44.47.56.48.84 1.26.22-.46.54-.79.32-.33.71-.53.39-.21.82-.31.44-.1.88-.1.77 0 1.36.24.6.23 1 .68.41.45.62 1.1.21.65.21 1.48v5.88h-2.22v-5.88q0-.88-.39-1.32-.39-.45-1.14-.45-.34 0-.63.12-.29.11-.51.33-.22.22-.35.56-.13.33-.13.76v5.88h-2.23v-5.88q0-.92-.37-1.35-.37-.42-1.09-.42-.49 0-.91.24-.42.24-.78.65v6.76Zm17.73-2.39v-1.55q-.96.04-1.62.16-.65.13-1.05.31-.4.19-.57.45-.17.25-.17.54 0 .59.35.84.34.25.9.25.69 0 1.19-.24.5-.25.97-.76Zm-4.7-4.85-.39-.71q1.59-1.46 3.83-1.46.81 0 1.45.27.64.27 1.08.74.44.47.67 1.13.23.65.23 1.44v5.83h-1.01q-.31 0-.48-.09-.17-.1-.27-.39l-.2-.66q-.35.31-.68.55-.34.24-.7.4-.36.16-.77.25-.41.08-.9.08-.59 0-1.08-.15-.5-.16-.86-.48-.36-.31-.55-.78-.2-.47-.2-1.09 0-.35.11-.7.12-.34.39-.66.26-.31.69-.59.42-.28 1.03-.49.62-.2 1.44-.33.82-.14 1.87-.16v-.54q0-.93-.39-1.37-.4-.45-1.15-.45-.54 0-.89.13-.36.12-.63.28-.27.16-.49.28-.22.13-.49.13-.23 0-.39-.12-.17-.12-.27-.29Zm12.33 2.4q.42 0 .72-.11.31-.12.51-.32.21-.19.31-.47.1-.28.1-.61 0-.69-.41-1.09-.41-.4-1.23-.4-.81 0-1.22.4-.41.4-.41 1.09 0 .32.1.6.1.28.31.48.2.2.51.32.31.11.71.11Zm2.52 5.25q0-.27-.17-.44-.16-.17-.44-.26-.28-.1-.65-.14-.37-.05-.79-.07l-.87-.04q-.44-.02-.86-.07-.37.2-.6.48-.23.28-.23.65 0 .25.12.46.12.21.39.36.26.15.68.24.43.09 1.04.09.62 0 1.07-.1.45-.09.74-.26.3-.17.43-.4.14-.23.14-.5Zm-.45-9.33h2.66v.83q0 .39-.48.48l-.83.16q.19.47.19 1.04 0 .69-.27 1.24-.28.55-.76.94-.49.39-1.15.6-.66.21-1.43.21-.27 0-.52-.03-.25-.02-.49-.07-.43.26-.43.59 0 .27.25.41.26.13.68.18.42.05.96.07.54.01 1.11.06.57.04 1.11.15.54.12.96.36.42.24.68.66.26.42.26 1.08 0 .61-.3 1.18-.31.58-.88 1.03-.57.45-1.4.72-.83.28-1.9.28-1.04 0-1.81-.2-.78-.21-1.29-.54-.51-.34-.77-.78-.25-.44-.25-.92 0-.65.39-1.08.4-.44 1.08-.7-.37-.19-.59-.51-.21-.31-.21-.82 0-.21.07-.43.08-.22.23-.44.15-.21.37-.41.23-.19.53-.34-.7-.38-1.1-1.01-.4-.63-.4-1.48 0-.68.28-1.24.27-.55.76-.94.49-.39 1.16-.6.67-.21 1.46-.21.6 0 1.12.13.52.12.95.35Zm5.82 3.24h4.19q0-.43-.12-.81-.12-.39-.36-.67-.25-.29-.62-.46-.37-.17-.87-.17-.96 0-1.52.55-.55.55-.7 1.56Zm5.67 1.34h-5.72q.06.71.26 1.23.19.52.52.86.32.33.77.5.44.17.98.17t.93-.13q.4-.13.69-.28.29-.15.51-.28.22-.12.43-.12.28 0 .41.2l.64.81q-.37.43-.83.73-.46.29-.96.47-.49.17-1.01.24-.52.08-1.01.08-.96 0-1.79-.32-.82-.32-1.44-.95-.61-.63-.96-1.55t-.35-2.14q0-.94.31-1.77.3-.84.87-1.45.57-.62 1.4-.98.82-.36 1.86-.36.87 0 1.61.28.74.28 1.27.82.53.53.83 1.31.3.78.3 1.78 0 .5-.11.68-.11.17-.41.17Zm9.33-2.13h1.81q.67 0 1.16-.17.5-.16.82-.47.33-.32.5-.76.16-.45.16-1 0-.52-.16-.94-.17-.42-.49-.72-.32-.3-.82-.45-.49-.16-1.17-.16h-1.81v4.67Zm-2.42-6.54h4.23q1.31 0 2.26.3.95.31 1.57.86.63.55.93 1.31.3.77.3 1.67 0 .95-.32 1.74-.31.78-.94 1.35-.63.57-1.58.88-.95.32-2.22.32h-1.81v4.58h-2.42V95.55Zm12.75 4.33.14 1.05q.43-.83 1.02-1.3.6-.48 1.41-.48.64 0 1.02.28l-.14 1.67q-.04.16-.13.23t-.23.07q-.13 0-.4-.05-.27-.04-.52-.04-.37 0-.65.1-.29.11-.52.31-.23.21-.41.49-.17.29-.33.66v5.69h-2.22v-9.23h1.31q.34 0 .47.12.14.12.18.43Zm6.51 3h4.19q0-.43-.12-.81-.12-.39-.36-.67-.24-.29-.62-.46-.37-.17-.87-.17-.96 0-1.51.55-.56.55-.71 1.56Zm5.67 1.34h-5.71q.05.71.25 1.23t.52.86q.32.33.77.5.44.17.98.17t.94-.13q.39-.13.68-.28.29-.15.51-.28.22-.12.43-.12.28 0 .41.2l.64.81q-.37.43-.82.73-.46.29-.96.47-.5.17-1.02.24-.52.08-1 .08-.97 0-1.79-.32-.83-.32-1.44-.95-.62-.63-.97-1.55t-.35-2.14q0-.94.31-1.77.3-.84.87-1.45.58-.62 1.4-.98t1.86-.36q.87 0 1.61.28.74.28 1.27.82.53.53.83 1.31.3.78.3 1.78 0 .5-.11.68-.1.17-.41.17Zm8.76-4.89h1.75l-3.66 9.23h-2.02l-3.66-9.23h1.84q.25 0 .41.11.17.12.23.3l1.78 4.93q.14.43.25.85.11.41.19.83.09-.42.2-.83.1-.42.26-.85l1.82-4.93q.06-.18.22-.3.16-.11.39-.11Zm3 0h2.24v9.23h-2.24v-9.23Zm2.54-2.7q0 .29-.12.54-.11.26-.31.45-.19.18-.45.3-.26.11-.56.11-.29 0-.54-.11-.26-.12-.45-.3-.19-.19-.3-.45-.11-.25-.11-.54 0-.29.11-.55.11-.26.3-.45t.45-.3q.25-.12.54-.12.3 0 .56.12.26.11.45.3.2.19.31.45.12.26.12.55Zm3.72 6.25h4.19q0-.43-.12-.81-.12-.39-.36-.67-.25-.29-.62-.46-.37-.17-.87-.17-.96 0-1.52.55-.55.55-.7 1.56Zm5.67 1.34h-5.72q.06.71.26 1.23.19.52.52.86.32.33.77.5.44.17.98.17t.93-.13q.4-.13.69-.28.29-.15.51-.28.22-.12.43-.12.28 0 .41.2l.64.81q-.37.43-.83.73-.46.29-.96.47-.49.17-1.01.24-.52.08-1.01.08-.96 0-1.79-.32-.82-.32-1.44-.95-.61-.63-.96-1.55t-.35-2.14q0-.94.31-1.77.3-.84.87-1.45.57-.62 1.4-.98.82-.36 1.86-.36.87 0 1.61.28.74.28 1.27.82.53.53.83 1.31.3.78.3 1.78 0 .5-.11.68-.11.17-.41.17Zm13.68-4.89h1.69l-2.93 9.23h-1.79q-.3 0-.42-.4l-1.65-5.33q-.09-.27-.15-.54-.07-.26-.12-.53-.05.27-.12.54-.06.27-.15.54l-1.68 5.32q-.11.4-.48.4h-1.71l-2.92-9.23h1.77q.25 0 .42.11.17.12.22.3l1.32 4.93q.1.41.18.79.08.39.13.78.1-.39.21-.78.11-.38.24-.79l1.53-4.95q.05-.18.21-.3.16-.11.38-.11h.99q.23 0 .4.11.16.12.22.3l1.48 4.95q.12.41.22.8.11.39.2.78.12-.77.34-1.58l1.36-4.93q.06-.18.22-.3.16-.11.39-.11Z"/></svg>