<svg width="16" height="16" viewBox="0 0 16 16" fill="none" xmlns="http://www.w3.org/2000/svg">
<g clip-path="url(#clip0_4695_26811)">
<path d="M6.86662 13.9997C6.97821 14.2026 7.14225 14.3719 7.34161 14.4898C7.54097 14.6077 7.76834 14.6699 7.99995 14.6699C8.23156 14.6699 8.45893 14.6077 8.65829 14.4898C8.85765 14.3719 9.0217 14.2026 9.13328 13.9997M2.66659 1.33301C1.86659 2.46634 1.33325 3.79967 1.33325 5.33301M14.6666 5.33301C14.6666 3.79967 14.1333 2.46634 13.3333 1.33301M3.99992 5.33301C3.99992 4.27214 4.42135 3.25473 5.17149 2.50458C5.92164 1.75444 6.93905 1.33301 7.99992 1.33301C9.06078 1.33301 10.0782 1.75444 10.8283 2.50458C11.5785 3.25473 11.9999 4.27214 11.9999 5.33301C11.9999 9.99967 13.9999 11.333 13.9999 11.333H1.99992C1.99992 11.333 3.99992 9.99967 3.99992 5.33301Z" stroke="#5E19CF" stroke-width="1.33" stroke-linecap="round" stroke-linejoin="round"/>
</g>
<defs>
<clipPath id="clip0_4695_26811">
<rect width="16" height="16" fill="white"/>
</clipPath>
</defs>
</svg>
