<svg width="20" height="21" viewBox="0 0 20 21" fill="none" xmlns="http://www.w3.org/2000/svg">
<g clip-path="url(#clip0_4498_14343)">
<path d="M8.58337 17.8001C8.72286 18.0538 8.92791 18.2654 9.17712 18.4128C9.42632 18.5602 9.71052 18.6379 10 18.6379C10.2896 18.6379 10.5738 18.5602 10.823 18.4128C11.0722 18.2654 11.2772 18.0538 11.4167 17.8001M5 6.9668C5 5.64071 5.52678 4.36895 6.46447 3.43126C7.40215 2.49358 8.67392 1.9668 10 1.9668C11.3261 1.9668 12.5979 2.49358 13.5355 3.43126C14.4732 4.36895 15 5.64071 15 6.9668C15 12.8001 17.5 14.4668 17.5 14.4668H2.5C2.5 14.4668 5 12.8001 5 6.9668Z" stroke="#0A0A0A" stroke-width="2" stroke-linecap="round" stroke-linejoin="round"/>
</g>
<defs>
<clipPath id="clip0_4498_14343">
<rect width="20" height="20" fill="white" transform="translate(0 0.299805)"/>
</clipPath>
</defs>
</svg>
