<svg preserveAspectRatio="none" width="100%" height="100%" overflow="visible" style="display: block;" viewBox="0 0 16 12" fill="none" xmlns="http://www.w3.org/2000/svg">
<g id="Vector">
<path fill-rule="evenodd" clip-rule="evenodd" d="M0 0H16V12H0V0Z" fill="#229E45"/>
<path fill-rule="evenodd" clip-rule="evenodd" d="M8.03478 10.8999L15.5723 6.00741L7.98978 1.09991L0.427284 6.01741L8.03478 10.8999Z" fill="#F8E509"/>
<path fill-rule="evenodd" clip-rule="evenodd" d="M11.32 5.99996C11.32 7.75746 9.89247 9.18246 8.12997 9.18246C7.50014 9.18147 6.88475 8.99377 6.36158 8.64309C5.83842 8.2924 5.43097 7.79448 5.19074 7.21227C4.95052 6.63005 4.8883 5.98969 5.01197 5.37212C5.13563 4.75455 5.43961 4.18751 5.88549 3.74268C6.33137 3.29785 6.89912 2.9952 7.51698 2.873C8.13484 2.75079 8.77505 2.81451 9.3567 3.05611C9.93835 3.2977 10.4353 3.70632 10.7848 4.23031C11.1342 4.7543 11.3205 5.37013 11.32 5.99996Z" fill="#2B49A3"/>
<path fill-rule="evenodd" clip-rule="evenodd" d="M7.08245 7.90747L6.98245 7.84997L6.88245 7.89997L6.90495 7.78747L6.82495 7.70247L6.93745 7.68997L6.99245 7.58997L7.03995 7.69497L7.14995 7.71497L7.06745 7.78997M9.21745 8.44747L9.11995 8.38997L9.01995 8.43997L9.03995 8.32747L8.96245 8.24497L9.07495 8.23247L9.12745 8.12997L9.17745 8.23497L9.28745 8.25497L9.20245 8.33247M8.29745 7.58247L8.21245 7.53247L8.12495 7.57747L8.14495 7.47997L8.07495 7.40747L8.17495 7.39747L8.21995 7.30747L8.25995 7.39997L8.35745 7.41747L8.28245 7.48497M10.4574 7.27247L10.3724 7.22247L10.2849 7.26747L10.3049 7.16997L10.2374 7.09997L10.3349 7.08997L10.3799 7.00247L10.4199 7.09247L10.5149 7.10997L10.4424 7.17497M8.25995 6.62497L8.15995 6.56997L8.05995 6.61997L8.07995 6.50497L8.00245 6.42247L8.11495 6.40997L8.16745 6.30747L8.21745 6.41247L8.32745 6.43247L8.24245 6.51247M5.62745 5.63747L5.52745 5.58247L5.42745 5.63247L5.45245 5.51747L5.36995 5.43497L5.48495 5.42247L5.53495 5.31997L5.58495 5.42497L5.69495 5.44497L5.61245 5.52247M5.94495 6.95247L5.84495 6.89497L5.74495 6.94497L5.76745 6.83247L5.68745 6.74997L5.79995 6.73497L5.85245 6.63497L5.90245 6.73997L6.01245 6.75997L5.92995 6.83747M9.22995 5.15497L9.13995 5.10497L9.04995 5.14997L9.06995 5.04997L8.99995 4.97497L9.09995 4.96247L9.14745 4.87247L9.18995 4.96747L9.28995 4.98497L9.21495 5.05247M9.04745 6.00997L8.97995 5.96997L8.90745 6.00497L8.92245 5.92497L8.86745 5.86747L8.94745 5.85747L8.98495 5.78747L9.01745 5.86247L9.09245 5.87497L9.03745 5.92997M5.48245 7.18997L5.41495 7.15247L5.34745 7.18497L5.36245 7.10997L5.30995 7.05497L5.38495 7.04497L5.41995 6.97747L5.45245 7.04747L5.52745 7.06247L5.46995 7.11247M10.4749 7.49497L10.4199 7.46747L10.3649 7.49247L10.3774 7.43497L10.3349 7.39497L10.3949 7.38747L10.4249 7.33747L10.4499 7.38747L10.5124 7.39997L10.4649 7.43747" fill="#FFFFEF"/>
<path fill-rule="evenodd" clip-rule="evenodd" d="M5.48245 7.18997L5.41495 7.15247L5.34745 7.18497L5.36245 7.10997L5.30995 7.05497L5.38495 7.04497L5.41995 6.97747L5.45245 7.04747L5.52745 7.06247L5.46995 7.11247" fill="#FFFFEF"/>
<path fill-rule="evenodd" clip-rule="evenodd" d="M5.48245 7.18997L5.41495 7.15247L5.34745 7.18497L5.36245 7.10997L5.30995 7.05497L5.38495 7.04497L5.41995 6.97747L5.45245 7.04747L5.52745 7.06247L5.46995 7.11247M6.52745 7.18747L6.46245 7.15247L6.39495 7.18497L6.40995 7.10997L6.35745 7.05497L6.43245 7.04497L6.46745 6.97747L6.49995 7.04747L6.57495 7.05997L6.51745 7.11247M6.39745 7.53747L6.33245 7.49997L6.26495 7.53497L6.27995 7.45997L6.22745 7.40247L6.30245 7.39247L6.33745 7.32497L6.36995 7.39497L6.44495 7.40997L6.38745 7.45997M8.57245 6.90497L8.50745 6.86497L8.43745 6.89997L8.45245 6.82497L8.40245 6.76747L8.47745 6.75997L8.51245 6.69247L8.54245 6.76247L8.61745 6.77497L8.56245 6.82747M7.93495 6.90247L7.86745 6.86497L7.79995 6.89997L7.81495 6.82497L7.76495 6.76747L7.83995 6.75997L7.87495 6.68997L7.90495 6.76247L7.97995 6.77497L7.92495 6.82747M6.20495 6.68247L6.16245 6.65747L6.11995 6.67747L6.12995 6.62997L6.09745 6.59497L6.14495 6.58997L6.16495 6.54747L6.18495 6.59247L6.23245 6.59997L6.19745 6.63247M10.3924 7.76747L10.3274 7.72997L10.2599 7.76497L10.2749 7.68997L10.2224 7.63247L10.2974 7.62247L10.3324 7.55497L10.3649 7.62497L10.4399 7.63997L10.3824 7.68997M9.86245 7.83997L9.80745 7.80497L9.74995 7.83497L9.76245 7.76997L9.71995 7.72497L9.78245 7.71747L9.81245 7.65997L9.83745 7.71997L9.89995 7.72997L9.85245 7.77497M10.1124 7.83247L10.0624 7.80247L10.0099 7.82747L10.0199 7.76997L9.97995 7.72747L10.0374 7.71997L10.0649 7.66997L10.0899 7.71997L10.1474 7.73247L10.1049 7.77247M10.8324 7.20247L10.7824 7.17747L10.7324 7.20247L10.7449 7.14497L10.7049 7.10247L10.7624 7.09497L10.7874 7.04497L10.8124 7.09747L10.8649 7.10747L10.8249 7.14747M9.85495 8.19247L9.79245 8.15747L9.72495 8.18747L9.73995 8.11747L9.68995 8.06747L9.76495 8.05997L9.79745 7.99747L9.82745 8.06247L9.90245 8.07497L9.84495 8.12247M9.85995 8.47747L9.79995 8.44247L9.73995 8.47497L9.75495 8.40497L9.70745 8.35497L9.77495 8.34497L9.80495 8.28247L9.83245 8.34747L9.89995 8.35997L9.84995 8.40997M9.37495 7.83247L9.32745 7.80247L9.27745 7.82747L9.28745 7.77247L9.24995 7.72997L9.30495 7.72497L9.32995 7.67497L9.35495 7.72497L9.40995 7.73497L9.36995 7.77497M8.92495 7.83247L8.87495 7.80247L8.82495 7.82747L8.83745 7.77247L8.79745 7.72997L8.85495 7.72497L8.87995 7.67497L8.90495 7.72497L8.95745 7.73497L8.91745 7.77497M8.15745 7.15997L8.10745 7.13247L8.05745 7.15747L8.06995 7.09997L8.02995 7.05997L8.08495 7.05247L8.10995 7.00247L8.13495 7.05247L8.18995 7.06497L8.14995 7.10247M8.24245 8.52747L8.20245 8.50497L8.15745 8.52747L8.16745 8.47747L8.13495 8.44247L8.18245 8.43747L8.20495 8.39497L8.22495 8.43997L8.27245 8.44747L8.23745 8.47997M7.08245 6.31497L6.98245 6.25747L6.88245 6.30747L6.90495 6.19497L6.82495 6.11247L6.93745 6.09747L6.99245 5.99747L7.03995 6.10247L7.14995 6.12247L7.06745 6.19997" fill="#FFFFEF"/>
<path fill-rule="evenodd" clip-rule="evenodd" d="M11.11 7.14502C11.1719 6.98431 11.2204 6.81874 11.255 6.65002C9.55997 5.16252 7.67247 4.40002 5.28747 4.55752C5.20097 4.72489 5.12984 4.89978 5.07497 5.08002C7.89997 4.81002 9.97497 6.06002 11.11 7.14502Z" fill="white"/>
<path d="M10.3499 6.30996L10.4074 6.34246C10.3988 6.35944 10.3962 6.37881 10.3999 6.39746C10.4058 6.41556 10.4183 6.43075 10.4349 6.43996C10.4524 6.45246 10.4699 6.45996 10.4849 6.45746C10.4999 6.45746 10.5099 6.44996 10.5174 6.43996C10.5218 6.43333 10.5236 6.42532 10.5224 6.41746C10.5204 6.40823 10.5161 6.39964 10.5099 6.39246C10.5049 6.38496 10.4924 6.36746 10.4724 6.34746C10.4519 6.32625 10.4365 6.30059 10.4274 6.27246C10.4212 6.25118 10.4228 6.22836 10.432 6.20817C10.4412 6.18798 10.4573 6.17176 10.4774 6.16246C10.4956 6.15487 10.5157 6.15313 10.5349 6.15746C10.5584 6.16288 10.5806 6.17309 10.5999 6.18746C10.6349 6.21246 10.6574 6.23746 10.6649 6.26746C10.6684 6.28149 10.6688 6.2961 10.6663 6.31032C10.6637 6.32454 10.6581 6.33805 10.6499 6.34996L10.5899 6.31246C10.5974 6.29746 10.5999 6.28246 10.5949 6.26996C10.5924 6.25746 10.5824 6.24496 10.5649 6.23496C10.5521 6.22463 10.5364 6.21852 10.5199 6.21746C10.5154 6.21731 10.5109 6.21839 10.5069 6.2206C10.503 6.2228 10.4997 6.22604 10.4974 6.22996C10.4924 6.23746 10.4924 6.24496 10.4949 6.25496C10.4974 6.26496 10.5099 6.28496 10.5349 6.30996C10.5599 6.33496 10.5749 6.35746 10.5849 6.37246C10.5939 6.38885 10.5979 6.40745 10.5966 6.42606C10.5952 6.44468 10.5886 6.46251 10.5774 6.47746C10.5657 6.49446 10.5492 6.50753 10.5299 6.51496C10.5112 6.5236 10.4902 6.52622 10.4699 6.52246C10.4474 6.51746 10.4249 6.50746 10.3999 6.48996C10.3624 6.46496 10.3399 6.43746 10.3324 6.40746C10.3243 6.37345 10.3297 6.33759 10.3474 6.30746L10.3499 6.30996ZM10.0599 6.11996L10.1224 6.15246C10.1147 6.16973 10.1129 6.18908 10.1174 6.20746C10.1238 6.22462 10.1363 6.23885 10.1524 6.24746C10.1724 6.25996 10.1874 6.26496 10.2024 6.26246C10.2174 6.26246 10.2274 6.25496 10.2349 6.24246C10.2387 6.23652 10.2405 6.2295 10.2399 6.22246C10.2399 6.21496 10.2349 6.20496 10.2274 6.19746C10.2146 6.182 10.2013 6.16699 10.1874 6.15246C10.1599 6.12496 10.1424 6.10246 10.1374 6.08246C10.1333 6.0696 10.1321 6.05599 10.1338 6.04261C10.1356 6.02922 10.1402 6.01637 10.1474 6.00496C10.1569 5.98954 10.1709 5.97734 10.1874 5.96996C10.2046 5.96204 10.2238 5.95943 10.2424 5.96246C10.2656 5.96636 10.2877 5.97486 10.3074 5.98746C10.3449 6.01246 10.3674 6.03746 10.3749 6.06496C10.3795 6.07902 10.381 6.09389 10.3792 6.10856C10.3775 6.12323 10.3726 6.13735 10.3649 6.14996L10.3024 6.11496C10.3099 6.09746 10.3124 6.08496 10.3074 6.07246C10.3024 6.05996 10.2924 6.04746 10.2749 6.03746C10.2611 6.02754 10.2445 6.02228 10.2274 6.02246C10.2233 6.02274 10.2194 6.02403 10.2159 6.02621C10.2124 6.02839 10.2095 6.03139 10.2074 6.03496C10.2024 6.04246 10.2024 6.04996 10.2049 6.05996C10.2074 6.06996 10.2224 6.08996 10.2474 6.11496C10.2724 6.13996 10.2899 6.15996 10.2974 6.17496C10.3074 6.19064 10.3128 6.20886 10.3128 6.22746C10.3128 6.24607 10.3074 6.26429 10.2974 6.27996C10.2867 6.2974 10.271 6.31131 10.2524 6.31996C10.2337 6.3286 10.2127 6.33122 10.1924 6.32746C10.1667 6.32311 10.1421 6.31377 10.1199 6.29996C10.0876 6.28274 10.0627 6.25428 10.0499 6.21996C10.0403 6.18659 10.0438 6.15077 10.0599 6.11996ZM9.70493 6.02496L9.88743 5.72496L10.1074 5.86246L10.0774 5.91246L9.91743 5.81246L9.87743 5.87996L10.0274 5.97246L9.99493 6.02246L9.84493 5.92996L9.79493 6.01246L9.96243 6.11246L9.93243 6.16246L9.70743 6.02496H9.70493ZM9.18743 5.59996L9.21493 5.54996L9.34993 5.61746L9.28743 5.74246C9.26743 5.74746 9.24243 5.74996 9.21243 5.74746C9.18362 5.74429 9.15565 5.73581 9.12993 5.72246C9.09968 5.70772 9.07382 5.68531 9.05493 5.65746C9.03774 5.63159 9.029 5.60102 9.02993 5.56996C9.0312 5.53764 9.03974 5.50602 9.05493 5.47746C9.06995 5.4474 9.0923 5.42161 9.11993 5.40246C9.14635 5.38419 9.1778 5.37458 9.20993 5.37496C9.23493 5.37496 9.25993 5.38246 9.28993 5.39996C9.32993 5.41746 9.35493 5.44246 9.36743 5.46996C9.38043 5.49726 9.38309 5.52835 9.37493 5.55746L9.30743 5.53746C9.31156 5.52072 9.30979 5.50306 9.30243 5.48746C9.29493 5.47246 9.28243 5.46246 9.26243 5.45246C9.25077 5.44581 9.23784 5.4417 9.22448 5.44041C9.21112 5.43912 9.19764 5.44067 9.18493 5.44496C9.15993 5.45246 9.13743 5.47496 9.11993 5.50996C9.10243 5.54496 9.09493 5.57746 9.10243 5.60496C9.10588 5.61801 9.11215 5.63013 9.12078 5.6405C9.12942 5.65086 9.14022 5.65921 9.15243 5.66496C9.16493 5.67246 9.17993 5.67746 9.19493 5.67746C9.20984 5.67973 9.22501 5.67973 9.23993 5.67746L9.25993 5.63746L9.18743 5.59996ZM6.93243 5.04246L6.98243 4.69246L7.08743 4.70996L7.11493 4.95496L7.21243 4.72996L7.31743 4.74496L7.26743 5.08996L7.19993 5.07996L7.24243 4.80746L7.13243 5.06996L7.06493 5.05996L7.03743 4.77746L6.99743 5.05246L6.93243 5.04246ZM6.57993 4.99996L6.61243 4.64996L6.86993 4.67496L6.86493 4.73496L6.67743 4.71746L6.66993 4.79246L6.84493 4.80996L6.83743 4.86996L6.66243 4.85246L6.65493 4.94746L6.84993 4.96496L6.84493 5.02496L6.57993 4.99996Z" fill="var(--fill-0, #309E3A)"/>
<path d="M5.41225 4.7825C5.41225 4.745 5.41975 4.7175 5.42975 4.6925C5.43852 4.67472 5.45037 4.65864 5.46475 4.645C5.47758 4.63207 5.49288 4.62187 5.50975 4.615C5.53475 4.6075 5.55975 4.6025 5.58475 4.6025C5.63725 4.6025 5.67725 4.6225 5.70975 4.6525C5.72522 4.67161 5.73673 4.69362 5.7436 4.71723C5.75047 4.74083 5.75256 4.76558 5.74975 4.79C5.74975 4.845 5.73225 4.89 5.69975 4.9225C5.68305 4.93794 5.6633 4.9497 5.64176 4.95702C5.62023 4.96434 5.5974 4.96706 5.57475 4.965C5.55241 4.96523 5.53025 4.96091 5.50962 4.95232C5.48899 4.94372 5.47033 4.93103 5.45475 4.915C5.42364 4.87818 5.40837 4.83055 5.41225 4.7825Z" fill="var(--fill-0, #309E3A)"/>
<path d="M5.48501 4.78244C5.48501 4.81994 5.49251 4.84994 5.51001 4.87244C5.52751 4.89244 5.55001 4.90494 5.58001 4.90494C5.59299 4.90584 5.60601 4.90385 5.61812 4.89909C5.63023 4.89433 5.64112 4.88694 5.65001 4.87744C5.66751 4.85744 5.67501 4.82744 5.67751 4.78494C5.67751 4.74494 5.67251 4.71494 5.65251 4.69494C5.64437 4.68486 5.63409 4.67672 5.62242 4.6711C5.61074 4.66548 5.59797 4.66252 5.58501 4.66244C5.57186 4.66202 5.55878 4.66448 5.54668 4.66967C5.53459 4.67485 5.52378 4.68262 5.51501 4.69244C5.49501 4.71244 5.48751 4.74244 5.48501 4.78244Z" fill="#F7FFFF"/>
<path d="M5.82497 4.96246L5.82997 4.61246H5.97997C6.01747 4.61246 6.04247 4.61746 6.05997 4.62496C6.07747 4.62996 6.08997 4.64246 6.09997 4.65746C6.10997 4.67246 6.11497 4.69246 6.11497 4.71496C6.11517 4.73901 6.10623 4.76224 6.08997 4.77996C6.07149 4.79728 6.04771 4.80785 6.02247 4.80996L6.05997 4.83996C6.06997 4.84996 6.08247 4.86996 6.09747 4.89746L6.13997 4.96746H6.05497L6.00497 4.88746L5.96997 4.83746C5.96391 4.83058 5.95615 4.82541 5.94747 4.82246C5.9361 4.81915 5.92432 4.81746 5.91247 4.81746H5.89747V4.96246H5.82497Z" fill="var(--fill-0, #309E3A)"/>
<path d="M5.89988 4.76246H5.94988C5.98488 4.76246 6.00738 4.76246 6.01488 4.75746C6.02238 4.75746 6.02988 4.74996 6.03488 4.74496C6.03988 4.73996 6.04238 4.72746 6.04238 4.71996C6.04238 4.70496 6.03988 4.69496 6.03238 4.68996C6.02738 4.68246 6.01738 4.67746 6.00738 4.67496H5.95738L5.89988 4.67246V4.76246Z" fill="white"/>
<path d="M6.22483 4.6299L6.35483 4.6374C6.38233 4.6374 6.40483 4.6399 6.41983 4.6449C6.43929 4.65195 6.45654 4.66403 6.46983 4.67989C6.48423 4.69737 6.49449 4.71789 6.49983 4.7399C6.50733 4.7624 6.50983 4.78989 6.50733 4.82239C6.50731 4.84791 6.50309 4.87325 6.49483 4.89739C6.48483 4.92239 6.46983 4.9424 6.45233 4.9574C6.43777 4.9694 6.42067 4.97794 6.40233 4.9824C6.38733 4.9874 6.36483 4.9874 6.33983 4.9874L6.20733 4.9799L6.22483 4.6299Z" fill="var(--fill-0, #309E3A)"/>
<path d="M6.29252 4.69252L6.28002 4.92502H6.37502C6.38752 4.92502 6.39752 4.92002 6.40502 4.91252C6.41252 4.90502 6.42002 4.89502 6.42502 4.88002C6.43002 4.86502 6.43502 4.84252 6.43502 4.81502L6.43252 4.75252C6.42895 4.73933 6.42207 4.72729 6.41252 4.71752C6.40422 4.70917 6.39388 4.70313 6.38252 4.70002C6.36362 4.69581 6.34438 4.6933 6.32502 4.69252H6.29252Z" fill="white"/>
<path d="M7.94005 5.25495L8.02255 4.91495L8.13255 4.93995L8.21255 4.96495C8.23005 4.97495 8.24505 4.98995 8.25255 5.01245C8.26255 5.03245 8.26255 5.05495 8.25755 5.08245C8.25255 5.10245 8.24505 5.11995 8.23255 5.13245C8.22338 5.14343 8.21191 5.15226 8.19895 5.15831C8.18599 5.16436 8.17186 5.16748 8.15755 5.16745C8.14005 5.16745 8.11505 5.16245 8.08255 5.15495L8.04005 5.14245L8.01005 5.27245L7.94005 5.25495Z" fill="var(--fill-0, #309E3A)"/>
<path d="M8.07479 4.98992L8.05479 5.08492L8.09229 5.09492C8.11729 5.09992 8.13729 5.10492 8.14729 5.10242C8.15701 5.10107 8.16608 5.09674 8.17324 5.09002C8.18041 5.08331 8.18531 5.07454 8.18729 5.06492C8.18729 5.05242 8.18729 5.04242 8.18229 5.03242C8.1768 5.02226 8.16797 5.0143 8.15729 5.00992L8.10979 4.99742L8.07729 4.98992H8.07479Z" fill="white"/>
<path d="M8.26502 5.35247L8.38252 5.02247L8.52002 5.07247C8.55752 5.08497 8.58002 5.09747 8.59502 5.10747C8.60752 5.11997 8.61752 5.13247 8.62002 5.15247C8.62252 5.17247 8.62502 5.18997 8.62002 5.20997C8.61002 5.23497 8.59502 5.25247 8.57502 5.26497C8.55502 5.27497 8.53002 5.27747 8.50002 5.27247C8.51002 5.28497 8.52002 5.29747 8.52502 5.31247L8.54502 5.37997L8.56002 5.45747L8.48252 5.42997L8.45752 5.33997C8.45298 5.31962 8.44714 5.29958 8.44002 5.27997C8.43671 5.2722 8.43156 5.26533 8.42502 5.25997C8.42002 5.25247 8.41002 5.24747 8.39252 5.24247L8.38002 5.23747L8.33002 5.37747L8.26502 5.35247Z" fill="var(--fill-0, #309E3A)"/>
<path d="M8.39979 5.185L8.44729 5.2025C8.47979 5.215 8.49979 5.22 8.50979 5.22C8.51729 5.22 8.52479 5.22 8.53229 5.2125C8.53979 5.2075 8.54479 5.2 8.54729 5.19C8.55229 5.18 8.55229 5.17 8.54729 5.16C8.54359 5.15031 8.53647 5.14231 8.52729 5.1375L8.42729 5.1025L8.39729 5.185H8.39979Z" fill="white"/>
<path d="M8.67505 5.33999C8.68364 5.31072 8.6981 5.2835 8.71755 5.25999C8.73019 5.24491 8.74543 5.23221 8.76255 5.22249C8.77804 5.21374 8.79497 5.20781 8.81255 5.20499C8.83755 5.20499 8.86255 5.20499 8.89005 5.21499C8.91239 5.22052 8.93331 5.23074 8.95141 5.24496C8.96951 5.25918 8.98439 5.27709 8.99505 5.29749C9.01505 5.33749 9.01505 5.38499 9.00005 5.43999C8.98767 5.48724 8.95712 5.52768 8.91505 5.55249C8.87755 5.57499 8.83255 5.57749 8.78505 5.56249C8.76276 5.55682 8.74191 5.54655 8.72383 5.53234C8.70575 5.51813 8.69083 5.5003 8.68005 5.47999C8.67003 5.45814 8.66444 5.43452 8.66358 5.41049C8.66272 5.38647 8.66662 5.36251 8.67505 5.33999Z" fill="var(--fill-0, #309E3A)"/>
<path d="M8.74529 5.36004C8.73529 5.39754 8.73279 5.43004 8.74529 5.45504C8.75779 5.48004 8.77529 5.49504 8.80279 5.50504C8.82779 5.51254 8.85279 5.51004 8.87779 5.49504C8.90279 5.48254 8.91779 5.45504 8.93029 5.41504C8.94279 5.37754 8.94279 5.34754 8.93029 5.32254C8.92536 5.31068 8.91787 5.30005 8.90837 5.29141C8.89886 5.28277 8.88757 5.27633 8.87529 5.27254C8.86299 5.2683 8.84992 5.26677 8.83697 5.26806C8.82402 5.26936 8.81151 5.27344 8.80029 5.28004C8.77529 5.29504 8.75779 5.32004 8.74529 5.36004Z" fill="white"/>
<path d="M9.35757 5.82744L9.51757 5.51744L9.65007 5.58494C9.67505 5.59693 9.69786 5.61298 9.71757 5.63244C9.73007 5.64494 9.73757 5.65994 9.73757 5.67994C9.73757 5.69994 9.73757 5.71744 9.72757 5.73494C9.71796 5.75742 9.70005 5.77533 9.67757 5.78494C9.65257 5.78994 9.62757 5.78994 9.60007 5.77994C9.61007 5.79494 9.61507 5.80994 9.62007 5.82244C9.62507 5.83744 9.62757 5.85994 9.63007 5.89244L9.63507 5.97244L9.56007 5.93494L9.55007 5.84244C9.54889 5.82147 9.54638 5.8006 9.54257 5.77994C9.54087 5.77059 9.53653 5.76192 9.53007 5.75494L9.50007 5.73744L9.48757 5.72994L9.42007 5.85994L9.35757 5.82744Z" fill="var(--fill-0, #309E3A)"/>
<path d="M9.51261 5.67998L9.56011 5.70498C9.59011 5.71998 9.61011 5.72998 9.61761 5.72998C9.62511 5.72998 9.63511 5.72998 9.64261 5.72498C9.65011 5.72248 9.65511 5.71498 9.66011 5.70498C9.66511 5.69498 9.66761 5.68498 9.66511 5.67498C9.66202 5.66502 9.6559 5.65628 9.64761 5.64998C9.63298 5.64099 9.61796 5.63265 9.60261 5.62498L9.55261 5.59998L9.51261 5.67998Z" fill="white"/>
<path d="M10.6525 6.46744C10.6687 6.44173 10.69 6.41961 10.715 6.40244C10.7318 6.39167 10.7505 6.38405 10.77 6.37994C10.7882 6.37623 10.8069 6.37623 10.825 6.37994C10.85 6.38494 10.8725 6.39494 10.895 6.40994C10.9145 6.42206 10.9312 6.4381 10.9441 6.45704C10.957 6.47598 10.9658 6.4974 10.97 6.51994C10.9775 6.56244 10.965 6.60994 10.935 6.65744C10.9099 6.69875 10.8695 6.72842 10.8225 6.73994C10.8001 6.74477 10.777 6.74482 10.7546 6.74008C10.7322 6.73534 10.711 6.72592 10.6925 6.71244C10.6731 6.70032 10.6563 6.68428 10.6434 6.66534C10.6305 6.6464 10.6217 6.62498 10.6175 6.60244C10.61 6.55744 10.6225 6.51244 10.6525 6.46744Z" fill="var(--fill-0, #309E3A)"/>
<path d="M10.7152 6.50749C10.6902 6.53999 10.6827 6.56999 10.6877 6.59749C10.6896 6.61015 10.6941 6.62228 10.701 6.63306C10.7079 6.64383 10.717 6.65302 10.7277 6.65999C10.7527 6.67749 10.7777 6.68249 10.8027 6.67499C10.8277 6.66749 10.8527 6.64999 10.8752 6.61499C10.8977 6.57999 10.9077 6.54999 10.9027 6.52499C10.9002 6.49999 10.8852 6.47749 10.8627 6.45999C10.8402 6.44249 10.8127 6.43999 10.7877 6.44749C10.7627 6.45249 10.7377 6.47249 10.7127 6.50749H10.7152Z" fill="white"/>
<path d="M7.54507 5.11249L7.60257 4.86749L7.78257 4.90999L7.77507 4.94999L7.64257 4.91999L7.63007 4.97499L7.75257 5.00249L7.74257 5.04499L7.62007 5.01499L7.60507 5.08249L7.74257 5.11499L7.73257 5.15499L7.54507 5.11249Z" fill="var(--fill-0, #309E3A)"/>
</g>
</svg>
