<svg preserveAspectRatio="none" width="100%" height="100%" overflow="visible" style="display: block;" viewBox="0 0 23 22" fill="none" xmlns="http://www.w3.org/2000/svg">
<path id="Vector" d="M8.05615 9.92702L16.1262 1.86702C16.3892 1.59546 16.7037 1.37896 17.0512 1.23013C17.3988 1.08129 17.7725 1.00309 18.1505 1.00009C18.5286 0.997087 18.9035 1.06934 19.2533 1.21263C19.6032 1.35593 19.9211 1.5674 20.1884 1.83475C20.4558 2.10209 20.6672 2.41995 20.8105 2.76982C20.9538 3.11969 21.0261 3.49457 21.0231 3.87264C21.0201 4.2507 20.9419 4.62439 20.793 4.97194C20.6442 5.31949 20.4277 5.63396 20.1562 5.89702L12.0962 13.977M6.06612 12.967C4.40612 12.967 3.06612 14.317 3.06612 15.987C3.06612 17.317 0.566116 17.507 1.06612 18.007C2.14612 19.107 3.55612 20.027 5.06612 20.027C7.26612 20.027 9.06612 18.227 9.06612 15.987C9.06743 15.5918 8.99088 15.2001 8.84082 14.8344C8.69077 14.4687 8.47016 14.1362 8.19158 13.8557C7.91301 13.5753 7.58192 13.3525 7.21723 13.2C6.85255 13.0475 6.4614 12.9684 6.06612 12.967Z" stroke="var(--stroke-0, #0A0A0A)" stroke-width="2" stroke-linecap="round" stroke-linejoin="round"/>
</svg>
