<svg preserveAspectRatio="none" width="100%" height="100%" overflow="visible" style="display: block;" viewBox="0 0 17 12" fill="none" xmlns="http://www.w3.org/2000/svg">
<g id="Vector">
<path d="M4.24529 0H12.7378V12H4.24279L4.24529 0Z" fill="white"/>
<path d="M0 0H4.24529L4.245 12H0V0ZM12.7378 0H16.9825V12H12.74L12.7378 0ZM5.5175 5.8L5.185 5.91L6.72 7.26C6.8375 7.6025 6.68 7.705 6.58 7.885L8.245 7.675L8.205 9.35L8.5525 9.3425L8.475 7.6775L10.1425 7.8775C10.04 7.66 9.9475 7.545 10.0425 7.1975L11.575 5.9225L11.3075 5.8225C11.0875 5.6525 11.4025 5.0075 11.4475 4.6C11.4475 4.6 10.555 4.9075 10.4975 4.745L10.2675 4.3075L9.4525 5.2025C9.365 5.225 9.3275 5.19 9.305 5.115L9.68 3.245L9.085 3.58C9.035 3.6025 8.985 3.5825 8.955 3.525L8.38 2.375L7.79 3.57C7.745 3.6125 7.7 3.6175 7.665 3.5875L7.0925 3.27L7.435 5.1225C7.4075 5.1975 7.3425 5.2175 7.2675 5.1775L6.4875 4.295C6.3875 4.4575 6.3175 4.7225 6.1825 4.7825C6.0475 4.84 5.595 4.67 5.2925 4.6075C5.3975 4.9775 5.7175 5.5975 5.5175 5.8Z" fill="var(--fill-0, #D52B1E)"/>
</g>
</svg>
