<svg preserveAspectRatio="none" width="100%" height="100%" overflow="visible" style="display: block;" viewBox="0 0 16 16" fill="none" xmlns="http://www.w3.org/2000/svg">
<g id="Frame">
<path id="Vector" d="M7.06667 8.93333L5.63333 7.5C5.51111 7.37778 5.35556 7.31667 5.16667 7.31667C4.97778 7.31667 4.82222 7.37778 4.7 7.5C4.57778 7.62222 4.51667 7.77778 4.51667 7.96667C4.51667 8.15556 4.57778 8.31111 4.7 8.43333L6.6 10.3333C6.73333 10.4667 6.88889 10.5333 7.06667 10.5333C7.24444 10.5333 7.4 10.4667 7.53333 10.3333L11.3 6.56667C11.4222 6.44444 11.4833 6.28889 11.4833 6.1C11.4833 5.91111 11.4222 5.75556 11.3 5.63333C11.1778 5.51111 11.0222 5.45 10.8333 5.45C10.6444 5.45 10.4889 5.51111 10.3667 5.63333L7.06667 8.93333ZM3.33333 14C2.96667 14 2.65278 13.8694 2.39167 13.6083C2.13056 13.3472 2 13.0333 2 12.6667V3.33333C2 2.96667 2.13056 2.65278 2.39167 2.39167C2.65278 2.13056 2.96667 2 3.33333 2H12.6667C13.0333 2 13.3472 2.13056 13.6083 2.39167C13.8694 2.65278 14 2.96667 14 3.33333V12.6667C14 13.0333 13.8694 13.3472 13.6083 13.6083C13.3472 13.8694 13.0333 14 12.6667 14H3.33333Z" fill="var(--fill-0, #22C55E)"/>
</g>
</svg>
