<svg preserveAspectRatio="none" width="100%" height="100%" overflow="visible" style="display: block;" viewBox="0 0 109 36" fill="none" xmlns="http://www.w3.org/2000/svg">
<g id="Company logo" clip-path="url(#clip0_1736_62916)">
<path id="Vector" d="M8.52055 9.60346C12.9861 9.60346 16.6233 13.2407 16.6233 17.7422C16.6233 22.2438 12.9861 25.881 8.52055 25.881C4.05502 25.881 0.417774 22.2798 0.417774 17.7422C0.417774 13.2047 4.05502 9.60346 8.52055 9.60346ZM72.0463 9.4234V23.6843C72.0463 24.7646 72.4784 25.0527 73.3067 25.2688L73.3427 25.4489H68.7691V23.6843C68.229 24.9807 67.1126 25.773 65.6721 25.773C63.2232 25.773 61.6027 23.5402 61.6027 20.2271C61.6027 18.3545 62.1429 16.7699 63.1512 15.5815C64.1236 14.4291 65.456 13.8169 66.9325 13.8169C67.6528 13.8169 68.265 13.961 68.7691 14.2851V12.3404C68.7691 11.9083 68.6611 11.6202 68.445 11.4041C68.1569 11.152 67.6888 11.044 66.9685 11.116H66.9325V10.9359L72.0463 9.4234ZM89.4042 13.8529V23.6843C89.4042 24.7646 89.8364 25.0527 90.6646 25.2688V25.4489H86.0911V23.6483C85.5509 24.9447 84.3625 25.773 83.03 25.773C81.4455 25.773 80.4371 25.0527 80.041 23.6483L79.969 23.2881C79.8969 22.928 79.8609 22.5679 79.8609 22.2078V16.95C79.8609 15.7976 79.6089 15.4375 78.6005 15.3654H78.5645V15.1854L83.1381 13.8529V22.1357C83.1381 23.3602 83.6782 24.0444 84.6866 24.0444C85.2988 24.0444 85.803 23.7203 86.0911 23.1801V16.95C86.0911 15.7616 85.875 15.4014 85.0467 15.3294H85.0107V15.1494L89.4042 13.8529ZM56.3809 13.8169C57.6053 13.8169 58.7937 14.2491 59.586 15.0053C60.4863 15.8696 60.9545 17.13 60.9905 18.7866V18.8226H54.1121C53.9681 21.1994 55.4446 23.1441 57.3893 23.2161C58.7937 23.3242 60.0182 22.4599 60.7024 21.0554L60.8825 21.1274C60.4863 23.7563 58.9378 25.737 56.2369 25.737C53.1758 25.737 51.4472 23.1801 51.3752 19.975V19.1467C51.5193 17.7422 51.9514 16.4818 52.7077 15.5455C53.1758 14.9693 53.716 14.5371 54.3642 14.2491C54.9044 13.961 55.6967 13.8169 56.3449 13.8169H56.3809ZM104.025 13.8529C105.97 13.8529 107.158 15.0773 107.158 17.166V23.8643C107.158 24.6566 107.518 25.0527 108.419 25.2688H108.455V25.4489H103.845V17.2741C103.845 15.9776 103.377 15.3294 102.405 15.3294C101.612 15.3294 101.216 15.9056 101 16.4098C101.036 16.6619 101.072 16.914 101.072 17.166V23.9724C101.072 24.8007 101.324 25.0888 102.045 25.2688H102.081V25.4489H97.7951V17.2741C97.7951 15.9776 97.2909 15.3294 96.3546 15.3294C95.5983 15.3294 95.2022 15.8696 95.0221 16.3018V24.0084C95.0221 24.8367 95.2742 25.1248 95.9945 25.3048H96.0305V25.4849H91.745V16.914C91.745 15.7616 91.4569 15.4014 90.4846 15.3294H90.4486V15.1494L95.0221 13.8889V15.7976C95.4903 14.5732 96.5707 13.8529 97.9391 13.8529C99.4877 13.8529 100.568 14.6092 100.928 15.9776C101.396 14.6812 102.585 13.8529 104.025 13.8529ZM38.3387 10.1436L42.6242 20.1911L46.9097 10.1436H51.5192L51.4832 10.3237L51.4309 10.3354C50.6368 10.5164 50.2228 10.8133 50.2228 11.8002V24.0444C50.2948 24.8367 50.727 25.0888 51.4832 25.2688H51.5192V25.4489H45.6492V25.2688H45.6853C46.4415 25.0888 46.8737 24.8367 46.9457 24.0444V12.1243L41.2918 25.4129H40.9676L35.4578 12.4844V23.7563C35.4578 24.7646 35.8899 25.0527 36.7182 25.2328H36.7542V25.4129H33.369V25.2328H33.4051C34.2333 25.0527 34.6655 24.7646 34.6655 23.7563V11.8002C34.6655 10.7919 34.2333 10.5038 33.4051 10.3237H33.369V10.1436H38.3387ZM77.6282 13.8529V23.6843L77.6287 23.7508C77.6464 24.7766 78.0776 25.0572 78.8886 25.2688L78.9246 25.4489H74.3511V16.95C74.3511 15.7976 74.099 15.4375 73.0906 15.3654H73.0546V15.1854L77.6282 13.8529ZM21.485 10.0716C23.6817 10.0716 25.5184 13.5288 25.5184 17.7422C25.5184 21.9917 23.7177 25.4129 21.485 25.4129C19.2522 25.4129 17.4516 21.9917 17.4516 17.7422C17.4516 13.4928 19.2522 10.0716 21.485 10.0716ZM27.6791 10.8639C28.5074 10.8639 29.1196 13.961 29.1196 17.7422C29.1196 21.5235 28.4714 24.6206 27.6791 24.6206C26.8947 24.6206 26.2516 21.5852 26.2388 17.8555L26.2386 17.7422C26.2386 13.961 26.8868 10.8639 27.6791 10.8639ZM67.4727 14.4651C66.0322 14.4651 65.1319 16.3738 65.1319 19.3268C65.1319 20.7313 65.384 21.9557 65.8161 22.784C66.2123 23.5762 66.7885 24.0084 67.4367 24.0084C68.0849 24.0084 68.5531 23.7203 68.7691 23.1801V15.2574C68.5171 14.7532 68.0489 14.4651 67.4727 14.4651ZM56.3449 14.5011C55.0485 14.5011 54.2922 16.0497 54.1842 18.2104V18.2464H58.1095C58.1815 16.5538 57.8934 15.4375 57.3532 14.8973C57.0651 14.6452 56.741 14.5011 56.3449 14.5011ZM75.8636 9.53144C76.9079 9.53144 77.7002 10.3237 77.7002 11.3681C77.7002 12.4124 76.9079 13.2047 75.8636 13.2047C74.8192 13.2047 74.0269 12.4124 74.0269 11.3681C74.0269 10.3237 74.8192 9.53144 75.8636 9.53144Z" fill="var(--fill-0, #94A3B8)"/>
</g>
<defs>
<clipPath id="clip0_1736_62916">
<rect width="108.9" height="36" fill="white"/>
</clipPath>
</defs>
</svg>
