<svg preserveAspectRatio="none" width="100%" height="100%" overflow="visible" style="display: block;" viewBox="0 0 124 36" fill="none" xmlns="http://www.w3.org/2000/svg">
<g id="Company logo">
<path id="Union" fill-rule="evenodd" clip-rule="evenodd" d="M7.93667 15.0544L14.9886 10.5558L22.0405 15.0301L14.9886 19.5287L22.004 24.0516L29.0559 19.553L22.004 15.0544L29.0559 10.5558L22.004 6.05713L14.9886 10.5558L7.93667 6.05713L0.884766 10.5558L7.93667 15.0301L0.884766 19.5287L7.93667 24.0516L14.9886 19.553L7.93667 15.0544ZM14.9521 20.9999L7.9002 25.4985L14.9521 29.9971L22.004 25.4985L14.9521 20.9999ZM40.2903 10.5557H34.588V25.4863H40.3998C44.1202 25.4863 46.9288 23.3099 46.9288 18.4708V17.4617C46.9288 12.6591 43.9257 10.5557 40.2903 10.5557ZM37.7735 22.7628V13.267H40.1079C42.2114 13.267 43.6704 14.6166 43.6704 17.6197V18.41C43.6704 21.4132 42.2843 22.7628 40.2174 22.7628H37.7735ZM51.1721 13.4129H48.6675V25.5227H51.8165V19.9663C51.8165 17.413 52.4488 16.5133 55.0385 16.5133H56.3517V13.2913H55.5614C53.312 13.2913 52.0719 14.3126 51.5855 16.2215L51.1721 13.4129ZM56.9839 19.3706V19.711C56.9839 23.699 59.1967 25.7902 63.0996 25.8267C66.7714 25.8267 69.2153 23.6868 69.2153 19.711V19.3706C69.2153 15.3218 66.6985 13.109 63.0996 13.109C59.5736 13.109 56.9839 15.3218 56.9839 19.3706ZM65.9933 19.3706V19.6745C65.9933 21.8509 64.8626 23.0546 63.0631 23.091C61.2637 23.091 60.1329 21.8509 60.1329 19.6745V19.3706C60.1329 17.0118 61.3001 15.7717 63.0631 15.7717C64.8626 15.7717 65.9933 17.1212 65.9933 19.3706ZM73.4951 13.4129H70.8688L70.8324 29.7052H73.9085V23.5895C74.5529 24.9756 75.866 25.8389 77.7749 25.8389C80.6321 25.8389 82.8814 23.7354 82.8814 19.7596V19.4192C82.8814 15.3218 80.8509 13.109 77.7749 13.109C75.7809 13.109 74.4313 14.1667 73.799 15.6987L73.4951 13.4129ZM79.6837 19.407V19.6745C79.6837 21.936 78.5651 23.091 76.7535 23.1275C74.9906 23.1275 73.8598 21.7779 73.8598 19.638V19.407C73.8598 17.1577 75.027 15.8081 76.79 15.8081C78.4436 15.8081 79.6837 16.9997 79.6837 19.407ZM87.2706 25.4984L87.5381 23.2856C88.1703 24.854 89.4834 25.7902 91.5139 25.8389C94.59 25.8389 96.6205 23.5409 96.6205 19.5286V19.1517C96.6205 15.1394 94.4806 13.1454 91.5869 13.109C89.678 13.109 88.3284 13.9722 87.6475 15.5528V9.36415H84.5714V25.4984H87.2706ZM93.3863 19.2247V19.5286C93.3863 21.936 92.3042 23.091 90.4561 23.091C88.7296 23.091 87.5624 21.7779 87.5624 19.5286V19.2611C87.5624 17.1577 88.7661 15.7717 90.4926 15.7717C92.1826 15.7717 93.3863 17.0118 93.3863 19.2247ZM97.9701 19.3706V19.711C97.9701 23.699 100.183 25.7902 104.086 25.8267C107.721 25.8267 110.201 23.6868 110.201 19.711V19.3706C110.201 15.3218 107.685 13.109 104.086 13.109C100.56 13.109 97.9701 15.3218 97.9701 19.3706ZM107.004 19.3706V19.6745C107.004 21.8509 105.885 23.0546 104.074 23.091C102.274 23.091 101.143 21.8509 101.143 19.6745V19.3706C101.143 17.0118 102.311 15.7717 104.074 15.7717C105.873 15.7717 107.004 17.1212 107.004 19.3706ZM110.08 13.4129L114.323 19.2247L109.715 25.4984H113.436L116.135 21.4861L118.907 25.4984H122.469L117.934 19.1882L122.238 13.4129H118.639L116.159 17.0483L113.715 13.4129H110.08Z" fill="var(--fill-0, #94A3B8)"/>
</g>
</svg>
