<svg preserveAspectRatio="none" width="100%" height="100%" overflow="visible" style="display: block;" viewBox="0 0 99 36" fill="none" xmlns="http://www.w3.org/2000/svg">
<g id="Company logo">
<path id="Vector" d="M20.9814 5.30859H4.56229C2.28613 5.30859 0.441406 7.15332 0.441406 9.42948V25.8486C0.441406 28.1247 2.28613 29.9694 4.56229 29.9694H20.9814C23.2575 29.9694 25.1023 28.1247 25.1023 25.8486V9.42948C25.1023 7.15332 23.2575 5.30859 20.9814 5.30859ZM20.6194 24.1848C20.6194 24.9039 20.0367 25.4866 19.3176 25.4866H6.22602C5.50697 25.4866 4.9243 24.9039 4.9243 24.1848V11.0932C4.9243 10.3742 5.50697 9.79148 6.22602 9.79148H19.3176C20.0367 9.79148 20.6194 10.3742 20.6194 11.0932V24.1848ZM10.156 20.9863C9.74191 20.9863 9.40966 20.6516 9.40966 20.2375V15.0108C9.40966 14.5967 9.74191 14.2595 10.156 14.2595H15.3902C15.8017 14.2595 16.1365 14.5942 16.1365 15.0108V20.235C16.1365 20.6491 15.8017 20.9838 15.3902 20.9838H10.156V20.9863ZM31.6406 20.6293H34.3333C34.4672 22.1541 35.5012 23.3443 37.5864 23.3443C39.4485 23.3443 40.594 22.4244 40.594 21.0334C40.594 19.7317 39.6964 19.149 38.0798 18.7672L35.9921 18.3184C33.7259 17.825 32.02 16.367 32.02 13.9868C32.02 11.361 34.3532 9.56585 37.3831 9.56585C40.5915 9.56585 42.6569 11.2494 42.8355 13.7388H40.232C39.9221 12.5735 38.9551 11.8792 37.3856 11.8792C35.7243 11.8792 34.5813 12.7768 34.5813 13.9223C34.5813 15.0678 35.5681 15.7621 37.274 16.1439L39.3394 16.5927C41.6056 17.0861 43.1528 18.4548 43.1528 20.8549C43.1528 23.9071 40.8643 25.7246 37.5889 25.7246C33.9069 25.7221 31.8663 23.7261 31.6406 20.6293ZM52.7856 29.9694V25.5039L52.9616 23.5451H52.7856C52.1682 24.9535 50.8714 25.7246 49.111 25.7246C46.272 25.7246 44.1595 23.4137 44.1595 19.8705C44.1595 16.3274 46.272 14.0165 49.111 14.0165C50.8491 14.0165 52.0814 14.8298 52.7856 16.1067H52.9616V14.2347H55.2948V29.9694H52.7856ZM52.8724 19.8681C52.8724 17.6018 51.4863 16.2803 49.7904 16.2803C48.0944 16.2803 46.7084 17.6018 46.7084 19.8681C46.7084 22.1343 48.0944 23.4559 49.7904 23.4559C51.4863 23.4559 52.8724 22.1368 52.8724 19.8681ZM57.1569 21.0359V14.2347H59.6661V20.8152C59.6661 22.598 60.524 23.4559 61.9547 23.4559C63.7151 23.4559 64.8606 22.2012 64.8606 20.2425V14.2347H67.3699V25.5014H65.0367V23.1682H64.8606C64.3102 24.6658 63.1002 25.7221 61.2307 25.7221C58.5429 25.7221 57.1569 24.0063 57.1569 21.0359ZM68.8972 22.355C68.8972 20.2425 70.3725 19.0102 72.9908 18.8564L76.0926 18.6581V17.7779C76.0926 16.7216 75.3215 16.0844 73.9578 16.0844C72.7032 16.0844 71.9544 16.7216 71.756 17.6241H69.2468C69.5121 15.3356 71.404 14.014 73.9553 14.014C76.839 14.014 78.5994 15.2463 78.5994 17.6241V25.5014H76.2662V23.4112H76.0902C75.562 24.7973 74.4612 25.7221 72.3486 25.7221C70.3279 25.7221 68.8972 24.3584 68.8972 22.355ZM76.0951 20.969V20.3739L73.5636 20.5499C72.1999 20.6367 71.5825 21.145 71.5825 22.1566C71.5825 23.0145 72.2867 23.6319 73.276 23.6319C75.0612 23.6319 76.0951 22.4889 76.0951 20.969ZM80.4714 25.5039V14.2347H82.8046V16.3918H82.9806C83.3104 14.9166 84.4336 14.2347 86.1048 14.2347H87.2503V16.5009H85.8196C84.1906 16.5009 82.9806 17.5572 82.9806 19.5606V25.5014H80.4714V25.5039ZM98.7302 20.3317H90.1686C90.3 22.3996 91.753 23.5674 93.3597 23.5674C94.7234 23.5674 95.5813 23.017 96.0673 22.0922H98.5542C97.8723 24.3807 95.8689 25.7221 93.3374 25.7221C90.0149 25.7221 87.6817 23.2352 87.6817 19.8681C87.6817 16.5009 90.0794 14.014 93.3597 14.014C96.6599 14.014 98.817 16.2803 98.817 19.0969C98.8195 19.6499 98.7749 19.935 98.7302 20.3317ZM96.3326 18.5936C96.2458 17.0315 94.9466 15.9753 93.3622 15.9753C91.8646 15.9753 90.6124 16.9224 90.3025 18.5936H96.3326Z" fill="var(--fill-0, #94A3B8)"/>
</g>
</svg>
