<svg preserveAspectRatio="none" width="100%" height="100%" overflow="visible" style="display: block;" viewBox="0 0 16 14" fill="none" xmlns="http://www.w3.org/2000/svg">
<path id="Vector" d="M2.99837 12.9953H12.3317M7.373 1.17256C7.40177 1.1203 7.44404 1.07672 7.49541 1.04637C7.54677 1.01601 7.60534 1 7.665 1C7.72466 1 7.78322 1.01601 7.83459 1.04637C7.88595 1.07672 7.92822 1.1203 7.957 1.17256L9.925 4.90856C9.97193 4.99507 10.0374 5.07012 10.1168 5.12831C10.1962 5.1865 10.2874 5.2264 10.3841 5.24514C10.4807 5.26387 10.5802 5.26099 10.6756 5.23668C10.771 5.21238 10.8598 5.16726 10.9357 5.10456L13.787 2.6619C13.8417 2.61738 13.9092 2.59137 13.9796 2.58763C14.0501 2.58389 14.1199 2.60259 14.1791 2.64106C14.2382 2.67953 14.2836 2.73577 14.3088 2.80169C14.3339 2.86761 14.3375 2.93981 14.319 3.0079L12.4297 9.83856C12.3911 9.97834 12.308 10.1017 12.193 10.19C12.078 10.2783 11.9373 10.3267 11.7923 10.3279H3.53833C3.39322 10.3269 3.2524 10.2786 3.13726 10.1902C3.02211 10.1019 2.93893 9.97845 2.90033 9.83856L1.01166 3.00856C0.993163 2.94048 0.996744 2.86828 1.02189 2.80236C1.04704 2.73644 1.09245 2.68019 1.1516 2.64173C1.21074 2.60326 1.28057 2.58455 1.35102 2.5883C1.42148 2.59204 1.48893 2.61804 1.54366 2.66256L4.39433 5.10523C4.4702 5.16792 4.559 5.21304 4.65437 5.23735C4.74974 5.26165 4.84931 5.26454 4.94593 5.2458C5.04255 5.22707 5.13382 5.18717 5.21319 5.12898C5.29256 5.07078 5.35806 4.99574 5.405 4.90923L7.373 1.17256Z" stroke="var(--stroke-0, #D97706)" stroke-width="1.5" stroke-linecap="round" stroke-linejoin="round"/>
</svg>
