<svg width="16" height="16" viewBox="0 0 16 16" fill="none" xmlns="http://www.w3.org/2000/svg">
<path d="M7.99996 13.3332H14M9.99996 3.33317L12 5.33317M10.9173 2.41449C11.1827 2.1491 11.5426 2 11.9179 2C12.2933 2 12.6532 2.1491 12.9186 2.41449C13.184 2.67988 13.3331 3.03983 13.3331 3.41516C13.3331 3.79048 13.184 4.15043 12.9186 4.41582L4.91194 12.4232C4.75334 12.5818 4.55729 12.6978 4.34194 12.7605L2.42728 13.3192C2.36991 13.3359 2.3091 13.3369 2.25122 13.3221C2.19333 13.3072 2.1405 13.2771 2.09824 13.2349C2.05599 13.1926 2.02587 13.1398 2.01104 13.0819C1.99621 13.024 1.99721 12.9632 2.01394 12.9058L2.57261 10.9912C2.63542 10.776 2.75144 10.5802 2.90994 10.4218L10.9173 2.41449Z" stroke="#6B7280" stroke-width="1.5" stroke-linecap="round" stroke-linejoin="round"/>
</svg>
