<svg width="17" height="17" viewBox="0 0 17 17" fill="none" xmlns="http://www.w3.org/2000/svg">
<path d="M8.12492 8.9668C8.49311 8.9668 8.79159 8.66832 8.79159 8.30013C8.79159 7.93194 8.49311 7.63346 8.12492 7.63346C7.75673 7.63346 7.45825 7.93194 7.45825 8.30013C7.45825 8.66832 7.75673 8.9668 8.12492 8.9668Z" stroke="#0A0A0A" stroke-width="1.33" stroke-linecap="round" stroke-linejoin="round"/>
<path d="M8.12492 4.30013C8.49311 4.30013 8.79159 4.00165 8.79159 3.63346C8.79159 3.26527 8.49311 2.9668 8.12492 2.9668C7.75673 2.9668 7.45825 3.26527 7.45825 3.63346C7.45825 4.00165 7.75673 4.30013 8.12492 4.30013Z" stroke="#0A0A0A" stroke-width="1.33" stroke-linecap="round" stroke-linejoin="round"/>
<path d="M8.12492 13.6335C8.49311 13.6335 8.79159 13.335 8.79159 12.9668C8.79159 12.5986 8.49311 12.3001 8.12492 12.3001C7.75673 12.3001 7.45825 12.5986 7.45825 12.9668C7.45825 13.335 7.75673 13.6335 8.12492 13.6335Z" stroke="#0A0A0A" stroke-width="1.33" stroke-linecap="round" stroke-linejoin="round"/>
</svg>
