<svg preserveAspectRatio="none" width="100%" height="100%" overflow="visible" style="display: block;" viewBox="0 0 3 13" fill="none" xmlns="http://www.w3.org/2000/svg">
<g id="Vector">
<path d="M1.66667 7C2.03486 7 2.33333 6.70152 2.33333 6.33333C2.33333 5.96514 2.03486 5.66667 1.66667 5.66667C1.29848 5.66667 1 5.96514 1 6.33333C1 6.70152 1.29848 7 1.66667 7Z" stroke="var(--stroke-0, #0A0A0A)" stroke-width="1.33" stroke-linecap="round" stroke-linejoin="round"/>
<path d="M1.66667 2.33333C2.03486 2.33333 2.33333 2.03486 2.33333 1.66667C2.33333 1.29848 2.03486 1 1.66667 1C1.29848 1 1 1.29848 1 1.66667C1 2.03486 1.29848 2.33333 1.66667 2.33333Z" stroke="var(--stroke-0, #0A0A0A)" stroke-width="1.33" stroke-linecap="round" stroke-linejoin="round"/>
<path d="M1.66667 11.6667C2.03486 11.6667 2.33333 11.3682 2.33333 11C2.33333 10.6318 2.03486 10.3333 1.66667 10.3333C1.29848 10.3333 1 10.6318 1 11C1 11.3682 1.29848 11.6667 1.66667 11.6667Z" stroke="var(--stroke-0, #0A0A0A)" stroke-width="1.33" stroke-linecap="round" stroke-linejoin="round"/>
</g>
</svg>
