<svg preserveAspectRatio="none" width="100%" height="100%" overflow="visible" style="display: block;" viewBox="0 0 13 16" fill="none" xmlns="http://www.w3.org/2000/svg">
<path id="Vector" d="M7.66667 1V3.66667C7.66667 4.02029 7.80714 4.35943 8.05719 4.60948C8.30724 4.85952 8.64638 5 9 5H11.6667M4.33333 9.66667H8.33333M6.33333 11.6667V7.66667M8.33333 1H2.33333C1.97971 1 1.64057 1.14048 1.39052 1.39052C1.14048 1.64057 1 1.97971 1 2.33333V13C1 13.3536 1.14048 13.6928 1.39052 13.9428C1.64057 14.1929 1.97971 14.3333 2.33333 14.3333H10.3333C10.687 14.3333 11.0261 14.1929 11.2761 13.9428C11.5262 13.6928 11.6667 13.3536 11.6667 13V4.33333L8.33333 1Z" stroke="var(--stroke-0, #171717)" stroke-width="1.5" stroke-linecap="round" stroke-linejoin="round"/>
</svg>
