<svg width="17" height="16" viewBox="0 0 17 16" fill="none" xmlns="http://www.w3.org/2000/svg">
<path d="M6.76042 8.66666C7.12861 8.66666 7.42708 8.36818 7.42708 7.99999C7.42708 7.6318 7.12861 7.33332 6.76042 7.33332C6.39223 7.33332 6.09375 7.6318 6.09375 7.99999C6.09375 8.36818 6.39223 8.66666 6.76042 8.66666Z" stroke="#171717" stroke-width="1.5" stroke-linecap="round" stroke-linejoin="round"/>
<path d="M6.76042 3.99999C7.12861 3.99999 7.42708 3.70151 7.42708 3.33332C7.42708 2.96513 7.12861 2.66666 6.76042 2.66666C6.39223 2.66666 6.09375 2.96513 6.09375 3.33332C6.09375 3.70151 6.39223 3.99999 6.76042 3.99999Z" stroke="#171717" stroke-width="1.5" stroke-linecap="round" stroke-linejoin="round"/>
<path d="M6.76042 13.3333C7.12861 13.3333 7.42708 13.0348 7.42708 12.6667C7.42708 12.2985 7.12861 12 6.76042 12C6.39223 12 6.09375 12.2985 6.09375 12.6667C6.09375 13.0348 6.39223 13.3333 6.76042 13.3333Z" stroke="#171717" stroke-width="1.5" stroke-linecap="round" stroke-linejoin="round"/>
<path d="M10.7604 8.66666C11.1286 8.66666 11.4271 8.36818 11.4271 7.99999C11.4271 7.6318 11.1286 7.33332 10.7604 7.33332C10.3922 7.33332 10.0938 7.6318 10.0938 7.99999C10.0938 8.36818 10.3922 8.66666 10.7604 8.66666Z" stroke="#171717" stroke-width="1.5" stroke-linecap="round" stroke-linejoin="round"/>
<path d="M10.7604 3.99999C11.1286 3.99999 11.4271 3.70151 11.4271 3.33332C11.4271 2.96513 11.1286 2.66666 10.7604 2.66666C10.3922 2.66666 10.0938 2.96513 10.0938 3.33332C10.0938 3.70151 10.3922 3.99999 10.7604 3.99999Z" stroke="#171717" stroke-width="1.5" stroke-linecap="round" stroke-linejoin="round"/>
<path d="M10.7604 13.3333C11.1286 13.3333 11.4271 13.0348 11.4271 12.6667C11.4271 12.2985 11.1286 12 10.7604 12C10.3922 12 10.0938 12.2985 10.0938 12.6667C10.0938 13.0348 10.3922 13.3333 10.7604 13.3333Z" stroke="#171717" stroke-width="1.5" stroke-linecap="round" stroke-linejoin="round"/>
</svg>
