<svg preserveAspectRatio="none" width="100%" height="100%" overflow="visible" style="display: block;" viewBox="0 0 15 13" fill="none" xmlns="http://www.w3.org/2000/svg">
<path id="Vector" d="M7.66667 1V9M7.66667 9L5 6.33333M7.66667 9L10.3333 6.33333M5 2.33333H2.33333C1.97971 2.33333 1.64057 2.47381 1.39052 2.72386C1.14048 2.97391 1 3.31304 1 3.66667V10.3333C1 10.687 1.14048 11.0261 1.39052 11.2761C1.64057 11.5262 1.97971 11.6667 2.33333 11.6667H13C13.3536 11.6667 13.6928 11.5262 13.9428 11.2761C14.1929 11.0261 14.3333 10.687 14.3333 10.3333V3.66667C14.3333 3.31304 14.1929 2.97391 13.9428 2.72386C13.6928 2.47381 13.3536 2.33333 13 2.33333H10.3333" stroke="var(--stroke-0, #5E19CF)" stroke-width="1.33" stroke-linecap="round" stroke-linejoin="round"/>
</svg>
