<svg preserveAspectRatio="none" width="100%" height="100%" overflow="visible" style="display: block;" viewBox="0 0 16 12" fill="none" xmlns="http://www.w3.org/2000/svg">
<g id="Vector">
<path d="M0 0L16 2.1958e-07V3.69231L2.0382e-07 3.69231L0 0Z" fill="#FF9933"/>
<path d="M2.0382e-07 3.69231L16 3.69231V7.38457H4.07636e-07L2.0382e-07 3.69231Z" fill="white"/>
<path d="M4.07636e-07 7.38457H16V11.0769H6.11456e-07L4.07636e-07 7.38457Z" fill="#128807"/>
<path d="M7.99968 7.01527C8.88333 7.01527 9.59968 6.35403 9.59968 5.53835C9.59968 4.72267 8.88333 4.06142 7.99968 4.06142C7.11602 4.06142 6.39968 4.72267 6.39968 5.53835C6.39968 6.35403 7.11602 7.01527 7.99968 7.01527Z" fill="var(--fill-0, #000088)"/>
<path d="M7.9998 6.83069C8.773 6.83069 9.3998 6.2521 9.3998 5.53838C9.3998 4.82466 8.773 4.24607 7.9998 4.24607C7.2266 4.24607 6.5998 4.82466 6.5998 5.53838C6.5998 6.2521 7.2266 6.83069 7.9998 6.83069Z" fill="white"/>
<path d="M7.99999 5.79695C8.15463 5.79695 8.27999 5.68123 8.27999 5.53849C8.27999 5.39574 8.15463 5.28002 7.99999 5.28002C7.84535 5.28002 7.71999 5.39574 7.71999 5.53849C7.71999 5.68123 7.84535 5.79695 7.99999 5.79695Z" fill="var(--fill-0, #000088)"/>
<path d="M9.37841 5.77389C9.41783 5.77868 9.454 5.75306 9.45919 5.71667C9.46438 5.68028 9.43663 5.64689 9.39721 5.6421C9.35778 5.63731 9.32161 5.66293 9.31642 5.69932C9.31123 5.73571 9.33899 5.7691 9.37841 5.77389Z" fill="var(--fill-0, #000088)"/>
<path d="M7.9998 6.83069L8.04802 6.05569L8.00002 5.68646L7.95202 6.05569L7.9998 6.83069Z" fill="var(--fill-0, #000088)"/>
<path d="M9.26515 6.09605C9.30136 6.10962 9.34347 6.09273 9.35922 6.05834C9.37497 6.02395 9.35839 5.98507 9.32219 5.9715C9.28599 5.95794 9.24387 5.97482 9.22812 6.00921C9.21237 6.04361 9.22895 6.08248 9.26515 6.09605Z" fill="var(--fill-0, #000088)"/>
<path d="M7.63521 6.78788L7.89985 6.04861L7.96102 5.68076L7.81199 6.02718L7.63521 6.78788Z" fill="var(--fill-0, #000088)"/>
<path d="M9.06493 6.37956C9.09592 6.4014 9.14112 6.39508 9.16588 6.36544C9.19065 6.33581 9.18561 6.29409 9.15462 6.27226C9.12363 6.25042 9.07843 6.25674 9.05367 6.28638C9.0289 6.31601 9.03394 6.35773 9.06493 6.37956Z" fill="var(--fill-0, #000088)"/>
<path d="M7.29824 6.65889L7.76039 6.00733L7.9215 5.66574L7.68051 5.9649L7.29824 6.65889Z" fill="var(--fill-0, #000088)"/>
<path d="M8.79318 6.60538C8.81689 6.63405 8.86209 6.63881 8.89413 6.61602C8.92617 6.59322 8.93292 6.5515 8.90921 6.52283C8.8855 6.49416 8.8403 6.4894 8.80826 6.51219C8.77622 6.53499 8.76947 6.57671 8.79318 6.60538Z" fill="var(--fill-0, #000088)"/>
<path d="M7.00815 6.45322L7.63644 5.93395L7.88712 5.64189L7.57072 5.87326L7.00815 6.45322Z" fill="var(--fill-0, #000088)"/>
<path d="M8.47072 6.75722C8.48654 6.79169 8.52866 6.8087 8.56479 6.79521C8.60092 6.78172 8.61738 6.74284 8.60156 6.70837C8.58573 6.6739 8.54362 6.65689 8.50748 6.67038C8.47135 6.68387 8.45489 6.72275 8.47072 6.75722Z" fill="var(--fill-0, #000088)"/>
<path d="M6.78949 6.18309L7.54057 5.8375L7.8612 5.61395L7.49041 5.75759L6.78949 6.18309Z" fill="var(--fill-0, #000088)"/>
<path d="M8.11301 6.82758C8.11881 6.86454 8.15498 6.89108 8.19379 6.88686C8.23261 6.88264 8.25937 6.84925 8.25358 6.81229C8.24778 6.77533 8.21161 6.74879 8.17279 6.75302C8.13398 6.75724 8.10721 6.79062 8.11301 6.82758Z" fill="var(--fill-0, #000088)"/>
<path d="M6.64986 5.8708L7.47335 5.71852L7.8459 5.57931L7.4468 5.62816L6.64986 5.8708Z" fill="var(--fill-0, #000088)"/>
<path d="M7.74539 6.8101C7.74083 6.84594 7.76961 6.87933 7.80967 6.88466C7.84973 6.89 7.8859 6.86527 7.89045 6.82943C7.89501 6.79358 7.86623 6.7602 7.82617 6.75486C7.78611 6.74952 7.74994 6.77425 7.74539 6.8101Z" fill="var(--fill-0, #000088)"/>
<path d="M6.60165 5.5302L7.44136 5.57743L7.84002 5.54668L7.43973 5.5053L6.60165 5.5302Z" fill="var(--fill-0, #000088)"/>
<path d="M7.39638 6.70639C7.38144 6.74008 7.39934 6.77896 7.43636 6.79323C7.47338 6.8075 7.5155 6.79176 7.53043 6.75807C7.54537 6.72439 7.52747 6.68551 7.49045 6.67124C7.45344 6.65697 7.41132 6.67271 7.39638 6.70639Z" fill="var(--fill-0, #000088)"/>
<path d="M6.64659 5.20296L7.44659 5.44681L7.84523 5.5013L7.47055 5.36331L6.64659 5.20296Z" fill="var(--fill-0, #000088)"/>
<path d="M7.09129 6.52365C7.06652 6.55329 7.07154 6.59501 7.10252 6.61684C7.1335 6.63866 7.1787 6.63233 7.20347 6.60269C7.22825 6.57305 7.22322 6.53132 7.19224 6.5095C7.16126 6.48767 7.11607 6.49401 7.09129 6.52365Z" fill="var(--fill-0, #000088)"/>
<path d="M6.78856 4.89364L7.48948 5.31914L7.86027 5.46277L7.53964 5.23922L6.78856 4.89364Z" fill="var(--fill-0, #000088)"/>
<path d="M6.84591 6.27285C6.81379 6.29571 6.80692 6.33743 6.83055 6.36604C6.85419 6.39464 6.89939 6.39929 6.93151 6.37643C6.96362 6.35357 6.9705 6.31185 6.94686 6.28325C6.92322 6.25464 6.87802 6.24999 6.84591 6.27285Z" fill="var(--fill-0, #000088)"/>
<path d="M7.01108 4.62572L7.56808 5.20491L7.88532 5.43274L7.63853 5.13991L7.01108 4.62572Z" fill="var(--fill-0, #000088)"/>
<path d="M6.67896 5.97169C6.64178 5.98612 6.62363 6.025 6.63841 6.05852C6.65319 6.09205 6.69531 6.10752 6.73248 6.09308C6.76966 6.07865 6.78781 6.03977 6.77303 6.00625C6.75825 5.97272 6.71613 5.95725 6.67896 5.97169Z" fill="var(--fill-0, #000088)"/>
<path d="M7.30111 4.41976L7.67665 5.11317L7.91865 5.40965L7.76224 5.06749L7.30111 4.41976Z" fill="var(--fill-0, #000088)"/>
<path d="M6.60301 5.64129C6.56315 5.64646 6.53468 5.67985 6.53943 5.71586C6.54418 5.75186 6.58035 5.77686 6.62021 5.77168C6.66008 5.7665 6.68855 5.73312 6.6838 5.69711C6.67905 5.66111 6.64288 5.63611 6.60301 5.64129Z" fill="var(--fill-0, #000088)"/>
<path d="M7.63912 4.29056L7.80586 5.05081L7.9564 5.39511L7.90225 5.0268L7.63912 4.29056Z" fill="var(--fill-0, #000088)"/>
<path d="M6.62326 5.30232C6.58448 5.29806 6.54831 5.32455 6.54248 5.36148C6.53664 5.39841 6.56335 5.43179 6.60212 5.43604C6.6409 5.4403 6.67707 5.41381 6.68291 5.37688C6.68874 5.33996 6.66204 5.30657 6.62326 5.30232Z" fill="var(--fill-0, #000088)"/>
<path d="M8.01031 4.24665L7.9589 5.0218L7.99108 5.3899L8.03566 5.02042L8.01031 4.24665Z" fill="var(--fill-0, #000088)"/>
<path d="M6.73612 4.981C6.69993 4.96742 6.65781 4.98428 6.64205 5.01866C6.62629 5.05304 6.64285 5.09192 6.67904 5.1055C6.71523 5.11908 6.75735 5.10221 6.77311 5.06783C6.78887 5.03346 6.77231 4.99458 6.73612 4.981Z" fill="var(--fill-0, #000088)"/>
<path d="M8.36616 4.28916L8.10151 5.02839L8.04024 5.39624L8.18925 5.04985L8.36616 4.28916Z" fill="var(--fill-0, #000088)"/>
<path d="M6.93518 4.6975C6.90421 4.67567 6.85901 4.68199 6.83423 4.71162C6.80944 4.74125 6.81446 4.78297 6.84543 4.8048C6.8764 4.82664 6.9216 4.82032 6.94638 4.79069C6.97116 4.76106 6.96615 4.71933 6.93518 4.6975Z" fill="var(--fill-0, #000088)"/>
<path d="M8.70238 4.41802L8.24022 5.06958L8.07902 5.41117L8.31999 5.11201L8.70238 4.41802Z" fill="var(--fill-0, #000088)"/>
<path d="M7.20634 4.47113C7.18271 4.44251 7.13751 4.43783 7.10539 4.46068C7.07328 4.48352 7.0664 4.52524 7.09004 4.55386C7.11368 4.58248 7.15887 4.58716 7.19099 4.56431C7.22311 4.54147 7.22998 4.49975 7.20634 4.47113Z" fill="var(--fill-0, #000088)"/>
<path d="M8.99146 4.62311L8.3631 5.14265L8.11216 5.43467L8.4285 5.20311L8.99146 4.62311Z" fill="var(--fill-0, #000088)"/>
<path d="M7.5303 4.32C7.51448 4.28553 7.47236 4.26851 7.43623 4.282C7.4001 4.29549 7.38364 4.33437 7.39947 4.36884C7.41529 4.40331 7.45741 4.42032 7.49354 4.40683C7.52967 4.39335 7.54613 4.35447 7.5303 4.32Z" fill="var(--fill-0, #000088)"/>
<path d="M9.21153 4.89398L8.46045 5.23956L8.13982 5.46311L8.51061 5.31948L9.21153 4.89398Z" fill="var(--fill-0, #000088)"/>
<path d="M7.88663 4.24948C7.88083 4.21252 7.84466 4.18598 7.80585 4.1902C7.76703 4.19443 7.74026 4.22781 7.74606 4.26477C7.75186 4.30173 7.78803 4.32827 7.82684 4.32405C7.86566 4.31983 7.89243 4.28644 7.88663 4.24948Z" fill="var(--fill-0, #000088)"/>
<path d="M9.34978 5.20642L8.52628 5.3587L8.15374 5.4979L8.55284 5.44906L9.34978 5.20642Z" fill="var(--fill-0, #000088)"/>
<path d="M8.255 4.26706C8.25948 4.2313 8.23058 4.19791 8.19044 4.19249C8.15031 4.18708 8.11414 4.21168 8.10966 4.24744C8.10518 4.28321 8.13409 4.31659 8.17422 4.32201C8.21436 4.32743 8.25053 4.30283 8.255 4.26706Z" fill="var(--fill-0, #000088)"/>
<path d="M9.39833 5.54776L8.55865 5.50017L8.16014 5.52925L8.56046 5.57028L9.39833 5.54776Z" fill="var(--fill-0, #000088)"/>
<path d="M8.60287 4.37075C8.6177 4.33716 8.59963 4.29829 8.56251 4.28392C8.52539 4.26955 8.48327 4.28513 8.46844 4.31872C8.45361 4.3523 8.47167 4.39118 8.5088 4.40555C8.54592 4.41992 8.58803 4.40434 8.60287 4.37075Z" fill="var(--fill-0, #000088)"/>
<path d="M9.35188 5.87439L8.5515 5.63038L8.15292 5.57516L8.52786 5.71299L9.35188 5.87439Z" fill="var(--fill-0, #000088)"/>
<path d="M8.91041 4.55434C8.93433 4.52547 8.92791 4.48375 8.89608 4.46115C8.86424 4.43855 8.81904 4.44363 8.79512 4.47249C8.77121 4.50135 8.77762 4.54308 8.80946 4.56568C8.84129 4.58828 8.88649 4.5832 8.91041 4.55434Z" fill="var(--fill-0, #000088)"/>
<path d="M9.2132 6.18521L8.50848 5.75888L8.13826 5.61139L8.46155 5.83411L9.2132 6.18521Z" fill="var(--fill-0, #000088)"/>
<path d="M9.15545 4.80512C9.18671 4.78303 9.19219 4.74131 9.16769 4.71193C9.14319 4.68255 9.09799 4.67664 9.06674 4.69872C9.03548 4.7208 9.03 4.76253 9.0545 4.79191C9.079 4.82129 9.12419 4.8272 9.15545 4.80512Z" fill="var(--fill-0, #000088)"/>
<path d="M8.99005 6.45251L8.42851 5.87269L8.11195 5.642L8.36191 5.93421L8.99005 6.45251Z" fill="var(--fill-0, #000088)"/>
<path d="M9.32161 5.10618C9.35807 5.09238 9.37507 5.0535 9.35957 5.01934C9.34407 4.98518 9.30196 4.96867 9.2655 4.98247C9.22904 4.99627 9.21204 5.03514 9.22754 5.06931C9.24303 5.10347 9.28515 5.11998 9.32161 5.10618Z" fill="var(--fill-0, #000088)"/>
<path d="M8.70091 6.658L8.32067 5.96419L8.07938 5.66587L8.23907 6.00763L8.70091 6.658Z" fill="var(--fill-0, #000088)"/>
<path d="M9.39813 5.4364C9.43727 5.43186 9.46457 5.39847 9.4591 5.36183C9.45363 5.32519 9.41747 5.29916 9.37832 5.30371C9.33918 5.30825 9.31188 5.34163 9.31734 5.37827C9.32281 5.41492 9.35898 5.44094 9.39813 5.4364Z" fill="var(--fill-0, #000088)"/>
<path d="M8.36366 6.7869L8.18999 6.02635L8.04049 5.68061L8.09949 6.0486L8.36366 6.7869Z" fill="var(--fill-0, #000088)"/>
</g>
</svg>
