<svg preserveAspectRatio="none" width="100%" height="100%" overflow="visible" style="display: block;" viewBox="0 0 20 20" fill="none" xmlns="http://www.w3.org/2000/svg">
<g id="Frame">
<path id="Vector" d="M3.33333 17.5C3.09722 17.5 2.89931 17.4201 2.73958 17.2604C2.57986 17.1007 2.5 16.9028 2.5 16.6667V15.8333C2.5 15.5972 2.57986 15.3993 2.73958 15.2396C2.89931 15.0799 3.09722 15 3.33333 15C3.56944 15 3.76736 15.0799 3.92708 15.2396C4.08681 15.3993 4.16667 15.5972 4.16667 15.8333V16.6667C4.16667 16.9028 4.08681 17.1007 3.92708 17.2604C3.76736 17.4201 3.56944 17.5 3.33333 17.5ZM6.66667 17.5C6.43056 17.5 6.23264 17.4201 6.07292 17.2604C5.91319 17.1007 5.83333 16.9028 5.83333 16.6667V12.0833C5.83333 11.8472 5.91319 11.6493 6.07292 11.4896C6.23264 11.3299 6.43056 11.25 6.66667 11.25C6.90278 11.25 7.10069 11.3299 7.26042 11.4896C7.42014 11.6493 7.5 11.8472 7.5 12.0833V16.6667C7.5 16.9028 7.42014 17.1007 7.26042 17.2604C7.10069 17.4201 6.90278 17.5 6.66667 17.5ZM10 17.5C9.76389 17.5 9.56597 17.4201 9.40625 17.2604C9.24653 17.1007 9.16667 16.9028 9.16667 16.6667V13.75C9.16667 13.5139 9.24653 13.316 9.40625 13.1562C9.56597 12.9965 9.76389 12.9167 10 12.9167C10.2361 12.9167 10.434 12.9965 10.5938 13.1562C10.7535 13.316 10.8333 13.5139 10.8333 13.75V16.6667C10.8333 16.9028 10.7535 17.1007 10.5938 17.2604C10.434 17.4201 10.2361 17.5 10 17.5ZM13.3333 17.5C13.0972 17.5 12.8993 17.4201 12.7396 17.2604C12.5799 17.1007 12.5 16.9028 12.5 16.6667V12.5C12.5 12.2639 12.5799 12.066 12.7396 11.9062C12.8993 11.7465 13.0972 11.6667 13.3333 11.6667C13.5694 11.6667 13.7674 11.7465 13.9271 11.9062C14.0868 12.066 14.1667 12.2639 14.1667 12.5V16.6667C14.1667 16.9028 14.0868 17.1007 13.9271 17.2604C13.7674 17.4201 13.5694 17.5 13.3333 17.5ZM16.6667 17.5C16.4306 17.5 16.2326 17.4201 16.0729 17.2604C15.9132 17.1007 15.8333 16.9028 15.8333 16.6667V9.16667C15.8333 8.93055 15.9132 8.73264 16.0729 8.57292C16.2326 8.41319 16.4306 8.33333 16.6667 8.33333C16.9028 8.33333 17.1007 8.41319 17.2604 8.57292C17.4201 8.73264 17.5 8.93055 17.5 9.16667V16.6667C17.5 16.9028 17.4201 17.1007 17.2604 17.2604C17.1007 17.4201 16.9028 17.5 16.6667 17.5ZM11.6667 9.97917C11.4444 9.97917 11.2326 9.9375 11.0313 9.85417C10.8299 9.77083 10.6458 9.65278 10.4792 9.5L8.33333 7.35417L3.91667 11.7708C3.75 11.9375 3.55208 12.0174 3.32292 12.0104C3.09375 12.0035 2.89583 11.9167 2.72917 11.75C2.57639 11.5833 2.50347 11.3854 2.51042 11.1562C2.51736 10.9271 2.59722 10.7361 2.75 10.5833L7.14583 6.1875C7.3125 6.02083 7.49653 5.8993 7.69792 5.82292C7.89931 5.74653 8.11111 5.70833 8.33333 5.70833C8.55556 5.70833 8.77083 5.74653 8.97917 5.82292C9.1875 5.8993 9.36806 6.02083 9.52083 6.1875L11.6667 8.33333L16.0833 3.91667C16.25 3.75 16.4479 3.67014 16.6771 3.67708C16.9063 3.68403 17.1042 3.77083 17.2708 3.9375C17.4236 4.10417 17.4965 4.30208 17.4896 4.53125C17.4826 4.76042 17.4028 4.95139 17.25 5.10417L12.8542 9.5C12.7014 9.65278 12.5208 9.77083 12.3125 9.85417C12.1042 9.9375 11.8889 9.97917 11.6667 9.97917Z" fill="var(--fill-0, #64A7FF)"/>
</g>
</svg>
