<svg preserveAspectRatio="none" width="100%" height="100%" overflow="visible" style="display: block;" viewBox="0 0 19 20" fill="none" xmlns="http://www.w3.org/2000/svg">
<path id="Vector" d="M14.1513 9.44832C14.2882 9.43207 14.4282 9.43207 14.5644 9.44832C14.6394 9.27896 14.6525 8.98273 14.5838 8.664C14.4863 8.18903 14.3526 7.89905 14.0726 7.94467C13.7957 7.99029 13.7864 8.33527 13.8838 8.81024C13.9426 9.07709 14.0401 9.30833 14.1507 9.44832H14.1513ZM11.7684 9.82579C11.9671 9.91391 12.0871 9.97203 12.1365 9.92016C12.1658 9.88767 12.159 9.82892 12.1102 9.7508C12.0127 9.59143 11.8109 9.42832 11.5959 9.3377C11.1465 9.14896 10.6291 9.21084 10.2353 9.50019C10.1016 9.59768 9.97849 9.73455 9.99473 9.81579C10.001 9.84204 10.021 9.86142 10.0666 9.86767C10.1772 9.88079 10.5578 9.68893 11.0009 9.65956C11.3103 9.64018 11.5703 9.73768 11.769 9.82579H11.7684ZM11.3684 10.0539C11.1078 10.0964 10.9678 10.1808 10.8772 10.2589C10.7959 10.327 10.7503 10.4051 10.7503 10.4576L10.7697 10.5064L10.8122 10.5226C10.8709 10.5226 11.0009 10.467 11.0009 10.467C11.2678 10.3695 11.554 10.337 11.834 10.3826C11.964 10.3958 12.0258 10.4051 12.0552 10.3601C12.0615 10.347 12.0715 10.3208 12.0452 10.2789C11.9865 10.1783 11.7227 10.0114 11.3684 10.0539ZM13.3476 10.8932C13.5232 10.9776 13.7157 10.9451 13.7776 10.8182C13.8426 10.6882 13.7514 10.512 13.5757 10.4276C13.4001 10.3395 13.2076 10.3758 13.1427 10.5026C13.0808 10.6326 13.172 10.8051 13.3476 10.8932ZM14.4769 9.90391C14.3338 9.90079 14.2132 10.057 14.2132 10.2551C14.2101 10.4508 14.3207 10.6101 14.4638 10.6132C14.6069 10.6164 14.7244 10.4601 14.7275 10.2651C14.7307 10.0695 14.6169 9.90704 14.4769 9.90391ZM4.8907 13.4387C4.85508 13.3962 4.79633 13.4093 4.74071 13.4224C4.69509 13.4324 4.64947 13.4387 4.60697 13.4418C4.50948 13.4418 4.41823 13.3962 4.36261 13.3181C4.29762 13.2174 4.30074 13.0675 4.37261 12.8981L4.40511 12.82C4.5226 12.5631 4.71134 12.1331 4.49635 11.7232C4.33699 11.4138 4.07326 11.222 3.7539 11.1826C3.44767 11.1432 3.14519 11.2507 2.93333 11.4757C2.61773 11.8238 2.56898 12.2994 2.63085 12.4687C2.65335 12.5306 2.6896 12.5469 2.71522 12.55C2.76709 12.5562 2.84521 12.5175 2.89771 12.3837L2.91083 12.3413C2.93333 12.2694 2.97583 12.1363 3.04082 12.0319C3.21644 11.765 3.57141 11.69 3.83515 11.8657C4.05638 12.0088 4.1445 12.2825 4.05013 12.5394C4.00139 12.6762 3.92014 12.93 3.93951 13.1418C3.97514 13.568 4.23574 13.7374 4.4701 13.7568C4.69821 13.7668 4.85758 13.6362 4.90007 13.5418C4.92257 13.4862 4.9032 13.4537 4.89008 13.4374L4.8907 13.4387ZM18.0767 12.6606C18.0667 12.6281 18.0117 12.42 17.9336 12.1725L17.7742 11.7463C18.0867 11.2776 18.0929 10.8576 18.0511 10.6201C18.0054 10.327 17.8848 10.0764 17.638 9.81954C17.3936 9.55894 16.8893 9.29208 16.1799 9.09397L15.8087 8.99335C15.8087 8.9771 15.7893 8.11466 15.7731 7.74656C15.7631 7.4797 15.7406 7.05973 15.6106 6.64976C15.4575 6.09292 15.1875 5.60483 14.8519 5.29235C15.7762 4.33241 16.3556 3.27436 16.3524 2.36942C16.3493 0.621412 14.2107 0.0939474 11.574 1.18762L11.014 1.42511C10.6722 1.09013 10.3335 0.754528 9.98848 0.419551C6.98056 -2.20715 -2.41944 8.25777 0.584739 10.8032L1.24219 11.3601C1.06658 11.835 1.00471 12.3462 1.05971 12.8543C1.13158 13.5543 1.48968 14.2249 2.07526 14.7423C2.62835 15.2336 3.35768 15.546 4.06763 15.546C5.2363 18.2446 7.90862 19.9014 11.0397 19.9957C14.4019 20.0932 17.2243 18.5146 18.4054 15.6767C18.4835 15.4779 18.8123 14.5798 18.8123 13.7887C18.8123 12.9912 18.3629 12.6625 18.0767 12.6625V12.6606ZM4.32449 14.783C4.22387 14.8023 4.11638 14.8092 4.01201 14.8055C2.99958 14.7792 1.90278 13.8649 1.79216 12.7775C1.67154 11.5763 2.28337 10.6551 3.36768 10.437C3.51767 10.4045 3.67016 10.3945 3.82327 10.4014C4.43198 10.437 5.32692 10.9026 5.52878 12.2275C5.71127 13.4024 5.42442 14.5973 4.32449 14.7861V14.783ZM3.19206 9.7183C2.51836 9.84829 1.92277 10.2326 1.5578 10.7601C1.33969 10.5814 0.935965 10.2295 0.86472 10.0927C0.285384 8.98585 1.49968 6.84099 2.34587 5.6267C4.44198 2.6319 7.72614 0.363304 9.24666 0.773277C9.49414 0.845147 10.311 1.79508 10.311 1.79508C10.311 1.79508 8.79106 2.63815 7.38116 3.8162C5.48379 5.2811 4.05138 7.40658 3.19206 9.71768V9.7183ZM13.8451 14.3374C13.8676 14.3274 13.8845 14.3017 13.8807 14.2786C13.8776 14.2461 13.8514 14.223 13.8189 14.2267C13.8189 14.2267 12.2302 14.4642 10.7266 13.9111C10.889 13.3806 11.3253 13.5724 11.9827 13.6249C13.0045 13.6868 14.0301 13.5762 15.0163 13.2962C15.6969 13.1006 16.5887 12.7168 17.2849 12.1669C17.5192 12.6812 17.6005 13.2474 17.6005 13.2474C17.6005 13.2474 17.783 13.2149 17.9323 13.3093C18.0754 13.3974 18.1798 13.583 18.1079 14.0549C17.9648 14.9404 17.5874 15.6598 16.9555 16.3235C16.5618 16.7497 16.0931 17.1016 15.5687 17.3584C15.2788 17.5115 14.9763 17.6384 14.6669 17.7428C12.284 18.5208 9.84599 17.6646 9.05855 15.8254C8.99668 15.6854 8.9448 15.5392 8.90231 15.3892C8.56733 14.178 8.85044 12.7231 9.74225 11.8088C9.79412 11.75 9.84974 11.6819 9.84974 11.5938C9.84974 11.5219 9.80412 11.4476 9.76537 11.3919C9.45602 10.9395 8.37859 10.1714 8.59358 8.68025C8.74982 7.60907 9.68413 6.85724 10.5566 6.89974L10.7778 6.91286C11.1553 6.93536 11.484 6.98473 11.7934 6.99723C12.314 7.01973 12.7827 6.94536 13.3364 6.48289C13.522 6.32665 13.6714 6.18979 13.9257 6.14792C13.952 6.14479 14.0201 6.11854 14.1501 6.12542C14.2869 6.13167 14.4169 6.17416 14.5307 6.24916C14.9769 6.54539 15.0388 7.26159 15.0613 7.78531C15.0744 8.08466 15.11 8.80711 15.1231 9.01585C15.1525 9.49082 15.2763 9.55956 15.5269 9.64081C15.67 9.68955 15.8037 9.72518 15.9956 9.77767C16.5849 9.94391 16.933 10.1126 17.1511 10.3276C17.2849 10.4614 17.343 10.6045 17.363 10.7407C17.4349 11.2488 16.9724 11.8738 15.7487 12.4431C14.4107 13.065 12.7902 13.2212 11.6702 13.0974L11.2765 13.0518C10.3816 12.9312 9.87037 14.0899 10.4072 14.888C10.7522 15.3992 11.6996 15.7341 12.6433 15.7341C14.8082 15.7341 16.4743 14.8067 17.093 14.0055L17.1418 13.9336C17.1743 13.888 17.148 13.8655 17.1093 13.8911C16.6049 14.2361 14.3557 15.6129 11.9534 15.1998C11.9534 15.1998 11.6602 15.1511 11.3934 15.0467C11.1815 14.9654 10.7391 14.7605 10.6841 14.3042C12.6239 14.9067 13.8445 14.3367 13.8445 14.3367L13.8451 14.3374ZM7.06181 5.61358C7.80738 4.75114 8.72482 4.00244 9.54539 3.58246C9.57476 3.56621 9.60414 3.59871 9.59101 3.62496C9.52602 3.74245 9.39915 3.99931 9.35978 4.18805C9.35353 4.21742 9.38603 4.23992 9.40852 4.22367C9.92286 3.87557 10.8116 3.50122 11.5928 3.45247C11.6253 3.45247 11.6415 3.49497 11.6153 3.51434C11.4853 3.61496 11.3709 3.72933 11.2703 3.85932C11.254 3.88182 11.2703 3.91119 11.2965 3.91119C11.8465 3.91744 12.6183 4.10993 13.1195 4.39303C13.1551 4.41241 13.1327 4.4774 13.0933 4.46803C12.3315 4.29242 11.0847 4.15867 9.78975 4.47803C8.6342 4.76113 7.75238 5.19423 7.10743 5.66607C7.07493 5.68857 7.03556 5.64607 7.06181 5.61358Z" fill="var(--fill-0, #0A0A0A)"/>
</svg>
