<svg preserveAspectRatio="none" width="100%" height="100%" overflow="visible" style="display: block;" viewBox="0 0 16 14" fill="none" xmlns="http://www.w3.org/2000/svg">
<path id="Vector" d="M14.3333 7V2.33333C14.3333 1.97971 14.1929 1.64057 13.9428 1.39052C13.6928 1.14048 13.3536 1 13 1H2.33333C1.97971 1 1.64057 1.14048 1.39052 1.39052C1.14048 1.64057 1 1.97971 1 2.33333V10.3333C1 11.0667 1.6 11.6667 2.33333 11.6667H7.66667M14.3333 3L8.35333 6.8C8.14751 6.92895 7.90954 6.99734 7.66667 6.99734C7.42379 6.99734 7.18582 6.92895 6.98 6.8L1 3M10.3333 11L11.6667 12.3333L14.3333 9.66667" stroke="var(--stroke-0, #171717)" stroke-width="1.5" stroke-linecap="round" stroke-linejoin="round"/>
</svg>
