<svg width="20" height="21" viewBox="0 0 20 21" fill="none" xmlns="http://www.w3.org/2000/svg">
<path d="M9.66685 14.0996C9.5793 14.4169 9.4301 14.7139 9.22777 14.9736C9.02543 15.2333 8.77393 15.4506 8.48762 15.6131C8.2013 15.7757 7.88579 15.8802 7.55908 15.9207C7.23237 15.9613 6.90087 15.9371 6.58351 15.8496C6.26615 15.762 5.96914 15.6128 5.70944 15.4105C5.44974 15.2082 5.23244 14.9567 5.06993 14.6703C4.90743 14.384 4.80291 14.0685 4.76235 13.7418C4.72178 13.4151 4.74597 13.0836 4.83351 12.7662M2.5 9.26628L17.5 5.09961V15.0996L2.5 11.7663V9.26628Z" stroke="#0A0A0A" stroke-width="2" stroke-linecap="round" stroke-linejoin="round"/>
</svg>
