<svg preserveAspectRatio="none" width="100%" height="100%" overflow="visible" style="display: block;" viewBox="0 0 23 22" fill="none" xmlns="http://www.w3.org/2000/svg">
<path id="Vector" d="M4.17163 1L9.17163 6M1.17163 12H16.1716M18.1717 10L10.1717 2L1.57171 10.6C1.20526 10.9739 1 11.4765 1 12C1 12.5235 1.20526 13.0261 1.57171 13.4L6.77171 18.6C7.57171 19.4 8.77171 19.4 9.57171 18.6L18.1717 10ZM21.1716 19C21.1716 19.5304 20.9609 20.0391 20.5858 20.4142C20.2108 20.7893 19.7021 21 19.1716 21C18.6412 21 18.1325 20.7893 17.7574 20.4142C17.3823 20.0391 17.1716 19.5304 17.1716 19C17.1716 17.4 18.8716 16.6 19.1716 15C19.4716 16.6 21.1716 17.4 21.1716 19Z" stroke="var(--stroke-0, #0A0A0A)" stroke-width="2" stroke-linecap="round" stroke-linejoin="round"/>
</svg>
