<svg width="20" height="21" viewBox="0 0 20 21" fill="none" xmlns="http://www.w3.org/2000/svg">
<path d="M14.1925 11.0879L7.94254 17.3379C7.88447 17.396 7.81553 17.4421 7.73966 17.4735C7.66379 17.5049 7.58247 17.5211 7.50035 17.5211C7.41823 17.5211 7.33691 17.5049 7.26104 17.4735C7.18517 17.4421 7.11623 17.396 7.05816 17.3379C7.00009 17.2799 6.95403 17.2109 6.9226 17.135C6.89117 17.0592 6.875 16.9779 6.875 16.8957C6.875 16.8136 6.89117 16.7323 6.9226 16.6564C6.95403 16.5806 7.00009 16.5116 7.05816 16.4535L12.8668 10.6457L7.05816 4.83792C6.94088 4.72065 6.875 4.56159 6.875 4.39573C6.875 4.22988 6.94088 4.07082 7.05816 3.95355C7.17544 3.83627 7.3345 3.77039 7.50035 3.77039C7.6662 3.77039 7.82526 3.83627 7.94254 3.95355L14.1925 10.2035C14.2506 10.2616 14.2967 10.3305 14.3282 10.4064C14.3597 10.4823 14.3758 10.5636 14.3758 10.6457C14.3758 10.7279 14.3597 10.8092 14.3282 10.8851C14.2967 10.9609 14.2506 11.0299 14.1925 11.0879Z" fill="#0A0A0A"/>
</svg>
