<svg preserveAspectRatio="none" width="100%" height="100%" overflow="visible" style="display: block;" viewBox="0 0 82 88" fill="none" xmlns="http://www.w3.org/2000/svg">
<path id="Fill" d="M38 84.9249C38 86.6232 39.3785 88.0112 41.0727 87.8926C47.7853 87.4227 54.3154 85.4181 60.1529 82.0164C66.8779 78.0976 72.4431 72.465 76.2806 65.6932C80.1181 58.9214 82.0906 51.2528 81.9968 43.4698C81.903 35.6868 79.7463 28.068 75.7468 21.3906C71.7472 14.7133 66.0479 9.21639 59.2303 5.46077C52.4128 1.70514 44.721 -0.174787 36.9397 0.012777C29.1584 0.200341 21.5661 2.44868 14.9375 6.52842C9.18361 10.0697 4.33456 14.8809 0.75249 20.5773C-0.15158 22.015 0.421559 23.8853 1.91887 24.6868V24.6868C3.41618 25.4882 5.26934 24.916 6.18968 23.4887C9.24722 18.7468 13.334 14.737 18.1611 11.7661C23.8632 8.25658 30.3943 6.32251 37.0879 6.16116C43.7816 5.99981 50.3982 7.61697 56.2628 10.8476C62.1275 14.0783 67.0301 18.8069 70.4706 24.5509C73.9112 30.2949 75.7664 36.8488 75.8471 43.5439C75.9278 50.239 74.231 56.8357 70.9299 62.661C67.6288 68.4862 62.8415 73.3316 57.0564 76.7026C52.1592 79.5564 46.6953 81.2671 41.0718 81.725C39.379 81.8628 38 83.2266 38 84.9249V84.9249Z" fill="var(--fill-0, #0D9488)"/>
</svg>
