<svg width="16" height="16" viewBox="0 0 16 16" fill="none" xmlns="http://www.w3.org/2000/svg">
<path d="M9.33329 1.33301V3.99967C9.33329 4.3533 9.47377 4.69244 9.72382 4.94248C9.97387 5.19253 10.313 5.33301 10.6666 5.33301H13.3333M6.66663 5.99967H5.33329M10.6666 8.66634H5.33329M10.6666 11.333H5.33329M9.99996 1.33301H3.99996C3.64634 1.33301 3.3072 1.47348 3.05715 1.72353C2.8071 1.97358 2.66663 2.31272 2.66663 2.66634V13.333C2.66663 13.6866 2.8071 14.0258 3.05715 14.2758C3.3072 14.5259 3.64634 14.6663 3.99996 14.6663H12C12.3536 14.6663 12.6927 14.5259 12.9428 14.2758C13.1928 14.0258 13.3333 13.6866 13.3333 13.333V4.66634L9.99996 1.33301Z" stroke="#6B7280" stroke-width="1.5" stroke-linecap="round" stroke-linejoin="round"/>
</svg>
