<svg preserveAspectRatio="none" width="100%" height="100%" overflow="visible" style="display: block;" viewBox="0 0 20 20" fill="none" xmlns="http://www.w3.org/2000/svg">
<g id="Frame">
<path id="Vector" d="M10 14.3958L6.54167 16.4792C6.38889 16.5764 6.22917 16.6181 6.0625 16.6042C5.89583 16.5903 5.75 16.5347 5.625 16.4375C5.5 16.3403 5.40278 16.2188 5.33333 16.0729C5.26389 15.9271 5.25 15.7639 5.29167 15.5833L6.20833 11.6458L3.14583 9C3.00694 8.875 2.92014 8.73264 2.88542 8.57292C2.85069 8.4132 2.86111 8.25695 2.91667 8.10417C2.97222 7.95139 3.05556 7.82639 3.16667 7.72917C3.27778 7.63195 3.43056 7.56945 3.625 7.54167L7.66667 7.1875L9.22917 3.47917C9.29861 3.3125 9.40625 3.1875 9.55209 3.10417C9.69792 3.02083 9.84722 2.97917 10 2.97917C10.1528 2.97917 10.3021 3.02083 10.4479 3.10417C10.5938 3.1875 10.7014 3.3125 10.7708 3.47917L12.3333 7.1875L16.375 7.54167C16.5694 7.56945 16.7222 7.63195 16.8333 7.72917C16.9444 7.82639 17.0278 7.95139 17.0833 8.10417C17.1389 8.25695 17.1493 8.4132 17.1146 8.57292C17.0799 8.73264 16.9931 8.875 16.8542 9L13.7917 11.6458L14.7083 15.5833C14.75 15.7639 14.7361 15.9271 14.6667 16.0729C14.5972 16.2188 14.5 16.3403 14.375 16.4375C14.25 16.5347 14.1042 16.5903 13.9375 16.6042C13.7708 16.6181 13.6111 16.5764 13.4583 16.4792L10 14.3958Z" fill="var(--fill-0, #EAB308)"/>
</g>
</svg>
