<svg preserveAspectRatio="none" width="100%" height="100%" overflow="visible" style="display: block;" viewBox="0 0 20 20" fill="none" xmlns="http://www.w3.org/2000/svg">
<g id="Frame">
<path id="Vector" d="M7.37522 14.0214L10.0002 12.438L12.6252 14.0422L11.9377 11.0422L14.2502 9.04219L11.2086 8.77136L10.0002 5.93802L8.79188 8.75052L5.75022 9.02136L8.06272 11.0422L7.37522 14.0214ZM10.0002 14.3964L6.54188 16.4797C6.38911 16.5769 6.22938 16.6186 6.06272 16.6047C5.89605 16.5908 5.75022 16.5352 5.62522 16.438C5.50022 16.3408 5.40299 16.2193 5.33355 16.0734C5.26411 15.9276 5.25022 15.7644 5.29188 15.5839L6.20855 11.6464L3.14605 9.00052C3.00716 8.87552 2.92035 8.73316 2.88563 8.57344C2.85091 8.41372 2.86133 8.25747 2.91688 8.10469C2.97244 7.95191 3.05577 7.82691 3.16688 7.72969C3.27799 7.63247 3.43077 7.56997 3.62522 7.54219L7.66688 7.18802L9.22938 3.47969C9.29883 3.31302 9.40647 3.18802 9.5523 3.10469C9.69813 3.02136 9.84744 2.97969 10.0002 2.97969C10.153 2.97969 10.3023 3.02136 10.4481 3.10469C10.594 3.18802 10.7016 3.31302 10.7711 3.47969L12.3336 7.18802L16.3752 7.54219C16.5697 7.56997 16.7224 7.63247 16.8336 7.72969C16.9447 7.82691 17.028 7.95191 17.0836 8.10469C17.1391 8.25747 17.1495 8.41372 17.1148 8.57344C17.0801 8.73316 16.9933 8.87552 16.8544 9.00052L13.7919 11.6464L14.7086 15.5839C14.7502 15.7644 14.7363 15.9276 14.6669 16.0734C14.5974 16.2193 14.5002 16.3408 14.3752 16.438C14.2502 16.5352 14.1044 16.5908 13.9377 16.6047C13.7711 16.6186 13.6113 16.5769 13.4586 16.4797L10.0002 14.3964Z" fill="var(--fill-0, #E4E4E7)"/>
</g>
</svg>
