<svg preserveAspectRatio="none" width="100%" height="100%" overflow="visible" style="display: block;" viewBox="0 0 20 19" fill="none" xmlns="http://www.w3.org/2000/svg">
<path id="Vector" d="M10 9.62346L13.8569 13.4804L12.5713 14.766L10.9091 13.1045V18.1818H9.09091V13.1027L7.4287 14.766L6.14305 13.4804L10 9.62346ZM10 0C13.2667 0 15.9585 2.46146 16.3219 5.63086C18.4416 6.21049 20 8.15055 20 10.4545C20 13.0625 18.0033 15.2042 15.4551 15.4342L15.4545 13.6364C15.4545 10.6239 13.0125 8.18182 10 8.18182C7.056 8.18182 4.65675 10.5142 4.54922 13.4319L4.54545 13.6364L4.54581 15.4342C1.99724 15.2047 0 13.0629 0 10.4545C0 8.15055 1.5584 6.21049 3.67862 5.63101C4.04146 2.46146 6.73328 0 10 0Z" fill="var(--fill-0, #0A0A0A)"/>
</svg>
