<svg width="18" height="18" viewBox="0 0 18 18" fill="none" xmlns="http://www.w3.org/2000/svg">
<path d="M13.1667 1.7832C14.4236 2.50892 15.4692 3.55031 16.1999 4.80429C16.9307 6.05827 17.3212 7.48135 17.3329 8.93265C17.3447 10.384 16.9771 11.8132 16.2668 13.0788C15.5564 14.3444 14.5278 15.4025 13.2828 16.1485C12.0378 16.8944 10.6196 17.3022 9.1685 17.3316C7.71744 17.361 6.28387 17.0108 5.00971 16.3159C3.73555 15.621 2.66497 14.6053 1.90397 13.3695C1.14297 12.1336 0.717922 10.7205 0.670915 9.26987L0.666748 8.99987L0.670915 8.72987C0.717584 7.2907 1.13637 5.88817 1.88645 4.65903C2.63652 3.42989 3.69229 2.41608 4.95082 1.71644C6.20936 1.0168 7.6277 0.6552 9.06759 0.666901C10.5075 0.678602 11.9198 1.0632 13.1667 1.7832ZM12.0892 6.74404C11.9458 6.60056 11.7548 6.51436 11.5523 6.50163C11.3498 6.4889 11.1496 6.55049 10.9892 6.67487L10.9109 6.74404L8.16675 9.48737L7.08925 8.4107L7.01091 8.34154C6.85057 8.21725 6.65039 8.15572 6.44792 8.1685C6.24545 8.18127 6.05459 8.26747 5.91113 8.41092C5.76768 8.55438 5.68148 8.74523 5.66871 8.94771C5.65594 9.15018 5.71746 9.35036 5.84175 9.5107L5.91092 9.58904L7.57758 11.2557L7.65592 11.3249C7.80206 11.4383 7.98178 11.4998 8.16675 11.4998C8.35172 11.4998 8.53144 11.4383 8.67758 11.3249L8.75591 11.2557L12.0892 7.92237L12.1584 7.84404C12.2828 7.6837 12.3444 7.48349 12.3317 7.28097C12.3189 7.07845 12.2327 6.88753 12.0892 6.74404Z" fill="#10B981"/>
</svg>
