<svg width="20" height="21" viewBox="0 0 20 21" fill="none" xmlns="http://www.w3.org/2000/svg">
<path d="M15 18.1992C15 16.4311 14.2976 14.7354 13.0473 13.4852C11.7971 12.2349 10.1014 11.5326 8.33329 11.5326M8.33329 11.5326C6.56518 11.5326 4.86949 12.2349 3.61925 13.4852C2.36901 14.7354 1.66663 16.4311 1.66663 18.1992M8.33329 11.5326C10.6345 11.5326 12.5 9.66707 12.5 7.36589C12.5 5.0647 10.6345 3.19922 8.33329 3.19922C6.03211 3.19922 4.16663 5.0647 4.16663 7.36589C4.16663 9.66707 6.03211 11.5326 8.33329 11.5326ZM18.3333 17.3658C18.3333 14.5575 16.6667 11.9492 15 10.6992C15.5478 10.2882 15.9859 9.74842 16.2755 9.12773C16.565 8.50705 16.6971 7.82457 16.66 7.14068C16.6229 6.45679 16.4178 5.79258 16.0629 5.20684C15.7079 4.62111 15.2141 4.1319 14.625 3.78251" stroke="#0A0A0A" stroke-width="2" stroke-linecap="round" stroke-linejoin="round"/>
</svg>
