<svg preserveAspectRatio="none" width="100%" height="100%" overflow="visible" style="display: block;" viewBox="0 0 15 10" fill="none" xmlns="http://www.w3.org/2000/svg">
<path id="Vector" d="M10.3333 5.66668L13.8153 7.98801C13.8655 8.02142 13.9238 8.04058 13.9841 8.04346C14.0443 8.04634 14.1042 8.03283 14.1573 8.00437C14.2105 7.97592 14.2549 7.93357 14.2859 7.88185C14.3169 7.83013 14.3333 7.77098 14.3333 7.71068V2.24668C14.3334 2.18803 14.3179 2.13041 14.2885 2.07965C14.2591 2.02888 14.2169 1.98676 14.166 1.95755C14.1152 1.92833 14.0575 1.91305 13.9989 1.91325C13.9402 1.91345 13.8827 1.92912 13.832 1.95868L10.3333 4.00001M2.33333 1H9C9.73638 1 10.3333 1.59695 10.3333 2.33333V7.66667C10.3333 8.40305 9.73638 9 9 9H2.33333C1.59695 9 1 8.40305 1 7.66667V2.33333C1 1.59695 1.59695 1 2.33333 1Z" stroke="var(--stroke-0, #5E19CF)" stroke-width="1.33" stroke-linecap="round" stroke-linejoin="round"/>
</svg>
