<svg preserveAspectRatio="none" width="100%" height="100%" overflow="visible" style="display: block;" viewBox="0 0 20 13" fill="none" xmlns="http://www.w3.org/2000/svg">
<path id="Vector" fill-rule="evenodd" clip-rule="evenodd" d="M18.1358 0H1.8562C0.825952 0 -0.00805822 0.858698 5.87499e-05 1.90081V8.23686C5.87499e-05 9.28728 0.834129 10.1377 1.86438 10.1377H9.57487L13.099 12.1385L12.2977 10.1377H18.1358C19.166 10.1377 20 9.28728 20 8.23686V1.90081C20 0.850361 19.166 0 18.1358 0ZM1.51282 1.46729C1.28388 1.48397 1.11216 1.56734 0.997694 1.72573C0.883224 1.8758 0.842343 2.06755 0.866869 2.28431C1.34929 5.41067 1.799 7.51988 2.216 8.61202C2.37954 9.01217 2.5676 9.20396 2.78837 9.18728C3.13178 9.16225 3.54061 8.67872 4.02303 7.73666C4.2765 7.20306 4.66898 6.40276 5.20046 5.3356C5.64197 6.91127 6.24703 8.09515 7.00748 8.88713C7.22009 9.11222 7.44085 9.21227 7.65341 9.1956C7.84151 9.17892 7.98864 9.07887 8.08677 8.89544C8.16854 8.73706 8.20125 8.55363 8.1849 8.34522C8.13584 7.58658 8.20946 6.52779 8.41386 5.16887C8.62641 3.76828 8.88809 2.75951 9.20697 2.15925C9.27239 2.0342 9.29689 1.90914 9.28874 1.75908C9.27239 1.56733 9.19062 1.40893 9.03528 1.28388C8.87993 1.15883 8.70819 1.10047 8.52014 1.11714C8.28302 1.13382 8.10313 1.25053 7.98049 1.48397C7.47356 2.42603 7.11376 3.95169 6.90121 6.06926C6.59047 5.26892 6.3288 4.32685 6.1244 3.21804C6.03447 2.72616 5.81372 2.49273 5.45392 2.51774C5.20863 2.53441 5.00422 2.70115 4.84068 3.01795L3.05002 6.49444C2.75566 5.28559 2.47765 3.80996 2.22418 2.06755C2.16695 1.63403 1.92982 1.43394 1.51282 1.46729ZM17.2691 2.06757C17.8496 2.19263 18.283 2.50943 18.5773 3.03465C18.839 3.48485 18.9698 4.02675 18.9698 4.67702C18.9698 5.53571 18.7572 6.31938 18.332 7.03636C17.8414 7.87006 17.2037 8.28688 16.4105 8.28688C16.2716 8.28688 16.1244 8.27021 15.969 8.23686C15.3885 8.11182 14.9551 7.79505 14.6607 7.26981C14.3991 6.81127 14.2683 6.26105 14.2683 5.61908C14.2683 4.76039 14.4809 3.97672 14.906 3.26809C15.4048 2.4344 16.0426 2.01755 16.8276 2.01755C16.9665 2.01755 17.1137 2.03423 17.2691 2.06757ZM16.9257 6.57782C17.2282 6.30271 17.4326 5.89419 17.5471 5.34397C17.5798 5.15223 17.6043 4.9438 17.6043 4.72704C17.6043 4.48528 17.5552 4.22683 17.4571 3.96839C17.3345 3.64325 17.1709 3.46817 16.9747 3.42649C16.6804 3.36813 16.3942 3.53487 16.1244 3.94338C15.9036 4.26018 15.7646 4.59365 15.691 4.93547C15.6501 5.12722 15.6337 5.33566 15.6337 5.54407C15.6337 5.78583 15.6828 6.04427 15.7809 6.30271C15.9036 6.62784 16.0671 6.80291 16.2634 6.84462C16.4678 6.88628 16.6885 6.7946 16.9257 6.57782ZM13.4506 3.03465C13.1562 2.50943 12.7147 2.19263 12.1424 2.06757C11.987 2.03423 11.8398 2.01755 11.7008 2.01755C10.9159 2.01755 10.2781 2.4344 9.77932 3.26809C9.35411 3.97672 9.14155 4.76039 9.14155 5.61908C9.14155 6.26105 9.27239 6.81127 9.53401 7.26981C9.82839 7.79505 10.2618 8.11182 10.8423 8.23686C10.9976 8.27021 11.1448 8.28688 11.2838 8.28688C12.0769 8.28688 12.7147 7.87006 13.2053 7.03636C13.6305 6.31938 13.8431 5.53571 13.8431 4.67702C13.8431 4.02675 13.7122 3.48485 13.4506 3.03465ZM12.4203 5.34397C12.3059 5.89419 12.1014 6.30271 11.7989 6.57782C11.5618 6.7946 11.341 6.88628 11.1366 6.84462C10.9404 6.80291 10.7768 6.62784 10.6542 6.30271C10.5561 6.04427 10.507 5.78583 10.507 5.54407C10.507 5.33566 10.5234 5.12722 10.5643 4.93547C10.6379 4.59365 10.7768 4.26018 10.9976 3.94338C11.2675 3.53487 11.5536 3.36813 11.848 3.42649C12.0442 3.46817 12.2078 3.64325 12.3304 3.96839C12.4285 4.22683 12.4776 4.48528 12.4776 4.72704C12.4776 4.9438 12.4612 5.15223 12.4203 5.34397Z" fill="var(--fill-0, #0A0A0A)"/>
</svg>
