<svg preserveAspectRatio="none" width="100%" height="100%" overflow="visible" style="display: block;" viewBox="0 0 20 20" fill="none" xmlns="http://www.w3.org/2000/svg">
<path id="Vector" fill-rule="evenodd" clip-rule="evenodd" d="M18.7744 5.20197C18.8174 5.52096 18.8414 5.86178 18.8414 6.22977C18.8414 7.98771 18.6784 8.08677 15.0265 18.6434C17.9994 16.9095 19.9993 13.6885 19.9993 9.99966C19.9993 8.26072 19.5553 6.62593 18.7744 5.20197ZM10.1757 10.8746L7.17476 19.5921C9.19969 20.1881 11.3456 20.1274 13.3206 19.4334C13.2936 19.3904 13.2696 19.3442 13.2496 19.2952L10.1757 10.8746ZM16.7504 9.4948C16.7504 8.25884 16.3064 7.40257 15.9255 6.73659C15.4195 5.91262 14.9435 5.21591 14.9435 4.39194C14.9435 3.47297 15.6415 2.6171 16.6234 2.6171C16.6674 2.6171 16.7094 2.62291 16.7524 2.62491C14.9735 0.994967 12.6036 0 9.99966 0C6.50678 0 3.43289 1.79178 1.64495 4.50668C2.28193 4.52668 3.13689 4.53491 4.95383 4.39292C5.49281 4.36092 5.55582 5.15265 5.01784 5.21564C5.01784 5.21564 4.47585 5.27983 3.87287 5.31183L7.51475 16.1435L9.70268 9.57976L8.14473 5.31086C7.60675 5.27986 7.09676 5.21564 7.09676 5.21564C6.55778 5.18365 6.62078 4.35994 7.15976 4.39194C9.22669 4.55094 10.2847 4.56294 12.4586 4.39194C12.9976 4.35994 13.0616 5.15165 12.5226 5.21564C12.5226 5.21564 11.9796 5.27986 11.3776 5.31086L14.9915 16.0605C16.4185 11.2927 16.7504 10.4948 16.7504 9.4948ZM0 9.99966C0 13.9575 2.29992 17.3784 5.63581 18.9994L0.865968 5.92998C0.310987 7.17393 0 8.54971 0 9.99966Z" fill="var(--fill-0, #0A0A0A)"/>
</svg>
