<svg preserveAspectRatio="none" width="100%" height="100%" overflow="visible" style="display: block;" viewBox="0 0 16 16" fill="none" xmlns="http://www.w3.org/2000/svg">
<g id="Frame">
<path id="Vector" d="M13.9986 8.66655H12.6652C12.4764 8.66655 12.318 8.60266 12.1902 8.47488C12.0625 8.34711 11.9986 8.18877 11.9986 7.99988C11.9986 7.811 12.0625 7.65266 12.1902 7.52488C12.318 7.39711 12.4764 7.33322 12.6652 7.33322H13.9986C14.1875 7.33322 14.3458 7.39711 14.4736 7.52488C14.6014 7.65266 14.6652 7.811 14.6652 7.99988C14.6652 8.18877 14.6014 8.34711 14.4736 8.47488C14.3458 8.60266 14.1875 8.66655 13.9986 8.66655ZM11.0652 11.1999C11.1764 11.0443 11.3208 10.9554 11.4986 10.9332C11.6764 10.911 11.843 10.9554 11.9986 11.0666L13.0652 11.8666C13.2208 11.9777 13.3097 12.1221 13.3319 12.2999C13.3541 12.4777 13.3097 12.6443 13.1986 12.7999C13.0875 12.9554 12.943 13.0443 12.7652 13.0666C12.5875 13.0888 12.4208 13.0443 12.2652 12.9332L11.1986 12.1332C11.043 12.0221 10.9541 11.8777 10.9319 11.6999C10.9097 11.5221 10.9541 11.3554 11.0652 11.1999ZM13.0652 4.13322L11.9986 4.93322C11.843 5.04433 11.6764 5.08877 11.4986 5.06655C11.3208 5.04433 11.1764 4.95544 11.0652 4.79988C10.9541 4.64433 10.9097 4.47766 10.9319 4.29988C10.9541 4.12211 11.043 3.97766 11.1986 3.86655L12.2652 3.06655C12.4208 2.95544 12.5875 2.91099 12.7652 2.93322C12.943 2.95544 13.0875 3.04433 13.1986 3.19988C13.3097 3.35544 13.3541 3.52211 13.3319 3.69988C13.3097 3.87766 13.2208 4.02211 13.0652 4.13322ZM3.33191 9.99988H2.66525C2.29858 9.99988 1.98469 9.86933 1.72358 9.60822C1.46247 9.34711 1.33191 9.03322 1.33191 8.66655V7.33322C1.33191 6.96655 1.46247 6.65266 1.72358 6.39155C1.98469 6.13044 2.29858 5.99988 2.66525 5.99988H5.33191L7.64858 4.59988C7.8708 4.46655 8.0958 4.46655 8.32358 4.59988C8.55136 4.73322 8.66525 4.92766 8.66525 5.18322V10.8166C8.66525 11.0721 8.55136 11.2666 8.32358 11.3999C8.0958 11.5332 7.8708 11.5332 7.64858 11.3999L5.33191 9.99988H4.66525V11.9999C4.66525 12.1888 4.60136 12.3471 4.47358 12.4749C4.3458 12.6027 4.18747 12.6666 3.99858 12.6666C3.80969 12.6666 3.65136 12.6027 3.52358 12.4749C3.3958 12.3471 3.33191 12.1888 3.33191 11.9999V9.99988ZM7.33191 9.63322V6.36655L5.69858 7.33322H2.66525V8.66655H5.69858L7.33191 9.63322ZM9.33191 10.2332V5.76655C9.63191 6.03322 9.87358 6.35822 10.0569 6.74155C10.2402 7.12488 10.3319 7.54433 10.3319 7.99988C10.3319 8.45544 10.2402 8.87488 10.0569 9.25822C9.87358 9.64155 9.63191 9.96655 9.33191 10.2332Z" fill="var(--fill-0, #9CA3AF)"/>
</g>
</svg>
