<svg xmlns="http://www.w3.org/2000/svg" width="125" height="124" fill="none"><g clip-path="url(#a)"><rect width="124" height="124" x=".957" fill="#F8F7F3" rx="62"/><path fill="#214F4B" fill-rule="evenodd" d="m79.412 20.064.78-.27.64.687.253.273 1.164 1.255 1.026 1.113c-.854.53-1.302.854-2.04 1.508l-.842-.9-.88-.95c-2.49 1.328-5.831 5.26-5.46 10.992v.027c.015.336.084.953.24 1.717 1.869-4.257 4.29-7.37 6.63-9.546 1.463-1.36 2.896-2.355 4.147-3.037 1.226-.668 2.348-1.073 3.188-1.175l.633-.077.438.464c2.603 2.753 4.105 6.73 4.3 10.53.195 3.785-.904 7.674-3.873 9.986-.067.05-.11.085-.154.122-.12.098-.259.212-.934.675-.134-.201-.249-.378-.353-.54-.357-.55-.595-.916-1.074-1.452l.96-.801c2.086-1.625 3.07-4.556 2.901-7.86-.156-3.04-1.288-6.156-3.142-8.392-.428.136-.998.37-1.68.742-1.059.578-2.32 1.448-3.633 2.669-2.62 2.435-5.434 6.256-7.238 11.897l-.006.019-.007.02c-.917 2.578-1.327 5.265-1.004 7.922.063.52.148 1.01.252 1.472 5.137-1.935 8.196-5.864 9.081-7.606l.776-1.526 1.231 1.19c.466.45 1.5 1.73 2.222 2.91a19.764 19.764 0 0 1 .714 1.27c.395.778.684 1.5.955 2.282a19.887 19.887 0 0 1 .754 2.847 16.033 16.033 0 0 1 .225 1.734c.151 2.035-.102 4.243-1.213 6.214l-.28.498-.56.119c-1.733.368-4.092.516-6.5.071a15.024 15.024 0 0 1-1.858-.468 13.367 13.367 0 0 1-1.137-.425 12.023 12.023 0 0 1-2.111-1.16 11.107 11.107 0 0 1-2.262-2.078c-.34-.415-.66-.864-.95-1.349-.452-.749-.837-1.58-1.146-2.498a16.085 16.085 0 0 1-.705-3.192c-.358-2.946.06-5.86.967-8.595a18.375 18.375 0 0 1-1.172-4.136c-.769.133-1.77.394-2.733.817a9.14 9.14 0 0 0-.765.379c-1.357.755-2.228 1.732-2.34 2.972-.105 1.146.103 1.95.42 2.528.319.584.797 1.024 1.363 1.36 1.169.692 2.672.827 3.237.867-.153 1.03-.162 1.574-.112 2.502-.662-.048-2.723-.19-4.415-1.193-.865-.512-1.71-1.255-2.294-2.322-.587-1.075-.863-2.393-.72-3.971.128-1.4.746-2.513 1.569-3.386a1.852 1.852 0 0 0-.57.173l-.02.01-.002.001-.002.002a1.265 1.265 0 0 1-1.272-2.188l.002-.002.003-.001.005-.003.014-.008.036-.02c.028-.015.065-.035.11-.057a4.321 4.321 0 0 1 1.556-.436 3.589 3.589 0 0 1 1.289.126c-.259-.442-.708-.892-1.608-1.227a1.265 1.265 0 0 1 .883-2.372c1.49.555 2.436 1.436 2.996 2.477.204.379.349.764.453 1.14a14.746 14.746 0 0 1 2.736-.702v-.026c.088-6.792 4.552-11.46 7.918-12.631Zm5.59 24.215c-1.668 2.337-4.857 5.53-9.544 7.273a9.517 9.517 0 0 0 .745 1.292c.755-.183 1.619-.543 2.545-1.053 1.199-.66 2.422-1.528 3.533-2.444 1.11-.916 2.082-1.86 2.782-2.656a9.747 9.747 0 0 0 .836-1.075 16.05 16.05 0 0 0-.898-1.337Zm-5.033 9.728c-.588.324-1.195.618-1.807.859a9.331 9.331 0 0 0 1.505.899c1.452-.428 3.15-1.484 4.72-2.74 1.413-1.132 2.594-2.32 3.264-3.128a17.677 17.677 0 0 0-.532-1.714l-.155.179c-.802.911-1.873 1.947-3.073 2.937-1.2.99-2.553 1.954-3.922 2.708Zm6 .992a23.864 23.864 0 0 1-2.563 1.804 14.93 14.93 0 0 0 4.036-.084c.457-1.064.691-2.335.668-3.613A29.481 29.481 0 0 1 85.969 55Z" clip-rule="evenodd"/><path fill="#214F4B" d="M71.17 38.749c.132-.497-.35-.502-.909-.507-.283-.003-.587-.006-.839-.073a2.984 2.984 0 0 1-.663-.295c-.387-.214-.656-.362-.79.138-.2.75.597 1.442 1.346 1.642.75.201 1.653-.156 1.854-.905ZM83.055 73.297c0-1.453-1.23-2.57-2.683-2.57-2.333 0-3.398 2.534-2.167 4.152.328.43.489 1.022.206 1.484-2.325 3.798-4.91 7.865-8.66 10.574-.335.223-.447.782-.224 1.118.224.335.783.447 1.118.223 4.343-3.006 7.133-7.677 9.586-11.912.02-.033.045-.063.065-.096.125-.197.257-.41.486-.455 1.347-.26 2.273-1.296 2.273-2.517Z"/><path fill="#214F4B" fill-rule="evenodd" d="M70.645 88.278c-.335.224-.894.112-1.118-.223-.223-.336-.111-.895.224-1.118 3.75-2.709 6.335-6.776 8.66-10.574.283-.462.122-1.053-.206-1.484-1.231-1.618-.166-4.153 2.167-4.153 1.453 0 2.683 1.118 2.683 2.572 0 1.22-.926 2.256-2.273 2.517-.226.044-.357.252-.48.447l-.006.008-.029.042c-.013.018-.025.035-.036.054-2.453 4.235-5.243 8.906-9.586 11.912Zm-1.18-1.751c3.653-2.642 6.19-6.62 8.52-10.425.127-.208.091-.567-.178-.92-1.473-1.935-.197-4.956 2.565-4.956 1.701 0 3.183 1.315 3.183 3.072 0 1.493-1.128 2.703-2.666 3.005a.221.221 0 0 0-.022.021c-.04.044-.08.104-.148.213a1.017 1.017 0 0 1-.058.084c-2.445 4.222-5.284 8.99-9.731 12.068l-.007.005c-.303.202-.67.234-.977.172a1.307 1.307 0 0 1-.835-.534c-.202-.303-.233-.67-.172-.976a1.31 1.31 0 0 1 .526-.83Z" clip-rule="evenodd"/><path fill="#214F4B" d="M85.85 88.055c-1.278 0-2.383.864-2.632 2.06-.065.316-.207.624-.476.802-3.074 2.031-7.017 2.921-10.756 2.28-.447-.112-.894.224-1.006.671-.112.447.224.895.671 1.006 3.94.622 7.977-.198 11.306-2.193.443-.266 1.01-.161 1.452.105 1.647.99 4.011-.134 4.011-2.272.112-1.341-1.118-2.46-2.57-2.46Z"/><path fill="#214F4B" fill-rule="evenodd" d="M71.651 94.874c-.447-.111-.783-.559-.67-1.006.111-.447.558-.782 1.005-.67 3.739.64 7.682-.25 10.756-2.28.27-.179.41-.487.476-.803.249-1.196 1.354-2.06 2.631-2.06 1.453 0 2.683 1.118 2.572 2.46 0 2.137-2.365 3.261-4.012 2.27-.442-.265-1.009-.37-1.452-.104a16.965 16.965 0 0 1-11.306 2.193Zm17.27-4.34c-.016 2.548-2.824 3.85-4.77 2.68-.358-.215-.715-.237-.937-.105a17.465 17.465 0 0 1-11.641 2.26l-.022-.004-.021-.006c-.654-.163-1.228-.84-1.035-1.612.162-.648.828-1.218 1.592-1.04 3.605.614 7.412-.247 10.38-2.207.111-.074.209-.23.262-.487.3-1.444 1.622-2.458 3.12-2.458 1.666 0 3.199 1.289 3.071 2.98Z" clip-rule="evenodd"/><path fill="#214F4B" d="M75.92 109.646c-.255.303-.611.533-1.006.509-4.469-.273-8.83-1.16-12.99-2.759a1.055 1.055 0 0 0-1.01.311.498.498 0 0 0-.134.307c-.023.345.14.672.382.877.059.05.128.083.2.11 4.227 1.571 8.751 2.447 13.29 2.814.414.034.752.327.969.682a2.65 2.65 0 0 0 2.29 1.271c1.454 0 2.684-1.118 2.684-2.571.103-2.462-3.181-3.324-4.674-1.551Z"/><path fill="#214F4B" fill-rule="evenodd" d="m62.076 106.918.028.011c4.107 1.579 8.418 2.457 12.84 2.727.175.011.393-.093.594-.332.896-1.064 2.31-1.319 3.463-.969 1.166.354 2.152 1.356 2.094 2.852-.006 1.752-1.485 3.061-3.183 3.061a3.15 3.15 0 0 1-2.719-1.511c-.17-.279-.387-.427-.582-.443-4.574-.371-9.145-1.254-13.423-2.844a1.15 1.15 0 0 1-.349-.197 1.574 1.574 0 0 1-.558-1.293.998.998 0 0 1 .27-.616c.347-.367.91-.6 1.495-.454l.03.008Zm18.519 4.279c.103-2.462-3.181-3.324-4.674-1.551-.256.303-.612.533-1.007.509-4.469-.273-8.83-1.16-12.99-2.759a1.055 1.055 0 0 0-1.01.311.498.498 0 0 0-.134.307c-.023.345.14.672.382.877.059.05.128.083.2.11 4.227 1.571 8.751 2.447 13.29 2.814.414.034.752.327.969.682a2.65 2.65 0 0 0 2.29 1.271c1.454 0 2.684-1.118 2.684-2.571Z" clip-rule="evenodd"/><path fill="#214F4B" d="M46.385 95.657a.625.625 0 0 1 .747-.1c2.93 1.632 6.34 2.447 9.65 2.447 1.884 0 3.877-.22 5.653-.767.033-.01.073-.012.104-.026.115-.054.203-.028.271.08.244.38.644.729 1.127.825 1.454.336 3.019-1.118 2.684-2.571-.336-1.453-2.348-2.236-3.578-1.23-.1.1-.55.375-.729 1.06-.041.159-.176.282-.34.282a.328.328 0 0 0-.096.014c-4.502 1.379-9.715.81-13.873-1.313a.665.665 0 0 1-.322-.806l.085-.254a.31.31 0 0 1 .294-.213c8.535-.218 16.32-5.685 19.373-13.988.123-.335.416-.575.736-.735.875-.44 1.543-1.45 1.356-2.381-.335-1.454-2.347-2.236-3.577-1.23l-.335.335c-.637.728-.608 1.826-.093 2.632.216.337.35.746.214 1.122-2.624 7.26-9.234 12.138-16.759 12.737-.561.045-1.037-.402-1.214-.936-.135-.404-.043-.872.271-1.16 5.462-5.015 8.793-12.446 8.862-19.842.003-.364.205-.693.47-.94.554-.516.935-1.292.758-1.998-.335-1.453-2.348-2.235-3.577-1.23l-.336.336c-.739.924-.485 2.383.382 3.114.33.277.626.642.614 1.072-.196 6.67-3.093 13.27-7.826 17.898-.41.401-1.075.336-1.546.007a4.233 4.233 0 0 0-.138-.092c-.457-.292-.748-.836-.602-1.359 1.8-6.428 1.99-13.293.662-19.807-.088-.43.126-.855.413-1.187a1.967 1.967 0 0 0 .439-1.77c-.327-1.418-2.25-2.197-3.486-1.3a.096.096 0 0 1-.143-.033c-.029-.058-.107-.068-.147-.017-.747.97-.372 2.566.623 3.223.324.214.634.494.71.875a42.33 42.33 0 0 1-.684 19.373c-.127.464-.575.752-1.054.793a5.455 5.455 0 0 0-1.407.322c-.557.204-1.211-.01-1.428-.564-1.563-3.982-2.51-8.276-2.688-12.503-.017-.404.23-.76.55-1.007.671-.519 1.059-1.319.881-2.119-.335-1.453-2.348-2.236-3.577-1.23l-.336.336c-.75.844-.556 2.24.187 2.998.26.264.488.588.502.959.181 4.84 1.304 9.666 3.195 14.128.151.358.084.768-.147 1.08a6.141 6.141 0 0 0-.71 1.227c-.236.55-.845.9-1.379.625-1.508-.776-2.9-2.046-3.995-3.689-1.237-1.957-1.998-4.199-2.722-6.463-.114-.356-.006-.737.206-1.045.313-.455.474-.971.391-1.547-.329-1.427-2.275-2.208-3.51-1.283a.957.957 0 0 1-.144.091.633.633 0 0 0-.245.206c-.72 1.063-.268 2.791.932 3.3.41.173.816.439.943.865.717 2.404 1.484 4.624 2.807 6.659.448.724.96 1.385 1.517 1.972.754.794.245 2.514-.802 2.194-5.577-1.7-10.023-7.03-10.527-14.232-.02-.28.095-.55.266-.774.374-.487.56-1.048.379-1.681-.336-1.454-2.348-2.236-3.578-1.23l-.335.335c-.823 1.006-.45 2.684.63 3.324.43.254.848.624.905 1.119 1.006 8.639 7.216 14.6 14.345 15.378.997.11 1.447 1.392.544 1.83-3.18 1.545-6.92 2.01-10.328 1.231-.435-.099-.704-.51-.875-.923-.505-1.218-2.218-1.748-3.283-1.05a.348.348 0 0 0-.15.294.443.443 0 0 1-.095.266c-.865 1.143-.191 3.138 1.213 3.462.584.167 1.168.023 1.658-.293.311-.2.687-.308 1.045-.212 4.995 1.332 10.208.205 14.132-2.541.401-.281.943-.207 1.34.081.367.268.622.732.438 1.148a6.182 6.182 0 0 1-1.858 2.408c-.262.202-.611.214-.933.138-.611-.143-1.246-.084-1.763.224a.788.788 0 0 0-.154.123l-.265.265c-1.007 1.118-.336 3.243 1.118 3.578 1.257.29 2.682-.842 2.754-2.167.02-.379.125-.759.42-1 .721-.589 2.06-.184 1.993.745-.42 5.88-.837 17.094 5.453 25.452 1.9 2.795 4.248 4.919 6.932 6.372.447.224.894.112 1.118-.335.223-.447.111-.894-.336-1.118-5.254-2.795-9.055-8.608-10.509-15.875-1.202-6.119-.802-12.344-.261-18.572.021-.245.223-.428.46-.496a.503.503 0 0 1 .622.307c.924 2.688 2.831 4.986 5.307 6.48.226.136.391.352.489.597.253.639.688 1.212 1.433 1.399 1.453.335 3.018-1.118 2.683-2.572-.278-1.294-2.008-2.053-3.23-1.455-.457.223-1.015.368-1.425.068a10.38 10.38 0 0 1-3.622-4.846c-.143-.4.037-.848.34-1.147.069-.067.131-.155.181-.237.089-.143.177-.232.265-.32Zm-3.018-7.49c2.795.335 4.136 3.8 2.236 5.925-1.006 1.118-2.683 1.565-4.137 1.118-1.341-.336-2.46-1.566-2.57-2.795-.336-2.013 1.788-4.472 4.47-4.249Z"/><path fill="#214F4B" fill-rule="evenodd" d="M63.043 94.315c1.23-1.006 3.242-.223 3.578 1.23.335 1.453-1.23 2.907-2.683 2.571-.484-.096-.884-.444-1.128-.826-.068-.107-.156-.133-.27-.08-.02.01-.041.013-.063.018a.4.4 0 0 0-.042.01c-1.776.547-3.77.766-5.653.766-3.31 0-6.72-.815-9.65-2.446a.625.625 0 0 0-.747.099 1.635 1.635 0 0 0-.265.32c-.05.082-.112.17-.18.237-.304.3-.484.746-.341 1.147a10.38 10.38 0 0 0 3.622 4.846c.41.3.968.155 1.424-.068 1.223-.598 2.953.161 3.23 1.455.336 1.454-1.229 2.907-2.682 2.572-.745-.187-1.18-.76-1.433-1.399a1.208 1.208 0 0 0-.489-.597c-2.476-1.494-4.383-3.792-5.307-6.48a.503.503 0 0 0-.622-.307c-.237.068-.439.25-.46.496-.54 6.228-.94 12.453.261 18.572 1.454 7.267 5.255 13.08 10.51 15.875.446.224.558.671.335 1.118-.224.447-.671.559-1.118.335-2.683-1.453-5.031-3.577-6.932-6.372-6.29-8.358-5.872-19.572-5.453-25.452.066-.929-1.272-1.334-1.993-.745-.295.241-.4.621-.42 1-.072 1.325-1.497 2.457-2.754 2.167-1.454-.335-2.125-2.46-1.118-3.578l.265-.265a.788.788 0 0 1 .154-.123c.517-.308 1.151-.367 1.763-.224.322.076.671.064.933-.138a6.182 6.182 0 0 0 1.858-2.408c.184-.416-.07-.88-.439-1.148-.396-.288-.938-.362-1.339-.081-3.924 2.746-9.137 3.873-14.132 2.54-.358-.095-.734.013-1.045.213-.49.316-1.074.46-1.658.293-1.404-.324-2.078-2.32-1.213-3.462a.443.443 0 0 0 .095-.266c0-.117.052-.23.15-.295 1.065-.697 2.778-.167 3.283 1.051.171.413.44.824.875.923 3.407.779 7.149.314 10.328-1.23.903-.44.453-1.722-.544-1.83-7.13-.779-13.34-6.74-14.345-15.38-.057-.494-.476-.864-.904-1.118-1.08-.64-1.454-2.318-.631-3.324l.335-.335c1.23-1.006 3.242-.224 3.578 1.23.18.633-.005 1.194-.379 1.68-.171.224-.286.494-.266.775.504 7.201 4.95 12.531 10.527 14.232 1.047.32 1.556-1.4.802-2.194a12.198 12.198 0 0 1-1.517-1.972c-1.323-2.035-2.09-4.254-2.807-6.66-.127-.425-.533-.69-.943-.864-1.2-.509-1.653-2.237-.932-3.3a.633.633 0 0 1 .245-.206.957.957 0 0 0 .145-.091c1.234-.925 3.18-.144 3.51 1.283.082.576-.079 1.092-.392 1.547-.212.308-.32.689-.206 1.045.724 2.264 1.485 4.506 2.721 6.463 1.095 1.643 2.488 2.913 3.996 3.689.534.274 1.143-.074 1.38-.625.18-.42.413-.825.709-1.226.23-.313.298-.723.147-1.081-1.89-4.462-3.014-9.288-3.195-14.128-.014-.371-.242-.695-.502-.96-.743-.757-.938-2.153-.187-2.997l.336-.336c1.23-1.006 3.242-.223 3.577 1.23.178.8-.21 1.6-.882 2.12-.32.246-.566.602-.55 1.006.18 4.227 1.126 8.521 2.689 12.503.217.553.87.768 1.428.564.458-.168.93-.281 1.407-.322.479-.041.927-.33 1.054-.793a42.33 42.33 0 0 0 .684-19.373c-.075-.381-.386-.661-.71-.875-.878-.58-1.273-1.89-.84-2.857l.004-.01a1.818 1.818 0 0 1 .213-.356c.04-.051.118-.04.147.017a.096.096 0 0 0 .143.033c1.235-.898 3.159-.118 3.486 1.3a1.967 1.967 0 0 1-.44 1.77c-.286.332-.5.757-.412 1.187 1.329 6.514 1.137 13.379-.662 19.807-.146.523.145 1.067.602 1.36.047.029.093.06.138.091.471.329 1.135.395 1.546-.007 4.733-4.629 7.63-11.229 7.826-17.898.012-.43-.284-.795-.614-1.072-.867-.731-1.121-2.19-.382-3.114l.336-.335c1.23-1.006 3.242-.224 3.577 1.23.177.705-.204 1.48-.757 1.996-.266.248-.468.577-.471.941-.069 7.396-3.4 14.827-8.862 19.843-.314.287-.406.755-.271 1.159.177.534.653.98 1.214.936 7.525-.6 14.136-5.477 16.76-12.737.135-.376 0-.785-.215-1.122-.515-.806-.544-1.904.093-2.632l.335-.335c1.23-1.006 3.242-.224 3.577 1.23.187.931-.481 1.941-1.356 2.38-.32.161-.613.4-.737.736-3.052 8.303-10.837 13.77-19.372 13.988a.31.31 0 0 0-.294.213l-.085.254a.665.665 0 0 0 .322.806c4.158 2.123 9.371 2.692 13.873 1.313a.328.328 0 0 1 .096-.014c.164 0 .299-.123.34-.282.151-.58.499-.867.661-1.001.03-.024.053-.044.068-.059Zm-4.433-27.73c.236.95-.28 1.899-.902 2.479-.208.193-.31.4-.312.58-.07 7.536-3.46 15.098-9.024 20.206-.15.137-.216.39-.135.633.134.402.448.616.7.596 7.335-.584 13.774-5.338 16.329-12.409.058-.16.017-.399-.165-.683-.608-.95-.677-2.3.137-3.23l.011-.013.365-.364.02-.016c.777-.636 1.78-.69 2.61-.391.824.297 1.557.97 1.77 1.895l.002.007.002.007c.123.616-.041 1.227-.342 1.73-.3.504-.757.933-1.281 1.197-.265.133-.43.295-.491.46C64.795 87.726 56.89 93.309 48.2 93.583l-.043.129c-.029.087.011.17.075.202 4.05 2.067 9.13 2.618 13.5 1.28a.837.837 0 0 1 .122-.027 2.285 2.285 0 0 1 .734-1.12c.033-.029.065-.055.084-.07l.022-.018.013-.014.02-.016c.777-.636 1.78-.69 2.61-.39.824.296 1.557.97 1.77 1.895.218.94-.187 1.838-.813 2.431-.624.592-1.541.95-2.462.741-.566-.115-1.019-.475-1.32-.869-1.818.551-3.836.768-5.73.768-3.388 0-6.884-.834-9.893-2.51a.125.125 0 0 0-.15.016 1.15 1.15 0 0 0-.193.23c-.06.097-.147.223-.256.33-.22.217-.276.468-.22.623a9.887 9.887 0 0 0 3.446 4.611c.077.056.184.086.346.068a1.76 1.76 0 0 0 .564-.182c.769-.377 1.665-.315 2.393.01.726.324 1.364.947 1.545 1.786.215.938-.19 1.835-.815 2.428-.626.593-1.546.952-2.469.739l-.009-.002c-.962-.241-1.491-.982-1.776-1.699a.712.712 0 0 0-.282-.354c-2.569-1.55-4.553-3.935-5.519-6.736-.003 0-.008 0-.014.002a.21.21 0 0 0-.09.05.063.063 0 0 0-.01.011c-.54 6.228-.933 12.388.254 18.429 1.432 7.16 5.163 12.821 10.248 15.528.33.167.572.438.67.782.097.339.039.692-.117 1.004a1.27 1.27 0 0 1-.785.676c-.34.097-.692.038-1.004-.117l-.007-.004-.008-.004c-2.754-1.492-5.158-3.668-7.1-6.521-6.406-8.521-5.963-19.908-5.544-25.778.011-.167-.088-.338-.366-.434-.285-.098-.61-.054-.813.112-.133.108-.22.314-.237.639-.045.832-.51 1.571-1.122 2.054-.612.483-1.434.76-2.244.573-.943-.218-1.584-.999-1.846-1.833s-.182-1.843.469-2.566l.009-.01.274-.275c.067-.066.15-.137.252-.198.65-.388 1.422-.448 2.133-.282.252.06.421.024.512-.047a5.68 5.68 0 0 0 1.708-2.214c.024-.056.03-.128-.015-.23a.796.796 0 0 0-.26-.312c-.275-.2-.58-.202-.76-.075-4.036 2.825-9.401 3.986-14.547 2.614-.179-.048-.41-.003-.645.15-.58.372-1.305.565-2.054.356-.905-.214-1.53-.949-1.805-1.745-.275-.796-.239-1.761.313-2.496a.845.845 0 0 1 .375-.684c.685-.448 1.542-.484 2.277-.251.736.233 1.423.757 1.742 1.529.163.391.346.586.525.627 3.291.752 6.917.303 9.998-1.194.118-.057.165-.125.186-.182a.39.39 0 0 0-.004-.254.665.665 0 0 0-.563-.447c-7.38-.805-13.756-6.966-14.786-15.817-.029-.246-.258-.507-.663-.747-.682-.403-1.116-1.116-1.265-1.856-.149-.742-.022-1.574.502-2.214l.015-.02.371-.37.02-.016c.777-.636 1.78-.69 2.61-.391.82.295 1.55.964 1.768 1.883.23.82-.026 1.537-.466 2.11-.124.162-.173.314-.165.435.492 7.01 4.81 12.153 10.175 13.79.114.034.183.012.24-.028a.659.659 0 0 0 .216-.333c.122-.362.055-.782-.162-1.012a12.699 12.699 0 0 1-1.577-2.048c-1.362-2.097-2.145-4.374-2.864-6.784-.059-.198-.275-.385-.659-.548-.77-.326-1.269-1.027-1.473-1.77-.204-.74-.136-1.596.322-2.271.121-.178.284-.296.436-.372a.462.462 0 0 0 .068-.044c.78-.585 1.762-.614 2.57-.308.806.304 1.517.97 1.727 1.878l.004.021.003.021c.103.722-.102 1.362-.474 1.901-.156.227-.194.447-.142.61.724 2.265 1.469 4.448 2.665 6.343 1.053 1.578 2.383 2.784 3.805 3.516a.375.375 0 0 0 .352-.007.74.74 0 0 0 .34-.37c.195-.457.448-.896.765-1.326a.603.603 0 0 0 .09-.59c-1.913-4.514-3.051-9.4-3.235-14.303-.007-.18-.123-.388-.359-.628a2.92 2.92 0 0 1-.795-1.773c-.057-.658.107-1.363.592-1.907l.01-.011.363-.364.019-.016c.778-.636 1.781-.689 2.61-.39.825.296 1.558.97 1.771 1.895l.001.004c.23 1.035-.28 2.017-1.064 2.623-.252.194-.363.412-.356.59.177 4.168 1.11 8.408 2.654 12.342.097.245.43.409.791.276a5.96 5.96 0 0 1 1.536-.35c.33-.029.557-.218.614-.427a41.833 41.833 0 0 0 .676-19.144c-.034-.172-.19-.354-.494-.555-.625-.412-1.032-1.1-1.18-1.81-.146-.711-.045-1.51.436-2.135a.569.569 0 0 1 .63-.203c.735-.415 1.597-.405 2.319-.127.797.306 1.5.968 1.71 1.868a2.467 2.467 0 0 1-.548 2.214c-.248.287-.343.556-.302.76 1.345 6.59 1.152 13.534-.67 20.042-.07.254.064.594.39.803.053.033.105.068.155.103.356.249.734.218.91.046 4.64-4.538 7.484-11.016 7.676-17.555.005-.188-.13-.419-.436-.676-1.046-.881-1.382-2.644-.45-3.808l.017-.022.373-.373.019-.015c.778-.636 1.781-.69 2.61-.391.823.296 1.556.968 1.77 1.89ZM43.38 97.927v-.002Zm4.696-4.342-.013-.5v.5a.18.18 0 0 0 .013 0Zm-6.609 1.625c1.454.447 3.13 0 4.137-1.118 1.9-2.124.559-5.59-2.236-5.926-2.683-.223-4.807 2.236-4.472 4.249.112 1.23 1.23 2.46 2.571 2.795Zm1.85-6.546c-1.17-.095-2.227.393-2.96 1.139-.745.756-1.102 1.721-.968 2.53l.003.018.002.018c.09.992 1.032 2.065 2.195 2.356l.013.003.012.004c1.273.391 2.745-.005 3.618-.974 1.625-1.817.477-4.8-1.915-5.094Z" clip-rule="evenodd"/></g><defs><clipPath id="a"><rect width="124" height="124" x=".957" fill="#fff" rx="62"/></clipPath></defs></svg>