<svg xmlns="http://www.w3.org/2000/svg" width="40" height="54" fill="none"><path stroke="#000" stroke-dasharray="0.11 3.21" stroke-linecap="round" stroke-linejoin="round" stroke-width="1.375" d="M18.847 33.816c6.309 7.236-12.092 18.914-17.11 11.822-1.488-2.105-.229-7.301 6.256-6.826 3.224 0 9.648 1.793 12.744 10.1.95 2.547 1.21-.215 1.254 3.575"/><path fill="#F34413" fill-rule="evenodd" d="m19.6 4.226-.526-.038-.246.464-.034.064a249.34 249.34 0 0 0-.621 1.176l-.448.854c.613.185.942.311 1.505.592l.37-.693.385-.73c1.753.406 4.459 2.276 5.176 5.867l.002.009.002.008c.046.21.106.6.135 1.097-1.852-2.313-3.857-3.83-5.657-4.784a13.273 13.273 0 0 0-3.054-1.186c-.865-.21-1.624-.274-2.157-.198l-.403.057-.193.358c-1.15 2.125-1.418 4.822-.91 7.194.504 2.363 1.822 4.576 4.032 5.51.05.02.081.035.115.05.09.04.194.088.687.262l.128-.39v-.001c.129-.398.215-.663.421-1.072l-.723-.334c-1.552-.657-2.643-2.3-3.083-4.362-.406-1.897-.223-4.003.55-5.686.286.013.676.064 1.156.18.748.18 1.669.509 2.679 1.044 2.015 1.067 4.378 2.956 6.42 6.131l.006.011.008.011c.99 1.437 1.686 3.023 1.925 4.713.047.33.076.647.088.948-3.482-.344-6.015-2.259-6.847-3.185l-.73-.812-.561.936c-.213.354-.638 1.313-.888 2.16a12.618 12.618 0 0 0-.23.899 11.044 11.044 0 0 0-.212 1.563 12.69 12.69 0 0 0 .005 1.877 10.955 10.955 0 0 0 .148 1.105c.242 1.278.763 2.596 1.772 3.627l.255.26.364-.02a10.978 10.978 0 0 0 4.014-1.028 9.594 9.594 0 0 0 1.067-.595c.215-.139.425-.288.63-.45.395-.31.77-.662 1.11-1.062a7.079 7.079 0 0 0 1.412-2.64 8.055 8.055 0 0 0 .293-1.727c.04-.65.013-1.344-.092-2.083-.266-1.873-1.004-3.599-2.014-5.133a11.72 11.72 0 0 0 .04-2.74 7.745 7.745 0 0 1 1.817.052c.18.028.358.063.534.107.96.241 1.657.7 1.931 1.444.254.689.258 1.218.159 1.626a2.29 2.29 0 0 1-.615 1.062c-.606.62-1.51.95-1.85 1.069.264.609.359.942.48 1.522.4-.139 1.646-.566 2.523-1.463a3.9 3.9 0 0 0 1.03-1.809c.184-.758.136-1.615-.213-2.564-.309-.84-.873-1.424-1.524-1.826a1.18 1.18 0 0 1 .393.016h.003a.807.807 0 0 0 .422-1.557h-.003l-.004-.002a1.37 1.37 0 0 0-.112-.026 2.756 2.756 0 0 0-1.03-.012c-.253.047-.52.138-.773.29.086-.314.289-.665.787-1.02a.807.807 0 1 0-.935-1.315c-.826.588-1.263 1.286-1.436 2.02a3.52 3.52 0 0 0-.091.776 9.396 9.396 0 0 0-1.8.02l-.005-.016c-1.174-4.168-4.694-6.307-6.96-6.472Zm.553 15.833c1.412 1.164 3.902 2.604 7.076 2.904a6.074 6.074 0 0 1-.245.919c-.495.012-1.087-.068-1.741-.229a15.1 15.1 0 0 1-2.579-.922 15.9 15.9 0 0 1-2.151-1.176 6.2 6.2 0 0 1-.693-.524l.036-.124c.084-.284.19-.58.297-.848Zm4.704 5.16c.416.103.838.184 1.254.231a5.958 5.958 0 0 1-.778.802c-.965-.024-2.185-.394-3.36-.909-1.055-.463-1.979-1-2.525-1.387a11.273 11.273 0 0 1 .045-1.143l.125.084c.644.43 1.475.89 2.377 1.302.902.411 1.895.782 2.862 1.02Zm-3.531 1.601c.587.258 1.227.501 1.876.688a9.516 9.516 0 0 1-2.5.614c-.457-.58-.81-1.323-1.007-2.114.494.277 1.05.558 1.63.812Zm8.54-12.39c0 .329-.298.252-.643.163a2.245 2.245 0 0 0-.528-.093 1.9 1.9 0 0 0-.457.072c-.274.068-.464.115-.464-.215 0-.495.605-.79 1.1-.79.494 0 .992.37.992.864Z" clip-rule="evenodd"/></svg>