<svg xmlns="http://www.w3.org/2000/svg" width="125" height="124" fill="none"><g clip-path="url(#a)"><rect width="124" height="124" x=".957" fill="#F8F7F3" rx="62"/><path fill="#000" fill-rule="evenodd" d="M61.248 71.31a1.5 1.5 0 0 1 2.117.145l.09.105a1.5 1.5 0 1 1-2.278 1.951 13.385 13.385 0 0 0-.074-.085 1.5 1.5 0 0 1 .145-2.116Zm3.748 6.391a1.5 1.5 0 0 1 1.567 1.43l.009.276a1.5 1.5 0 0 1-3 .069 9 9 0 0 0-.006-.209 1.5 1.5 0 0 1 1.43-1.566Zm-28.08 5.53a1.5 1.5 0 0 1 1.599-1.394l.09.006h.071a1.5 1.5 0 1 1-.023 3h-.103c-.037 0-.074-.002-.11-.004l-.13-.01a1.5 1.5 0 0 1-1.394-1.598Zm-5.113.607a1.5 1.5 0 0 1-.823 1.955l-.218.091a1.5 1.5 0 1 1-1.189-2.754l.275-.115a1.5 1.5 0 0 1 1.955.823Zm12.553.328a1.5 1.5 0 0 1 1.895-.953l.242.08a1.5 1.5 0 0 1-.965 2.841l-.219-.073a1.5 1.5 0 0 1-.953-1.895Zm19.536.966a1.5 1.5 0 0 1 .602 2.035l-.127.23a1.5 1.5 0 0 1-2.618-1.465l.11-.198a1.5 1.5 0 0 1 2.033-.602ZM51.28 87.036a1.5 1.5 0 0 1 2.067-.477l.212.133a1.5 1.5 0 1 1-1.608 2.533 26.8 26.8 0 0 0-.193-.122 1.5 1.5 0 0 1-.478-2.067ZM25.074 88.67a1.5 1.5 0 0 1 .786 1.97c-.03.07-.059.14-.087.212a1.5 1.5 0 0 1-2.787-1.11c.038-.096.077-.19.118-.285a1.5 1.5 0 0 1 1.97-.787Zm31.84 3.652a1.498 1.498 0 0 0 1.212 1.767 1.5 1.5 0 0 0 1.933-1.641 1.5 1.5 0 0 0-2.01-1.418 1.494 1.494 0 0 0-1.136 1.293Zm-3.011 4.043a1.5 1.5 0 0 1-.435 2.077l-.21.136a1.5 1.5 0 1 1-1.627-2.52l.196-.127a1.5 1.5 0 0 1 2.076.434Zm-29.916.517a1.5 1.5 0 0 1 2.081.408 3.96 3.96 0 0 0 .118.167 1.5 1.5 0 0 1-2.43 1.76 11.74 11.74 0 0 1-.178-.254 1.5 1.5 0 0 1 .409-2.081Zm38.308.168a1.5 1.5 0 0 1 2.075.44l.135.208a1.5 1.5 0 1 1-2.525 1.62 30.246 30.246 0 0 0-.124-.193 1.5 1.5 0 0 1 .439-2.075Zm-14.964 3.105a1.5 1.5 0 0 1-.818 1.958l-.233.094a1.5 1.5 0 1 1-1.12-2.782l.214-.088a1.5 1.5 0 0 1 1.957.818Zm-17.875 1.863a1.5 1.5 0 0 1 1.862-1.017l.206.059a1.5 1.5 0 0 1-.792 2.893 11.421 11.421 0 0 1-.26-.073 1.5 1.5 0 0 1-1.016-1.862Zm10.686.553a1.5 1.5 0 0 1-1.263 1.704c-.085.012-.17.025-.256.036a1.5 1.5 0 1 1-.411-2.971l.226-.033a1.5 1.5 0 0 1 1.704 1.264Zm25.87.987a1.5 1.5 0 0 1 1.96.813l.095.232a1.5 1.5 0 0 1-2.778 1.132l-.058-.141-.031-.076a1.5 1.5 0 0 1 .812-1.96Zm2.525 7.059a1.5 1.5 0 0 1 1.812 1.103l.059.243a1.5 1.5 0 1 1-2.918.696 35.48 35.48 0 0 0-.056-.23 1.5 1.5 0 0 1 1.103-1.812Zm1.48 7.34a1.5 1.5 0 0 1 1.66 1.32l.028.244a1.5 1.5 0 0 1-2.982.33 61.997 61.997 0 0 0-.026-.234 1.5 1.5 0 0 1 1.32-1.66Zm.613 7.487a1.5 1.5 0 0 1 1.519 1.481l.001.124a1.5 1.5 0 1 1-3 .034v-.12a1.5 1.5 0 0 1 1.48-1.519Z" clip-rule="evenodd"/><path fill="#F34413" fill-rule="evenodd" d="m63.91 25.292-.794-.058-.424.8-.168.317-.771 1.46-.678 1.292c.927.28 1.425.47 2.277.895l.558-1.048.583-1.105c2.65.616 6.742 3.443 7.827 8.874l.003.013.003.013c.07.316.16.908.205 1.659-2.802-3.498-5.833-5.793-8.556-7.235-1.7-.901-3.284-1.47-4.618-1.794-1.309-.316-2.455-.413-3.262-.299l-.609.087-.292.54c-1.738 3.214-2.144 7.292-1.377 10.88.763 3.572 2.757 6.92 6.098 8.332.075.03.123.052.174.075.135.061.294.133 1.039.396.074-.221.137-.415.194-.59.195-.603.324-1.003.637-1.621l-1.094-.506c-2.347-.993-3.996-3.477-4.662-6.596-.613-2.869-.338-6.054.832-8.599.432.02 1.021.097 1.748.273 1.131.273 2.524.769 4.05 1.578 3.048 1.614 6.62 4.47 9.708 9.272l.01.017.012.016c1.497 2.173 2.55 4.572 2.912 7.127.071.5.114.978.133 1.434-5.267-.52-9.096-3.416-10.354-4.817l-1.104-1.228-.85 1.416c-.32.535-.963 1.985-1.342 3.265a19.233 19.233 0 0 0-.348 1.36 16.707 16.707 0 0 0-.32 2.363 19.202 19.202 0 0 0 .008 2.84 15.445 15.445 0 0 0 .223 1.67c.367 1.933 1.154 3.926 2.68 5.484l.386.394.55-.029c1.706-.09 3.94-.54 6.07-1.556a14.462 14.462 0 0 0 1.614-.899c.324-.21.643-.436.953-.68a11.585 11.585 0 0 0 1.677-1.607 10.7 10.7 0 0 0 2.136-3.992c.233-.81.385-1.68.443-2.612.061-.983.019-2.031-.14-3.149-.401-2.832-1.517-5.442-3.044-7.762.216-1.568.171-3.057.059-4.144a11.705 11.705 0 0 1 2.749.08c.27.04.54.094.806.16 1.453.365 2.507 1.058 2.921 2.184.383 1.042.39 1.842.24 2.459-.152.624-.487 1.153-.93 1.606-.916.937-2.282 1.438-2.798 1.616.4.921.543 1.425.728 2.302.605-.21 2.489-.856 3.814-2.212.678-.693 1.28-1.596 1.556-2.736.28-1.147.207-2.442-.32-3.877-.468-1.271-1.321-2.154-2.306-2.761a1.78 1.78 0 0 1 .595.023h.003l.002.001A1.22 1.22 0 0 0 82.603 34h-.002l-.003-.002-.006-.001-.014-.004a2.729 2.729 0 0 0-.155-.035 4.17 4.17 0 0 0-1.558-.018c-.383.07-.787.207-1.169.439.13-.476.437-1.008 1.19-1.544a1.22 1.22 0 1 0-1.413-1.988c-1.25.888-1.91 1.944-2.172 3.054a5.33 5.33 0 0 0-.138 1.174 14.211 14.211 0 0 0-2.722.03l-.007-.025c-1.776-6.303-7.098-9.537-10.525-9.787Zm.836 23.944c2.136 1.76 5.902 3.937 10.702 4.39a9.194 9.194 0 0 1-.371 1.39c-.75.018-1.643-.102-2.633-.346-1.281-.316-2.637-.819-3.9-1.394-1.262-.576-2.402-1.212-3.253-1.779a9.368 9.368 0 0 1-1.047-.793l.054-.186c.127-.43.287-.876.448-1.282Zm7.114 7.803c.629.155 1.267.277 1.897.349l-.165.2a8.99 8.99 0 0 1-1.013 1.012c-1.458-.036-3.303-.595-5.079-1.374-1.597-.7-2.993-1.514-3.819-2.098a17.026 17.026 0 0 1 .068-1.729l.189.128c.973.649 2.23 1.346 3.594 1.968 1.364.622 2.865 1.183 4.328 1.544Zm-5.34 2.42c.889.39 1.856.758 2.838 1.04a14.399 14.399 0 0 1-3.78.93c-.692-.877-1.227-2.002-1.523-3.198.746.42 1.587.844 2.465 1.229Zm12.915-18.735c0 .496-.45.38-.972.246-.265-.068-.548-.141-.8-.141-.248 0-.485.059-.69.11-.414.102-.702.172-.702-.327 0-.748.915-1.193 1.663-1.193s1.5.557 1.5 1.305Z" clip-rule="evenodd"/></g><defs><clipPath id="a"><rect width="124" height="124" x=".957" fill="#fff" rx="62"/></clipPath></defs></svg>