<svg width="18" height="23" viewBox="0 0 18 23" fill="none" xmlns="http://www.w3.org/2000/svg">
<g id="Group 186">
<path id="Union" fill-rule="evenodd" clip-rule="evenodd" d="M6.30862 0.893268L5.87128 0.861328L5.66574 1.24869L5.66571 1.24874L5.63738 1.3022C5.6179 1.33899 5.58772 1.39599 5.54487 1.47701C5.45916 1.63905 5.32275 1.89716 5.11979 2.28171L4.74652 2.99391C5.25731 3.14834 5.53181 3.25318 6.0013 3.48732L6.30898 2.90934C6.4442 2.65314 6.54981 2.45318 6.63053 2.30045C8.09122 2.63998 10.3467 4.1983 10.9447 7.19158L10.9461 7.19871L10.9477 7.20581C10.9865 7.38035 11.0359 7.7065 11.0607 8.1203C9.51639 6.19214 7.84573 4.92751 6.3449 4.13249C5.40734 3.63585 4.53478 3.32177 3.7992 3.14389C3.07814 2.96952 2.44618 2.91582 2.00138 2.97903L1.66576 3.02672L1.50454 3.32492C0.547007 5.09604 0.323204 7.34396 0.745675 9.32143C1.16634 11.2904 2.26509 13.1356 4.10716 13.9143C4.14839 13.9307 4.17473 13.9427 4.20289 13.9554C4.27747 13.9893 4.36482 14.0289 4.77536 14.1734C4.81635 14.0517 4.85084 13.9452 4.88224 13.8482L4.8823 13.848L4.88233 13.848C4.98986 13.5159 5.06119 13.2957 5.2334 12.9547L4.63072 12.6757C3.33668 12.1287 2.42795 10.7597 2.06065 9.0405C1.72278 7.45899 1.87482 5.70346 2.51949 4.30088C2.75752 4.3116 3.08239 4.35396 3.48314 4.45087C4.10641 4.60159 4.87396 4.87496 5.71547 5.32073C7.3952 6.21052 9.36476 7.78456 11.0664 10.4318L11.0722 10.4408L11.0784 10.4497C11.9037 11.6474 12.4839 12.9697 12.6837 14.378C12.7228 14.6539 12.7466 14.9172 12.7566 15.1686C9.85394 14.8814 7.74332 13.2856 7.04957 12.5136L6.44124 11.8367L5.97299 12.6171C5.79599 12.9121 5.44169 13.7111 5.23325 14.4166C5.18395 14.5834 5.14081 14.7427 5.10301 14.8971C5.09375 14.9349 5.08482 14.9724 5.0762 15.0097C5.06399 15.0624 5.05241 15.1146 5.04141 15.1663C4.94508 15.6198 4.89607 16.03 4.86488 16.4689C4.8371 16.8597 4.82836 17.2788 4.84869 17.7109C4.85372 17.8178 4.86054 17.9255 4.86929 18.0339C4.8757 18.1133 4.88315 18.1929 4.8917 18.2729C4.91585 18.4985 4.94884 18.7266 4.99217 18.9548C5.19442 20.0199 5.62829 21.1187 6.46938 21.9777L6.68184 22.1947L6.9851 22.1787C7.92581 22.1292 9.15672 21.8807 10.3312 21.3212C10.5401 21.2217 10.7478 21.1121 10.9523 20.9915C11.0425 20.9383 11.132 20.8831 11.2208 20.8256C11.3995 20.7098 11.575 20.5851 11.7459 20.451C12.0751 20.1924 12.3871 19.8983 12.6702 19.5651C12.8886 19.308 13.0895 19.028 13.2675 18.7238C13.3678 18.5525 13.4606 18.3737 13.5452 18.1874C13.6631 17.9274 13.7647 17.6532 13.8478 17.3644C13.9762 16.9178 14.0597 16.4383 14.0919 15.9246C14.1257 15.3831 14.1023 14.8051 14.015 14.1892C13.7935 12.6279 13.1785 11.1894 12.3366 9.91083C12.4557 9.04663 12.4314 8.22562 12.3693 7.62669C12.7819 7.58892 13.3323 7.58536 13.8845 7.67015L13.8847 7.67019C14.0336 7.69305 14.1826 7.72234 14.3291 7.75912C15.1295 7.96007 15.7107 8.34178 15.9391 8.96282C16.1502 9.53689 16.1539 9.97806 16.0713 10.318C15.9876 10.6621 15.8027 10.9536 15.5585 11.2034C15.0537 11.7197 14.3006 11.9958 14.0161 12.0942C14.2366 12.6017 14.3158 12.8795 14.4176 13.3627C14.7511 13.2473 15.7892 12.8908 16.52 12.1435C16.8935 11.7614 17.225 11.2639 17.3778 10.6358C17.5316 10.0035 17.4919 9.28919 17.2011 8.49863C16.9433 7.79785 16.4729 7.3113 15.9304 6.97645C16.0143 6.96496 16.0971 6.96724 16.1647 6.97454C16.2015 6.97852 16.23 6.98358 16.2467 6.98697C16.2517 6.98796 16.2554 6.98879 16.258 6.98937L16.2596 6.98973L16.2609 6.99004C16.6165 7.0844 16.9827 6.87506 17.0811 6.51959C17.1802 6.16174 16.9705 5.79131 16.6126 5.69222L16.612 5.69204L16.6113 5.69186L16.6099 5.69146L16.6066 5.69059C16.6043 5.68997 16.6017 5.68927 16.5987 5.6885C16.5928 5.68698 16.5857 5.68517 16.5774 5.68316C16.5607 5.67914 16.5393 5.67426 16.5135 5.66904C16.4621 5.65865 16.3925 5.64668 16.3092 5.63767C16.1454 5.61997 15.9129 5.61194 15.6549 5.65909C15.4436 5.69771 15.2209 5.77357 15.0103 5.90107C15.0822 5.63892 15.2509 5.34576 15.6666 5.05019C15.9692 4.835 16.04 4.41525 15.8248 4.11264C15.6097 3.81004 15.1899 3.73917 14.8873 3.95436C14.1987 4.44402 13.8345 5.02599 13.69 5.63777C13.6376 5.85996 13.6163 6.07774 13.6142 6.28476C13.0466 6.23623 12.5169 6.25604 12.1134 6.30121L12.1096 6.28782C11.1309 2.81357 8.19712 1.03119 6.30862 0.893268ZM6.76998 14.0908C7.94726 15.0609 10.023 16.261 12.6684 16.511C12.6376 16.6784 12.5997 16.8389 12.5555 16.9928C12.5275 17.09 12.497 17.1847 12.464 17.2771C12.0511 17.2867 11.5583 17.2207 11.0129 17.0861C10.3067 16.912 9.55951 16.635 8.86349 16.3176C8.16758 16.0002 7.53907 15.6498 7.07 15.3372C6.83479 15.1804 6.64973 15.0398 6.51944 14.9241C6.51013 14.9158 6.50134 14.9079 6.49302 14.9003C6.50261 14.8665 6.51253 14.8323 6.52279 14.7976C6.59278 14.5607 6.68131 14.3146 6.76998 14.0908ZM10.6909 18.3917C11.0375 18.4771 11.3895 18.5446 11.7364 18.584C11.7066 18.6214 11.6763 18.6582 11.6454 18.6945C11.4739 18.8963 11.2869 19.082 11.0876 19.2523C10.2834 19.2323 9.26681 18.9241 8.28788 18.4948C7.40744 18.1087 6.63778 17.6607 6.18283 17.3384C6.17972 17.0723 6.18851 16.8124 6.20615 16.5642C6.21045 16.5037 6.21509 16.4443 6.22015 16.3857C6.25433 16.4092 6.28905 16.4326 6.32427 16.4561C6.86094 16.8138 7.55361 17.1981 8.30554 17.541C9.05736 17.8839 9.88469 18.1928 10.6909 18.3917ZM7.74782 19.7263C8.23741 19.941 8.77051 20.1437 9.31163 20.2996C8.58094 20.5897 7.8448 20.7487 7.22827 20.8115C6.84712 20.3281 6.5523 19.7082 6.38859 19.049C6.80035 19.2801 7.26379 19.514 7.74782 19.7263ZM14.8661 9.39929C14.8661 9.67273 14.6178 9.60879 14.3303 9.53475C14.1844 9.49718 14.0284 9.45701 13.8897 9.45701C13.7528 9.45701 13.6223 9.48926 13.5089 9.51726C13.2809 9.57359 13.1224 9.61273 13.1224 9.33738C13.1224 8.92518 13.6269 8.67963 14.0391 8.67963C14.4513 8.67963 14.8661 8.98709 14.8661 9.39929Z" fill="#F34413"/>
</g>
</svg>
