<svg width="28" height="28" viewBox="0 0 28 28" fill="none" xmlns="http://www.w3.org/2000/svg">
<path d="M15.0002 24.5L14.8834 24.3249C14.073 23.1093 13.6678 22.5015 13.1324 22.0614C12.6585 21.6719 12.1124 21.3796 11.5254 21.2014C10.8623 21 10.1318 21 8.67079 21H7.06683C5.76003 21 5.10664 21 4.60752 20.7457C4.16847 20.522 3.81151 20.165 3.58782 19.726C3.3335 19.2269 3.3335 18.5734 3.3335 17.2667V7.23333C3.3335 5.92654 3.3335 5.27315 3.58782 4.77402C3.81151 4.33497 4.16847 3.97802 4.60752 3.75432C5.10664 3.5 5.76003 3.5 7.06683 3.5H7.5335C10.1471 3.5 11.4539 3.5 12.4521 4.00863C13.3302 4.45605 14.0441 5.16995 14.4915 6.04805C15.0002 7.04629 15.0002 8.35309 15.0002 10.9667M15.0002 24.5V10.9667M15.0002 24.5L15.1169 24.3249C15.9273 23.1093 16.3325 22.5015 16.8679 22.0614C17.3418 21.6719 17.8879 21.3796 18.475 21.2014C19.138 21 19.8685 21 21.3296 21H22.9335C24.2403 21 24.8937 21 25.3928 20.7457C25.8318 20.522 26.1888 20.165 26.4125 19.726C26.6668 19.2269 26.6668 18.5734 26.6668 17.2667V7.23333C26.6668 5.92654 26.6668 5.27315 26.4125 4.77402C26.1888 4.33497 25.8318 3.97802 25.3928 3.75432C24.8937 3.5 24.2403 3.5 22.9335 3.5H22.4668C19.8533 3.5 18.5465 3.5 17.5482 4.00863C16.6701 4.45605 15.9562 5.16995 15.5088 6.04805C15.0002 7.04629 15.0002 8.35309 15.0002 10.9667" stroke="#111111" stroke-width="2" stroke-linecap="round" stroke-linejoin="round"/>
</svg>
