<svg width="25" height="23" viewBox="0 0 25 23" fill="none" xmlns="http://www.w3.org/2000/svg">
<path d="M11.0178 3.44104C11.492 3.37093 11.9811 3.33333 12.4848 3.33333C18.4407 3.33333 22.3489 8.58898 23.6619 10.6679C23.8208 10.9196 23.9002 11.0453 23.9447 11.2395C23.9781 11.3852 23.978 11.6152 23.9447 11.7609C23.9001 11.9549 23.8202 12.0816 23.6601 12.3349C23.3102 12.8884 22.7769 13.6666 22.0703 14.5106M6.32941 5.33421C3.807 7.04532 2.09456 9.42263 1.309 10.6662C1.14937 10.9189 1.06955 11.0452 1.02507 11.2392C0.991655 11.385 0.991644 11.6148 1.02503 11.7606C1.06951 11.9546 1.14896 12.0804 1.30786 12.3321C2.62084 14.4111 6.52902 19.6667 12.4848 19.6667C14.8863 19.6667 16.9549 18.8122 18.6546 17.656M1.98486 1L22.9848 22M10.01 9.02513C9.37661 9.65853 8.98486 10.5335 8.98486 11.5C8.98486 13.433 10.5519 15 12.4848 15C13.4513 15 14.3263 14.6082 14.9597 13.9748" stroke="#111111" stroke-width="2" stroke-linecap="round" stroke-linejoin="round"/>
</svg>
