<svg width="47" height="45" viewBox="0 0 47 45" fill="none" xmlns="http://www.w3.org/2000/svg">
<g clip-path="url(#clip0_135_281)">
<path d="M28.0909 33.5788C26.3455 35.132 24.6364 36.539 23.0546 37.6902C18.3092 34.2366 12.3457 28.5173 8.25479 23.4375C5.12755 19.3444 4.81846 13.0951 8.61842 8.8924C10.6184 6.88241 13.3638 6.11495 15.9274 6.09668C18.491 6.13323 21.0001 6.79104 23.0546 8.50867C25.1091 6.79104 27.6 6.11495 30.1636 6.09668C32.7272 6.09668 35.4727 6.86413 37.4726 8.8924C39.4908 10.9207 40.2363 13.6433 40.2363 16.2198C40.2181 18.65 39.6181 21.0437 38.1272 23.072" stroke="#000000" stroke-width="2.23292" stroke-miterlimit="10" stroke-linecap="round"/>
<path d="M35.8715 16.1832C35.8715 14.9772 35.617 13.223 34.3806 11.9805C33.0897 10.6648 31.1806 10.4821 30.1625 10.4821C28.3625 10.4821 26.9443 10.9572 25.8171 11.8891L23.0353 14.2097L20.2535 11.8891C19.1444 10.9572 17.7081 10.5004 15.8717 10.4821C14.9263 10.4821 13.0536 10.6648 11.7627 11.9074C9.39907 14.6117 9.9627 18.4856 11.69 20.7696C14.7081 24.4973 19.0899 28.8827 23.0353 32.1353" stroke="#000000" stroke-width="2.23292" stroke-miterlimit="10" stroke-linecap="round"/>
<path d="M28.8545 38.6951C27.7272 39.627 26.6545 40.4858 25.6181 41.235L23.0545 43.0988L20.4909 41.2167C15.4001 37.4891 9.10923 31.4591 4.85473 26.1783C0.109327 19.9839 0.363869 11.5053 5.38199 5.93217L5.45472 5.85908L5.52745 5.78599C8.12742 3.15472 11.8183 1.71118 15.9273 1.71118C18.5818 1.74773 20.9636 2.27763 23.0545 3.31918C25.1454 2.27763 27.509 1.74773 30.1272 1.71118H30.1454C34.2726 1.71118 37.9634 3.15472 40.5634 5.78599C43.1634 8.39899 44.5997 12.1083 44.5997 16.2197C44.5816 18.6682 44.127 20.8975 43.2543 22.8892" stroke="#000000" stroke-width="2.23292" stroke-miterlimit="10" stroke-linecap="round"/>
<path d="M33.1438 22.6335V34.4925" stroke="#000000" stroke-width="2.23292" stroke-miterlimit="10" stroke-linecap="round"/>
<path d="M39.0523 28.5538H27.2524" stroke="#000000" stroke-width="2.23292" stroke-miterlimit="10" stroke-linecap="round"/>
</g>
<defs>
<clipPath id="clip0_135_281">
<rect width="46.054" height="44.6585" fill="white" transform="translate(0 0.249329)"/>
</clipPath>
</defs>
</svg>
