<svg width="54" height="50" viewBox="0 0 54 50" fill="none" xmlns="http://www.w3.org/2000/svg">
<g clip-path="url(#clip0_135_292)">
<path d="M23.424 37.308L47.8222 23.0331C48.4587 22.6607 49.2988 22.8556 49.688 23.4903L49.9024 23.84C54.3182 31.0416 51.9199 40.3821 44.5475 44.6956C37.175 49.0091 27.6129 46.6664 23.197 39.4648L22.9826 39.115C22.6014 38.4933 22.8008 37.6727 23.4506 37.2925L23.424 37.308Z" stroke="#000000" stroke-width="2.0908" stroke-miterlimit="10"/>
<path d="M40.0314 27.5907L40.0777 27.6662C41.5615 30.097 40.8505 33.1921 38.4703 34.5812C36.09 35.9702 32.9523 35.1247 31.4685 32.709L31.4221 32.6335" stroke="#000000" stroke-width="2.0908" stroke-miterlimit="10"/>
<path d="M31.7641 21.797C30.373 24.3637 27.4054 25.8735 24.4378 25.5414C23.294 25.4055 22.2584 25.0431 21.3619 24.5147C20.4655 23.9862 19.2908 24.3486 18.9971 25.3451L18.0388 28.6365C17.8842 29.18 17.3123 29.482 16.7559 29.331L12.3354 28.1081C11.7789 27.9571 11.4698 27.3984 11.6244 26.8549L12.629 23.3823C12.9227 22.3707 12.0881 21.4648 11.0061 21.5252C10.2024 21.5705 9.38319 21.4799 8.57946 21.2535C3.64885 19.8795 1.31493 13.8553 5.13267 9.38625C6.98745 7.2121 10.0324 6.56288 12.7991 7.40838C12.8609 7.42348 12.9227 7.45367 12.9845 7.46877C14.5302 4.43403 18.1315 2.80342 21.5938 3.7697C25.056 4.73599 27.2508 7.96701 26.9417 11.3339C27.0499 11.3339 27.1736 11.3792 27.2818 11.4094C31.7178 12.6324 34.0517 17.5846 31.7796 21.7819L31.7641 21.797Z" stroke="#000000" stroke-width="2.0908" stroke-miterlimit="10"/>
<path d="M42.5578 7.29608L38.3924 8.74175C37.6041 9.01534 37.1921 9.86134 37.4722 10.6314L38.9522 14.7003C39.2323 15.4703 40.0983 15.8727 40.8866 15.5991L45.0521 14.1535C45.8403 13.8799 46.2523 13.0339 45.9723 12.2639L44.4923 8.19495C44.2122 7.42493 43.3461 7.02249 42.5578 7.29608Z" stroke="#000000" stroke-width="2.0908" stroke-miterlimit="10"/>
<path d="M12.9856 7.46869C12.9856 7.46869 17.9162 9.52205 17.1434 14.7913" stroke="#000000" stroke-width="2.0908" stroke-miterlimit="10" stroke-linecap="round"/>
<path d="M8.36171 46.8107C11.6311 46.8107 14.2815 44.2218 14.2815 41.0281C14.2815 37.8345 11.6311 35.2455 8.36171 35.2455C5.09229 35.2455 2.44189 37.8345 2.44189 41.0281C2.44189 44.2218 5.09229 46.8107 8.36171 46.8107Z" stroke="#000000" stroke-width="2.0908" stroke-miterlimit="10"/>
<path d="M33.6169 46.2672L34.467 39.8504" stroke="#000000" stroke-width="2.0908" stroke-miterlimit="10" stroke-linecap="round"/>
<path d="M47.451 42.4926L44.3906 39.02" stroke="#000000" stroke-width="2.0908" stroke-miterlimit="10" stroke-linecap="round"/>
<path d="M51.5317 32.1806L46.7866 31.6219" stroke="#000000" stroke-width="2.0908" stroke-miterlimit="10" stroke-linecap="round"/>
</g>
<defs>
<clipPath id="clip0_135_292">
<rect width="53.201" height="48.7612" fill="white" transform="translate(0 0.308289)"/>
</clipPath>
</defs>
</svg>
