<svg width="31" height="28" viewBox="0 0 31 28" fill="none" xmlns="http://www.w3.org/2000/svg">
<path d="M8.71411 20.0009H8.2301C4.237 20.0009 1 16.7141 1 12.6596V9.23425H4.37375C6.54076 9.23425 8.48526 10.2024 9.81019 11.7359" stroke="#111111" stroke-width="2" stroke-linecap="round" stroke-linejoin="round"/>
<path d="M9.05349 17.4437L5.2002 13.5311" stroke="#111111" stroke-width="2" stroke-linecap="round" stroke-linejoin="round"/>
<path d="M22.6527 12.5222L21.892 6.78699H10.4669L9.81046 11.7359L9.05343 17.4437L8.71438 20.0009L8.22473 23.6923C8.10256 24.6127 8.80743 25.4312 9.72211 25.4312H20.0572" stroke="#111111" stroke-width="2" stroke-linecap="round" stroke-linejoin="round"/>
<path d="M28.9943 21.6611C27.7469 25.2807 24.4455 27.4014 21.6204 26.3977C18.7955 25.394 17.5166 21.6459 18.764 18.0263C20.0114 14.4067 24.1379 10.1396 26.9631 11.1433C29.7879 12.147 30.2417 18.0413 28.9943 21.6611Z" stroke="#111111" stroke-width="2" stroke-linecap="round" stroke-linejoin="round"/>
<path d="M9.45264 6.78675V3.61664C9.45264 2.17162 10.6063 1 12.0296 1H20.3286C21.7517 1 22.9056 2.17138 22.9056 3.61664V6.78675" stroke="#111111" stroke-width="2" stroke-linecap="round" stroke-linejoin="round"/>
</svg>
