<svg width="28" height="28" viewBox="0 0 28 28" fill="none" xmlns="http://www.w3.org/2000/svg">
<path d="M20.28 26.2H8.52C6.16772 26.2 4.99172 26.2 4.0932 25.7422C3.30276 25.3396 2.66044 24.697 2.2578 23.9068C1.8 23.0083 1.8 21.8323 1.8 19.48V7.72C1.8 5.36772 1.8 4.19172 2.2578 3.2932C2.66044 2.50304 3.30304 1.86044 4.0932 1.4578C4.99172 1 6.16772 1 8.52 1H20.28C22.6323 1 23.8083 1 24.7068 1.4578C25.497 1.86044 26.1396 2.50304 26.5422 3.2932C27 4.19172 27 5.36772 27 7.72V19.48C27 21.8323 27 23.0083 26.5422 23.9068C26.1396 24.6972 25.497 25.3396 24.7068 25.7422C23.8083 26.2 22.6323 26.2 20.28 26.2Z" stroke="#111111" stroke-width="2" stroke-linecap="round" stroke-linejoin="round"/>
<path d="M27 8.9552H1.8" stroke="#111111" stroke-width="2" stroke-linecap="round" stroke-linejoin="round"/>
<path d="M6.76609 13.6001H21.9062V21.3586H6.76609V13.6001Z" stroke="#111111" stroke-width="2" stroke-linecap="round" stroke-linejoin="round"/>
<path d="M21.9131 5.18335H21.8991" stroke="#111111" stroke-width="2" stroke-linecap="round" stroke-linejoin="round"/>
<path d="M17.1836 5.18335H17.1696" stroke="#111111" stroke-width="2" stroke-linecap="round" stroke-linejoin="round"/>
</svg>
