<svg width="20" height="30" viewBox="0 0 20 30" fill="none" xmlns="http://www.w3.org/2000/svg">
<path d="M18.8873 21.6797C18.8873 23.8034 18.147 25.7541 16.9106 27.2878C16.0358 28.3728 14.7134 29.0001 13.3199 29.0001H6.58493C5.23094 29.0001 3.93232 28.4169 3.06771 27.376C1.7431 25.7801 0.958729 23.7242 1.00168 21.5068C1.05141 18.9141 2.20309 16.5926 4.00805 14.99C5.49767 13.6676 6.2696 11.7101 6.1385 9.72203C6.13285 9.63839 6.13059 9.55362 6.13059 9.46886C6.13059 7.3644 7.83721 5.65552 9.94393 5.65552C12.0506 5.65552 13.7573 7.3644 13.7573 9.46886C13.7573 9.57623 13.7527 9.68247 13.7437 9.78758C13.5798 11.7779 14.4467 13.6981 15.9307 15.0352C17.7458 16.6717 18.8873 19.0418 18.8873 21.6797Z" stroke="#111111" stroke-width="2" stroke-miterlimit="10"/>
<path d="M5.4277 1C5.4277 1 9.94517 2.19577 9.94517 5.65535" stroke="#111111" stroke-width="2" stroke-miterlimit="10" stroke-linecap="round"/>
</svg>
