<svg width="45" height="39" viewBox="0 0 45 39" fill="none" xmlns="http://www.w3.org/2000/svg">
<path d="M10.6686 21.8716L29.8227 2.69726C30.4248 2.09334 31.4032 2.09334 32.0053 2.69726L42.3726 13.0959C42.9747 13.6999 42.9747 14.6812 42.3726 15.2851L23.2185 34.4595C22.8798 34.7992 22.4471 35.0256 21.9579 35.0823L9.16336 36.8374C8.65535 36.9129 8.22259 36.4788 8.29785 35.9693L10.0477 23.136C10.1041 22.6642 10.3299 22.2113 10.6686 21.8905V21.8716Z" stroke="#000000" stroke-width="2.14929" stroke-miterlimit="10" stroke-linecap="round"/>
<path d="M26.0786 6.45288L38.6285 19.0219" stroke="#000000" stroke-width="2.14929" stroke-miterlimit="10" stroke-linecap="round"/>
<path d="M32.0432 13.0204L18.2703 26.8162" stroke="#000000" stroke-width="2.14929" stroke-miterlimit="10" stroke-linecap="round"/>
<path d="M10.292 22.3622C13.3777 23.0227 16.1248 24.608 18.2509 26.8161C20.3959 29.0053 21.8823 31.8172 22.428 34.9501" stroke="#000000" stroke-width="2.14929" stroke-miterlimit="10" stroke-linecap="round"/>
<path d="M1.50562 7.94373H11.5342" stroke="#000000" stroke-width="2.14929" stroke-miterlimit="10" stroke-linecap="round"/>
<path d="M1.73071 2.24432H16.3691" stroke="#000000" stroke-width="2.14929" stroke-miterlimit="10" stroke-linecap="round"/>
<path d="M1.73071 13.6622H7.77047" stroke="#000000" stroke-width="2.14929" stroke-miterlimit="10" stroke-linecap="round"/>
</svg>
