<svg width="28" height="30" viewBox="0 0 28 30" fill="none" xmlns="http://www.w3.org/2000/svg">
<path d="M26.1589 26.663C26.3678 27.8846 25.4269 29.0001 24.1876 29.0001H3.37099C2.13171 29.0001 1.19074 27.8846 1.3996 26.6631L4.53582 8.32088C4.70006 7.36032 5.53271 6.65796 6.50721 6.65796H21.0511C22.0256 6.65796 22.8582 7.3603 23.0225 8.32086L26.1589 26.663Z" stroke="#111111" stroke-width="2" stroke-linecap="round" stroke-linejoin="round"/>
<path d="M6.09888 5.88283V2.7022C6.09888 1.76221 6.86081 1 7.80108 1H19.758C20.6979 1 21.4602 1.76193 21.4602 2.7022V5.88283" stroke="#111111" stroke-width="2" stroke-linecap="round" stroke-linejoin="round"/>
<path d="M18.6253 18.1981H18.6132" stroke="#111111" stroke-width="2" stroke-linecap="round" stroke-linejoin="round"/>
<path d="M16.25 12.5186H16.2379" stroke="#111111" stroke-width="2" stroke-linecap="round" stroke-linejoin="round"/>
<path d="M13.8752 18.1981H13.8631" stroke="#111111" stroke-width="2" stroke-linecap="round" stroke-linejoin="round"/>
<path d="M11.5 12.5186H11.4879" stroke="#111111" stroke-width="2" stroke-linecap="round" stroke-linejoin="round"/>
<path d="M9.12406 18.1981H9.11307" stroke="#111111" stroke-width="2" stroke-linecap="round" stroke-linejoin="round"/>
<path d="M16.2197 23.7571H16.2076" stroke="#111111" stroke-width="2" stroke-linecap="round" stroke-linejoin="round"/>
<path d="M20.9577 23.7571H20.9456" stroke="#111111" stroke-width="2" stroke-linecap="round" stroke-linejoin="round"/>
<path d="M11.4821 23.7571H11.47" stroke="#111111" stroke-width="2" stroke-linecap="round" stroke-linejoin="round"/>
<path d="M6.74347 23.7571H6.73248" stroke="#111111" stroke-width="2" stroke-linecap="round" stroke-linejoin="round"/>
</svg>
