<?xml version="1.0" encoding="UTF-8"?>
<svg id="Layer_1" xmlns="http://www.w3.org/2000/svg" version="1.1" viewBox="0 0 16 16">
  <!-- Generator: Adobe Illustrator 30.0.0, SVG Export Plug-In . SVG Version: 2.1.1 Build 4)  -->
  <defs>
    <style>
      .st0 {
        fill: none;
        stroke: #111;
        stroke-linecap: round;
        stroke-linejoin: round;
        stroke-width: 1.19px;
      }
    </style>
  </defs>
  <path class="st0" d="M13.33,6.22v-3.56M13.33,2.67h-3.56M13.33,2.67l-5.33,5.33M6.81,2.67h-1.3c-1,0-1.49,0-1.87.19-.33.17-.61.44-.78.78-.19.38-.19.88-.19,1.87v4.98c0,1,0,1.49.19,1.87.17.33.44.61.78.78.38.19.88.19,1.87.19h4.98c1,0,1.49,0,1.87-.19.33-.17.61-.44.78-.78.19-.38.19-.88.19-1.87v-1.3"/>
</svg>