<svg width="43" height="51" viewBox="0 0 43 51" fill="none" xmlns="http://www.w3.org/2000/svg">
<g clip-path="url(#clip0_135_313)">
<path d="M1.16528 30.2541V23.2404H41.6085V30.2541C41.6085 40.0501 32.5532 47.9913 21.3869 47.9913C10.2206 47.9913 1.16528 40.0357 1.16528 30.2541Z" stroke="#000000" stroke-width="2.07453" stroke-miterlimit="10" stroke-linecap="round"/>
<path d="M30.9519 6.32898C35.9163 7.15498 39.2502 8.69104 39.2502 10.43C39.2502 12.5457 34.4023 14.3281 27.6763 14.9657" stroke="#000000" stroke-width="2.07453" stroke-miterlimit="10" stroke-linecap="round"/>
<path d="M15.7369 14.5456C9.47678 13.85 5.05103 12.1255 5.05103 10.1113C5.05103 7.7202 11.2529 5.7494 19.3328 5.40161" stroke="#000000" stroke-width="2.07453" stroke-miterlimit="10" stroke-linecap="round"/>
<path d="M18.0688 23.2403L27.2261 1.95276" stroke="#000000" stroke-width="2.07453" stroke-miterlimit="10" stroke-linecap="round"/>
<path d="M1.16528 27.5006H41.6231" stroke="#000000" stroke-width="2.07453" stroke-miterlimit="10" stroke-linecap="round"/>
<path d="M11.9092 48.9042H31.0244" stroke="#000000" stroke-width="2.07453" stroke-miterlimit="10" stroke-linecap="round"/>
<path d="M30.995 7.85065L29.7721 6.05374C29.7721 6.05374 29.743 5.89434 29.8158 5.85087L31.621 4.63361" stroke="#000000" stroke-width="2.07453" stroke-miterlimit="10" stroke-linecap="round"/>
<path d="M14.9666 12.8646L16.2769 14.6036C16.2769 14.6036 16.306 14.763 16.2477 14.8064L14.5007 16.1107" stroke="#000000" stroke-width="2.07453" stroke-miterlimit="10" stroke-linecap="round"/>
</g>
<defs>
<clipPath id="clip0_135_313">
<rect width="42.6884" height="49.3843" fill="white" transform="translate(0 0.793579)"/>
</clipPath>
</defs>
</svg>
