<svg width="45" height="53" viewBox="0 0 45 53" fill="none" xmlns="http://www.w3.org/2000/svg">
<g clip-path="url(#clip0_135_302)">
<path d="M40.401 1.65375H26.1673C24.7305 1.65375 23.5657 2.82093 23.5657 4.26073V23.1319C23.5657 24.5717 24.7305 25.7389 26.1673 25.7389H40.401C41.8379 25.7389 43.0027 24.5717 43.0027 23.1319V4.26073C43.0027 2.82093 41.8379 1.65375 40.401 1.65375Z" stroke="#000000" stroke-width="2.1501" stroke-miterlimit="10" stroke-linecap="round"/>
<path d="M28.5842 6.73322V20.6596" stroke="#000000" stroke-width="2.1501" stroke-miterlimit="10" stroke-linecap="round"/>
<path d="M33.2844 6.73322V20.6596" stroke="#000000" stroke-width="2.1501" stroke-miterlimit="10" stroke-linecap="round"/>
<path d="M37.9844 6.73322V20.6596" stroke="#000000" stroke-width="2.1501" stroke-miterlimit="10" stroke-linecap="round"/>
<path d="M33.2844 25.739V31.7939" stroke="#000000" stroke-width="2.1501" stroke-miterlimit="10" stroke-linecap="round"/>
<path d="M34.8452 31.794H31.74C30.6183 31.794 29.709 32.7052 29.709 33.8291V48.4451C29.709 49.569 30.6183 50.4802 31.74 50.4802H34.8452C35.9669 50.4802 36.8762 49.569 36.8762 48.4451V33.8291C36.8762 32.7052 35.9669 31.794 34.8452 31.794Z" stroke="#000000" stroke-width="2.1501" stroke-miterlimit="10" stroke-linecap="round"/>
<path d="M10.1045 26.1425L11.1116 32.1302" stroke="#000000" stroke-width="2.1501" stroke-miterlimit="10" stroke-linecap="round"/>
<path d="M15.8951 50.8333L12.8403 51.3379C11.7325 51.5229 10.6918 50.7661 10.5072 49.6728L7.90549 34.7373C7.72085 33.6272 8.47618 32.5845 9.5672 32.3994L12.6221 31.8949C13.7299 31.7099 14.7705 32.4667 14.9552 33.56L17.5568 48.4955C17.7415 49.6055 16.9862 50.6483 15.8951 50.8333Z" stroke="#000000" stroke-width="2.1501" stroke-miterlimit="10" stroke-linecap="round"/>
<path d="M9.88583 24.7466C7.87163 25.083 5.94136 23.8384 5.38746 21.8874L1.40942 8.60015C0.402321 2.61249 11.6986 0.728738 12.6889 6.73321L13.2093 20.5755C13.3267 22.6106 11.9 24.4102 9.88583 24.7466Z" stroke="#000000" stroke-width="2.1501" stroke-miterlimit="10" stroke-linecap="round"/>
<path d="M6.39478 3.77295L9.88605 24.7466" stroke="#000000" stroke-width="2.1501" stroke-miterlimit="10" stroke-linecap="round"/>
</g>
<defs>
<clipPath id="clip0_135_302">
<rect width="44.3912" height="52.3554" fill="white" transform="translate(0 0.308289)"/>
</clipPath>
</defs>
</svg>
