<svg width="265" height="252" viewBox="0 0 265 252" fill="none" xmlns="http://www.w3.org/2000/svg">
<path d="M90.8149 4.75H24.3149C19.2758 4.75 14.4431 6.75178 10.8799 10.315C7.31672 13.8782 5.31494 18.7109 5.31494 23.75V71.25C5.31494 76.2891 7.31672 81.1218 10.8799 84.685C14.4431 88.2482 19.2758 90.25 24.3149 90.25H52.8149L86.0649 123.5V90.25H90.8149C95.8541 90.25 100.687 88.2482 104.25 84.685C107.813 81.1218 109.815 76.2891 109.815 71.25V23.75C109.815 18.7109 107.813 13.8782 104.25 10.315C100.687 6.75178 95.8541 4.75 90.8149 4.75Z" fill="#FF7373"/>
<path d="M109.815 71.25C109.815 76.2891 107.813 81.1218 104.25 84.685C100.687 88.2482 95.8541 90.25 90.8149 90.25H86.0649V123.5L52.8149 90.25H24.3149C19.2758 90.25 14.4431 88.2482 10.8799 84.685C7.31672 81.1218 5.31494 76.2891 5.31494 71.25V23.75C5.31494 18.7109 7.31672 13.8782 10.8799 10.315C14.4431 6.75178 19.2758 4.75 24.3149 4.75H48.0649V19C48.0612 25.8626 49.4101 32.6587 52.0346 38.9996C54.6591 45.3406 58.5076 51.1021 63.3603 55.9547C68.2129 60.8073 73.9743 64.6559 80.3153 67.2803C86.6562 69.9048 93.4523 71.2537 100.315 71.25H109.815Z" fill="#EF5350"/>
<path d="M185.23 55.8932C184.543 52.193 183.122 48.6678 181.051 45.5249C178.981 42.382 176.303 39.6848 173.175 37.5921C170.047 35.4995 166.532 34.0536 162.837 33.3394C159.142 32.6253 155.341 32.6574 151.658 33.4338C147.976 34.2103 144.486 35.7153 141.393 37.8605C138.301 40.0057 135.669 42.7477 133.652 45.9251C131.635 49.1026 130.274 52.6513 129.649 56.3625C129.024 60.0738 129.147 63.8726 130.012 67.5354L132.387 78.9972C133.138 82.6517 132.458 86.4553 130.487 89.6229L123.509 100.852C122.219 102.928 121.474 105.296 121.341 107.737C121.208 110.178 121.692 112.613 122.749 114.817L125.475 120.517C126.5 122.654 126.987 125.01 126.894 127.378C126.8 129.747 126.129 132.057 124.939 134.107C123.768 136.126 123.1 138.397 122.991 140.729C122.882 143.06 123.336 145.384 124.314 147.503C125.292 149.622 126.766 151.475 128.611 152.905C130.456 154.335 132.617 155.3 134.914 155.719L166.815 161.5V88.5922C173.323 86.2957 178.777 81.7153 182.164 75.7016C185.551 69.6879 186.641 62.6494 185.23 55.8932Z" fill="#93999A"/>
<path d="M134.933 155.705L166.815 161.5V88.5923C172.652 86.53 177.658 82.6235 181.078 77.4633C184.497 72.3031 186.144 66.1698 185.768 59.9909C185.392 53.812 183.015 47.9233 178.996 43.2154C174.976 38.5074 169.533 35.2361 163.49 33.896C163.015 33.7915 162.54 33.763 162.036 33.687C157.23 34.5076 152.715 36.546 148.92 39.6077C145.126 42.6695 142.18 46.6524 140.362 51.1765C138.519 56.1385 138.17 61.5321 139.36 66.69C140.11 70.3095 141.132 75.24 141.915 79.04C142.666 82.6884 141.986 86.4859 140.015 89.6468L133.038 100.876C131.748 102.952 131.002 105.32 130.87 107.761C130.737 110.202 131.221 112.637 132.278 114.841L135.004 120.541L135.061 120.66C135.615 122.036 135.82 123.529 135.656 125.004C135.493 126.479 134.966 127.891 134.124 129.113C133.282 130.336 132.151 131.33 130.83 132.008C129.51 132.687 128.043 133.027 126.559 133H125.419C125.279 133.372 125.121 133.737 124.944 134.093C123.773 136.113 123.105 138.385 122.997 140.717C122.889 143.05 123.344 145.374 124.324 147.494C125.304 149.613 126.779 151.466 128.625 152.895C130.472 154.324 132.635 155.288 134.933 155.705Z" fill="#656B76"/>
<path d="M212.515 31.5303C206.688 27.7447 199.919 25.6616 192.972 25.5156C186.025 25.3695 179.175 27.1664 173.194 30.7038C170.056 32.3165 167.385 34.7078 165.437 37.6487C163.488 40.5896 162.327 43.9816 162.065 47.4998C162.065 60.6145 179.079 71.2498 200.065 71.2498V185.25L242.05 173.256C245.111 172.381 247.95 170.863 250.377 168.804C252.804 166.744 254.764 164.19 256.126 161.313C257.487 158.435 258.219 155.301 258.272 152.118C258.325 148.935 257.698 145.777 256.433 142.856C255.143 139.876 254.517 136.65 254.599 133.403C254.681 130.157 255.469 126.967 256.908 124.056L257.858 122.118C260.26 117.248 260.808 111.671 259.401 106.428C257.994 101.184 254.727 96.6307 250.211 93.6175L248.04 92.1498C244.972 90.108 242.456 87.3399 240.716 84.0914C238.976 80.843 238.065 77.215 238.065 73.5298V68.7798C238.065 62.2662 236.409 55.8596 233.251 50.1627C230.094 44.4657 225.539 39.6655 220.015 36.2138L212.515 31.5303Z" fill="#B8BEBF"/>
<path d="M256.319 142.5C254.704 142.514 253.112 142.124 251.686 141.366C250.26 140.608 249.046 139.506 248.154 138.16C247.262 136.814 246.721 135.266 246.579 133.657C246.437 132.049 246.699 130.43 247.342 128.948L247.403 128.815L248.353 126.877C250.755 122.008 251.303 116.431 249.896 111.188C248.489 105.944 245.222 101.391 240.706 98.3775L238.54 96.9002C235.472 94.8585 232.956 92.0903 231.216 88.8419C229.476 85.5935 228.565 81.9654 228.565 78.2802V73.5302C228.565 67.0168 226.908 60.6103 223.751 54.9134C220.593 49.2165 216.038 44.4163 210.515 40.9642L203.019 36.276C198.346 33.3119 193.084 31.398 187.599 30.6665C182.113 29.935 176.534 30.4032 171.247 32.039C168.593 33.6959 166.375 35.9642 164.777 38.6541C163.18 41.344 162.25 44.3772 162.065 47.5002C162.065 60.615 179.079 71.2502 200.065 71.2502V185.25L242.05 173.252C245.111 172.378 247.951 170.86 250.378 168.801C252.806 166.741 254.766 164.187 256.128 161.31C257.489 158.432 258.221 155.297 258.273 152.114C258.326 148.931 257.699 145.773 256.433 142.852C256.381 142.738 256.367 142.609 256.319 142.5Z" fill="#93999A"/>
<path d="M145.325 154.985L165.475 175.134L108.384 232.225L88.2349 212.075L145.325 154.985Z" fill="#0096C7"/>
<path d="M223.815 247H152.565V221.203C152.564 213.27 150.072 205.537 145.44 199.096C140.808 192.654 138.315 184.92 138.315 176.985C138.315 166.579 142.449 156.6 149.807 149.242C157.165 141.884 167.144 137.75 177.55 137.75H209.565C219.643 137.75 229.309 141.754 236.435 148.88C243.561 156.006 247.565 165.672 247.565 175.75V223.25C247.565 229.549 245.063 235.59 240.609 240.044C236.155 244.498 230.114 247 223.815 247Z" fill="#48CAE4"/>
<path d="M219.065 209C205.207 209 191.917 203.495 182.119 193.696C172.32 183.898 166.815 170.608 166.815 156.75V139.275C158.61 141.607 151.39 146.55 146.247 153.355C141.104 160.16 138.319 168.456 138.315 176.985C138.315 184.92 140.808 192.654 145.44 199.096C150.072 205.537 152.564 213.27 152.565 221.203V247H223.815C230.114 247 236.155 244.498 240.609 240.044C245.063 235.59 247.565 229.549 247.565 223.25V209H219.065Z" fill="#00B4D8"/>
<path d="M219.065 175.75V213.75H209.565V185.25C209.565 182.73 210.566 180.314 212.347 178.532C214.129 176.751 216.545 175.75 219.065 175.75Z" fill="#00B4D8"/>
<path d="M86.0649 228H157.315C157.315 233.039 155.313 237.872 151.75 241.435C148.187 244.998 143.354 247 138.315 247H86.0649V228Z" fill="#B8BEBF"/>
<path d="M90.6247 152H24.3147C21.6593 152 19.0334 152.557 16.6064 153.634C14.1793 154.711 12.005 156.285 10.2238 158.254C8.44247 160.224 7.09373 162.544 6.26455 165.067C5.43537 167.59 5.14416 170.258 5.40969 172.9L11.1097 229.9C11.5807 234.587 13.7758 238.931 17.269 242.091C20.7622 245.251 25.3045 247 30.0147 247H106.822C108.15 247.001 109.464 246.723 110.678 246.185C111.892 245.646 112.98 244.859 113.871 243.875C114.762 242.89 115.437 241.729 115.852 240.468C116.267 239.206 116.412 237.871 116.279 236.55L109.534 169.1C109.063 164.413 106.868 160.067 103.373 156.908C99.8792 153.748 95.3357 151.999 90.6247 152Z" fill="#E9F1F2"/>
<path d="M116.275 236.55C116.408 237.871 116.262 239.205 115.847 240.467C115.433 241.728 114.758 242.888 113.868 243.873C112.977 244.858 111.89 245.645 110.676 246.183C109.463 246.722 108.15 247 106.822 247H30.0148C25.3046 247 20.7623 245.251 17.2691 242.091C13.7759 238.931 11.5808 234.587 11.1098 229.9L5.4098 172.9C5.13974 170.257 5.42778 167.587 6.25528 165.062C7.08278 162.538 8.43128 160.215 10.2135 158.245C11.9956 156.275 14.1718 154.701 16.6009 153.625C19.0301 152.549 21.6581 151.996 24.3148 152H25.5023C29.1914 170.723 39.2621 187.587 53.9966 199.714C68.731 211.841 87.2165 218.481 106.3 218.5H114.47L116.275 236.55Z" fill="#D0D8DA"/>
<path d="M57.5649 209C62.8116 209 67.0649 204.747 67.0649 199.5C67.0649 194.253 62.8116 190 57.5649 190C52.3182 190 48.0649 194.253 48.0649 199.5C48.0649 204.747 52.3182 209 57.5649 209Z" fill="#F9DBAF"/>
<path d="M57.5649 209C59.8559 208.99 62.0647 208.146 63.7779 206.625C59.2611 203.905 55.0171 200.755 51.1049 197.22C50.4114 196.593 49.7749 195.914 49.1052 195.263C48.4299 196.574 48.0735 198.026 48.0649 199.5C48.0649 202.02 49.0658 204.436 50.8474 206.218C52.629 207.999 55.0454 209 57.5649 209Z" fill="#EDB88E"/>
<path d="M219.065 180.5V218.5L166.815 223.25V247H223.815C230.114 247 236.155 244.498 240.609 240.044C245.063 235.59 247.565 229.549 247.565 223.25V180.5H219.065Z" fill="#48CAE4"/>
<path d="M152.565 223.25H166.815V247H138.315V237.5C138.315 233.721 139.816 230.096 142.489 227.424C145.161 224.751 148.786 223.25 152.565 223.25Z" fill="#F9DBAF"/>
<path d="M166.815 109.25H204.815V133C204.815 139.299 202.313 145.34 197.859 149.794C193.405 154.248 187.364 156.75 181.065 156.75C177.286 156.75 173.661 155.249 170.989 152.576C168.316 149.904 166.815 146.279 166.815 142.5V109.25Z" fill="#EDB88E"/>
<path d="M176.79 142.476C182.45 142.395 187.996 140.869 192.901 138.043C197.806 135.216 201.907 131.183 204.815 126.326V109.25H166.815V142.5C166.815 146.279 168.316 149.904 170.989 152.576C173.661 155.249 177.286 156.75 181.065 156.75C186.34 156.731 191.456 154.94 195.59 151.663C188.496 150.711 181.901 147.488 176.79 142.476Z" fill="#DA9367"/>
<path d="M181.065 133C172.246 133 163.789 129.497 157.554 123.261C151.318 117.026 147.815 108.568 147.815 99.75V87.9178C147.815 81.1814 149.24 74.5213 151.995 68.3743C154.751 62.2273 158.775 56.7324 163.803 52.25C168.488 57.4056 174.23 61.4897 180.637 64.2236C187.044 66.9575 193.966 68.2767 200.929 68.0912C202.769 68.041 204.597 68.3826 206.294 69.0935C207.991 69.8044 209.517 70.8682 210.771 72.2142C213.048 74.6474 214.315 77.8549 214.315 81.187V99.75C214.315 108.568 210.812 117.026 204.576 123.261C198.341 129.497 189.883 133 181.065 133Z" fill="#F9DBAF"/>
<path d="M210.771 72.2C209.517 70.8539 207.991 69.7901 206.294 69.0792C204.597 68.3684 202.769 68.0267 200.929 68.077C193.967 68.2642 187.046 66.9472 180.639 64.2159C174.232 61.4845 168.489 57.403 163.803 52.25C158.775 56.7324 154.751 62.2273 151.995 68.3743C149.24 74.5213 147.815 81.1814 147.815 87.9178V99.75C147.829 107.629 150.641 115.246 155.749 121.245C160.856 127.244 167.928 131.234 175.704 132.504C183.48 133.775 191.454 132.243 198.205 128.181C204.956 124.12 210.046 117.793 212.567 110.328C207.787 114.593 201.874 117.383 195.542 118.36C189.211 119.337 182.732 118.459 176.889 115.834C171.045 113.208 166.087 108.946 162.614 103.563C159.14 98.18 157.3 91.9063 157.315 85.5V73.6678C157.317 71.9459 157.412 70.2255 157.6 68.514C159.445 66.0651 161.523 63.7999 163.803 61.75C168.488 66.9056 174.23 70.9897 180.637 73.7236C187.044 76.4575 193.966 77.7767 200.929 77.5912C202.857 77.5437 204.771 77.93 206.53 78.7218C204.464 80.3932 202.807 82.5148 201.687 84.9245C200.566 87.3341 200.012 89.9681 200.065 92.625C199.838 96.4679 201.025 100.261 203.402 103.289C205.78 106.317 209.183 108.369 212.971 109.06C213.857 106.036 214.31 102.901 214.315 99.75V81.187C214.318 77.8499 213.051 74.6367 210.771 72.2Z" fill="#EDB88E"/>
<path d="M219.065 104.5C226.935 104.5 233.315 97.0567 233.315 87.875C233.315 78.6933 226.935 71.25 219.065 71.25C211.195 71.25 204.815 78.6933 204.815 87.875C204.815 97.0567 211.195 104.5 219.065 104.5Z" fill="#EF5350"/>
<path d="M33.8149 42.75C39.0616 42.75 43.3149 38.4967 43.3149 33.25C43.3149 28.0033 39.0616 23.75 33.8149 23.75C28.5682 23.75 24.3149 28.0033 24.3149 33.25C24.3149 38.4967 28.5682 42.75 33.8149 42.75Z" fill="#F9DBAF"/>
<path d="M33.8149 42.75C36.3345 42.75 38.7509 43.7509 40.5325 45.5325C42.314 47.3141 43.3149 49.7304 43.3149 52.25V61.75H24.3149V52.25C24.3149 49.7304 25.3158 47.3141 27.0974 45.5325C28.879 43.7509 31.2954 42.75 33.8149 42.75Z" fill="#F9DBAF"/>
<path d="M232.128 94.4773C231.238 97.2844 229.509 99.7509 227.173 101.543C224.837 103.336 222.007 104.368 219.065 104.5C214.98 104.161 211.193 102.226 208.526 99.114C205.858 96.0018 204.525 91.9635 204.815 87.8748C204.648 84.4081 205.595 80.9788 207.518 78.0896C209.442 75.2004 212.24 73.0032 215.503 71.8198C214.713 73.9148 214.31 76.1359 214.315 78.3748C214.025 82.4635 215.358 86.5018 218.026 89.614C220.693 92.7262 224.48 94.6613 228.565 94.9998C229.771 94.9961 230.971 94.8202 232.128 94.4773Z" fill="#E53935"/>
<path d="M166.814 223.25V247H138.314V237.5H147.814C151.594 237.5 155.218 235.999 157.891 233.326C160.563 230.654 162.064 227.029 162.064 223.25H166.814Z" fill="#EDB88E"/>
<path d="M38.5646 38C36.9765 38.0066 35.4122 37.6133 34.016 36.8564C32.6198 36.0995 31.4366 35.0033 30.5754 33.6689C29.7142 32.3346 29.2027 30.8049 29.0881 29.2208C28.9735 27.6368 29.2595 26.0494 29.9196 24.605C28.5109 25.2313 27.2757 26.191 26.3208 27.4013C25.3658 28.6116 24.7197 30.0362 24.4384 31.552C24.157 33.0678 24.2488 34.6293 24.7057 36.1017C25.1627 37.5741 25.9712 38.9132 27.0613 40.0033C28.1514 41.0935 29.4905 41.9019 30.9629 42.3589C32.4353 42.8159 33.9968 42.9076 35.5126 42.6262C37.0284 42.3449 38.453 41.6988 39.6633 40.7439C40.8736 39.7889 41.8334 38.5537 42.4596 37.145C41.2369 37.7037 39.909 37.9952 38.5646 38Z" fill="#EDB88E"/>
<path d="M38.5645 52.2498C36.2672 52.2457 34.0498 51.4065 32.3255 49.8885C30.6012 48.3705 29.4878 46.2773 29.1927 43.999C27.7186 44.8153 26.4892 46.0105 25.6315 47.461C24.7739 48.9115 24.3192 50.5647 24.3145 52.2498V61.7498H43.3145V52.2498C43.3007 51.8309 43.2578 51.4135 43.1862 51.0005C41.7798 51.8103 40.1872 52.2407 38.5645 52.2498Z" fill="#EDB88E"/>
<path d="M260.94 126.15L261.89 124.25C264.801 118.349 265.468 111.591 263.766 105.234C262.065 98.878 258.111 93.3566 252.641 89.6988L250.452 88.2263C248.029 86.6144 246.042 84.43 244.666 81.8664C243.289 79.3028 242.567 76.4394 242.562 73.5298V68.7798C242.561 64.261 241.84 59.7713 240.424 55.4798C240.229 54.8872 239.92 54.3388 239.513 53.8659C239.106 53.393 238.61 53.0049 238.053 52.7237C237.496 52.4425 236.889 52.2738 236.267 52.2271C235.645 52.1804 235.02 52.2567 234.427 52.4517C233.835 52.6466 233.286 52.9563 232.814 53.3632C232.341 53.7701 231.953 54.2661 231.671 54.823C231.39 55.3798 231.221 55.9866 231.175 56.6087C231.128 57.2308 231.204 57.8559 231.399 58.4485C232.498 61.7822 233.06 65.2696 233.062 68.7798V73.5298C233.062 73.6628 233.086 73.791 233.086 73.9193C231.439 71.666 229.294 69.8239 226.818 68.5369C224.342 67.2498 221.602 66.5526 218.812 66.4998C218.693 66.4998 218.584 66.5378 218.465 66.5378C217.767 59.2569 215.408 52.2331 211.569 46.0074C207.73 39.7817 202.513 34.5201 196.321 30.6278C201.086 31.325 205.654 33.0056 209.735 35.563L217.292 40.313C219.171 41.4757 220.923 42.8338 222.517 44.3648C223.431 45.2321 224.652 45.7009 225.911 45.6679C227.171 45.635 228.366 45.103 229.233 44.189C230.101 43.2751 230.569 42.054 230.536 40.7944C230.504 39.5348 229.972 38.3399 229.058 37.4725C226.985 35.4985 224.712 33.7473 222.275 32.2475L214.77 27.545C208.181 23.2904 200.537 20.9573 192.695 20.8079C184.854 20.6586 177.126 22.6989 170.381 26.6995C168.914 27.6383 167.514 28.6779 166.191 29.8108C165.522 29.6208 164.857 29.4165 164.177 29.2788C158.776 28.0337 153.146 28.1857 147.819 29.7205C142.493 31.2553 137.645 34.1223 133.734 38.0507C129.823 41.9792 126.978 46.8396 125.467 52.173C123.956 57.5063 123.83 63.1368 125.099 68.5328L127.474 79.9993C127.987 82.4587 127.531 85.0211 126.201 87.1528L119.223 98.3818C117.507 101.134 116.515 104.276 116.338 107.515C116.162 110.754 116.808 113.985 118.216 116.907L120.943 122.607C121.633 124.046 121.962 125.632 121.899 127.228C121.837 128.823 121.387 130.379 120.587 131.76C118.634 135.1 117.736 138.951 118.009 142.81C118.281 146.669 119.713 150.355 122.116 153.387C122.899 154.363 124.035 154.99 125.278 155.133C126.521 155.276 127.77 154.923 128.754 154.15C129.738 153.378 130.378 152.248 130.534 151.007C130.69 149.765 130.35 148.513 129.588 147.521C128.364 145.98 127.634 144.106 127.494 142.144C127.354 140.181 127.811 138.222 128.804 136.524C130.386 133.802 131.278 130.734 131.401 127.587C131.525 124.441 130.876 121.312 129.512 118.474L126.785 112.774C126.07 111.291 125.741 109.651 125.83 108.006C125.919 106.362 126.422 104.767 127.294 103.369L134.262 92.1498C136.88 87.9498 137.777 82.9014 136.765 78.0565L134.39 66.59C133.493 62.9794 133.483 59.2051 134.362 55.5899C135.242 51.9748 136.984 48.6265 139.439 45.8315C141.895 43.0364 144.991 40.8779 148.463 39.5404C151.935 38.203 155.679 37.7265 159.375 38.1518C157.873 41.0399 157.08 44.2443 157.062 47.4998C157.08 48.8585 157.239 50.2116 157.537 51.5373C148.112 61.3058 142.835 74.3437 142.812 87.9175V99.7498C142.82 106.412 144.58 112.955 147.915 118.722C151.25 124.49 156.042 129.279 161.812 132.61V135.85C153.255 139.095 145.922 144.928 140.836 152.537L114.982 178.391L114.032 168.639C113.461 162.767 110.719 157.32 106.343 153.363C101.967 149.407 96.2713 147.227 90.3718 147.25H24.0618C20.7426 147.25 17.4602 147.945 14.4264 149.292C11.3926 150.639 8.67477 152.606 6.44815 155.068C4.22154 157.529 2.53562 160.43 1.49915 163.583C0.462669 166.737 0.0986524 170.072 0.430574 173.375L2.11682 190.252C2.2428 191.506 2.86181 192.658 3.83768 193.456C4.81355 194.254 6.06634 194.631 7.32045 194.505C8.57456 194.379 9.72726 193.76 10.525 192.784C11.3227 191.808 11.7001 190.556 11.5741 189.302L9.88782 172.425C9.68871 170.444 9.90699 168.443 10.5286 166.551C11.1502 164.66 12.1613 162.919 13.4968 161.442C14.8322 159.965 16.4624 158.785 18.2821 157.977C20.1018 157.168 22.0707 156.75 24.0618 156.75H90.3718C93.9078 156.738 97.321 158.046 99.9434 160.418C102.566 162.79 104.209 166.055 104.551 169.575L111.296 237.025C111.362 237.685 111.289 238.352 111.082 238.982C110.875 239.612 110.538 240.192 110.094 240.684C109.649 241.177 109.106 241.57 108.5 241.84C107.893 242.109 107.238 242.249 106.574 242.25H29.7618C26.2264 242.259 22.8144 240.951 20.1925 238.579C17.5705 236.207 15.927 232.943 15.5831 229.425L13.4646 208.207C13.3386 206.952 12.7196 205.8 11.7437 205.002C10.7678 204.204 9.51506 203.827 8.26095 203.953C7.00684 204.079 5.85414 204.698 5.05643 205.674C4.25872 206.65 3.88135 207.902 4.00732 209.157L6.13057 230.375C6.70383 236.239 9.44301 241.679 13.8129 245.632C18.1828 249.585 23.8695 251.766 29.7618 251.75H223.562C231.118 251.742 238.363 248.737 243.706 243.394C249.049 238.051 252.054 230.806 252.062 223.25V194.75C252.062 193.49 251.561 192.282 250.671 191.391C249.78 190.5 248.572 190 247.312 190C246.052 190 244.844 190.5 243.953 191.391C243.062 192.282 242.562 193.49 242.562 194.75V223.25C242.562 228.289 240.56 233.122 236.997 236.685C233.434 240.248 228.601 242.25 223.562 242.25H171.312V227.587L219.239 223.25C220.424 223.143 221.525 222.595 222.325 221.716C223.125 220.837 223.567 219.689 223.562 218.5V180.5C223.562 179.24 223.061 178.032 222.171 177.141C221.28 176.25 220.072 175.75 218.812 175.75C217.552 175.75 216.344 176.25 215.453 177.141C214.562 178.032 214.062 179.24 214.062 180.5V214.163L166.339 218.5H156.839C156.385 210.518 153.677 202.827 149.03 196.322C144.972 190.694 142.796 183.928 142.812 176.99C142.837 170.542 144.662 164.23 148.083 158.766C151.504 153.301 156.384 148.901 162.173 146.062C163.001 150.401 165.315 154.315 168.716 157.133C172.118 159.95 176.395 161.494 180.812 161.5C186.7 161.493 192.441 159.663 197.247 156.261C202.053 152.858 205.687 148.051 207.649 142.5H209.312C218.127 142.51 226.579 146.016 232.812 152.25C239.045 158.483 242.552 166.934 242.562 175.75C242.562 177.01 243.062 178.218 243.953 179.109C244.844 179.999 246.052 180.5 247.312 180.5C248.572 180.5 249.78 179.999 250.671 179.109C251.561 178.218 252.062 177.01 252.062 175.75C252.062 174.919 251.986 174.106 251.938 173.285C256.789 169.635 260.274 164.463 261.835 158.597C263.397 152.731 262.944 146.51 260.55 140.932C259.522 138.592 259.025 136.053 259.092 133.498C259.159 130.942 259.79 128.433 260.94 126.15ZM123.855 223.25L142.812 204.297C145.527 208.828 147.107 213.949 147.415 219.222C144.627 219.97 142.048 221.348 139.876 223.25H123.855ZM133.469 173.332C133.364 174.543 133.312 175.759 133.312 176.99C133.307 183.557 134.829 190.035 137.758 195.914L118.644 215.023L116.212 190.598L133.469 173.332ZM120.416 232.75H133.986C133.559 234.298 133.332 235.894 133.312 237.5V242.25H119.974C120.685 240.274 120.95 238.165 120.748 236.075L120.416 232.75ZM161.812 242.25H142.812V237.5C142.812 234.98 143.813 232.564 145.594 230.782C147.376 229.001 149.792 228 152.312 228H161.812V242.25ZM228.312 87.8748C228.581 90.7005 227.74 93.5201 225.967 95.7365C224.194 97.953 221.628 99.3924 218.812 99.7498C215.996 99.3924 213.43 97.953 211.657 95.7365C209.883 93.5201 209.042 90.7005 209.312 87.8748C209.042 85.0491 209.883 82.2295 211.657 80.013C213.43 77.7966 215.996 76.3572 218.812 75.9998C221.628 76.3572 224.194 77.7966 225.967 80.013C227.74 82.2295 228.581 85.0491 228.312 87.8748ZM175.44 34.7175C176.572 34.0221 177.751 33.4062 178.969 32.8745L185.994 35.8908C191.973 38.4461 197.204 42.4772 201.2 47.6065C205.195 52.7357 207.823 58.7952 208.837 65.2173C206.279 63.9157 203.437 63.2709 200.567 63.341C194.283 63.5334 188.033 62.355 182.251 59.8875C176.469 57.4201 171.293 53.7229 167.084 49.053C166.964 48.9544 166.839 48.8624 166.709 48.7775C166.632 48.3553 166.583 47.9285 166.562 47.4998C166.842 44.793 167.803 42.2012 169.356 39.9661C170.908 37.731 173.001 35.9254 175.44 34.7175ZM152.312 99.7498V87.9175C152.314 77.2002 156.313 66.8688 163.527 58.9425C173.714 68.1778 187.058 73.151 200.805 72.8363C202.152 72.7901 203.489 73.0928 204.685 73.715C201.507 77.7486 199.789 82.7397 199.812 87.8748C199.809 91.8383 200.824 95.7361 202.762 99.194L199.104 101.826C192.397 106.665 184.333 109.264 176.062 109.25C174.802 109.25 173.594 109.75 172.703 110.641C171.812 111.532 171.312 112.74 171.312 114C171.312 115.26 171.812 116.468 172.703 117.359C173.594 118.249 174.802 118.75 176.062 118.75C186.325 118.768 196.331 115.543 204.652 109.535L208.305 106.903C206.574 113.612 202.454 119.458 196.719 123.344C190.983 127.231 184.027 128.891 177.154 128.013C170.282 127.135 163.966 123.779 159.393 118.576C154.819 113.372 152.301 106.678 152.312 99.7498ZM180.812 152C178.292 152 175.876 150.999 174.094 149.217C172.313 147.436 171.312 145.019 171.312 142.5V136.501C176.083 137.763 181.056 138.073 185.946 137.411C190.836 136.749 195.548 135.129 199.812 132.644V133C199.812 138.039 197.81 142.872 194.247 146.435C190.684 149.998 185.851 152 180.812 152ZM253.349 120.042L252.399 121.942C250.636 125.459 249.668 129.321 249.566 133.254C249.463 137.187 250.228 141.095 251.805 144.699C253.024 147.534 253.479 150.639 253.127 153.704C252.774 156.77 251.626 159.69 249.796 162.174C246.946 153.689 241.507 146.31 234.245 141.077C226.983 135.844 218.263 133.019 209.312 133V124.868C213.291 120.351 216.133 114.949 217.601 109.112C218.009 109.141 218.399 109.25 218.812 109.25C224.009 108.927 228.881 106.608 232.408 102.776C235.935 98.9449 237.844 93.8983 237.736 88.6918C239.703 91.6118 242.216 94.1246 245.136 96.0923L247.34 97.579C250.899 99.955 253.471 103.545 254.577 107.678C255.682 111.812 255.246 116.206 253.349 120.042Z" fill="#323232"/>
<path d="M71.562 199.5C71.562 196.682 70.7263 193.927 69.1605 191.583C67.5947 189.24 65.3691 187.413 62.7653 186.335C60.1614 185.256 57.2962 184.974 54.532 185.524C51.7678 186.074 49.2286 187.431 47.2357 189.424C45.2428 191.417 43.8857 193.956 43.3358 196.72C42.786 199.484 43.0682 202.349 44.1467 204.953C45.2253 207.557 47.0517 209.783 49.3951 211.348C51.7385 212.914 54.4936 213.75 57.312 213.75C61.0914 213.75 64.7159 212.249 67.3883 209.576C70.0607 206.904 71.562 203.279 71.562 199.5ZM52.562 199.5C52.562 198.561 52.8406 197.642 53.3625 196.861C53.8845 196.08 54.6263 195.471 55.4943 195.112C56.3622 194.752 57.3173 194.658 58.2387 194.841C59.1601 195.025 60.0065 195.477 60.6708 196.141C61.3351 196.806 61.7875 197.652 61.9708 198.573C62.154 199.495 62.06 200.45 61.7004 201.318C61.3409 202.186 60.7321 202.928 59.951 203.449C59.1698 203.971 58.2515 204.25 57.312 204.25C56.0522 204.25 54.8441 203.75 53.9533 202.859C53.0625 201.968 52.562 200.76 52.562 199.5Z" fill="#323232"/>
<path d="M24.062 95H50.5955L82.4538 126.858C83.3443 127.749 84.5523 128.25 85.812 128.25C86.4364 128.252 87.0549 128.129 87.6313 127.889C88.499 127.529 89.2406 126.92 89.7623 126.139C90.2839 125.358 90.5622 124.439 90.562 123.5V95C96.8586 94.9925 102.895 92.4878 107.347 88.0355C111.8 83.5831 114.304 77.5466 114.312 71.25V23.75C114.304 17.4534 111.8 11.4169 107.347 6.96454C102.895 2.51219 96.8586 0.00754232 90.562 0C89.3022 0 88.094 0.500446 87.2032 1.39124C86.3125 2.28204 85.812 3.49022 85.812 4.75C85.812 6.00978 86.3125 7.21796 87.2032 8.10876C88.094 8.99955 89.3022 9.5 90.562 9.5C94.3413 9.5 97.9659 11.0013 100.638 13.6737C103.311 16.3461 104.812 19.9707 104.812 23.75V71.25C104.812 75.0293 103.311 78.6539 100.638 81.3263C97.9659 83.9987 94.3413 85.5 90.562 85.5H85.812C84.5522 85.5 83.344 86.0004 82.4532 86.8912C81.5625 87.782 81.062 88.9902 81.062 90.25V112.033L55.9203 86.8917C55.0297 86.0009 53.8217 85.5003 52.562 85.5H24.062C20.2827 85.5 16.6581 83.9987 13.9857 81.3263C11.3133 78.6539 9.81201 75.0293 9.81201 71.25V23.75C9.81201 19.9707 11.3133 16.3461 13.9857 13.6737C16.6581 11.0013 20.2827 9.5 24.062 9.5H71.562C72.8218 9.5 74.03 8.99955 74.9208 8.10876C75.8116 7.21796 76.312 6.00978 76.312 4.75C76.312 3.49022 75.8116 2.28204 74.9208 1.39124C74.03 0.500446 72.8218 0 71.562 0H24.062C17.7654 0.00754232 11.7289 2.51219 7.27656 6.96454C2.8242 11.4169 0.319554 17.4534 0.312012 23.75V71.25C0.319554 77.5466 2.8242 83.5831 7.27656 88.0355C11.7289 92.4878 17.7654 94.9925 24.062 95Z" fill="#323232"/>
<path d="M33.5616 19.0001C30.8055 18.9879 28.1056 19.7787 25.7916 21.2759C23.4776 22.773 21.6497 24.9117 20.5313 27.4307C19.4129 29.9496 19.0523 32.7398 19.4937 35.4603C19.935 38.1809 21.1592 40.7139 23.0166 42.7501C20.6447 45.3468 19.324 48.7332 19.3116 52.2501V61.7501C19.3116 63.0099 19.812 64.2181 20.7028 65.1089C21.5936 65.9997 22.8018 66.5001 24.0616 66.5001H43.0616C44.3214 66.5001 45.5296 65.9997 46.4204 65.1089C47.3111 64.2181 47.8116 63.0099 47.8116 61.7501V52.2501C47.7992 48.7332 46.4785 45.3468 44.1066 42.7501C45.964 40.7139 47.1882 38.1809 47.6295 35.4603C48.0709 32.7398 47.7103 29.9496 46.5919 27.4307C45.4735 24.9117 43.6456 22.773 41.3316 21.2759C39.0176 19.7787 36.3177 18.9879 33.5616 19.0001ZM33.5616 28.5001C34.5011 28.5001 35.4194 28.7787 36.2006 29.3007C36.9817 29.8226 37.5905 30.5644 37.95 31.4324C38.3095 32.3003 38.4036 33.2554 38.2203 34.1768C38.037 35.0982 37.5847 35.9446 36.9204 36.6089C36.2561 37.2732 35.4097 37.7256 34.4883 37.9089C33.5669 38.0921 32.6118 37.9981 31.7438 37.6386C30.8759 37.2791 30.1341 36.6702 29.6121 35.8891C29.0902 35.108 28.8116 34.1896 28.8116 33.2501C28.8116 31.9904 29.312 30.7822 30.2028 29.8914C31.0936 29.0006 32.3018 28.5001 33.5616 28.5001ZM38.3116 57.0001H28.8116V52.2501C28.8116 50.9904 29.312 49.7822 30.2028 48.8914C31.0936 48.0006 32.3018 47.5001 33.5616 47.5001C34.8214 47.5001 36.0296 48.0006 36.9204 48.8914C37.8111 49.7822 38.3116 50.9904 38.3116 52.2501V57.0001Z" fill="#323232"/>
<path d="M90.562 19H76.312C75.0522 19 73.844 19.5004 72.9533 20.3912C72.0625 21.282 71.562 22.4902 71.562 23.75C71.562 25.0098 72.0625 26.218 72.9533 27.1088C73.844 27.9996 75.0522 28.5 76.312 28.5H90.562C91.8218 28.5 93.03 27.9996 93.9208 27.1088C94.8116 26.218 95.312 25.0098 95.312 23.75C95.312 22.4902 94.8116 21.282 93.9208 20.3912C93.03 19.5004 91.8218 19 90.562 19Z" fill="#323232"/>
<path d="M90.562 38H62.062C60.8022 38 59.5941 38.5004 58.7033 39.3912C57.8125 40.282 57.312 41.4902 57.312 42.75C57.312 44.0098 57.8125 45.218 58.7033 46.1088C59.5941 46.9996 60.8022 47.5 62.062 47.5H90.562C91.8218 47.5 93.03 46.9996 93.9208 46.1088C94.8116 45.218 95.312 44.0098 95.312 42.75C95.312 41.4902 94.8116 40.282 93.9208 39.3912C93.03 38.5004 91.8218 38 90.562 38Z" fill="#323232"/>
<path d="M90.562 57H62.062C60.8022 57 59.5941 57.5004 58.7033 58.3912C57.8125 59.282 57.312 60.4902 57.312 61.75C57.312 63.0098 57.8125 64.218 58.7033 65.1088C59.5941 65.9996 60.8022 66.5 62.062 66.5H90.562C91.8218 66.5 93.03 65.9996 93.9208 65.1088C94.8116 64.218 95.312 63.0098 95.312 61.75C95.312 60.4902 94.8116 59.282 93.9208 58.3912C93.03 57.5004 91.8218 57 90.562 57Z" fill="#323232"/>
<path d="M161.812 90.25C164.435 90.25 166.562 88.1234 166.562 85.5C166.562 82.8766 164.435 80.75 161.812 80.75C159.189 80.75 157.062 82.8766 157.062 85.5C157.062 88.1234 159.189 90.25 161.812 90.25Z" fill="#323232"/>
<path d="M185.562 90.25C188.185 90.25 190.312 88.1234 190.312 85.5C190.312 82.8766 188.185 80.75 185.562 80.75C182.939 80.75 180.812 82.8766 180.812 85.5C180.812 88.1234 182.939 90.25 185.562 90.25Z" fill="#323232"/>
<path d="M199.955 184.101L199.812 184.666C198.758 188.906 196.314 192.671 192.87 195.36C189.426 198.048 185.181 199.506 180.812 199.5C179.552 199.5 178.344 200.001 177.453 200.891C176.562 201.782 176.062 202.99 176.062 204.25C176.062 205.51 176.562 206.718 177.453 207.609C178.344 208.5 179.552 209 180.812 209C187.301 209.008 193.605 206.842 198.719 202.848C203.833 198.854 207.462 193.262 209.027 186.965L209.17 186.4C209.337 185.789 209.381 185.151 209.298 184.524C209.215 183.896 209.008 183.291 208.689 182.745C208.369 182.199 207.943 181.722 207.437 181.342C206.93 180.962 206.353 180.688 205.738 180.535C205.124 180.382 204.486 180.353 203.86 180.45C203.235 180.547 202.635 180.768 202.096 181.1C201.557 181.432 201.09 181.869 200.722 182.384C200.354 182.9 200.093 183.483 199.955 184.101Z" fill="#323232"/>
</svg>
