<svg width="52" height="40" viewBox="0 0 52 40" fill="none" xmlns="http://www.w3.org/2000/svg">
<path d="M49.2176 4.31304H25.9322L25.7234 2.95872C25.4905 1.44611 24.0473 0.208496 22.5167 0.208496H11.3161C9.78549 0.208496 8.34234 1.44611 8.1095 2.95872L7.9007 4.31304H7.10698C5.57655 4.31304 4.32422 5.56537 4.32422 7.09581V37.0091C4.32422 38.5397 5.57655 39.7919 7.10698 39.7919H49.2175C50.7479 39.7919 52.0004 38.5397 52.0004 37.0091V7.09595C52.0007 5.56537 50.7481 4.31304 49.2176 4.31304Z" fill="#FFA400"/>
<path d="M48.6444 7.31201H6.90234V35.6055H48.6444V7.31201Z" fill="white"/>
<path d="M47.7112 13.1133C47.4682 11.6021 46.0171 10.3657 44.4867 10.3657H2.376C0.845424 10.3657 -0.208156 11.6021 0.0348695 13.1133L3.88225 37.0446C4.12527 38.5558 5.57635 39.7921 7.10678 39.7921H49.2173C50.7477 39.7921 51.8013 38.5558 51.5584 37.0446L47.7112 13.1133Z" fill="#F6C65B"/>
</svg>
