<svg width="302" height="167" viewBox="0 0 302 167" fill="none" xmlns="http://www.w3.org/2000/svg">
<path d="M115.33 0.990234L78.9203 75.7303L42.5202 0.990234H-0.00976562L78.9203 166.02L114.96 89.3402L151.72 166.02L173.3 120.87L151.29 74.8302L115.33 0.990234Z" fill="#4390FF"/>
<path d="M281.67 17.9305C268.1 6.63045 251.8 0.980469 232.76 0.980469H230.65H230.59H188L157.91 63.1705L179.59 107.67L214.87 33.9405H232.76C234.07 33.9405 235.35 34.0005 236.58 34.1405C243.13 34.7705 248.84 37.1305 253.71 41.2005C259.52 46.0405 262.42 51.8905 262.42 58.7005C262.42 65.4705 259.52 71.2805 253.71 76.1705C247.91 81.0405 240.93 83.4805 232.76 83.4805H208.81L188.12 125.51L202.26 116.45H232.76C251.8 116.45 268.1 110.79 281.67 99.4604C295.22 88.1304 302.01 74.5604 302.01 58.7104C302.01 42.8204 295.22 29.2205 281.67 17.9305Z" fill="#4390FF"/>
</svg>
