<svg width="39" height="40" viewBox="0 0 39 40" fill="none" xmlns="http://www.w3.org/2000/svg">
<path d="M30.916 10C32.2967 10 33.416 8.88071 33.416 7.5C33.416 6.11929 32.2967 5 30.916 5C29.5353 5 28.416 6.11929 28.416 7.5C28.416 8.88071 29.5353 10 30.916 10Z" fill="#4390FF"/>
<path d="M8.41602 31.25C9.79673 31.25 10.916 30.1307 10.916 28.75C10.916 27.3693 9.79673 26.25 8.41602 26.25C7.0353 26.25 5.91602 27.3693 5.91602 28.75C5.91602 30.1307 7.0353 31.25 8.41602 31.25Z" fill="#4390FF"/>
<path d="M5.90906 18.975C5.30281 18.975 4.77531 18.5662 4.68906 17.9475C4.66781 17.805 4.66406 17.6413 4.66406 17.5C4.66406 15.505 5.44031 13.6212 6.85031 12.1962C8.28531 10.7762 10.1691 10 12.1641 10H20.2266C20.9178 10 21.4766 10.56 21.4766 11.25C21.4766 11.94 20.9178 12.5 20.2266 12.5H12.1641C10.8328 12.5 9.57281 13.02 8.61781 13.9637C7.68406 14.9075 7.16406 16.1675 7.16406 17.5C7.25906 18.1838 6.78156 18.8663 6.09781 18.9612C6.03281 18.97 5.97031 18.975 5.90906 18.975Z" fill="white"/>
<path d="M28.416 37.5H17.541C16.8498 37.5 16.291 36.94 16.291 36.25C16.291 35.56 16.8498 35 17.541 35H28.416C31.1735 35 33.416 32.7575 33.416 30C33.416 28.6675 32.896 27.4075 31.9523 26.4538C31.0073 25.52 29.7473 25 28.416 25H18.491C17.7998 25 17.241 24.44 17.241 23.75C17.241 23.06 17.7998 22.5 18.491 22.5H28.416C30.411 22.5 32.2948 23.2763 33.7198 24.6863C35.1398 26.1213 35.916 28.005 35.916 30C35.916 34.1362 32.5523 37.5 28.416 37.5Z" fill="white"/>
<path d="M30.916 18.75C28.681 18.75 23.416 12.865 23.416 7.5C23.416 3.36375 26.7798 0 30.916 0C35.0523 0 38.416 3.36375 38.416 7.5C38.416 12.865 33.151 18.75 30.916 18.75ZM30.916 2.5C28.1585 2.5 25.916 4.7425 25.916 7.5C25.916 11.4175 29.656 15.5613 30.916 16.2038C32.176 15.5613 35.916 11.4175 35.916 7.5C35.916 4.7425 33.6735 2.5 30.916 2.5Z" fill="white"/>
<path d="M8.41602 40C6.18102 40 0.916016 34.115 0.916016 28.75C0.916016 24.6137 4.27977 21.25 8.41602 21.25C12.5523 21.25 15.916 24.6137 15.916 28.75C15.916 34.115 10.651 40 8.41602 40ZM8.41602 23.75C5.65852 23.75 3.41602 25.9925 3.41602 28.75C3.41602 32.6675 7.15602 36.8112 8.41602 37.4537C9.67602 36.8112 13.416 32.6675 13.416 28.75C13.416 25.9925 11.1735 23.75 8.41602 23.75Z" fill="white"/>
</svg>
