<svg width="34" height="40" viewBox="0 0 34 40" fill="none" xmlns="http://www.w3.org/2000/svg">
<path d="M33.5973 0.000488281V29.4788L5.66347 33.9062L0.402344 34.74V5.26083C0.402344 2.35542 2.75806 0.000488281 5.66347 0.000488281L10.9283 1.06378L13.8309 0.000488281H33.5973Z" fill="#9DC6FB"/>
<path d="M5.66347 0.000488281V33.9062L0.402344 34.74V5.26083C0.402344 2.35542 2.75806 0.000488281 5.66347 0.000488281Z" fill="#80B4FB"/>
<path d="M33.5968 29.4785H5.663C2.75759 29.4785 0.402344 31.8338 0.402344 34.7392C0.402344 37.6446 2.75759 39.9998 5.663 39.9998H33.5968V29.4785Z" fill="#80B4FB"/>
<path d="M5.66259 37.5854C4.09321 37.5854 2.81641 36.3086 2.81641 34.7393C2.81641 33.1699 4.09321 31.8931 5.66259 31.8931H30.9334L32.2649 34.7393L30.9334 37.5854H5.66259Z" fill="#F9F6F9"/>
<path d="M30.9336 31.8931H33.5966V37.5853H30.9336V31.8931Z" fill="#9DC6FB"/>
<path d="M13.8316 0H5.66406V4.53734C5.66406 5.95711 7.31805 6.73461 8.41133 5.82883L9.74781 4.72148L11.0843 5.82883C12.1776 6.73461 13.8316 5.95711 13.8316 4.53734V0Z" fill="#FFE07D"/>
<path d="M8.14773 6.01039C7.07086 6.61 5.66406 5.84703 5.66406 4.53758V0H7.27211V4.53758C7.27211 5.20883 7.64234 5.73672 8.14773 6.01039Z" fill="#FFD064"/>
<path d="M22.3472 21.2953H21.4216V15.1987C21.4216 14.4021 20.7758 13.7563 19.9792 13.7563H14.8895C14.0574 13.7563 13.3828 14.431 13.3828 15.2631C13.3828 16.0952 14.0574 16.7698 14.8895 16.7698H16.1933V21.2953H14.8895C14.0574 21.2953 13.3828 21.9699 13.3828 22.802C13.3828 23.6342 14.0574 24.3088 14.8895 24.3088H22.3472C23.1793 24.3088 23.8539 23.6342 23.8539 22.802C23.8539 21.9699 23.1794 21.2953 22.3472 21.2953Z" fill="#F9F6F9"/>
<path d="M17.9097 16.7696V21.2944H16.6056C15.7734 21.2944 15.0991 21.9697 15.0991 22.802C15.0991 23.2171 15.2681 23.5938 15.5405 23.8671C15.8129 24.1395 16.1895 24.3086 16.6057 24.3086H14.8895C14.4734 24.3086 14.0967 24.1396 13.8244 23.8671C13.551 23.5938 13.3829 23.2171 13.3829 22.802C13.3829 21.9697 14.0572 21.2944 14.8895 21.2944H16.1935V16.7696H14.8895C14.4733 16.7696 14.0966 16.6015 13.8243 16.3281C13.5509 16.0557 13.3828 15.6791 13.3828 15.2629C13.3828 14.4306 14.0571 13.7563 14.8894 13.7563H16.6055C15.7733 13.7563 15.099 14.4306 15.099 15.2629C15.099 15.6791 15.268 16.0557 15.5405 16.3281C15.8128 16.6014 16.1895 16.7696 16.6056 16.7696H17.9097Z" fill="#DDDAEC"/>
<path d="M18.8076 11.4462C20.2514 11.4462 21.4218 10.2758 21.4218 8.83199C21.4218 7.3882 20.2514 6.21777 18.8076 6.21777C17.3638 6.21777 16.1934 7.3882 16.1934 8.83199C16.1934 10.2758 17.3638 11.4462 18.8076 11.4462Z" fill="#F9F6F9"/>
<path d="M19.7037 11.2883C19.4243 11.3906 19.1226 11.4463 18.8077 11.4463C17.3638 11.4463 16.1934 10.2758 16.1934 8.83199C16.1934 7.38816 17.3638 6.21777 18.8077 6.21777C19.1226 6.21777 19.4243 6.27348 19.7037 6.37574C18.7014 6.74129 17.9855 7.70309 17.9855 8.83207C17.9855 9.96098 18.7013 10.9229 19.7037 11.2883Z" fill="#DDDAEC"/>
</svg>
