<svg width="32" height="37" viewBox="0 0 32 37" fill="none" xmlns="http://www.w3.org/2000/svg">
<path d="M25.334 29.875C26.3695 29.875 27.209 29.0355 27.209 28C27.209 26.9645 26.3695 26.125 25.334 26.125C24.2985 26.125 23.459 26.9645 23.459 28C23.459 29.0355 24.2985 29.875 25.334 29.875Z" fill="#4390FF"/>
<path d="M16.0715 25.5H15.334C14.644 25.5 14.084 24.9412 14.084 24.25C14.084 23.5588 14.644 23 15.334 23H16.0715C16.7615 23 17.3215 23.5588 17.3215 24.25C17.3215 24.9412 16.7615 25.5 16.0715 25.5Z" fill="#4390FF"/>
<path d="M8.19711 27.0624H8.17211C7.82836 27.0549 7.50336 26.9074 7.27211 26.6536L5.65961 24.8811C5.19461 24.3711 5.23211 23.5799 5.74336 23.1149C6.25336 22.6511 7.04461 22.6886 7.50961 23.1986L8.23336 23.9949L10.6946 21.4974C11.1796 21.0049 11.9709 21.0011 12.4634 21.4849C12.9546 21.9699 12.9609 22.7611 12.4759 23.2524L9.08836 26.6899C8.85336 26.9274 8.53211 27.0624 8.19836 27.0624H8.19711Z" fill="#4390FF"/>
<path d="M21.584 18H15.334C14.644 18 14.084 17.44 14.084 16.75C14.084 16.06 14.644 15.5 15.334 15.5H21.584C22.274 15.5 22.834 16.06 22.834 16.75C22.834 17.44 22.274 18 21.584 18Z" fill="#4390FF"/>
<path d="M8.19711 19.5624H8.17211C7.82961 19.5549 7.50336 19.4074 7.27211 19.1536L5.65961 17.3824C5.19461 16.8724 5.23211 16.0811 5.74336 15.6161C6.25336 15.1499 7.04461 15.1899 7.50961 15.6999L8.23336 16.4949L10.6946 13.9974C11.1796 13.5061 11.9709 13.5011 12.4634 13.9849C12.9546 14.4699 12.9609 15.2611 12.4759 15.7536L9.08836 19.1911C8.85336 19.4286 8.53211 19.5636 8.19836 19.5636L8.19711 19.5624Z" fill="#4390FF"/>
<path d="M21.584 10.5H15.334C14.644 10.5 14.084 9.94 14.084 9.25C14.084 8.56 14.644 8 15.334 8H21.584C22.274 8 22.834 8.56 22.834 9.25C22.834 9.94 22.274 10.5 21.584 10.5Z" fill="#4390FF"/>
<path d="M8.19711 12.0624H8.17211C7.82961 12.0549 7.50336 11.9074 7.27211 11.6537L5.65961 9.8824C5.19461 9.3724 5.23211 8.58115 5.74336 8.11615C6.25336 7.6499 7.04461 7.69115 7.50961 8.1999L8.23336 8.9949L10.6946 6.4974C11.1796 6.0074 11.9709 5.9999 12.4634 6.4849C12.9546 6.9699 12.9609 7.76115 12.4759 8.25365L9.08836 11.6912C8.85336 11.9299 8.53211 12.0637 8.19836 12.0637L8.19711 12.0624Z" fill="#4390FF"/>
<path d="M15.9215 33H6.58398C3.13773 33 0.333984 30.1963 0.333984 26.75V6.75C0.333984 3.30375 3.13773 0.5 6.58398 0.5H21.584C25.0302 0.5 27.834 3.30375 27.834 6.75V18.075C27.834 18.765 27.274 19.325 26.584 19.325C25.894 19.325 25.334 18.765 25.334 18.075V6.75C25.334 4.6825 23.6515 3 21.584 3H6.58398C4.51648 3 2.83398 4.6825 2.83398 6.75V26.75C2.83398 28.8175 4.51648 30.5 6.58398 30.5H15.9215C16.6115 30.5 17.1715 31.0588 17.1715 31.75C17.1715 32.4412 16.6115 33 15.9215 33Z" fill="white"/>
<path d="M25.334 36.75C25.1427 36.75 24.9502 36.7063 24.7752 36.6188C24.5427 36.5025 19.084 33.7075 19.084 28C19.084 24.5538 21.8877 21.75 25.334 21.75C28.7802 21.75 31.584 24.5538 31.584 28C31.584 33.7063 26.1252 36.5025 25.8927 36.6188C25.7165 36.7063 25.5252 36.75 25.334 36.75ZM25.334 24.25C23.2665 24.25 21.584 25.9325 21.584 28C21.584 31.2238 24.1652 33.2812 25.334 34.0462C26.5002 33.2825 29.084 31.225 29.084 28C29.084 25.9325 27.4015 24.25 25.334 24.25Z" fill="white"/>
</svg>
