<svg width="36" height="36" viewBox="0 0 36 36" fill="none" xmlns="http://www.w3.org/2000/svg">
<path d="M23.4736 9.15795C23.2848 11.4917 21.1798 13.0742 18.9986 12.7792C18.6636 12.7342 18.3098 12.6479 17.9761 12.5029C17.8223 12.4317 17.6886 12.3879 17.5311 12.3417C16.2898 12.0104 14.9523 12.4729 14.1673 13.5279C13.0148 15.0629 10.7936 15.2542 9.40859 13.9329L3.83984 8.65295C6.72234 3.93295 12.2136 1.09295 18.0486 1.8792C20.2036 2.17045 22.1698 2.92795 23.8886 4.0292L23.4736 9.15795Z" fill="#4390FF"/>
<path d="M14.1191 23.4743L12.7554 23.2018C12.1716 23.0843 11.7504 22.5718 11.7504 21.9756C11.7504 19.3381 9.25039 17.4168 6.70164 18.0968L2.11914 19.3193C3.57289 25.7193 9.28539 30.5006 16.1254 30.5006C16.4591 30.5006 16.7866 30.4731 17.1141 30.4506L17.4404 28.1693C17.7541 25.9706 16.2966 23.9093 14.1191 23.4743Z" fill="#4390FF"/>
<path d="M28 26.75C29.3807 26.75 30.5 25.6307 30.5 24.25C30.5 22.8693 29.3807 21.75 28 21.75C26.6193 21.75 25.5 22.8693 25.5 24.25C25.5 25.6307 26.6193 26.75 28 26.75Z" fill="#4390FF"/>
<path d="M28 35.5C25.765 35.5 20.5 29.6163 20.5 24.25C20.5 20.1137 23.8637 16.75 28 16.75C32.1362 16.75 35.5 20.1137 35.5 24.25C35.5 29.6163 30.235 35.5 28 35.5ZM28 19.25C25.2425 19.25 23 21.4925 23 24.25C23 28.1687 26.74 32.3112 28 32.9537C29.26 32.3112 33 28.1687 33 24.25C33 21.4925 30.7575 19.25 28 19.25Z" fill="white"/>
<path d="M16.125 31.75C7.50875 31.75 0.5 24.7413 0.5 16.125C0.5 7.50875 7.50875 0.5 16.125 0.5C23.5075 0.5 29.9475 5.74 31.4363 12.96C31.575 13.6363 31.1413 14.2975 30.465 14.4375C29.7875 14.5787 29.1288 14.1425 28.9875 13.4663C27.7363 7.4025 22.3275 3.00125 16.125 3.00125C8.8875 3.00125 3 8.88875 3 16.1263C3 23.3638 8.8875 29.2512 16.125 29.2512C16.765 29.2512 17.3913 29.205 17.9875 29.1162C18.67 29.0075 19.3075 29.4825 19.41 30.165C19.5138 30.8475 19.0437 31.485 18.3612 31.5875C17.6412 31.6975 16.8888 31.7525 16.125 31.7525V31.75Z" fill="white"/>
</svg>
