<svg width="40" height="31" viewBox="0 0 40 31" fill="none" xmlns="http://www.w3.org/2000/svg">
<path d="M27.6283 15.3355L26.25 15.7949L25 12.0449L26.25 8.29492L27.6283 8.75437C29.0447 9.22641 30 10.5519 30 12.0449C30 13.5379 29.0447 14.8634 27.6283 15.3355Z" fill="#FD4755"/>
<path d="M38.75 12.9229H35C34.3096 12.9229 33.75 12.3632 33.75 11.6729C33.75 10.9825 34.3096 10.4229 35 10.4229H38.75C39.4404 10.4229 40 10.9825 40 11.6729C40 12.3632 39.4404 12.9229 38.75 12.9229Z" fill="#01C0FA"/>
<path d="M35.973 3.71781L33.3213 6.36945C32.8332 6.85758 32.0417 6.85758 31.5536 6.36945C31.0655 5.88133 31.0655 5.08984 31.5536 4.60172L34.2052 1.95008C34.6934 1.46195 35.4848 1.46195 35.973 1.95008C36.4611 2.4382 36.4611 3.22961 35.973 3.71781Z" fill="#01C0FA"/>
<path d="M35.973 19.6276L33.3213 16.976C32.8332 16.4878 32.0417 16.4878 31.5536 16.976C31.0655 17.4641 31.0655 18.2556 31.5536 18.7437L34.2052 21.3953C34.6934 21.8835 35.4848 21.8835 35.973 21.3953C36.4611 20.9072 36.4611 20.1158 35.973 19.6276Z" fill="#01C0FA"/>
<path d="M17.3521 22.5981L16.1034 22.9327L13.6445 20.0001L14.8094 18.1031L17.2242 17.4561L18.2059 21.1196C18.3783 21.7636 17.9961 22.4255 17.3521 22.5981Z" fill="#0055A3"/>
<path d="M20.2804 28.8634L20.102 28.1978C19.9295 27.5538 19.2675 27.1716 18.6234 27.3441L18.5407 27.3663C17.8967 27.5388 17.2348 27.1566 17.0623 26.5126L15.1954 19.5452L11.25 18.75L7.5 19.5452C8.98586 19.5452 10.2864 20.5431 10.671 21.9784L12.5673 29.0553C12.9124 30.3434 14.2363 31.1077 15.5244 30.7626L19.8536 29.6026C20.1756 29.5163 20.3667 29.1853 20.2804 28.8634Z" fill="#E41F2D"/>
<path d="M7.5 4.54492C3.35789 4.54492 0 7.90281 0 12.0449C0 16.187 3.35789 19.5449 7.5 19.5449H11.25L12.5 12.0449L11.25 4.54492H7.5Z" fill="#FD4755"/>
<path d="M4.28055 16.3258C3.03875 16.3258 1.86742 16.024 0.835938 15.4897C2.08375 17.8989 4.59953 19.5452 7.49984 19.5452H11.2498L11.7864 16.3259H4.28055V16.3258Z" fill="#FB2B3A"/>
<path d="M24.1891 0.356021L22.9466 1.59852C21.0599 3.48524 18.5011 4.54516 15.8329 4.54516H11.25V19.5452H15.8329C18.5011 19.5452 21.0599 20.6051 22.9466 22.4918L24.1891 23.7343C24.9497 24.4949 26.25 23.9562 26.25 22.8806V1.20969C26.25 0.134146 24.9496 -0.404525 24.1891 0.356021Z" fill="#DFF6FD"/>
<path d="M24.1891 0.356021L23.0307 1.51446V17.9041C23.0307 19.6281 20.9463 20.4915 19.7273 19.2724C17.8406 17.3857 15.2818 16.3258 12.6136 16.3258H11.25V19.5451H15.8329C18.5011 19.5451 21.0599 20.605 22.9466 22.4917L24.1891 23.7342C24.9497 24.4948 26.25 23.9561 26.25 22.8806V1.20969C26.25 0.134146 24.9496 -0.404525 24.1891 0.356021Z" fill="#C8EFFE"/>
<path d="M4.33594 12.0449C4.33594 11.7212 4.07359 11.459 3.75 11.459H0.0225781C0.00765625 11.6523 0 11.8477 0 12.0448C0 12.242 0.00765625 12.4374 0.0225781 12.6308H3.75C4.07359 12.6309 4.33594 12.3685 4.33594 12.0449Z" fill="#FB2B3A"/>
<path d="M3.74961 8.95898H0.661875C0.492266 9.33414 0.352656 9.72578 0.246094 10.1309H3.74961C4.0732 10.1309 4.33555 9.86859 4.33555 9.54492C4.33555 9.22125 4.0732 8.95898 3.74961 8.95898Z" fill="#FB2B3A"/>
<path d="M4.33555 14.5449C4.33555 14.2212 4.0732 13.959 3.74961 13.959H0.246094C0.352656 14.3641 0.492266 14.7557 0.661875 15.1309H3.74961C4.0732 15.1309 4.33555 14.8685 4.33555 14.5449Z" fill="#FB2B3A"/>
<path d="M8.75 17.6309C8.42641 17.6309 8.16406 17.3686 8.16406 17.0449V7.04492C8.16406 6.72125 8.42641 6.45898 8.75 6.45898C9.07359 6.45898 9.33594 6.72125 9.33594 7.04492V17.0449C9.33594 17.3685 9.07359 17.6309 8.75 17.6309Z" fill="#FB2B3A"/>
<path d="M8.16406 16.3257V17.045C8.16406 17.3687 8.42641 17.6309 8.75 17.6309C9.07359 17.6309 9.33594 17.3687 9.33594 17.045V16.3257H8.16406Z" fill="#E41F2D"/>
<path d="M23.75 20.1309C23.4263 20.1309 23.1641 19.8686 23.1641 19.5449V4.54492C23.1641 4.22125 23.4263 3.95898 23.75 3.95898C24.0737 3.95898 24.3359 4.22125 24.3359 4.54492V19.5449C24.3359 19.8685 24.0737 20.1309 23.75 20.1309Z" fill="#99E6FC"/>
</svg>
