<svg width="26" height="44" viewBox="0 0 26 44" fill="none" xmlns="http://www.w3.org/2000/svg">
<path d="M3.83203 38.5002V5.50016C3.83203 3.47525 5.47378 1.8335 7.4987 1.8335H4.7487C2.72378 1.8335 1.08203 3.47525 1.08203 5.50016V38.5002C1.08203 40.5251 2.72378 42.1668 4.7487 42.1668H7.4987C5.47378 42.1668 3.83203 40.5251 3.83203 38.5002Z" fill="#4390FF"/>
<path d="M21.2493 0.916504H4.74935C2.2221 0.916504 0.166016 2.97259 0.166016 5.49984V38.4998C0.166016 41.0271 2.2221 43.0832 4.74935 43.0832H21.2493C23.7766 43.0832 25.8327 41.0271 25.8327 38.4998V5.49984C25.8327 2.97259 23.7766 0.916504 21.2493 0.916504ZM22.7105 35.7498L14.3441 27.3917C13.9857 27.0342 13.4063 27.0342 13.0479 27.3917L4.68151 35.7498H2.08643L24.0003 13.836V16.4412L15.643 24.7984C15.4707 24.9708 15.3744 25.2036 15.3744 25.4465C15.3744 25.6894 15.4707 25.9232 15.643 26.0946L24.0003 34.4518V35.7498H22.7105ZM20.1154 35.7498H7.27568L13.696 29.3359L20.1154 35.7498ZM17.5854 25.4465L23.9984 19.0335V31.8595L17.5854 25.4465ZM4.74935 2.74984H21.2493C22.7655 2.74984 23.9993 3.98367 23.9993 5.49984V11.2437L1.99935 33.2437V5.49984C1.99935 3.98367 3.23318 2.74984 4.74935 2.74984ZM23.9993 38.4998C23.9993 40.016 22.7655 41.2498 21.2493 41.2498H4.74935C3.23318 41.2498 1.99935 40.016 1.99935 38.4998V37.5832H23.9993V38.4998Z" fill="white"/>
<path d="M9.33268 6.41683H12.9993C13.5063 6.41683 13.916 6.00616 13.916 5.50016C13.916 4.99416 13.5063 4.5835 12.9993 4.5835H9.33268C8.82577 4.5835 8.41602 4.99416 8.41602 5.50016C8.41602 6.00616 8.82577 6.41683 9.33268 6.41683Z" fill="#4390FF"/>
<path d="M13.0007 40.3333C13.5069 40.3333 13.9173 39.9229 13.9173 39.4167C13.9173 38.9104 13.5069 38.5 13.0007 38.5C12.4944 38.5 12.084 38.9104 12.084 39.4167C12.084 39.9229 12.4944 40.3333 13.0007 40.3333Z" fill="#4390FF"/>
<path d="M7.50065 40.3333C8.00691 40.3333 8.41732 39.9229 8.41732 39.4167C8.41732 38.9104 8.00691 38.5 7.50065 38.5C6.99439 38.5 6.58398 38.9104 6.58398 39.4167C6.58398 39.9229 6.99439 40.3333 7.50065 40.3333Z" fill="#4390FF"/>
<path d="M18.5007 40.3333C19.0069 40.3333 19.4173 39.9229 19.4173 39.4167C19.4173 38.9104 19.0069 38.5 18.5007 38.5C17.9944 38.5 17.584 38.9104 17.584 39.4167C17.584 39.9229 17.9944 40.3333 18.5007 40.3333Z" fill="#4390FF"/>
<path d="M16.6667 6.41683C17.1729 6.41683 17.5833 6.00642 17.5833 5.50016C17.5833 4.9939 17.1729 4.5835 16.6667 4.5835C16.1604 4.5835 15.75 4.9939 15.75 5.50016C15.75 6.00642 16.1604 6.41683 16.6667 6.41683Z" fill="#4390FF"/>
<path d="M9.33333 21.0835C10.9366 21.0835 13.9167 17.7853 13.9167 14.6668C13.9167 12.1396 11.8606 10.0835 9.33333 10.0835C6.80608 10.0835 4.75 12.1396 4.75 14.6668C4.75 17.7853 7.73008 21.0835 9.33333 21.0835ZM9.33333 11.9168C10.8495 11.9168 12.0833 13.1507 12.0833 14.6668C12.0833 16.8027 10.0089 18.9449 9.33333 19.2318C8.65775 18.9449 6.58333 16.8017 6.58333 14.6668C6.58333 13.1507 7.81717 11.9168 9.33333 11.9168Z" fill="white"/>
<path d="M9.33268 15.5833C9.83894 15.5833 10.2493 15.1729 10.2493 14.6667C10.2493 14.1604 9.83894 13.75 9.33268 13.75C8.82642 13.75 8.41602 14.1604 8.41602 14.6667C8.41602 15.1729 8.82642 15.5833 9.33268 15.5833Z" fill="#4390FF"/>
</svg>
