<svg width="36" height="33" viewBox="0 0 36 33" fill="none" xmlns="http://www.w3.org/2000/svg">
<path d="M3.6375 29.8498L10.6625 31.5998C11.375 31.7748 12.125 31.7998 12.85 31.6498L23.15 29.5998C23.875 29.4498 24.625 29.4623 25.3375 29.6498L31.1375 31.0998C32.725 31.4873 34.25 30.2998 34.25 28.6748V23.6748C34.25 25.2998 32.725 26.4873 31.1375 26.0998L25.3375 24.6498C24.625 24.4623 23.875 24.4498 23.15 24.5998L12.85 26.6498C12.125 26.7998 11.375 26.7748 10.6625 26.5998L3.6375 24.8498C2.525 24.5623 1.75 23.5623 1.75 22.4248V27.4248C1.75 28.5623 2.525 29.5623 3.6375 29.8498Z" fill="#4390FF"/>
<path d="M18 10.5C19.3807 10.5 20.5 9.38071 20.5 8C20.5 6.61929 19.3807 5.5 18 5.5C16.6193 5.5 15.5 6.61929 15.5 8C15.5 9.38071 16.6193 10.5 18 10.5Z" fill="#4390FF"/>
<path d="M32.6662 9.93752L29.3288 9.10002C28.6612 8.93377 27.98 9.33752 27.8125 10.0088C27.6438 10.6788 28.0513 11.3575 28.7212 11.525L32.05 12.36C32.61 12.505 33 13.0038 33 13.575V28.675C33 29.06 32.8263 29.4163 32.525 29.6525C32.2175 29.895 31.8175 29.9825 31.4412 29.8875L25.6575 28.4413C25.6062 28.4275 25.5525 28.4225 25.5012 28.41V19.55C25.5012 18.86 24.9412 18.3 24.2512 18.3C23.5612 18.3 23.0012 18.86 23.0012 19.55V28.3613C22.97 28.3675 22.9388 28.3688 22.9075 28.375L13.0013 30.345V19.55C13.0013 18.86 12.4413 18.3 11.7513 18.3C11.0613 18.3 10.5013 18.86 10.5013 19.55V30.27L3.9525 28.64C3.3925 28.495 3.00125 27.9938 3.00125 27.4238V12.325C3.00125 11.94 3.175 11.5838 3.47625 11.3475C3.78375 11.105 4.18 11.0188 4.55875 11.1125L6.69625 11.65C7.36375 11.8163 8.04375 11.4125 8.21375 10.7425C8.3825 10.0725 7.97625 9.39377 7.30625 9.22502L5.16 8.68502C4.02375 8.41002 2.8475 8.66127 1.93125 9.38002C1.02125 10.095 0.5 11.1675 0.5 12.3238V27.4238C0.5 29.1338 1.66125 30.6275 3.335 31.0625L10.365 32.8125C10.865 32.935 11.3775 32.995 11.8825 32.995C12.2937 32.995 12.7013 32.955 13.0938 32.8725L23.4037 30.8213C23.9475 30.7075 24.5063 30.7225 25.035 30.8588L30.8425 32.3113C31.98 32.5888 33.155 32.335 34.0713 31.615C34.98 30.9 35.5025 29.8263 35.5025 28.6713V13.575C35.5025 11.865 34.3413 10.37 32.6688 9.93752H32.6662Z" fill="white"/>
<path d="M18 19.25C15.7638 19.25 10.5 13.365 10.5 8C10.5 3.86375 13.8637 0.5 18 0.5C22.1362 0.5 25.5 3.86375 25.5 8C25.5 13.365 20.2362 19.25 18 19.25ZM18.0012 3C15.2437 3 13.0013 5.2425 13.0013 8C13.0013 11.9175 16.7425 16.0613 18.0012 16.7038C19.26 16.0613 23.0012 11.9175 23.0012 8C23.0012 5.2425 20.7587 3 18.0012 3Z" fill="white"/>
</svg>
