<svg width="40" height="40" viewBox="0 0 40 40" fill="none" xmlns="http://www.w3.org/2000/svg">
<g clip-path="url(#clip0_718_774)">
<path d="M16.767 0C12.3316 0 8.73633 3.59531 8.73633 8.03063V11.2085C9.27305 10.711 10.0366 10.4406 10.782 10.5402V10.14C10.782 9.82188 11.0536 9.57063 11.3685 9.59445C14.4734 9.8175 17.6332 8.83086 20.0223 7.27016C20.2454 7.12437 20.5407 7.16062 20.722 7.35547C22.7645 9.55102 22.7522 9.46609 22.7522 9.75266V10.5384C23.5692 10.416 24.2939 10.6684 24.7974 11.1366V8.03055C24.7975 3.59539 21.2023 0 16.767 0Z" fill="#576574"/>
<path d="M10.3461 8.03063C10.3461 3.86703 13.5145 0.44375 17.5718 0.04C17.307 0.0136719 17.0386 0 16.767 0C12.3316 0 8.73633 3.59531 8.73633 8.03063V11.2085C9.16852 10.808 9.74773 10.555 10.3461 10.5235V8.03063Z" fill="#3E4B5A"/>
<path d="M22.6462 10.2192V14.6184C22.6462 14.666 22.6437 14.7131 22.6426 14.7606C24.1994 14.9963 25.4186 13.8715 25.4186 12.4901C25.4187 11.106 24.1984 9.98658 22.6462 10.2192Z" fill="#F2BB88"/>
<path d="M10.8896 14.6186V10.2212C9.5343 10.0402 8.11719 11.0803 8.11719 12.4904C8.11719 13.87 9.33375 14.9969 10.8931 14.7609C10.892 14.7134 10.8896 14.6661 10.8896 14.6186Z" fill="#F2BB88"/>
<path d="M24.256 10.4991C23.8046 10.2437 23.2509 10.1285 22.6462 10.2191V14.6183C22.6462 14.6659 22.6437 14.713 22.6426 14.7605C23.2491 14.8524 23.8041 14.737 24.2559 14.481V10.4991H24.256Z" fill="#E3A76F"/>
<path d="M10.8896 14.4812C10.1812 14.0801 9.72695 13.3325 9.72695 12.4899C9.72695 11.6636 10.2139 10.9647 10.8896 10.5638V10.2207C9.5343 10.0397 8.11719 11.0798 8.11719 12.4899C8.11719 13.8695 9.33375 14.9964 10.8931 14.7604C10.892 14.7129 10.8897 14.6656 10.8897 14.6181L10.8896 14.4812Z" fill="#E3A76F"/>
<path d="M16.8525 20.412C15.5551 20.412 14.4149 20.0558 13.4824 19.4599V22.6116L16.838 26.7537L20.1937 22.6116V19.3711C19.243 20.0268 18.0921 20.412 16.8525 20.412Z" fill="#F2BB88"/>
<path d="M15.0922 20.1761C14.5047 20.0122 13.9655 19.7686 13.4824 19.46V22.6117L15.0922 24.5986V20.1761Z" fill="#E3A76F"/>
<path d="M29.0716 25.8368L20.1945 22.3989L16.8389 26.541L13.4832 22.3989L4.61531 25.8368C4.61531 25.8368 1.33203 27.1867 1.33203 30.9296V39.2364C1.33203 39.6582 1.67398 40.0002 2.09578 40.0002H31.5978C32.0159 40.0002 32.3549 39.6612 32.3549 39.2431V30.9296C32.355 27.1866 29.0716 25.8368 29.0716 25.8368Z" fill="#E4EAF8"/>
<path d="M2.94188 39.2361V30.1244C2.94188 27.6875 4.33344 26.2654 5.30469 25.5693L4.61539 25.8365C4.61539 25.8365 1.33203 27.1863 1.33203 30.9293V39.2361C1.33203 39.6579 1.67398 39.9999 2.09578 39.9999H3.70555C3.28383 39.9999 2.94188 39.6579 2.94188 39.2361Z" fill="#D8DCE5"/>
<path d="M20.7233 7.14267C20.542 6.94783 20.2466 6.91165 20.0236 7.05736C17.6345 8.61806 14.4746 9.6047 11.3698 9.38165C11.0548 9.35783 10.7832 9.60908 10.7832 9.9272V14.7248C10.7832 17.8082 13.1992 20.6245 16.8537 20.6245C20.1069 20.6245 22.7535 17.9778 22.7535 14.7248V9.53986C22.7535 9.25329 22.7659 9.33822 20.7233 7.14267Z" fill="#F2D1A5"/>
<path d="M12.393 14.7251V9.41171C12.052 9.41554 11.7105 9.40648 11.3698 9.38195C11.0548 9.35804 10.7832 9.60937 10.7832 9.92749V14.7251C10.7832 17.8085 13.1992 20.6248 16.8537 20.6248C17.0974 20.6248 17.3372 20.6081 17.5733 20.5793C14.6584 20.223 12.393 17.7344 12.393 14.7251Z" fill="#F2BB88"/>
<path d="M20.8915 28.6688L23.4008 23.6398L20.1955 22.3984L16.8398 26.5405L20.1115 28.864C20.3762 29.0521 20.7464 28.9595 20.8915 28.6688Z" fill="#D8DCE5"/>
<path d="M12.7925 28.6688L10.2832 23.6398L13.4885 22.3984L16.8441 26.5405L13.5725 28.864C13.3077 29.0521 12.9376 28.9595 12.7925 28.6688Z" fill="#D8DCE5"/>
<path d="M16.8426 26.5434V26.5405L16.8405 26.5419L16.8385 26.5405V26.5434L14.459 28.2334L15.5838 29.9262C16.4912 29.9262 17.19 29.9262 18.0973 29.9262L19.2221 28.2334L16.8426 26.5434Z" fill="#EE5253"/>
<path d="M13.8789 39.9999H19.8025L18.0975 29.9263C17.1901 29.9263 16.4913 29.9263 15.5839 29.9263L13.8789 39.9999Z" fill="#FF6B6B"/>
<path d="M17.6455 27.1136L16.8426 26.5434V26.5405L16.8405 26.5419L16.8385 26.5405V26.5434L14.459 28.2334L15.5838 29.9262C16.0079 29.9262 16.2722 29.9262 17.1935 29.9262L16.3178 28.6083C16.179 28.3994 16.2312 28.118 16.4357 27.9728L17.6455 27.1136Z" fill="#D83941"/>
<path d="M15.5839 29.9263L13.8789 39.9999H15.4887L17.1937 29.9263C16.2721 29.9263 16.0089 29.9263 15.5839 29.9263Z" fill="#EE5253"/>
<path d="M7.52766 40.0001V32.216C7.52766 31.8826 7.25742 31.6123 6.92398 31.6123C6.59055 31.6123 6.32031 31.8825 6.32031 32.216V40.0001H7.52766Z" fill="#D8DCE5"/>
<path d="M27.3753 40V34.63C27.3753 34.2967 27.1051 34.0264 26.7716 34.0264C26.4383 34.0264 26.168 34.2966 26.168 34.63V40H27.3753Z" fill="#D8DCE5"/>
<path d="M30.8773 36.7536C26.5811 36.7536 23.0859 33.2583 23.0859 28.9622C23.0859 24.6661 26.5812 21.1709 30.8773 21.1709C35.1734 21.1709 38.6686 24.6661 38.6686 28.9622C38.6686 33.2583 35.1734 36.7536 30.8773 36.7536Z" fill="#15BA8B"/>
<path d="M24.6957 28.9623C24.6957 24.938 27.7628 21.6165 31.6822 21.2124C27.0619 20.7359 23.0859 24.3756 23.0859 28.9623C23.0859 33.2585 26.5811 36.7537 30.8773 36.7537C31.149 36.7537 31.4175 36.7395 31.6821 36.7123C27.7628 36.3082 24.6957 32.9868 24.6957 28.9623Z" fill="#11AA7B"/>
<path d="M30.877 23.2944C27.7516 23.2944 25.209 25.8371 25.209 28.9624C25.209 32.0877 27.7516 34.6304 30.877 34.6304C34.0023 34.6304 36.5449 32.0877 36.5449 28.9624C36.5449 25.8371 34.0023 23.2944 30.877 23.2944Z" fill="#3FEFBC"/>
<path d="M26.8188 28.962C26.8188 26.1099 28.9365 23.7443 31.6818 23.3522C28.2443 22.861 25.209 25.5408 25.209 28.962C25.209 32.0873 27.7516 34.6299 30.877 34.6299C31.1502 34.6299 31.4187 34.6094 31.6818 34.5718C28.9365 34.1796 26.8188 31.814 26.8188 28.962Z" fill="#1DD1A1"/>
<path d="M30.083 30.7559L28.6674 29.3685C28.4294 29.1351 28.4255 28.753 28.6588 28.5148C28.8923 28.2768 29.2744 28.2729 29.5125 28.5062L30.5067 29.4807L32.88 27.1675C33.1187 26.9347 33.5009 26.9397 33.7337 27.1784C33.9664 27.4172 33.9615 27.7994 33.7227 28.032L30.927 30.7571C30.6921 30.9859 30.3175 30.9857 30.083 30.7559Z" fill="#E4EAF8"/>
</g>
<defs>
<clipPath id="clip0_718_774">
<rect width="40" height="40" fill="white"/>
</clipPath>
</defs>
</svg>
