<svg width="40" height="38" viewBox="0 0 40 38" fill="none" xmlns="http://www.w3.org/2000/svg">
<path opacity="0.2" d="M32.084 10.6667H31.6098C31.199 7.37917 28.3998 4.83333 25.0007 4.83333C23.8098 4.83333 22.694 5.14917 21.7265 5.69667C20.504 3.21333 17.9557 1.5 15.0007 1.5C10.8582 1.5 7.50065 4.8575 7.50065 9C7.50065 9.5775 7.57232 10.1375 7.69565 10.6775C3.88732 10.7958 0.833984 13.9125 0.833984 17.75C0.833984 21.6617 4.00565 24.8333 7.91732 24.8333H32.084C35.9957 24.8333 39.1673 21.6617 39.1673 17.75C39.1673 13.8383 35.9957 10.6667 32.084 10.6667Z" fill="#EFF3F9"/>
<path d="M33.7507 20.6669H6.4849C4.26406 20.6669 2.2149 19.6744 0.851562 18.0928C1.03156 21.8444 4.12073 24.8336 7.9174 24.8336H32.0841C35.8582 24.8336 38.9341 21.8794 39.1466 18.1594C37.8474 19.6903 35.9157 20.6669 33.7507 20.6669Z" fill="#4390FF"/>
<path d="M20.0007 36.5003C20.9211 36.5003 21.6673 35.7541 21.6673 34.8337C21.6673 33.9132 20.9211 33.167 20.0007 33.167C19.0802 33.167 18.334 33.9132 18.334 34.8337C18.334 35.7541 19.0802 36.5003 20.0007 36.5003Z" fill="#4390FF"/>
<path d="M30.0007 34.0003C30.9211 34.0003 31.6673 33.2541 31.6673 32.3337C31.6673 31.4132 30.9211 30.667 30.0007 30.667C29.0802 30.667 28.334 31.4132 28.334 32.3337C28.334 33.2541 29.0802 34.0003 30.0007 34.0003Z" fill="#4390FF"/>
<path d="M10.0007 34.0003C10.9211 34.0003 11.6673 33.2541 11.6673 32.3337C11.6673 31.4132 10.9211 30.667 10.0007 30.667C9.08018 30.667 8.33398 31.4132 8.33398 32.3337C8.33398 33.2541 9.08018 34.0003 10.0007 34.0003Z" fill="#4390FF"/>
<path d="M32.0833 25.667C36.4483 25.667 40 22.1153 40 17.7503C40 13.4603 36.57 9.95616 32.3092 9.83699C31.545 6.46283 28.5233 4.00033 25 4.00033C23.9933 4.00033 22.995 4.20616 22.0683 4.59949C20.5542 2.15366 17.915 0.666992 15 0.666992C10.405 0.666992 6.66667 4.40533 6.66667 9.00033C6.66667 9.30699 6.685 9.61699 6.72083 9.93033C2.88417 10.5028 0 13.7728 0 17.7503C0 22.1153 3.55167 25.667 7.91667 25.667H12.5V28.6553L11.0708 30.0845C10.745 29.9287 10.3842 29.8337 10 29.8337C8.62167 29.8337 7.5 30.9553 7.5 32.3337C7.5 33.712 8.62167 34.8337 10 34.8337C11.3783 34.8337 12.5 33.712 12.5 32.3337C12.5 31.9487 12.4058 31.5887 12.2492 31.2628L13.9225 29.5895C14.0792 29.4328 14.1667 29.222 14.1667 29.0003V25.667H19.1667V32.487C18.1992 32.832 17.5 33.7487 17.5 34.8337C17.5 36.212 18.6217 37.3337 20 37.3337C21.3783 37.3337 22.5 36.212 22.5 34.8337C22.5 33.7487 21.8008 32.832 20.8333 32.487V25.667H25.8333V29.0003C25.8333 29.222 25.9208 29.4337 26.0775 29.5895L27.7508 31.2628C27.595 31.5887 27.5 31.9495 27.5 32.3337C27.5 33.712 28.6217 34.8337 30 34.8337C31.3783 34.8337 32.5 33.712 32.5 32.3337C32.5 30.9553 31.3783 29.8337 30 29.8337C29.615 29.8337 29.255 29.9278 28.9292 30.0845L27.5 28.6553V25.667H32.0833ZM10 33.167C9.54 33.167 9.16667 32.7937 9.16667 32.3337C9.16667 31.8737 9.54 31.5003 10 31.5003C10.46 31.5003 10.8333 31.8737 10.8333 32.3337C10.8333 32.7937 10.46 33.167 10 33.167ZM20 35.667C19.54 35.667 19.1667 35.2937 19.1667 34.8337C19.1667 34.3737 19.54 34.0003 20 34.0003C20.46 34.0003 20.8333 34.3737 20.8333 34.8337C20.8333 35.2937 20.46 35.667 20 35.667ZM30.8333 32.3337C30.8333 32.7937 30.46 33.167 30 33.167C29.54 33.167 29.1667 32.7937 29.1667 32.3337C29.1667 31.8737 29.54 31.5003 30 31.5003C30.46 31.5003 30.8333 31.8737 30.8333 32.3337ZM7.91667 24.0003C4.47 24.0003 1.66667 21.197 1.66667 17.7503C1.66667 14.357 4.32583 11.617 7.72167 11.5112C7.97083 11.5037 8.2025 11.3845 8.35583 11.187C8.50833 10.9903 8.56417 10.7353 8.50833 10.492C8.3925 9.98699 8.33417 9.48533 8.33417 8.99949C8.33417 5.32366 11.325 2.33283 15.0008 2.33283C17.555 2.33283 19.845 3.76283 20.9783 6.06449C21.08 6.27033 21.2617 6.42533 21.4808 6.49283C21.7 6.56116 21.9367 6.53449 22.1367 6.42199C23.0117 5.92783 24.0017 5.66616 25.0017 5.66616C27.935 5.66616 30.42 7.86033 30.7833 10.7695C30.835 11.1862 31.19 11.4995 31.61 11.4995H32.0842C35.5308 11.4995 38.3342 14.3028 38.3342 17.7495C38.3342 21.1962 35.5308 23.9995 32.0842 23.9995L7.91667 24.0003Z" fill="white"/>
</svg>
