<svg width="40" height="40" viewBox="0 0 40 40" fill="none" xmlns="http://www.w3.org/2000/svg">
<g clip-path="url(#clip0_718_406)">
<path d="M40 9.05625V30.9437C40 31.5656 39.4953 32.0703 38.8734 32.0703H1.12656C0.504687 32.0703 0 31.5656 0 30.9437V9.05625C0 8.43437 0.504687 7.92969 1.12656 7.92969H38.8734C39.4953 7.92969 40 8.43437 40 9.05625Z" fill="#D18C55"/>
<path d="M38.8734 7.92969H36.459C37.0813 7.92969 37.5858 8.43406 37.5858 9.05625V30.9437C37.5858 31.5659 37.0813 32.0703 36.459 32.0703H38.8734C39.4957 32.0703 40.0002 31.5659 40.0002 30.9437V9.05625C40.0002 8.43406 39.4958 7.92969 38.8734 7.92969Z" fill="#C7824C"/>
<path d="M25.6221 14.2628L25.9168 13.143C26.0098 12.7894 26.3295 12.543 26.6951 12.543H27.9519C28.3175 12.543 28.6371 12.7894 28.7303 13.143L29.025 14.2628C29.0796 14.4705 29.215 14.6477 29.4009 14.755L30.8272 15.5785C31.0132 15.6859 31.2343 15.7145 31.4414 15.658L32.5586 15.3533C32.9114 15.2571 33.2846 15.4107 33.4674 15.7273L34.0958 16.8158C34.2786 17.1324 34.225 17.5324 33.9653 17.7898L33.1428 18.605C32.9903 18.7562 32.9046 18.962 32.9046 19.1766V20.8237C32.9046 21.0384 32.9903 21.2441 33.1428 21.3953L33.9653 22.2105C34.225 22.4678 34.2786 22.8679 34.0958 23.1845L33.4674 24.273C33.2846 24.5896 32.9114 24.7432 32.5586 24.647L31.4414 24.3423C31.2343 24.2859 31.0132 24.3145 30.8272 24.4218L29.4009 25.2453C29.215 25.3527 29.0796 25.5298 29.025 25.7375L28.7303 26.8573C28.6372 27.2109 28.3175 27.4573 27.9519 27.4573H26.6951C26.3295 27.4573 26.0099 27.2109 25.9168 26.8573L25.6221 25.7375C25.5675 25.5298 25.4321 25.3527 25.2461 25.2453L23.8198 24.4218C23.6339 24.3145 23.4128 24.2859 23.2056 24.3423L22.0884 24.647C21.7357 24.7432 21.3625 24.5896 21.1796 24.273L20.5512 23.1845C20.3684 22.8679 20.422 22.4679 20.6817 22.2105L21.5042 21.3953C21.6567 21.2441 21.7425 21.0384 21.7425 20.8237V19.1766C21.7425 18.962 21.6567 18.7562 21.5042 18.605L20.6817 17.7898C20.422 17.5325 20.3684 17.1324 20.5512 16.8158L21.1796 15.7273C21.3625 15.4107 21.7357 15.2571 22.0884 15.3533L23.2056 15.658C23.4127 15.7145 23.6339 15.6859 23.8198 15.5785L25.2461 14.755C25.4321 14.6476 25.5674 14.4704 25.6221 14.2628ZM24.5231 20.0001C24.5231 21.5467 25.7769 22.8005 27.3236 22.8005C28.8702 22.8005 30.124 21.5467 30.124 20.0001C30.124 18.4534 28.8702 17.1996 27.3236 17.1996C25.7769 17.1996 24.5231 18.4534 24.5231 20.0001Z" fill="#B5723C"/>
<path d="M15.0039 7.92969V9.82109C15.0039 10.1445 14.7414 10.407 14.418 10.407C14.0945 10.407 13.832 10.1445 13.832 9.82109V7.92969H15.0039Z" fill="#B5723C"/>
<path d="M14.418 11.7622C14.0944 11.7622 13.832 12.0245 13.832 12.3481V14.2788C13.832 14.6024 14.0944 14.8647 14.418 14.8647C14.7416 14.8647 15.0039 14.6024 15.0039 14.2788V12.3481C15.0039 12.0245 14.7416 11.7622 14.418 11.7622Z" fill="#B5723C"/>
<path d="M14.418 16.2197C14.0944 16.2197 13.832 16.482 13.832 16.8057V18.7363C13.832 19.06 14.0944 19.3222 14.418 19.3222C14.7416 19.3222 15.0039 19.06 15.0039 18.7363V16.8057C15.0039 16.4821 14.7416 16.2197 14.418 16.2197Z" fill="#B5723C"/>
<path d="M14.418 20.6777C14.0944 20.6777 13.832 20.94 13.832 21.2637V23.1943C13.832 23.518 14.0944 23.7802 14.418 23.7802C14.7416 23.7802 15.0039 23.518 15.0039 23.1943V21.2637C15.0039 20.94 14.7416 20.6777 14.418 20.6777Z" fill="#B5723C"/>
<path d="M14.418 25.1353C14.0944 25.1353 13.832 25.3975 13.832 25.7212V27.6518C13.832 27.9755 14.0944 28.2378 14.418 28.2378C14.7416 28.2378 15.0039 27.9755 15.0039 27.6518V25.7212C15.0039 25.3976 14.7416 25.1353 14.418 25.1353Z" fill="#B5723C"/>
<path d="M15.0039 30.1787V32.0701H13.832V30.1787C13.832 29.8553 14.0945 29.5928 14.418 29.5928C14.7414 29.5928 15.0039 29.8553 15.0039 30.1787Z" fill="#B5723C"/>
<path d="M10.8259 14.6078H3.42156C3.24375 14.6078 3.09961 14.4637 3.09961 14.2859V11.0666C3.09961 10.8888 3.24375 10.7446 3.42156 10.7446H10.826C11.0038 10.7446 11.148 10.8888 11.148 11.0666V14.2859C11.1479 14.4637 11.0037 14.6078 10.8259 14.6078Z" fill="#FFD740"/>
<path d="M3.09961 19.2983H11.1479C11.4715 19.2983 11.7338 19.0361 11.7338 18.7124C11.7338 18.3887 11.4715 18.1265 11.1479 18.1265H3.09961C2.77602 18.1265 2.51367 18.3887 2.51367 18.7124C2.51367 19.0361 2.77602 19.2983 3.09961 19.2983Z" fill="#B5723C"/>
<path d="M11.1479 20.8091H3.09961C2.77602 20.8091 2.51367 21.0713 2.51367 21.395C2.51367 21.7187 2.77602 21.981 3.09961 21.981H11.1479C11.4715 21.981 11.7338 21.7187 11.7338 21.395C11.7338 21.0713 11.4715 20.8091 11.1479 20.8091Z" fill="#B5723C"/>
<path d="M11.1479 23.4917H3.09961C2.77602 23.4917 2.51367 23.754 2.51367 24.0776C2.51367 24.4013 2.77602 24.6636 3.09961 24.6636H11.1479C11.4715 24.6636 11.7338 24.4013 11.7338 24.0776C11.7338 23.754 11.4715 23.4917 11.1479 23.4917Z" fill="#B5723C"/>
<path d="M11.1479 26.1748H3.09961C2.77602 26.1748 2.51367 26.4371 2.51367 26.7607C2.51367 27.0844 2.77602 27.3467 3.09961 27.3467H11.1479C11.4715 27.3467 11.7338 27.0844 11.7338 26.7607C11.7338 26.4371 11.4715 26.1748 11.1479 26.1748Z" fill="#B5723C"/>
</g>
<defs>
<clipPath id="clip0_718_406">
<rect width="40" height="40" fill="white"/>
</clipPath>
</defs>
</svg>
