<svg width="24" height="28" viewBox="0 0 24 28" fill="none" xmlns="http://www.w3.org/2000/svg">
<path d="M12.0076 8.11567C14.2162 8.11567 16.0062 6.35789 16.0062 4.18967V4.06833C16.0062 1.90011 14.2162 0.142334 12.0076 0.142334C9.79906 0.142334 8.00903 1.90011 8.00903 4.06833V4.18967C8.00903 6.35789 9.79906 8.11567 12.0076 8.11567Z" fill="#14142A"/>
<path d="M7.19535 17.1962L0.466439 23.6348C-0.144127 24.2166 -0.156809 25.1766 0.437451 25.7762L2.04992 27.402C2.64056 27.998 3.60986 28.0105 4.2168 27.4305L11.1323 20.8116L7.19535 17.1962Z" fill="#1863DC"/>
<path d="M23.5394 8.89394C24.1445 8.31218 24.1554 7.35745 23.5666 6.75963L21.9577 5.12856C21.3653 4.52717 20.3905 4.51646 19.7818 5.10179L11.5926 12.9984L7.03235 8.72976C6.50694 8.23901 5.67534 8.25686 5.17348 8.77259L3.30555 10.6945C2.79644 11.2156 2.8218 12.0472 3.3599 12.5415L11.4132 19.9313C11.5908 20.0937 11.868 20.0902 12.0401 19.9224L15.0857 16.9833L12.4151 20.8504L19.6133 27.4514C20.2311 28.0189 21.1986 27.9868 21.7783 27.3818L23.2984 25.79C23.88 25.1797 23.8492 24.2196 23.2278 23.6485L15.5205 16.5639L23.5339 8.89216H23.5358L23.5394 8.89394Z" fill="#1863DC"/>
</svg>
