<svg width="69" height="12" viewBox="0 0 69 12" fill="none" xmlns="http://www.w3.org/2000/svg">
<path d="M8.56158 3.27441L9.47704 7.56278L11.9295 3.27441H12.8541L8.20642 11.0942H7.26953L8.79734 8.53385L7.56651 3.27441H8.56158Z" fill="#14142A"/>
<path d="M2.16258 4.26402C2.40445 3.94737 2.7198 3.68801 3.10864 3.48897C3.49748 3.28993 3.91694 3.1874 4.37008 3.1874C5.01305 3.1874 5.53048 3.37739 5.91626 3.76039C6.31122 4.14339 6.50719 4.65908 6.50719 5.31349C6.50719 5.50047 6.48882 5.70252 6.44901 5.91362C6.35104 6.45042 6.15202 6.92992 5.84891 7.34911C5.55498 7.7683 5.18757 8.09701 4.75586 8.32922C4.33028 8.56143 3.87714 8.67905 3.39645 8.67905C2.91575 8.67905 2.53916 8.57953 2.2238 8.37748C1.90844 8.17844 1.688 7.9221 1.56247 7.61148L1.38488 8.59159H0.487793L1.77679 1.41113H2.67388L2.16258 4.26402ZM5.53049 5.91362C5.55805 5.77792 5.5703 5.63015 5.5703 5.4673C5.5703 4.99383 5.42945 4.62591 5.14777 4.36052C4.86609 4.08911 4.50174 3.9534 4.05473 3.9534C3.72712 3.9534 3.4087 4.03482 3.09947 4.19466C2.79023 4.34846 2.52385 4.58067 2.3034 4.88224C2.08602 5.1808 1.94212 5.52459 1.86864 5.91966C1.84109 6.05536 1.82884 6.20313 1.82884 6.36598C1.82884 6.83945 1.96968 7.2134 2.25136 7.49085C2.53916 7.76227 2.90351 7.89797 3.3444 7.89797C3.67813 7.89797 3.99961 7.81956 4.29967 7.66576C4.6089 7.50291 4.87222 7.27372 5.0896 6.97818C5.31311 6.67359 5.46006 6.31773 5.53354 5.91061L5.53049 5.91362Z" fill="#14142A"/>
<path d="M18.2214 1.54297C20.0401 1.54297 21.4025 2.57133 21.8434 4.25713H19.8013C19.489 3.58462 18.9011 3.26495 18.203 3.26495C17.0641 3.26495 16.2741 4.12444 16.2741 5.50866C16.2741 6.89288 17.0641 7.75236 18.203 7.75236C18.9011 7.75236 19.489 7.4146 19.8013 6.76018H21.8434C21.4025 8.44296 20.0401 9.47434 18.2214 9.47434C15.9588 9.45625 14.3789 7.82776 14.3789 5.49056C14.3789 3.15337 15.9618 1.54297 18.2214 1.54297Z" fill="#404041"/>
<path d="M25.5572 9.49503C23.7753 9.49503 22.4312 8.27969 22.4312 6.31343C22.4312 4.34718 23.8089 3.13184 25.5939 3.13184C27.3789 3.13184 28.7567 4.34718 28.7567 6.31343C28.7567 8.27969 27.3422 9.49503 25.5572 9.49503ZM25.5572 7.84844C26.2185 7.84844 26.8431 7.3418 26.8431 6.31343C26.8431 5.28507 26.2369 4.77843 25.5756 4.77843C24.9142 4.77843 24.308 5.26396 24.308 6.31343C24.3264 7.3418 24.8775 7.84844 25.5572 7.84844Z" fill="#404041"/>
<path d="M32.4522 9.49503C30.6703 9.49503 29.3262 8.27969 29.3262 6.31343C29.3262 4.34718 30.704 3.13184 32.489 3.13184C34.274 3.13184 35.6517 4.34718 35.6517 6.31343C35.6517 8.27969 34.2372 9.49503 32.4522 9.49503ZM32.4522 7.84844C33.1136 7.84844 33.7382 7.3418 33.7382 6.31343C33.7382 5.28507 33.1319 4.77843 32.4706 4.77843C31.8093 4.77843 31.203 5.26396 31.203 6.31343C31.203 7.36291 31.7725 7.84844 32.4522 7.84844Z" fill="#404041"/>
<path d="M36.3134 1.54297H38.1718V5.73484L40.0089 3.22877H42.3083L39.7884 6.31687L42.345 9.40498H40.0456L38.1872 6.80542V9.40498H36.3287V1.549H36.3103L36.3134 1.54297Z" fill="#404041"/>
<path d="M42.7458 1.56254C42.7458 0.98352 43.1867 0.53418 43.8481 0.53418C44.5094 0.53418 44.9503 0.98352 44.9503 1.56254C44.9503 2.14156 44.5094 2.57281 43.8481 2.57281C43.1867 2.57281 42.7458 2.12347 42.7458 1.56254ZM42.9295 3.20913H44.788V9.38234H42.9295V3.20913Z" fill="#404041"/>
<path d="M48.5387 9.49503C46.7568 9.49503 45.4678 8.27969 45.4678 6.31343C45.4678 4.34718 46.7353 3.13184 48.5387 3.13184C50.3421 3.13184 51.5729 4.32908 51.5729 6.21995C51.5729 6.38883 51.5545 6.5939 51.5361 6.78087H47.3262C47.3997 7.58607 47.8774 7.96002 48.4836 7.96002C48.998 7.96002 49.2919 7.69765 49.4572 7.35989H51.4412C51.1289 8.55714 50.0634 9.49201 48.5356 9.49201L48.5387 9.49503ZM47.3446 5.7133H49.6807C49.6807 5.04079 49.1663 4.64573 48.5387 4.64573C47.911 4.64573 47.4548 5.01968 47.3446 5.7133Z" fill="#404041"/>
<path d="M60.1583 9.49503C58.3733 9.49503 57.0874 8.27969 57.0874 6.31343C57.0874 4.34718 58.355 3.13184 60.1583 3.13184C61.9617 3.13184 63.1895 4.32908 63.1895 6.21995C63.1895 6.38883 63.1711 6.5939 63.1527 6.78087H58.9428C59.0163 7.58607 59.4939 7.96002 60.1002 7.96002C60.6145 7.96002 60.9085 7.69765 61.0738 7.35989H63.0578C62.7455 8.55714 61.6616 9.49201 60.1522 9.49201L60.1583 9.49503ZM58.9428 5.7133H61.2789C61.2789 5.04079 60.7646 4.64573 60.14 4.64573C59.5154 4.64573 59.0561 5.01968 58.9459 5.7133H58.9428Z" fill="#404041"/>
<path d="M66.5544 9.49592C64.9378 9.49592 63.8509 8.57914 63.759 7.38189H65.5991C65.6359 7.81314 66.0217 8.09361 66.536 8.09361C67.0137 8.09361 67.2708 7.87044 67.2708 7.58998C67.2708 6.5978 63.9611 7.30952 63.9611 5.0447C63.9611 3.99824 64.8429 3.13574 66.4258 3.13574C68.0087 3.13574 68.8691 4.01634 68.9793 5.23168H67.2525C67.1974 4.82154 66.8851 4.53806 66.3523 4.53806C65.9114 4.53806 65.6726 4.70694 65.6726 5.0055C65.6726 5.99768 68.964 5.28596 69.0007 7.60506C69.0191 8.67263 68.0822 9.49592 66.5544 9.49592Z" fill="#404041"/>
<path d="M53.5018 3.31934H51.5698L53.3334 6.64871H55.2653L53.5018 3.31934Z" fill="#0056A7"/>
<path d="M53.2996 6.55816L53.3547 6.65165H55.2866L54.0191 4.31445L53.3026 6.55816H53.2996Z" fill="#2E3191"/>
<path d="M56.8301 0.514648L53.355 6.65166H55.2869L58.762 0.514648H56.8331H56.8301Z" fill="#0056A7"/>
<path d="M53.355 7.56836H55.2318V9.49541H53.355V7.56836Z" fill="#0056A7"/>
</svg>
