<svg width="57" height="57" viewBox="0 0 57 57" fill="none" xmlns="http://www.w3.org/2000/svg">
<path d="M0 28.5C0 12.7599 12.7599 0 28.5 0C44.2401 0 57 12.7599 57 28.5C57 44.2401 44.2401 57 28.5 57C12.7599 57 0 44.2401 0 28.5Z" fill="#1863DC"/>
<path d="M28.4998 6.05933C40.8933 6.05933 50.941 16.1062 50.9412 28.4998C50.9412 40.8934 40.8934 50.9412 28.4998 50.9412C16.1062 50.941 6.05933 40.8933 6.05933 28.4998C6.05948 16.1063 16.1063 6.05948 28.4998 6.05933Z" fill="#1863DC"/>
<path d="M28.4998 6.05933C40.8933 6.05933 50.941 16.1062 50.9412 28.4998C50.9412 40.8934 40.8934 50.9412 28.4998 50.9412C16.1062 50.941 6.05933 40.8933 6.05933 28.4998C6.05948 16.1063 16.1063 6.05948 28.4998 6.05933Z" stroke="white" stroke-width="2.375"/>
<path d="M28.0615 22.4482C30.2746 22.4482 32.0685 20.6406 32.0685 18.4113V18.2869C32.0685 16.0576 30.2746 14.25 28.0615 14.25C25.8484 14.25 24.0544 16.0576 24.0544 18.2869V18.4113C24.0544 20.6406 25.8484 22.4482 28.0615 22.4482Z" fill="white"/>
<path d="M23.2396 31.7854L16.4984 38.4054C15.8869 39.004 15.8735 39.9914 16.4695 40.6075L18.0847 42.279C18.6769 42.8913 19.6479 42.9049 20.2555 42.3082L27.1851 35.5016L23.2396 31.7834V31.7854Z" fill="white"/>
<path d="M39.6161 23.2492C40.2218 22.6505 40.2333 21.669 39.643 21.0548L38.0318 19.3775C37.4376 18.7594 36.4609 18.7477 35.8513 19.3502L27.6469 27.4707L23.0784 23.082C22.5516 22.5767 21.719 22.5961 21.2152 23.1267L19.3444 25.1034C18.8349 25.6398 18.8598 26.495 19.3982 27.0023L27.4681 34.6019C27.6469 34.769 27.9238 34.7651 28.0968 34.5921L31.2136 31.4765L28.4737 35.5465L35.686 42.3336C36.3051 42.9167 37.2742 42.8836 37.8549 42.2617L39.3777 40.6252C39.9603 39.9974 39.9295 39.01 39.3066 38.423L31.6174 31.1675L39.6142 23.2492H39.6161Z" fill="white"/>
</svg>
