<svg width="150" height="151" viewBox="0 0 150 151" fill="none" xmlns="http://www.w3.org/2000/svg">
<rect width="150" height="150" transform="translate(0 0.304199)" fill="white"/>
<path d="M136.891 23.8024H6.67822V138.597C6.67822 140.806 8.46908 142.597 10.6782 142.597H132.891C135.1 142.597 136.891 140.806 136.891 138.597V23.8024Z" fill="#222222"/>
<path d="M132.891 12.379H10.6782C8.46908 12.379 6.67822 14.1699 6.67822 16.379V23.8024H136.891V16.379C136.891 14.1699 135.1 12.379 132.891 12.379Z" fill="#222222"/>
<path d="M13.6447 19.8937C14.6405 19.8937 15.4478 19.0865 15.4478 18.0907C15.4478 17.0949 14.6405 16.2876 13.6447 16.2876C12.6489 16.2876 11.8416 17.0949 11.8416 18.0907C11.8416 19.0865 12.6489 19.8937 13.6447 19.8937Z" fill="#222222"/>
<path d="M19.1874 19.8937C20.1832 19.8937 20.9905 19.0865 20.9905 18.0907C20.9905 17.0949 20.1832 16.2876 19.1874 16.2876C18.1916 16.2876 17.3844 17.0949 17.3844 18.0907C17.3844 19.0865 18.1916 19.8937 19.1874 19.8937Z" fill="#222222"/>
<path d="M121.552 36.0917H64.161C63.0564 36.0917 62.161 36.9871 62.161 38.0917V74.5375C62.161 75.642 63.0564 76.5375 64.161 76.5375H121.552C122.656 76.5375 123.552 75.642 123.552 74.5375V38.0917C123.552 36.9871 122.656 36.0917 121.552 36.0917Z" fill="#222222"/>
<path d="M39.8549 83.6263H21.6598C20.5552 83.6263 19.6598 84.5217 19.6598 85.6263V103.821C19.6598 104.926 20.5552 105.821 21.6598 105.821H39.8549C40.9595 105.821 41.8549 104.926 41.8549 103.821V85.6263C41.8549 84.5217 40.9595 83.6263 39.8549 83.6263Z" fill="#222222"/>
<path d="M67.2447 83.6263H49.0495C47.945 83.6263 47.0495 84.5217 47.0495 85.6263V103.821C47.0495 104.926 47.945 105.821 49.0495 105.821H67.2447C68.3493 105.821 69.2447 104.926 69.2447 103.821V85.6263C69.2447 84.5217 68.3493 83.6263 67.2447 83.6263Z" fill="#222222"/>
<path d="M95.1067 83.6263H76.9116C75.807 83.6263 74.9116 84.5217 74.9116 85.6263V103.821C74.9116 104.926 75.807 105.821 76.9116 105.821H95.1067C96.2113 105.821 97.1067 104.926 97.1067 103.821V85.6263C97.1067 84.5217 96.2113 83.6263 95.1067 83.6263Z" fill="#222222"/>
<path d="M121.552 83.6263H103.829C102.724 83.6263 101.829 84.5217 101.829 85.6263V103.821C101.829 104.926 102.724 105.821 103.829 105.821H121.552C122.656 105.821 123.552 104.926 123.552 103.821V85.6263C123.552 84.5217 122.656 83.6263 121.552 83.6263Z" fill="#222222"/>
<path d="M55.4387 36.0917H21.1875C20.0829 36.0917 19.1875 36.9871 19.1875 38.0917V74.5375C19.1875 75.642 20.0829 76.5375 21.1875 76.5375H55.4387C56.5433 76.5375 57.4387 75.642 57.4387 74.5375V38.0917C57.4387 36.9871 56.5433 36.0917 55.4387 36.0917Z" fill="#222222"/>
<path d="M107.926 114.213H16.5908C15.4863 114.213 14.5908 115.109 14.5908 116.213V128.269C14.5908 129.374 15.4863 130.269 16.5908 130.269H107.926V114.213Z" fill="#222222"/>
<path d="M121.552 114.213H104.662V130.269H121.552C122.657 130.269 123.552 129.374 123.552 128.269V116.213C123.552 115.109 122.657 114.213 121.552 114.213Z" fill="#222222"/>
<path d="M14.3936 133.413V21.1184H139.606V133.413C139.606 134.242 138.935 134.913 138.106 134.913H15.8936C15.0651 134.913 14.3936 134.242 14.3936 133.413Z" fill="white" stroke="#2D87F1" stroke-width="5"/>
<path d="M138.106 7.19507H15.8936C13.6844 7.19507 11.8936 8.98593 11.8936 11.1951V18.6185H142.106V11.1951C142.106 8.98593 140.316 7.19507 138.106 7.19507Z" fill="#2D87F1"/>
<path d="M18.86 14.7098C19.8559 14.7098 20.6631 13.9025 20.6631 12.9067C20.6631 11.9109 19.8559 11.1036 18.86 11.1036C17.8642 11.1036 17.057 11.9109 17.057 12.9067C17.057 13.9025 17.8642 14.7098 18.86 14.7098Z" fill="white"/>
<path d="M24.4028 14.7098C25.3986 14.7098 26.2058 13.9025 26.2058 12.9067C26.2058 11.9109 25.3986 11.1036 24.4028 11.1036C23.4069 11.1036 22.5997 11.9109 22.5997 12.9067C22.5997 13.9025 23.4069 14.7098 24.4028 14.7098Z" fill="white"/>
<path opacity="0.2" d="M129.275 28.0476H23.5997C22.4951 28.0476 21.5997 28.943 21.5997 30.0476V76.4934C21.5997 77.5979 22.4951 78.4934 23.5997 78.4934H129.275C130.379 78.4934 131.275 77.5979 131.275 76.4934V30.0476C131.275 28.943 130.379 28.0476 129.275 28.0476Z" fill="#2D87F1"/>
<path d="M69.6702 63.2754L58.1841 78.4934H130.217L112.972 56.3949C107.975 49.9906 98.3222 49.8893 93.1912 56.1871L86.7989 64.0332C84.5424 66.8029 80.2424 66.5724 78.2949 63.5774C76.3025 60.5133 71.872 60.3582 69.6702 63.2754Z" fill="white" fill-opacity="0.5"/>
<path opacity="0.2" d="M66.6474 93.0305H34.9275C34.2052 93.0305 33.6196 93.6161 33.6196 94.3384C33.6196 95.0607 34.2052 95.6462 34.9275 95.6462H66.6474C67.3697 95.6462 67.9553 95.0607 67.9553 94.3384C67.9553 93.6161 67.3697 93.0305 66.6474 93.0305Z" fill="#2D87F1"/>
<path opacity="0.2" d="M68.0521 88.4148H33.5228C32.8005 88.4148 32.2149 89.0003 32.2149 89.7227C32.2149 90.445 32.8005 91.0305 33.5228 91.0305H68.0521C68.7744 91.0305 69.36 90.445 69.36 89.7227C69.36 89.0003 68.7744 88.4148 68.0521 88.4148Z" fill="#2D87F1"/>
<path opacity="0.2" d="M70.4768 97.6462H31.0981C30.3757 97.6462 29.7902 98.2318 29.7902 98.9541C29.7902 99.6764 30.3757 100.262 31.0981 100.262H70.4768C71.1991 100.262 71.7847 99.6764 71.7847 98.9541C71.7847 98.2318 71.1991 97.6462 70.4768 97.6462Z" fill="#2D87F1"/>
<path opacity="0.2" d="M62.1099 102.262H39.465C38.7427 102.262 38.1571 102.848 38.1571 103.57C38.1571 104.292 38.7427 104.878 39.465 104.878H62.1099C62.8322 104.878 63.4177 104.292 63.4177 103.57C63.4177 102.848 62.8322 102.262 62.1099 102.262Z" fill="#2D87F1"/>
<path opacity="0.2" d="M53.6754 106.878H47.8994C47.1771 106.878 46.5916 107.463 46.5916 108.186C46.5916 108.908 47.1771 109.493 47.8994 109.493H53.6754C54.3978 109.493 54.9833 108.908 54.9833 108.186C54.9833 107.463 54.3978 106.878 53.6754 106.878Z" fill="#2D87F1"/>
<path opacity="0.2" d="M117.88 93.0305H86.1604C85.4381 93.0305 84.8526 93.6161 84.8526 94.3384C84.8526 95.0607 85.4381 95.6462 86.1604 95.6462H117.88C118.603 95.6462 119.188 95.0607 119.188 94.3384C119.188 93.6161 118.603 93.0305 117.88 93.0305Z" fill="#2D87F1"/>
<path opacity="0.2" d="M119.285 88.4148H84.7557C84.0334 88.4148 83.4479 89.0003 83.4479 89.7227C83.4479 90.445 84.0334 91.0305 84.7557 91.0305H119.285C120.007 91.0305 120.593 90.445 120.593 89.7227C120.593 89.0003 120.007 88.4148 119.285 88.4148Z" fill="#2D87F1"/>
<path opacity="0.2" d="M121.71 97.6462H82.331C81.6087 97.6462 81.0231 98.2318 81.0231 98.9541C81.0231 99.6764 81.6087 100.262 82.331 100.262H121.71C122.432 100.262 123.018 99.6764 123.018 98.9541C123.018 98.2318 122.432 97.6462 121.71 97.6462Z" fill="#2D87F1"/>
<path opacity="0.2" d="M113.343 102.262H90.6979C89.9756 102.262 89.3901 102.848 89.3901 103.57C89.3901 104.292 89.9756 104.878 90.6979 104.878H113.343C114.065 104.878 114.651 104.292 114.651 103.57C114.651 102.848 114.065 102.262 113.343 102.262Z" fill="#2D87F1"/>
<path opacity="0.2" d="M104.908 106.878H99.1324C98.4101 106.878 97.8245 107.463 97.8245 108.186C97.8245 108.908 98.4101 109.493 99.1324 109.493H104.908C105.631 109.493 106.216 108.908 106.216 108.186C106.216 107.463 105.631 106.878 104.908 106.878Z" fill="#2D87F1"/>
<rect x="37.4017" y="113.038" width="26.0211" height="6.45544" rx="1" fill="#46BF40"/>
<path opacity="0.2" d="M57.1252 115.443H43.6993C43.2451 115.443 42.8768 115.811 42.8768 116.266C42.8768 116.72 43.245 117.088 43.6993 117.088H57.1252C57.5794 117.088 57.9477 116.72 57.9477 116.266C57.9477 115.811 57.5794 115.443 57.1252 115.443Z" fill="white"/>
<path opacity="0.2" d="M66.2565 47.5032H31.0981C30.3757 47.5032 29.7902 48.0887 29.7902 48.811C29.7902 49.5333 30.3757 50.1189 31.0981 50.1189H66.2565C66.9788 50.1189 67.5644 49.5333 67.5644 48.811C67.5644 48.0887 66.9788 47.5032 66.2565 47.5032Z" fill="#6CA3E2"/>
<path opacity="0.2" d="M74.6824 42.8875H31.0981C30.3757 42.8875 29.7902 43.473 29.7902 44.1953C29.7902 44.9176 30.3757 45.5032 31.0981 45.5032H74.6824C75.4047 45.5032 75.9902 44.9176 75.9902 44.1953C75.9902 43.473 75.4047 42.8875 74.6824 42.8875Z" fill="#6CA3E2"/>
<path opacity="0.2" d="M59.9858 52.1189H31.0981C30.3757 52.1189 29.7902 52.7044 29.7902 53.4268C29.7902 54.1491 30.3757 54.7346 31.0981 54.7346H59.9858C60.7081 54.7346 61.2937 54.1491 61.2937 53.4268C61.2937 52.7044 60.7081 52.1189 59.9858 52.1189Z" fill="#6CA3E2"/>
<rect x="29.7902" y="58.8634" width="26.0211" height="6.45544" rx="1" fill="#46BF40"/>
<path opacity="0.2" d="M49.5137 61.2687H36.0878C35.6336 61.2687 35.2653 61.6369 35.2653 62.0912C35.2653 62.5454 35.6336 62.9137 36.0878 62.9137H49.5137C49.968 62.9137 50.3362 62.5454 50.3362 62.0912C50.3362 61.6369 49.968 61.2687 49.5137 61.2687Z" fill="white"/>
<rect x="88.6346" y="113.038" width="26.0211" height="6.45544" rx="1" fill="#46BF40"/>
<path opacity="0.2" d="M108.358 115.443H94.9323C94.478 115.443 94.1098 115.811 94.1098 116.266C94.1098 116.72 94.478 117.088 94.9323 117.088H108.358C108.812 117.088 109.181 116.72 109.181 116.266C109.181 115.811 108.812 115.443 108.358 115.443Z" fill="white"/>
<circle cx="114.072" cy="41.1734" r="6.52069" fill="white" fill-opacity="0.5"/>
<g style="mix-blend-mode:multiply">
<path d="M68.5009 64.3641C70.3069 63.6952 73.6209 61.7323 72.9165 59.4278C72.312 57.4464 69.3617 55.6409 67.8881 55.3565C65.6151 54.9163 63.6748 57.45 61.3879 58.827C60.0049 59.6601 57.8498 60.5541 56.4927 60.2557C55.4396 60.0255 54.4062 59.3395 53.5151 58.5411C52.5871 57.7108 51.9213 56.5255 50.9768 56.1891C49.8872 55.7995 48.3138 57.0031 47.2641 58.3291C45.6328 60.3932 45.1291 63.7596 43.8583 65.1751C42.5861 66.5891 42.4438 68.1931 43.8978 69.6851C46.1306 71.9762 47.6974 70.5074 48.5665 70.0062C49.4356 69.502 51.0514 69.3664 52.5987 68.8297C54.2763 68.2496 55.9392 66.9956 57.3301 67.1487C57.932 67.2149 58.6123 67.8462 59.3673 68.0667C61.0564 68.5606 62.5801 66.8416 63.7688 65.963C65.1347 64.9528 66.7271 65.0224 68.5009 64.3641Z" fill="#68B7A2"/>
<path d="M72.3487 59.3462C71.6853 57.3653 68.1319 55.5127 66.5544 55.8297C64.9629 56.1498 63.6406 57.614 62.1604 58.8638C60.6161 60.1667 58.3261 61.2008 56.6622 60.8459C55.774 60.6572 54.6738 59.8881 53.7259 59.1737C51.9686 57.8524 50.8097 56.3672 49.1624 57.1727C48.4464 57.5234 47.7006 58.2905 47.2315 59.0483C45.9944 61.0555 45.4642 64.1362 44.9964 64.7417C43.9249 66.1264 44.6521 68.0131 45.4868 68.7883C46.3229 69.5651 47.4381 69.5369 48.2693 69.0374C49.0991 68.5364 50.7166 68.8902 52.2722 68.4927C54.0942 68.0288 55.8856 66.2626 57.647 66.3838C58.6761 66.4559 59.7799 67.3158 60.736 66.9561C61.6796 66.6008 62.4209 65.51 63.2353 65.1615C64.4218 64.6552 65.9132 64.598 67.1624 64.3301C68.908 63.9591 73.2564 62.0566 72.3487 59.3462Z" fill="#65B05A"/>
<path d="M45.9308 65.5773C44.7417 67.0039 47.2407 68.6336 47.8286 68.2589C48.76 67.6649 50.5569 68.4233 52.2277 68.028C53.0393 67.8363 53.9091 67.4171 54.6929 66.9531C55.5018 66.4743 56.2775 65.7525 57.1535 65.5398C58.066 65.3211 59.223 65.8641 60.1158 65.6484C60.8433 65.472 61.7016 64.7247 62.4987 64.4892C64.9629 63.7587 68.0894 64.5841 70.5919 62.4042C71.0796 61.9789 71.6201 61.3349 71.7941 60.8721C72.7607 58.3321 68.1322 55.826 66.2349 56.3402C64.1666 56.8995 62.7487 59.5452 60.7591 60.6929C59.6734 61.3173 57.8669 61.7795 56.7483 61.4385C55.7537 61.1347 54.716 60.2934 53.6878 59.5546C51.4545 57.948 49.6249 56.2388 47.6403 59.1302C46.1325 61.3267 47.1199 64.1508 45.9308 65.5773Z" fill="#77BB2F"/>
<path d="M70.4344 58.4693C71.6006 59.5441 71.6036 60.9054 70.1851 62.1518C68.2359 63.8663 65.5205 63.7326 63.4224 63.5096C62.6448 63.4256 61.8327 63.2656 61.1891 63.3975C60.8288 63.4718 60.3542 63.8032 59.8159 63.9154C58.962 64.0897 58.2142 63.7461 57.667 63.9711C56.6832 64.3721 55.9216 65.4044 54.9691 66.148C53.0682 67.6278 51.2091 67.5688 49.2621 67.5821C48.4249 67.5879 47.097 67.6996 46.633 66.91C46.0933 65.9877 47.119 64.5125 47.3341 63.9234C48.3722 61.0795 46.7078 60.0623 49.5903 58.5421C50.7785 57.9156 52.571 59.2528 53.694 60.0627C55.0674 61.0541 56.6042 62.541 57.7771 62.8275C58.26 62.9458 58.7883 62.803 59.3165 62.6484C59.8615 62.4879 60.4209 62.3771 60.813 62.0887C61.8733 61.3077 62.6013 59.8433 63.4991 58.8115C65.7104 56.2716 67.9247 56.1583 70.4344 58.4693Z" fill="#C5D83B"/>
<path d="M69.7436 58.501C70.7614 59.3307 71.0691 60.3894 70.3395 61.3761C69.2339 62.8709 67.788 62.9834 66.543 63.0931C65.4019 63.1961 63.5275 63.3072 62.7625 62.3161C61.6561 60.8819 64.9277 57.4279 66.5271 57.2117C67.5275 57.0774 68.7682 57.7063 69.7436 58.501Z" fill="#F5E440"/>
<path d="M69.219 58.7171C70.4223 59.7022 70.5486 60.8881 69.0877 61.934C67.7858 62.8645 64.4535 63.2815 63.5687 61.802C62.8066 60.5237 64.7532 58.0928 66.2893 57.7219C67.1078 57.5228 68.2706 57.9412 69.219 58.7171Z" fill="#E9BD39"/>
<path d="M68.8986 59.1426C69.6782 59.8903 69.7562 60.8699 68.598 61.6837C67.5625 62.4116 65.0075 62.7207 64.255 61.4146C63.6181 60.3114 65.0442 58.5537 66.2942 58.2287C66.9836 58.0481 67.9829 58.261 68.8986 59.1426Z" fill="#D9792E"/>
<path d="M67.8859 59.2755C70.0852 60.8706 66.2866 62.4775 65.2263 61.1545C64.4417 60.1753 65.9453 58.8947 66.7457 58.8599C67.2076 58.8406 67.5451 59.0273 67.8859 59.2755Z" fill="#C81621"/>
<path d="M67.5412 59.9662C67.7099 60.7253 67.1631 60.6807 66.9184 60.7922C66.51 60.9796 66.1015 60.9956 66.0093 60.6051C65.9156 60.1897 66.1731 59.6416 66.5128 59.4796C66.9225 59.2848 67.4503 59.5508 67.5412 59.9662Z" fill="#A0151C"/>
<path d="M54.977 61.6481C55.4969 62.1089 56.141 62.648 56.199 63.2908C56.2725 64.0887 55.299 65.1238 54.4512 65.7801C52.7904 67.0646 51.7916 67.0524 50.1018 66.897C49.3314 66.8261 48.0659 66.6737 47.5172 65.983C47.0155 65.355 47.9903 64.6085 48.2922 63.2498C48.5267 62.2022 48.0589 61.1389 48.4069 60.5124C49.4718 58.5903 50.7679 58.6957 52.3954 59.6983C53.2925 60.2532 54.1796 60.943 54.977 61.6481Z" fill="#E9BD39"/>
<path d="M54.4372 61.5926C54.9474 62.0842 55.4245 62.6289 55.507 63.1923C55.7714 65.0276 53.2825 66.0746 52.0471 66.2867C50.9253 66.479 48.927 66.0737 48.4928 65.6108C47.6984 64.7695 48.7679 64.0941 49.1186 62.9974C49.427 62.0313 48.655 60.595 49.8199 60.0523C51.1764 59.4218 52.8893 60.0972 54.4372 61.5926Z" fill="#D9792E"/>
<path d="M53.8913 61.8009C55.2894 63.0614 55.1862 64.7834 53.32 65.5697C52.1211 66.0745 49.8435 65.8265 49.0924 64.667C48.8629 64.3126 49.4135 63.7141 49.5337 63.0541C49.7074 62.1065 49.6301 61.0494 50.4334 60.5971C51.3387 60.084 52.7553 60.7745 53.8913 61.8009Z" fill="#C81621"/>
<path d="M53.1629 62.2306C55.0867 63.9811 51.7619 65.2872 50.6232 63.9825C50.1149 63.4 50.105 62.3453 51.1288 61.7362C51.7168 61.3879 52.4107 61.5487 53.1629 62.2306Z" fill="#A0151C"/>
<path d="M52.6971 62.5822C52.2339 62.1591 51.8019 62.061 51.4388 62.2774C50.8049 62.6538 50.811 63.3069 51.1261 63.668C51.8316 64.476 53.891 63.6651 52.6971 62.5822Z" fill="#7A1316"/>
</g>
<g style="mix-blend-mode:multiply">
<path d="M120.75 114.187C122.296 113.615 125.132 111.935 124.53 109.962C124.012 108.267 121.487 106.721 120.226 106.478C118.28 106.101 116.62 108.27 114.662 109.448C113.479 110.161 111.634 110.926 110.472 110.671C109.571 110.474 108.687 109.887 107.924 109.204C107.13 108.493 106.56 107.478 105.752 107.19C104.819 106.857 103.472 107.887 102.574 109.022C101.178 110.789 100.746 113.67 99.6588 114.881C98.5699 116.092 98.4482 117.465 99.6927 118.742C101.604 120.703 102.945 119.445 103.689 119.016C104.432 118.585 105.815 118.469 107.14 118.009C108.576 117.513 109.999 116.44 111.189 116.571C111.704 116.627 112.287 117.168 112.933 117.356C114.379 117.779 115.683 116.308 116.7 115.556C117.869 114.691 119.232 114.751 120.75 114.187Z" fill="#68B7A2"/>
<path d="M124.044 109.893C123.476 108.197 120.434 106.612 119.084 106.883C117.722 107.157 116.59 108.41 115.323 109.48C114.002 110.595 112.042 111.48 110.618 111.176C109.857 111.015 108.916 110.357 108.104 109.745C106.6 108.614 105.608 107.343 104.199 108.032C103.586 108.333 102.947 108.989 102.546 109.638C101.487 111.356 101.033 113.992 100.633 114.511C99.7158 115.696 100.338 117.311 101.053 117.974C101.768 118.639 102.723 118.615 103.434 118.187C104.144 117.759 105.529 118.061 106.86 117.721C108.42 117.324 109.953 115.812 111.46 115.916C112.341 115.978 113.286 116.714 114.104 116.406C114.912 116.102 115.546 115.168 116.243 114.87C117.259 114.437 118.535 114.388 119.605 114.158C121.099 113.841 124.82 112.213 124.044 109.893Z" fill="#65B05A"/>
<path d="M101.433 115.226C100.415 116.447 102.554 117.842 103.057 117.521C103.854 117.013 105.392 117.662 106.822 117.323C107.517 117.159 108.261 116.8 108.932 116.403C109.624 115.993 110.288 115.376 111.038 115.194C111.819 115.006 112.809 115.471 113.574 115.287C114.196 115.136 114.931 114.496 115.613 114.294C117.722 113.669 120.398 114.376 122.54 112.51C122.957 112.146 123.42 111.595 123.569 111.199C124.396 109.025 120.435 106.88 118.811 107.32C117.041 107.798 115.827 110.063 114.124 111.045C113.195 111.58 111.649 111.975 110.691 111.683C109.84 111.423 108.952 110.703 108.072 110.071C106.16 108.696 104.594 107.233 102.896 109.708C101.605 111.588 102.45 114.005 101.433 115.226Z" fill="#77BB2F"/>
<path d="M122.405 109.142C123.403 110.062 123.406 111.227 122.192 112.294C120.523 113.761 118.199 113.647 116.404 113.456C115.738 113.384 115.043 113.247 114.492 113.36C114.184 113.424 113.778 113.707 113.317 113.803C112.586 113.953 111.946 113.658 111.478 113.851C110.636 114.194 109.984 115.078 109.168 115.714C107.542 116.981 105.95 116.93 104.284 116.942C103.567 116.947 102.431 117.042 102.034 116.366C101.572 115.577 102.45 114.314 102.634 113.81C103.522 111.376 102.098 110.506 104.565 109.204C105.582 108.668 107.116 109.813 108.077 110.506C109.253 111.354 110.568 112.627 111.572 112.872C111.985 112.973 112.437 112.851 112.889 112.719C113.356 112.582 113.835 112.487 114.17 112.24C115.078 111.571 115.701 110.318 116.469 109.435C118.362 107.261 120.257 107.164 122.405 109.142Z" fill="#C5D83B"/>
<path d="M121.814 109.169C122.685 109.879 122.948 110.785 122.324 111.63C121.378 112.909 120.14 113.006 119.075 113.099C118.098 113.188 116.494 113.283 115.839 112.434C114.892 111.207 117.692 108.251 119.061 108.066C119.917 107.951 120.979 108.489 121.814 109.169Z" fill="#F5E440"/>
<path d="M121.365 109.354C122.395 110.197 122.503 111.212 121.252 112.108C120.138 112.904 117.286 113.261 116.529 111.995C115.877 110.901 117.543 108.82 118.857 108.502C119.558 108.332 120.553 108.69 121.365 109.354Z" fill="#E9BD39"/>
<path d="M121.091 109.718C121.758 110.358 121.825 111.197 120.833 111.893C119.947 112.516 117.76 112.781 117.116 111.663C116.571 110.719 117.792 109.214 118.862 108.936C119.452 108.782 120.307 108.964 121.091 109.718Z" fill="#D9792E"/>
<path d="M120.224 109.832C122.106 111.197 118.855 112.573 117.948 111.44C117.276 110.602 118.563 109.506 119.248 109.476C119.643 109.46 119.932 109.62 120.224 109.832Z" fill="#C81621"/>
<path d="M119.929 110.423C120.073 111.073 119.605 111.035 119.396 111.13C119.046 111.291 118.697 111.304 118.618 110.97C118.537 110.615 118.758 110.145 119.049 110.007C119.399 109.84 119.851 110.068 119.929 110.423Z" fill="#A0151C"/>
<path d="M109.175 111.863C109.62 112.257 110.171 112.719 110.221 113.269C110.284 113.952 109.451 114.838 108.725 115.399C107.304 116.499 106.449 116.488 105.003 116.355C104.343 116.295 103.26 116.164 102.79 115.573C102.361 115.036 103.195 114.397 103.454 113.234C103.654 112.337 103.254 111.427 103.552 110.891C104.463 109.246 105.573 109.336 106.966 110.194C107.733 110.669 108.493 111.259 109.175 111.863Z" fill="#E9BD39"/>
<path d="M108.713 111.815C109.15 112.236 109.558 112.702 109.629 113.185C109.855 114.755 107.725 115.651 106.668 115.833C105.707 115.998 103.997 115.651 103.625 115.255C102.945 114.535 103.861 113.956 104.161 113.018C104.425 112.191 103.764 110.962 104.761 110.497C105.922 109.957 107.388 110.535 108.713 111.815Z" fill="#D9792E"/>
<path d="M108.246 111.994C109.443 113.072 109.354 114.546 107.757 115.219C106.731 115.651 104.781 115.439 104.139 114.447C103.942 114.143 104.413 113.631 104.516 113.066C104.665 112.255 104.599 111.35 105.286 110.963C106.061 110.524 107.274 111.115 108.246 111.994Z" fill="#C81621"/>
<path d="M107.623 112.361C109.269 113.86 106.423 114.978 105.449 113.861C105.014 113.362 105.005 112.46 105.882 111.938C106.385 111.64 106.979 111.778 107.623 112.361Z" fill="#A0151C"/>
<path d="M107.224 112.662C106.827 112.3 106.458 112.216 106.147 112.401C105.604 112.724 105.61 113.283 105.879 113.592C106.483 114.283 108.246 113.589 107.224 112.662Z" fill="#7A1316"/>
</g>
<g style="mix-blend-mode:multiply">
<path d="M67.7508 112.524C69.2966 111.952 72.133 110.272 71.5301 108.3C71.0127 106.604 68.4875 105.058 67.2263 104.815C65.2808 104.438 63.6202 106.607 61.6629 107.785C60.4791 108.498 58.6346 109.264 57.473 109.008C56.5718 108.811 55.6873 108.224 54.9245 107.541C54.1302 106.83 53.5604 105.816 52.7521 105.528C51.8194 105.194 50.4728 106.224 49.5744 107.359C48.1781 109.126 47.747 112.007 46.6594 113.219C45.5705 114.429 45.4487 115.802 46.6932 117.079C48.6042 119.04 49.9452 117.783 50.6891 117.354C51.4329 116.922 52.8158 116.806 54.1402 116.347C55.5761 115.85 56.9993 114.777 58.1898 114.908C58.7049 114.965 59.2872 115.505 59.9334 115.694C61.3791 116.116 62.6832 114.645 63.7006 113.893C64.8697 113.028 66.2326 113.088 67.7508 112.524Z" fill="#68B7A2"/>
<path d="M71.0441 108.23C70.4763 106.534 67.4349 104.949 66.0848 105.22C64.7226 105.494 63.5909 106.747 62.324 107.817C61.0022 108.932 59.0422 109.817 57.6181 109.513C56.8579 109.352 55.9163 108.694 55.1049 108.082C53.6009 106.951 52.609 105.68 51.1991 106.37C50.5863 106.67 49.948 107.326 49.5464 107.975C48.4876 109.693 48.0338 112.33 47.6335 112.848C46.7163 114.033 47.3387 115.648 48.0532 116.311C48.7688 116.976 49.7233 116.952 50.4347 116.524C51.1449 116.096 52.5293 116.398 53.8608 116.058C55.4202 115.661 56.9534 114.15 58.461 114.253C59.3418 114.315 60.2865 115.051 61.1049 114.743C61.9124 114.439 62.547 113.505 63.244 113.207C64.2595 112.774 65.536 112.725 66.6052 112.496C68.0992 112.178 71.821 110.55 71.0441 108.23Z" fill="#65B05A"/>
<path d="M48.4332 113.563C47.4154 114.784 49.5543 116.179 50.0575 115.858C50.8547 115.35 52.3926 115.999 53.8227 115.66C54.5173 115.496 55.2618 115.138 55.9326 114.74C56.6249 114.331 57.2888 113.713 58.0386 113.531C58.8196 113.344 59.8099 113.808 60.5741 113.624C61.1967 113.473 61.9313 112.833 62.6136 112.632C64.7227 112.006 67.3986 112.713 69.5405 110.847C69.9579 110.483 70.4205 109.932 70.5694 109.536C71.3967 107.362 67.4352 105.217 65.8113 105.657C64.0411 106.136 62.8276 108.4 61.1246 109.382C60.1954 109.917 58.6493 110.312 57.6918 110.02C56.8405 109.76 55.9524 109.04 55.0724 108.408C53.1609 107.033 51.5949 105.57 49.8964 108.045C48.6059 109.925 49.451 112.342 48.4332 113.563Z" fill="#77BB2F"/>
<path d="M69.4056 107.479C70.4038 108.399 70.4063 109.564 69.1923 110.631C67.524 112.098 65.1999 111.984 63.4042 111.793C62.7386 111.721 62.0435 111.584 61.4927 111.697C61.1843 111.761 60.7781 112.044 60.3173 112.14C59.5865 112.29 58.9465 111.996 58.4781 112.188C57.6361 112.531 56.9843 113.415 56.169 114.051C54.5421 115.318 52.9509 115.267 51.2845 115.279C50.5679 115.284 49.4313 115.379 49.0342 114.704C48.5723 113.914 49.4502 112.652 49.6343 112.147C50.5228 109.713 49.0982 108.843 51.5653 107.542C52.5823 107.005 54.1165 108.15 55.0777 108.843C56.2531 109.691 57.5685 110.964 58.5724 111.209C58.9857 111.311 59.4379 111.188 59.8899 111.056C60.3564 110.919 60.8352 110.824 61.1708 110.577C62.0783 109.909 62.7014 108.655 63.4698 107.772C65.3624 105.598 67.2577 105.501 69.4056 107.479Z" fill="#C5D83B"/>
<path d="M68.8144 107.506C69.6855 108.216 69.9489 109.123 69.3244 109.967C68.3782 111.247 67.1407 111.343 66.0751 111.437C65.0984 111.525 63.4941 111.62 62.8393 110.772C61.8924 109.544 64.6925 106.588 66.0615 106.403C66.9177 106.288 67.9796 106.826 68.8144 107.506Z" fill="#F5E440"/>
<path d="M68.3654 107.691C69.3953 108.535 69.5034 109.55 68.253 110.445C67.1387 111.241 64.2867 111.598 63.5293 110.332C62.8771 109.238 64.5431 107.157 65.8579 106.84C66.5584 106.669 67.5536 107.027 68.3654 107.691Z" fill="#E9BD39"/>
<path d="M68.0912 108.055C68.7584 108.695 68.8252 109.534 67.8339 110.23C66.9476 110.853 64.7608 111.118 64.1167 110C63.5717 109.056 64.7923 107.551 65.8621 107.273C66.4521 107.119 67.3074 107.301 68.0912 108.055Z" fill="#D9792E"/>
<path d="M67.2244 108.169C69.1068 109.534 65.8556 110.91 64.9481 109.777C64.2765 108.939 65.5635 107.843 66.2485 107.814C66.6439 107.797 66.9327 107.957 67.2244 108.169Z" fill="#C81621"/>
<path d="M66.9294 108.76C67.0738 109.41 66.6058 109.372 66.3963 109.467C66.0468 109.628 65.6972 109.642 65.6183 109.307C65.538 108.952 65.7584 108.483 66.0492 108.344C66.3999 108.177 66.8516 108.405 66.9294 108.76Z" fill="#A0151C"/>
<path d="M56.1758 110.2C56.6207 110.594 57.172 111.056 57.2217 111.606C57.2846 112.289 56.4514 113.175 55.7257 113.737C54.3042 114.836 53.4494 114.825 52.0031 114.692C51.3438 114.632 50.2606 114.501 49.791 113.91C49.3616 113.373 50.1959 112.734 50.4543 111.571C50.655 110.674 50.2546 109.764 50.5525 109.228C51.4639 107.583 52.5732 107.673 53.9662 108.531C54.734 109.006 55.4933 109.596 56.1758 110.2Z" fill="#E9BD39"/>
<path d="M55.7137 110.153C56.1505 110.573 56.5588 111.039 56.6294 111.522C56.8557 113.093 54.7255 113.989 53.6681 114.17C52.7079 114.335 50.9976 113.988 50.626 113.592C49.946 112.872 50.8615 112.294 51.1616 111.355C51.4255 110.528 50.7648 109.299 51.7619 108.834C52.9229 108.295 54.389 108.873 55.7137 110.153Z" fill="#D9792E"/>
<path d="M55.2466 110.331C56.4432 111.41 56.3548 112.883 54.7576 113.556C53.7314 113.989 51.782 113.776 51.1392 112.784C50.9428 112.481 51.414 111.968 51.5169 111.403C51.6656 110.592 51.5994 109.688 52.287 109.3C53.0618 108.861 54.2742 109.452 55.2466 110.331Z" fill="#C81621"/>
<path d="M54.6231 110.699C56.2696 112.197 53.424 113.315 52.4494 112.198C52.0144 111.699 52.0059 110.797 52.8821 110.275C53.3854 109.977 53.9793 110.115 54.6231 110.699Z" fill="#A0151C"/>
<path d="M54.2244 110.999C53.828 110.637 53.4582 110.553 53.1475 110.739C52.6049 111.061 52.6101 111.62 52.8798 111.929C53.4836 112.62 55.2462 111.926 54.2244 110.999Z" fill="#7A1316"/>
</g>
<mask id="mask0_201_79" style="mask-type:alpha" maskUnits="userSpaceOnUse" x="104" y="62" width="11" height="9">
<path d="M105.067 68.4947L105.042 68.4388C104.418 67.087 104.809 65.4836 105.986 64.5717L106.355 64.2861L108.155 63.241C108.823 62.8537 109.606 62.7175 110.365 62.857C110.982 62.9703 111.552 63.2604 112.008 63.692L113.48 65.0885C113.818 65.4089 114.019 65.8474 114.041 66.3125C114.061 66.7284 113.937 67.1385 113.69 67.4734L113.372 67.9036C112.988 68.4231 112.461 68.819 111.855 69.0423L108.963 70.1081C108.679 70.2128 108.382 70.2754 108.08 70.294C106.801 70.3726 105.604 69.6581 105.067 68.4947Z" fill="#D9D9D9"/>
</mask>
<g mask="url(#mask0_201_79)">
<g style="mix-blend-mode:multiply">
<path d="M110.629 69.9467C112.156 69.3913 114.955 67.7496 114.351 65.7949C113.833 64.1142 111.329 62.5685 110.081 62.319C108.155 61.9329 106.521 64.0659 104.59 65.2178C103.422 65.9147 101.6 66.6586 100.451 66.3979C99.5584 66.1969 98.6813 65.6101 97.9243 64.929C97.136 64.2207 96.5684 63.2136 95.7678 62.9232C94.8442 62.5869 93.5162 63.5963 92.6321 64.7124C91.2579 66.4498 90.8428 69.2961 89.7717 70.4866C88.6995 71.6759 88.5843 73.0327 89.8201 74.3042C91.7179 76.2566 93.0392 75.0228 93.7733 74.6037C94.5073 74.1821 95.8747 74.0769 97.1827 73.6318C98.6009 73.1509 100.004 72.0993 101.182 72.2372C101.692 72.2968 102.27 72.8352 102.91 73.0263C104.341 73.4544 105.626 72.0084 106.629 71.2719C107.782 70.425 109.13 70.4934 110.629 69.9467Z" fill="#68B7A2"/>
<path d="M113.87 65.7224C113.302 64.0419 110.288 62.4527 108.954 62.7117C107.607 62.9732 106.493 64.2045 105.244 65.2535C103.941 66.3472 102.006 67.2088 100.597 66.8985C99.844 66.7335 98.9102 66.076 98.1053 65.4657C96.6135 64.3369 95.6276 63.073 94.2358 63.745C93.6308 64.0376 93.0021 64.6824 92.6075 65.321C91.5669 67.0125 91.1283 69.6168 90.7344 70.1265C89.8319 71.2921 90.4537 72.8933 91.1629 73.5544C91.8733 74.2168 92.8172 74.1996 93.5191 73.7817C94.2199 73.3627 95.5902 73.6717 96.9058 73.3445C98.4465 72.9628 99.9571 71.4785 101.449 71.5916C102.32 71.6587 103.257 72.393 104.065 72.0943C104.863 71.7992 105.487 70.8803 106.175 70.5902C107.178 70.1687 108.44 70.1292 109.496 69.9099C110.973 69.6063 114.647 68.0219 113.87 65.7224Z" fill="#65B05A"/>
<path d="M91.5283 70.8387C90.5264 72.039 92.6472 73.4332 93.1436 73.1196C93.9301 72.6224 95.4536 73.2749 96.8666 72.9502C97.553 72.7928 98.2879 72.4432 98.9498 72.0552C99.6329 71.6547 100.287 71.0484 101.028 70.8737C101.8 70.694 102.781 71.1604 103.536 70.9832C104.151 70.8382 104.875 70.2108 105.549 70.0162C107.633 69.4126 110.282 70.1298 112.393 68.2997C112.804 67.9426 113.26 67.4007 113.406 67.0101C114.215 64.866 110.289 62.7175 108.685 63.1413C106.936 63.6024 105.744 65.8332 104.064 66.7928C103.147 67.3148 101.619 67.6953 100.671 67.4C99.8285 67.1369 98.9473 66.4187 98.0745 65.7874C96.1787 64.4142 94.6243 62.9568 92.954 65.3922C91.6849 67.2423 92.5301 69.6384 91.5283 70.8387Z" fill="#77BB2F"/>
<path d="M112.247 64.9684C113.237 65.885 113.244 67.0371 112.048 68.0836C110.403 69.5232 108.105 69.3939 106.328 69.1927C105.669 69.1169 104.981 68.9767 104.437 69.0845C104.132 69.1452 103.732 69.4229 103.276 69.5146C102.554 69.6572 101.92 69.3619 101.457 69.5491C100.626 69.8826 99.9847 70.7518 99.1808 71.3755C97.5767 72.6166 96.0027 72.5556 94.3547 72.5554C93.646 72.5552 92.5223 72.6419 92.127 71.9709C91.6671 71.187 92.5304 69.9445 92.7105 69.4473C93.5798 67.0464 92.1675 66.1756 94.6025 64.9061C95.6062 64.3829 97.128 65.5253 98.0813 66.2175C99.2471 67.0647 100.553 68.3323 101.547 68.5818C101.956 68.6848 102.403 68.567 102.849 68.4394C103.31 68.3067 103.783 68.2163 104.114 67.9745C105.009 67.3198 105.621 66.0847 106.377 65.2167C108.24 63.0802 110.115 62.9974 112.247 64.9684Z" fill="#C5D83B"/>
<path d="M111.662 64.9827C112.526 65.6909 112.79 66.5887 112.176 67.4195C111.245 68.678 110.022 68.7646 108.968 68.85C108.003 68.9304 106.417 69.0133 105.766 68.1699C104.824 66.9496 107.582 64.0458 108.935 63.8724C109.782 63.7647 110.834 64.3042 111.662 64.9827Z" fill="#F5E440"/>
<path d="M111.219 65.1624C112.241 66.0033 112.351 67.0077 111.118 67.8841C110.02 68.6639 107.2 68.997 106.447 67.7395C105.797 66.6532 107.437 64.6076 108.736 64.3028C109.428 64.1392 110.414 64.5002 111.219 65.1624Z" fill="#E9BD39"/>
<path d="M110.949 65.5204C111.611 66.1579 111.681 66.9873 110.703 67.6691C109.829 68.279 107.667 68.5254 107.026 67.4156C106.484 66.4782 107.685 64.9992 108.742 64.7315C109.325 64.5828 110.171 64.769 110.949 65.5204Z" fill="#D9792E"/>
<path d="M110.093 65.6273C111.959 66.9903 108.749 68.3276 107.848 67.2016C107.18 66.3683 108.449 65.2936 109.126 65.2689C109.517 65.2553 109.803 65.4153 110.093 65.6273Z" fill="#C81621"/>
<path d="M109.803 66.2095C109.948 66.853 109.486 66.812 109.279 66.905C108.934 67.0611 108.588 67.0722 108.509 66.7412C108.428 66.3891 108.644 65.9267 108.931 65.7916C109.277 65.6293 109.725 65.8574 109.803 66.2095Z" fill="#A0151C"/>
</g>
</g>
<mask id="mask1_201_79" style="mask-type:alpha" maskUnits="userSpaceOnUse" x="56" y="84" width="10" height="9">
<path d="M56.6444 90.3768L56.6186 90.3208C55.9947 88.9691 56.3863 87.3657 57.563 86.4537L57.9315 86.1681L59.7322 85.1231C60.3995 84.7358 61.1832 84.5996 61.942 84.739C62.5588 84.8524 63.1294 85.1425 63.5845 85.5741L65.0567 86.9706C65.3945 87.291 65.5956 87.7295 65.6181 88.1946C65.6382 88.6105 65.514 89.0206 65.2667 89.3555L64.9489 89.7857C64.5652 90.3052 64.0378 90.701 63.4318 90.9244L60.5403 91.9902C60.2563 92.0948 59.9585 92.1575 59.6565 92.176C58.3775 92.2547 57.1814 91.5402 56.6444 90.3768Z" fill="#D9D9D9"/>
</mask>
<g mask="url(#mask1_201_79)">
<g style="mix-blend-mode:multiply">
<path d="M62.2063 91.8287C63.7329 91.2733 66.5318 89.6317 65.9278 87.6769C65.4096 85.9963 62.9061 84.4505 61.6577 84.201C59.7321 83.815 58.098 85.948 56.1667 87.0999C54.9987 87.7968 53.1773 88.5406 52.0275 88.28C51.1354 88.0789 50.2583 87.4922 49.5013 86.8111C48.7129 86.1028 48.1454 85.0956 47.3448 84.8053C46.4211 84.469 45.0932 85.4784 44.209 86.5945C42.8349 88.3319 42.4197 91.1782 41.3487 92.3687C40.2764 93.5579 40.1613 94.9148 41.3971 96.1862C43.2948 98.1387 44.6162 96.9049 45.3503 96.4858C46.0843 96.0642 47.4516 95.959 48.7597 95.5139C50.1779 95.0329 51.5814 93.9814 52.7593 94.1193C53.269 94.1789 53.847 94.7172 54.4869 94.9083C55.9184 95.3365 57.2025 93.8905 58.2058 93.154C59.3587 92.307 60.707 92.3755 62.2063 91.8287Z" fill="#68B7A2"/>
<path d="M65.4471 87.6045C64.8789 85.924 61.8648 84.3348 60.5306 84.5938C59.1844 84.8553 58.07 86.0866 56.8211 87.1356C55.5182 88.2293 53.5831 89.0909 52.1735 88.7806C51.421 88.6156 50.4871 87.9581 49.6823 87.3478C48.1904 86.219 47.2045 84.9551 45.8127 85.6271C45.2078 85.9197 44.579 86.5645 44.1844 87.2031C43.1439 88.8946 42.7053 91.4989 42.3113 92.0085C41.4089 93.1742 42.0307 94.7754 42.7398 95.4365C43.4502 96.0989 44.3941 96.0817 45.0961 95.6638C45.7968 95.2448 47.1672 95.5538 48.4827 95.2266C50.0235 94.8448 51.5341 93.3606 53.0255 93.4737C53.8968 93.5408 54.8341 94.2751 55.6422 93.9763C56.4397 93.6813 57.0637 92.7624 57.7519 92.4723C58.7546 92.0508 60.0169 92.0113 61.0734 91.792C62.5498 91.4884 66.2244 89.904 65.4471 87.6045Z" fill="#65B05A"/>
<path d="M43.1052 92.7208C42.1034 93.9211 44.2242 95.3153 44.7206 95.0016C45.5071 94.5045 47.0306 95.157 48.4436 94.8323C49.1299 94.6749 49.8649 94.3253 50.5268 93.9373C51.2099 93.5368 51.8641 92.9305 52.6049 92.7557C53.3766 92.576 54.3578 93.0425 55.1129 92.8653C55.7281 92.7203 56.4522 92.0929 57.1261 91.8983C59.2096 91.2946 61.8588 92.0119 63.97 90.1818C64.3814 89.8247 64.8367 89.2828 64.9825 88.8922C65.7923 86.7481 61.866 84.5996 60.2617 85.0234C58.5128 85.4845 57.3214 87.7153 55.6409 88.6749C54.724 89.1969 53.1964 89.5774 52.2484 89.282C51.4054 89.019 50.5243 88.3008 49.6514 87.6695C47.7557 86.2963 46.2012 84.8389 44.5309 87.2743C43.2619 89.1244 44.1071 91.5205 43.1052 92.7208Z" fill="#77BB2F"/>
<path d="M63.8235 86.8505C64.8143 87.7671 64.8213 88.9192 63.6248 89.9657C61.9804 91.4053 59.6815 91.276 57.9047 91.0748C57.2461 90.999 56.5582 90.8588 56.0139 90.9666C55.7091 91.0273 55.3085 91.305 54.8531 91.3967C54.1309 91.5392 53.4967 91.244 53.0343 91.4312C52.2028 91.7646 51.5616 92.6339 50.7578 93.2576C49.1536 94.4987 47.5797 94.4377 45.9317 94.4374C45.223 94.4373 44.0993 94.524 43.7039 93.853C43.244 93.0691 44.1074 91.8266 44.2874 91.3293C45.1568 88.9285 43.7445 88.0577 46.1794 86.7882C47.1832 86.265 48.7049 87.4074 49.6582 88.0996C50.8241 88.9468 52.1299 90.2144 53.1237 90.4639C53.5329 90.5669 53.9796 90.4491 54.4262 90.3214C54.887 90.1888 55.3602 90.0984 55.6911 89.8566C56.5861 89.2019 57.1975 87.9668 57.9541 87.0988C59.8174 84.9623 61.6915 84.8795 63.8235 86.8505Z" fill="#C5D83B"/>
<path d="M63.2391 86.8648C64.1033 87.573 64.3673 88.4708 63.753 89.3016C62.8222 90.5601 61.5987 90.6467 60.5452 90.7321C59.5797 90.8125 57.9935 90.8954 57.3426 90.052C56.4014 88.8317 59.1592 85.9279 60.5123 85.7545C61.3586 85.6467 62.4108 86.1863 63.2391 86.8648Z" fill="#F5E440"/>
<path d="M62.7958 87.0445C63.8175 87.8854 63.9284 88.8897 62.6953 89.7662C61.5965 90.5459 58.7774 90.879 58.0235 89.6216C57.3742 88.5353 59.0138 86.4897 60.3127 86.1848C61.0048 86.0213 61.9905 86.3822 62.7958 87.0445Z" fill="#E9BD39"/>
<path d="M62.526 87.4025C63.1883 88.0399 63.2576 88.8694 62.2799 89.5512C61.406 90.1611 59.2444 90.4075 58.6032 89.2977C58.0605 88.3603 59.2617 86.8813 60.3186 86.6136C60.9015 86.4649 61.748 86.651 62.526 87.4025Z" fill="#D9792E"/>
<path d="M61.6695 87.5094C63.5362 88.8723 60.3264 90.2097 59.4246 89.0837C58.7573 88.2504 60.0257 87.1756 60.703 87.1509C61.0939 87.1374 61.3802 87.2974 61.6695 87.5094Z" fill="#C81621"/>
<path d="M61.3802 88.0916C61.5254 88.7351 61.0625 88.6941 60.8557 88.787C60.5107 88.9432 60.1649 88.9543 60.0857 88.6233C60.0049 88.2712 60.221 87.8088 60.5081 87.6737C60.8542 87.5113 61.3018 87.7395 61.3802 88.0916Z" fill="#A0151C"/>
</g>
</g>
</svg>
