<?xml version="1.0" encoding="UTF-8" standalone="no"?>
<svg version="1.1" width="512" height="512.00006" xml:space="preserve" viewBox="0 0 512 512.00007" id="svg4409" xmlns="http://www.w3.org/2000/svg" xmlns:svg="http://www.w3.org/2000/svg"><defs id="defs349"/><path d="M 256.00001,256.00005 M 9.9975585e-6,256.00005 A 256.00001,255.92852 0 1 1 512.00001,256.00005 256.00001,255.92852 0 1 1 9.9975585e-6,256.00005" id="path335" style="fill:#f02f45;stroke-width:1"/><path d="M 190.97794,410.20617 C 184.86381,410.21424 178.99885,407.78334 174.68233,403.45203 L 109.49148,338.12357 C 64.449537,293.11717 64.430388,220.22365 109.44861,175.19357 154.46682,130.16348 227.46164,130.30255 272.45617,175.35637 L 337.64693,240.43616 C 346.64373,249.43888 346.64229,264.03181 337.64374,273.03276 328.64519,282.03373 314.0561,281.91565 305.05572,272.9165 L 239.86486,207.71678 C 212.86156,180.71667 169.09025,180.84044 142.09212,207.84571 115.094,234.85096 114.97001,278.75392 141.96301,305.76434 L 207.03355,370.9723 C 221.54996,385.49509 211.50904,410.20372 190.97794,410.20655 Z" id="path2250" style="fill:#fdfdfd;stroke-width:1"/><path d="M 321.35133,371.9574 C 290.78704,372.01002 261.46182,359.87733 239.86486,338.2441 L 174.68233,273.03606 C 165.70105,264.03066 165.70989,249.45039 174.70204,240.45588 183.69419,231.46137 198.03067,231.45252 207.0337,240.43616 L 272.21622,305.64419 C 299.22437,332.61839 343.2144,332.60264 370.20315,305.60908 397.19189,278.61548 397.21132,234.61437 370.24649,207.59685 L 305.05572,142.38883 C 296.06007,133.38592 296.06206,119.03341 305.06015,110.03294 314.05823,101.03248 328.64641,101.15007 337.64693,110.14808 L 402.83779,175.35604 C 435.80939,208.30956 445.67695,257.7713 427.83571,300.84283 409.99445,343.91433 367.9613,371.98581 321.35133,371.9574 Z" id="path2252" style="fill:#f4b0b0;stroke-width:1"/></svg>