<svg width="244" height="245" viewBox="0 0 244 245" fill="none" xmlns="http://www.w3.org/2000/svg">
<rect width="244" height="244" transform="translate(0 0.766846)" fill="#F1F9F8"/>
<g filter="url(#filter0_d_59970_109935)">
<rect width="180" height="180" transform="translate(32 32.7668)" fill="white"/>
<rect x="51.6758" y="96.7224" width="86.8939" height="55.8603" rx="0.698254" fill="#EDEFF6"/>
<rect x="51.5" y="72.6118" width="139.651" height="5.23691" rx="0.698254" fill="#AAB2CC"/>
<rect x="51.5" y="80.6418" width="73.12" height="5.23691" rx="0.698254" fill="#AAB2CC"/>
<rect x="142.334" y="96.7224" width="48.993" height="4.02587" rx="0.698254" fill="#D3D7E3"/>
<rect x="142.334" y="102.145" width="48.993" height="4.02587" rx="0.698254" fill="#D3D7E3"/>
<rect x="142.334" y="107.567" width="48.993" height="4.02587" rx="0.698254" fill="#D3D7E3"/>
<rect x="142.334" y="112.99" width="48.993" height="4.02587" rx="0.698254" fill="#D3D7E3"/>
<rect x="142.334" y="118.412" width="48.993" height="4.02587" rx="0.698254" fill="#D3D7E3"/>
<rect x="142.334" y="123.834" width="48.993" height="4.02587" rx="0.698254" fill="#D3D7E3"/>
<rect x="142.334" y="129.257" width="48.993" height="4.02587" rx="0.698254" fill="#D3D7E3"/>
<rect x="142.334" y="134.679" width="48.993" height="4.02587" rx="0.698254" fill="#D3D7E3"/>
<rect x="142.334" y="140.101" width="48.993" height="4.02587" rx="0.698254" fill="#D3D7E3"/>
<rect x="142.334" y="145.524" width="48.993" height="4.02587" rx="0.698254" fill="#D3D7E3"/>
<rect x="142.334" y="150.946" width="48.993" height="4.02587" rx="0.698254" fill="#D3D7E3"/>
<rect x="51.7305" y="156.369" width="139.596" height="4.02587" rx="0.698254" fill="#D3D7E3"/>
<rect x="51.7305" y="161.791" width="139.596" height="4.02587" rx="0.698254" fill="#D3D7E3"/>
<rect x="51.6758" y="168.574" width="54.3806" height="4.02587" rx="0.698254" fill="#EDEFF6"/>
</g>
<defs>
<filter id="filter0_d_59970_109935" x="28" y="30.7668" width="188" height="188" filterUnits="userSpaceOnUse" color-interpolation-filters="sRGB">
<feFlood flood-opacity="0" result="BackgroundImageFix"/>
<feColorMatrix in="SourceAlpha" type="matrix" values="0 0 0 0 0 0 0 0 0 0 0 0 0 0 0 0 0 0 127 0" result="hardAlpha"/>
<feOffset dy="2"/>
<feGaussianBlur stdDeviation="2"/>
<feColorMatrix type="matrix" values="0 0 0 0 0 0 0 0 0 0 0 0 0 0 0 0 0 0 0.1 0"/>
<feBlend mode="normal" in2="BackgroundImageFix" result="effect1_dropShadow_59970_109935"/>
<feBlend mode="normal" in="SourceGraphic" in2="effect1_dropShadow_59970_109935" result="shape"/>
</filter>
</defs>
</svg>
