<?xml version="1.0" encoding="utf-8"?>
<!-- Generator: Adobe Illustrator 27.0.0, SVG Export Plug-In . SVG Version: 6.00 Build 0)  -->
<svg version="1.1" xmlns="http://www.w3.org/2000/svg" xmlns:xlink="http://www.w3.org/1999/xlink" x="0px" y="0px"
	 viewBox="0 0 512 512" style="enable-background:new 0 0 512 512;" xml:space="preserve">
<style type="text/css">
	.st0{fill:#D14B4B;stroke:#000000;stroke-width:5;stroke-miterlimit:10;}
</style>
<g id="Layer_1">
	<path class="st0" d="M257.2,469.5L366,266.3c7-13.1,13.3-26.7,18.4-40.7c10.1-27.8,16.1-57.3,8.4-86.4c-5.9-29-21.9-54.1-43.8-72.8
		C292,17.5,205.8,22.1,154.2,76.8c-33.3,35.3-48.8,85.8-31.3,133.7c29,84.4,120.1,239.2,131.9,259
		C255.3,470.4,256.6,470.4,257.2,469.5z M257.7,256c-50.8,0.9-92.2-40.4-91.2-91.2c0.9-47.9,40-86.9,87.8-87.8
		c50.8-0.9,92.2,40.4,91.2,91.2C344.6,216,305.6,255.1,257.7,256z"/>
</g>
<g id="Layer_2">
</g>
</svg>
