<?xml version="1.0" encoding="utf-8"?>
<!-- Generator: Adobe Illustrator 27.0.0, SVG Export Plug-In . SVG Version: 6.00 Build 0)  -->
<svg version="1.1" xmlns="http://www.w3.org/2000/svg" xmlns:xlink="http://www.w3.org/1999/xlink" x="0px" y="0px"
	 viewBox="0 0 512 512" style="enable-background:new 0 0 512 512;" xml:space="preserve">
<style type="text/css">
	.st0{fill:#D14B4B;stroke:#000000;stroke-width:5;stroke-miterlimit:10;}
</style>
<g id="Layer_1">
	<path class="st0" d="M318.5,38.5c-64.5-34.7-151.1-6.8-186.9,56c-16.1,26.2-23,57.2-21.2,87.7c2.1,36.2,17.6,70.1,42,96.9
		c53.3,58.3,78.3,135.7,98,211.1c1.3,5.1,8.5,5.1,9.9,0.1c16.2-58.4,34.7-116.8,66.1-169.2c20.2-33.1,53.3-57.5,66.5-95
		C418.9,156.4,386.9,70.3,318.5,38.5z M256,283.6c-63,0-114.1-51.1-114.1-114.1c0-63,51.1-114.1,114.1-114.1s114.1,51.1,114.1,114.1
		C370.1,232.6,319,283.6,256,283.6z"/>
</g>
<g id="Layer_2">
</g>
</svg>
