<?xml version="1.0" encoding="utf-8"?>
<!-- Generator: Adobe Illustrator 27.0.0, SVG Export Plug-In . SVG Version: 6.00 Build 0)  -->
<svg version="1.1" xmlns="http://www.w3.org/2000/svg" xmlns:xlink="http://www.w3.org/1999/xlink" x="0px" y="0px"
	 viewBox="0 0 512 512" style="enable-background:new 0 0 512 512;" xml:space="preserve">
<style type="text/css">
	.st0{fill:#D14B4B;stroke:#000000;stroke-width:5;stroke-miterlimit:10;}
</style>
<g id="Layer_1">
	<path class="st0" d="M352.2,121.8c-3.5-33.5-19.1-69.8-63.8-91.1c-37.9-18.1-82.4-18.1-120.3,0c-44.8,21.3-60.3,57.6-63.8,91.1
		c-6.4,59.9,33.7,105.5,60.1,154.9c26.2,48.9,45,102.6,58.9,156.1c0.6,2.1,1.2,4.2,1.7,6.2c0.9,3.4,5.6,3.4,6.5,0
		c14-55.5,33.2-110,59.9-160.7C318.2,227,358.8,183.9,352.2,121.8z M228.1,187.5c-31.4,0-56.9-25.5-56.9-56.9s25.5-56.9,56.9-56.9
		S285,99.1,285,130.6S259.6,187.5,228.1,187.5z"/>
	<path class="st0" d="M228.2,479.9c-64,0-116.9-15.6-116.9-34.6c0-12.4,21.8-23.3,54.7-29.4c7.7-1.4,15.4-2.2,23.2-2.4h0
		c2.9,0.3,3,4.6,0.1,5.1c-27.4,4.5-54.5,11-54.5,20.1c0,15.2,42.4,27.6,93.4,27.6s93.4-12.4,93.4-27.6c0-9.1-27.1-15.6-54.5-20.1
		c-2.9-0.5-2.8-4.7,0.1-5.1l0,0c7.8,0.2,15.5,1,23.2,2.4c32.9,6.1,54.7,17,54.7,29.4C345.1,464.4,292.2,479.9,228.2,479.9z"/>
</g>
<g id="Layer_2">
</g>
</svg>
