<?xml version="1.0" encoding="utf-8"?>
<!-- Generator: Adobe Illustrator 27.0.0, SVG Export Plug-In . SVG Version: 6.00 Build 0)  -->
<svg version="1.1" xmlns="http://www.w3.org/2000/svg" xmlns:xlink="http://www.w3.org/1999/xlink" x="0px" y="0px"
	 viewBox="0 0 512 512" style="enable-background:new 0 0 512 512;" xml:space="preserve">
<style type="text/css">
	.st0{fill:#D14B4B;stroke:#000000;stroke-width:5;stroke-miterlimit:10;}
</style>
<g id="Layer_1">
	<path class="st0" d="M385.1,130c-4.7-37.1-21.9-77.1-69.6-99.3c-37.6-17.5-81.4-17.5-119.1,0c-47.7,22.2-64.9,62.2-69.6,99.3
		c-4.9,39.1,4.1,78.6,24.8,112.3c39.1,63.4,72.8,144,72.8,144h-28c-1.5,0-2.5,1.7-1.7,3l58.2,96.7c1.4,2.3,4.6,2.3,6,0l58.3-96.7
		c0.8-1.3-0.2-3-1.7-3h-28.1c0,0,33.7-80.6,72.8-144C381,208.7,390,169.1,385.1,130z M256,233.8c-48.1,0-87.1-39-87.1-87.1
		s39-87.1,87.1-87.1s87.1,39,87.1,87.1S304.1,233.8,256,233.8z"/>
</g>
<g id="Layer_2">
</g>
</svg>
