<?xml version="1.0" encoding="utf-8"?>
<!-- Generator: Adobe Illustrator 27.0.0, SVG Export Plug-In . SVG Version: 6.00 Build 0)  -->
<svg version="1.1" xmlns="http://www.w3.org/2000/svg" xmlns:xlink="http://www.w3.org/1999/xlink" x="0px" y="0px"
	 viewBox="0 0 512 512" style="enable-background:new 0 0 512 512;" xml:space="preserve">
<style type="text/css">
	.st0{fill:#D14B4B;stroke:#000000;stroke-width:5;stroke-miterlimit:10;}
</style>
<g id="Layer_1">
	<path class="st0" d="M166.2,235.7c41.6,63.6,78.5,131.6,96.6,205.9c2.5,7.5,2.6,9.6,6.3,19.6c1.5,4.1,7.4,3.7,8.4-0.6
		c17.9-80.3,55.6-156.9,100.2-225.1c22.1-33.8,28.2-75.9,15.8-114.3c-7.4-22.8-20.9-43.6-40.1-58.9c-17.6-14-36.8-23.6-59.2-27.2
		c-21.8-3.5-44.5-1.6-65.4,5.7c-21.8,7.5-40.2,20.5-54.9,38.1c-16.2,19.3-26.6,41.2-29.6,66.4c-2.9,24.3,1,49.3,11.2,71.5
		C158.5,223.4,162.2,229.6,166.2,235.7z M319,83.1c42.5,22.6,60.4,78,41.9,121.9c-16.3,37.6-57.5,62.9-98.6,58.1
		c-67.5-4.8-109.7-87.8-73.7-145.3C215,74.8,274.8,56.8,319,83.1z"/>
</g>
<g id="Layer_2">
</g>
</svg>
