<?xml version="1.0" encoding="utf-8"?>
<!-- Generator: Adobe Illustrator 27.0.0, SVG Export Plug-In . SVG Version: 6.00 Build 0)  -->
<svg version="1.1" xmlns="http://www.w3.org/2000/svg" xmlns:xlink="http://www.w3.org/1999/xlink" x="0px" y="0px"
	 viewBox="0 0 512 512" style="enable-background:new 0 0 512 512;" xml:space="preserve">
<style type="text/css">
	.st0{fill:#D14B4B;stroke:#000000;stroke-width:5;stroke-miterlimit:10;}
</style>
<g id="Layer_1">
</g>
<g id="Layer_2">
	<path class="st0" d="M315.1,256.8c53.5-13.4,95.7-66.5,87.4-122.6C398.6,76.2,342.2,31,283.7,35.8c-69.5,4.4-120.8,79.5-97.5,144.3
		c11.4,38.1,44.6,65.8,82.4,75.7l24,239.6L315.1,256.8z M322.7,230.7c-49.5,20.7-109.6-16.4-118.8-67.9
		c-9.4-43.8,19.6-90.6,62.3-103.1C311,44.9,363.3,72.3,377.6,117C394.3,161.6,367.7,215.7,322.7,230.7z"/>
	<circle class="st0" cx="292" cy="145.2" r="73.7"/>
</g>
</svg>
