<?xml version="1.0" encoding="utf-8"?>
<!-- Generator: Adobe Illustrator 27.0.0, SVG Export Plug-In . SVG Version: 6.00 Build 0)  -->
<svg version="1.1" xmlns="http://www.w3.org/2000/svg" xmlns:xlink="http://www.w3.org/1999/xlink" x="0px" y="0px"
	 viewBox="0 0 512 512" style="enable-background:new 0 0 512 512;" xml:space="preserve">
<style type="text/css">
	.st0{fill:#D14B4B;stroke:#000000;stroke-width:5;stroke-miterlimit:10;}
</style>
<g id="Layer_1">
	<path class="st0" d="M344.5,29.2h-177c-28.7,0-52.1,23.3-52.1,52.1v172.3c0,26.4,19.7,48.2,45.2,51.6l92.3,178.2L348,305.5
		c27.1-1.8,48.5-24.4,48.5-51.9V81.3C396.6,52.5,373.3,29.2,344.5,29.2z M251.8,274.5c-56.7,0-102.7-46-102.7-102.7
		c0-56.7,46-102.7,102.7-102.7c56.7,0,102.7,46,102.7,102.7C354.4,228.6,308.5,274.5,251.8,274.5z"/>
</g>
<g id="Layer_2">
</g>
</svg>
