<?xml version="1.0" encoding="utf-8"?>
<!-- Generator: Adobe Illustrator 27.0.0, SVG Export Plug-In . SVG Version: 6.00 Build 0)  -->
<svg version="1.1" xmlns="http://www.w3.org/2000/svg" xmlns:xlink="http://www.w3.org/1999/xlink" x="0px" y="0px"
	 viewBox="0 0 512 512" style="enable-background:new 0 0 512 512;" xml:space="preserve">
<style type="text/css">
	.st0{fill:#D14B4B;stroke:#000000;stroke-width:5;stroke-miterlimit:10;}
</style>
<g id="Layer_1">
	<path class="st0" d="M319.9,30.1C254-5.3,165.6,23.2,129,87.4c-16.4,26.8-23.5,58.4-21.7,89.6c2.2,36.9,17.9,71.6,42.9,98.9
		c54.4,59.6,79.9,138.6,100,215.6c1.4,5.2,8.7,5.2,10.1,0.1c16.6-59.7,35.5-119.3,67.4-172.7c20.7-33.8,54.5-58.7,67.9-97
		C422.3,150.4,389.7,62.6,319.9,30.1z M256,280.4c-64.3,0-116.5-52.1-116.5-116.5c0-64.3,52.1-116.5,116.5-116.5
		s116.5,52.1,116.5,116.5C372.5,228.2,320.3,280.4,256,280.4z"/>
</g>
<g id="Layer_2">
	<circle class="st0" cx="256" cy="163.9" r="92.5"/>
</g>
</svg>
