<?xml version="1.0" encoding="utf-8"?>
<!-- Generator: Adobe Illustrator 27.0.0, SVG Export Plug-In . SVG Version: 6.00 Build 0)  -->
<svg version="1.1" xmlns="http://www.w3.org/2000/svg" xmlns:xlink="http://www.w3.org/1999/xlink" x="0px" y="0px"
	 viewBox="0 0 512 512" style="enable-background:new 0 0 512 512;" xml:space="preserve">
<style type="text/css">
	.st0{fill:#D14B4B;stroke:#000000;stroke-width:5;stroke-miterlimit:10;}
</style>
<g id="Layer_1">
	<path class="st0" d="M379.3,117.4C358.3,67.2,305.8,30.9,251,32.6c-78,2.3-133.9,55.9-141.2,133.8c-2.3,24.2,0.4,48.4-0.4,72.4
		c-0.9,25.4-0.2,50.9-0.2,76.4c0,50.6,0,101.2,0.1,151.8c0,2.1,3,2.6,3.6,0.5c8.2-26.5,18.5-51.3,32.1-75.2
		c20.1-35.2,48.7-69.8,91.3-77.4c22.3-4,43.3-2.8,65-11.4c21.7-8.6,41.3-22.4,56.5-40C391.4,223.8,399.4,165.2,379.3,117.4z
		 M249.5,281.5c-59.2,0-107.3-48-107.3-107.3c0-59.2,48-107.3,107.3-107.3s107.3,48,107.3,107.3
		C356.7,233.5,308.7,281.5,249.5,281.5z"/>
</g>
<g id="Layer_2">
</g>
</svg>
