<?xml version="1.0" encoding="utf-8"?>
<!-- Generator: Adobe Illustrator 27.0.0, SVG Export Plug-In . SVG Version: 6.00 Build 0)  -->
<svg version="1.1" xmlns="http://www.w3.org/2000/svg" xmlns:xlink="http://www.w3.org/1999/xlink" x="0px" y="0px"
	 viewBox="0 0 512 512" style="enable-background:new 0 0 512 512;" xml:space="preserve">
<style type="text/css">
	.st0{fill:#D14B4B;stroke:#000000;stroke-width:5;stroke-miterlimit:10;}
</style>
<g id="Layer_1">
	<path class="st0" d="M378.8,183.4c-7.6-65.2-65.4-117-137.2-111.6C171,72,117.7,145.7,130.4,213.3c8.6,38.3,35.4,68.4,53.5,102.3
		c31.1,51,49.7,108.2,64.3,165.8c0.9,3.4,5.1,4.6,7.6,2.1C311.2,429.3,352,359.4,370,284C378.9,251.3,381.5,217.1,378.8,183.4z
		 M254.2,286c-48.7,0-88.2-39.5-88.2-88.2c0-48.7,39.5-88.2,88.2-88.2s88.2,39.5,88.2,88.2C342.4,246.5,302.9,286,254.2,286z"/>
</g>
<g id="Layer_2">
</g>
</svg>
