<?xml version="1.0" encoding="utf-8"?>
<!-- Generator: Adobe Illustrator 27.0.0, SVG Export Plug-In . SVG Version: 6.00 Build 0)  -->
<svg version="1.1" xmlns="http://www.w3.org/2000/svg" xmlns:xlink="http://www.w3.org/1999/xlink" x="0px" y="0px"
	 viewBox="0 0 512 512" style="enable-background:new 0 0 512 512;" xml:space="preserve">
<style type="text/css">
	.st0{fill:#D14B4B;stroke:#000000;stroke-width:5;stroke-miterlimit:10;}
</style>
<g id="Layer_1">
	<path class="st0" d="M417.6,130.6C411,98.1,393.1,70,368.6,49C304.6-5.8,208-0.6,150.3,60.7c-37.3,39.5-54.6,96.1-35.1,149.8
		c32.5,94.5,134.6,268.1,147.8,290.2c0.6,1,2.1,1,2.7-0.1l122-227.7c7.9-14.7,14.9-29.9,20.6-45.6
		C419.5,196.2,426.2,163.2,417.6,130.6z M319,236l-54.8-28.9l-54.9,28.7l10.6-61.1l-44.3-43.3l61.3-8.8l27.5-55.5l27.3,55.6l61.3,9
		l-44.4,43.2L319,236z"/>
</g>
<g id="Layer_2">
</g>
</svg>
