<?xml version="1.0" encoding="utf-8"?>
<!-- Generator: Adobe Illustrator 27.0.0, SVG Export Plug-In . SVG Version: 6.00 Build 0)  -->
<svg version="1.1" xmlns="http://www.w3.org/2000/svg" xmlns:xlink="http://www.w3.org/1999/xlink" x="0px" y="0px"
	 viewBox="0 0 512 512" style="enable-background:new 0 0 512 512;" xml:space="preserve">
<style type="text/css">
	.st0{fill:#D14B4B;stroke:#000000;stroke-width:5;stroke-miterlimit:10;}
</style>
<g id="Layer_1">
	<path class="st0" d="M226.8,48.8c0-14-11.7-25.2-25.9-24.3c-12.1,0.8-22,10.6-22.7,22.8c-0.7,10.9,5.9,20.4,15.3,24.1v394
		c0,4.9,4,8.9,8.9,8.9h0c4.9,0,8.9-4,8.9-8.9v-394C220.4,67.8,226.8,59,226.8,48.8z"/>
	<path class="st0" d="M230.1,89v142.3h193.6c3.7,0,5.6-4.4,3.1-7.1l-51.8-56.7c-1.4-1.5-1.5-3.9-0.2-5.5l53-66.1
		c2.2-2.8,0.2-6.9-3.3-6.9H230.1z"/>
</g>
<g id="Layer_2">
</g>
</svg>
