<?xml version="1.0" encoding="utf-8"?>
<!-- Generator: Adobe Illustrator 27.0.0, SVG Export Plug-In . SVG Version: 6.00 Build 0)  -->
<svg version="1.1" xmlns="http://www.w3.org/2000/svg" xmlns:xlink="http://www.w3.org/1999/xlink" x="0px" y="0px"
	 viewBox="0 0 512 512" style="enable-background:new 0 0 512 512;" xml:space="preserve">
<style type="text/css">
	.st0{fill:#D14B4B;stroke:#000000;stroke-width:5;stroke-miterlimit:10;}
</style>
<g id="Layer_1">
	<path class="st0" d="M382.5,24.6H165.2c-22,0-39.9,17.9-39.9,39.9v211.1c0,22,17.9,39.9,39.9,39.9h217.2c22,0,39.9-17.9,39.9-39.9
		V64.5C422.4,42.4,404.5,24.6,382.5,24.6z M385.4,236.6c0,22-17.9,39.9-39.9,39.9H202.2c-22,0-39.9-17.9-39.9-39.9V103.5
		c0-22,17.9-39.9,39.9-39.9h143.4c22,0,39.9,17.9,39.9,39.9V236.6z"/>
	<path class="st0" d="M188.3,338l79.7,154.4c1.2,2.3,4.4,2.3,5.6,0.1l85.4-154.4c1.2-2.1-0.4-4.8-2.8-4.8H191.2
		C188.8,333.3,187.2,335.8,188.3,338z"/>
</g>
<g id="Layer_2">
</g>
</svg>
