<?xml version="1.0" encoding="utf-8"?>
<!-- Generator: Adobe Illustrator 27.0.0, SVG Export Plug-In . SVG Version: 6.00 Build 0)  -->
<svg version="1.1" xmlns="http://www.w3.org/2000/svg" xmlns:xlink="http://www.w3.org/1999/xlink" x="0px" y="0px"
	 viewBox="0 0 512 512" style="enable-background:new 0 0 512 512;" xml:space="preserve">
<style type="text/css">
	.st0{fill:#D14B4B;stroke:#000000;stroke-width:5;stroke-miterlimit:10;}
</style>
<g id="Layer_1">
	<path class="st0" d="M260.7,24c-74.3,0-134.5,60.2-134.5,134.5c0,74.3,60.2,134.5,134.5,134.5c74.3,0,134.5-60.2,134.5-134.5
		C395.1,84.2,334.9,24,260.7,24z M260.7,261.6c-57,0-103.2-46.2-103.2-103.2S203.7,55.3,260.7,55.3s103.2,46.2,103.2,103.2
		S317.7,261.6,260.7,261.6z"/>
</g>
<g id="Layer_2">
	<path class="st0" d="M205.7,307.9c-0.2-0.4,0.1-0.9,0.6-0.8c15.8,3,35.4,5.4,57.9,5.2c20.1-0.2,37.8-2.4,52.4-5.2
		c0.5-0.1,0.8,0.4,0.6,0.8c-13.6,23.9-27.1,44.2-38.1,67.8c-0.8,1.6,0.5,3.5,2.3,3.5l35.1-0.7c1.9,0,3.2,2.1,2.2,3.7l-54.5,90.1
		c-1,1.6-3.2,1.6-4.2,0L205.7,383c-1-1.6,0.2-3.7,2.1-3.7h34.1c1.9,0,3.1-2,2.1-3.7L205.7,307.9z"/>
</g>
</svg>
