<?xml version="1.0" encoding="utf-8"?>
<!-- Generator: Adobe Illustrator 27.0.0, SVG Export Plug-In . SVG Version: 6.00 Build 0)  -->
<svg version="1.1" xmlns="http://www.w3.org/2000/svg" xmlns:xlink="http://www.w3.org/1999/xlink" x="0px" y="0px"
	 viewBox="0 0 512 512" style="enable-background:new 0 0 512 512;" xml:space="preserve">
<style type="text/css">
	.st0{fill:#D14B4B;stroke:#000000;stroke-width:5;stroke-miterlimit:10;}
</style>
<g id="Layer_1">
	<path class="st0" d="M213.1,454.1V33.3c0-7.1-5.8-12.9-12.9-12.9h0c-7.1,0-12.9,5.8-12.9,12.9v420.7c0,2.4-1.9,4.3-4.3,4.3h-21.3
		c-1.3,0-2.4,1.1-2.4,2.4v18.1c0,1.3,1.1,2.4,2.4,2.4h25.7h25.8h25.7c1.3,0,2.4-1.1,2.4-2.4v-18.1c0-1.3-1.1-2.4-2.4-2.4h-21.3
		C215,458.4,213.1,456.4,213.1,454.1z"/>
	<path class="st0" d="M227.6,57.2L447.4,144c2.3,0.9,2.3,4.2,0,5.1l-219.9,89.5V57.2z"/>
</g>
<g id="Layer_2">
</g>
</svg>
