<?xml version="1.0" encoding="utf-8"?>
<!-- Generator: Adobe Illustrator 27.0.0, SVG Export Plug-In . SVG Version: 6.00 Build 0)  -->
<svg version="1.1" xmlns="http://www.w3.org/2000/svg" xmlns:xlink="http://www.w3.org/1999/xlink" x="0px" y="0px"
	 viewBox="0 0 512 512" style="enable-background:new 0 0 512 512;" xml:space="preserve">
<style type="text/css">
	.st0{fill:#D14B4B;stroke:#000000;stroke-width:5;stroke-miterlimit:10;}
</style>
<g id="Layer_1">
	<path class="st0" d="M256,31.9c-81.4,0-147.4,66-147.4,147.4c0,81.4,66,147.4,147.4,147.4s147.4-66,147.4-147.4
		C403.4,97.8,337.4,31.9,256,31.9z M256,285.6c-58.7,0-106.4-47.6-106.4-106.4c0-58.7,47.6-106.4,106.4-106.4
		c58.7,0,106.4,47.6,106.4,106.4C362.4,238,314.7,285.6,256,285.6z"/>
	<path class="st0" d="M158.9,320.3l95.5,179.3c1.3,2.4,4.7,2.4,6,0l92.7-175.8c1.6-3.1-1.9-6.3-4.8-4.4c-17,11.1-47.6,26.5-88,26.9
		c-44.9,0.5-78.5-17.8-96.5-30.4C160.9,313.9,157.2,317.2,158.9,320.3z"/>
</g>
<g id="Layer_2">
</g>
</svg>
