<?xml version="1.0" encoding="utf-8"?>
<!-- Generator: Adobe Illustrator 27.0.0, SVG Export Plug-In . SVG Version: 6.00 Build 0)  -->
<svg version="1.1" xmlns="http://www.w3.org/2000/svg" xmlns:xlink="http://www.w3.org/1999/xlink" x="0px" y="0px"
	 viewBox="0 0 512 512" style="enable-background:new 0 0 512 512;" xml:space="preserve">
<style type="text/css">
	.st0{fill:#D14B4B;stroke:#000000;stroke-width:5;stroke-miterlimit:10;}
</style>
<g id="Layer_1">
</g>
<g id="Layer_2">
	<path class="st0" d="M355.4,19.7H156.6c-23.1,0-41.9,18.8-41.9,41.9V257c0,23.1,18.8,41.9,41.9,41.9h0.6c2.3,0,4.3,1.3,5.3,3.3
		l89,181.1c1.8,3.7,7.1,3.7,8.9,0l89.6-181.1c1-2,3.1-3.3,5.3-3.3h0c23.1,0,41.9-18.8,41.9-41.9V61.6
		C397.3,38.4,378.6,19.7,355.4,19.7z M370.1,231.4c0,23.1-18.8,41.9-41.9,41.9H183.8c-23.1,0-41.9-18.8-41.9-41.9V87.1
		c0-23.1,18.8-41.9,41.9-41.9h144.4c23.1,0,41.9,18.8,41.9,41.9V231.4z"/>
</g>
</svg>
