<?xml version="1.0" encoding="utf-8"?>
<!-- Generator: Adobe Illustrator 27.0.0, SVG Export Plug-In . SVG Version: 6.00 Build 0)  -->
<svg version="1.1" xmlns="http://www.w3.org/2000/svg" xmlns:xlink="http://www.w3.org/1999/xlink" x="0px" y="0px"
	 viewBox="0 0 512 512" style="enable-background:new 0 0 512 512;" xml:space="preserve">
<style type="text/css">
	.st0{fill:#D14B4B;stroke:#000000;stroke-width:5;stroke-miterlimit:10;}
</style>
<g id="Layer_1">
	<path class="st0" d="M247.2,401.8l95.9-179c6.2-11.6,11.7-23.5,16.2-35.9c8.9-24.5,14.2-50.5,7.4-76.1
		c-5.2-25.6-19.3-47.7-38.5-64.2c-50.3-43-126.2-39-171.7,9.2c-29.3,31.1-43,75.6-27.6,117.8c25.5,74.3,105.8,210.8,116.2,228.2
		C245.6,402.7,246.8,402.6,247.2,401.8z M247.7,213.7c-44.8,0.8-81.2-35.6-80.4-80.4c0.8-42.2,35.2-76.6,77.4-77.4
		c44.8-0.8,81.2,35.6,80.4,80.4C324.3,178.5,289.9,213,247.7,213.7z"/>
	<path class="st0" d="M286.4,450.5l-18.2-13.2l18.4-12.8c5.7-4,7.1-11.8,3.1-17.5l-0.1-0.2c-4-5.7-11.8-7.1-17.5-3.1l-25.8,18
		c-6.3-4.5-12.6-9.1-18.9-13.6c-2.2-1.6-4.4-3.2-6.6-4.7c-5.6-4.1-13.5-2.8-17.6,2.8c0,0.1-0.1,0.1-0.1,0.2
		c-4.1,5.6-2.8,13.5,2.8,17.6l18.2,13.2l-18.4,12.8c-5.7,4-7.1,11.8-3.1,17.5l0.1,0.2c4,5.7,11.8,7.1,17.5,3.1l25.8-18l25.5,18.4
		c5.6,4.1,13.5,2.8,17.6-2.8l0.1-0.2C293.3,462.5,292.1,454.6,286.4,450.5z"/>
</g>
<g id="Layer_2">
</g>
</svg>
