<svg preserveAspectRatio="none" width="100%" height="100%" overflow="visible" style="display: block;" viewBox="0 0 112 36" fill="none" xmlns="http://www.w3.org/2000/svg">
<g id="Company logo">
<path id="Union" fill-rule="evenodd" clip-rule="evenodd" d="M14.7742 3.96442C10.4614 3.96442 6.59688 5.88377 3.98824 8.91488L24.0484 28.9751C27.0795 26.3664 28.9989 22.5019 28.9989 18.1891C28.9989 10.333 22.6303 3.96442 14.7742 3.96442ZM1.69669 12.5837L20.3797 31.2667C21.0601 30.9746 21.7132 30.631 22.334 30.2408L2.72257 10.6293C2.33233 11.2501 1.98873 11.9032 1.69669 12.5837ZM15.5455 32.3932L0.570118 17.4178C0.617705 16.5272 0.747211 15.6584 0.951236 14.8186L18.1446 32.012C17.305 32.2161 16.4361 32.3456 15.5455 32.3932ZM0.749136 20.5771L12.3862 32.2141C6.44354 31.2096 1.75365 26.5197 0.749136 20.5771ZM54.2419 26.7074H43.8193V10.4254H47.2617V23.8691H54.2419V26.7074ZM59.8448 26.7074H56.458V14.4959H59.8448V26.7074ZM59.9958 11.3318C59.9958 12.3017 59.1452 13.049 58.1593 13.049C57.1815 13.049 56.3309 12.3017 56.3309 11.3318C56.3309 10.3698 57.1815 9.62248 58.1593 9.62248C59.1452 9.62248 59.9958 10.3698 59.9958 11.3318ZM68.258 17.1513C66.8906 17.1513 65.9524 18.0735 65.9446 19.6476V26.7074H62.5577V14.4959H65.7855V16.6504H65.9287C66.4772 15.2273 67.789 14.3369 69.6016 14.3369C72.1457 14.3369 73.8152 16.086 73.8152 18.9321V26.7074H70.4285V19.5363C70.4364 18.0417 69.6175 17.1513 68.258 17.1513ZM87.6147 23.2093C87.1377 25.475 85.1104 26.9459 82.0814 26.9459C78.3289 26.9459 76.0314 24.529 76.0314 20.6573C76.0314 16.8889 78.3607 14.3369 81.9541 14.3369C85.1819 14.3369 87.6942 16.3881 87.6942 20.538V21.4682H79.3783V21.4762C79.3783 23.2967 80.4515 24.4177 82.1449 24.4177C83.2659 24.4177 84.1484 23.9328 84.4903 23.0026L87.6147 23.2093ZM82.0098 16.8651C80.5073 16.8651 79.442 17.9781 79.3783 19.3694H84.5062C84.4903 17.9145 83.4726 16.8651 82.0098 16.8651ZM97.0039 25.014C96.4076 26.1509 95.2388 26.938 93.4343 26.938C91.1048 26.938 89.3796 25.7136 89.3796 23.2967C89.3796 20.5698 91.55 19.7589 93.9668 19.5363C96.0896 19.3296 96.9323 19.2104 96.9244 18.4074C96.9164 17.3818 96.2804 16.8094 95.1117 16.8094C93.8953 16.8094 93.1718 17.4057 92.9412 18.2166L89.809 17.9622C90.278 15.7362 92.1781 14.3369 95.1832 14.3369C97.8227 14.3369 100.311 15.5612 100.311 18.471V26.7074H97.0992V25.014H97.0039ZM92.6154 23.1854C92.6154 24.1156 93.3626 24.6006 94.4041 24.6006C95.8908 24.6006 96.9481 23.6227 96.9481 22.3428V21.0468C96.5427 21.3172 95.3342 21.4921 94.5949 21.5954C93.4024 21.7623 92.6154 22.2315 92.6154 23.1854ZM106.325 26.7074H102.939V14.4959H106.222V16.6266H106.349C106.794 15.116 107.907 14.321 109.283 14.321C109.935 14.321 110.507 14.4959 110.952 14.7662L109.935 17.5647C109.617 17.4057 109.243 17.2785 108.782 17.2785C107.415 17.2785 106.333 18.3041 106.325 19.7987V26.7074Z" fill="var(--fill-0, #94A3B8)"/>
</g>
</svg>
