<svg preserveAspectRatio="none" width="100%" height="100%" overflow="visible" style="display: block;" viewBox="0 0 20 22" fill="none" xmlns="http://www.w3.org/2000/svg">
<path id="Vector" d="M15 17C15 16.4696 14.7893 15.9609 14.4142 15.5858C14.0391 15.2107 13.5304 15 13 15H7C6.46957 15 5.96086 15.2107 5.58579 15.5858C5.21071 15.9609 5 16.4696 5 17M6 1V3M14 1V3M3 3H17C18.1046 3 19 3.89543 19 5V19C19 20.1046 18.1046 21 17 21H3C1.89543 21 1 20.1046 1 19V5C1 3.89543 1.89543 3 3 3ZM12 9C12 10.1046 11.1046 11 10 11C8.89543 11 8 10.1046 8 9C8 7.89543 8.89543 7 10 7C11.1046 7 12 7.89543 12 9Z" stroke="var(--stroke-0, #0A0A0A)" stroke-width="2" stroke-linecap="round" stroke-linejoin="round"/>
</svg>
