<svg preserveAspectRatio="none" width="100%" height="100%" overflow="visible" style="display: block;" viewBox="0 0 60 48" fill="none" xmlns="http://www.w3.org/2000/svg">
<g id="COUPON">
<path id="Vector" d="M38.7352 0.2294C35.4821 0.0676812 32.2161 0.00322808 30.0048 0.00557183C24.7782 -0.0670844 13.6091 0.58565 10.786 1.09893C6.13601 1.87823 1.84812 6.20596 0.975076 11.2122C0.478201 14.2345 0.00710676 18.3618 7.55087e-05 24.0056C-0.00695574 29.6493 0.478201 33.772 0.980935 36.8036C1.85398 41.8099 6.13718 46.1388 10.7825 46.9064C13.595 47.4208 24.7782 48.0782 30.0012 48.0009C32.3872 48.0009 36.02 47.9212 39.5309 47.7325L44.9954 47.3622C46.8704 47.2064 48.4067 47.0399 49.2235 46.9064C53.8747 46.1282 58.1637 41.7993 59.0251 36.8036C59.5278 33.7814 59.9989 29.6446 60.0059 24.0056C60.013 18.3665 59.5278 14.231 59.0262 11.2075C58.1532 6.20127 53.87 1.87354 49.2247 1.10479C48.2872 0.953619 46.404 0.753228 44.1399 0.577447L38.7352 0.2294Z" fill="var(--fill-0, #4ADE80)"/>
<path id="Vector_2" d="M40.1954 8.87432C40.1977 5.96082 39.8103 3.0601 39.0434 0.249322L38.7329 0.2294C35.4798 0.0676812 32.2137 0.00322808 30.0024 0.00557183C24.7759 -0.0670844 13.6067 0.58565 10.7837 1.09893C6.13367 1.87823 1.84578 6.20596 0.972732 11.2122C0.478201 14.2345 0.00710676 18.3618 7.55087e-05 24.0056C-0.00695574 29.6493 0.478201 33.772 0.980935 36.8036C1.26132 38.3526 1.83744 39.8331 2.67781 41.1642C4.28848 41.405 5.91485 41.5257 7.54343 41.5251C25.5774 41.5298 40.1954 26.9095 40.1954 8.87432Z" fill="var(--fill-0, #86EFAC)"/>
<g id="Group">
<path id="Vector_3" d="M29.8705 10.1004H29.8424C29.5071 10.1044 29.1783 10.1935 28.8868 10.3593C28.5954 10.5252 28.3508 10.7623 28.176 11.0484C23.4275 18.4606 18.4412 25.9043 13.9119 33.0891C13.2943 34.0688 13.5709 35.4328 14.5178 36.15C15.4646 36.8672 16.7139 36.6598 17.3303 35.6731C21.842 28.4438 26.8107 20.9895 31.5393 13.6008C32.4814 12.1336 31.4994 10.1016 29.8705 10.1004Z" fill="var(--fill-0, white)"/>
<path id="Vector_4" d="M35.9845 26.1478C34.6849 24.7767 33.1181 24.0935 31.3193 24.0935C29.5204 24.0935 27.963 24.7872 26.6517 26.1513C25.3403 27.5154 24.6982 29.1689 24.7134 31.12C24.7286 33.0911 25.3861 34.7634 26.6611 36.124C27.9361 37.4845 29.463 38.1747 31.2536 38.17C33.0736 38.17 34.6228 37.4798 35.9177 36.1263C37.2126 34.7728 37.8876 33.1017 37.9099 31.1036C37.9325 29.1677 37.2907 27.5158 35.9845 26.1478ZM32.9868 33.1462C32.7854 33.3973 32.5293 33.5992 32.2381 33.7364C31.9469 33.8737 31.6283 33.9428 31.3064 33.9384C30.9816 33.9468 30.6591 33.8824 30.3625 33.75C30.0658 33.6176 29.8025 33.4205 29.5919 33.1732C29.1478 32.6576 28.9239 31.9849 28.9228 31.1341C28.9228 30.3361 29.1571 29.6845 29.6083 29.1806C29.8208 28.9393 30.0822 28.746 30.3752 28.6136C30.6682 28.4812 30.986 28.4127 31.3075 28.4127C31.6291 28.4127 31.9469 28.4812 32.2399 28.6136C32.5329 28.746 32.7943 28.9393 33.0068 29.1806C33.4513 29.6947 33.6716 30.345 33.6677 31.1318C33.6595 31.9474 33.4321 32.62 32.9868 33.1462Z" fill="var(--fill-0, white)"/>
<path id="Vector_5" d="M18.2177 11.7658C16.972 10.4252 15.4791 9.79001 13.706 9.84509C11.933 9.90017 10.3826 10.6349 9.02322 12.0049C7.66384 13.3748 6.92439 14.9943 6.85994 16.8822C6.79665 18.7888 7.40603 20.3908 8.67165 21.6998C9.26947 22.3332 9.99199 22.836 10.7937 23.1765C11.5954 23.5169 12.4589 23.6876 13.3299 23.6779C14.2146 23.6926 15.0926 23.5222 15.9075 23.1775C16.7224 22.8328 17.4563 22.3214 18.0619 21.6763C19.3627 20.3404 20.0267 18.6752 20.0541 16.6806C20.0857 14.7482 19.4717 13.1076 18.2177 11.7658ZM15.1052 18.7244C14.8944 18.9682 14.6345 19.1647 14.3426 19.3012C14.0506 19.4378 13.7332 19.5112 13.4109 19.5167C13.0887 19.5222 12.7689 19.4598 12.4724 19.3333C12.176 19.2069 11.9095 19.0194 11.6904 18.783C11.2545 18.2849 11.0459 17.631 11.0693 16.799C11.0668 16.0869 11.3324 15.3999 11.8135 14.8748C12.0289 14.6299 12.2936 14.4332 12.5902 14.2975C12.8869 14.1618 13.2088 14.0902 13.5349 14.0873C13.8479 14.0706 14.1604 14.1272 14.4477 14.2525C14.7349 14.3778 14.989 14.5684 15.1896 14.8092C15.6193 15.3092 15.826 15.9486 15.8095 16.7275C15.7931 17.5361 15.5599 18.2029 15.1052 18.7244Z" fill="var(--fill-0, white)"/>
</g>
<path id="Vector_6" d="M49.2194 1.10947C48.2819 0.958296 46.3987 0.757905 44.1346 0.582124L42.1225 0.450874C44.0561 3.44853 46.0167 6.42744 47.9667 9.3747C48.5303 10.2196 48.5901 11.2977 48.1073 12.1192C46.0342 15.6407 43.8229 19.2395 41.5565 22.8829C43.8323 26.5567 46.0448 30.1825 48.1108 33.7286C48.5877 34.5372 48.5209 35.6153 47.9538 36.472C45.944 39.4942 43.926 42.5517 41.9432 45.6278V47.5731L44.9901 47.3669C46.8651 47.211 48.4014 47.0446 49.2182 46.911C53.8694 46.1329 58.1584 41.804 59.0198 36.8083C59.5225 33.786 59.9936 29.6493 60.0006 24.0102C60.0077 18.3712 59.5225 14.2356 59.021 11.2122C58.1479 6.20595 53.86 1.87822 49.2194 1.10947Z" fill="var(--fill-0, #22C55E)"/>
</g>
</svg>
