<svg preserveAspectRatio="none" width="100%" height="100%" overflow="visible" style="display: block;" viewBox="0 0 14 13" fill="none" xmlns="http://www.w3.org/2000/svg">
<path id="Vector" d="M6.99935 12.3332H12.9993M8.99935 2.33317L10.9993 4.33317M9.91667 1.41449C10.1821 1.1491 10.542 1 10.9173 1C11.2927 1 11.6526 1.1491 11.918 1.41449C12.1834 1.67988 12.3325 2.03983 12.3325 2.41516C12.3325 2.79048 12.1834 3.15043 11.918 3.41582L3.91133 11.4232C3.75273 11.5818 3.55668 11.6978 3.34133 11.7605L1.42667 12.3192C1.3693 12.3359 1.30849 12.3369 1.25061 12.3221C1.19272 12.3072 1.13988 12.2771 1.09763 12.2349C1.05538 12.1926 1.02526 12.1398 1.01043 12.0819C0.995599 12.024 0.996602 11.9632 1.01333 11.9058L1.572 9.99116C1.63481 9.77605 1.75083 9.58024 1.90933 9.42182L9.91667 1.41449Z" stroke="var(--stroke-0, #0A0A0A)" stroke-width="1.33" stroke-linecap="round" stroke-linejoin="round"/>
</svg>
