<svg preserveAspectRatio="none" width="100%" height="100%" overflow="visible" style="display: block;" viewBox="0 0 25 25" fill="none" xmlns="http://www.w3.org/2000/svg">
<path id="Vector" d="M9.27177 8.00921C9.54606 7.22949 10.0874 6.572 10.8 6.1532C11.5127 5.73439 12.3505 5.5813 13.1651 5.72104C13.9798 5.86078 14.7187 6.28432 15.251 6.91666C15.7833 7.549 16.0747 8.34932 16.0734 9.17588C16.0734 11.5092 12.5734 12.6759 12.5734 12.6759M12.6667 17.3424H12.6783M7.88333 20.8425C10.11 21.9847 12.6714 22.2941 15.106 21.7149C17.5406 21.1357 19.6883 19.706 21.162 17.6834C22.6358 15.6608 23.3387 13.1783 23.144 10.6834C22.9494 8.18838 21.87 5.84497 20.1004 4.07539C18.3309 2.30582 15.9875 1.22646 13.4925 1.03182C10.9975 0.837181 8.51505 1.54006 6.49246 3.01379C4.46986 4.48752 3.04014 6.6352 2.46093 9.0698C1.88171 11.5044 2.1911 14.0658 3.33333 16.2925L1 23.1758L7.88333 20.8425Z" stroke="var(--stroke-0, #0A0A0A)" stroke-width="2" stroke-linecap="round" stroke-linejoin="round"/>
</svg>
