<svg width="28" height="29" viewBox="0 0 28 29" fill="none" xmlns="http://www.w3.org/2000/svg">
<path d="M10.6048 11.2101C10.8791 10.4304 11.4205 9.77287 12.1331 9.35406C12.8457 8.93526 13.6835 8.78217 14.4981 8.92191C15.3128 9.06164 16.0517 9.48519 16.584 10.1175C17.1163 10.7499 17.4077 11.5502 17.4064 12.3767C17.4064 14.7101 13.9064 15.8767 13.9064 15.8767M13.9997 20.5433H14.0113M9.21634 24.0434C11.443 25.1856 14.0044 25.495 16.439 24.9158C18.8736 24.3366 21.0213 22.9068 22.4951 20.8842C23.9688 18.8617 24.6717 16.3792 24.477 13.8842C24.2824 11.3893 23.203 9.04583 21.4334 7.27626C19.6639 5.50669 17.3205 4.42733 14.8255 4.23269C12.3305 4.03805 9.84806 4.74092 7.82546 6.21466C5.80287 7.68839 4.37315 9.83606 3.79393 12.2707C3.21472 14.7053 3.52411 17.2667 4.66634 19.4934L2.33301 26.3767L9.21634 24.0434Z" stroke="#0A0A0A" stroke-width="2" stroke-linecap="round" stroke-linejoin="round"/>
</svg>
