<svg width="37" height="37" viewBox="0 0 37 37" fill="none" xmlns="http://www.w3.org/2000/svg">
<path d="M13.833 26.1458C13.833 26.1458 24.333 27.6458 28.833 32.1458H30.333C31.1615 32.1458 31.833 31.4742 31.833 30.6458V21.5513C33.1269 21.2183 34.083 20.0436 34.083 18.6458C34.083 17.2479 33.1269 16.0733 31.833 15.7403V6.64575C31.833 5.81733 31.1615 5.14575 30.333 5.14575H28.833C24.333 9.64575 13.833 11.1458 13.833 11.1458H7.83301C6.17615 11.1458 4.83301 12.4889 4.83301 14.1458V23.1458C4.83301 24.8027 6.17615 26.1458 7.83301 26.1458H9.33301L10.833 33.6458H13.833V26.1458ZM16.833 13.6376C17.858 13.4177 19.1243 13.1136 20.492 12.7113C23.0093 11.971 26.208 10.8047 28.833 9.00762V28.2839C26.208 26.4869 23.0093 25.3206 20.492 24.5802C19.1243 24.1779 17.858 23.8739 16.833 23.654V13.6376ZM7.83301 14.1458H13.833V23.1458H7.83301V14.1458Z" fill="url(#paint0_linear_62_6929)"/>
<defs>
<linearGradient id="paint0_linear_62_6929" x1="4.50785" y1="3.56242" x2="43.4407" y2="39.524" gradientUnits="userSpaceOnUse">
<stop stop-color="#5E19CF"/>
<stop offset="1" stop-color="#D0B3FF"/>
</linearGradient>
</defs>
</svg>
