<svg preserveAspectRatio="none" width="100%" height="100%" overflow="visible" style="display: block;" viewBox="0 0 24 24" fill="none" xmlns="http://www.w3.org/2000/svg">
<g id="Group">
<path id="Vector" d="M23.0565 7.3296C22.4521 5.90039 21.587 4.61701 20.4852 3.5151C19.3834 2.4132 18.1002 1.54798 16.6711 0.94348C15.1912 0.317437 13.6195 0 11.9999 0C10.3804 0 8.80873 0.317437 7.32877 0.94348C5.89972 1.54798 4.61648 2.4132 3.5147 3.51511C2.41293 4.61703 1.54781 5.90039 0.943373 7.3296C0.317401 8.80974 0 10.3815 0 12.0013C0 13.6211 0.317401 15.1929 0.943373 16.673C1.54781 18.1022 2.41293 19.3856 3.5147 20.4875C3.55522 20.528 3.59598 20.5682 3.63699 20.6081C3.93058 20.8936 4.41067 20.7521 4.52878 20.36V20.36C4.74021 19.5384 5.08462 18.7615 5.55242 18.0508C6.01219 17.3523 6.579 16.7359 7.23709 16.2187C7.90204 15.6962 8.64207 15.2893 9.43663 15.0094C10.2587 14.7198 11.1211 14.573 11.9999 14.573C12.8788 14.573 13.7412 14.7199 14.5633 15.0094C15.3578 15.2893 16.0978 15.6962 16.7628 16.2187C17.4209 16.7359 17.9877 17.3523 18.4475 18.0508C18.9153 18.7615 19.2597 19.5384 19.4711 20.36V20.36C19.5755 20.7558 20.0549 20.9066 20.3488 20.6218C20.3946 20.5774 20.44 20.5327 20.4852 20.4875C21.587 19.3856 22.4521 18.1022 23.0565 16.673C23.6825 15.1929 23.9999 13.6211 23.9999 12.0013C23.9999 10.3815 23.6825 8.80974 23.0565 7.3296Z" fill="var(--fill-0, #E5E7EB)"/>
<path id="Vector_2" d="M19.4645 20.3573C19.2531 19.5357 18.9087 18.7588 18.4409 18.0481C17.9811 17.3496 17.4143 16.7332 16.7562 16.216C16.0913 15.6935 15.3512 15.2866 14.5567 15.0067C13.7346 14.7171 12.8722 14.5703 11.9934 14.5703C11.1146 14.5703 10.2521 14.7172 9.43006 15.0067C8.6355 15.2866 7.89546 15.6935 7.23051 16.216C6.57242 16.7332 6.00561 17.3496 5.54584 18.0481C5.07803 18.7588 4.73363 19.5357 4.5222 20.3573L4.27236 21.1867C4.39461 21.2897 4.51878 21.39 4.64472 21.4878C5.46388 22.124 6.35991 22.6494 7.32219 23.0565C8.80215 23.6825 10.3738 23.9999 11.9934 23.9999C13.613 23.9999 15.1846 23.6825 16.6645 23.0565C17.706 22.6159 18.6699 22.0367 19.5427 21.3285C19.5917 21.2887 19.6405 21.2486 19.6889 21.208L19.4645 20.3573Z" fill="url(#paint0_linear_322_10017)" fill-opacity="0.8"/>
<path id="Vector_3" d="M15.9589 7.65723C15.743 7.14673 15.4342 6.68844 15.0408 6.29508C14.6475 5.90171 14.1893 5.59278 13.6788 5.37687C13.1499 5.15313 12.5886 5.03969 12.0104 5.03969C11.4322 5.03969 10.8709 5.15313 10.3419 5.37687C9.8315 5.59279 9.37326 5.90171 8.97995 6.29508C8.58664 6.68844 8.27774 7.14673 8.06184 7.65723C7.83813 8.18621 7.7247 8.74762 7.7247 9.32587C7.7247 9.90412 7.83813 10.4655 8.06184 10.9945C8.27774 11.505 8.58663 11.9633 8.97995 12.3567C9.37327 12.75 9.83151 13.0589 10.3419 13.2749C10.8709 13.4986 11.4322 13.6121 12.0104 13.6121C12.5886 13.6121 13.1499 13.4986 13.6788 13.2749C14.1893 13.0589 14.6475 12.75 15.0408 12.3567C15.4342 11.9633 15.743 11.505 15.9589 10.9945C16.1827 10.4655 16.2961 9.90412 16.2961 9.32587C16.2961 8.74762 16.1827 8.18621 15.9589 7.65723Z" fill="var(--fill-0, white)"/>
</g>
<defs>
<linearGradient id="paint0_linear_322_10017" x1="3.40985" y1="17.6404" x2="21.2633" y2="37.7693" gradientUnits="userSpaceOnUse">
<stop stop-color="white"/>
<stop offset="1" stop-color="white" stop-opacity="0.6"/>
</linearGradient>
</defs>
</svg>
