<svg width="24" height="25" viewBox="0 0 24 25" fill="none" xmlns="http://www.w3.org/2000/svg">
<path d="M2 22.7101C2 18.2918 5.58172 14.7101 10 14.7101C14.4183 14.7101 18 18.2918 18 22.7101H16C16 19.3964 13.3137 16.7101 10 16.7101C6.68629 16.7101 4 19.3964 4 22.7101H2ZM10 13.7101C6.685 13.7101 4 11.0251 4 7.71008C4 4.39508 6.685 1.71008 10 1.71008C13.315 1.71008 16 4.39508 16 7.71008C16 11.0251 13.315 13.7101 10 13.7101ZM10 11.7101C12.21 11.7101 14 9.92008 14 7.71008C14 5.50008 12.21 3.71008 10 3.71008C7.79 3.71008 6 5.50008 6 7.71008C6 9.92008 7.79 11.7101 10 11.7101ZM18.2837 15.4129C21.0644 16.6662 23 19.4621 23 22.7101H21C21 20.2741 19.5483 18.1772 17.4628 17.2372L18.2837 15.4129ZM17.5962 4.12329C19.5944 4.94711 21 6.91369 21 9.21008C21 12.0803 18.8042 14.4353 16 14.6877V12.6747C17.6967 12.4323 19 10.9741 19 9.21008C19 7.82943 18.2016 6.63611 17.041 6.06643L17.5962 4.12329Z" fill="#171717"/>
</svg>
