<svg width="42" height="48" viewBox="0 0 42 48" fill="none" xmlns="http://www.w3.org/2000/svg">
    <path d="M27.4775 23.8316L41.2161 15.8408V31.8224L27.4775 23.8316Z" fill="#3A30E5"/>
    <path d="M27.4775 7.99121L41.2161 15.982L27.4775 23.9728V7.99121Z" fill="#3058E5"/>
    <path d="M27.4768 7.99121V23.8326L13.7383 15.8418L27.4768 7.99121Z" fill="#4067EE"/>
    <path d="M27.6174 7.99076L13.8789 15.9816V0L27.6174 7.99076Z" fill="#476EF9"/>
    <path d="M13.7385 15.9814V31.963L0 23.9722L13.7385 15.9814Z" fill="#624AF6"/>
    <path d="M13.7385 0V15.9816L0 7.99076L13.7385 0Z" fill="#4067EE"/>
    <path d="M13.7385 31.8232V47.8048L0 39.814L13.7385 31.8232Z" fill="#7C3AED"/>
    <path d="M27.4775 23.832L41.2161 31.8228L27.4775 39.8136V23.832Z" fill="#4F46E5"/>
    <path d="M0 23.832L13.7385 31.8228L0 39.8136V23.832Z" fill="#814AF7"/>
    <path d="M0 7.99121L13.7385 15.982L0 23.9728V7.99121Z" fill="#3058E5"/>
    <path d="M27.4768 23.832V39.8136L13.7383 31.8228L27.4768 23.832Z" fill="#624AF6"/>
    <path d="M27.4775 23.8316L41.2161 15.8408V31.8224L27.4775 23.8316Z" fill="#3A30E5"/>
    <path d="M27.4775 7.99121L41.2161 15.982L27.4775 23.9728V7.99121Z" fill="#3058E5"/>
    <path d="M27.4768 7.99121V23.8326L13.7383 15.8418L27.4768 7.99121Z" fill="#4067EE"/>
    <path d="M27.6174 7.99076L13.8789 15.9816V0L27.6174 7.99076Z" fill="#476EF9"/>
    <path d="M13.7385 15.9814V31.963L0 23.9722L13.7385 15.9814Z" fill="#624AF6"/>
    <path d="M13.7385 0V15.9816L0 7.99076L13.7385 0Z" fill="#4067EE"/>
    <path d="M13.7385 31.8232V47.8048L0 39.814L13.7385 31.8232Z" fill="#7C3AED"/>
    <path d="M27.4775 23.832L41.2161 31.8228L27.4775 39.8136V23.832Z" fill="#4F46E5"/>
    <path d="M0 23.832L13.7385 31.8228L0 39.8136V23.832Z" fill="#814AF7"/>
    <path d="M0 7.99121L13.7385 15.982L0 23.9728V7.99121Z" fill="#3058E5"/>
    <path d="M27.4768 23.832V39.8136L13.7383 31.8228L27.4768 23.832Z" fill="#624AF6"/>
    <path d="M27.4775 23.8316L41.2161 15.8408V31.8224L27.4775 23.8316Z" fill="#3A30E5"/>
    <path d="M27.4775 7.99121L41.2161 15.982L27.4775 23.9728V7.99121Z" fill="#3058E5"/>
    <path d="M27.4768 7.99121V23.8326L13.7383 15.8418L27.4768 7.99121Z" fill="#4067EE"/>
    <path d="M27.6174 7.99076L13.8789 15.9816V0L27.6174 7.99076Z" fill="#476EF9"/>
    <path d="M13.7385 15.9814V31.963L0 23.9722L13.7385 15.9814Z" fill="#624AF6"/>
    <path d="M13.7385 0V15.9816L0 7.99076L13.7385 0Z" fill="#4067EE"/>
    <path d="M13.7385 31.8232V47.8048L0 39.814L13.7385 31.8232Z" fill="#7C3AED"/>
    <path d="M27.4775 23.832L41.2161 31.8228L27.4775 39.8136V23.832Z" fill="#4F46E5"/>
    <path d="M0 23.832L13.7385 31.8228L0 39.8136V23.832Z" fill="#814AF7"/>
    <path d="M0 7.99121L13.7385 15.982L0 23.9728V7.99121Z" fill="#3058E5"/>
    <path d="M27.4768 23.832V39.8136L13.7383 31.8228L27.4768 23.832Z" fill="#624AF6"/>
</svg>
