<svg width="20" height="20" viewBox="0 0 20 20" fill="none" xmlns="http://www.w3.org/2000/svg">
    <path fill-rule="evenodd" clip-rule="evenodd" d="M10 20C15.5229 20 20 15.5229 20 10C20 4.47714 15.5229 0 10 0C4.47714 0 0 4.47714 0 10C0 15.5229 4.47714 20 10 20ZM13.0751 12.93C13.6533 12.5645 14 11.9529 14 11.2985C14 10.389 13.336 9.59814 12.3943 9.38589L9.57257 8.68549C9.30657 8.62554 9.24283 8.29757 9.46911 8.15323L11.6675 6.75106C12.6907 6.09837 12.9568 4.79034 12.2617 3.82949C12.1748 3.70937 12.0007 3.67814 11.8728 3.75974L6.90669 7.10954C6.33954 7.47129 6 8.07331 6 8.71709C6 9.61566 6.65603 10.397 7.58654 10.6067L10.4542 11.3175C10.7208 11.3776 10.784 11.7067 10.5566 11.8504L8.34209 13.2504C7.31594 13.8991 7.04411 15.2061 7.73494 16.1696C7.82131 16.2901 7.99529 16.322 8.12357 16.2409L13.0751 12.93Z" fill="#5733FF"/>
</svg>
