<svg xmlns="http://www.w3.org/2000/svg" width="33" height="33" viewBox="0 0 33 33" fill="none">
    <path fill-rule="evenodd" clip-rule="evenodd" d="M1.45898 0.183594H31.459C32.0113 0.183594 32.459 0.631309 32.459 1.18359V31.1836C32.459 31.7359 32.0113 32.1836 31.459 32.1836H1.45898C0.9067 32.1836 0.458984 31.7359 0.458984 31.1836V1.18359C0.458984 0.631309 0.9067 0.183594 1.45898 0.183594ZM8.99654 15.7372C9.27484 15.9385 9.66999 15.8724 9.85204 15.6016C10.0533 15.3233 9.98719 14.9281 9.71644 14.7461L7.03639 12.8261C6.94114 12.7526 6.94944 12.6607 6.95359 12.6147C6.95779 12.5688 6.99284 12.4886 7.10814 12.4434L24.9405 7.89698C25.0441 7.87858 25.1051 7.92118 25.1469 7.97128C25.1887 8.0214 25.2305 8.0716 25.1837 8.17848L18.4273 25.2741C18.3874 25.3652 18.3203 25.3866 18.2776 25.4002C18.2701 25.4026 18.2634 25.4047 18.2577 25.407C18.2117 25.4028 18.1198 25.3945 18.063 25.306L16.0207 21.5627C15.9885 21.5088 15.9593 21.4482 15.93 21.3877C15.9008 21.3271 15.8715 21.2666 15.8393 21.2127C15.04 19.3982 14.8382 18.0594 16.3384 16.7405L20.2007 13.1663C20.4629 12.9306 20.4887 12.5437 20.2605 12.3007C20.0249 12.0384 19.638 12.0126 19.3949 12.2408L15.3384 15.7372C13.2944 17.535 13.6348 19.7713 14.9281 22.1679L16.9703 25.9112C17.2312 26.4074 17.7618 26.6871 18.3291 26.6644C18.4786 26.6502 18.6399 26.6092 18.7744 26.5565C19.1394 26.4135 19.4251 26.1243 19.5887 25.75L26.3452 8.65438C26.5481 8.15383 26.4527 7.57068 26.0916 7.15808C25.7305 6.74543 25.1799 6.58433 24.6502 6.70313L6.79864 11.2571C6.25729 11.4026 5.84799 11.8289 5.73289 12.3837C5.61774 12.9385 5.85519 13.4882 6.31649 13.8172L8.99654 15.7372ZM8.15163 20.8842C8.20183 20.8645 8.26218 20.8216 8.30583 20.7852L11.0051 18.4161C11.2334 18.2109 11.2559 17.8741 11.0572 17.6625C10.852 17.4342 10.5153 17.4117 10.3037 17.6104L7.60438 19.9795C7.37608 20.1847 7.35363 20.5215 7.55223 20.7331C7.70433 20.9243 7.93418 20.9693 8.15163 20.8842ZM7.80747 24.6731C7.85772 24.6536 7.91822 24.6109 7.96192 24.5746L12.5494 20.5572C12.7783 20.3527 12.8017 20.016 12.6036 19.8038C12.3991 19.5749 12.0624 19.5515 11.8502 19.7495L7.26277 23.7669C7.03387 23.9715 7.01047 24.3082 7.20852 24.5203C7.35357 24.6953 7.60652 24.7512 7.80747 24.6731Z" fill="#0E7EE8"/>
</svg>
