<svg width="190" height="142" viewBox="0 0 190 142" fill="none" xmlns="http://www.w3.org/2000/svg">
<g clip-path="url(#clip0_468_40603)">
<path d="M190 124.43H0V124.525H190V124.43Z" fill="#EBEBEB"/>
<path d="M170.961 130.546H158.375V130.641H170.961V130.546Z" fill="#EBEBEB"/>
<path d="M125.864 131.577H122.561V131.672H125.864V131.577Z" fill="#EBEBEB"/>
<path d="M157.996 127.017H150.703V127.112H157.996V127.017Z" fill="#EBEBEB"/>
<path d="M36.3471 127.656H19.9336V127.751H36.3471V127.656Z" fill="#EBEBEB"/>
<path d="M42.137 127.656H39.7305V127.751H42.137V127.656Z" fill="#EBEBEB"/>
<path d="M85.5558 129.26H49.959V129.355H85.5558V129.26Z" fill="#EBEBEB"/>
<path d="M90.0641 107.482H16.6866C16.1116 107.481 15.5602 107.253 15.1536 106.846C14.747 106.439 14.5182 105.888 14.5176 105.313V2.16889C14.5183 1.59385 14.747 1.04256 15.1536 0.635953C15.5603 0.229351 16.1116 0.00064162 16.6866 0H90.0641C90.6391 0.000715074 91.1903 0.229459 91.5969 0.636056C92.0034 1.04265 92.2321 1.5939 92.2328 2.16889V105.313C92.2322 105.888 92.0035 106.439 91.5969 106.846C91.1904 107.252 90.6391 107.481 90.0641 107.482ZM16.6866 0.095C16.1368 0.0955944 15.6096 0.31428 15.2208 0.703076C14.8319 1.09187 14.6132 1.61903 14.6126 2.16889V105.313C14.6132 105.863 14.8319 106.39 15.2207 106.779C15.6095 107.168 16.1367 107.386 16.6866 107.387H90.0641C90.614 107.386 91.1411 107.168 91.5298 106.779C91.9186 106.39 92.1372 105.863 92.1378 105.313V2.16889C92.1372 1.61908 91.9185 1.09197 91.5298 0.703179C91.141 0.314388 90.6139 0.0956668 90.0641 0.095H16.6866Z" fill="#EBEBEB"/>
<path d="M172.257 107.482H98.8796C98.3046 107.481 97.7533 107.252 97.3468 106.846C96.9402 106.439 96.7116 105.888 96.7109 105.313V2.16889C96.7116 1.5939 96.9403 1.04265 97.3468 0.636056C97.7534 0.229459 98.3046 0.000715074 98.8796 0H172.257C172.832 0.000633571 173.383 0.229339 173.79 0.635942C174.197 1.04254 174.425 1.59384 174.426 2.16889V105.313C174.425 105.888 174.197 106.439 173.79 106.846C173.383 107.253 172.832 107.481 172.257 107.482ZM98.8796 0.095C98.3298 0.0956668 97.8027 0.314388 97.414 0.703179C97.0252 1.09197 96.8065 1.61908 96.8059 2.16889V105.313C96.8065 105.863 97.0251 106.39 97.4139 106.779C97.8027 107.168 98.3298 107.386 98.8796 107.387H172.257C172.807 107.386 173.334 107.168 173.723 106.779C174.112 106.39 174.331 105.863 174.331 105.313V2.16889C174.33 1.61902 174.112 1.09186 173.723 0.703065C173.334 0.314268 172.807 0.0955863 172.257 0.095H98.8796Z" fill="#EBEBEB"/>
<path d="M68.0693 71.3364L156.113 71.3364V12.7914L68.0693 12.7914L68.0693 71.3364Z" fill="#E6E6E6"/>
<path d="M66.708 71.3364L154.752 71.3364V12.7914L66.708 12.7914L66.708 71.3364Z" fill="#F5F5F5"/>
<path d="M152.307 68.589V15.5391L69.1547 15.5391V68.589H152.307Z" fill="white"/>
<path d="M70.1836 68.589V15.5391H69.1535V68.589H70.1836Z" fill="#E6E6E6"/>
<path d="M67.7197 55.7891L153.74 55.7891V52.1006L67.7197 52.1006V55.7891Z" fill="#F5F5F5"/>
<g opacity="0.4">
<path d="M72.2909 9.90088H63.9785V59.4316H72.2909V9.90088Z" fill="#E6E6E6"/>
<path d="M72.2914 55.4517H76.4121V9.90106H72.2914V55.4517Z" fill="#F5F5F5"/>
<path d="M84.7245 9.90088H76.4121V59.4316H84.7245V9.90088Z" fill="#E6E6E6"/>
<path d="M84.7231 55.4517H88.8438V9.90106H84.7231V55.4517Z" fill="#F5F5F5"/>
<path d="M97.1561 9.90088H88.8438V59.4316H97.1561V9.90088Z" fill="#E6E6E6"/>
<path d="M97.1567 55.4517H101.277V9.90106H97.1567V55.4517Z" fill="#F5F5F5"/>
<path d="M109.59 9.90088H101.277V59.4316H109.59V9.90088Z" fill="#E6E6E6"/>
<path d="M109.59 55.4517H113.711V9.90106H109.59V55.4517Z" fill="#F5F5F5"/>
<path d="M122.023 9.90088H113.711V59.4316H122.023V9.90088Z" fill="#E6E6E6"/>
<path d="M122.024 55.4517H126.145V9.90106H122.024V55.4517Z" fill="#F5F5F5"/>
<path d="M134.457 9.90088H126.145V59.4316H134.457V9.90088Z" fill="#E6E6E6"/>
<path d="M134.456 55.4517H138.576V9.90106H134.456V55.4517Z" fill="#F5F5F5"/>
<path d="M146.889 9.90088H138.576V59.4316H146.889V9.90088Z" fill="#E6E6E6"/>
<path d="M146.889 55.4517H151.01V9.90106H146.889V55.4517Z" fill="#F5F5F5"/>
<path d="M159.322 9.90088H151.01V59.4316H159.322V9.90088Z" fill="#E6E6E6"/>
</g>
<path d="M31.4617 124.43H50.9512L50.9512 84.3783H31.4617L31.4617 124.43Z" fill="#EBEBEB"/>
<path d="M35.1625 124.429H31.4609V116.273H39.0438L35.1625 124.429Z" fill="#F5F5F5"/>
<path d="M142.663 124.43H162.152V84.3783H142.663V124.43Z" fill="#EBEBEB"/>
<path d="M31.4624 119.424L145.895 119.424V84.3779L31.4624 84.3779V119.424Z" fill="#F5F5F5"/>
<path d="M142.089 109.537H108.167C108.126 109.537 108.086 109.529 108.048 109.513C108.01 109.498 107.976 109.475 107.947 109.446C107.918 109.417 107.895 109.383 107.879 109.345C107.864 109.307 107.855 109.266 107.855 109.225V87.0487C107.855 87.0077 107.864 86.9672 107.879 86.9294C107.895 86.8915 107.918 86.8571 107.947 86.8282C107.976 86.7992 108.01 86.7762 108.048 86.7606C108.086 86.7449 108.126 86.7368 108.167 86.7368H114.432C114.498 86.7368 114.563 86.7583 114.617 86.7979C115.548 87.4789 116.58 88.0084 117.676 88.3669C118.997 88.8047 120.381 89.0254 121.773 89.0204H128.484C131.045 89.0584 133.551 88.28 135.64 86.7981C135.693 86.7583 135.758 86.7368 135.825 86.7368H142.089C142.13 86.7368 142.171 86.7449 142.209 86.7606C142.246 86.7762 142.281 86.7992 142.31 86.8282C142.339 86.8571 142.362 86.8915 142.377 86.9294C142.393 86.9672 142.401 87.0077 142.401 87.0487V109.225C142.401 109.266 142.393 109.307 142.377 109.345C142.362 109.383 142.339 109.417 142.31 109.446C142.281 109.475 142.246 109.498 142.209 109.513C142.171 109.529 142.13 109.537 142.089 109.537ZM108.479 108.914H141.778V87.3605H135.927C133.746 88.8815 131.143 89.6801 128.484 89.6442H121.773C120.314 89.6492 118.864 89.4176 117.479 88.9585C116.354 88.5897 115.292 88.0508 114.33 87.3605H108.479V108.914Z" fill="#E6E6E6"/>
<path d="M105.636 109.537H71.7141C71.6731 109.537 71.6326 109.529 71.5948 109.513C71.5569 109.498 71.5226 109.475 71.4936 109.446C71.4647 109.417 71.4417 109.383 71.426 109.345C71.4104 109.307 71.4023 109.266 71.4023 109.225V87.0487C71.4023 87.0077 71.4104 86.9672 71.426 86.9293C71.4417 86.8915 71.4647 86.8571 71.4936 86.8282C71.5226 86.7992 71.5569 86.7762 71.5948 86.7606C71.6326 86.7449 71.6731 86.7368 71.7141 86.7368H77.6386C77.7054 86.7368 77.7704 86.7582 77.8242 86.7979C78.7539 87.4799 79.7864 88.0094 80.8827 88.3667C82.2041 88.8047 83.5878 89.0254 84.9799 89.0204H91.6908C94.2492 89.0577 96.7529 88.2794 98.8392 86.7981C98.8928 86.7583 98.9579 86.7368 99.0247 86.7368H105.636C105.677 86.7368 105.718 86.7449 105.756 86.7606C105.794 86.7762 105.828 86.7992 105.857 86.8282C105.886 86.8571 105.909 86.8915 105.925 86.9294C105.94 86.9672 105.948 87.0077 105.948 87.0487V109.225C105.948 109.266 105.94 109.307 105.925 109.345C105.909 109.383 105.886 109.417 105.857 109.446C105.828 109.475 105.794 109.498 105.756 109.513C105.718 109.529 105.677 109.537 105.636 109.537ZM72.0258 108.914H105.325V87.3605H99.1268C96.948 88.8808 94.3473 89.6795 91.6908 89.6442H84.9799C83.5208 89.6492 82.0706 89.4176 80.6856 88.9585C79.56 88.5909 78.4978 88.0519 77.5365 87.3605H72.0258V108.914Z" fill="#E6E6E6"/>
<path d="M69.1849 109.537H35.2629C35.2219 109.537 35.1814 109.529 35.1436 109.513C35.1057 109.498 35.0714 109.475 35.0424 109.446C35.0135 109.417 34.9905 109.383 34.9749 109.345C34.9592 109.307 34.9512 109.266 34.9512 109.225V87.0487C34.9512 87.0077 34.9592 86.9672 34.9749 86.9293C34.9905 86.8915 35.0135 86.8571 35.0424 86.8282C35.0714 86.7992 35.1057 86.7762 35.1436 86.7606C35.1814 86.7449 35.2219 86.7368 35.2629 86.7368H41.187C41.2537 86.7368 41.3186 86.7582 41.3722 86.7979C42.303 87.4787 43.3355 88.0082 44.4315 88.3669C45.7528 88.8047 47.1364 89.0254 48.5284 89.0204H55.2392C57.8 89.0584 60.3063 88.28 62.395 86.7981C62.4487 86.7583 62.5137 86.7368 62.5806 86.7368H69.1849C69.2259 86.7368 69.2664 86.7449 69.3042 86.7606C69.3421 86.7762 69.3764 86.7992 69.4054 86.8282C69.4343 86.8571 69.4573 86.8915 69.4729 86.9293C69.4886 86.9672 69.4966 87.0077 69.4966 87.0487V109.225C69.4966 109.266 69.4886 109.307 69.4729 109.345C69.4573 109.383 69.4343 109.417 69.4054 109.446C69.3764 109.475 69.3421 109.498 69.3042 109.513C69.2664 109.529 69.2259 109.537 69.1849 109.537ZM35.5746 108.914H68.8732V87.3605H62.6826C60.5014 88.8815 57.8981 89.6801 55.2392 89.6442H48.5284C47.0693 89.6492 45.619 89.4176 44.2341 88.9585C43.109 88.5897 42.047 88.0508 41.085 87.3605H35.5746V108.914Z" fill="#E6E6E6"/>
<path d="M142.192 124.429H145.893V116.273H138.311L142.192 124.429Z" fill="#F5F5F5"/>
<path d="M54.6977 77.6677L51.6233 77.6678C51.6441 75.5384 51.6132 70.1373 51.4055 57.7588C51.0322 35.3223 50.3164 33.9546 50.3164 33.9546L53.9692 45.0279C54.8348 47.6325 55.3391 50.3435 55.4682 53.0851C55.8545 61.7174 54.3467 68.6108 54.6977 77.6677Z" fill="#E6E6E6"/>
<path d="M57.0335 41.6899C61.1336 35.4842 69.3196 32.2459 77.686 29.1972C80.9707 28.0002 71.7514 42.8486 65.0489 49.5796C59.8421 54.8085 54.809 54.6917 53.2964 59.8603C53.0067 53.8608 53.5007 47.0371 57.0335 41.6899Z" fill="#E6E6E6"/>
<path d="M52.3356 37.7054C49.1226 30.4485 41.0007 21.0365 31.8724 14.4058C28.2885 11.8025 37.1316 34.1489 43.3689 43.306C48.2248 50.4349 52.756 54.7747 53.461 59.8604C56.5226 53.4984 55.5485 44.9623 52.3356 37.7054Z" fill="#E6E6E6"/>
<path d="M52.6394 84.3781C54.3772 84.3781 56.0491 83.7135 57.3126 82.5205C58.5762 81.3276 59.3357 79.6965 59.4354 77.9617L60.0367 71.8081H45.2422L45.8434 77.9617C45.9432 79.6965 46.7027 81.3276 47.9662 82.5205C49.2297 83.7135 50.9017 84.3781 52.6394 84.3781Z" fill="#F0F0F0"/>
<path d="M44.2851 71.8405H60.9956L61.474 69.6548H43.8066L44.2851 71.8405Z" fill="#F0F0F0"/>
<path d="M45.1075 75.5892H60.171L60.6027 73.4038H44.6758L45.1075 75.5892Z" fill="#F0F0F0"/>
<path d="M95.0002 141.591C135.691 141.591 168.678 139.665 168.678 137.288C168.678 134.912 135.691 132.985 95.0002 132.985C54.309 132.985 21.3223 134.912 21.3223 137.288C21.3223 139.665 54.309 141.591 95.0002 141.591Z" fill="#F5F5F5"/>
<path d="M154.009 100.085H35.9922V113.445H154.009V100.085Z" fill="#407BFF"/>
<path opacity="0.3" d="M154.008 100.085H128.693V113.445H154.008V100.085Z" fill="black"/>
<path d="M49.0206 113.445H35.9922V137.289H49.0206V113.445Z" fill="#407BFF"/>
<path opacity="0.3" d="M35.9922 113.445V114.778L45.2205 117.565V137.288H49.0205V113.445H35.9922Z" fill="black"/>
<path d="M154.009 113.445H140.98V137.289H154.009V113.445Z" fill="#407BFF"/>
<path opacity="0.2" d="M154.009 113.445H140.98V137.289H154.009V113.445Z" fill="black"/>
<path opacity="0.3" d="M140.98 113.445V114.778L150.209 117.565V137.288H154.009V113.445H140.98Z" fill="black"/>
<path d="M128.695 113.445H115.666V137.289H128.695V113.445Z" fill="#407BFF"/>
<path opacity="0.3" d="M115.666 113.445V114.778L124.895 117.565V137.288H128.695V113.445H115.666Z" fill="black"/>
<path d="M74.3371 113.445H61.3086V137.289H74.3371V113.445Z" fill="#407BFF"/>
<path opacity="0.2" d="M74.3371 113.445H61.3086V137.289H74.3371V113.445Z" fill="black"/>
<path opacity="0.3" d="M61.3066 113.445V114.778L70.5353 117.565V137.288H74.3353V113.445H61.3066Z" fill="black"/>
<path d="M137.741 97.4565H65.5894C65.3645 97.4587 65.1416 97.4142 64.9348 97.3258C64.7281 97.2374 64.5419 97.1071 64.3881 96.9429C64.2344 96.7788 64.1164 96.5846 64.0416 96.3725C63.9668 96.1604 63.9369 95.9351 63.9538 95.7108L66.9265 48.5544C66.9627 48.0845 67.173 47.645 67.5163 47.3221C67.8595 46.9992 68.311 46.8161 68.7822 46.8087H140.934C141.159 46.8064 141.382 46.8509 141.588 46.9393C141.795 47.0277 141.981 47.1581 142.135 47.3222C142.289 47.4863 142.407 47.6806 142.482 47.8927C142.556 48.1048 142.586 48.3301 142.569 48.5544L139.597 95.7108C139.56 96.1807 139.35 96.6201 139.007 96.943C138.664 97.2659 138.212 97.4491 137.741 97.4565Z" fill="#263238"/>
<path opacity="0.6" d="M137.741 97.4565H65.5894C65.3645 97.4587 65.1416 97.4142 64.9348 97.3258C64.7281 97.2374 64.5419 97.1071 64.3881 96.9429C64.2344 96.7788 64.1164 96.5846 64.0416 96.3725C63.9668 96.1604 63.9369 95.9351 63.9538 95.7108L66.9265 48.5544C66.9627 48.0845 67.173 47.645 67.5163 47.3221C67.8595 46.9992 68.311 46.8161 68.7822 46.8087H140.934C141.159 46.8064 141.382 46.8509 141.588 46.9393C141.795 47.0277 141.981 47.1581 142.135 47.3222C142.289 47.4863 142.407 47.6806 142.482 47.8927C142.556 48.1048 142.586 48.3301 142.569 48.5544L139.597 95.7108C139.56 96.1807 139.35 96.6201 139.007 96.943C138.664 97.2659 138.212 97.4491 137.741 97.4565Z" fill="black"/>
<path d="M137.202 97.4565H65.0503C64.8254 97.4587 64.6026 97.4142 64.3958 97.3258C64.189 97.2374 64.0028 97.1071 63.8491 96.9429C63.6953 96.7788 63.5773 96.5846 63.5025 96.3725C63.4278 96.1604 63.3979 95.9351 63.4147 95.7108L66.3874 48.5544C66.4236 48.0845 66.6339 47.645 66.9772 47.3221C67.3205 46.9992 67.7719 46.8161 68.2431 46.8087H140.395C140.62 46.8064 140.842 46.8509 141.049 46.9393C141.256 47.0277 141.442 47.1581 141.596 47.3222C141.75 47.4863 141.868 47.6806 141.942 47.8927C142.017 48.1048 142.047 48.3301 142.03 48.5544L139.058 95.7108C139.021 96.1807 138.811 96.6201 138.468 96.943C138.125 97.2659 137.673 97.449 137.202 97.4565Z" fill="#263238"/>
<path d="M137.11 98.0498H51.2565C50.8639 98.049 50.479 98.159 50.146 98.3671C49.8131 98.5752 49.5456 98.8731 49.3743 99.2264C49.3306 99.3185 49.3111 99.4203 49.3176 99.5222C49.3242 99.624 49.3565 99.7224 49.4116 99.8083C49.4667 99.8941 49.5428 99.9646 49.6326 100.013C49.7224 100.061 49.8231 100.086 49.9251 100.085H138.442C138.544 100.086 138.644 100.061 138.734 100.013C138.824 99.9646 138.9 99.8941 138.955 99.8083C139.01 99.7224 139.043 99.624 139.049 99.5222C139.056 99.4203 139.036 99.3185 138.992 99.2264C138.821 98.8731 138.554 98.5752 138.221 98.3671C137.888 98.159 137.503 98.049 137.11 98.0498Z" fill="#263238"/>
<path opacity="0.6" d="M137.11 98.0498H124.901C124.508 98.049 124.123 98.159 123.791 98.3671C123.458 98.5752 123.19 98.8731 123.019 99.2264C122.975 99.3185 122.956 99.4203 122.962 99.5222C122.969 99.624 123.001 99.7224 123.056 99.8083C123.111 99.8941 123.187 99.9646 123.277 100.013C123.367 100.061 123.468 100.086 123.57 100.085H138.442C138.544 100.086 138.644 100.061 138.734 100.013C138.824 99.9646 138.9 99.8941 138.955 99.8083C139.01 99.7224 139.043 99.624 139.049 99.5222C139.056 99.4203 139.036 99.3185 138.993 99.2264C138.821 98.8731 138.554 98.5752 138.221 98.3671C137.888 98.159 137.503 98.049 137.11 98.0498Z" fill="black"/>
<path d="M129.539 99.538H126.388C126.315 99.5378 126.245 99.5086 126.193 99.4567C126.141 99.4047 126.112 99.3344 126.111 99.261C126.112 99.1876 126.141 99.1172 126.193 99.0653C126.245 99.0134 126.315 98.9841 126.388 98.9839H129.539C129.613 98.9841 129.683 99.0134 129.735 99.0653C129.787 99.1172 129.816 99.1876 129.816 99.261C129.816 99.3344 129.787 99.4047 129.735 99.4567C129.683 99.5086 129.613 99.5378 129.539 99.538Z" fill="#407BFF"/>
<path opacity="0.7" d="M88.9826 99.538H85.8318C85.7584 99.5378 85.688 99.5086 85.6361 99.4567C85.5842 99.4047 85.5549 99.3344 85.5547 99.261C85.5549 99.1876 85.5842 99.1172 85.6361 99.0653C85.688 99.0134 85.7584 98.9841 85.8318 98.9839H88.9826C89.0561 98.9841 89.1264 99.0134 89.1783 99.0653C89.2302 99.1172 89.2595 99.1876 89.2597 99.261C89.2595 99.3344 89.2302 99.4047 89.1783 99.4566C89.1264 99.5086 89.056 99.5378 88.9826 99.538Z" fill="white"/>
<path d="M130.742 98.9839H132.803C132.863 98.9839 132.921 99.0079 132.964 99.0508C133.007 99.0936 133.031 99.1517 133.031 99.2123V99.3096C133.031 99.3702 133.007 99.4283 132.964 99.4711C132.921 99.514 132.863 99.538 132.803 99.538H130.742C130.682 99.538 130.623 99.514 130.581 99.4711C130.538 99.4283 130.514 99.3702 130.514 99.3096V99.2123C130.514 99.1517 130.538 99.0936 130.581 99.0508C130.623 99.0079 130.681 98.9839 130.742 98.9839Z" fill="#407BFF"/>
<path d="M65.0408 94.0054L67.7985 50.2594C67.8127 50.0765 67.8946 49.9053 68.0283 49.7796C68.1619 49.6538 68.3378 49.5825 68.5213 49.5796H139.765C139.853 49.5788 139.94 49.5961 140.02 49.6305C140.101 49.6649 140.173 49.7157 140.233 49.7796C140.293 49.8435 140.339 49.9192 140.368 50.0018C140.397 50.0844 140.409 50.1721 140.402 50.2594L137.645 94.0054C137.631 94.1884 137.549 94.3595 137.415 94.4853C137.281 94.611 137.105 94.6823 136.922 94.6852H65.6778C65.5903 94.6861 65.5034 94.6688 65.4229 94.6344C65.3424 94.5999 65.2699 94.5491 65.21 94.4852C65.1501 94.4213 65.1042 94.3457 65.075 94.2631C65.0459 94.1805 65.0343 94.0927 65.0408 94.0054Z" fill="white"/>
<path opacity="0.1" d="M105.571 48.2319L81.8402 93.338H64.3336C64.2458 93.3392 64.1588 93.3221 64.078 93.2877C63.9972 93.2534 63.9245 93.2026 63.8644 93.1386C63.8044 93.0746 63.7583 92.9988 63.7292 92.916C63.7 92.8332 63.6885 92.7453 63.6952 92.6578L66.4539 48.9121C66.4683 48.7293 66.5501 48.5584 66.6836 48.4326C66.8171 48.3069 66.9926 48.2353 67.176 48.2319H105.571Z" fill="#407BFF"/>
<path opacity="0.1" d="M126.352 48.2319L102.621 93.3383H97.0879L120.819 48.2319H126.352Z" fill="#407BFF"/>
<path opacity="0.1" d="M139.057 48.9122L136.298 92.6578C136.284 92.8409 136.203 93.0122 136.069 93.1381C135.935 93.264 135.76 93.3353 135.576 93.338H108.607L132.338 48.232H138.418C138.506 48.2311 138.593 48.2484 138.674 48.2829C138.754 48.3173 138.827 48.3681 138.887 48.432C138.947 48.4959 138.993 48.5716 139.022 48.6543C139.051 48.7369 139.063 48.8247 139.057 48.9122Z" fill="#407BFF"/>
<path opacity="0.4" d="M104.738 48.2699C104.727 48.4078 104.666 48.5368 104.565 48.6315C104.464 48.7262 104.332 48.7797 104.194 48.7815C104.128 48.7824 104.062 48.7695 104.002 48.7436C103.941 48.7178 103.886 48.6796 103.841 48.6315C103.796 48.5833 103.762 48.5263 103.74 48.4641C103.718 48.4018 103.709 48.3357 103.714 48.2699C103.725 48.1321 103.786 48.0031 103.887 47.9084C103.987 47.8137 104.12 47.7601 104.258 47.7583C104.324 47.7575 104.39 47.7704 104.45 47.7962C104.511 47.8221 104.566 47.8603 104.611 47.9084C104.656 47.9565 104.69 48.0136 104.712 48.0758C104.734 48.1381 104.743 48.2042 104.738 48.2699Z" fill="white"/>
<path d="M92.9655 37.7879C90.8883 40.1665 89.6874 47.4568 91.2276 51.0457C92.7678 54.6346 74.9078 58.2234 89.6433 64.0501C104.379 69.8768 116.159 63.1212 111.894 57.0834C107.63 51.0457 112.354 40.9915 107.418 38.4534C102.955 36.1584 97.1321 33.0168 92.9655 37.7879Z" fill="#263238"/>
<path d="M88.5624 67.1484C87.7817 69.8249 86.9592 72.4862 86.0949 75.1323C85.2282 77.7821 84.3426 80.4211 83.3962 83.0641L83.0355 84.0576L82.8525 84.5562L82.796 84.7063L82.7062 84.9281C82.6407 85.082 82.5673 85.2323 82.4862 85.3786C82.1137 86.0559 81.5602 86.6163 80.8876 86.9973C80.2741 87.3279 79.5906 87.5076 78.8937 87.5215C77.9175 87.5247 76.9504 87.3347 76.048 86.9622C75.3093 86.6634 74.594 86.3098 73.9079 85.9046C71.416 84.3737 69.1323 82.5275 67.1133 80.4117L68.7513 78.4808C69.3038 78.8326 69.8891 79.2088 70.4626 79.5628C71.0403 79.919 71.6275 80.2571 72.2066 80.5964C73.3386 81.2589 74.507 81.8569 75.7064 82.3877C76.2524 82.6286 76.8158 82.828 77.3918 82.9842C77.7912 83.1164 78.2134 83.1652 78.6324 83.1279C78.7404 83.108 78.7181 83.0674 78.6301 83.1019C78.5374 83.1295 78.4473 83.2331 78.4425 83.2229C78.4379 83.213 78.4406 83.2219 78.4404 83.2002C78.4409 83.1929 78.4421 83.1856 78.444 83.1785L78.4728 83.0822L78.6188 82.5913L78.9085 81.6032L81.2335 73.6234C82.0227 70.9625 82.8357 68.3078 83.6725 65.6592L88.5624 67.1484Z" fill="#B65B52"/>
<path d="M68.6362 78.4122L64.2344 76.7715L65.9879 81.435C65.9879 81.435 69.1016 81.885 70.3102 80.2457L69.3255 78.9285C69.1501 78.6938 68.9108 78.5146 68.6362 78.4122Z" fill="#B55B52"/>
<path d="M60.3223 78.1362L62.0019 81.9609L65.9873 81.4353L64.2336 76.772L60.3223 78.1362Z" fill="#B55B52"/>
<path d="M85.3381 60.2673C83.3189 60.7815 81.9062 69.0912 81.9062 69.0912L87.4708 72.8754C87.4708 72.8754 92.806 64.4923 91.2527 62.2722C89.635 59.9601 88.2849 59.517 85.3381 60.2673Z" fill="#407BFF"/>
<path opacity="0.5" d="M85.3381 60.2673C83.3189 60.7815 81.9062 69.0912 81.9062 69.0912L87.4708 72.8754C87.4708 72.8754 92.806 64.4923 91.2527 62.2722C89.635 59.9601 88.2849 59.517 85.3381 60.2673Z" fill="white"/>
<path opacity="0.2" d="M85.1561 63.2881L89.4787 64.2893L89.8932 68.515C89.1603 70.0086 88.3518 71.4638 87.4708 72.8752L84.0957 70.582C84.2411 68.6388 84.6071 64.6016 85.1561 63.2881Z" fill="black"/>
<path d="M85.3384 60.2674C85.3384 60.2674 83.0044 61.0895 87.6799 89.8378H107.578C107.244 81.7393 107.235 76.7455 111.106 60.1254C108.32 59.5501 105.496 59.1781 102.656 59.0121C99.3074 58.8507 96.5639 58.7438 93.6203 59.0125C89.7394 59.3666 85.3384 60.2674 85.3384 60.2674Z" fill="#407BFF"/>
<path opacity="0.5" d="M85.3384 60.2674C85.3384 60.2674 83.0044 61.0895 87.6799 89.8378H107.578C107.244 81.7393 107.235 76.7455 111.106 60.1254C108.32 59.5501 105.496 59.1781 102.656 59.0121C99.3074 58.8507 96.5639 58.7438 93.6203 59.0125C89.7394 59.3666 85.3384 60.2674 85.3384 60.2674Z" fill="white"/>
<path opacity="0.2" d="M106.424 67.8418L108.991 70.0272C108.442 72.9341 108.076 75.3564 107.839 77.5096C107.36 75.351 106.138 69.4943 106.424 67.8418Z" fill="black"/>
<path d="M101.759 48.8384C101.189 51.7456 100.621 57.0724 102.655 59.0123C102.655 59.0123 100.767 63.368 95.7193 63.368C90.6717 63.368 93.619 59.0127 93.619 59.0127C96.8609 58.2385 96.7773 55.8332 96.2125 53.5743L101.759 48.8384Z" fill="#B55B52"/>
<path d="M102.008 57.9246C101.529 58.8943 99.9887 61.1119 95.6769 61.8988C95.5582 61.9225 95.4349 61.8985 95.3337 61.8318C94.5255 61.268 94.0272 60.0805 94.3802 58.7022C94.4037 58.6174 94.4031 58.5277 94.3783 58.4433C94.3536 58.3588 94.3057 58.283 94.2402 58.2243C94.1746 58.1656 94.0939 58.1265 94.0073 58.1112C93.9206 58.0959 93.8314 58.1052 93.7498 58.1379C93.4185 58.2777 93.1003 58.4464 92.7987 58.6421C92.7324 58.6853 92.6784 58.7448 92.6419 58.8149C92.3285 59.409 91.0518 62.3101 94.9039 64.0994C94.9648 64.1279 95.031 64.1435 95.0983 64.1451C97.3603 64.1926 101.363 63.7456 103.884 59.1989C103.929 59.1171 103.949 59.0237 103.941 58.9306C103.934 58.8374 103.899 58.7484 103.841 58.6749C103.504 58.3041 103.111 57.9879 102.676 57.7374C102.621 57.7026 102.559 57.6798 102.494 57.6704C102.43 57.661 102.364 57.6652 102.301 57.6829C102.238 57.7005 102.179 57.7311 102.129 57.7728C102.078 57.8144 102.037 57.8661 102.008 57.9246Z" fill="#FAFAFA"/>
<path d="M103.068 69.8881L97.9376 69.7396C97.8844 69.7384 97.8319 69.7264 97.7835 69.7042C97.7351 69.682 97.6918 69.6501 97.6563 69.6105C97.6207 69.5708 97.5936 69.5244 97.5767 69.4739C97.5599 69.4234 97.5535 69.3699 97.5581 69.3169L97.6076 68.685C97.6176 68.5748 97.6689 68.4724 97.7512 68.3985C97.8336 68.3245 97.9408 68.2844 98.0515 68.2862L103.181 68.4348C103.235 68.4359 103.287 68.448 103.336 68.4702C103.384 68.4924 103.427 68.5243 103.463 68.5639C103.498 68.6035 103.525 68.65 103.542 68.7005C103.559 68.751 103.566 68.8044 103.561 68.8574L103.511 69.4893C103.501 69.5995 103.45 69.7019 103.368 69.7759C103.285 69.8498 103.178 69.8899 103.068 69.8881Z" fill="#FAFAFA"/>
<path opacity="0.2" d="M99.4997 50.7705L96.2168 53.5715C96.3563 54.0969 96.4495 54.6336 96.4954 55.1753C97.7339 54.9963 99.4352 53.6368 99.5667 52.34C99.6397 51.8171 99.617 51.2853 99.4997 50.7705Z" fill="black"/>
<path d="M105.592 43.3458C104.675 48.121 104.388 50.1617 101.638 52.3182C97.5011 55.5619 91.8366 53.3906 91.3089 48.4376C90.834 43.9793 92.4142 36.9193 97.3732 35.6126C98.4653 35.319 99.6142 35.3096 100.711 35.5852C101.808 35.8608 102.816 36.4123 103.639 37.1872C104.463 37.9621 105.075 38.9347 105.416 40.0126C105.758 41.0905 105.819 42.2379 105.592 43.3458Z" fill="#B55B52"/>
<path d="M102.872 39.8039C102.281 42.7956 102.141 46.7705 104.896 46.7705C107.651 46.7705 109.782 42.106 107.418 38.4532C105.055 34.8005 103.22 38.0405 102.872 39.8039Z" fill="#263238"/>
<path d="M107.609 40.1733C107.61 43.4244 103.514 41.8168 101.698 40.4145C99.8824 39.0122 99.7823 39.1661 96.4413 39.1599C93.1004 39.1537 92.4091 38.9277 91.4169 37.3233C90.4247 35.7188 90.5138 34.6633 92.7492 35.001C94.9847 35.3388 93.1058 33.0588 94.7735 31.7922C96.4413 30.5255 98.4079 30.8457 100.685 33.7344C102.961 36.6231 107.607 34.5358 107.609 40.1733Z" fill="#263238"/>
<path d="M106.402 47.5856C106.833 46.1152 106.41 44.6968 105.457 44.4176C104.505 44.1384 103.383 45.104 102.952 46.5744C102.521 48.0448 102.944 49.4632 103.897 49.7424C104.849 50.0216 105.971 49.056 106.402 47.5856Z" fill="white"/>
<path d="M98.7821 51.2634C97.9013 51.2624 97.0297 51.0837 96.2196 50.738C96.1849 50.7232 96.1574 50.6952 96.1432 50.6602C96.129 50.6251 96.1294 50.5859 96.1441 50.5511C96.1589 50.5163 96.1869 50.4888 96.2219 50.4747C96.257 50.4605 96.2962 50.4609 96.331 50.4756C97.0952 50.8029 97.9173 50.9737 98.7486 50.9782C99.58 50.9826 100.404 50.8205 101.172 50.5015C101.92 50.1975 102.6 49.7467 103.172 49.1756C103.743 48.6045 104.195 47.9248 104.5 47.1765C105.651 43.9134 106.803 39.8365 105.456 37.3096C105.185 36.8151 104.811 36.385 104.358 36.0485C103.906 35.712 103.387 35.4771 102.835 35.3598C102.817 35.3552 102.8 35.347 102.785 35.3358C102.77 35.3245 102.757 35.3104 102.748 35.2943C102.738 35.2781 102.732 35.2603 102.729 35.2417C102.726 35.2231 102.727 35.2042 102.732 35.186C102.737 35.1678 102.745 35.1508 102.756 35.1358C102.768 35.1208 102.782 35.1082 102.798 35.0987C102.814 35.0892 102.832 35.083 102.851 35.0804C102.869 35.0779 102.888 35.079 102.906 35.0838C103.496 35.2104 104.052 35.4628 104.535 35.8238C105.019 36.1847 105.419 36.6458 105.707 37.1755C107.107 39.8005 105.939 43.9532 104.766 47.2777C104.447 48.0624 103.975 48.7752 103.376 49.3742C102.777 49.9732 102.065 50.4461 101.28 50.765C100.488 51.0931 99.6394 51.2624 98.7821 51.2634Z" fill="white"/>
<path opacity="0.6" d="M106.268 47.6004C105.929 48.7559 105.153 49.5453 104.533 49.3637C103.913 49.182 103.685 48.0981 104.024 46.9426C104.363 45.7871 105.14 44.9977 105.759 45.1793C106.379 45.361 106.607 46.445 106.268 47.6004Z" fill="#407BFF"/>
<path d="M95.1444 49.8156L96.6311 50.1024C96.757 50.1267 96.868 50.1999 96.9398 50.3061C97.0117 50.4122 97.0384 50.5426 97.0141 50.6684L96.998 50.7517C96.9737 50.8776 96.9005 50.9886 96.7943 51.0604C96.6882 51.1323 96.5579 51.159 96.432 51.1347L94.9453 50.848C94.8195 50.8237 94.7084 50.7504 94.6366 50.6443C94.5648 50.5381 94.5381 50.4078 94.5623 50.2819L94.5784 50.1986C94.6027 50.0728 94.6759 49.9617 94.7821 49.8899C94.8882 49.8181 95.0186 49.7914 95.1444 49.8156Z" fill="white"/>
<path d="M94.6852 43.7354C94.6852 43.7354 93.8021 45.3367 92.9648 46.0562C93.4198 46.606 94.3281 46.4989 94.3281 46.4989L94.6852 43.7354Z" fill="#A02724"/>
<path d="M95.5256 48.5418C95.535 48.548 95.5458 48.552 95.557 48.5534C96.4192 48.6264 97.2765 48.3651 97.9513 47.8236C97.9588 47.8173 97.9649 47.8096 97.9694 47.8009C97.9739 47.7922 97.9766 47.7828 97.9774 47.773C97.9782 47.7633 97.9771 47.7535 97.9741 47.7442C97.9711 47.7349 97.9663 47.7263 97.96 47.7189C97.9537 47.7115 97.9459 47.7054 97.9372 47.7009C97.9285 47.6965 97.9191 47.6938 97.9093 47.6931C97.8996 47.6923 97.8898 47.6935 97.8805 47.6966C97.8713 47.6996 97.8627 47.7045 97.8553 47.7109C97.2094 48.2204 96.3956 48.4687 95.5753 48.4066C95.5587 48.4045 95.5419 48.4081 95.5277 48.4168C95.5134 48.4255 95.5025 48.4388 95.4967 48.4545C95.491 48.4702 95.4907 48.4873 95.4959 48.5032C95.5012 48.5191 95.5116 48.5327 95.5256 48.5418Z" fill="#263238"/>
<path d="M99.8712 41.8573C99.9002 41.8706 99.9327 41.8741 99.9638 41.8674C99.9949 41.8607 100.023 41.8442 100.044 41.8202C100.065 41.7963 100.078 41.7662 100.08 41.7345C100.083 41.7028 100.075 41.6711 100.058 41.6441C99.8772 41.3389 99.6257 41.0817 99.3247 40.894C99.0237 40.7062 98.682 40.5936 98.3284 40.5655C98.2892 40.5647 98.2512 40.5797 98.223 40.6069C98.1947 40.6342 98.1785 40.6715 98.1778 40.7108C98.1771 40.75 98.192 40.788 98.2192 40.8162C98.2465 40.8445 98.2838 40.8607 98.3231 40.8614C98.6274 40.8887 98.9209 40.9881 99.1791 41.1516C99.4372 41.3151 99.6526 41.5379 99.8073 41.8014C99.8227 41.8259 99.8449 41.8454 99.8712 41.8573Z" fill="#263238"/>
<path d="M97.6954 43.802C97.6287 44.1939 97.3669 44.4763 97.1106 44.4327C96.8544 44.3891 96.7008 44.0359 96.7675 43.644C96.8343 43.252 97.0961 42.9696 97.3523 43.0132C97.6086 43.0569 97.7622 43.41 97.6954 43.802Z" fill="#263238"/>
<path d="M93.2638 43.0476C93.1971 43.4395 92.9352 43.7219 92.679 43.6783C92.4228 43.6347 92.2692 43.2816 92.3359 42.8896C92.4027 42.4976 92.6644 42.2152 92.9207 42.2588C93.1769 42.3025 93.3305 42.6556 93.2638 43.0476Z" fill="#263238"/>
<path d="M93.0301 42.2998L92.1348 41.8682C92.1348 41.8682 92.4926 42.6858 93.0301 42.2998Z" fill="#263238"/>
<path d="M97.4597 43.0537L96.5645 42.6221C96.5645 42.6221 96.9223 43.4397 97.4597 43.0537Z" fill="#263238"/>
<path d="M91.7584 40.4012C91.7828 40.4123 91.8098 40.4166 91.8365 40.4135C91.8632 40.4105 91.8886 40.4003 91.9099 40.3839C92.1466 40.1906 92.4261 40.0567 92.725 39.9932C93.024 39.9297 93.3338 39.9386 93.6286 40.019C93.6656 40.0319 93.7063 40.0296 93.7416 40.0126C93.777 39.9955 93.8041 39.9652 93.8171 39.9281C93.8301 39.8911 93.8278 39.8505 93.8108 39.8151C93.7939 39.7797 93.7635 39.7525 93.7265 39.7395C93.3852 39.6429 93.0257 39.6297 92.6782 39.7009C92.3307 39.7722 92.0054 39.926 91.7297 40.1492C91.7095 40.1647 91.6936 40.1853 91.6836 40.2088C91.6737 40.2323 91.6699 40.2579 91.6728 40.2833C91.6757 40.3086 91.6851 40.3328 91.7001 40.3535C91.7151 40.3741 91.7352 40.3906 91.7584 40.4012Z" fill="#263238"/>
<path d="M86.9246 94.6852C86.9246 94.6852 86.8708 91.9622 87.6788 89.8379H107.577C107.577 89.8379 109.366 92.727 109.83 94.6852H86.9246Z" fill="#407BFF"/>
<path d="M107.877 88.6702L108.035 90.4513C108.105 90.5895 107.941 90.7305 107.711 90.7305H87.582C87.4026 90.7305 87.254 90.6426 87.2427 90.5297L87.0632 88.7486C87.0508 88.6252 87.2063 88.5208 87.4025 88.5208H107.553C107.615 88.5155 107.678 88.5265 107.734 88.5527C107.791 88.5789 107.84 88.6194 107.877 88.6702Z" fill="#407BFF"/>
<path opacity="0.3" d="M107.877 88.6702L108.035 90.4513C108.105 90.5895 107.941 90.7305 107.711 90.7305H87.582C87.4026 90.7305 87.254 90.6426 87.2427 90.5297L87.0632 88.7486C87.0508 88.6252 87.2063 88.5208 87.4025 88.5208H107.553C107.615 88.5155 107.678 88.5265 107.734 88.5527C107.791 88.5789 107.84 88.6194 107.877 88.6702Z" fill="#FAFAFA"/>
<path d="M105.169 90.9232H105.709C105.817 90.9232 105.898 90.8677 105.891 90.8L105.638 88.4859C105.631 88.4182 105.537 88.3628 105.429 88.3628H104.889C104.782 88.3628 104.7 88.4182 104.707 88.4859L104.961 90.8C104.968 90.8677 105.062 90.9232 105.169 90.9232Z" fill="#407BFF"/>
<path d="M89.0972 90.9232H89.6368C89.7443 90.9232 89.8262 90.8677 89.8188 90.8L89.5657 88.4859C89.5583 88.4182 89.4643 88.3628 89.3568 88.3628H88.8172C88.7097 88.3628 88.6278 88.4182 88.6352 88.4859L88.8883 90.8C88.8957 90.8677 88.9897 90.9232 89.0972 90.9232Z" fill="#407BFF"/>
<path d="M97.1343 90.9232H97.6739C97.7814 90.9232 97.8633 90.8677 97.8559 90.8L97.6028 88.4859C97.5954 88.4182 97.5014 88.3628 97.3939 88.3628H96.8543C96.7468 88.3628 96.6649 88.4182 96.6723 88.4859L96.9254 90.8C96.9328 90.8677 97.0268 90.9232 97.1343 90.9232Z" fill="#407BFF"/>
<path d="M112.807 65.7402C113.683 68.578 114.522 71.4362 115.327 74.2954L116.538 78.5766L117.142 80.7027L117.295 81.2275L117.372 81.49L117.39 81.5516L117.393 81.5665C117.396 81.5804 117.395 81.5765 117.394 81.5811L117.332 81.4873C117.236 81.3498 117.117 81.2292 116.982 81.1302C116.686 80.9126 116.331 80.7872 115.964 80.7699C115.687 80.7548 115.41 80.8094 115.159 80.9288C114.885 81.0755 114.912 81.1117 114.933 81.0848C114.999 81.0289 115.058 80.9664 115.11 80.8983C115.289 80.6734 115.453 80.4377 115.602 80.1925C115.939 79.6483 116.267 79.0308 116.581 78.3999C117.224 77.138 117.809 75.7997 118.397 74.458C118.977 73.1113 119.546 71.7517 120.105 70.3791C120.682 69.0174 121.22 67.628 121.782 66.2657L124.209 66.9897C123.58 69.9533 122.842 72.8623 121.936 75.7648C121.489 77.2187 120.991 78.6597 120.418 80.1201C120.121 80.8488 119.806 81.578 119.415 82.335C119.206 82.7439 118.973 83.1399 118.717 83.5208C118.556 83.7587 118.378 83.9848 118.185 84.1975C117.874 84.5453 117.5 84.83 117.082 85.0362C116.663 85.2388 116.201 85.3349 115.737 85.3162C115.182 85.289 114.648 85.0947 114.206 84.7586C113.924 84.5434 113.681 84.282 113.487 83.9856C113.364 83.7987 113.256 83.6019 113.166 83.3972C113.13 83.3152 113.092 83.2262 113.064 83.1518L112.994 82.964L112.895 82.6959L112.697 82.1597C112.439 81.4466 112.178 80.7386 111.936 80.027C111.449 78.6048 110.963 77.1877 110.506 75.7627C109.576 72.9172 108.708 70.0559 107.902 67.179L112.807 65.7402Z" fill="#B65B52"/>
<path d="M111.106 60.1253C113.1 60.7315 116.151 68.5558 116.151 68.5558L108.417 74.0856C108.417 74.0856 104.939 67.3955 105.777 64.8187C106.649 62.1351 108.831 59.4336 111.106 60.1253Z" fill="#407BFF"/>
<path opacity="0.5" d="M111.106 60.1253C113.1 60.7315 116.151 68.5558 116.151 68.5558L108.417 74.0856C108.417 74.0856 104.939 67.3955 105.777 64.8187C106.649 62.1351 108.831 59.4336 111.106 60.1253Z" fill="white"/>
<path d="M121.867 67.2986L120.807 62.623L125.213 64.9482C125.213 64.9482 125.269 68.0937 123.491 69.087L121.867 67.2986Z" fill="#B55B52"/>
<path d="M122.651 58.9141L125.464 60.9075L125.213 64.9481L120.807 62.6232L122.651 58.9141Z" fill="#B55B52"/>
<path d="M43.7015 35.3908H74.4815C75.0692 35.3852 75.6518 35.5015 76.1923 35.7324C76.7328 35.9632 77.2195 36.3037 77.6218 36.7322C78.0241 37.1607 78.3331 37.668 78.5294 38.222C78.7257 38.7759 78.805 39.3646 78.7623 39.9508L77.9093 53.8841C77.8173 55.111 77.2698 56.2592 76.3744 57.1029C75.4789 57.9467 74.3003 58.4251 73.0701 58.4441H69.5055L70.9617 63.2271L63.9968 58.4441H42.2901C41.7024 58.4497 41.1199 58.3334 40.5794 58.1025C40.0389 57.8717 39.5521 57.5312 39.1498 57.1027C38.7476 56.6742 38.4385 56.1669 38.2422 55.6129C38.0459 55.059 37.9666 54.4703 38.0093 53.8841L38.8623 39.9508C38.9543 38.7239 39.5018 37.5757 40.3973 36.732C41.2927 35.8882 42.4713 35.4098 43.7015 35.3908Z" fill="#407BFF"/>
<path d="M71.6612 42.6892H45.6288C45.5181 42.6902 45.4084 42.6683 45.3066 42.6248C45.2048 42.5813 45.1131 42.5172 45.0373 42.4365C44.9615 42.3558 44.9033 42.2602 44.8663 42.1559C44.8293 42.0515 44.8144 41.9406 44.8224 41.8302C44.8398 41.5991 44.9429 41.3828 45.1116 41.2239C45.2803 41.0649 45.5023 40.9748 45.734 40.9712H71.7664C71.8771 40.9702 71.9868 40.9921 72.0886 41.0356C72.1905 41.079 72.2821 41.1432 72.3579 41.2239C72.4337 41.3046 72.4919 41.4002 72.5289 41.5045C72.5659 41.6089 72.5808 41.7198 72.5728 41.8302C72.5554 42.0613 72.4523 42.2776 72.2836 42.4365C72.115 42.5955 71.893 42.6856 71.6612 42.6892Z" fill="white"/>
<path d="M56.2542 47.7761H45.3182C45.2075 47.7771 45.0978 47.7552 44.996 47.7117C44.8942 47.6683 44.8025 47.6041 44.7267 47.5234C44.651 47.4427 44.5927 47.3471 44.5558 47.2428C44.5188 47.1384 44.5038 47.0276 44.5119 46.9171C44.5292 46.686 44.6323 46.4697 44.801 46.3108C44.9697 46.1518 45.1917 46.0617 45.4234 46.0581H56.3594C56.4701 46.0571 56.5798 46.079 56.6817 46.1225C56.7835 46.166 56.8752 46.2301 56.951 46.3108C57.0267 46.3915 57.085 46.4871 57.1219 46.5915C57.1589 46.6958 57.1739 46.8067 57.1658 46.9171C57.1485 47.1482 57.0453 47.3645 56.8767 47.5235C56.708 47.6824 56.486 47.7725 56.2542 47.7761Z" fill="white"/>
<path d="M65.5992 52.8635H45.0057C44.895 52.8645 44.7853 52.8426 44.6835 52.7991C44.5817 52.7557 44.49 52.6915 44.4142 52.6108C44.3385 52.5301 44.2802 52.4345 44.2433 52.3302C44.2063 52.2258 44.1913 52.115 44.1994 52.0045C44.2167 51.7734 44.3198 51.5571 44.4885 51.3982C44.6572 51.2392 44.8792 51.1491 45.1109 51.1455H65.7044C65.8151 51.1445 65.9248 51.1664 66.0266 51.2099C66.1284 51.2534 66.2201 51.3175 66.2959 51.3982C66.3717 51.479 66.4299 51.5745 66.4669 51.6789C66.5038 51.7832 66.5188 51.8941 66.5107 52.0045C66.4934 52.2356 66.3903 52.4519 66.2216 52.6109C66.0529 52.7698 65.8309 52.8599 65.5992 52.8635Z" fill="white"/>
<path d="M64.259 47.7761H59.957C59.8462 47.7771 59.7365 47.7552 59.6347 47.7118C59.5329 47.6683 59.4412 47.6041 59.3654 47.5234C59.2896 47.4427 59.2314 47.3472 59.1944 47.2428C59.1575 47.1384 59.1425 47.0276 59.1506 46.9171C59.1679 46.686 59.271 46.4697 59.4397 46.3108C59.6084 46.1518 59.8304 46.0617 60.0621 46.0581H64.3642C64.4749 46.0571 64.5846 46.079 64.6864 46.1225C64.7882 46.166 64.8799 46.2301 64.9557 46.3108C65.0315 46.3915 65.0897 46.4871 65.1266 46.5915C65.1636 46.6958 65.1786 46.8067 65.1705 46.9171C65.1532 47.1482 65.0501 47.3645 64.8814 47.5235C64.7127 47.6824 64.4907 47.7725 64.259 47.7761Z" fill="white"/>
<path d="M86.559 10.3493H69.7778C68.8206 10.364 67.9035 10.7363 67.2067 11.3928C66.5099 12.0494 66.0839 12.9428 66.0124 13.8975L65.3486 24.7393C65.3154 25.1954 65.3771 25.6535 65.5298 26.0845C65.6826 26.5156 65.923 26.9103 66.2361 27.2438C66.5491 27.5772 66.9278 27.8421 67.3484 28.0217C67.769 28.2014 68.2222 28.2919 68.6796 28.2875H71.4532L69.8644 32.0093L75.7397 28.2875H85.4608C86.418 28.2727 87.3351 27.9005 88.0319 27.2439C88.7287 26.5873 89.1547 25.6939 89.2262 24.7393L89.89 13.8975C89.9232 13.4414 89.8615 12.9833 89.7088 12.5522C89.556 12.1212 89.3155 11.7264 89.0025 11.393C88.6895 11.0596 88.3107 10.7947 87.8902 10.615C87.4696 10.4354 87.0163 10.3449 86.559 10.3493Z" fill="#407BFF"/>
<g opacity="0.5">
<path d="M86.559 10.3493H69.7778C68.8206 10.364 67.9035 10.7363 67.2067 11.3928C66.5099 12.0494 66.0839 12.9428 66.0124 13.8975L65.3486 24.7393C65.3154 25.1954 65.3771 25.6535 65.5298 26.0845C65.6826 26.5156 65.923 26.9103 66.2361 27.2438C66.5491 27.5772 66.9278 27.8421 67.3484 28.0217C67.769 28.2014 68.2222 28.2919 68.6796 28.2875H71.4532L69.8644 32.0093L75.7397 28.2875H85.4608C86.418 28.2727 87.3351 27.9005 88.0319 27.2439C88.7287 26.5873 89.1547 25.6939 89.2262 24.7393L89.89 13.8975C89.9232 13.4414 89.8615 12.9833 89.7088 12.5522C89.556 12.1212 89.3155 11.7264 89.0025 11.393C88.6895 11.0596 88.3107 10.7947 87.8902 10.615C87.4696 10.4354 87.0163 10.3449 86.559 10.3493Z" fill="#FAFAFA"/>
</g>
<path d="M78.467 21.0929C78.41 21.3323 78.274 21.5455 78.0809 21.6982C77.8879 21.8508 77.649 21.9339 77.4029 21.9342H76.4127C76.4248 21.6523 76.4328 21.4805 76.4368 21.4189C76.4518 20.8713 76.5925 20.3344 76.848 19.8498C77.207 19.3089 77.6636 18.8394 78.1943 18.4654C78.6165 18.1601 79.0151 17.8232 79.3866 17.4578C79.5846 17.2241 79.7022 16.9329 79.722 16.6272C79.737 16.4255 79.7054 16.2232 79.6295 16.0357C79.5536 15.8483 79.4355 15.6809 79.2845 15.5465C78.9169 15.2286 78.4396 15.0671 77.9545 15.0966C77.4454 15.0832 76.9479 15.2493 76.5489 15.5658C76.3123 15.7612 76.1184 16.003 75.979 16.2764C75.879 16.4787 75.7199 16.646 75.5229 16.7561C75.3259 16.8662 75.1002 16.9141 74.8754 16.8933C74.7144 16.873 74.561 16.8125 74.4295 16.7173C74.298 16.6222 74.1925 16.4954 74.1229 16.3488C74.0532 16.2021 74.0216 16.0403 74.0309 15.8783C74.0402 15.7162 74.0902 15.5591 74.1762 15.4214C74.4063 15.0375 74.7007 14.6961 75.0466 14.4121C75.871 13.7506 76.9065 13.4092 77.9627 13.4506C79.2037 13.4506 80.171 13.775 80.8644 14.4236C81.1887 14.7012 81.4443 15.0502 81.6111 15.4433C81.7778 15.8363 81.8512 16.2626 81.8255 16.6887C81.7925 17.1764 81.624 17.6452 81.339 18.0424C80.8062 18.6991 80.19 19.2834 79.5059 19.7806C79.1514 20.0289 78.8445 20.3389 78.5998 20.6959C78.5374 20.8215 78.4927 20.955 78.467 21.0929ZM76.2972 23.8207L76.3046 23.7011C76.3244 23.4261 76.4467 23.1687 76.6474 22.9796C76.848 22.7905 77.1123 22.6837 77.3879 22.6802H77.5076C77.6393 22.6786 77.7699 22.7043 77.8911 22.7559C78.0123 22.8074 78.1215 22.8836 78.2116 22.9797C78.3017 23.0757 78.3709 23.1894 78.4147 23.3136C78.4585 23.4378 78.476 23.5698 78.466 23.7011L78.4587 23.8207C78.4389 24.0956 78.3165 24.3531 78.1159 24.5421C77.9153 24.7312 77.651 24.838 77.3753 24.8415H77.2556C77.1239 24.8432 76.9933 24.8174 76.8721 24.7659C76.7509 24.7143 76.6418 24.6381 76.5516 24.5421C76.4615 24.4461 76.3923 24.3323 76.3485 24.2081C76.3047 24.0839 76.2873 23.952 76.2972 23.8207Z" fill="white"/>
</g>
<defs>
<clipPath id="clip0_468_40603">
<rect width="190" height="141.591" fill="white"/>
</clipPath>
</defs>
</svg>
