<svg width="190" height="142" viewBox="0 0 190 142" fill="none" xmlns="http://www.w3.org/2000/svg">
<g clip-path="url(#clip0_773_815)">
<path d="M190 124.429H0V124.524H190V124.429Z" fill="#EBEBEB"/>
<path d="M170.963 130.546H158.377V130.641H170.963V130.546Z" fill="#EBEBEB"/>
<path d="M125.864 131.577H122.561V131.672H125.864V131.577Z" fill="#EBEBEB"/>
<path d="M157.996 127.017H150.703V127.112H157.996V127.017Z" fill="#EBEBEB"/>
<path d="M36.3471 127.656H19.9336V127.751H36.3471V127.656Z" fill="#EBEBEB"/>
<path d="M42.137 127.656H39.7305V127.751H42.137V127.656Z" fill="#EBEBEB"/>
<path d="M85.5558 129.26H49.959V129.355H85.5558V129.26Z" fill="#EBEBEB"/>
<path d="M90.0661 107.482H16.6886C16.1135 107.481 15.5622 107.253 15.1555 106.846C14.7489 106.439 14.5202 105.888 14.5195 105.313V2.16889C14.5202 1.59385 14.749 1.04256 15.1556 0.635953C15.5622 0.229351 16.1135 0.00064162 16.6886 0H90.0661C90.6411 0.000715074 91.1923 0.229459 91.5988 0.636056C92.0054 1.04265 92.2341 1.5939 92.2347 2.16889V105.313C92.2341 105.888 92.0055 106.439 91.5989 106.846C91.1923 107.252 90.6411 107.481 90.0661 107.482ZM16.6886 0.095C16.1387 0.0955944 15.6115 0.31428 15.2227 0.703076C14.8339 1.09187 14.6152 1.61903 14.6145 2.16889V105.313C14.6151 105.863 14.8338 106.39 15.2227 106.779C15.6115 107.168 16.1387 107.386 16.6886 107.387H90.0661C90.6159 107.386 91.143 107.168 91.5318 106.779C91.9205 106.39 92.1392 105.863 92.1397 105.313V2.16889C92.1391 1.61908 91.9205 1.09197 91.5317 0.703179C91.143 0.314388 90.6159 0.0956668 90.0661 0.095H16.6886Z" fill="#EBEBEB"/>
<path d="M172.257 107.482H98.8796C98.3046 107.481 97.7533 107.252 97.3468 106.846C96.9402 106.439 96.7116 105.888 96.7109 105.313V2.16889C96.7116 1.5939 96.9403 1.04265 97.3468 0.636056C97.7534 0.229459 98.3046 0.000715074 98.8796 0H172.257C172.832 0.000633571 173.383 0.229339 173.79 0.635942C174.197 1.04254 174.425 1.59384 174.426 2.16889V105.313C174.425 105.888 174.197 106.439 173.79 106.846C173.383 107.253 172.832 107.481 172.257 107.482ZM98.8796 0.095C98.3298 0.0956668 97.8027 0.314388 97.414 0.703179C97.0252 1.09197 96.8065 1.61908 96.8059 2.16889V105.313C96.8065 105.863 97.0251 106.39 97.4139 106.779C97.8027 107.168 98.3298 107.386 98.8796 107.387H172.257C172.807 107.386 173.334 107.168 173.723 106.779C174.112 106.39 174.331 105.863 174.331 105.313V2.16889C174.331 1.61902 174.112 1.09186 173.723 0.703065C173.334 0.314268 172.807 0.0955863 172.257 0.095H98.8796Z" fill="#EBEBEB"/>
<path d="M102.235 124.486L169.225 124.486V39.6573L102.235 39.6573L102.235 124.486Z" fill="#F0F0F0"/>
<path d="M104.601 60.8887L166.855 60.8887V42.7492L104.601 42.7492V60.8887Z" fill="#E0E0E0"/>
<path d="M163.319 60.8887H166.855V45.6858H163.319V60.8887Z" fill="#EBEBEB"/>
<path d="M146.219 60.8887H149.756V45.6858H146.219V60.8887Z" fill="#EBEBEB"/>
<path d="M124.224 60.288L127.709 60.8887L130.291 45.9066L126.806 45.306L124.224 60.288Z" fill="#EBEBEB"/>
<path d="M158.938 60.8887H162.475V47.6892H158.938V60.8887Z" fill="#EBEBEB"/>
<path d="M150.809 60.8887H154.346V47.6892H150.809V60.8887Z" fill="#EBEBEB"/>
<path d="M130.292 60.8887H133.828V47.6892H130.292V60.8887Z" fill="#EBEBEB"/>
<path d="M138.712 60.1216L142.164 60.8887L145.027 48.0034L141.575 47.2364L138.712 60.1216Z" fill="#EBEBEB"/>
<path d="M155.88 60.8887H157.648V44.931H155.88V60.8887Z" fill="#EBEBEB"/>
<path d="M134.845 60.8887H136.613V44.931H134.845V60.8887Z" fill="#EBEBEB"/>
<path d="M166.856 63.7607H104.602V81.9002H166.856V63.7607Z" fill="#E0E0E0"/>
<path d="M108.138 66.6973H104.602V81.9002H108.138V66.6973Z" fill="#EBEBEB"/>
<path d="M125.238 66.6973H121.701V81.9002H125.238V66.6973Z" fill="#EBEBEB"/>
<path d="M144.651 66.3178L141.166 66.9185L143.748 81.9005L147.233 81.2998L144.651 66.3178Z" fill="#EBEBEB"/>
<path d="M112.521 68.7007H108.984V81.9001H112.521V68.7007Z" fill="#EBEBEB"/>
<path d="M120.65 68.7007H117.113V81.9001H120.65V68.7007Z" fill="#EBEBEB"/>
<path d="M141.165 68.7007H137.629V81.9001H141.165V68.7007Z" fill="#EBEBEB"/>
<path d="M129.884 68.2481L126.432 69.0151L129.295 81.9003L132.747 81.1333L129.884 68.2481Z" fill="#EBEBEB"/>
<path d="M115.579 65.9429H113.811V81.9005H115.579V65.9429Z" fill="#EBEBEB"/>
<path d="M136.614 65.9429H134.846V81.9005H136.614V65.9429Z" fill="#EBEBEB"/>
<path d="M163.319 81.9004H166.855V66.6975H163.319V81.9004Z" fill="#EBEBEB"/>
<path d="M158.938 81.9004H162.475V68.7009H158.938V81.9004Z" fill="#EBEBEB"/>
<path d="M150.809 81.9004H154.346V68.7009H150.809V81.9004Z" fill="#EBEBEB"/>
<path d="M155.88 81.9004H157.648V65.9427H155.88V81.9004Z" fill="#EBEBEB"/>
<path d="M104.601 102.912L166.855 102.912V84.7727H104.601V102.912Z" fill="#E0E0E0"/>
<path d="M127.589 102.912H131.125V87.7092H127.589V102.912Z" fill="#EBEBEB"/>
<path d="M105.593 102.311L109.078 102.912L111.66 87.9301L108.175 87.3295L105.593 102.311Z" fill="#EBEBEB"/>
<path d="M140.305 102.912H143.842V89.7127H140.305V102.912Z" fill="#EBEBEB"/>
<path d="M132.176 102.912H135.713V89.7127H132.176V102.912Z" fill="#EBEBEB"/>
<path d="M111.661 102.912H115.197V89.7127H111.661V102.912Z" fill="#EBEBEB"/>
<path d="M120.079 102.145L123.531 102.912L126.394 90.0269L122.942 89.2598L120.079 102.145Z" fill="#EBEBEB"/>
<path d="M137.247 102.912H139.016V86.9544H137.247V102.912Z" fill="#EBEBEB"/>
<path d="M116.212 102.912H117.98V86.9544H116.212V102.912Z" fill="#EBEBEB"/>
<path d="M146.279 102.311L149.764 102.912L152.346 87.9301L148.861 87.3295L146.279 102.311Z" fill="#EBEBEB"/>
<path d="M152.346 102.912H155.883V89.7127H152.346V102.912Z" fill="#EBEBEB"/>
<path d="M160.765 102.145L164.217 102.912L167.08 90.0269L163.628 89.2598L160.765 102.145Z" fill="#EBEBEB"/>
<path d="M156.9 102.912H158.668V86.9544H156.9V102.912Z" fill="#EBEBEB"/>
<path d="M158.938 39.6576V38.3987H156.9C158.16 34.5427 158.418 30.429 157.649 26.4458C157.649 26.4458 157.678 31.6639 155.66 31.7009C152.578 31.7575 152.347 26.4458 152.347 26.4458C152.347 26.4458 151.604 34.048 154.369 38.3987H152.256V39.6576H158.938Z" fill="#E0E0E0"/>
<path d="M154.984 31.7072C155.966 31.7072 156.763 30.9108 156.763 29.9283C156.763 28.9459 155.966 28.1494 154.984 28.1494C154.002 28.1494 153.205 28.9459 153.205 29.9283C153.205 30.9108 154.002 31.7072 154.984 31.7072Z" fill="#E0E0E0"/>
<path d="M145.257 39.6577V38.9233L143.103 37.9211L144.18 36.8688L141.499 27.398V33.311C141.499 33.311 141.868 33.311 141.868 34.1628C141.868 35.0147 140.647 34.8143 140.647 34.1127C140.647 33.4112 141.048 33.311 141.048 33.311V27.1475L138.593 36.518L139.695 37.9211L137.49 38.9233V39.6577H145.257Z" fill="#E0E0E0"/>
<path d="M132.059 39.6578V39.0737L130.074 38.6227V29.9287L128.37 27.5483L126.917 29.4126V33.4026L126.166 32.3588L125.113 31.9579L124.361 33.6029L125.965 38.6227L124.361 39.0737V39.6578H132.059Z" fill="#E0E0E0"/>
<path d="M118.881 39.9238L116.445 27.5483H108.984L110.752 34.5654L108.139 39.6578L118.881 39.9238Z" fill="#E0E0E0"/>
<path d="M69.8224 21.4854H20.2559V24.032H69.8224V21.4854Z" fill="#E0E0E0"/>
<path d="M24.7207 12.0977H22.5371V21.4851H24.7207V12.0977Z" fill="#EBEBEB"/>
<path d="M35.2794 12.0977H33.0957V21.4851H35.2794V12.0977Z" fill="#EBEBEB"/>
<path d="M47.2672 11.8635L45.1152 12.2344L46.7096 21.4855L48.8616 21.1146L47.2672 11.8635Z" fill="#EBEBEB"/>
<path d="M27.4259 13.335H25.2422V21.4854H27.4259V13.335Z" fill="#EBEBEB"/>
<path d="M32.4454 13.335H30.2617V21.4854H32.4454V13.335Z" fill="#EBEBEB"/>
<path d="M45.1154 13.335H42.9316V21.4854H45.1154V13.335Z" fill="#EBEBEB"/>
<path d="M38.1473 13.0552L36.0156 13.5288L37.7834 21.4852L39.9151 21.0116L38.1473 13.0552Z" fill="#EBEBEB"/>
<path d="M29.3145 11.6318H28.2227V21.4854H29.3145V11.6318Z" fill="#EBEBEB"/>
<path d="M42.3028 11.6318H41.2109V21.4854H42.3028V11.6318Z" fill="#EBEBEB"/>
<path d="M65.0658 14.0552H54.4258V21.4009H65.0658V14.0552Z" fill="#EBEBEB"/>
<path d="M20.2557 43.0439L69.8223 43.0439V40.4973L20.2557 40.4973V43.0439Z" fill="#E0E0E0"/>
<path d="M65.3573 40.4976H67.541V31.1101H65.3573V40.4976Z" fill="#EBEBEB"/>
<path d="M54.7988 40.4976H56.9824V31.1101H54.7988V40.4976Z" fill="#EBEBEB"/>
<path d="M41.2172 40.1262L43.3691 40.4971L44.9635 31.246L42.8116 30.8751L41.2172 40.1262Z" fill="#EBEBEB"/>
<path d="M62.6523 40.4976H64.8359V32.3472H62.6523V40.4976Z" fill="#EBEBEB"/>
<path d="M57.6327 40.4976H59.8164V32.3472H57.6327V40.4976Z" fill="#EBEBEB"/>
<path d="M44.9628 40.4976H47.1465V32.3472H44.9628V40.4976Z" fill="#EBEBEB"/>
<path d="M50.1632 40.0239L52.2949 40.4976L54.0627 32.5411L51.931 32.0675L50.1632 40.0239Z" fill="#EBEBEB"/>
<path d="M60.7637 40.4976H61.8555V30.644H60.7637V40.4976Z" fill="#EBEBEB"/>
<path d="M47.7753 40.4976H48.8672V30.644H47.7753V40.4976Z" fill="#EBEBEB"/>
<path d="M25.0123 40.4131H35.6523V33.0673H25.0123V40.4131Z" fill="#EBEBEB"/>
<path d="M59.4233 77.7158H17.8555V124.486H59.4233V77.7158Z" fill="#E0E0E0"/>
<path d="M57.3601 79.5796H19.9199V87.1102H57.3601V79.5796Z" fill="#EBEBEB"/>
<path d="M57.3601 89.0679H19.9199V96.5985H57.3601V89.0679Z" fill="#EBEBEB"/>
<path d="M57.3601 98.5566H19.9199V121.015H57.3601V98.5566Z" fill="#EBEBEB"/>
<path d="M40.3822 80.868H36.8972C36.4415 80.868 35.9937 80.7491 35.598 80.5232C35.2022 80.2972 34.8723 79.972 34.6406 79.5796H42.6388C42.4071 79.972 42.0772 80.2973 41.6814 80.5232C41.2857 80.7491 40.8379 80.868 40.3822 80.868Z" fill="#E0E0E0"/>
<path d="M40.3822 90.3445H36.8972C36.4415 90.3445 35.9937 90.2257 35.5979 89.9998C35.2022 89.7738 34.8723 89.4486 34.6406 89.0562H42.6388C42.4071 89.4486 42.0772 89.7738 41.6814 89.9998C41.2857 90.2257 40.8379 90.3445 40.3822 90.3445Z" fill="#E0E0E0"/>
<path d="M40.3822 99.8538H36.8972C36.4415 99.8538 35.9937 99.7349 35.598 99.509C35.2022 99.2831 34.8723 98.9578 34.6406 98.5654H42.6388C42.4071 98.9579 42.0772 99.2831 41.6814 99.509C41.2857 99.735 40.8379 99.8538 40.3822 99.8538Z" fill="#E0E0E0"/>
<path d="M95.0002 141.591C135.691 141.591 168.678 139.665 168.678 137.288C168.678 134.912 135.691 132.985 95.0002 132.985C54.309 132.985 21.3223 134.912 21.3223 137.288C21.3223 139.665 54.309 141.591 95.0002 141.591Z" fill="#F5F5F5"/>
<path d="M40.98 109.231C40.9002 109.79 42.4151 110.158 43.6506 110.364C43.5498 111.378 42.8749 112.403 41.943 113.36C40.7706 112.7 39.0968 111.826 38.7884 112.04C38.4516 112.273 40.1657 113.381 41.2373 114.032C40.4715 114.701 39.6603 115.315 38.8094 115.872C38.284 115.381 37.6685 114.95 37.302 115.183C36.9219 115.425 37.0247 116.184 37.2123 116.862C35.9368 117.606 34.9818 118.058 34.9818 118.058C34.6109 116.873 34.3262 115.663 34.1297 114.437C34.1941 114.31 34.258 114.182 34.3167 114.046C34.5222 113.571 34.322 113.368 33.9825 113.302C33.8858 112.435 33.8787 111.561 33.9616 110.693C35.4051 110.39 37.1605 109.829 36.5031 108.964C36.1066 108.442 35.3807 108.382 34.6253 108.513C34.7283 108.34 34.8477 108.178 34.9818 108.027C37.6092 105.132 39.442 108.027 39.442 108.027C40.9689 106.755 43.1135 107.099 43.5771 109.088C42.7196 108.868 41.0786 108.541 40.98 109.231Z" fill="#407BFF"/>
<path opacity="0.3" d="M40.98 109.231C40.9002 109.79 42.4151 110.158 43.6506 110.364C43.5498 111.378 42.8749 112.403 41.943 113.36C40.7706 112.7 39.0968 111.826 38.7884 112.04C38.4516 112.273 40.1657 113.381 41.2373 114.032C40.4715 114.701 39.6603 115.315 38.8094 115.872C38.284 115.381 37.6685 114.95 37.302 115.183C36.9219 115.425 37.0247 116.184 37.2123 116.862C35.9368 117.606 34.9818 118.058 34.9818 118.058C34.6109 116.873 34.3262 115.663 34.1297 114.437C34.1941 114.31 34.258 114.182 34.3167 114.046C34.5222 113.571 34.322 113.368 33.9825 113.302C33.8858 112.435 33.8787 111.561 33.9616 110.693C35.4051 110.39 37.1605 109.829 36.5031 108.964C36.1066 108.442 35.3807 108.382 34.6253 108.513C34.7283 108.34 34.8477 108.178 34.9818 108.027C37.6092 105.132 39.442 108.027 39.442 108.027C40.9689 106.755 43.1135 107.099 43.5771 109.088C42.7196 108.868 41.0786 108.541 40.98 109.231Z" fill="white"/>
<path d="M37.703 130.506L38.0819 130.475C38.0657 130.279 36.5262 110.895 40.8766 109.068C41.0838 108.97 41.3108 108.922 41.5397 108.928C41.7686 108.934 41.993 108.993 42.1951 109.101C43.7668 109.918 44.5202 113.312 44.5276 113.346L44.8991 113.266C44.8671 113.119 44.1003 109.664 42.3708 108.764C42.1191 108.631 41.8401 108.557 41.5554 108.549C41.2708 108.541 40.9881 108.599 40.7292 108.717C36.1271 110.65 37.6366 129.696 37.703 130.506Z" fill="#407BFF"/>
<path d="M37.1541 130.086C37.2312 129.214 39.0068 108.704 35.6866 106.527C34.8904 106.005 34.1811 105.893 33.5778 106.199C32.0088 106.99 31.8029 110.345 31.7949 110.487L32.1742 110.508C32.176 110.476 32.3753 107.23 33.7493 106.538C34.2221 106.3 34.8037 106.402 35.4782 106.845C38.61 108.899 36.7943 129.841 36.7755 130.052L37.1541 130.086Z" fill="#407BFF"/>
<path d="M36.6558 131.744C36.6807 131.076 37.2275 115.376 34.204 114.002C33.9237 113.868 33.6172 113.797 33.3065 113.795C32.9957 113.792 32.6882 113.858 32.4057 113.988C30.3309 114.901 29.0497 118.767 28.9961 118.931L29.3576 119.049C29.37 119.011 30.6395 115.18 32.559 114.336C32.7923 114.227 33.0469 114.172 33.3042 114.174C33.5616 114.176 33.8152 114.236 34.0467 114.348C36.3651 115.402 36.4421 127.252 36.2762 131.729L36.6558 131.744Z" fill="#407BFF"/>
<path d="M37.4234 131.026L37.8008 130.982C37.2681 126.31 36.2495 113.859 37.9137 112.374C37.9946 112.277 38.102 112.205 38.2229 112.168C38.3437 112.131 38.4728 112.129 38.5944 112.164C39.7096 112.591 40.3886 116.641 40.5562 118.166L40.934 118.124C40.8698 117.54 40.2619 112.396 38.7306 111.809C38.5442 111.746 38.3436 111.739 38.1534 111.79C37.9633 111.84 37.7919 111.944 37.6606 112.09C35.5099 114.01 37.3442 130.332 37.4234 131.026Z" fill="#407BFF"/>
<path d="M43.7655 122.167H30.1133L31.2533 137.46H42.6255L43.7655 122.167Z" fill="#263238"/>
<path opacity="0.2" d="M39.619 122.167L39.239 137.46H31.2533L30.1133 122.167H39.619Z" fill="white"/>
<path d="M41.9055 116.556C42.0478 116.928 43.1081 116.635 43.9407 116.339C44.2263 116.999 44.1615 117.863 43.915 118.772C42.9654 118.767 41.6338 118.802 41.5168 119.04C41.3889 119.299 42.8259 119.395 43.7102 119.429C43.4671 120.104 43.1775 120.761 42.8434 121.396C42.351 121.273 41.8237 121.218 41.6776 121.488C41.5261 121.767 41.85 122.2 42.1981 122.554C41.6664 123.45 41.2325 124.057 41.2325 124.057C40.5975 123.453 40.007 122.804 39.4655 122.115C39.4617 122.015 39.4571 121.914 39.4467 121.81C39.4105 121.446 39.2177 121.39 38.9854 121.465C38.6286 120.964 38.3246 120.427 38.0781 119.864C38.8645 119.182 39.755 118.235 39.0528 117.926C38.6292 117.74 38.1612 117.952 37.7402 118.292C37.7445 118.15 37.7623 118.009 37.7935 117.87C38.4214 115.184 40.5442 116.341 40.5442 116.341C41.0497 115.033 42.4904 114.51 43.4579 115.577C42.8537 115.736 41.7297 116.097 41.9055 116.556Z" fill="#407BFF"/>
<path opacity="0.3" d="M41.9055 116.556C42.0478 116.928 43.1081 116.635 43.9407 116.339C44.2263 116.999 44.1615 117.863 43.915 118.772C42.9654 118.767 41.6338 118.802 41.5168 119.04C41.3889 119.299 42.8259 119.395 43.7102 119.429C43.4671 120.104 43.1775 120.761 42.8434 121.396C42.351 121.273 41.8237 121.218 41.6776 121.488C41.5261 121.767 41.85 122.2 42.1981 122.554C41.6664 123.45 41.2325 124.057 41.2325 124.057C40.5975 123.453 40.007 122.804 39.4655 122.115C39.4617 122.015 39.4571 121.914 39.4467 121.81C39.4105 121.446 39.2177 121.39 38.9854 121.465C38.6286 120.964 38.3246 120.427 38.0781 119.864C38.8645 119.182 39.755 118.235 39.0528 117.926C38.6292 117.74 38.1612 117.952 37.7402 118.292C37.7445 118.15 37.7623 118.009 37.7935 117.87C38.4214 115.184 40.5442 116.341 40.5442 116.341C41.0497 115.033 42.4904 114.51 43.4579 115.577C42.8537 115.736 41.7297 116.097 41.9055 116.556Z" fill="white"/>
<path d="M31.7691 118.372C32.1941 118.408 32.6131 118.497 33.0168 118.634C33.1259 118.345 33.188 118.04 33.2006 117.731C33.2872 114.978 31.3163 116.139 30.2747 115.33C30.0387 115.122 29.7616 114.966 29.4614 114.871C29.1613 114.777 28.8447 114.747 28.5322 114.783C28.6211 114.935 28.6998 115.092 28.7678 115.255C28.7922 115.315 28.8026 115.38 28.7983 115.445C28.7941 115.51 28.7752 115.573 28.7432 115.63C28.7111 115.686 28.6667 115.735 28.6133 115.772C28.5598 115.809 28.4987 115.833 28.4345 115.844C28.1736 115.896 27.9027 115.864 27.6613 115.752C27.5912 115.712 27.5247 115.666 27.4625 115.614C27.2963 115.903 27.1692 116.213 27.0843 116.535C26.9805 116.92 26.9208 117.315 26.9062 117.713C27.0622 117.747 27.216 117.79 27.3667 117.843C27.4267 117.868 27.4801 117.907 27.5228 117.957C27.5654 118.006 27.5963 118.064 27.6129 118.128C27.6295 118.191 27.6315 118.257 27.6187 118.321C27.6059 118.385 27.5787 118.445 27.5391 118.497C27.3748 118.662 27.1824 118.798 26.9709 118.896C27.0411 119.337 27.1573 119.769 27.3175 120.186C27.3642 120.194 27.4113 120.199 27.4578 120.208C27.558 120.227 27.6568 120.253 27.7549 120.281C27.8114 120.297 27.8666 120.317 27.9199 120.342C27.9874 120.371 28.0465 120.417 28.0915 120.475C28.1365 120.534 28.166 120.603 28.1773 120.675C28.1875 120.75 28.1779 120.826 28.1494 120.896C28.121 120.966 28.0746 121.027 28.0151 121.073C27.95 121.12 27.8815 121.162 27.8102 121.199C28.0723 121.654 28.4481 122.033 28.9008 122.3C29.299 122.118 29.6863 121.913 30.0607 121.687C29.9785 121.576 29.8963 121.466 29.8197 121.352C29.7304 121.227 29.689 121.073 29.7029 120.92C29.7232 120.766 29.8033 120.626 29.926 120.531C29.9868 120.484 30.0564 120.45 30.1306 120.43C30.2048 120.41 30.2822 120.405 30.3584 120.414C30.4347 120.424 30.5082 120.449 30.5749 120.487C30.6415 120.526 30.7 120.577 30.7469 120.638C30.8382 120.773 30.9389 120.902 31.0384 121.032C31.5641 120.645 32.0345 120.188 32.4368 119.674C32.4215 119.669 32.4052 119.665 32.395 119.662C32.1407 119.595 31.881 119.552 31.6189 119.533C31.465 119.513 31.3252 119.433 31.2305 119.31C31.1357 119.187 31.0936 119.031 31.1136 118.877C31.1335 118.723 31.2137 118.583 31.3367 118.489C31.4596 118.394 31.6152 118.352 31.7691 118.372Z" fill="#407BFF"/>
<path opacity="0.5" d="M31.7691 118.372C32.1941 118.408 32.6131 118.497 33.0168 118.634C33.1259 118.345 33.188 118.04 33.2006 117.731C33.2872 114.978 31.3163 116.139 30.2747 115.33C30.0387 115.122 29.7616 114.966 29.4614 114.871C29.1613 114.777 28.8447 114.747 28.5322 114.783C28.6211 114.935 28.6998 115.092 28.7678 115.255C28.7922 115.315 28.8026 115.38 28.7983 115.445C28.7941 115.51 28.7752 115.573 28.7432 115.63C28.7111 115.686 28.6667 115.735 28.6133 115.772C28.5598 115.809 28.4987 115.833 28.4345 115.844C28.1736 115.896 27.9027 115.864 27.6613 115.752C27.5912 115.712 27.5247 115.666 27.4625 115.614C27.2963 115.903 27.1692 116.213 27.0843 116.535C26.9805 116.92 26.9208 117.315 26.9062 117.713C27.0622 117.747 27.216 117.79 27.3667 117.843C27.4267 117.868 27.4801 117.907 27.5228 117.957C27.5654 118.006 27.5963 118.064 27.6129 118.128C27.6295 118.191 27.6315 118.257 27.6187 118.321C27.6059 118.385 27.5787 118.445 27.5391 118.497C27.3748 118.662 27.1824 118.798 26.9709 118.896C27.0411 119.337 27.1573 119.769 27.3175 120.186C27.3642 120.194 27.4113 120.199 27.4578 120.208C27.558 120.227 27.6568 120.253 27.7549 120.281C27.8114 120.297 27.8666 120.317 27.9199 120.342C27.9874 120.371 28.0465 120.417 28.0915 120.475C28.1365 120.534 28.166 120.603 28.1773 120.675C28.1875 120.75 28.1779 120.826 28.1494 120.896C28.121 120.966 28.0746 121.027 28.0151 121.073C27.95 121.12 27.8815 121.162 27.8102 121.199C28.0723 121.654 28.4481 122.033 28.9008 122.3C29.299 122.118 29.6863 121.913 30.0607 121.687C29.9785 121.576 29.8963 121.466 29.8197 121.352C29.7304 121.227 29.689 121.073 29.7029 120.92C29.7232 120.766 29.8033 120.626 29.926 120.531C29.9868 120.484 30.0564 120.45 30.1306 120.43C30.2048 120.41 30.2822 120.405 30.3584 120.414C30.4347 120.424 30.5082 120.449 30.5749 120.487C30.6415 120.526 30.7 120.577 30.7469 120.638C30.8382 120.773 30.9389 120.902 31.0384 121.032C31.5641 120.645 32.0345 120.188 32.4368 119.674C32.4215 119.669 32.4052 119.665 32.395 119.662C32.1407 119.595 31.881 119.552 31.6189 119.533C31.465 119.513 31.3252 119.433 31.2305 119.31C31.1357 119.187 31.0936 119.031 31.1136 118.877C31.1335 118.723 31.2137 118.583 31.3367 118.489C31.4596 118.394 31.6152 118.352 31.7691 118.372Z" fill="white"/>
<path d="M30.9814 108.879C30.7421 108.711 30.4833 108.574 30.2107 108.469C30.2804 108.269 30.3816 108.082 30.5106 107.914C31.6736 106.43 32.1994 107.904 33.1016 107.937C33.3169 107.931 33.5309 107.97 33.7299 108.053C33.9289 108.135 34.1084 108.258 34.2568 108.414C34.1435 108.455 34.033 108.503 33.9261 108.558C33.8868 108.579 33.8528 108.609 33.8266 108.645C33.8003 108.681 33.7825 108.722 33.7745 108.766C33.7665 108.81 33.7685 108.855 33.7803 108.898C33.7921 108.941 33.8135 108.981 33.8428 109.014C33.9567 109.156 34.1131 109.258 34.2891 109.305C34.3435 109.315 34.3987 109.32 34.454 109.32C34.4144 109.545 34.3454 109.763 34.2485 109.97C34.1343 110.218 33.9923 110.451 33.8253 110.667C33.7284 110.616 33.6286 110.571 33.5264 110.533C33.4836 110.52 33.4384 110.517 33.3943 110.524C33.3502 110.532 33.3084 110.549 33.2719 110.575C33.2355 110.6 33.2055 110.634 33.1841 110.674C33.1627 110.713 33.1506 110.756 33.1486 110.801C33.1623 110.96 33.2041 111.115 33.2721 111.26C33.0416 111.461 32.7907 111.637 32.5236 111.786C32.4958 111.769 32.4689 111.751 32.4404 111.735C32.3792 111.702 32.3159 111.672 32.2521 111.644C32.2156 111.627 32.1778 111.613 32.139 111.603C32.0906 111.589 32.0394 111.587 31.9901 111.598C31.9408 111.609 31.8951 111.632 31.8572 111.665C31.8191 111.7 31.7908 111.744 31.7751 111.793C31.7594 111.843 31.7569 111.895 31.7679 111.945C31.7815 111.999 31.7989 112.051 31.8203 112.102C31.4828 112.226 31.119 112.26 30.7644 112.201C30.635 111.931 30.5214 111.653 30.4241 111.37C30.5156 111.348 30.6073 111.326 30.6974 111.3C30.7994 111.273 30.8885 111.211 30.9485 111.124C31.0054 111.034 31.0246 110.926 31.0019 110.822C30.9905 110.771 30.9691 110.722 30.9389 110.679C30.9088 110.636 30.8704 110.599 30.826 110.571C30.7816 110.543 30.7321 110.523 30.6803 110.514C30.6285 110.505 30.5754 110.506 30.524 110.518C30.4165 110.549 30.307 110.572 30.1978 110.597C30.0916 110.163 30.0449 109.716 30.0591 109.27L30.0865 109.282C30.2492 109.358 30.4046 109.45 30.5508 109.555C30.5952 109.583 30.6447 109.602 30.6965 109.611C30.7483 109.62 30.8015 109.619 30.8529 109.608C30.9043 109.597 30.9529 109.575 30.996 109.545C31.0392 109.515 31.0759 109.476 31.1042 109.432C31.1325 109.388 31.1518 109.338 31.1609 109.286C31.17 109.234 31.1689 109.181 31.1575 109.13C31.1461 109.079 31.1246 109.03 31.0944 108.987C31.0642 108.944 31.0258 108.907 30.9814 108.879Z" fill="#407BFF"/>
<path opacity="0.3" d="M30.9814 108.879C30.7421 108.711 30.4833 108.574 30.2107 108.469C30.2804 108.269 30.3816 108.082 30.5106 107.914C31.6736 106.43 32.1994 107.904 33.1016 107.937C33.3169 107.931 33.5309 107.97 33.7299 108.053C33.9289 108.135 34.1084 108.258 34.2568 108.414C34.1435 108.455 34.033 108.503 33.9261 108.558C33.8868 108.579 33.8528 108.609 33.8266 108.645C33.8003 108.681 33.7825 108.722 33.7745 108.766C33.7665 108.81 33.7685 108.855 33.7803 108.898C33.7921 108.941 33.8135 108.981 33.8428 109.014C33.9567 109.156 34.1131 109.258 34.2891 109.305C34.3435 109.315 34.3987 109.32 34.454 109.32C34.4144 109.545 34.3454 109.763 34.2485 109.97C34.1343 110.218 33.9923 110.451 33.8253 110.667C33.7284 110.616 33.6286 110.571 33.5264 110.533C33.4836 110.52 33.4384 110.517 33.3943 110.524C33.3502 110.532 33.3084 110.549 33.2719 110.575C33.2355 110.6 33.2055 110.634 33.1841 110.674C33.1627 110.713 33.1506 110.756 33.1486 110.801C33.1623 110.96 33.2041 111.115 33.2721 111.26C33.0416 111.461 32.7907 111.637 32.5236 111.786C32.4958 111.769 32.4689 111.751 32.4404 111.735C32.3792 111.702 32.3159 111.672 32.2521 111.644C32.2156 111.627 32.1778 111.613 32.139 111.603C32.0906 111.589 32.0394 111.587 31.9901 111.598C31.9408 111.609 31.8951 111.632 31.8572 111.665C31.8191 111.7 31.7908 111.744 31.7751 111.793C31.7594 111.843 31.7569 111.895 31.7679 111.945C31.7815 111.999 31.7989 112.051 31.8203 112.102C31.4828 112.226 31.119 112.26 30.7644 112.201C30.635 111.931 30.5214 111.653 30.4241 111.37C30.5156 111.348 30.6073 111.326 30.6974 111.3C30.7994 111.273 30.8885 111.211 30.9485 111.124C31.0054 111.034 31.0246 110.926 31.0019 110.822C30.9905 110.771 30.9691 110.722 30.9389 110.679C30.9088 110.636 30.8704 110.599 30.826 110.571C30.7816 110.543 30.7321 110.523 30.6803 110.514C30.6285 110.505 30.5754 110.506 30.524 110.518C30.4165 110.549 30.307 110.572 30.1978 110.597C30.0916 110.163 30.0449 109.716 30.0591 109.27L30.0865 109.282C30.2492 109.358 30.4046 109.45 30.5508 109.555C30.5952 109.583 30.6447 109.602 30.6965 109.611C30.7483 109.62 30.8015 109.619 30.8529 109.608C30.9043 109.597 30.9529 109.575 30.996 109.545C31.0392 109.515 31.0759 109.476 31.1042 109.432C31.1325 109.388 31.1518 109.338 31.1609 109.286C31.17 109.234 31.1689 109.181 31.1575 109.13C31.1461 109.079 31.1246 109.03 31.0944 108.987C31.0642 108.944 31.0258 108.907 30.9814 108.879Z" fill="white"/>
<path d="M42.1042 111.634C42.184 112.193 40.6691 112.561 39.4336 112.767C39.5344 113.781 40.2093 114.806 41.1412 115.764C42.3136 115.103 43.9874 114.23 44.2958 114.443C44.6326 114.676 42.9186 115.784 41.8469 116.436C42.6127 117.104 43.4239 117.719 44.2748 118.275C44.8002 117.784 45.4157 117.353 45.7821 117.586C46.1623 117.828 46.0595 118.588 45.8719 119.266C47.1474 120.009 48.1024 120.462 48.1024 120.462C48.4733 119.277 48.758 118.066 48.9545 116.84C48.8901 116.713 48.8262 116.585 48.7675 116.449C48.562 115.974 48.7622 115.772 49.1017 115.705C49.1984 114.838 49.2054 113.964 49.1226 113.096C47.6791 112.793 45.9237 112.233 46.5811 111.367C46.9776 110.845 47.7035 110.786 48.4589 110.916C48.3558 110.744 48.2365 110.581 48.1024 110.431C45.4749 107.536 43.6422 110.431 43.6422 110.431C42.1153 109.158 39.9707 109.503 39.5071 111.491C40.3646 111.271 42.0056 110.944 42.1042 111.634Z" fill="#407BFF"/>
<path opacity="0.5" d="M42.1042 111.634C42.184 112.193 40.6691 112.561 39.4336 112.767C39.5344 113.781 40.2093 114.806 41.1412 115.764C42.3136 115.103 43.9874 114.23 44.2958 114.443C44.6326 114.676 42.9186 115.784 41.8469 116.436C42.6127 117.104 43.4239 117.719 44.2748 118.275C44.8002 117.784 45.4157 117.353 45.7821 117.586C46.1623 117.828 46.0595 118.588 45.8719 119.266C47.1474 120.009 48.1024 120.462 48.1024 120.462C48.4733 119.277 48.758 118.066 48.9545 116.84C48.8901 116.713 48.8262 116.585 48.7675 116.449C48.562 115.974 48.7622 115.772 49.1017 115.705C49.1984 114.838 49.2054 113.964 49.1226 113.096C47.6791 112.793 45.9237 112.233 46.5811 111.367C46.9776 110.845 47.7035 110.786 48.4589 110.916C48.3558 110.744 48.2365 110.581 48.1024 110.431C45.4749 107.536 43.6422 110.431 43.6422 110.431C42.1153 109.158 39.9707 109.503 39.5071 111.491C40.3646 111.271 42.0056 110.944 42.1042 111.634Z" fill="white"/>
<path d="M54.2127 8.46094H118.028C119.076 8.46094 120.081 8.87741 120.823 9.61873C121.564 10.3601 121.981 11.3655 121.981 12.4139V133.507C121.981 134.556 121.564 135.561 120.823 136.303C120.081 137.044 119.076 137.46 118.028 137.46H54.2127C53.1643 137.46 52.1589 137.044 51.4176 136.303C50.6762 135.561 50.2598 134.556 50.2598 133.507V12.4138C50.2598 11.8947 50.362 11.3807 50.5607 10.9011C50.7593 10.4215 51.0505 9.98578 51.4175 9.61872C52.1589 8.8774 53.1643 8.46094 54.2127 8.46094Z" fill="#263238"/>
<path d="M119.582 12.7824V132.908C119.582 133.141 119.536 133.371 119.446 133.586C119.357 133.801 119.225 133.996 119.059 134.159C118.893 134.322 118.696 134.451 118.48 134.538C118.264 134.624 118.033 134.667 117.8 134.664H54.2945C54.083 134.666 53.8732 134.626 53.6776 134.546C53.4819 134.466 53.3045 134.347 53.1558 134.196C53.0072 134.046 52.8904 133.867 52.8125 133.671C52.7346 133.474 52.6971 133.264 52.7023 133.052V12.6379C52.6948 12.4515 52.7241 12.2654 52.7887 12.0903C52.8532 11.9152 52.9517 11.7546 53.0784 11.6176C53.2052 11.4806 53.3577 11.37 53.5272 11.2921C53.6968 11.2142 53.8801 11.1705 54.0666 11.1636H69.943C70.165 11.1676 70.3809 11.2377 70.5629 11.365C70.745 11.4922 70.885 11.6708 70.9652 11.8779L71.6225 13.4968C71.7037 13.7026 71.8442 13.8797 72.0262 14.0055C72.2082 14.1314 72.4235 14.2003 72.6447 14.2036H99.6741C99.8944 14.2026 100.109 14.136 100.291 14.0121C100.474 13.8882 100.615 13.7127 100.696 13.5082L101.354 11.8818C101.434 11.6742 101.574 11.4951 101.756 11.3672C101.938 11.2393 102.154 11.1684 102.376 11.1636H118.024C118.444 11.1754 118.843 11.3516 119.134 11.6544C119.426 11.9571 119.587 12.3622 119.582 12.7824Z" fill="#407BFF"/>
<path opacity="0.3" d="M119.583 18.6685H52.7031V126.683H119.583V18.6685Z" fill="white"/>
<path opacity="0.6" d="M84.6289 12.2397C85.1358 12.2397 85.5468 11.8287 85.5468 11.3217C85.5468 10.8148 85.1358 10.4038 84.6289 10.4038C84.1219 10.4038 83.7109 10.8148 83.7109 11.3217C83.7109 11.8287 84.1219 12.2397 84.6289 12.2397Z" fill="white"/>
<path opacity="0.6" d="M87.4047 11.322C87.4047 11.4383 87.3702 11.552 87.3056 11.6487C87.241 11.7454 87.1491 11.8208 87.0417 11.8653C86.9342 11.9098 86.816 11.9215 86.7019 11.8988C86.5878 11.8761 86.483 11.8201 86.4008 11.7378C86.3185 11.6556 86.2625 11.5508 86.2398 11.4367C86.2171 11.3226 86.2288 11.2044 86.2733 11.0969C86.3178 10.9895 86.3932 10.8976 86.4899 10.833C86.5866 10.7684 86.7003 10.7339 86.8166 10.7339C86.8938 10.7339 86.9703 10.7491 87.0417 10.7786C87.113 10.8082 87.1778 10.8515 87.2325 10.9061C87.2871 10.9607 87.3304 11.0256 87.3599 11.0969C87.3895 11.1683 87.4047 11.2447 87.4047 11.322Z" fill="white"/>
<path opacity="0.6" d="M60.2461 16.0044H61.0723V14.9031H60.2461V16.0044Z" fill="white"/>
<path opacity="0.6" d="M58.9004 16.0044H59.7266V14.5357H58.9004V16.0044Z" fill="white"/>
<path opacity="0.6" d="M57.5528 16.0044H58.3789V14.1683H57.5528V16.0044Z" fill="white"/>
<path opacity="0.6" d="M56.207 16.0044H57.0332V13.8009H56.207V16.0044Z" fill="white"/>
<path opacity="0.6" d="M112.187 14.5015H111.697V15.6027H112.187V14.5015Z" fill="white"/>
<path opacity="0.6" d="M112.523 16.0044H116.424V14.0993H112.523V16.0044Z" fill="white"/>
<mask id="mask0_773_815" style="mask-type:luminance" maskUnits="userSpaceOnUse" x="56" y="22" width="31" height="35">
<path d="M86.9077 40.9872C86.9077 45.0035 85.3122 48.8552 82.4723 51.6952C79.6324 54.5351 75.7806 56.1305 71.7644 56.1305C67.7481 56.1305 63.8964 54.5351 61.0565 51.6952C58.2165 48.8552 56.6211 45.0035 56.6211 40.9872C56.6211 32.6238 62.705 22.9067 71.0684 22.9067C79.4318 22.9067 86.9077 32.6238 86.9077 40.9872Z" fill="white"/>
</mask>
<g mask="url(#mask0_773_815)">
<path d="M71.7644 56.1303C80.1278 56.1303 86.9077 49.3504 86.9077 40.987C86.9077 32.6236 80.1278 25.8438 71.7644 25.8438C63.401 25.8438 56.6211 32.6236 56.6211 40.987C56.6211 49.3504 63.401 56.1303 71.7644 56.1303Z" fill="white"/>
<path d="M77.2144 38.4418C77.2144 38.4418 68.4888 38.0308 61.9883 39.6716C61.9883 39.6716 64.8582 54.1201 64.7491 62.3389H78.5813C78.5813 62.3389 79.4804 46.9239 77.2144 38.4418Z" fill="#407BFF"/>
<path opacity="0.6" d="M78.5789 62.3388H64.7508C64.7634 61.4444 64.7381 60.4802 64.6874 59.4653C64.5668 57.093 64.2973 54.4637 63.9705 51.9201C63.9388 51.6728 63.9072 51.4254 63.8754 51.178C63.6534 49.5256 63.4155 47.9271 63.184 46.4682C62.5593 42.5512 61.9883 39.6714 61.9883 39.6714C68.487 38.0317 77.212 38.4409 77.212 38.4409C79.4765 46.9248 78.5789 62.3388 78.5789 62.3388Z" fill="white"/>
<path d="M67.082 39.0161C68.3349 40.1545 71.4045 39.7335 71.4045 39.7335C71.4045 39.7335 73.3203 39.2091 72.918 38.6105C71.7894 38.424 71.243 37.8973 71.0173 37.2234C70.894 36.8056 70.8551 36.3675 70.9029 35.9345C70.9216 35.6931 70.9533 35.4529 70.9977 35.2148L67.2031 32.4048C67.7003 34.2596 68.3087 37.6716 67.082 39.0161Z" fill="#EBB376"/>
<path opacity="0.2" d="M68.0801 34.1909C68.2306 36.4677 70.1018 37.0958 71.0177 37.2234C70.8943 36.8056 70.8554 36.3675 70.9032 35.9345L68.0801 34.1909Z" fill="black"/>
<path d="M72.7949 26.5552C72.7949 26.5552 74.0944 29.896 72.5563 31.6367C71.0182 33.3775 69.5781 26.9395 69.5781 26.9395L72.7949 26.5552Z" fill="#263238"/>
<path d="M67.8418 35.5773C68.3539 36.0605 69.0105 36.3623 69.7107 36.4364C70.4109 36.5105 71.1161 36.3528 71.718 35.9874C72.5055 35.5296 73.089 34.789 73.3498 33.9162C73.3868 33.7948 73.4174 33.6716 73.4415 33.5471C73.8723 31.2316 73.3327 27.4706 70.7881 26.5849C70.227 26.3864 69.6244 26.3348 69.0377 26.435C68.4509 26.5352 67.8996 26.7839 67.4362 27.1574C66.9727 27.5308 66.6125 28.0167 66.3899 28.5687C66.1673 29.1207 66.0896 29.7204 66.1643 30.311C66.4425 32.8433 66.4867 34.3452 67.8418 35.5773Z" fill="#EBB376"/>
<path d="M70.0611 30.8256C70.0572 31.0317 70.1883 31.1944 70.3258 31.1872C70.4634 31.18 70.5616 31.0052 70.5523 30.7989C70.5432 30.5926 70.4219 30.43 70.2876 30.4372C70.1534 30.4446 70.052 30.616 70.0611 30.8256Z" fill="#263238"/>
<path d="M72.4029 30.706C72.399 30.9121 72.5334 31.0748 72.6677 31.0676C72.802 31.0603 72.9034 30.8855 72.8942 30.6793C72.885 30.473 72.7638 30.3104 72.6295 30.3176C72.4952 30.3249 72.3935 30.5095 72.4029 30.706Z" fill="#263238"/>
<path d="M71.6641 30.8462C71.9429 31.4671 72.3064 32.0465 72.744 32.5679C72.6069 32.6769 72.4475 32.7545 72.2772 32.7954C72.1068 32.8363 71.9296 32.8394 71.758 32.8045L71.6641 30.8462Z" fill="#D58745"/>
<path d="M69.2952 30.1043C69.3174 30.1063 69.3398 30.1024 69.3601 30.093C69.3804 30.0837 69.3978 30.0691 69.4107 30.0509C69.4935 29.9226 69.6052 29.8153 69.7367 29.7377C69.8682 29.6601 70.0161 29.6143 70.1684 29.6038C70.1843 29.6042 70.2001 29.6014 70.2149 29.5956C70.2297 29.5898 70.2433 29.5812 70.2547 29.5702C70.2662 29.5592 70.2754 29.5461 70.2818 29.5315C70.2882 29.517 70.2917 29.5013 70.292 29.4854C70.2923 29.4695 70.2895 29.4537 70.2838 29.4389C70.278 29.4241 70.2694 29.4106 70.2584 29.3991C70.2474 29.3876 70.2342 29.3784 70.2197 29.372C70.2051 29.3656 70.1894 29.3622 70.1735 29.3618H70.173C69.9802 29.3701 69.7922 29.4244 69.6247 29.5203C69.4572 29.6162 69.3152 29.7508 69.2105 29.9129C69.2012 29.9258 69.1945 29.9404 69.1908 29.9559C69.1871 29.9713 69.1865 29.9874 69.189 30.0031C69.1915 30.0188 69.1971 30.0338 69.2055 30.0473C69.2138 30.0609 69.2247 30.0726 69.2376 30.082L69.24 30.0836C69.2572 30.0934 69.2758 30.1004 69.2952 30.1043Z" fill="#263238"/>
<path d="M73.3669 29.8477C73.3901 29.8556 73.4153 29.8561 73.4388 29.8491C73.4528 29.8416 73.4653 29.8315 73.4754 29.8192C73.4855 29.807 73.4931 29.7929 73.4978 29.7777C73.5025 29.7625 73.5041 29.7465 73.5026 29.7307C73.5011 29.7149 73.4964 29.6995 73.489 29.6855L73.4877 29.6831C73.3983 29.5114 73.2689 29.3637 73.1104 29.2525C72.9519 29.1414 72.769 29.0699 72.5771 29.0443C72.5451 29.0419 72.5135 29.0523 72.4891 29.0733C72.4648 29.0942 72.4498 29.124 72.4474 29.156C72.4459 29.1879 72.4566 29.2194 72.4775 29.2436C72.4984 29.2677 72.5277 29.2829 72.5595 29.286C72.7105 29.3107 72.8536 29.3703 72.9775 29.4602C73.1013 29.55 73.2025 29.6675 73.2728 29.8034C73.2844 29.8171 73.2987 29.8282 73.315 29.8359C73.3312 29.8435 73.3489 29.8475 73.3669 29.8477Z" fill="#263238"/>
<path d="M67.8683 27.0425L68.1152 28.1463C67.9354 28.2553 67.8032 28.4279 67.7449 28.6299C67.6866 28.832 67.7064 29.0485 67.8005 29.2366C68.2541 30.1407 67.8651 31.6511 67.2015 32.3036C67.2015 32.3036 67.1389 31.8986 66.8049 32.0291C66.471 32.1598 66.7755 34.2705 67.5456 35.2156C66.5881 34.3568 65.8699 33.2641 65.4614 32.0444C64.7285 30.0382 64.6806 28.5167 65.0249 27.6785L67.8683 27.0425Z" fill="#263238"/>
<path d="M65.1585 32.4534C65.47 33.0146 65.9914 33.4293 66.6082 33.6066C67.4266 33.8356 67.8361 33.1027 67.611 32.329C67.4045 31.6433 66.7326 30.6745 65.9096 30.7943C65.7302 30.8206 65.5602 30.8915 65.4154 31.0006C65.2706 31.1097 65.1555 31.2534 65.0807 31.4186C65.0059 31.5838 64.9738 31.7651 64.9874 31.9459C65.001 32.1268 65.0598 32.3013 65.1585 32.4534Z" fill="#EBB376"/>
<path d="M68.115 28.1463C68.115 28.1463 70.8664 29.1218 72.4317 27.6686C73.997 26.2153 72.1885 24.2559 72.1885 24.2559C71.8087 24.6451 71.3027 24.8863 70.7611 24.9364C69.8851 24.9988 67.8584 24.4723 66.2286 25.3012C64.5988 26.1301 63.9869 28.4817 65.4798 29.5484L68.115 28.1463Z" fill="#263238"/>
<path d="M70.3066 33.1606C70.4487 33.3789 70.6582 33.5447 70.9032 33.6329C71.1482 33.7211 71.4153 33.7268 71.6638 33.6492" stroke="#263238" stroke-width="0.5" stroke-linecap="round" stroke-linejoin="round"/>
<path d="M72.6542 39.5481L72.287 41.3533C72.287 41.3533 74.3887 50.1201 74.8408 54.6679L74.075 55.4349L72.8698 54.6679C72.8698 54.6679 72.762 45.4079 71.6987 41.5177L69.793 39.9572L71.2929 39.4717L72.6542 39.5481Z" fill="#407BFF"/>
<path d="M67.5121 37.2983L71.1572 38.9421L71.3709 37.6245L72.7111 38.0958C72.9447 38.178 73.1439 38.3366 73.2763 38.5459C73.4088 38.7552 73.4669 39.0031 73.4411 39.2495L73.2899 40.6955L71.4405 39.6834L70.5191 40.9869L66.1406 38.8778L67.5121 37.2983Z" fill="#407BFF"/>
<path opacity="0.7" d="M67.5121 37.2983L71.1572 38.9421L71.3709 37.6245L72.7111 38.0958C72.9447 38.178 73.1439 38.3366 73.2763 38.5459C73.4088 38.7552 73.4669 39.0031 73.4411 39.2495L73.2899 40.6955L71.4405 39.6834L70.5191 40.9869L66.1406 38.8778L67.5121 37.2983Z" fill="white"/>
<path d="M66.2389 38.6515C66.2389 38.6515 69.6785 41.4506 73.5635 50.3674C73.5635 50.3674 73.7048 41.6531 72.9732 38.2354L77.212 38.4411C77.212 38.4411 80.3148 45.2944 78.7562 60.0998L79.8325 67.5025L75.1576 69.4577L74.0802 66.0152L72.9732 69.3985L63.9606 68.1926L64.4379 58.8451C64.4379 58.8451 62.2745 43.3965 61.9883 39.6717L66.2389 38.6515Z" fill="#263238"/>
<path opacity="0.1" d="M79.8336 67.5019L75.1586 69.4556L74.0803 66.0144L72.9734 69.3953L69.4911 68.9291L63.9598 68.1901L64.1977 63.5469L64.4387 58.8434C64.4387 58.8434 64.3435 58.1805 64.1977 57.0959C64.0391 55.9604 63.8202 54.3588 63.5792 52.5763C63.4618 51.6978 63.3382 50.7749 63.2113 49.8392C63.0813 48.8529 62.9513 47.8507 62.8243 46.877C62.4311 43.8069 62.0918 40.9968 61.9902 39.6711L65.9452 38.7196L66.2402 38.6499C66.2402 38.6499 69.5481 41.3425 73.3413 49.8583C73.4142 50.0264 73.4873 50.1945 73.5634 50.3657C73.5634 50.3657 73.5666 50.1913 73.5697 49.8837C73.5856 48.0093 73.6014 41.1681 72.9734 38.2344L77.2139 38.4405C77.2139 38.4405 78.9709 42.3194 79.1771 50.5465C79.1993 51.5202 79.2024 52.5573 79.1803 53.6547C79.1358 55.6052 79.0058 57.7524 78.7584 60.0993L79.8336 67.5019Z" fill="white"/>
<path opacity="0.2" d="M75.1272 42.2194L76.1104 43.9542C76.1104 43.9542 75.0891 50.6273 73.4462 52.9489V51.5692L67.084 44.2333L68.2258 42.4699L65.3618 43.0345C65.3618 43.0345 65.0954 40.3545 65.9454 38.7211L66.2403 38.6513C66.2403 38.6513 69.6784 41.4519 73.5636 50.3672C73.5636 50.3672 73.7063 41.6517 72.9736 38.2358C72.9736 38.2358 75.0003 39.3332 76.4433 42.2194H75.1272Z" fill="white"/>
<path opacity="0.2" d="M79.1799 53.6547C78.1047 53.4929 76.6553 53.2201 74.8411 52.7697C74.8411 52.7697 69.3765 56.3125 66.9121 56.7374C65.7609 56.9373 64.8792 57.0451 64.1973 57.0958C64.0387 55.9604 63.8198 54.3587 63.5789 52.5763C63.4615 51.6978 63.3378 50.7748 63.2109 49.8392L65.0917 43.7212L69.792 49.4396L73.341 49.8582L73.5694 49.8836L79.1768 50.5465C79.199 51.5202 79.2021 52.5573 79.1799 53.6547Z" fill="black"/>
<path d="M77.2131 38.4419C79.0827 38.88 84.8543 47.0617 84.687 50.4154C84.5197 53.7691 70.0273 52.0038 70.0273 52.0038L70.4055 50.3671L79.0173 47.4807C78.8955 46.0489 78.6975 44.6246 78.424 43.2139C78.1143 41.6009 77.7099 40.0075 77.2131 38.4419Z" fill="#263238"/>
<path opacity="0.1" d="M84.6865 50.4164C84.5977 52.2274 80.3319 52.5445 76.4276 52.4526C75.1653 52.424 73.9443 52.3542 72.9104 52.2749C71.2136 52.1481 70.0273 52.0022 70.0273 52.0022L70.4048 50.3656L73.4052 49.3602L79.0189 47.4795C78.8964 46.0481 78.6984 44.6242 78.4258 43.2137C78.4004 43.0742 78.3718 42.9409 78.3433 42.8045C78.0469 41.3303 77.67 39.8734 77.2142 38.4404C79.0823 38.8813 84.8546 47.0608 84.6865 50.4164Z" fill="white"/>
<path opacity="0.2" d="M81.5093 47.4545C80.047 49.3405 78.3381 51.0217 76.4284 52.4529C75.1661 52.4244 73.9451 52.3546 72.9112 52.2753C72.7228 51.6568 72.6339 51.0124 72.6479 50.366L73.406 49.3606L79.0197 47.4799C78.8972 46.0485 78.6992 44.6246 78.4266 43.2141C78.4012 43.0745 78.3726 42.9413 78.3441 42.8049L78.3726 42.77C78.3726 42.77 80.8814 44.692 81.5093 47.4545Z" fill="black"/>
<path d="M71.2617 49.4612C71.2617 49.4612 69.547 48.081 68.8778 47.8719C68.2086 47.6628 66.9121 48.6665 66.9121 48.6665L68.5851 51.0505L71.2617 49.4612Z" fill="#EBB376"/>
<path d="M78.9573 49.1688L81.5086 47.4534C81.5086 47.4534 79.5847 46.0739 79.3338 46.0321C79.0828 45.9903 77.8281 47.4534 77.8281 47.4534L78.9573 49.1688Z" fill="#EBB376"/>
<path d="M61.9903 39.6727C59.5102 40.8877 63.0586 52.6648 66.1359 55.0573C69.2132 57.4497 79.6564 49.1469 79.6564 49.1469L78.0798 46.9364C78.0798 46.9364 69.9076 49.7837 68.8494 49.518C67.7912 49.2524 64.8962 43.1296 63.9598 41.7159C63.3415 40.8205 62.5506 40.0575 61.6335 39.4717" fill="#263238"/>
<path opacity="0.1" d="M61.9903 39.6727C59.5102 40.8877 63.0586 52.6648 66.1359 55.0573C69.2132 57.4497 79.6564 49.1469 79.6564 49.1469L78.0798 46.9364C78.0798 46.9364 69.9076 49.7837 68.8494 49.518C67.7912 49.2524 64.8962 43.1296 63.9598 41.7159C63.3415 40.8205 62.5506 40.0575 61.6335 39.4717" fill="white"/>
</g>
<path d="M107.514 33.9505H93.4122C93.1734 33.9505 92.937 33.9035 92.7163 33.8121C92.4957 33.7207 92.2952 33.5867 92.1264 33.4179C91.9575 33.249 91.8235 33.0485 91.7322 32.8279C91.6408 32.6072 91.5937 32.3708 91.5938 32.132C91.5938 31.6497 91.7853 31.1871 92.1264 30.8461C92.4674 30.5051 92.9299 30.3135 93.4122 30.3135H107.514C107.996 30.3135 108.459 30.5051 108.8 30.8461C109.141 31.1871 109.333 31.6497 109.333 32.132C109.333 32.6143 109.141 33.0768 108.8 33.4179C108.459 33.7589 107.996 33.9505 107.514 33.9505Z" fill="#407BFF"/>
<path d="M113.941 38.2534H92.291C92.1061 38.2534 91.9287 38.18 91.798 38.0492C91.6672 37.9184 91.5937 37.7411 91.5938 37.5561C91.5937 37.4646 91.6118 37.3739 91.6468 37.2893C91.6819 37.2047 91.7332 37.1279 91.798 37.0631C91.8627 36.9984 91.9396 36.947 92.0242 36.912C92.1088 36.8769 92.1994 36.8589 92.291 36.8589H113.941C114.126 36.8589 114.304 36.9323 114.434 37.0631C114.565 37.1939 114.639 37.3712 114.639 37.5561C114.639 37.7411 114.565 37.9184 114.434 38.0492C114.304 38.18 114.126 38.2534 113.941 38.2534Z" fill="#407BFF"/>
<path d="M104.756 41.4995H92.291C92.1994 41.4995 92.1088 41.4815 92.0242 41.4465C91.9396 41.4114 91.8627 41.3601 91.798 41.2953C91.7332 41.2306 91.6819 41.1537 91.6468 41.0691C91.6118 40.9845 91.5937 40.8938 91.5938 40.8023C91.5937 40.6173 91.6672 40.44 91.798 40.3092C91.9287 40.1785 92.1061 40.105 92.291 40.105H104.756C104.941 40.105 105.118 40.1785 105.249 40.3092C105.38 40.44 105.453 40.6173 105.453 40.8023C105.453 40.8938 105.435 40.9845 105.4 41.0691C105.365 41.1537 105.314 41.2306 105.249 41.2953C105.184 41.3601 105.107 41.4114 105.023 41.4465C104.938 41.4815 104.847 41.4995 104.756 41.4995Z" fill="#407BFF"/>
<path opacity="0.2" d="M98.7682 50.0472H93.2887C92.8392 50.0472 92.4081 49.8687 92.0902 49.5508C91.7723 49.2329 91.5938 48.8018 91.5938 48.3523C91.5937 48.1297 91.6376 47.9093 91.7228 47.7036C91.8079 47.498 91.9328 47.3111 92.0902 47.1537C92.2476 46.9963 92.4344 46.8714 92.6401 46.7863C92.8457 46.7011 93.0661 46.6572 93.2887 46.6572H98.7682C98.9908 46.6572 99.2112 46.7011 99.4168 46.7863C99.6225 46.8714 99.8093 46.9963 99.9667 47.1537C100.124 47.3111 100.249 47.498 100.334 47.7036C100.419 47.9093 100.463 48.1297 100.463 48.3523C100.463 48.8018 100.285 49.2329 99.9667 49.5508C99.6488 49.8687 99.2177 50.0472 98.7682 50.0472Z" fill="black"/>
<path d="M79.2152 60.7095H54.4609V122.737H79.2152V60.7095Z" fill="#407BFF"/>
<g opacity="0.3">
<path d="M72.7144 77.0918H58.6641C58.4792 77.0918 58.3018 77.0184 58.171 76.8876C58.0403 76.7568 57.9668 76.5795 57.9668 76.3945C57.9668 76.2096 58.0403 76.0322 58.171 75.9015C58.3018 75.7707 58.4792 75.6973 58.6641 75.6973H72.7144C72.8994 75.6973 73.0767 75.7707 73.2075 75.9015C73.3383 76.0322 73.4117 76.2096 73.4117 76.3945C73.4117 76.5795 73.3383 76.7568 73.2075 76.8876C73.0767 77.0184 72.8994 77.0918 72.7144 77.0918Z" fill="white"/>
<path d="M67.3289 80.3384H58.6641C58.4792 80.3384 58.3018 80.2649 58.171 80.1342C58.0403 80.0034 57.9668 79.826 57.9668 79.6411C57.9668 79.4562 58.0403 79.2788 58.171 79.1481C58.3018 79.0173 58.4792 78.9438 58.6641 78.9438H67.3289C67.4204 78.9438 67.5111 78.9619 67.5957 78.9969C67.6803 79.032 67.7572 79.0833 67.8219 79.1481C67.8867 79.2128 67.938 79.2897 67.9731 79.3743C68.0081 79.4589 68.0262 79.5495 68.0262 79.6411C68.0262 79.7327 68.0081 79.8234 67.9731 79.9079C67.938 79.9925 67.8867 80.0694 67.8219 80.1342C67.7572 80.1989 67.6803 80.2503 67.5957 80.2853C67.5111 80.3203 67.4204 80.3384 67.3289 80.3384Z" fill="white"/>
</g>
<g opacity="0.3">
<path d="M68.9144 86.8023H58.6641C58.4792 86.8023 58.3018 86.7288 58.171 86.5981C58.0403 86.4673 57.9668 86.29 57.9668 86.105C57.9668 85.9201 58.0403 85.7427 58.171 85.612C58.3018 85.4812 58.4792 85.4077 58.6641 85.4077H68.9144C69.0994 85.4077 69.2767 85.4812 69.4075 85.612C69.5383 85.7427 69.6117 85.9201 69.6117 86.105C69.6117 86.29 69.5383 86.4673 69.4075 86.5981C69.2767 86.7288 69.0994 86.8023 68.9144 86.8023Z" fill="white"/>
<path d="M71.1289 90.0489H58.6641C58.4792 90.0488 58.3018 89.9754 58.171 89.8446C58.0403 89.7138 57.9668 89.5365 57.9668 89.3516C57.9668 89.1666 58.0403 88.9893 58.171 88.8585C58.3018 88.7278 58.4792 88.6543 58.6641 88.6543H71.1289C71.2204 88.6543 71.3111 88.6723 71.3957 88.7074C71.4803 88.7424 71.5572 88.7938 71.6219 88.8585C71.6867 88.9232 71.738 89.0001 71.7731 89.0847C71.8081 89.1693 71.8262 89.26 71.8262 89.3516C71.8262 89.5365 71.7527 89.7138 71.6219 89.8446C71.4912 89.9754 71.3138 90.0489 71.1289 90.0489Z" fill="white"/>
</g>
<g opacity="0.3">
<path d="M72.7144 96.5122H58.6641C58.4792 96.5122 58.3018 96.4387 58.171 96.308C58.0403 96.1772 57.9668 95.9999 57.9668 95.8149C57.9668 95.63 58.0403 95.4527 58.171 95.3219C58.3018 95.1911 58.4792 95.1177 58.6641 95.1177H72.7144C72.8994 95.1177 73.0767 95.1911 73.2075 95.3219C73.3383 95.4527 73.4117 95.63 73.4117 95.8149C73.4117 95.9999 73.3383 96.1772 73.2075 96.308C73.0767 96.4387 72.8994 96.5122 72.7144 96.5122Z" fill="white"/>
<path d="M63.5289 99.7588H58.6641C58.4792 99.7588 58.3018 99.6854 58.171 99.5546C58.0403 99.4238 57.9668 99.2465 57.9668 99.0616C57.9668 98.8766 58.0403 98.6993 58.171 98.5685C58.3018 98.4377 58.4792 98.3643 58.6641 98.3643H63.5289C63.7138 98.3643 63.8912 98.4377 64.0219 98.5685C64.1527 98.6993 64.2262 98.8766 64.2262 99.0616C64.2262 99.1531 64.2081 99.2438 64.1731 99.3284C64.138 99.413 64.0867 99.4899 64.0219 99.5546C63.9572 99.6194 63.8803 99.6707 63.7957 99.7058C63.7111 99.7408 63.6204 99.7588 63.5289 99.7588Z" fill="white"/>
</g>
<g opacity="0.3">
<path d="M65.1144 106.223H58.6641C58.4792 106.223 58.3018 106.149 58.171 106.018C58.0403 105.888 57.9668 105.71 57.9668 105.525C57.9668 105.34 58.0403 105.163 58.171 105.032C58.3018 104.902 58.4792 104.828 58.6641 104.828H65.1144C65.2994 104.828 65.4767 104.902 65.6075 105.032C65.7383 105.163 65.8117 105.34 65.8117 105.525C65.8117 105.71 65.7383 105.888 65.6075 106.018C65.4767 106.149 65.2994 106.223 65.1144 106.223Z" fill="white"/>
<path d="M71.1289 109.469H58.6641C58.4792 109.469 58.3018 109.396 58.171 109.265C58.0403 109.134 57.9668 108.957 57.9668 108.772C57.9668 108.587 58.0403 108.41 58.171 108.279C58.3018 108.148 58.4792 108.075 58.6641 108.075H71.1289C71.2204 108.075 71.3111 108.093 71.3957 108.128C71.4803 108.163 71.5572 108.214 71.6219 108.279C71.6867 108.344 71.738 108.421 71.7731 108.505C71.8081 108.59 71.8262 108.68 71.8262 108.772C71.8262 108.864 71.8081 108.954 71.7731 109.039C71.738 109.123 71.6867 109.2 71.6219 109.265C71.5572 109.33 71.4803 109.381 71.3957 109.416C71.3111 109.451 71.2204 109.469 71.1289 109.469Z" fill="white"/>
</g>
<path opacity="0.3" d="M80.6179 122.737H117.699L117.699 60.7098L80.6179 60.7098V122.737Z" fill="white"/>
<g opacity="0.2">
<path d="M86.4687 67.3813H96.7191C96.904 67.3813 97.0814 67.3079 97.2121 67.1771C97.3429 67.0464 97.4164 66.869 97.4164 66.6841C97.4164 66.4992 97.3429 66.3218 97.2121 66.191C97.0814 66.0603 96.904 65.9868 96.7191 65.9868H86.4687C86.2838 65.9868 86.1065 66.0603 85.9757 66.191C85.8449 66.3218 85.7715 66.4992 85.7715 66.6841C85.7715 66.869 85.8449 67.0464 85.9757 67.1771C86.1065 67.3079 86.2838 67.3813 86.4687 67.3813Z" fill="black"/>
<path d="M110.398 73.106H91.0273C90.8424 73.106 90.6651 73.1794 90.5343 73.3102C90.4035 73.4409 90.3301 73.6183 90.3301 73.8032C90.3301 73.9881 90.4035 74.1655 90.5343 74.2963C90.6651 74.427 90.8424 74.5005 91.0273 74.5005H110.398C110.583 74.5005 110.76 74.427 110.891 74.2963C111.021 74.1655 111.095 73.9881 111.095 73.8032C111.095 73.6183 111.021 73.4409 110.891 73.3102C110.76 73.1794 110.583 73.106 110.398 73.106Z" fill="black"/>
<path d="M86.4687 77.7471H110.333C110.518 77.7471 110.696 77.6736 110.827 77.5428C110.957 77.4121 111.031 77.2347 111.031 77.0498C111.031 76.8649 110.957 76.6875 110.827 76.5568C110.696 76.426 110.518 76.3525 110.333 76.3525H86.4687C86.2838 76.3525 86.1065 76.426 85.9757 76.5568C85.8449 76.6875 85.7715 76.8649 85.7715 77.0498C85.7715 77.2347 85.8449 77.4121 85.9757 77.5428C86.1065 77.6736 86.2838 77.7471 86.4687 77.7471Z" fill="black"/>
<path d="M110.398 80.2251H86.4681C86.3761 80.2244 86.2848 80.242 86.1996 80.2767C86.1145 80.3114 86.037 80.3627 85.9717 80.4275C85.9064 80.4923 85.8546 80.5694 85.8192 80.6544C85.7838 80.7393 85.7656 80.8304 85.7656 80.9224C85.7656 81.0144 85.7838 81.1055 85.8192 81.1904C85.8546 81.2754 85.9064 81.3525 85.9717 81.4173C86.037 81.4821 86.1145 81.5334 86.1996 81.5681C86.2848 81.6028 86.3761 81.6204 86.4681 81.6197H110.398C110.582 81.6183 110.758 81.5443 110.888 81.4136C111.018 81.283 111.091 81.1064 111.091 80.9224C111.091 80.7384 111.018 80.5618 110.888 80.4312C110.758 80.3005 110.582 80.2265 110.398 80.2251Z" fill="black"/>
<path d="M86.4687 84.8662H110.333C110.518 84.8662 110.696 84.7927 110.827 84.662C110.957 84.5312 111.031 84.3539 111.031 84.1689C111.031 83.984 110.957 83.8067 110.827 83.6759C110.696 83.5451 110.518 83.4717 110.333 83.4717H86.4687C86.2838 83.4717 86.1065 83.5451 85.9757 83.6759C85.8449 83.8067 85.7715 83.984 85.7715 84.1689C85.7715 84.3539 85.8449 84.5312 85.9757 84.662C86.1065 84.7927 86.2838 84.8662 86.4687 84.8662Z" fill="black"/>
<path d="M110.398 87.3443H86.4681C86.3761 87.3436 86.2848 87.3611 86.1996 87.3959C86.1145 87.4306 86.037 87.4818 85.9717 87.5467C85.9064 87.6115 85.8546 87.6886 85.8192 87.7735C85.7838 87.8584 85.7656 87.9495 85.7656 88.0415C85.7656 88.1335 85.7838 88.2246 85.8192 88.3096C85.8546 88.3945 85.9064 88.4716 85.9717 88.5364C86.037 88.6012 86.1145 88.6525 86.1996 88.6872C86.2848 88.722 86.3761 88.7395 86.4681 88.7388H110.398C110.582 88.7375 110.758 88.6634 110.888 88.5328C111.018 88.4022 111.091 88.2256 111.091 88.0415C111.091 87.8575 111.018 87.6809 110.888 87.5503C110.758 87.4197 110.582 87.3456 110.398 87.3443Z" fill="black"/>
<path d="M86.4681 91.9854H105.013C105.197 91.9841 105.373 91.91 105.503 91.7794C105.632 91.6488 105.705 91.4722 105.705 91.2881C105.705 91.1041 105.632 90.9275 105.503 90.7969C105.373 90.6663 105.197 90.5922 105.013 90.5908H86.4681C86.3761 90.5902 86.2848 90.6077 86.1996 90.6424C86.1145 90.6772 86.037 90.7284 85.9717 90.7932C85.9064 90.8581 85.8546 90.9352 85.8192 91.0201C85.7838 91.105 85.7656 91.1961 85.7656 91.2881C85.7656 91.3801 85.7838 91.4712 85.8192 91.5562C85.8546 91.6411 85.9064 91.7182 85.9717 91.783C86.037 91.8478 86.1145 91.8991 86.1996 91.9338C86.2848 91.9686 86.3761 91.9861 86.4681 91.9854Z" fill="black"/>
<path d="M91.0286 99.1045H110.333C110.517 99.1032 110.693 99.0291 110.823 98.8985C110.953 98.7679 111.026 98.5913 111.026 98.4073C111.026 98.2232 110.953 98.0466 110.823 97.916C110.693 97.7854 110.517 97.7113 110.333 97.71H91.0286C90.9366 97.7093 90.8454 97.7268 90.7602 97.7616C90.675 97.7963 90.5975 97.8476 90.5322 97.9124C90.4669 97.9772 90.4151 98.0543 90.3797 98.1392C90.3444 98.2242 90.3262 98.3153 90.3262 98.4073C90.3262 98.4993 90.3444 98.5904 90.3797 98.6753C90.4151 98.7602 90.4669 98.8373 90.5322 98.9021C90.5975 98.967 90.675 99.0182 90.7602 99.053C90.8454 99.0877 90.9366 99.1052 91.0286 99.1045Z" fill="black"/>
<path d="M110.399 101.583H86.4688C86.2839 101.583 86.1065 101.656 85.9757 101.787C85.845 101.918 85.7715 102.095 85.7715 102.28C85.7715 102.465 85.845 102.643 85.9757 102.773C86.1065 102.904 86.2839 102.978 86.4688 102.978H110.399C110.584 102.978 110.761 102.904 110.892 102.773C111.023 102.643 111.096 102.465 111.096 102.28C111.096 102.095 111.023 101.918 110.892 101.787C110.761 101.656 110.584 101.583 110.399 101.583Z" fill="black"/>
<path d="M86.4681 106.224H110.333C110.517 106.222 110.693 106.148 110.823 106.018C110.952 105.887 111.025 105.71 111.025 105.526C111.025 105.342 110.952 105.166 110.823 105.035C110.693 104.905 110.517 104.83 110.333 104.829H86.4681C86.3761 104.828 86.2848 104.846 86.1996 104.881C86.1145 104.915 86.037 104.967 85.9717 105.032C85.9064 105.096 85.8546 105.173 85.8192 105.258C85.7838 105.343 85.7656 105.434 85.7656 105.526C85.7656 105.618 85.7838 105.71 85.8192 105.794C85.8546 105.879 85.9064 105.956 85.9717 106.021C86.037 106.086 86.1145 106.137 86.1996 106.172C86.2848 106.207 86.3761 106.224 86.4681 106.224Z" fill="black"/>
<path d="M105.458 108.702H86.4681C86.3761 108.701 86.2848 108.719 86.1996 108.754C86.1145 108.788 86.037 108.84 85.9717 108.905C85.9064 108.969 85.8546 109.046 85.8192 109.131C85.7838 109.216 85.7656 109.307 85.7656 109.399C85.7656 109.491 85.7838 109.583 85.8192 109.667C85.8546 109.752 85.9064 109.83 85.9717 109.894C86.037 109.959 86.1145 110.01 86.1996 110.045C86.2848 110.08 86.3761 110.097 86.4681 110.097H105.458C105.642 110.095 105.818 110.021 105.948 109.891C106.078 109.76 106.151 109.583 106.151 109.399C106.151 109.215 106.078 109.039 105.948 108.908C105.818 108.778 105.642 108.704 105.458 108.702Z" fill="black"/>
<path d="M110.398 115.821H86.4681C86.3761 115.821 86.2848 115.838 86.1996 115.873C86.1145 115.908 86.037 115.959 85.9717 116.024C85.9064 116.089 85.8546 116.166 85.8192 116.251C85.7838 116.335 85.7656 116.427 85.7656 116.519C85.7656 116.611 85.7838 116.702 85.8192 116.787C85.8546 116.872 85.9064 116.949 85.9717 117.013C86.037 117.078 86.1145 117.13 86.1996 117.164C86.2848 117.199 86.3761 117.217 86.4681 117.216H110.398C110.582 117.215 110.758 117.14 110.888 117.01C111.018 116.879 111.091 116.703 111.091 116.519C111.091 116.335 111.018 116.158 110.888 116.027C110.758 115.897 110.582 115.823 110.398 115.821Z" fill="black"/>
</g>
<g opacity="0.3">
<path d="M68.9144 67.3813H58.6641C58.4792 67.3813 58.3018 67.3079 58.171 67.1771C58.0403 67.0464 57.9668 66.869 57.9668 66.6841C57.9668 66.4991 58.0403 66.3218 58.171 66.191C58.3018 66.0603 58.4792 65.9868 58.6641 65.9868H68.9144C69.0994 65.9868 69.2767 66.0603 69.4075 66.191C69.5383 66.3218 69.6117 66.4991 69.6117 66.6841C69.6117 66.869 69.5383 67.0464 69.4075 67.1771C69.2767 67.3079 69.0994 67.3813 68.9144 67.3813Z" fill="white"/>
<path d="M63.5289 70.6275H58.6641C58.4792 70.6275 58.3018 70.554 58.171 70.4233C58.0403 70.2925 57.9668 70.1151 57.9668 69.9302C57.9668 69.7453 58.0403 69.5679 58.171 69.4371C58.3018 69.3064 58.4792 69.2329 58.6641 69.2329H63.5289C63.7138 69.2329 63.8912 69.3064 64.0219 69.4371C64.1527 69.5679 64.2262 69.7453 64.2262 69.9302C64.2262 70.0218 64.2081 70.1125 64.1731 70.197C64.138 70.2816 64.0867 70.3585 64.0219 70.4233C63.9572 70.488 63.8803 70.5394 63.7957 70.5744C63.7111 70.6094 63.6204 70.6275 63.5289 70.6275Z" fill="white"/>
</g>
<path d="M150.822 47.8451L151.749 46.1602L154.134 42.6916L154.583 39.8188C154.583 39.8188 156.672 40.5981 157.017 41.1994C157.362 41.8007 157.198 44.8843 157.017 45.2592C156.835 45.6341 154.679 47.1153 154.679 47.1153L153.528 49.3172L150.822 47.8451Z" fill="#EBB376"/>
<path d="M140.242 35.7705C140.242 35.7705 147.966 47.8974 148.867 48.9831C149.769 50.0687 150.772 46.1602 150.772 46.1602L154.68 47.8639C154.68 47.8639 153.578 55.2767 150.571 55.5791C147.565 55.8815 141.151 47.9641 141.151 47.9641L140.242 35.7705Z" fill="#263238"/>
<path opacity="0.1" d="M154.678 47.8621C154.678 47.8621 153.576 55.2759 150.571 55.5799C149.07 55.7281 146.714 53.8281 144.738 51.8863C143.477 50.6398 142.28 49.3309 141.15 47.9647L140.839 43.8037L140.242 35.7705C140.242 35.7705 147.964 47.8963 148.868 48.9831C149.769 50.0699 150.772 46.1597 150.772 46.1597L154.678 47.8621Z" fill="white"/>
<path opacity="0.2" d="M144.737 51.8863C143.476 50.6398 142.279 49.3309 141.15 47.9647L140.838 43.8037C143.098 45.9189 144.488 48.8008 144.737 51.8863Z" fill="black"/>
<path d="M125.297 100.804L125.316 97.0428C125.316 96.9812 125.295 96.9215 125.256 96.8734C125.218 96.8252 125.164 96.7915 125.104 96.7779L122.35 96.1539C122.283 96.1394 122.214 96.1402 122.147 96.1561C122.08 96.1721 122.018 96.2028 121.965 96.246C121.912 96.2893 121.869 96.3439 121.84 96.4059C121.811 96.4679 121.796 96.5357 121.796 96.6042C121.81 97.8214 121.881 98.708 121.873 100.236C121.869 101.178 121.756 104.017 121.75 105.317C121.744 106.617 123.027 106.792 123.148 106.261C123.679 103.877 124.409 102.084 125.098 101.323C125.229 101.182 125.3 100.997 125.297 100.804Z" fill="#263238"/>
<path d="M142.091 66.1685L143.305 72.5407C143.305 72.5407 152.908 88.0825 152.902 97.0562C152.896 107.775 124.936 101.591 124.936 101.591V96.656C124.936 96.656 141.649 98.0924 143.155 96.4159C144.983 94.3809 133.713 78.6318 133.713 78.6318L142.091 66.1685Z" fill="#263238"/>
<path opacity="0.2" d="M152.904 97.0572C152.9 102.966 144.399 103.738 136.773 103.24C132.973 102.968 129.194 102.454 125.46 101.701C125.122 101.632 124.936 101.591 124.936 101.591V96.6544C124.936 96.6544 125.156 96.6734 125.551 96.7038C127.451 96.8558 133.368 97.2852 137.844 97.2206C140.504 97.1826 142.659 96.966 143.157 96.415C144.053 95.4156 141.789 91.1026 139.254 86.9758V86.972C136.628 82.7046 133.714 78.631 133.714 78.631L137.384 73.1666L142.089 66.167L143.305 72.5396C143.305 72.5396 152.907 88.0816 152.904 97.0572Z" fill="white"/>
<path opacity="0.2" d="M137.845 97.2204L136.773 103.24C132.974 102.968 129.195 102.454 125.461 101.701L125.552 96.7036C127.452 96.8556 133.369 97.285 137.845 97.2204Z" fill="black"/>
<path opacity="0.2" d="M137.399 79.9838C137.399 79.9838 138.961 83.6583 139.253 86.9719C136.628 82.7045 133.713 78.6309 133.713 78.6309L137.384 73.1665L139.318 72.5396C139.318 72.5396 139.747 75.0498 137.399 79.9838Z" fill="black"/>
<path d="M134.902 133.935H131.14C131.079 133.935 131.019 133.956 130.971 133.995C130.923 134.034 130.89 134.087 130.876 134.147L130.266 136.905C130.252 136.972 130.253 137.041 130.269 137.108C130.285 137.174 130.316 137.236 130.36 137.289C130.403 137.342 130.458 137.385 130.52 137.414C130.582 137.442 130.65 137.457 130.719 137.456C131.936 137.436 132.822 137.362 134.35 137.362C135.292 137.362 138.132 137.46 139.432 137.46C140.731 137.46 140.901 136.176 140.369 136.058C137.982 135.538 136.186 134.817 135.422 134.132C135.28 134.002 135.094 133.931 134.902 133.935Z" fill="#263238"/>
<path d="M125.336 66.3716C125.336 66.3716 124.501 69.4926 125.336 83.7955C126.618 105.755 130.689 134.991 130.689 134.991L135.421 134.132C135.421 134.132 134.817 90.3995 135.453 78.3309C135.453 78.3309 142.141 72.3331 142.09 66.1682C142.04 60.0032 125.336 66.3716 125.336 66.3716Z" fill="#263238"/>
<path opacity="0.2" d="M125.336 66.3716C125.336 66.3716 124.501 69.4926 125.336 83.7955C126.618 105.755 130.689 134.991 130.689 134.991L135.421 134.132C135.421 134.132 134.817 90.3995 135.453 78.3309C135.453 78.3309 142.141 72.3331 142.09 66.1682C142.04 60.0032 125.336 66.3716 125.336 66.3716Z" fill="white"/>
<path d="M141.88 64.4023H125.336V66.3719L142.091 66.1682L141.88 64.4023Z" fill="#263238"/>
<path d="M130.653 67.0117H131.244V63.5159H130.653V67.0117Z" fill="#263238"/>
<path d="M139.024 67.0117H139.615V63.5159H139.024V67.0117Z" fill="#263238"/>
<path d="M134.339 66.2622H137.398V64.0574H134.339V66.2622Z" fill="white"/>
<path opacity="0.2" d="M130.653 67.0117H131.244V63.5159H130.653V67.0117Z" fill="white"/>
<path opacity="0.2" d="M139.024 67.0117H139.615V63.5159H139.024V67.0117Z" fill="white"/>
<path d="M140.241 35.7702C140.241 35.7702 129.787 35.2778 121.998 37.2437C121.998 37.2437 125.437 54.5549 125.306 64.4022H141.879C141.879 64.4022 142.956 45.9329 140.241 35.7702Z" fill="#407BFF"/>
<path opacity="0.6" d="M141.878 64.4027H125.31C125.325 63.3311 125.295 62.1759 125.234 60.9599C125.089 58.1175 124.767 54.9673 124.375 51.9197C124.337 51.6233 124.299 51.3269 124.261 51.0305C123.995 49.0507 123.71 47.1355 123.433 45.3875C122.684 40.6945 122 37.2441 122 37.2441C129.786 35.2795 140.24 35.7697 140.24 35.7697C142.953 45.9347 141.878 64.4027 141.878 64.4027Z" fill="white"/>
<path d="M128.104 36.4588C129.605 37.8227 133.282 37.3184 133.282 37.3184C133.282 37.3184 135.578 36.69 135.096 35.9728C133.744 35.7494 133.089 35.1184 132.819 34.3109C132.671 33.8104 132.624 33.2854 132.681 32.7667C132.704 32.4774 132.742 32.1896 132.795 31.9044L128.248 28.5376C128.844 30.76 129.573 34.8479 128.104 36.4588Z" fill="#EBB376"/>
<path opacity="0.2" d="M129.299 30.6772C129.479 33.4052 131.721 34.1577 132.819 34.3105C132.671 33.81 132.624 33.285 132.681 32.7663L129.299 30.6772Z" fill="black"/>
<path d="M126.733 21.4678C126.733 21.4678 125.465 25.571 127.451 27.5205C129.437 29.4699 130.61 21.6533 130.61 21.6533L126.733 21.4678Z" fill="#263238"/>
<path d="M133.42 31.8287C132.85 32.4498 132.091 32.8663 131.26 33.0145C130.43 33.1626 129.573 33.0342 128.823 32.6488C127.843 32.1687 127.082 31.3332 126.696 30.3124C126.642 30.1705 126.595 30.0258 126.555 29.879C125.843 27.1485 126.168 22.6077 129.134 21.3326C129.787 21.0476 130.503 20.9346 131.213 21.0044C131.923 21.0742 132.603 21.3245 133.188 21.7314C133.774 22.1382 134.246 22.6882 134.559 23.329C134.872 23.9697 135.016 24.6799 134.977 25.392C134.86 28.442 134.935 30.2407 133.42 31.8287Z" fill="#EBB376"/>
<path d="M130.363 26.3389C130.385 26.5848 130.242 26.7905 130.077 26.7936C129.912 26.7967 129.78 26.5961 129.774 26.3488C129.767 26.1014 129.898 25.8968 130.059 25.8941C130.22 25.8914 130.356 26.0876 130.363 26.3389Z" fill="#263238"/>
<path d="M127.554 26.3955C127.577 26.6415 127.43 26.8475 127.269 26.8502C127.108 26.853 126.972 26.6527 126.965 26.4055C126.959 26.1582 127.09 25.9535 127.251 25.9507C127.412 25.948 127.549 26.1599 127.554 26.3955Z" fill="#263238"/>
<path d="M128.449 26.4995C128.168 27.2654 127.783 27.9887 127.305 28.6491C127.478 28.7677 127.675 28.8469 127.882 28.8813C128.089 28.9156 128.301 28.9042 128.503 28.8479L128.449 26.4995Z" fill="#D58745"/>
<path d="M131.215 25.4118C131.189 25.4161 131.162 25.4134 131.137 25.4039C131.112 25.3944 131.09 25.3785 131.073 25.3578C130.963 25.2115 130.82 25.0928 130.656 25.0113C130.493 24.9297 130.312 24.8875 130.129 24.8881C130.11 24.8898 130.091 24.8878 130.073 24.8822C130.055 24.8765 130.038 24.8674 130.023 24.8552C130.008 24.843 129.996 24.8281 129.987 24.8113C129.979 24.7944 129.973 24.776 129.971 24.757C129.97 24.7381 129.972 24.7189 129.977 24.7008C129.983 24.6826 129.992 24.6657 130.004 24.651C130.016 24.6364 130.031 24.6243 130.048 24.6154C130.065 24.6065 130.083 24.601 130.102 24.5993L130.103 24.5992C130.334 24.5927 130.563 24.6416 130.772 24.7419C130.98 24.8423 131.161 24.9911 131.3 25.1759C131.325 25.2054 131.337 25.2435 131.334 25.2818C131.33 25.3201 131.312 25.3555 131.282 25.3802L131.28 25.3824C131.26 25.3955 131.238 25.4055 131.215 25.4118Z" fill="#263238"/>
<path d="M126.326 25.4513C126.299 25.4628 126.269 25.4655 126.241 25.4591C126.223 25.4514 126.208 25.4403 126.194 25.4265C126.181 25.4128 126.171 25.3965 126.164 25.3788C126.157 25.361 126.154 25.3421 126.154 25.323C126.155 25.304 126.159 25.2852 126.167 25.2678L126.168 25.2649C126.26 25.0521 126.402 24.8646 126.582 24.7182C126.762 24.5718 126.975 24.4709 127.202 24.4239C127.221 24.4211 127.24 24.4221 127.258 24.4268C127.277 24.4314 127.294 24.4397 127.31 24.4511C127.325 24.4624 127.338 24.4767 127.347 24.4931C127.357 24.5094 127.364 24.5275 127.366 24.5464C127.371 24.5843 127.361 24.6229 127.338 24.6536C127.315 24.6842 127.281 24.7049 127.244 24.7113C127.065 24.7537 126.899 24.8371 126.759 24.955C126.619 25.0729 126.508 25.222 126.435 25.3903C126.423 25.4078 126.406 25.4222 126.388 25.4328C126.369 25.4433 126.348 25.4496 126.326 25.4513Z" fill="#263238"/>
<path d="M132.66 21.6309L132.459 22.9711C132.683 23.086 132.856 23.2811 132.943 23.5176C133.03 23.754 133.024 24.0145 132.928 24.2473C132.463 25.3664 133.056 27.1384 133.905 27.8618C133.905 27.8618 133.945 27.3724 134.355 27.5C134.766 27.6276 134.581 30.1761 133.742 31.3711C134.813 30.2633 135.578 28.8962 135.962 27.4038C136.668 24.9438 136.595 23.1213 136.112 22.1489L132.66 21.6309Z" fill="#263238"/>
<path d="M136.361 27.8673C136.036 28.5645 135.448 29.1045 134.726 29.3689C133.768 29.7124 133.216 28.8713 133.419 27.9275C133.607 27.0904 134.328 25.8753 135.322 25.9485C136.315 26.0217 136.748 27.0065 136.361 27.8673Z" fill="#EBB376"/>
<path d="M128.277 29.5942C128.403 29.9475 128.503 30.3096 128.576 30.6774C128.643 30.6761 128.709 30.6747 128.775 30.6698C129.671 30.6286 130.073 30.3132 130.247 29.9762C130.329 29.8099 130.369 29.6264 130.365 29.4412C130.366 29.3362 130.353 29.2316 130.325 29.1304C129.783 29.4018 129.189 29.5535 128.583 29.5753C128.396 29.5925 128.277 29.5942 128.277 29.5942Z" fill="#263238"/>
<path d="M128.582 29.5753L128.678 29.8924C129.523 29.8515 130.112 29.7094 130.364 29.4412C130.365 29.3362 130.352 29.2316 130.324 29.1304C129.782 29.4018 129.188 29.5535 128.582 29.5753Z" fill="white"/>
<path d="M128.773 30.6696C129.67 30.6284 130.072 30.3131 130.246 29.9761C129.906 29.9982 129.572 30.0805 129.26 30.2192C129.055 30.3147 128.884 30.4723 128.773 30.6696Z" fill="#DE5753"/>
<path d="M132.459 22.9711C132.459 22.9711 129.254 24.3712 127.259 22.7677C125.265 21.1642 127.259 18.6685 127.259 18.6685C127.747 19.1013 128.372 19.3465 129.023 19.3602C130.076 19.3602 132.453 18.5585 134.471 19.4104C136.49 20.2622 137.421 23.0205 135.728 24.4225L132.459 22.9711Z" fill="#263238"/>
<path d="M134.78 37.096L134.34 39.2589C134.34 39.2589 136.858 49.7626 137.4 55.2115L136.482 56.1306L135.038 55.2115C135.038 55.2115 134.909 44.1169 133.635 39.4558L131.352 37.5861L133.149 37.0044L134.78 37.096Z" fill="#407BFF"/>
<path d="M128.618 34.4009L132.985 36.3703L133.241 34.7917L134.847 35.3564C135.127 35.4549 135.365 35.6448 135.524 35.8956C135.683 36.1464 135.752 36.4434 135.722 36.7386L135.54 38.4711L133.325 37.2585L132.221 38.8203L126.975 36.2933L128.618 34.4009Z" fill="#407BFF"/>
<path opacity="0.7" d="M128.618 34.4009L132.985 36.3703L133.241 34.7917L134.847 35.3564C135.127 35.4549 135.365 35.6448 135.524 35.8956C135.683 36.1464 135.752 36.4434 135.722 36.7386L135.54 38.4711L133.325 37.2585L132.221 38.8203L126.975 36.2933L128.618 34.4009Z" fill="white"/>
<path d="M127.093 36.0215C127.093 36.0215 131.214 39.3752 135.869 50.0588C135.869 50.0588 136.038 39.6178 135.161 35.5229L140.24 35.7695C140.24 35.7695 143.958 43.9806 142.09 61.7195L143.38 70.5889L137.779 72.9316L136.488 68.8069L135.161 72.8606L124.363 71.4158L124.935 60.2162C124.935 60.2162 122.343 41.7067 122 37.2439L127.093 36.0215Z" fill="#263238"/>
<path opacity="0.1" d="M143.381 70.5903L137.78 72.9311L136.487 68.8081L135.161 72.8589L130.989 72.3003L124.362 71.4149L124.647 65.8517L124.936 60.2163C124.936 60.2163 124.472 56.8837 123.906 52.7075C123.613 50.5415 123.298 48.1513 123.001 45.8789C122.53 42.2005 122.123 38.8337 122.002 37.2453L126.741 36.1053L127.094 36.0217C127.094 36.0217 131.213 39.3771 135.868 50.0589C135.868 50.0589 136.039 39.6165 135.161 35.5239L140.242 35.7709C140.242 35.7709 143.958 43.9789 142.092 61.7211L143.381 70.5903Z" fill="white"/>
<path opacity="0.2" d="M137.742 40.2967L138.92 42.3753C138.92 42.3753 137.696 50.3705 135.728 53.1521V51.4991L128.105 42.7097L129.473 40.5969L126.042 41.2733C126.042 41.2733 125.722 38.0623 126.741 36.1053L127.094 36.0217C127.094 36.0217 131.213 39.3771 135.868 50.0589C135.868 50.0589 136.039 39.6165 135.162 35.5239C135.162 35.5239 137.59 36.8387 139.319 40.2967H137.742Z" fill="white"/>
<path opacity="0.2" d="M123.906 52.7073C123.614 50.5413 123.298 48.1511 123.002 45.8787L124.214 45.2593C124.214 45.2593 125.301 49.4279 123.906 52.7073Z" fill="black"/>
<path opacity="0.2" d="M130.989 72.3002L124.361 71.4148L124.646 65.8516C126.672 66.8358 129.966 68.903 130.989 72.3002Z" fill="black"/>
<path d="M122.002 37.2451C122.002 37.2451 113.891 49.3639 114.692 56.1305C115.494 62.8971 125.336 73.9135 125.336 73.9135L128.472 71.9642C128.472 71.9642 120.605 59.8905 119.904 56.1305C119.526 54.1052 124.213 45.2584 124.213 45.2584C124.213 45.2584 123.9 39.1536 122.002 37.2451Z" fill="#263238"/>
<path opacity="0.1" d="M122.002 37.2451C122.002 37.2451 113.891 49.3639 114.692 56.1305C115.494 62.8971 125.336 73.9135 125.336 73.9135L128.472 71.9642C128.472 71.9642 120.605 59.8905 119.904 56.1305C119.526 54.1052 124.213 45.2584 124.213 45.2584C124.213 45.2584 123.9 39.1536 122.002 37.2451Z" fill="white"/>
<path d="M147.461 45.6793L148.192 35.7153L154.679 36.1637L155.445 32.9736L157.017 33.6272L153.733 45.2594L147.461 45.6793Z" fill="#407BFF"/>
<path opacity="0.7" d="M147.461 45.6793L148.192 35.7153L154.679 36.1637L155.445 32.9736L157.017 33.6272L153.733 45.2594L147.461 45.6793Z" fill="white"/>
<path d="M146.137 47.1155L148.542 36.7928H155.056L157.362 33.0703L155.457 44.115L153.152 46.5307L146.137 47.1155Z" fill="#407BFF"/>
<path opacity="0.2" d="M155.057 36.7928L153.152 46.5307L155.457 44.115L157.362 33.0703L155.057 36.7928Z" fill="black"/>
<path d="M156.082 40.4917C156.082 40.4917 154.981 40.8576 154.831 41.509C154.68 42.1605 154.43 46.1692 154.43 46.1692C154.43 46.1692 156.133 45.7684 156.384 44.8664C156.635 43.9644 156.082 40.4917 156.082 40.4917Z" fill="#EBB376"/>
</g>
<defs>
<clipPath id="clip0_773_815">
<rect width="190" height="141.591" fill="white"/>
</clipPath>
</defs>
</svg>
