<svg width="190" height="142" viewBox="0 0 190 142" fill="none" xmlns="http://www.w3.org/2000/svg">
<g clip-path="url(#clip0_773_1813)">
<path d="M190 124.429H0V124.524H190V124.429Z" fill="#EBEBEB"/>
<path d="M170.963 130.546H158.377V130.641H170.963V130.546Z" fill="#EBEBEB"/>
<path d="M103.825 129.355H98.9277V129.45H103.825V129.355Z" fill="#EBEBEB"/>
<path d="M132.874 129.756H122.561V129.851H132.874V129.756Z" fill="#EBEBEB"/>
<path d="M157.996 127.017H136.674V127.112H157.996V127.017Z" fill="#EBEBEB"/>
<path d="M30.0137 131.414H19.9336V131.509H30.0137V131.414Z" fill="#EBEBEB"/>
<path d="M42.1384 131.414H33.3984V131.509H42.1384V131.414Z" fill="#EBEBEB"/>
<path d="M72.8885 129.308H49.7793V129.403H72.8885V129.308Z" fill="#EBEBEB"/>
<path d="M90.0661 107.482H16.6886C16.1135 107.481 15.5622 107.253 15.1555 106.846C14.7489 106.439 14.5202 105.888 14.5195 105.313V2.16889C14.5202 1.59385 14.749 1.04255 15.1556 0.635952C15.5622 0.22935 16.1135 0.00064162 16.6886 0H90.0661C90.6411 0.000715074 91.1923 0.229459 91.5988 0.636056C92.0054 1.04265 92.2341 1.5939 92.2347 2.16889V105.313C92.2341 105.888 92.0055 106.439 91.5989 106.846C91.1923 107.252 90.6411 107.481 90.0661 107.482ZM16.6886 0.095C16.1387 0.0955944 15.6115 0.314278 15.2227 0.703075C14.8339 1.09187 14.6152 1.61903 14.6145 2.16889V105.313C14.6151 105.863 14.8338 106.39 15.2227 106.779C15.6115 107.168 16.1387 107.386 16.6886 107.387H90.0661C90.6159 107.386 91.143 107.168 91.5318 106.779C91.9205 106.39 92.1392 105.863 92.1397 105.313V2.16889C92.1391 1.61908 91.9205 1.09197 91.5317 0.703178C91.143 0.314386 90.6159 0.0956668 90.0661 0.095H16.6886Z" fill="#EBEBEB"/>
<path d="M172.257 107.482H98.8796C98.3046 107.481 97.7533 107.252 97.3468 106.846C96.9402 106.439 96.7116 105.888 96.7109 105.313V2.16889C96.7116 1.5939 96.9403 1.04265 97.3468 0.636056C97.7534 0.229459 98.3046 0.000715074 98.8796 0H172.257C172.832 0.000633571 173.383 0.229337 173.79 0.63594C174.197 1.04254 174.425 1.59384 174.426 2.16889V105.313C174.425 105.888 174.197 106.439 173.79 106.846C173.383 107.253 172.832 107.481 172.257 107.482ZM98.8796 0.095C98.3298 0.0956668 97.8027 0.314386 97.414 0.703178C97.0252 1.09197 96.8065 1.61908 96.8059 2.16889V105.313C96.8065 105.863 97.0251 106.39 97.4139 106.779C97.8027 107.168 98.3298 107.386 98.8796 107.387H172.257C172.807 107.386 173.334 107.168 173.723 106.779C174.112 106.39 174.331 105.863 174.331 105.313V2.16889C174.33 1.61902 174.112 1.09186 173.723 0.703063C173.334 0.314266 172.807 0.0955863 172.257 0.095H98.8796Z" fill="#EBEBEB"/>
<path d="M100.663 91.7465C99.9022 89.5615 93.901 92.5329 91.4655 96.1537C89.8435 98.5651 88.8526 101.139 88.3899 104.597C88.4455 100.652 88.5084 96.4127 88.5701 92.4123C89.0626 91.4148 90.1872 89.1152 90.9962 87.293C93.6951 81.2129 100.113 78.949 102.331 75.1101C105.236 70.0801 105.219 62.5351 102.746 59.8125C100.597 57.4464 93.4793 73.445 92.6777 75.2323C90.4913 80.0155 89.114 85.1285 88.6019 90.3627C88.6608 86.6055 88.7171 83.1558 88.7633 80.4941C88.914 71.8125 89.1024 69.0201 89.1884 68.1608C89.4856 67.7412 89.8364 67.2523 90.0403 66.9897C91.7628 64.7723 95.5842 62.1327 97.494 58.9092C100.283 54.2026 99.8321 48.5697 97.8761 46.4722C95.831 44.2792 92.2154 49.4624 90.2958 54.5984C88.3763 59.7343 89.1966 64.65 88.6583 68.9153C88.5457 69.752 88.4299 72.9295 88.3213 77.337C87.739 72.5946 86.5791 69.4174 84.4295 66.4568C81.7856 62.8154 79.5031 58.3811 77.3245 58.9542C75.1461 59.5272 76.3186 65.3945 78.0422 69.5137C79.5771 73.1819 87.1488 76.8406 88.2643 79.79C88.133 85.7643 88.0155 93.3331 87.9322 100.38C87.3353 96.7402 87.7457 96.4345 85.2996 90.8618C83.8453 87.5486 77.8835 83.4631 77.1726 85.7394C76.4749 87.9733 77.5422 92.318 79.7929 95.3313C81.6086 97.7621 85.6371 97.7592 86.5691 99.2675C86.7866 99.6194 87.5057 100.968 87.9165 101.744C87.8191 110.347 87.7756 117.942 87.8238 120.531L88.2146 120.557C88.1959 119.889 88.2431 115.512 88.3198 109.72C89.2979 106.639 95.8833 104.84 97.9176 101.635C100.047 98.2812 101.576 94.3675 100.663 91.7465Z" fill="#E6E6E6"/>
<path d="M94.4718 124.429H81.832C81.497 124.429 81.1723 124.313 80.913 124.101C80.6536 123.889 80.4756 123.594 80.409 123.266L79.5117 118.842H96.792L95.8948 123.266C95.8282 123.594 95.6501 123.889 95.3908 124.101C95.1314 124.313 94.8068 124.429 94.4718 124.429Z" fill="#F0F0F0"/>
<path d="M97.1525 120.557H79.1493C78.941 120.557 78.7399 120.48 78.5845 120.342C78.4292 120.203 78.3304 120.012 78.3071 119.804L77.9389 116.534C77.9256 116.416 77.9374 116.296 77.9736 116.182C78.0099 116.068 78.0697 115.964 78.1492 115.875C78.2287 115.786 78.3261 115.714 78.435 115.666C78.5439 115.617 78.6619 115.592 78.7812 115.592H97.5207C97.64 115.592 97.7579 115.617 97.8668 115.666C97.9757 115.714 98.0731 115.786 98.1526 115.875C98.2321 115.964 98.2919 116.068 98.3282 116.182C98.3644 116.296 98.3762 116.416 98.3629 116.534L97.9947 119.804C97.9714 120.012 97.8726 120.203 97.7173 120.342C97.5619 120.48 97.3608 120.557 97.1525 120.557Z" fill="#F0F0F0"/>
<path d="M152.289 122.846H164.393V71.2008H152.289V122.846Z" fill="#F0F0F0"/>
<path d="M100.872 124.429L163.578 124.429V122.846L100.872 122.846V124.429Z" fill="#F0F0F0"/>
<path d="M152.289 71.2007H100.057V122.846H152.289V71.2007Z" fill="#F5F5F5"/>
<path d="M147.532 91.5557H104.816V102.491H147.532V91.5557Z" fill="#F0F0F0"/>
<path d="M147.532 105.631H104.816V116.566H147.532V105.631Z" fill="#F0F0F0"/>
<path d="M121.377 93.4424H130.968C131.62 93.4424 132.148 92.9139 132.148 92.262V92.262C132.148 91.61 131.62 91.0816 130.968 91.0816H121.377C120.725 91.0816 120.197 91.61 120.197 92.262V92.262C120.197 92.9139 120.725 93.4424 121.377 93.4424Z" fill="#F5F5F5"/>
<path d="M147.532 77.48H104.816V88.4156H147.532V77.48Z" fill="#F0F0F0"/>
<path d="M121.378 79.3671H130.968C131.281 79.3662 131.581 79.2416 131.802 79.0204C132.023 78.7992 132.148 78.4995 132.149 78.1867C132.148 77.874 132.023 77.5743 131.802 77.3531C131.581 77.1319 131.281 77.0073 130.968 77.0063H121.378C121.065 77.0073 120.765 77.1319 120.544 77.3531C120.323 77.5742 120.198 77.874 120.197 78.1867C120.198 78.4995 120.323 78.7992 120.544 79.0204C120.765 79.2416 121.065 79.3662 121.378 79.3671Z" fill="#F5F5F5"/>
<path d="M121.378 107.518H130.968C131.281 107.517 131.581 107.392 131.802 107.171C132.023 106.95 132.148 106.65 132.149 106.337C132.148 106.024 132.023 105.725 131.802 105.503C131.581 105.282 131.281 105.158 130.968 105.157H121.378C121.065 105.158 120.765 105.282 120.544 105.503C120.323 105.725 120.198 106.024 120.197 106.337C120.198 106.65 120.323 106.95 120.544 107.171C120.765 107.392 121.065 107.517 121.378 107.518Z" fill="#F5F5F5"/>
<path d="M98.9823 71.2007H152.289V69.7274H98.9823V71.2007Z" fill="#F0F0F0"/>
<path d="M165.545 69.7275H152.289V71.2009H165.545V69.7275Z" fill="#E6E6E6"/>
<path d="M56.0191 124.429H67.9766L67.9766 47.0892H56.0191L56.0191 124.429Z" fill="#E0E0E0"/>
<path d="M25.541 124.429H65.5816L69.7878 29.2344H29.7469L25.541 124.429Z" fill="#E6E6E6"/>
<path d="M19.6992 124.429H63.9901L68.1963 29.2344H23.9054L19.6992 124.429Z" fill="#F0F0F0"/>
<path d="M59.6542 119.763L63.1973 33.9014H28.2404L24.6973 119.763H59.6542Z" fill="white"/>
<path d="M44.634 119.763L56.5163 33.9014H52.7881L40.9062 119.763H44.634Z" fill="#FAFAFA"/>
<path d="M39.3273 119.763L51.2096 33.9014H44.8529L32.9707 119.763H39.3273Z" fill="#FAFAFA"/>
<path d="M111.517 55.1626L159.979 55.1626V9.83001L111.517 9.83001V55.1626Z" fill="#E6E6E6"/>
<path d="M110.012 55.1626L159.275 55.1626V9.83001L110.012 9.83001V55.1626Z" fill="#F5F5F5"/>
<path d="M111.517 57.0181L159.979 57.0181V55.1627L111.517 55.1627V57.0181Z" fill="#E6E6E6"/>
<path d="M108.663 57.0181L154.635 57.0181V55.1627L108.663 55.1627V57.0181Z" fill="#F5F5F5"/>
<path d="M157.17 52.3537V12.6392L112.118 12.6392V52.3537H157.17Z" fill="#FAFAFA"/>
<path d="M112.418 52.3537V12.6392H112.118V52.3537H112.418Z" fill="#E6E6E6"/>
<path d="M149.699 52.3537L141.909 12.6392H131.697L139.487 52.3537H149.699Z" fill="white"/>
<path d="M137.835 52.3537L130.045 12.6392H125.434L133.223 52.3537H137.835Z" fill="white"/>
<path d="M155.664 8.27045V50.1988C155.664 50.2603 155.64 50.3193 155.596 50.3628C155.553 50.4063 155.494 50.4307 155.432 50.4307H155.414C155.352 50.4307 155.293 50.4063 155.25 50.3628C155.206 50.3193 155.182 50.2603 155.182 50.1988V8.27045C155.182 8.20895 155.206 8.14998 155.25 8.1065C155.293 8.06301 155.352 8.03857 155.414 8.03857H155.432C155.494 8.03857 155.553 8.06301 155.596 8.1065C155.64 8.14998 155.664 8.20895 155.664 8.27045Z" fill="#EBEBEB"/>
<path opacity="0.5" d="M108.907 14.9766L160.795 14.9766V8.03822L108.907 8.03822V14.9766Z" fill="#E6E6E6"/>
<path d="M108.907 8.90039L160.795 8.90039V8.03832L108.907 8.03832V8.90039Z" fill="#E0E0E0"/>
<path d="M160.71 8.4165L108.993 8.4165C108.905 8.4165 108.821 8.38166 108.759 8.31964C108.697 8.25762 108.662 8.1735 108.662 8.08579V7.99083C108.662 7.90311 108.697 7.81898 108.759 7.75695C108.821 7.69492 108.906 7.66008 108.993 7.66008L160.71 7.66008C160.754 7.66008 160.797 7.66863 160.837 7.68526C160.877 7.70188 160.913 7.72624 160.944 7.75695C160.975 7.78766 160.999 7.82413 161.016 7.86426C161.032 7.90438 161.041 7.94739 161.041 7.99083V8.08575C161.041 8.12919 161.032 8.1722 161.016 8.21233C160.999 8.25246 160.975 8.28892 160.944 8.31963C160.913 8.35034 160.877 8.37471 160.837 8.39133C160.797 8.40795 160.754 8.4165 160.71 8.4165Z" fill="#EBEBEB"/>
<path d="M108.843 15.1574H160.86C160.908 15.1573 160.954 15.1382 160.988 15.1043C161.021 15.0705 161.04 15.0246 161.041 14.9767C161.04 14.9288 161.021 14.8829 160.988 14.849C160.954 14.8151 160.908 14.796 160.86 14.7959H108.843C108.795 14.796 108.749 14.8151 108.715 14.849C108.681 14.8829 108.662 14.9288 108.662 14.9767C108.662 15.0246 108.681 15.0705 108.715 15.1043C108.749 15.1382 108.795 15.1573 108.843 15.1574Z" fill="white"/>
<path d="M95.0002 141.591C135.691 141.591 168.678 139.665 168.678 137.288C168.678 134.912 135.691 132.985 95.0002 132.985C54.309 132.985 21.3223 134.912 21.3223 137.288C21.3223 139.665 54.309 141.591 95.0002 141.591Z" fill="#F5F5F5"/>
<path d="M24.6412 82.5084L24.2578 82.5532L24.9421 88.4038L25.3255 88.359L24.6412 82.5084Z" fill="#407BFF"/>
<path d="M25.5806 90.5333L25.1973 90.5781L25.5424 93.5286L25.9257 93.4838L25.5806 90.5333Z" fill="#407BFF"/>
<path d="M51.1439 70.5796L50.688 69.3012C50.3741 68.4212 49.7711 67.6735 48.9775 67.1805C48.1838 66.6874 47.2464 66.478 46.3184 66.5866L28.1579 68.7106C27.6192 68.7736 27.0982 68.9421 26.6247 69.2064C26.1511 69.4708 25.7343 69.8258 25.3979 70.2512C25.0616 70.6767 24.8123 71.1642 24.6644 71.686C24.5165 72.2077 24.4728 72.7535 24.5358 73.2922L29.7048 117.488C29.748 117.857 29.8635 118.214 30.0448 118.539C30.2261 118.864 30.4696 119.15 30.7613 119.38C31.0531 119.611 31.3874 119.782 31.7452 119.884C32.1031 119.985 32.4774 120.015 32.8468 119.972L97.8226 112.372C98.5686 112.285 99.2495 111.905 99.7153 111.316C100.181 110.726 100.394 109.976 100.307 109.23L95.8381 71.0249C95.7508 70.2789 95.3708 69.5981 94.7816 69.1322C94.1923 68.6664 93.4422 68.4537 92.6962 68.5409L54.9655 72.9539C54.1538 73.0488 53.334 72.8657 52.6399 72.4345C51.9457 72.0032 51.4184 71.3493 51.1439 70.5796Z" fill="#407BFF"/>
<path d="M52.9581 51.3595L32.4277 55.4512L38.0648 83.7357L58.5951 79.6441L52.9581 51.3595Z" fill="#407BFF"/>
<path opacity="0.7" d="M52.9581 51.3595L32.4277 55.4512L38.0648 83.7357L58.5951 79.6441L52.9581 51.3595Z" fill="white"/>
<g opacity="0.4">
<path d="M50.217 58.1666L37.5704 60.687C37.2759 60.7457 36.9701 60.685 36.7204 60.5183C36.4706 60.3515 36.2973 60.0924 36.2386 59.7979C36.2096 59.652 36.2095 59.5019 36.2385 59.3561C36.2674 59.2102 36.3248 59.0715 36.4074 58.9478C36.4899 58.8242 36.5961 58.718 36.7197 58.6353C36.8433 58.5527 36.9819 58.4952 37.1278 58.4661L49.7744 55.9457C50.0689 55.887 50.3747 55.9477 50.6244 56.1144C50.8742 56.2812 51.0474 56.5403 51.1061 56.8348C51.1352 56.9806 51.1353 57.1308 51.1063 57.2766C51.0774 57.4225 51.02 57.5612 50.9374 57.6848C50.8548 57.8085 50.7487 57.9147 50.6251 57.9974C50.5015 58.08 50.3628 58.1375 50.217 58.1666Z" fill="#407BFF"/>
<path d="M51.1487 62.8433L38.5021 65.3638C38.2076 65.4225 37.9018 65.3618 37.652 65.195C37.4023 65.0283 37.229 64.7691 37.1703 64.4746C37.1116 64.1801 37.1723 63.8744 37.339 63.6246C37.5058 63.3749 37.7649 63.2016 38.0594 63.1429L50.7061 60.6224C50.8519 60.5934 51.002 60.5933 51.1479 60.6223C51.2937 60.6512 51.4324 60.7086 51.5561 60.7912C51.6798 60.8737 51.7859 60.9798 51.8686 61.1034C51.9513 61.227 52.0087 61.3657 52.0378 61.5116C52.0669 61.6574 52.0669 61.8075 52.038 61.9534C52.009 62.0992 51.9516 62.2379 51.8691 62.3616C51.7865 62.4853 51.6804 62.5915 51.5568 62.6741C51.4332 62.7568 51.2945 62.8143 51.1487 62.8433Z" fill="#407BFF"/>
<path d="M52.0803 67.5206L39.4337 70.041C39.2878 70.0701 39.1377 70.0701 38.9919 70.0412C38.846 70.0122 38.7073 69.9548 38.5836 69.8723C38.46 69.7897 38.3538 69.6836 38.2711 69.56C38.1885 69.4364 38.131 69.2977 38.1019 69.1519C38.0432 68.8574 38.1039 68.5516 38.2707 68.3019C38.4374 68.0521 38.6965 67.8788 38.991 67.8201L51.6377 65.2997C51.7835 65.2706 51.9337 65.2706 52.0795 65.2995C52.2253 65.3285 52.3641 65.3859 52.4877 65.4684C52.6114 65.551 52.7176 65.6571 52.8002 65.7807C52.8829 65.9043 52.9404 66.043 52.9695 66.1888C53.0282 66.4833 52.9674 66.7891 52.8007 67.0388C52.634 67.2886 52.3748 67.4619 52.0803 67.5206Z" fill="#407BFF"/>
<path d="M53.0139 72.1973L40.3673 74.7178C40.2214 74.7468 40.0713 74.7469 39.9255 74.7179C39.7796 74.689 39.6409 74.6316 39.5172 74.549C39.3936 74.4665 39.2874 74.3603 39.2047 74.2367C39.1221 74.1131 39.0646 73.9745 39.0355 73.8286C39.0064 73.6828 39.0064 73.5327 39.0353 73.3868C39.0643 73.241 39.1217 73.1023 39.2043 72.9786C39.2868 72.8549 39.3929 72.7487 39.5165 72.6661C39.6401 72.5834 39.7788 72.5259 39.9246 72.4969L52.5713 69.9764C52.8658 69.9177 53.1715 69.9784 53.4213 70.1452C53.6711 70.3119 53.8443 70.571 53.9031 70.8656C53.9617 71.1601 53.901 71.4658 53.7343 71.7156C53.5675 71.9653 53.3084 72.1386 53.0139 72.1973Z" fill="#407BFF"/>
<path d="M50.4892 77.5631L41.2989 79.3947C41.0044 79.4534 40.6986 79.3927 40.4489 79.2259C40.1991 79.0592 40.0258 78.8 39.9672 78.5055C39.9381 78.3597 39.938 78.2096 39.967 78.0637C39.9959 77.9179 40.0533 77.7791 40.1359 77.6555C40.2185 77.5318 40.3246 77.4256 40.4482 77.343C40.5718 77.2603 40.7105 77.2028 40.8563 77.1738L50.0465 75.3422C50.341 75.2835 50.6468 75.3442 50.8966 75.5109C51.1463 75.6776 51.3196 75.9368 51.3783 76.2313C51.437 76.5258 51.3763 76.8316 51.2096 77.0813C51.0428 77.3311 50.7837 77.5044 50.4892 77.5631Z" fill="#407BFF"/>
</g>
<path d="M82.2114 45.905L61.4707 48.7437L65.3815 77.3181L86.1222 74.4794L82.2114 45.905Z" fill="#407BFF"/>
<path opacity="0.7" d="M82.2114 45.905L61.4707 48.7437L65.3815 77.3181L86.1222 74.4794L82.2114 45.905Z" fill="white"/>
<g opacity="0.4">
<path d="M79.0621 52.5334L66.2858 54.282C65.9883 54.3228 65.6868 54.2436 65.4476 54.062C65.2084 53.8804 65.0512 53.6113 65.0105 53.3137C64.9697 53.0162 65.0489 52.7147 65.2305 52.4755C65.4121 52.2363 65.6812 52.0791 65.9788 52.0384L78.755 50.2898C79.0525 50.249 79.3541 50.3282 79.5932 50.5098C79.8324 50.6914 79.9897 50.9605 80.0304 51.2581C80.0711 51.5556 79.992 51.8571 79.8104 52.0963C79.6288 52.3355 79.3596 52.4927 79.0621 52.5334Z" fill="#407BFF"/>
<path d="M79.7086 57.258L66.9323 59.0066C66.785 59.0268 66.6351 59.0177 66.4913 58.98C66.3475 58.9422 66.2125 58.8765 66.0941 58.7866C65.9757 58.6967 65.8761 58.5843 65.8011 58.4559C65.7261 58.3276 65.6771 58.1857 65.6569 58.0383C65.6162 57.7408 65.6954 57.4393 65.8769 57.2001C66.0585 56.9609 66.3277 56.8037 66.6252 56.7629L79.4015 55.0144C79.5488 54.9942 79.6986 55.0032 79.8425 55.041C79.9863 55.0787 80.1213 55.1444 80.2397 55.2344C80.3581 55.3243 80.4577 55.4366 80.5327 55.565C80.6077 55.6934 80.6567 55.8353 80.6768 55.9826C80.697 56.13 80.6879 56.2798 80.6502 56.4236C80.6124 56.5675 80.5467 56.7024 80.4568 56.8209C80.3669 56.9393 80.2546 57.0389 80.1262 57.1139C79.9978 57.1889 79.8559 57.2378 79.7086 57.258Z" fill="#407BFF"/>
<path d="M71.0992 63.2497L67.5788 63.7315C67.4315 63.7517 67.2816 63.7427 67.1378 63.7049C66.994 63.6672 66.859 63.6015 66.7406 63.5115C66.6221 63.4216 66.5226 63.3093 66.4476 63.1809C66.3726 63.0525 66.3236 62.9106 66.3034 62.7633C66.2627 62.4657 66.3418 62.1642 66.5234 61.925C66.705 61.6859 66.9742 61.5286 67.2717 61.4879L70.7921 61.0061C71.0896 60.9653 71.3912 61.0445 71.6303 61.2261C71.8695 61.4077 72.0268 61.6768 72.0675 61.9743C72.1082 62.2719 72.0291 62.5734 71.8475 62.8126C71.6659 63.0518 71.3967 63.209 71.0992 63.2497Z" fill="#407BFF"/>
<path d="M77.9254 62.3157L74.405 62.7975C74.2576 62.8176 74.1078 62.8086 73.964 62.7708C73.8201 62.7331 73.6852 62.6674 73.5667 62.5775C73.4483 62.4875 73.3488 62.3752 73.2737 62.2468C73.1987 62.1184 73.1498 61.9765 73.1296 61.8292C73.1094 61.6819 73.1185 61.532 73.1562 61.3882C73.194 61.2444 73.2597 61.1094 73.3496 60.991C73.4395 60.8725 73.5519 60.773 73.6803 60.698C73.8087 60.623 73.9506 60.574 74.0979 60.5538L77.6183 60.072C77.9158 60.0313 78.2174 60.1104 78.4565 60.292C78.6957 60.4736 78.8529 60.7428 78.8937 61.0403C78.9344 61.3378 78.8552 61.6393 78.6736 61.8785C78.492 62.1177 78.2229 62.2749 77.9254 62.3157Z" fill="#407BFF"/>
<path d="M81.0015 66.7077L68.2253 68.4563C67.9277 68.497 67.6262 68.4179 67.3871 68.2363C67.1479 68.0547 66.9906 67.7856 66.9499 67.488C66.9297 67.3407 66.9388 67.1909 66.9765 67.0471C67.0143 66.9032 67.08 66.7683 67.1699 66.6498C67.2598 66.5314 67.3722 66.4318 67.5006 66.3568C67.629 66.2818 67.7709 66.2329 67.9182 66.2127L80.6944 64.4641C80.992 64.4234 81.2935 64.5025 81.5327 64.6841C81.7719 64.8657 81.9291 65.1348 81.9698 65.4324C81.99 65.5797 81.9809 65.7295 81.9432 65.8734C81.9054 66.0172 81.8397 66.1522 81.7498 66.2706C81.6599 66.389 81.5475 66.4886 81.4191 66.5636C81.2907 66.6386 81.1488 66.6876 81.0015 66.7077Z" fill="#407BFF"/>
<path d="M78.1563 71.9104L68.8718 73.1811C68.5742 73.2218 68.2727 73.1426 68.0335 72.9611C67.7944 72.7795 67.6371 72.5103 67.5964 72.2128C67.5557 71.9153 67.6348 71.6137 67.8164 71.3746C67.998 71.1354 68.2672 70.9781 68.5647 70.9374L77.8492 69.6667C78.1467 69.626 78.4482 69.7051 78.6874 69.8867C78.9266 70.0683 79.0838 70.3375 79.1245 70.635C79.1652 70.9325 79.0861 71.2341 78.9045 71.4732C78.7229 71.7124 78.4538 71.8696 78.1563 71.9104Z" fill="#407BFF"/>
</g>
<path d="M62.6402 50.0799L41.7852 51.8975L44.2892 80.6294L65.1443 78.8118L62.6402 50.0799Z" fill="#407BFF"/>
<path opacity="0.8" d="M62.6402 50.0799L41.7852 51.8975L44.2892 80.6294L65.1443 78.8118L62.6402 50.0799Z" fill="white"/>
<g opacity="0.4">
<path d="M59.1691 56.5455L46.3224 57.6651C46.0232 57.6912 45.726 57.5973 45.496 57.4042C45.266 57.2111 45.1222 56.9346 45.0961 56.6354C45.0832 56.4873 45.0996 56.338 45.1443 56.1962C45.1891 56.0544 45.2613 55.9228 45.357 55.809C45.4526 55.6951 45.5697 55.6012 45.7016 55.5326C45.8335 55.4639 45.9777 55.422 46.1258 55.4091L58.9724 54.2894C59.1206 54.2765 59.2698 54.2929 59.4116 54.3377C59.5534 54.3824 59.685 54.4547 59.7989 54.5503C59.9127 54.6459 60.0067 54.763 60.0753 54.8949C60.1439 55.0268 60.1859 55.171 60.1988 55.3191C60.2117 55.4673 60.1953 55.6165 60.1505 55.7583C60.1058 55.9001 60.0335 56.0317 59.9379 56.1455C59.8423 56.2594 59.7252 56.3533 59.5933 56.422C59.4613 56.4906 59.3172 56.5325 59.1691 56.5455Z" fill="#407BFF"/>
<path d="M59.5831 61.2964L46.7364 62.4161C46.5883 62.429 46.4391 62.4126 46.2973 62.3678C46.1555 62.3231 46.0239 62.2508 45.91 62.1552C45.7961 62.0596 45.7022 61.9425 45.6336 61.8106C45.565 61.6786 45.523 61.5345 45.5101 61.3864C45.4972 61.2382 45.5136 61.089 45.5584 60.9472C45.6031 60.8054 45.6754 60.6738 45.771 60.56C45.8666 60.4461 45.9837 60.3522 46.1156 60.2836C46.2476 60.2149 46.3917 60.173 46.5398 60.1601L59.3865 59.0404C59.6857 59.0143 59.9829 59.1082 60.2129 59.3013C60.4429 59.4944 60.5867 59.771 60.6128 60.0701C60.6257 60.2183 60.6093 60.3675 60.5645 60.5093C60.5198 60.6511 60.4475 60.7827 60.3519 60.8965C60.2563 61.0104 60.1392 61.1043 60.0073 61.173C59.8754 61.2416 59.7312 61.2835 59.5831 61.2964Z" fill="#407BFF"/>
<path d="M59.9972 66.0474L47.1505 67.167C47.0024 67.18 46.8531 67.1636 46.7114 67.1188C46.5696 67.074 46.438 67.0018 46.3241 66.9062C46.2102 66.8106 46.1163 66.6935 46.0477 66.5615C45.9791 66.4296 45.9371 66.2855 45.9242 66.1374C45.9113 65.9892 45.9277 65.84 45.9724 65.6982C46.0172 65.5564 46.0894 65.4248 46.1851 65.3109C46.2807 65.1971 46.3978 65.1031 46.5297 65.0345C46.6616 64.9659 46.8058 64.9239 46.9539 64.911L59.8005 63.7914C60.0997 63.7653 60.397 63.8591 60.627 64.0523C60.857 64.2454 61.0008 64.5219 61.0269 64.8211C61.0529 65.1202 60.9591 65.4175 60.766 65.6475C60.5729 65.8775 60.2963 66.0213 59.9972 66.0474Z" fill="#407BFF"/>
<path d="M60.4112 70.7979L47.5646 71.9175C47.4165 71.9304 47.2672 71.914 47.1254 71.8693C46.9836 71.8245 46.8521 71.7523 46.7382 71.6567C46.6243 71.5611 46.5304 71.4439 46.4618 71.312C46.3931 71.1801 46.3512 71.036 46.3383 70.8878C46.3122 70.5887 46.406 70.2914 46.5991 70.0614C46.7922 69.8314 47.0688 69.6876 47.368 69.6615L60.2146 68.5419C60.5138 68.5158 60.8111 68.6096 61.041 68.8027C61.271 68.9958 61.4149 69.2724 61.4409 69.5716C61.4539 69.7197 61.4375 69.8689 61.3927 70.0107C61.3479 70.1525 61.2757 70.2841 61.1801 70.398C61.0845 70.5119 60.9673 70.6058 60.8354 70.6744C60.7035 70.743 60.5594 70.785 60.4112 70.7979Z" fill="#407BFF"/>
<path d="M57.3143 75.855L47.9787 76.6687C47.6795 76.6947 47.3822 76.6009 47.1522 76.4078C46.9223 76.2147 46.7784 75.9381 46.7523 75.639C46.7394 75.4908 46.7558 75.3416 46.8006 75.1998C46.8453 75.058 46.9176 74.9264 47.0132 74.8125C47.1088 74.6987 47.2259 74.6047 47.3579 74.5361C47.4898 74.4675 47.6339 74.4256 47.782 74.4127L57.1177 73.599C57.4168 73.5729 57.7141 73.6668 57.9441 73.8599C58.1741 74.053 58.3179 74.3295 58.344 74.6287C58.3569 74.7768 58.3405 74.9261 58.2958 75.0679C58.251 75.2097 58.1787 75.3413 58.0831 75.4551C57.9875 75.569 57.8704 75.6629 57.7385 75.7315C57.6066 75.8002 57.4624 75.8421 57.3143 75.855Z" fill="#407BFF"/>
</g>
<path d="M88.0582 48.6781L67.1484 49.6875L68.5391 78.4948L89.4489 77.4853L88.0582 48.6781Z" fill="#407BFF"/>
<path opacity="0.8" d="M88.0582 48.6781L67.1484 49.6875L68.5391 78.4948L89.4489 77.4853L88.0582 48.6781Z" fill="white"/>
<g opacity="0.4">
<path d="M84.3387 55.005L71.4584 55.6268C71.3098 55.6339 71.1614 55.6118 71.0214 55.5616C70.8814 55.5114 70.7527 55.4341 70.6427 55.3341C70.5326 55.2342 70.4432 55.1135 70.3798 54.9791C70.3163 54.8446 70.28 54.6989 70.2728 54.5504C70.2656 54.4019 70.2878 54.2534 70.338 54.1134C70.3882 53.9735 70.4655 53.8448 70.5654 53.7347C70.6654 53.6246 70.786 53.5353 70.9205 53.4718C71.055 53.4084 71.2006 53.372 71.3491 53.3648L84.2295 52.743C84.5295 52.7285 84.8229 52.8338 85.0452 53.0357C85.2676 53.2375 85.4006 53.5195 85.4151 53.8194C85.4296 54.1194 85.3243 54.4128 85.1224 54.6351C84.9206 54.8574 84.6386 54.9905 84.3387 55.005Z" fill="#407BFF"/>
<path d="M84.5692 59.7681L71.6888 60.39C71.3889 60.4044 71.0955 60.2992 70.8731 60.0973C70.6508 59.8955 70.5178 59.6135 70.5033 59.3136C70.4961 59.1651 70.5183 59.0166 70.5685 58.8766C70.6187 58.7367 70.696 58.608 70.7959 58.4979C70.8959 58.3878 71.0165 58.2985 71.151 58.235C71.2855 58.1715 71.4311 58.1352 71.5797 58.128L84.46 57.5062C84.6085 57.499 84.757 57.5212 84.8969 57.5714C85.0369 57.6216 85.1656 57.6989 85.2757 57.7989C85.3858 57.8988 85.4751 58.0195 85.5386 58.1539C85.602 58.2884 85.6384 58.4341 85.6455 58.5826C85.6527 58.7311 85.6306 58.8796 85.5804 59.0195C85.5302 59.1595 85.4529 59.2882 85.3529 59.3983C85.253 59.5084 85.1323 59.5977 84.9978 59.6612C84.8634 59.7246 84.7177 59.761 84.5692 59.7681Z" fill="#407BFF"/>
<path d="M75.4664 64.982L71.9173 65.1534C71.7688 65.1605 71.6203 65.1384 71.4804 65.0882C71.3404 65.038 71.2117 64.9607 71.1016 64.8607C70.9915 64.7608 70.9022 64.6401 70.8388 64.5056C70.7753 64.3712 70.739 64.2255 70.7318 64.077C70.7173 63.777 70.8226 63.4836 71.0244 63.2613C71.2263 63.0389 71.5082 62.9059 71.8081 62.8914L75.3572 62.7201C75.5057 62.7129 75.6542 62.735 75.7942 62.7853C75.9341 62.8355 76.0628 62.9128 76.1729 63.0127C76.283 63.1127 76.3723 63.2333 76.4358 63.3678C76.4993 63.5023 76.5356 63.6479 76.5428 63.7965C76.55 63.945 76.5278 64.0935 76.4776 64.2334C76.4274 64.3734 76.3501 64.5021 76.2502 64.6122C76.1502 64.7222 76.0295 64.8116 75.8951 64.875C75.7606 64.9385 75.615 64.9748 75.4664 64.982Z" fill="#407BFF"/>
<path d="M82.3493 64.65L78.8002 64.8213C78.5002 64.8358 78.2068 64.7305 77.9845 64.5287C77.7621 64.3268 77.6291 64.0449 77.6146 63.7449C77.6001 63.445 77.7054 63.1516 77.9073 62.9292C78.1091 62.7069 78.391 62.5739 78.691 62.5594L82.2401 62.388C82.3886 62.3809 82.5371 62.403 82.677 62.4532C82.817 62.5034 82.9457 62.5807 83.0558 62.6807C83.1659 62.7806 83.2552 62.9013 83.3187 63.0358C83.3821 63.1702 83.4185 63.3159 83.4256 63.4644C83.4401 63.7644 83.3349 64.0578 83.133 64.2801C82.9311 64.5025 82.6492 64.6355 82.3493 64.65Z" fill="#407BFF"/>
<path d="M85.0282 69.295L72.1478 69.9168C71.8479 69.9313 71.5545 69.826 71.3321 69.6242C71.1098 69.4223 70.9767 69.1404 70.9623 68.8404C70.9551 68.6919 70.9772 68.5434 71.0274 68.4035C71.0777 68.2635 71.1549 68.1348 71.2549 68.0247C71.3549 67.9146 71.4755 67.8253 71.61 67.7618C71.7445 67.6984 71.8901 67.662 72.0386 67.6549L84.919 67.0331C85.0675 67.0259 85.216 67.048 85.3559 67.0982C85.4959 67.1485 85.6246 67.2257 85.7347 67.3257C85.8448 67.4256 85.9341 67.5463 85.9976 67.6808C86.061 67.8152 86.0974 67.9609 86.1045 68.1094C86.1117 68.2579 86.0896 68.4064 86.0394 68.5464C85.9891 68.6863 85.9119 68.815 85.8119 68.9251C85.712 69.0352 85.5913 69.1245 85.4568 69.188C85.3224 69.2515 85.1767 69.2878 85.0282 69.295Z" fill="#407BFF"/>
<path d="M81.7384 74.2281L72.3783 74.68C72.2298 74.6871 72.0813 74.665 71.9414 74.6148C71.8014 74.5646 71.6727 74.4873 71.5626 74.3873C71.4525 74.2874 71.3632 74.1667 71.2997 74.0323C71.2363 73.8978 71.1999 73.7521 71.1927 73.6036C71.1783 73.3037 71.2835 73.0102 71.4854 72.7879C71.6872 72.5656 71.9692 72.4325 72.2691 72.4181L81.6292 71.9662C81.9292 71.9517 82.2226 72.057 82.4449 72.2588C82.6673 72.4607 82.8003 72.7426 82.8148 73.0425C82.822 73.1911 82.7998 73.3395 82.7496 73.4795C82.6994 73.6195 82.6221 73.7482 82.5222 73.8583C82.4222 73.9683 82.3016 74.0577 82.1671 74.1211C82.0326 74.1846 81.887 74.2209 81.7384 74.2281Z" fill="#407BFF"/>
</g>
<path d="M56.9423 71.3977L56.6094 70.1471C56.372 69.2842 55.8266 68.5382 55.0763 68.0503C54.3259 67.5624 53.4228 67.3666 52.5378 67.4997L34.3773 69.6237C33.2771 69.7575 32.2634 70.2877 31.526 71.1151C30.7885 71.9425 30.378 73.0103 30.3711 74.1186L31.4015 117.38C31.4079 117.736 31.4905 118.087 31.6437 118.409C31.797 118.731 32.0173 119.016 32.29 119.246C32.5627 119.475 32.8813 119.644 33.2246 119.74C33.5678 119.837 33.9277 119.858 34.28 119.804L99.2559 112.205C100.01 112.113 100.706 111.749 101.211 111.182C101.717 110.614 101.999 109.882 102.003 109.122L101.112 71.7246C101.106 71.3681 101.023 71.0172 100.87 70.6953C100.717 70.3735 100.497 70.0881 100.224 69.8584C99.9513 69.6288 99.6326 69.4602 99.2894 69.3639C98.9461 69.2676 98.5863 69.2458 98.2339 69.3001L60.5033 73.7131C59.7292 73.8295 58.9394 73.6582 58.2831 73.2315C57.6269 72.8048 57.1499 72.1524 56.9423 71.3977Z" fill="#407BFF"/>
<path opacity="0.3" d="M56.9423 71.3977L56.6094 70.1471C56.372 69.2842 55.8266 68.5382 55.0763 68.0503C54.3259 67.5624 53.4228 67.3666 52.5378 67.4997L34.3773 69.6237C33.2771 69.7575 32.2634 70.2877 31.526 71.1151C30.7885 71.9425 30.378 73.0103 30.3711 74.1186L31.4015 117.38C31.4079 117.736 31.4905 118.087 31.6437 118.409C31.797 118.731 32.0173 119.016 32.29 119.246C32.5627 119.475 32.8813 119.644 33.2246 119.74C33.5678 119.837 33.9277 119.858 34.28 119.804L99.2559 112.205C100.01 112.113 100.706 111.749 101.211 111.182C101.717 110.614 101.999 109.882 102.003 109.122L101.112 71.7246C101.106 71.3681 101.023 71.0172 100.87 70.6953C100.717 70.3735 100.497 70.0881 100.224 69.8584C99.9513 69.6288 99.6326 69.4602 99.2894 69.3639C98.9461 69.2676 98.5863 69.2458 98.2339 69.3001L60.5033 73.7131C59.7292 73.8295 58.9394 73.6582 58.2831 73.2315C57.6269 72.8048 57.1499 72.1524 56.9423 71.3977Z" fill="black"/>
<path d="M120.47 50.5997C120.189 52.0118 119.888 53.4 119.551 54.7885C119.221 56.1764 118.882 57.5618 118.514 58.9403L117.952 61.0056L117.879 61.2696C117.845 61.3832 117.807 61.498 117.763 61.6156C117.668 61.8739 117.543 62.1202 117.391 62.3493C117.204 62.6334 116.963 62.8784 116.682 63.0705C116.372 63.2789 116.016 63.4076 115.644 63.4452C115.078 63.4831 114.512 63.3582 114.015 63.0852C113.636 62.8818 113.282 62.6367 112.959 62.3545C112.373 61.8395 111.854 61.2539 111.412 60.6111L112.469 59.6605C112.985 60.0625 113.531 60.4249 114.101 60.7447C114.349 60.8859 114.611 60.9995 114.884 61.0835C115.117 61.1596 115.321 61.1492 115.323 61.1106C115.328 61.0965 115.285 61.0961 115.266 61.0985C115.244 61.0982 115.248 61.0889 115.266 61.0349C115.283 60.9837 115.311 60.9022 115.335 60.8013L115.423 60.3831L115.866 58.307L116.759 54.1574C117.048 52.7747 117.358 51.3883 117.66 50.0195L120.47 50.5997Z" fill="#FFC3BD"/>
<path d="M119.2 46.2574C115.958 48.7391 116.089 53.4154 116.089 53.4154L121.887 54.8014C121.887 54.8014 123.666 50.0995 122.944 48.378C122.191 46.5816 121.024 44.8606 119.2 46.2574Z" fill="#263238"/>
<path d="M112.768 59.7351L110.636 57.6035L109.486 60.9385C109.486 60.9385 111.286 61.9101 113.008 60.9942L112.768 59.7351Z" fill="#FFC3BD"/>
<path d="M107.685 57.2744L107.293 59.9097L109.485 60.9384L110.635 57.6035L107.685 57.2744Z" fill="#FFC3BD"/>
<path d="M137.986 134.484L134.725 134.803L131.332 127.042L134.593 126.723L137.986 134.484Z" fill="#FFC3BD"/>
<path d="M158.992 123.01L156.543 125.31L151.256 119.499L153.705 117.2L158.992 123.01Z" fill="#FFC3BD"/>
<path d="M155.412 124.207L157.252 120.891C157.283 120.833 157.334 120.789 157.395 120.766C157.456 120.743 157.524 120.744 157.585 120.768L160.418 121.846C160.488 121.876 160.551 121.92 160.603 121.975C160.655 122.031 160.695 122.097 160.72 122.17C160.745 122.242 160.754 122.318 160.747 122.394C160.74 122.47 160.717 122.544 160.68 122.61C160.018 123.755 159.641 124.275 158.832 125.733C158.334 126.63 157.365 128.688 156.677 129.926C156.004 131.138 154.728 130.551 154.903 129.974C155.689 127.385 155.541 125.944 155.32 124.801C155.28 124.598 155.312 124.388 155.412 124.207Z" fill="#263238"/>
<path d="M134.292 133.795H138.297C138.369 133.796 138.438 133.82 138.496 133.864C138.553 133.908 138.594 133.97 138.613 134.039L139.484 137.207C139.505 137.282 139.508 137.361 139.494 137.437C139.479 137.514 139.447 137.586 139.399 137.647C139.352 137.709 139.29 137.758 139.22 137.792C139.15 137.826 139.073 137.843 138.995 137.841C137.584 137.854 136.915 137.848 135.154 137.848H129.772C128.308 137.848 128.002 136.368 128.608 136.234C131.322 135.634 132.887 134.805 133.725 134.015C133.879 133.872 134.082 133.793 134.292 133.795Z" fill="#263238"/>
<path opacity="0.2" d="M131.334 127.044L133.082 131.045H136.484L134.596 126.725L131.334 127.044Z" fill="black"/>
<path opacity="0.2" d="M153.706 117.201L151.256 119.501L153.982 122.495L156.433 120.195L153.706 117.201Z" fill="black"/>
<path d="M120.179 45.7766C120.179 45.7766 118.714 46.4214 123.63 65.8773C129.05 65.4085 134.651 64.9241 137.288 64.696C136.578 59.1568 136.275 55.7295 137.946 44.0913C135.999 43.8618 134.039 43.7741 132.079 43.8287C130.002 43.8597 127.929 44.039 125.877 44.3654C123.955 44.7389 122.053 45.2099 120.179 45.7766Z" fill="#263238"/>
<path d="M132.078 43.7334C132.078 43.7334 132.853 43.7471 133.768 43.7471C134.318 44.5961 132.53 48.3062 129.573 50.7366C129.126 49.3868 128.302 48.1928 127.199 47.2952L132.078 43.7334Z" fill="white"/>
<path d="M125.879 44.3159C125.879 44.3159 125.533 44.3649 124.707 44.5535C124.157 45.4025 123.225 49.0218 124.847 50.8695C125.256 49.4693 126.076 48.2241 127.2 47.295L125.879 44.3159Z" fill="white"/>
<path d="M130.86 36.8984C130.641 38.9279 130.567 42.6181 132.079 43.8289C132.079 43.8289 130.464 45.4765 127.2 47.2953C124.825 45.6542 125.876 44.3656 125.876 44.3656C128.056 43.6417 127.856 41.9956 127.334 40.4786L130.86 36.8984Z" fill="#FFC3BD"/>
<path d="M127.145 47.3053C127.145 47.3053 129.147 45.1248 130.181 45.5437C131.215 45.9626 130.417 46.7098 130.325 47.4113C130.233 48.1127 130.727 49.9848 129.34 49.4985C127.953 49.0122 127.145 47.3053 127.145 47.3053Z" fill="#407BFF"/>
<path d="M127.064 47.2608C127.064 47.2608 126.119 45.5878 125.097 45.811C124.075 46.0342 124.683 46.622 124.774 47.2507C124.89 48.0594 124.038 49.6065 125.271 49.1698C126.47 48.7448 127.064 47.2608 127.064 47.2608Z" fill="#407BFF"/>
<g opacity="0.2">
<path d="M126.545 46.8984C126.53 47.2364 126.595 47.5733 126.736 47.881C126.862 47.6836 126.971 47.4767 127.064 47.2621C126.924 47.0238 126.762 46.7988 126.581 46.5898C126.55 46.6896 126.538 46.7942 126.545 46.8984Z" fill="black"/>
<path d="M127.874 46.6001C127.446 46.9775 127.146 47.304 127.146 47.304C127.261 47.5322 127.392 47.7522 127.537 47.9624C127.763 47.7299 127.895 47.4224 127.908 47.0988C127.945 46.9329 127.934 46.7595 127.874 46.6001Z" fill="black"/>
</g>
<path d="M127.119 47.9912C126.837 47.9923 126.662 47.6817 126.641 46.9473C126.62 46.213 127.185 46.6207 127.185 46.6207C127.185 46.6207 127.936 46.2283 127.809 47.1212C127.71 47.8153 127.412 47.99 127.119 47.9912Z" fill="#407BFF"/>
<path opacity="0.2" d="M129.423 38.3589L127.336 40.4764C127.463 40.8288 127.559 41.1917 127.622 41.5608C128.462 41.3644 129.677 40.492 129.69 39.5941C129.675 39.1698 129.585 38.7516 129.423 38.3589Z" fill="black"/>
<path d="M127.634 30.0426C127.634 30.0426 125.361 33.2009 124.985 34.6183C123.435 35.5202 123.121 31.0714 123.944 28.3271C126.491 29.9146 127.634 30.0426 127.634 30.0426Z" fill="#263238"/>
<path d="M132.645 33.7274C131.799 36.9689 131.51 38.359 129.522 39.7173C126.531 41.7605 122.735 40.0118 122.596 36.5828C122.47 33.4963 123.876 28.7139 127.344 28.0395C128.108 27.8871 128.898 27.9325 129.64 28.1715C130.382 28.4105 131.05 28.8352 131.581 29.4051C132.112 29.975 132.489 30.6713 132.675 31.4279C132.861 32.1844 132.851 32.976 132.645 33.7274Z" fill="#FFC3BD"/>
<path d="M134.408 32.4339C134.408 32.4339 132.779 35.0722 132.56 36.22C131.378 37.0241 130.879 33.5056 131.378 31.278C131.921 29.3125 134.408 32.4339 134.408 32.4339Z" fill="#263238"/>
<path d="M133.758 30.596C133.289 30.9529 132.788 29.6339 133.259 28.6241C132.357 28.6799 131.274 28.1453 131.505 27.2767C129.732 27.8712 129.074 26.066 129.278 24.8169C129.525 23.3073 130.849 22.9739 131.627 23.3725C131.643 22.6938 133.344 21.2738 133.997 22.3842C135.21 21.9564 137.162 22.0881 137.123 23.5772C137.925 23.6023 140.29 24.5091 139.418 26.6364C140.461 26.6983 141.027 28.0256 140.446 29.0272C140.675 29.1488 140.872 29.3235 141.019 29.5368C141.166 29.75 141.26 29.9955 141.292 30.2525C141.325 30.5096 141.295 30.7707 141.206 31.014C141.117 31.2572 140.97 31.4754 140.779 31.6502C141.26 32.6532 139.796 34.1448 139.02 33.9657C138.426 34.8761 137.517 35.5593 136.923 34.7832C135.768 35.6244 134.475 34.5577 134.768 33.736C133.46 33.5205 132.139 31.3629 133.758 30.596Z" fill="#263238"/>
<path d="M135.69 27.4062C136.542 28.8268 136.471 30.4342 135.533 30.9965C134.594 31.5588 133.143 30.863 132.292 29.4424C131.441 28.0219 131.512 26.4144 132.45 25.8521C133.388 25.2898 134.839 25.9856 135.69 27.4062Z" fill="#407BFF"/>
<path d="M127.788 29.6456C127.736 30.0535 126.615 29.9478 126.292 29.2303C125.83 29.7156 124.739 29.9679 124.366 29.4391C123.737 30.623 122.473 30.3131 122.141 29.7442C121.81 29.1753 121.598 28.1264 122.253 27.9193C121.871 27.5901 121.986 26.0519 122.983 26.2451C123.401 25.4254 124.547 24.4938 125.382 25.2184C125.836 24.8224 127.653 24.048 128.4 25.4985C128.561 25.3878 128.745 25.3151 128.939 25.2861C129.133 25.2571 129.33 25.2725 129.517 25.3311C129.704 25.3897 129.875 25.49 130.017 25.6244C130.159 25.7588 130.269 25.9237 130.338 26.1068C131.523 25.7972 132.034 26.6943 132.03 27.1792C132.871 27.409 132.926 28.8604 132.398 29.1707C132.596 29.9037 132.491 30.6898 131.719 30.6251C131.571 31.6109 130.248 31.7641 129.936 31.2262C129.095 31.7899 127.342 30.8325 127.788 29.6456Z" fill="#263238"/>
<path d="M125.787 26.8546C126.749 25.5229 130.254 24.9708 133.291 26.9656C136.027 28.7634 135.849 32.9361 133.674 32.7142C131.499 32.4922 129.346 29.9398 129.346 29.9398L125.787 26.8546Z" fill="#263238"/>
<path d="M132.913 36.6535C132.61 37.2261 132.092 37.6554 131.474 37.8472C130.651 38.0947 130.223 37.3635 130.438 36.5787C130.63 35.8723 131.291 34.8924 132.123 34.9885C132.304 35.013 132.476 35.0823 132.624 35.1903C132.772 35.2983 132.89 35.4414 132.969 35.6068C133.047 35.7721 133.083 35.9544 133.074 36.1372C133.064 36.32 133.009 36.4974 132.913 36.6535Z" fill="#FFC3BD"/>
<path d="M123.629 65.8773C123.629 65.8773 119.008 86.3203 122.093 100.733C124.159 110.385 131.61 129.885 131.61 129.885L137.436 129.735C137.436 129.735 131.795 109.272 130.629 101.224C128.634 87.4583 133.631 65.0122 133.631 65.0122L123.629 65.8773Z" fill="#407BFF"/>
<path opacity="0.2" d="M128.959 70.0054L131.872 74.5997C130.994 80.0477 130.437 85.5426 130.205 91.056C126.108 83.7221 128.048 73.8881 128.959 70.0054Z" fill="black"/>
<path d="M130.789 130.187L137.986 130.003L137.569 127.792L130.227 128.14L130.789 130.187Z" fill="#263238"/>
<path d="M126.615 65.6595C126.615 65.6595 129.326 87.3395 135.203 99.1756C139.95 108.736 152.616 122.345 152.616 122.345L155.854 119.009C155.854 119.009 147.299 104.218 143.771 97.8677C135.121 82.296 142.19 70.4132 137.288 64.6958L126.615 65.6595Z" fill="#407BFF"/>
<path d="M152.288 122.791L156.467 118.717L155.08 116.831L150.648 121.255L152.288 122.791Z" fill="#263238"/>
<path d="M137.422 63.8765L138.144 65.0458C138.2 65.1365 138.096 65.243 137.938 65.2566L123.614 66.4955C123.491 66.5062 123.384 66.4547 123.369 66.3779L123.14 65.166C123.124 65.082 123.225 65.0011 123.36 64.9894L137.191 63.7932C137.234 63.7858 137.277 63.7897 137.318 63.8043C137.358 63.8189 137.394 63.8438 137.422 63.8765Z" fill="#407BFF"/>
<path opacity="0.5" d="M137.422 63.8765L138.144 65.0458C138.2 65.1365 138.096 65.243 137.938 65.2566L123.614 66.4955C123.491 66.5062 123.384 66.4547 123.369 66.3779L123.14 65.166C123.124 65.082 123.225 65.0011 123.36 64.9894L137.191 63.7932C137.234 63.7858 137.277 63.7897 137.318 63.8043C137.358 63.8189 137.394 63.8438 137.422 63.8765Z" fill="white"/>
<path d="M135.699 65.5837L136.07 65.5517C136.143 65.5453 136.196 65.5024 136.187 65.4564L135.876 63.883C135.867 63.8369 135.799 63.8045 135.725 63.8109L135.355 63.8429C135.281 63.8493 135.228 63.8921 135.237 63.9382L135.548 65.5116C135.558 65.5577 135.625 65.5901 135.699 65.5837Z" fill="#407BFF"/>
<path d="M124.668 66.5383L125.038 66.5063C125.112 66.4999 125.165 66.457 125.156 66.411L124.845 64.8376C124.836 64.7915 124.768 64.7591 124.694 64.7655L124.324 64.7975C124.25 64.8039 124.197 64.8468 124.206 64.8928L124.517 66.4662C124.526 66.5123 124.594 66.5447 124.668 66.5383Z" fill="#407BFF"/>
<path d="M130.184 66.0608L130.554 66.0288C130.628 66.0224 130.681 65.9795 130.671 65.9335L130.36 64.36C130.351 64.314 130.283 64.2815 130.21 64.2879L129.839 64.3199C129.765 64.3263 129.713 64.3692 129.722 64.4153L130.033 65.9887C130.042 66.0347 130.11 66.0672 130.184 66.0608Z" fill="#407BFF"/>
<path d="M127.158 33.6164C127.106 33.8835 126.922 34.0722 126.747 34.0379C126.572 34.0036 126.473 33.7592 126.526 33.492C126.578 33.2248 126.762 33.0361 126.937 33.0704C127.112 33.1048 127.211 33.3492 127.158 33.6164Z" fill="#263238"/>
<path d="M124.138 33.0224C124.19 32.7553 124.091 32.5109 123.917 32.4766C123.742 32.4422 123.558 32.631 123.505 32.8981C123.453 33.1653 123.552 33.4097 123.726 33.444C123.901 33.4783 124.085 33.2896 124.138 33.0224Z" fill="#263238"/>
<path d="M123.992 32.5069L123.387 32.1958C123.387 32.1958 123.617 32.7617 123.992 32.5069Z" fill="#263238"/>
<path d="M125.176 33.6885C124.819 34.2511 124.385 34.7618 123.889 35.2063C124.006 35.3305 124.148 35.4275 124.307 35.4908C124.465 35.554 124.636 35.5818 124.806 35.5723L125.176 33.6885Z" fill="#ED847E"/>
<path d="M126.041 36.8461C126.604 36.8534 127.148 36.6463 127.563 36.2669C127.57 36.2607 127.575 36.2533 127.578 36.2451C127.581 36.2369 127.583 36.2281 127.583 36.2193C127.583 36.2104 127.581 36.2016 127.578 36.1935C127.575 36.1853 127.569 36.1779 127.563 36.1717C127.557 36.1655 127.549 36.1607 127.541 36.1574C127.533 36.1542 127.524 36.1526 127.515 36.1529C127.506 36.1531 127.497 36.155 127.489 36.1587C127.481 36.1623 127.474 36.1675 127.468 36.174C127.212 36.3992 126.907 36.561 126.576 36.6465C126.246 36.7319 125.901 36.7386 125.568 36.666C125.559 36.6642 125.55 36.664 125.542 36.6657C125.533 36.6673 125.525 36.6707 125.517 36.6756C125.51 36.6804 125.504 36.6867 125.499 36.6941C125.494 36.7014 125.491 36.7096 125.49 36.7183C125.488 36.7268 125.488 36.7356 125.49 36.7442C125.491 36.7528 125.495 36.7609 125.5 36.7681C125.504 36.7754 125.511 36.7816 125.518 36.7865C125.525 36.7913 125.533 36.7946 125.542 36.7963C125.706 36.829 125.873 36.8457 126.041 36.8461Z" fill="#263238"/>
<path d="M128.972 32.5804C128.995 32.5803 129.018 32.574 129.039 32.5621C129.059 32.5502 129.076 32.5331 129.087 32.5126C129.099 32.492 129.105 32.4688 129.104 32.4452C129.104 32.4217 129.097 32.3987 129.085 32.3785C128.961 32.1618 128.788 31.978 128.578 31.8425C128.369 31.7071 128.13 31.6239 127.881 31.6002C127.846 31.5991 127.812 31.612 127.786 31.636C127.761 31.66 127.745 31.6931 127.744 31.7283C127.743 31.7634 127.756 31.7976 127.78 31.8233C127.803 31.8491 127.836 31.8644 127.872 31.8659C128.076 31.8881 128.272 31.9586 128.443 32.0717C128.615 32.1849 128.757 32.3372 128.858 32.5162C128.87 32.5358 128.886 32.552 128.906 32.5633C128.926 32.5745 128.949 32.5804 128.972 32.5804Z" fill="#263238"/>
<path d="M123.301 31.5104C123.324 31.5104 123.346 31.5046 123.366 31.4934C123.542 31.3886 123.741 31.3269 123.945 31.3135C124.15 31.3 124.355 31.3351 124.544 31.416C124.575 31.4322 124.611 31.4354 124.645 31.4249C124.678 31.4144 124.706 31.3911 124.723 31.3599C124.739 31.3288 124.743 31.2925 124.732 31.2589C124.722 31.2253 124.699 31.1972 124.668 31.1807C124.44 31.0785 124.191 31.0324 123.942 31.0464C123.693 31.0604 123.451 31.1341 123.236 31.2613C123.21 31.2757 123.19 31.2982 123.179 31.3253C123.167 31.3524 123.165 31.3825 123.172 31.411C123.18 31.4395 123.196 31.4647 123.22 31.4827C123.243 31.5007 123.272 31.5104 123.301 31.5104Z" fill="#263238"/>
<path d="M138.526 47.1997C138.783 47.4513 138.961 47.6461 139.164 47.8712C139.358 48.0915 139.544 48.3143 139.725 48.5403C140.088 48.9915 140.432 49.4548 140.756 49.9302C141.397 50.8879 141.966 51.8924 142.456 52.9353C142.946 53.9837 143.343 55.0734 143.641 56.1917C143.786 56.7526 143.92 57.3172 144.015 57.8902C144.205 58.6971 144.113 59.5445 143.755 60.2923C143.547 60.6858 143.257 61.0306 142.906 61.3037C142.603 61.5386 142.269 61.7304 141.913 61.8735C141.307 62.1086 140.672 62.2598 140.025 62.3227C138.871 62.4345 137.708 62.4194 136.557 62.2776C134.352 62.0219 132.177 61.5596 130.059 60.8968L130.406 59.5185C131.44 59.6889 132.504 59.8496 133.556 59.9577C134.608 60.0793 135.66 60.1664 136.698 60.1893C137.702 60.2273 138.708 60.1723 139.702 60.0249C140.129 59.9583 140.546 59.8339 140.94 59.6553C141.182 59.5652 141.382 59.3884 141.5 59.1591C141.533 59.071 141.548 58.9777 141.547 58.8838C141.546 58.8156 141.541 58.7475 141.533 58.6798C141.516 58.6014 141.508 58.5325 141.473 58.3932C141.366 57.9041 141.226 57.422 141.076 56.9439C140.439 55.029 139.527 53.2168 138.369 51.5638C138.084 51.1468 137.785 50.7401 137.471 50.3488C137.315 50.1529 137.154 49.9608 136.992 49.7751C136.838 49.5942 136.653 49.389 136.528 49.2591L138.526 47.1997Z" fill="#FFC3BD"/>
<path d="M131.269 59.7281L128.605 58.3169L128.486 61.8425C128.486 61.8425 130.368 61.9613 131.472 61.0956L131.269 59.7281Z" fill="#FFC3BD"/>
<path d="M126.603 78.6784L128.801 54.8103L124.108 51.2166L109.78 49.8965L107.293 76.8997L126.603 78.6784Z" fill="#407BFF"/>
<path opacity="0.8" d="M126.603 78.6784L128.801 54.8103L124.108 51.2166L109.78 49.8965L107.293 76.8997L126.603 78.6784Z" fill="white"/>
<path d="M128.803 54.81L124.109 51.2163L125.34 55.5175L128.803 54.81Z" fill="#407BFF"/>
<path d="M108.972 81.0718C112.204 81.0718 114.823 78.4522 114.823 75.2207C114.823 71.9892 112.204 69.3696 108.972 69.3696C105.741 69.3696 103.121 71.9892 103.121 75.2207C103.121 78.4522 105.741 81.0718 108.972 81.0718Z" fill="#407BFF"/>
<path d="M111.865 78.8822C113.887 77.2847 114.231 74.3503 112.634 72.3281C111.036 70.3058 108.102 69.9615 106.08 71.5591C104.057 73.1566 103.713 76.091 105.311 78.1132C106.908 80.1355 109.842 80.4798 111.865 78.8822Z" fill="white"/>
<path d="M111.855 74.8107L109.796 74.569L110.037 72.5102L108.561 72.3369L108.32 74.3961L106.261 74.1545L106.088 75.6304L108.147 75.8721L107.905 77.9309L109.381 78.1042L109.623 76.045L111.681 76.2866L111.855 74.8107Z" fill="#407BFF"/>
<path opacity="0.4" d="M125.298 59.7567C125.259 60.1785 125.054 60.5677 124.729 60.8385C124.403 61.1093 123.983 61.2397 123.561 61.2009L113.111 60.2395C112.689 60.2007 112.3 59.9959 112.029 59.6702C111.758 59.3445 111.628 58.9245 111.667 58.5027C111.706 58.0808 111.91 57.6917 112.236 57.4209C112.562 57.15 112.982 57.0197 113.404 57.0585L123.854 58.0198C124.276 58.0587 124.665 58.2634 124.936 58.5892C125.207 58.9149 125.337 59.3348 125.298 59.7567Z" fill="#407BFF"/>
<path opacity="0.4" d="M121.737 64.0692C121.698 64.491 121.493 64.8802 121.168 65.151C120.842 65.4218 120.422 65.5522 120 65.5134L112.697 64.8415C112.275 64.8027 111.886 64.5979 111.615 64.2722C111.344 63.9465 111.214 63.5265 111.253 63.1047C111.272 62.8958 111.332 62.6928 111.43 62.5072C111.528 62.3216 111.661 62.157 111.822 62.0229C111.983 61.8888 112.169 61.7878 112.37 61.7256C112.57 61.6634 112.781 61.6413 112.99 61.6605L120.293 62.3324C120.502 62.3516 120.705 62.4118 120.89 62.5095C121.076 62.6071 121.241 62.7404 121.375 62.9017C121.509 63.063 121.61 63.2491 121.672 63.4494C121.734 63.6498 121.756 63.8604 121.737 64.0692Z" fill="#407BFF"/>
<path d="M126.982 58.5274L127.382 61.1616L128.487 61.8425L128.606 58.3169L126.982 58.5274Z" fill="#FFC3BD"/>
<path d="M137.946 44.0913C139.62 44.3873 141.967 49.1899 141.967 49.1899L137.746 53.0075C137.746 53.0075 134.388 49.3458 134.567 47.164C134.72 45.3117 135.813 43.7141 137.946 44.0913Z" fill="#263238"/>
<path d="M154.765 125.99C154.81 125.989 154.854 125.982 154.896 125.968C155.296 125.833 155.559 125.091 155.68 124.662C155.683 124.649 155.683 124.636 155.679 124.623C155.675 124.611 155.668 124.6 155.658 124.592C155.648 124.584 155.635 124.579 155.622 124.577C155.61 124.576 155.597 124.579 155.585 124.585C155.463 124.649 154.393 125.221 154.358 125.643C154.355 125.689 154.363 125.735 154.383 125.777C154.403 125.818 154.434 125.854 154.472 125.879C154.555 125.947 154.658 125.986 154.765 125.99ZM155.506 124.779C155.321 125.372 155.081 125.765 154.853 125.842C154.801 125.857 154.746 125.859 154.694 125.847C154.641 125.835 154.592 125.81 154.552 125.773C154.532 125.761 154.515 125.743 154.505 125.722C154.494 125.701 154.489 125.678 154.491 125.654C154.512 125.395 155.139 124.988 155.506 124.779Z" fill="#407BFF"/>
<path d="M154.6 124.946C154.964 124.945 155.324 124.861 155.651 124.7C155.661 124.694 155.669 124.686 155.674 124.675C155.68 124.665 155.683 124.654 155.682 124.642C155.682 124.63 155.679 124.619 155.673 124.609C155.667 124.599 155.658 124.591 155.648 124.585C155.612 124.565 154.765 124.1 154.309 124.262C154.252 124.28 154.201 124.311 154.158 124.352C154.114 124.393 154.081 124.443 154.059 124.498C154.03 124.552 154.021 124.613 154.032 124.673C154.043 124.733 154.074 124.787 154.12 124.826C154.262 124.918 154.431 124.96 154.6 124.946ZM155.47 124.643C155.107 124.798 154.404 124.893 154.206 124.725C154.173 124.697 154.14 124.651 154.183 124.548C154.197 124.51 154.22 124.476 154.25 124.448C154.279 124.42 154.315 124.399 154.353 124.387C154.664 124.276 155.229 124.525 155.47 124.643Z" fill="#407BFF"/>
<path d="M132.515 134.443C132.884 134.435 133.25 134.388 133.609 134.304C133.622 134.301 133.634 134.294 133.644 134.284C133.653 134.273 133.659 134.26 133.66 134.247C133.662 134.233 133.659 134.219 133.652 134.207C133.645 134.195 133.635 134.185 133.622 134.179C133.458 134.102 132.005 133.43 131.639 133.678C131.606 133.7 131.58 133.731 131.563 133.768C131.546 133.804 131.54 133.844 131.544 133.884C131.547 133.957 131.566 134.029 131.6 134.094C131.634 134.159 131.683 134.215 131.742 134.258C131.975 134.398 132.245 134.462 132.515 134.443ZM133.38 134.215C132.949 134.296 132.151 134.401 131.822 134.152C131.779 134.121 131.743 134.079 131.718 134.031C131.692 133.983 131.679 133.93 131.677 133.876C131.674 133.859 131.676 133.842 131.682 133.827C131.689 133.811 131.7 133.798 131.714 133.788C131.918 133.649 132.777 133.95 133.38 134.215Z" fill="#407BFF"/>
<path d="M133.595 134.306C133.605 134.306 133.615 134.304 133.624 134.299C133.633 134.295 133.641 134.289 133.647 134.281C133.653 134.273 133.657 134.264 133.66 134.254C133.662 134.244 133.662 134.234 133.66 134.224C133.646 134.163 133.316 132.731 132.528 132.822C132.33 132.846 132.276 132.944 132.266 133.022C132.216 133.386 133.132 134.122 133.57 134.301C133.578 134.304 133.586 134.306 133.595 134.306ZM132.599 132.951C133.103 132.951 133.396 133.784 133.494 134.118C133.02 133.87 132.366 133.273 132.397 133.04C132.4 133.022 132.407 132.97 132.544 132.954C132.562 132.952 132.58 132.951 132.599 132.951Z" fill="#407BFF"/>
<path d="M127.012 33.1002L126.406 32.7891C126.406 32.7891 126.637 33.355 127.012 33.1002Z" fill="#263238"/>
</g>
<defs>
<clipPath id="clip0_773_1813">
<rect width="190" height="141.591" fill="white"/>
</clipPath>
</defs>
</svg>
