<svg width="48" height="48" viewBox="0 0 48 48" fill="none" xmlns="http://www.w3.org/2000/svg">
    <path fill-rule="evenodd" clip-rule="evenodd" d="M24 48C37.2549 48 48 37.2548 48 24C48 10.7452 37.2549 0 24 0C10.7452 0 0 10.7452 0 24C0 37.2548 10.7452 48 24 48ZM23.7096 10.6453C21.6775 14.9321 19.6454 19.2238 17.6133 23.5153C15.581 27.8076 13.5485 32.0998 11.5161 36.3872H16.7419C18.3871 33.0678 20.0323 29.7436 21.6774 26.4194C23.3225 23.0952 24.9677 19.7711 26.6129 16.4517L23.7096 10.6453ZM26.6128 26.5159C27.4498 24.7741 28.2868 23.0323 29.1288 21.2905C30.3577 23.8064 31.5818 26.3224 32.8059 28.8383C34.0303 31.3546 35.2545 33.8709 36.4836 36.3872H30.8706C30.5514 35.6421 30.2271 34.9017 29.903 34.1614C29.5788 33.4212 29.2545 32.6808 28.9352 31.9356H24.0965H23.9997L24.0965 31.742C24.9385 30 25.7757 28.258 26.6128 26.5159Z" fill="url(#paint0_linear_5124_17931)"/>
    <defs>
        <linearGradient id="paint0_linear_5124_17931" x1="48" y1="-1.43051e-06" x2="-4.29153e-06" y2="48" gradientUnits="userSpaceOnUse">
            <stop stop-color="#B147E1"/>
            <stop offset="1" stop-color="#5236DD"/>
        </linearGradient>
    </defs>
</svg>
