<svg width="48" height="48" viewBox="0 0 48 48" fill="none" xmlns="http://www.w3.org/2000/svg">
    <path d="M30.0321 2.65969C28.2789 4.37099 27.1883 6.75174 27.1883 9.3947V25.0489C27.1883 27.3487 25.3138 29.2232 23.0139 29.2232H12.5188C10.219 29.2232 8.34589 27.3487 8.34589 25.0489C8.34589 22.749 10.219 20.8731 12.5188 20.8731H24.0251V12.5258H12.5188C11.8131 12.5258 11.1144 12.583 10.431 12.6946C4.51186 13.6932 0 18.848 0 25.0489C0 30.5007 3.48536 35.1367 8.34589 36.8508C9.01674 37.0879 9.71409 37.2846 10.431 37.3906C11.1144 37.5161 11.8131 37.5788 12.5188 37.5788H23.0139C23.7294 37.5788 24.4226 37.5161 25.1004 37.3906C25.8159 37.2846 26.5146 37.0879 27.1897 36.8508C32.0502 35.1367 35.537 30.5007 35.537 25.0489V20.8731C40.152 20.8731 43.887 17.1367 43.887 12.5272H35.537V9.39331C35.537 8.81451 36.0056 8.35425 36.576 8.35425H38.6681C41.2134 8.35425 43.5272 7.34589 45.219 5.69317C46.735 4.21618 47.7601 2.22873 48 0H36.5774C34.0391 0.0013947 31.7252 1.01674 30.0321 2.65969Z" fill="#F16334"/>
    <path d="M12.5196 39.6572C10.217 39.6572 8.34668 41.5205 8.34668 43.8246C8.34668 46.1258 10.217 47.9975 12.5196 47.9975C14.8264 47.9975 16.6967 46.1258 16.6967 43.8218C16.6967 41.5205 14.825 39.6572 12.5196 39.6572Z" fill="#F16334"/>
    <path d="M25.0385 39.6572C22.733 39.6572 20.8711 41.5205 20.8711 43.8246C20.8711 46.1258 22.733 47.9975 25.0385 47.9975C27.3509 47.9975 29.2128 46.1258 29.2128 43.8218C29.2114 41.5205 27.3509 39.6572 25.0385 39.6572Z" fill="#F16334"/>
</svg>
