<svg width="18" height="20" viewBox="0 0 18 20" fill="none" xmlns="http://www.w3.org/2000/svg">
    <path d="M17.8356 7.40188C17.8356 3.31336 14.5383 0 10.4696 0H0.15918V19.9804H1.89179C4.89951 19.9804 7.38161 17.7234 7.75393 14.8013H7.7588L7.77096 11.7007H7.51058C5.42757 11.7007 3.7339 10.033 3.67549 7.95452H3.67306V6.96662H4.6586C6.03592 6.96662 7.25507 7.6513 7.99971 8.69788C8.71027 6.16701 11.0269 4.31104 13.7718 4.31104V5.29894V6.62673C13.7718 9.4168 11.6815 11.6811 8.90981 11.6983V14.8013C9.26996 17.7308 11.7569 20 14.772 20H17.8405V14.0604H13.6891C16.1468 12.8598 17.8405 10.3289 17.8405 7.39944L17.8356 7.40188Z" fill="#4338CA"/>
</svg>
