<?xml version="1.0" standalone="no"?>
<!DOCTYPE svg PUBLIC "-//W3C//DTD SVG 20010904//EN"
 "http://www.w3.org/TR/2001/REC-SVG-20010904/DTD/svg10.dtd">
<svg version="1.0" xmlns="http://www.w3.org/2000/svg"
 width="512.000000pt" height="512.000000pt" viewBox="0 0 512.000000 512.000000"
 preserveAspectRatio="xMidYMid meet">

<g transform="translate(0.000000,512.000000) scale(0.100000,-0.100000)"
fill="#000000" stroke="none">
<path d="M2294 4461 c-262 -71 -560 -275 -875 -598 -422 -433 -691 -929 -666
-1227 10 -110 48 -178 151 -265 l84 -70 -19 -78 c-49 -203 5 -396 151 -542
105 -106 255 -180 362 -181 l47 0 50 -97 c158 -306 445 -549 795 -672 297
-105 682 -119 1001 -36 449 117 799 429 937 835 32 95 58 229 58 299 0 102
-46 187 -116 216 -21 8 -32 27 -54 94 l-28 83 26 56 c34 75 35 166 3 234 -45
93 -159 169 -329 218 l-79 23 -6 171 c-9 240 -45 370 -136 491 l-39 51 55 65
c248 292 299 578 128 728 -89 77 -196 105 -375 98 -148 -6 -259 -32 -434 -102
l-118 -47 -107 106 c-134 132 -185 158 -311 163 -61 2 -105 -2 -156 -16z m239
-132 c24 -12 197 -179 197 -190 0 -4 -26 -22 -57 -39 -104 -59 -346 -227 -480
-334 -352 -281 -594 -601 -779 -1030 l-51 -119 -65 -22 c-79 -26 -166 -83
-212 -137 -41 -47 -47 -45 -122 34 -65 69 -78 107 -71 217 6 110 41 217 127
386 287 568 909 1141 1345 1238 41 9 147 7 168 -4z m447 -517 c0 -5 -13 -21
-30 -37 -16 -16 -30 -32 -30 -35 0 -4 35 -12 78 -18 123 -17 291 -76 272 -95
-3 -3 -36 1 -75 8 -237 44 -495 19 -747 -71 -85 -31 -223 -100 -288 -143 -24
-17 -46 -28 -49 -25 -8 8 169 182 255 250 85 67 213 149 220 141 3 -2 -5 -28
-16 -57 -11 -29 -19 -54 -17 -57 2 -2 38 14 78 36 105 56 206 89 342 110 4 0
7 -3 7 -7z m566 -533 c20 -12 43 -41 59 -73 28 -58 38 -128 54 -384 7 -114 12
-146 26 -162 10 -11 69 -36 134 -56 201 -63 260 -105 269 -192 15 -164 -250
-343 -627 -423 -114 -24 -376 -35 -496 -21 -97 11 -134 2 -185 -44 -69 -63
-88 -176 -45 -268 54 -113 204 -182 420 -193 246 -12 527 62 729 191 62 40
172 143 163 153 -3 3 -32 -11 -64 -30 -164 -100 -379 -181 -557 -212 -112 -19
-300 -19 -391 0 -96 20 -170 59 -200 103 -34 49 -33 66 3 57 159 -43 317 -54
442 -32 180 32 185 54 11 49 -140 -5 -260 8 -388 40 -88 22 -96 30 -64 69 18
23 24 24 108 19 158 -8 376 -4 463 9 237 35 454 116 614 228 38 28 51 32 57
21 9 -13 30 -79 46 -147 7 -26 16 -37 41 -45 56 -20 67 -39 66 -119 -2 -91
-38 -206 -98 -308 -53 -90 -175 -223 -262 -285 -88 -63 -255 -140 -371 -171
-89 -24 -114 -27 -273 -27 -162 0 -182 2 -265 28 -274 83 -456 266 -511 512
-25 112 -16 281 20 389 31 92 63 151 116 215 63 77 64 82 27 133 -17 25 -56
73 -85 107 -88 104 -132 213 -132 329 0 124 40 223 124 306 93 93 174 117 343
103 59 -5 151 -8 203 -6 105 5 164 27 247 95 23 18 55 40 70 48 41 22 119 19
159 -6z m-1940 -832 c28 -14 74 -51 102 -81 78 -86 112 -194 112 -355 0 -193
-71 -319 -203 -361 -22 -7 -71 -10 -111 -8 -139 7 -303 117 -368 248 -90 179
-41 413 108 520 104 74 256 90 360 37z"/>
<path d="M3426 2928 c-20 -28 -20 -65 0 -148 22 -95 35 -110 90 -110 l46 0 -4
88 c-5 116 -36 185 -85 190 -23 2 -35 -3 -47 -20z"/>
<path d="M2792 2692 c-48 -18 -122 -74 -122 -94 0 -12 40 -9 95 7 88 27 174
21 269 -20 54 -23 67 -7 33 38 -54 71 -180 103 -275 69z"/>
<path d="M3508 2563 c-23 -28 -28 -50 -17 -82 22 -64 89 -42 89 29 0 23 -7 43
-18 53 -24 22 -35 21 -54 0z"/>
<path d="M2895 2538 c-36 -13 -75 -46 -75 -65 0 -16 4 -16 65 3 30 9 76 14
115 12 52 -2 65 0 65 12 0 38 -104 61 -170 38z"/>
<path d="M3298 2479 c-10 -5 -18 -21 -18 -34 0 -42 48 -73 96 -61 18 5 24 13
24 35 0 47 -63 84 -102 60z"/>
<path d="M1354 2305 c-62 -37 -118 -156 -99 -214 11 -37 35 -23 60 34 26 58
70 95 113 95 39 0 83 -29 98 -66 13 -30 13 -42 -1 -93 -27 -104 -15 -169 37
-205 29 -20 77 -20 106 0 35 24 28 44 -16 44 -41 0 -72 23 -72 52 0 9 11 46
25 82 42 111 32 188 -32 248 -58 55 -150 65 -219 23z"/>
</g>
</svg>
