<svg xmlns="http://www.w3.org/2000/svg" width="655.03" height="166.17" enable-background="new" viewBox="0 0 173.31 43.965"><defs><filter id="a" color-interpolation-filters="sRGB"><feFlood flood-color="#000" flood-opacity=".498" result="flood"/><feComposite in="flood" in2="SourceGraphic" operator="in" result="composite1"/><feGaussianBlur in="composite1" result="blur" stdDeviation=".8"/><feOffset dx="1.6" dy=".5" result="offset"/><feComposite in="SourceGraphic" in2="offset" result="composite2"/></filter></defs><g fill="#fff" aria-label="WEB" style="font-variant-ligatures:normal;font-variant-caps:normal;font-variant-numeric:normal;font-feature-settings:normal"><path d="M59.4619 31.5454h-4.4462l-1.87-10.0171q-.4316-2.053-.6147-4.8516l-.1046.9677-.5362 3.9362-1.8177 9.9648h-4.4462l-3.4654-19.1187h3.4915l1.7131 10.7884q.2485 1.6216.667 5.0869.3269-3.5047.6146-5.0086l2.04-10.8672h3.6878l2.04 10.8672q.4054 2.4193.6408 5.0347.4577-3.8708.6669-5.113l1.6608-10.7884h3.5177zM74.5116 31.5454h-8.6175V12.4267h8.6175v3.073H69.451v4.5509h4.6947v3.0862h-4.6947v5.2963h5.0607zM78.3481 12.4231h4.8778q2.9815 0 4.3415 1.1639 1.36 1.1508 1.36 3.6746 0 1.6608-.7192 2.7855-.7193 1.1116-1.9615 1.347v.1307q1.6215.4054 2.3407 1.517.7193 1.1114.7193 2.9553 0 2.6024-1.3993 4.08-1.3862 1.4647-3.8054 1.4647h-5.7538zm3.3478 7.6891h1.6346q1.1247 0 1.5823-.6015.4577-.6016.4577-1.7916t-.523-1.7q-.5232-.5231-1.6478-.5231H81.696zm0 2.9685v5.3485h1.7915q1.1116 0 1.6477-.68.5493-.68.5493-2.1054 0-2.5631-2.2493-2.5631z"/></g><g fill="#3eb1cb" stroke-width=".4776" aria-label="Solution" style="font-variant-ligatures:normal;font-variant-caps:normal;font-variant-numeric:normal;font-feature-settings:normal"><path d="M102.4 26.52q0 2.5499-1.2936 3.9057-1.2812 1.3558-3.7067 1.3558-2.3758 0-4.0426-.9329v-3.346q2.0399 1.3309 3.744 1.3309.9702 0 1.4553-.5349.4975-.5348.4975-1.4553 0-.908-.5846-1.6543-.5846-.7587-1.928-1.6792-1.1692-.8085-1.7787-1.5424-.597-.7463-.9329-1.6668-.3234-.9204-.3234-2.1394 0-2.3385 1.2936-3.7067 1.3061-1.3682 3.4953-1.3682 2.0897 0 4.0177 1.1692l-1.1195 2.7116q-.597-.3483-1.2563-.6219-.6468-.2737-1.393-.2737-.821 0-1.2688.5473-.4353.535-.4353 1.4678 0 .9205.5224 1.6046.5349.6842 1.8534 1.5548 1.7787 1.1941 2.4753 2.438.709 1.244.709 2.836zM114.73 24.58q0 3.4082-1.4429 5.3113-1.4429 1.8907-3.9555 1.8907-1.5922 0-2.8111-.8707-1.219-.8707-1.8782-2.5002-.6593-1.6419-.6593-3.8311 0-3.3709 1.4305-5.2615 1.4304-1.9031 3.9679-1.9031 2.4504 0 3.8933 1.9404 1.4553 1.928 1.4553 5.2242zm-7.3637 0q0 2.1643.4727 3.2714.4726 1.1071 1.5175 1.107 1.9902 0 1.9902-4.3784 0-2.1768-.4851-3.2465-.4727-1.0822-1.5051-1.0822-1.0448 0-1.5175 1.0822-.4727 1.0697-.4727 3.2465zM120.36 31.53h-3.3087V12.175h3.3087zM130.61 31.53l-.4105-1.7787h-.1741q-.4602.9453-1.3185 1.4926-.8458.5349-1.9404.5349-1.8658 0-2.8236-1.2687t-.9578-3.7938v-9.043h3.346v8.2469q0 1.5175.3607 2.2887.3607.7712 1.1692.7712 1.0697 0 1.5548-1.0697.4976-1.0697.4976-3.5948v-6.6422h3.346v13.857zM140.87 28.98q.6966 0 1.5051-.3483v2.5872q-.8085.5598-2.4255.5598-1.8036 0-2.6743-1.0697-.8707-1.0822-.8707-3.234v-7.1771h-1.3434v-1.4802l1.729-1.1941.8458-2.9355h2.1146v2.9853h2.5126v2.6246h-2.5126v7.289q0 1.393 1.1195 1.393zM147.65 31.53h-3.3087V17.673h3.3087Zm-3.4455-17.476q0-.821.4727-1.2936.485-.4851 1.3434-.4851.8085 0 1.2936.4851.485.4727.485 1.2936 0 .8458-.4975 1.3185-.4975.4602-1.2812.4602-.821 0-1.3185-.4602-.4975-.4727-.4975-1.3185zM160.75 24.58q0 3.4082-1.4429 5.3113-1.4429 1.8907-3.9555 1.8907-1.5922 0-2.8111-.8707-1.219-.8707-1.8782-2.5002-.6592-1.6419-.6592-3.8311 0-3.3709 1.4304-5.2615 1.4304-1.9031 3.9679-1.9031 2.4504 0 3.8933 1.9404 1.4553 1.928 1.4553 5.2242zm-7.3637 0q0 2.1643.4727 3.2714.4726 1.107 1.5175 1.107 1.9902 0 1.9902-4.3784 0-2.1768-.4852-3.2465-.4726-1.0822-1.505-1.0822-1.0448 0-1.5175 1.0822-.4727 1.0697-.4727 3.2465zM169.98 31.53v-8.2592q0-1.5051-.3607-2.2763-.3607-.7712-1.1692-.7712-1.0697 0-1.5673 1.0697-.4976 1.0573-.4976 3.5823V31.53h-3.3087V17.673h2.6246l.398 1.7787h.2115q.4478-.9578 1.2812-1.4926.8334-.5473 1.953-.5473 1.8906 0 2.8235 1.2936.9454 1.2936.9454 3.7813v9.0429z"/></g><g filter="url(#a)" transform="translate(-16.55 -221.99)"><path fill="#ee6443" fill-rule="evenodd" d="M52.8022 225.6554c-3.4533.0493-5.4225 8.0257-11.18 8.724-5.153.6247-16.19-11.2598-20.145-7.3048-4.5057 4.5058 6.3788 13.3782 6.1955 19.2812-.199 6.404-11.0833 9.8485-6.1954 14.7363 5.0336 5.0337 11.7431-7.3706 18.3325-7.7318 5.7075-.3126 11.325 12.0919 15.685 7.7318 4.271-4.2708-6.44-9.7476-6.0527-15.3342.4647-6.7013 11.1756-13.5605 6.0528-18.6833-1.0198-1.0198-1.896-1.4304-2.693-1.419zm-6.6124 11.2353-.0253 2.4205-3.4665-.1684c-.3447 2.4582-.5075 4.7264-.3886 7.2114.1135.712.3866 1.2018.833 1.4934.4592.2711 1.009.3492 1.526.1948.417-.146.736-.4474.9007-.8521.0576-.1417.0868-.254.1612-.6155l.434-.0088c0 .119-.1368.849-.2232 1.187-.224.8766-.5221 1.457-.9844 1.9182-.3559.355-.7793.6169-1.1735.7255-.234.0645-.7137.0776-.9442.0264-.5137-.1143-1.0754-.287-1.4913-.6713-.416-.3843-1.1513-1.2198-1.2449-2.6432a26.7085 26.7085 0 0 1-.0248-3.3207c.0875-1.611.0275-3.1753.1075-4.751l-1.7518.005c.1745.1107-.1202 1.4601-.275 4.2844-.1546 2.8244-1.0228 5.064-1.5461 5.8755-.5233.8115-.843 1.0163-1.1436 1.1643v-.001c-.2613.1213-.577.1197-.8485.0304-.5823-.2026-.8993-.7064-.8237-1.3094.0544-.4342.167-.6473.8237-1.5606.7286-1.0136.969-1.6767 1.2423-3.426.0937-.6005.0958-.63.263-2.9554.0538-.7442.1037-1.4886.1685-2.232h-.2827c-.837.0006-1.4361.1375-1.8846.429-.3594.2336-.8085.7488-1.1839 1.359l-.1581.2564-.433.0005.0371-.1307c.0867-.3025.275-.849.3866-1.1209.3464-.8436.7374-1.4383 1.3094-1.9916.4954-.4791.825-.634 1.6232-.7632.1323-.0215.309-.0449 1.1539-.0517 3.109-.0117 6.2184.01 9.3275-.0082z" paint-order="markers fill stroke"/></g></svg>