<svg xmlns="http://www.w3.org/2000/svg" width="20" height="20" enable-background="new" viewBox="0 0 2.4056 2.4072"><defs><filter id="a" color-interpolation-filters="sRGB"><feFlood flood-color="#000" flood-opacity=".498" result="flood"/><feComposite in="flood" in2="SourceGraphic" operator="in" result="composite1"/><feGaussianBlur in="composite1" result="blur" stdDeviation=".8"/><feOffset dx="1.6" dy=".5" result="offset"/><feComposite in="SourceGraphic" in2="offset" result="composite2"/></filter></defs><g filter="url(#a)" transform="matrix(.0563 0 0 .0563 -.9685 -12.539)"><path fill="#ee6443" fill-rule="evenodd" d="M52.8022 225.6554c-3.4533.0493-5.4225 8.0257-11.18 8.724-5.153.6247-16.19-11.2598-20.145-7.3048-4.5057 4.5058 6.3788 13.3782 6.1955 19.2812-.199 6.404-11.0833 9.8485-6.1954 14.7363 5.0336 5.0337 11.7431-7.3706 18.3325-7.7318 5.7075-.3126 11.325 12.0919 15.685 7.7318 4.271-4.2708-6.44-9.7476-6.0527-15.3342.4647-6.7013 11.1756-13.5605 6.0528-18.6833-1.0198-1.0198-1.896-1.4304-2.693-1.419zm-6.6124 11.2353-.0253 2.4205-3.4665-.1684c-.3447 2.4582-.5075 4.7264-.3886 7.2114.1135.712.3866 1.2018.833 1.4934.4592.2711 1.009.3492 1.526.1948.417-.146.736-.4474.9007-.8521.0576-.1417.0868-.254.1612-.6155l.434-.0088c0 .119-.1368.849-.2232 1.187-.224.8766-.5221 1.457-.9844 1.9182-.3559.355-.7793.6169-1.1735.7255-.234.0645-.7137.0776-.9442.0264-.5137-.1143-1.0754-.287-1.4913-.6713-.416-.3843-1.1513-1.2198-1.2449-2.6432a26.7085 26.7085 0 0 1-.0248-3.3207c.0875-1.611.0275-3.1753.1075-4.751l-1.7518.005c.1745.1107-.1202 1.4601-.275 4.2844-.1546 2.8244-1.0228 5.064-1.5461 5.8755-.5233.8115-.843 1.0163-1.1436 1.1643v-.001c-.2613.1213-.577.1197-.8485.0304-.5823-.2026-.8993-.7064-.8237-1.3094.0544-.4342.167-.6473.8237-1.5606.7286-1.0136.969-1.6767 1.2423-3.426.0937-.6005.0958-.63.263-2.9554.0538-.7442.1037-1.4886.1685-2.232h-.2827c-.837.0006-1.4361.1375-1.8846.429-.3594.2336-.8085.7488-1.1839 1.359l-.1581.2564-.433.0005.0371-.1307c.0867-.3025.275-.849.3866-1.1209.3464-.8436.7374-1.4383 1.3094-1.9916.4954-.4791.825-.634 1.6232-.7632.1323-.0215.309-.0449 1.1539-.0517 3.109-.0117 6.2184.01 9.3275-.0082z" paint-order="markers fill stroke"/></g></svg>